<?xml version="1.0" encoding="utf-8"?>
<!-- Generator: Adobe Illustrator 16.0.0, SVG Export Plug-In . SVG Version: 6.00 Build 0)  -->
<!DOCTYPE svg PUBLIC "-//W3C//DTD SVG 1.1//EN" "http://www.w3.org/Graphics/SVG/1.1/DTD/svg11.dtd">
<svg version="1.1" id="Layer_1" xmlns="http://www.w3.org/2000/svg" xmlns:xlink="http://www.w3.org/1999/xlink" x="0px" y="0px"
	 width="856px" height="942px" viewBox="0 0 856 942" enable-background="new 0 0 856 942" xml:space="preserve">
<g>
	
		<radialGradient id="SVGID_1_" cx="430.9492" cy="737.1504" r="458.5345" gradientTransform="matrix(1 0 0 0.9302 0 51.4305)" gradientUnits="userSpaceOnUse">
		<stop  offset="0" style="stop-color:#FFFFFF"/>
		<stop  offset="0.6" style="stop-color:#FEFEFE;stop-opacity:0.7804"/>
		<stop  offset="0.7804" style="stop-color:#FCFCFC;stop-opacity:0.2706"/>
		<stop  offset="1" style="stop-color:#FAFAFA;stop-opacity:0"/>
	</radialGradient>
	<path fill-rule="evenodd" clip-rule="evenodd" fill="url(#SVGID_1_)" d="M861.85,737.15c0,0.23-0.08,0.43-0.25,0.6
		c-0.17,0.1-0.33,0.15-0.5,0.15H0.8c-0.2,0-0.35-0.05-0.45-0.15c-0.2-0.17-0.3-0.37-0.3-0.6c0-0.17,0.1-0.33,0.3-0.5
		c0.1-0.17,0.25-0.25,0.45-0.25h860.3c0.17,0,0.33,0.08,0.5,0.25C861.77,736.82,861.85,736.98,861.85,737.15z"/>
	<g>
		<rect x="0.25" y="738.95" fill-rule="evenodd" clip-rule="evenodd" fill="#241D17" width="860.3" height="206.75"/>
	</g>
	<g>
		<line fill-rule="evenodd" clip-rule="evenodd" fill="none" x1="46.3" y1="737.8" x2="772.25" y2="737.8"/>
	</g>
	<g>
		
			<radialGradient id="SVGID_2_" cx="421.5" cy="665.4004" r="504.2875" gradientTransform="matrix(1 0 0 1.2976 0 -198.0384)" gradientUnits="userSpaceOnUse">
			<stop  offset="0" style="stop-color:#709589"/>
			<stop  offset="0.7451" style="stop-color:#415452"/>
			<stop  offset="1" style="stop-color:#395257"/>
			<stop  offset="1" style="stop-color:#25363A"/>
		</radialGradient>
		<rect x="0.25" fill-rule="evenodd" clip-rule="evenodd" fill="url(#SVGID_2_)" width="860.3" height="682.95"/>
	</g>
	<g>
		<linearGradient id="SVGID_3_" gradientUnits="userSpaceOnUse" x1="430.6475" y1="682.335" x2="430.6769" y2="656.16">
			<stop  offset="0" style="stop-color:#000000"/>
			<stop  offset="0.1529" style="stop-color:#000000;stop-opacity:0.6588"/>
			<stop  offset="1" style="stop-color:#000000;stop-opacity:0"/>
		</linearGradient>
		<path fill-rule="evenodd" clip-rule="evenodd" fill="url(#SVGID_3_)" d="M860.55,693.55c0,4.87-0.93,7.3-2.8,7.3H3.55
			c-1.83,0-2.75-2.43-2.75-7.3v-72.3h859.75V693.55z"/>
	</g>
	<g>
		<rect y="797.25" fill-rule="evenodd" clip-rule="evenodd" fill="#493A25" width="860.55" height="11.55"/>
		
			<radialGradient id="SVGID_4_" cx="397.1504" cy="724" r="491.0875" gradientTransform="matrix(1 0 0 0.4504 0 397.9079)" gradientUnits="userSpaceOnUse">
			<stop  offset="0" style="stop-color:#CEB197"/>
			<stop  offset="0.9882" style="stop-color:#474430"/>
		</radialGradient>
		<rect y="661.2" fill-rule="evenodd" clip-rule="evenodd" fill="url(#SVGID_4_)" width="860.55" height="136.05"/>
	</g>
	<g>
		
			<radialGradient id="SVGID_5_" cx="640.9482" cy="797.4502" r="426.0617" gradientTransform="matrix(1 0 -0.2927 1.1024 21.6719 -81.6308)" gradientUnits="userSpaceOnUse">
			<stop  offset="0" style="stop-color:#FFFFFF"/>
			<stop  offset="0.749" style="stop-color:#FFFFFF;stop-opacity:0.498"/>
			<stop  offset="1" style="stop-color:#FFFFFF;stop-opacity:0"/>
		</radialGradient>
		<polygon fill-rule="evenodd" clip-rule="evenodd" fill="url(#SVGID_5_)" points="855.35,797.2 855.2,797.8 3.1,797.8 3.25,797.2 
					"/>
	</g>
</g>
</svg>
