<?xml version="1.0" encoding="utf-8"?>
<!-- Generator: Adobe Illustrator 16.0.0, SVG Export Plug-In . SVG Version: 6.00 Build 0)  -->
<!DOCTYPE svg PUBLIC "-//W3C//DTD SVG 1.1//EN" "http://www.w3.org/Graphics/SVG/1.1/DTD/svg11.dtd">
<svg version="1.1" xmlns="http://www.w3.org/2000/svg" xmlns:xlink="http://www.w3.org/1999/xlink" x="0px" y="0px" width="198.5px"
	 height="37.67px" viewBox="-98.5 0 198.5 37.67" enable-background="new -98.5 0 198.5 37.67" xml:space="preserve">
<g id="Layer_2">
</g>
<g id="Layer_1">
	<g>
		<g>
			<g>
				
					<linearGradient id="SVGID_1_" gradientUnits="userSpaceOnUse" x1="-1143.416" y1="117.043" x2="-1110.1915" y2="117.043" gradientTransform="matrix(-0.0384 -0.9993 -1.0004 8.856634e-003 122.4854 -1106.9753)">
					<stop  offset="0" style="stop-color:#737373"/>
					<stop  offset="0.051" style="stop-color:#4A4A4A"/>
					<stop  offset="0.2196" style="stop-color:#414141"/>
					<stop  offset="0.5725" style="stop-color:#5E5E5E"/>
					<stop  offset="0.902" style="stop-color:#8B8B8B"/>
					<stop  offset="1" style="stop-color:#999999"/>
				</linearGradient>
				<path fill="url(#SVGID_1_)" d="M4.73,0.93C33.8,1,61.67,2.3,88.33,4.83c0.38,0.04,0.76,0.08,1.15,0.13
					c1.25,0.12,2.5,0.25,3.75,0.38c0.12,0.01,0.24,0.03,0.35,0.05c0.29,0.6,0.56,1.33,0.83,2.2c0.03,0.08,0.05,0.17,0.08,0.25
					c0.83,3.03,1.25,6.68,1.25,10.95c0,4.27-0.42,7.92-1.25,10.95c-0.08,0.26-0.15,0.51-0.23,0.75c-0.28,0.85-0.57,1.56-0.88,2.13
					c-0.17,0.02-0.33,0.02-0.5,0.02c-1.07,0.12-2.15,0.24-3.22,0.35c-14.67,1.54-29.23,2.63-43.67,3.25
					c-3.43,0.17-6.85,0.3-10.25,0.4c-2.07,0.03-4.15,0.07-6.25,0.1l-26.1-0.7c-2.7-11.7-2.42-22.88,0.85-33.55
					C4.4,1.95,4.57,1.43,4.73,0.93z"/>
			</g>
			<g>
				
					<radialGradient id="SVGID_2_" cx="69.2617" cy="325.6084" r="4.5012" fx="72.2979" fy="325.6084" gradientTransform="matrix(0.997 -0.0778 0.411 -5.8763 -197.1936 1935.7943)" gradientUnits="userSpaceOnUse">
					<stop  offset="0" style="stop-color:#5E5E5E"/>
					<stop  offset="0.8" style="stop-color:#444444"/>
					<stop  offset="1" style="stop-color:#888888"/>
				</radialGradient>
				<path fill="url(#SVGID_2_)" d="M5.38,1.13C4.92,2.77,4.53,4.4,4.23,6.03c-1.97,9.8-1.98,19.8-0.05,30
					c-0.07,0.07-0.15,0.13-0.25,0.2c-0.47,0.23-0.95,0.23-1.45,0c-0.13-0.1-0.28-0.2-0.45-0.3C0,26.2,0.32,15.2,2.98,2.93
					c0.47-1.23,0.88-2,1.25-2.3C4.67,0.3,5.05,0.47,5.38,1.13z"/>
			</g>
			
				<radialGradient id="SVGID_3_" cx="93.127" cy="-2398.457" r="34.1781" gradientTransform="matrix(0.9991 0.0429 5.548683e-003 -0.1294 -17.9542 -306.5186)" gradientUnits="userSpaceOnUse">
				<stop  offset="0" style="stop-color:#FFFFFF;stop-opacity:0.851"/>
				<stop  offset="0.1961" style="stop-color:#FFFFFF;stop-opacity:0.4824"/>
				<stop  offset="0.3647" style="stop-color:#FFFFFF;stop-opacity:0.2902"/>
				<stop  offset="0.6078" style="stop-color:#FFFFFF;stop-opacity:0.0863"/>
				<stop  offset="0.8588" style="stop-color:#FFFFFF;stop-opacity:7.843138e-003"/>
				<stop  offset="1" style="stop-color:#FFFFFF;stop-opacity:0"/>
			</radialGradient>
			<path fill="url(#SVGID_3_)" d="M61.73,3.43c9.23,0.4,17.2,1.17,23.9,2.3c6.73,1.17,10.08,2.35,10.05,3.55
				c-0.07,1.2-3.5,2.08-10.3,2.65c-6.7,0.6-14.65,0.7-23.85,0.3c-9.13-0.4-17.07-1.18-23.8-2.35c-6.63-1.13-9.92-2.3-9.85-3.5
				c0.03-1.2,3.4-2.1,10.1-2.7C44.68,3.12,52.6,3.03,61.73,3.43z"/>
			<g>
				<path fill="#2C2C2C" d="M93.38,32.98c-0.07-0.13-0.13-0.25-0.2-0.35c0.4-0.7,0.8-1.68,1.2-2.95v-0.05
					c0-0.03,0.02-0.05,0.05-0.05c0.4-1.47,0.7-3.08,0.9-4.85c0.2-1.73,0.3-3.65,0.3-5.75c0-4.1-0.4-7.6-1.2-10.5
					c-0.03-0.03-0.05-0.07-0.05-0.1c-0.37-1.3-0.77-2.3-1.2-3c0.07-0.13,0.13-0.25,0.2-0.35c0.03,0.03,0.07,0.08,0.1,0.15l0.05,0.05
					c0.43,0.67,0.85,1.67,1.25,3c0.03,0.03,0.05,0.08,0.05,0.15c0.83,2.93,1.25,6.47,1.25,10.6v0.05c0,2.07-0.1,3.98-0.3,5.75v0.05
					c-0.23,1.73-0.55,3.33-0.95,4.8c0,0.03-0.02,0.07-0.05,0.1c-0.4,1.33-0.82,2.35-1.25,3.05l-0.05,0.05
					C93.45,32.87,93.42,32.92,93.38,32.98z"/>
				<path fill="#2C2C2C" d="M93.38,32.98c-0.07-0.13-0.13-0.25-0.2-0.35c0.4-0.7,0.8-1.68,1.2-2.95v-0.05
					c0-0.03,0.02-0.05,0.05-0.05c0.4-1.47,0.7-3.08,0.9-4.85c0.2-1.73,0.3-3.65,0.3-5.75c0-4.1-0.4-7.6-1.2-10.5
					c-0.03-0.03-0.05-0.07-0.05-0.1c-0.37-1.3-0.77-2.3-1.2-3c0.07-0.13,0.13-0.25,0.2-0.35c0.03,0.03,0.07,0.08,0.1,0.15l0.05,0.05
					c0.43,0.67,0.85,1.67,1.25,3c0.03,0.03,0.05,0.08,0.05,0.15c0.83,2.93,1.25,6.47,1.25,10.6v0.05c0,2.07-0.1,3.98-0.3,5.75v0.05
					c-0.23,1.73-0.55,3.33-0.95,4.8c0,0.03-0.02,0.07-0.05,0.1c-0.4,1.33-0.82,2.35-1.25,3.05l-0.05,0.05
					C93.45,32.87,93.42,32.92,93.38,32.98z"/>
				<path fill="#4A4A4A" d="M93.38,5.03c0.5-0.67,1.03-1,1.6-1c1.17,0,2.18,1.45,3.05,4.35c0.83,2.93,1.25,6.47,1.25,10.6
					c0,4.13-0.42,7.68-1.25,10.65c-0.87,2.93-1.88,4.4-3.05,4.4c-0.57,0-1.1-0.35-1.6-1.05c0.03-0.07,0.07-0.12,0.1-0.15l0.05-0.05
					c0.43-0.7,0.85-1.72,1.25-3.05c0.03-0.03,0.05-0.07,0.05-0.1c0.4-1.47,0.72-3.07,0.95-4.8v-0.05c0.2-1.77,0.3-3.68,0.3-5.75
					v-0.05c0-4.13-0.42-7.67-1.25-10.6c0-0.07-0.02-0.12-0.05-0.15c-0.4-1.33-0.82-2.33-1.25-3l-0.05-0.05
					C93.45,5.12,93.42,5.07,93.38,5.03z"/>
				<path fill="#4A4A4A" d="M93.38,5.03c0.5-0.67,1.03-1,1.6-1c1.17,0,2.18,1.45,3.05,4.35c0.83,2.93,1.25,6.47,1.25,10.6
					c0,4.13-0.42,7.68-1.25,10.65c-0.87,2.93-1.88,4.4-3.05,4.4c-0.57,0-1.1-0.35-1.6-1.05c0.03-0.07,0.07-0.12,0.1-0.15l0.05-0.05
					c0.43-0.7,0.85-1.72,1.25-3.05c0.03-0.03,0.05-0.07,0.05-0.1c0.4-1.47,0.72-3.07,0.95-4.8v-0.05c0.2-1.77,0.3-3.68,0.3-5.75
					v-0.05c0-4.13-0.42-7.67-1.25-10.6c0-0.07-0.02-0.12-0.05-0.15c-0.4-1.33-0.82-2.33-1.25-3l-0.05-0.05
					C93.45,5.12,93.42,5.07,93.38,5.03z"/>
			</g>
			
				<radialGradient id="SVGID_4_" cx="1197.416" cy="7047.4541" r="34.158" gradientTransform="matrix(-1.969627e-003 0.24 0.0376 -3.094550e-004 -165.0565 -267.9241)" gradientUnits="userSpaceOnUse">
				<stop  offset="0" style="stop-color:#FFFFFF;stop-opacity:0.851"/>
				<stop  offset="0.1961" style="stop-color:#FFFFFF;stop-opacity:0.4824"/>
				<stop  offset="0.3647" style="stop-color:#FFFFFF;stop-opacity:0.2902"/>
				<stop  offset="0.6078" style="stop-color:#FFFFFF;stop-opacity:0.0863"/>
				<stop  offset="0.8588" style="stop-color:#FFFFFF;stop-opacity:7.843138e-003"/>
				<stop  offset="1" style="stop-color:#FFFFFF;stop-opacity:0"/>
			</radialGradient>
			<path fill="url(#SVGID_4_)" d="M98.85,17.21c-0.02,2.22-0.16,4.14-0.42,5.76c-0.27,1.63-0.58,2.45-0.92,2.45
				c-0.35,0-0.64-0.81-0.88-2.44c-0.24-1.6-0.36-3.5-0.34-5.71c0.02-2.19,0.17-4.11,0.43-5.73c0.26-1.6,0.56-2.41,0.91-2.41
				c0.35-0.01,0.65,0.79,0.89,2.39S98.87,15.02,98.85,17.21z"/>
		</g>
	</g>
</g>
</svg>
