<?xml version="1.0" encoding="utf-8"?>
<!-- Generator: Adobe Illustrator 16.0.0, SVG Export Plug-In . SVG Version: 6.00 Build 0)  -->
<!DOCTYPE svg PUBLIC "-//W3C//DTD SVG 1.1//EN" "http://www.w3.org/Graphics/SVG/1.1/DTD/svg11.dtd">
<svg version="1.1" id="Layer_1" xmlns="http://www.w3.org/2000/svg" xmlns:xlink="http://www.w3.org/1999/xlink" x="0px" y="0px"
	 width="69.5px" height="64.5px" viewBox="0 0 69.5 64.5" enable-background="new 0 0 69.5 64.5" xml:space="preserve">
<g>
	
		<radialGradient id="SVGID_1_" cx="-131.5" cy="422.1494" r="16.1002" gradientTransform="matrix(2.0213 0 0 0.2156 300.2881 -31.0327)" gradientUnits="userSpaceOnUse">
		<stop  offset="0" style="stop-color:#000000;stop-opacity:0.6314"/>
		<stop  offset="0.1373" style="stop-color:#000000;stop-opacity:0.6"/>
		<stop  offset="0.2863" style="stop-color:#000000;stop-opacity:0.3765"/>
		<stop  offset="0.4471" style="stop-color:#000000;stop-opacity:0.1098"/>
		<stop  offset="0.6863" style="stop-color:#000000;stop-opacity:0.0275"/>
		<stop  offset="1" style="stop-color:#000000;stop-opacity:0"/>
	</radialGradient>
	<path fill-rule="evenodd" clip-rule="evenodd" fill="url(#SVGID_1_)" d="M57.93,62.36c-6.47,0.65-14.28,0.97-23.45,0.97
		c-9.16,0-16.98-0.32-23.45-0.97c-6.47-0.65-9.7-1.44-9.7-2.39c0-0.95,3.23-1.74,9.7-2.39c6.47-0.65,14.28-0.97,23.45-0.97
		c9.16,0,16.98,0.32,23.45,0.97c6.47,0.65,9.7,1.44,9.7,2.39C67.63,60.92,64.4,61.71,57.93,62.36z"/>
	<g>
		<g>
			<linearGradient id="SVGID_2_" gradientUnits="userSpaceOnUse" x1="17.5249" y1="44.8252" x2="17.5249" y2="15.5752">
				<stop  offset="0" style="stop-color:#483E3D"/>
				<stop  offset="1" style="stop-color:#A77250"/>
			</linearGradient>
			<path fill-rule="evenodd" clip-rule="evenodd" fill="url(#SVGID_2_)" d="M12.75,9.5C7.05,15.23,4.2,22.13,4.2,30.2
				c0,1.13,0.05,2.23,0.15,3.3c0.7,6.67,3.5,12.47,8.4,17.4c5.4,5.37,11.87,8.2,19.4,8.5v0.05c-8.1,0-15-2.85-20.7-8.55
				c-4.9-4.93-7.7-10.73-8.4-17.4c-0.1-1.07-0.15-2.17-0.15-3.3c0-8.07,2.85-14.97,8.55-20.7c5.7-5.7,12.6-8.55,20.7-8.55V1
				C24.62,1.3,18.15,4.13,12.75,9.5z"/>
		</g>
		<g>
			<path fill-rule="evenodd" clip-rule="evenodd" fill="#9F7859" d="M33.15,55.75c6.6-0.27,12.28-2.77,17.05-7.5
				c5-5,7.5-11.03,7.5-18.1c0-1-0.05-1.98-0.15-2.95c-0.6-5.83-3.05-10.9-7.35-15.2c-4.77-4.73-10.45-7.23-17.05-7.5
				c7.07,0,13.1,2.5,18.1,7.5c4.3,4.3,6.75,9.37,7.35,15.2c0.1,0.97,0.15,1.95,0.15,2.95c0,7.07-2.5,13.1-7.5,18.1
				S40.22,55.75,33.15,55.75z"/>
			<linearGradient id="SVGID_3_" gradientUnits="userSpaceOnUse" x1="27.7715" y1="10.8564" x2="28.273" y2="12.731">
				<stop  offset="0" style="stop-color:#A8774F"/>
				<stop  offset="1" style="stop-color:#B6875D"/>
			</linearGradient>
			<path fill-rule="evenodd" clip-rule="evenodd" fill="url(#SVGID_3_)" d="M33.15,4.5c-0.2,0-0.38,0-0.55,0
				C25.73,4.63,19.87,7.13,15,12c-4.3,4.3-6.75,9.37-7.35,15.2c-0.1,0.97-0.15,1.95-0.15,2.95c0,7.07,2.5,13.1,7.5,18.1
				c4.87,4.87,10.73,7.37,17.6,7.5c0.17,0,0.35,0,0.55,0c7.07,0,13.1-2.5,18.1-7.5s7.5-11.03,7.5-18.1c0-1-0.05-1.98-0.15-2.95
				C58,21.37,55.55,16.3,51.25,12C46.25,7,40.22,4.5,33.15,4.5z M31.65,1c0.2-0.03,0.42-0.05,0.65-0.05c0.2,0,0.42,0,0.65,0
				c8.1,0,15,2.85,20.7,8.55c5.7,5.73,8.55,12.63,8.55,20.7c0,1.13-0.07,2.23-0.2,3.3c-0.67,6.67-3.45,12.47-8.35,17.4
				c-5.7,5.7-12.6,8.55-20.7,8.55c-0.23,0-0.45,0-0.65,0c-0.23-0.03-0.45-0.05-0.65-0.05c-7.53-0.3-14-3.13-19.4-8.5
				c-4.9-4.93-7.7-10.73-8.4-17.4c-0.1-1.07-0.15-2.17-0.15-3.3c0-8.07,2.85-14.97,8.55-20.7C17.65,4.13,24.12,1.3,31.65,1z"/>
		</g>
		<g>
			<linearGradient id="SVGID_4_" gradientUnits="userSpaceOnUse" x1="45.439" y1="20.4028" x2="46.9924" y2="22.6755">
				<stop  offset="0" style="stop-color:#B78F6C"/>
				<stop  offset="0.4941" style="stop-color:#C8B19D"/>
				<stop  offset="1" style="stop-color:#9E846B"/>
			</linearGradient>
			<path fill-rule="evenodd" clip-rule="evenodd" fill="url(#SVGID_4_)" d="M37.25,26l0.65-0.85l15.9-10.3
				c0.57,0.73,1.08,1.5,1.55,2.3L38.5,28.1C38.27,27.37,37.85,26.67,37.25,26z"/>
			<linearGradient id="SVGID_5_" gradientUnits="userSpaceOnUse" x1="48.2261" y1="26.3589" x2="48.7061" y2="29.008">
				<stop  offset="0" style="stop-color:#B78F6C"/>
				<stop  offset="0.4941" style="stop-color:#C8B19D"/>
				<stop  offset="1" style="stop-color:#9E846B"/>
			</linearGradient>
			<path fill-rule="evenodd" clip-rule="evenodd" fill="url(#SVGID_5_)" d="M39.6,30.35h-0.95c0.03-0.3,0.05-0.5,0.05-0.6
				c0-0.6-0.07-1.15-0.2-1.65l19.75-3.2c0.17,0.77,0.28,1.55,0.35,2.35L39.6,30.35z"/>
			<linearGradient id="SVGID_6_" gradientUnits="userSpaceOnUse" x1="26.7095" y1="15.7026" x2="29.3617" y2="14.6834">
				<stop  offset="0" style="stop-color:#B78F6C"/>
				<stop  offset="0.4941" style="stop-color:#C8B19D"/>
				<stop  offset="1" style="stop-color:#9E846B"/>
			</linearGradient>
			<path fill-rule="evenodd" clip-rule="evenodd" fill="url(#SVGID_6_)" d="M30.2,25.05l-0.05-0.15l-6.9-18.7
				C24.12,5.87,25,5.57,25.9,5.3l6.75,18.9v0.05C31.75,24.32,30.93,24.58,30.2,25.05z"/>
			<linearGradient id="SVGID_7_" gradientUnits="userSpaceOnUse" x1="22.6772" y1="18.2754" x2="20.7477" y2="20.4464">
				<stop  offset="0" style="stop-color:#B78F6C"/>
				<stop  offset="0.4941" style="stop-color:#C8B19D"/>
				<stop  offset="1" style="stop-color:#9E846B"/>
			</linearGradient>
			<path fill-rule="evenodd" clip-rule="evenodd" fill="url(#SVGID_7_)" d="M28.3,27.15l-0.4-0.1l-14.7-13.3
				c0.5-0.63,1.05-1.25,1.65-1.85c0.13-0.13,0.27-0.27,0.4-0.4l14.9,13.4l0.05,0.15c-0.33,0.2-0.65,0.45-0.95,0.75
				C28.85,26.2,28.53,26.65,28.3,27.15z"/>
			<linearGradient id="SVGID_8_" gradientUnits="userSpaceOnUse" x1="18.4307" y1="24.584" x2="17.8271" y2="26.858">
				<stop  offset="0" style="stop-color:#B78F6C"/>
				<stop  offset="0.4941" style="stop-color:#C8B19D"/>
				<stop  offset="1" style="stop-color:#9E846B"/>
			</linearGradient>
			<path fill-rule="evenodd" clip-rule="evenodd" fill="url(#SVGID_8_)" d="M27.9,27.05l0.4,0.1c-0.43,0.83-0.65,1.7-0.65,2.6
				l-19.7-5.5c0.2-0.9,0.45-1.78,0.75-2.65L27.9,27.05z"/>
			<linearGradient id="SVGID_9_" gradientUnits="userSpaceOnUse" x1="39.9375" y1="15.7373" x2="42.6603" y2="17.5656">
				<stop  offset="0" style="stop-color:#B78F6C"/>
				<stop  offset="0.4941" style="stop-color:#C8B19D"/>
				<stop  offset="1" style="stop-color:#9E846B"/>
			</linearGradient>
			<path fill-rule="evenodd" clip-rule="evenodd" fill="url(#SVGID_9_)" d="M37.9,25.15L37.25,26c-0.6-0.6-1.37-1.12-2.3-1.55
				l0.95-2.35l9.5-14.65c0.97,0.53,1.9,1.13,2.8,1.8L37.9,25.15z"/>
			<linearGradient id="SVGID_10_" gradientUnits="userSpaceOnUse" x1="34.1196" y1="14.3584" x2="36.6939" y2="14.6399">
				<stop  offset="0" style="stop-color:#B78F6C"/>
				<stop  offset="0.4941" style="stop-color:#C8B19D"/>
				<stop  offset="1" style="stop-color:#9E846B"/>
			</linearGradient>
			<path fill-rule="evenodd" clip-rule="evenodd" fill="url(#SVGID_10_)" d="M35.9,22.1l-0.95,2.35c-0.73-0.17-1.32-0.25-1.75-0.25
				c-0.17,0-0.33,0.02-0.5,0.05l-0.05-0.05L35.2,4.45c1,0.07,1.98,0.2,2.95,0.4L35.9,22.1z"/>
			<linearGradient id="SVGID_11_" gradientUnits="userSpaceOnUse" x1="47.7007" y1="35.4883" x2="48.4063" y2="32.8398">
				<stop  offset="0" style="stop-color:#B78F6C"/>
				<stop  offset="0.4941" style="stop-color:#C8B19D"/>
				<stop  offset="1" style="stop-color:#9E846B"/>
			</linearGradient>
			<path fill-rule="evenodd" clip-rule="evenodd" fill="url(#SVGID_11_)" d="M38.95,32.85L37.9,32.6c0.43-0.83,0.68-1.58,0.75-2.25
				h0.95l18.6,5.25c-0.17,0.83-0.38,1.65-0.65,2.45L38.95,32.85z"/>
			<linearGradient id="SVGID_12_" gradientUnits="userSpaceOnUse" x1="43.7256" y1="41.25" x2="45.8006" y2="39.175">
				<stop  offset="0" style="stop-color:#B78F6C"/>
				<stop  offset="0.4941" style="stop-color:#C8B19D"/>
				<stop  offset="1" style="stop-color:#9E846B"/>
			</linearGradient>
			<path fill-rule="evenodd" clip-rule="evenodd" fill="url(#SVGID_12_)" d="M36.45,34.8c0-0.03-0.02-0.07-0.05-0.1l-0.1-0.4
				c0.27-0.2,0.53-0.43,0.8-0.7c0.33-0.3,0.6-0.63,0.8-1l1.05,0.25l14.4,13c-0.67,0.8-1.37,1.58-2.1,2.35L36.45,34.8z"/>
			<linearGradient id="SVGID_13_" gradientUnits="userSpaceOnUse" x1="37.6284" y1="44.873" x2="39.7761" y2="43.9924">
				<stop  offset="0" style="stop-color:#B78F6C"/>
				<stop  offset="0.4941" style="stop-color:#C8B19D"/>
				<stop  offset="1" style="stop-color:#9E846B"/>
			</linearGradient>
			<path fill-rule="evenodd" clip-rule="evenodd" fill="url(#SVGID_13_)" d="M34.1,35.75l0.05-0.6c0.7-0.1,1.42-0.38,2.15-0.85
				l0.1,0.4c0.03,0.03,0.05,0.07,0.05,0.1l6.8,18.9c-0.73,0.33-1.47,0.62-2.2,0.85L34.1,35.75z"/>
			<linearGradient id="SVGID_14_" gradientUnits="userSpaceOnUse" x1="30.2476" y1="45.1602" x2="32.7978" y2="45.4582">
				<stop  offset="0" style="stop-color:#B78F6C"/>
				<stop  offset="0.4941" style="stop-color:#C8B19D"/>
				<stop  offset="1" style="stop-color:#9E846B"/>
			</linearGradient>
			<path fill-rule="evenodd" clip-rule="evenodd" fill="url(#SVGID_14_)" d="M34.15,35.15l-0.05,0.6L31.5,55.7
				c-1-0.03-1.95-0.13-2.85-0.3l2.55-19.85l0.1-0.6c0.67,0.2,1.3,0.3,1.9,0.3C33.43,35.25,33.75,35.22,34.15,35.15z"/>
			<linearGradient id="SVGID_15_" gradientUnits="userSpaceOnUse" x1="19.2803" y1="37.0928" x2="20.6336" y2="39.4408">
				<stop  offset="0" style="stop-color:#B78F6C"/>
				<stop  offset="0.4941" style="stop-color:#C8B19D"/>
				<stop  offset="1" style="stop-color:#9E846B"/>
			</linearGradient>
			<path fill-rule="evenodd" clip-rule="evenodd" fill="url(#SVGID_15_)" d="M26.75,32.45l1.3-0.75c0.3,0.63,0.63,1.18,1,1.65
				l-1.75,2l-15.1,9.8c-0.53-0.73-1.03-1.48-1.5-2.25L26.75,32.45z"/>
			<linearGradient id="SVGID_16_" gradientUnits="userSpaceOnUse" x1="23.1113" y1="41.8789" x2="25.6075" y2="43.5845">
				<stop  offset="0" style="stop-color:#B78F6C"/>
				<stop  offset="0.4941" style="stop-color:#C8B19D"/>
				<stop  offset="1" style="stop-color:#9E846B"/>
			</linearGradient>
			<path fill-rule="evenodd" clip-rule="evenodd" fill="url(#SVGID_16_)" d="M31.3,34.95l-0.1,0.6l-10.95,16.9
				c-0.97-0.57-1.9-1.22-2.8-1.95l9.85-15.15l1.75-2C29.92,34.18,30.67,34.72,31.3,34.95z"/>
			<linearGradient id="SVGID_17_" gradientUnits="userSpaceOnUse" x1="17.5381" y1="31.1958" x2="17.9899" y2="33.7455">
				<stop  offset="0" style="stop-color:#B78F6C"/>
				<stop  offset="0.4941" style="stop-color:#C8B19D"/>
				<stop  offset="1" style="stop-color:#9E846B"/>
			</linearGradient>
			<path fill-rule="evenodd" clip-rule="evenodd" fill="url(#SVGID_17_)" d="M28.05,31.7l-1.3,0.75L7.9,35.55
				c-0.17-0.8-0.3-1.62-0.4-2.45l20.15-3.25C27.68,30.48,27.82,31.1,28.05,31.7z"/>
		</g>
		<g>
			<radialGradient id="SVGID_18_" cx="35.25" cy="30.6001" r="9.1125" gradientUnits="userSpaceOnUse">
				<stop  offset="0.2196" style="stop-color:#B67A18"/>
				<stop  offset="0.8157" style="stop-color:#B67A18"/>
				<stop  offset="0.9294" style="stop-color:#483E3D"/>
				<stop  offset="1" style="stop-color:#B2701C"/>
			</radialGradient>
			<path fill-rule="evenodd" clip-rule="evenodd" fill="url(#SVGID_18_)" d="M34,22.95c2.07,0,3.85,0.73,5.35,2.2
				c1.47,1.47,2.2,3.25,2.2,5.35s-0.73,3.88-2.2,5.35c-1.5,1.47-3.28,2.2-5.35,2.2c-2.1,0-3.9-0.73-5.4-2.2
				c-1.47-1.47-2.2-3.25-2.2-5.35s0.73-3.88,2.2-5.35C30.1,23.68,31.9,22.95,34,22.95z"/>
		</g>
		<g>
			<radialGradient id="SVGID_19_" cx="35.1001" cy="30.7002" r="6.0125" gradientUnits="userSpaceOnUse">
				<stop  offset="0" style="stop-color:#000000"/>
				<stop  offset="0.1176" style="stop-color:#2D1D06"/>
				<stop  offset="0.2039" style="stop-color:#704910"/>
				<stop  offset="0.3176" style="stop-color:#8D5C14"/>
				<stop  offset="0.8157" style="stop-color:#B67A18"/>
				<stop  offset="0.9294" style="stop-color:#483E3D"/>
				<stop  offset="1" style="stop-color:#B2701C"/>
			</radialGradient>
			<path fill-rule="evenodd" clip-rule="evenodd" fill="url(#SVGID_19_)" d="M34.5,25.65c1.4,0,2.58,0.48,3.55,1.45
				c1,1,1.5,2.18,1.5,3.55s-0.5,2.55-1.5,3.55c-0.97,0.97-2.15,1.45-3.55,1.45c-1.37,0-2.53-0.48-3.5-1.45c-1-1-1.5-2.18-1.5-3.55
				S30,28.1,31,27.1C31.97,26.13,33.13,25.65,34.5,25.65z"/>
		</g>
		<g>
			<path fill-rule="evenodd" clip-rule="evenodd" fill="#CCAB8C" d="M56.15,13.3c2.03,2.47,3.57,5.35,4.6,8.65
				c0.3,0.97,0.53,1.93,0.7,2.9c0.37,1.87,0.5,3.72,0.4,5.55c0-0.07,0-0.15,0-0.25c-0.33-3.8-0.98-6.93-1.95-9.4
				C58.97,18.28,57.72,15.8,56.15,13.3z M14.2,12c2-2,4.13-3.58,6.4-4.75V7.6c-2.03,1.13-3.95,2.6-5.75,4.4
				c-4.3,4.3-6.75,9.37-7.35,15.2c-0.1,0.97-0.15,1.95-0.15,2.95c0,7.07,2.5,13.1,7.5,18.1c3.17,3.13,6.72,5.28,10.65,6.45v0.2
				c-4.23-1.13-8-3.35-11.3-6.65c-5-5-7.5-11.03-7.5-18.1c0-1,0.05-1.98,0.15-2.95C7.45,21.37,9.9,16.3,14.2,12z"/>
		</g>
	</g>
</g>
</svg>
