<?xml version="1.0" encoding="utf-8"?>
<!-- Generator: Adobe Illustrator 16.0.0, SVG Export Plug-In . SVG Version: 6.00 Build 0)  -->
<!DOCTYPE svg PUBLIC "-//W3C//DTD SVG 1.1//EN" "http://www.w3.org/Graphics/SVG/1.1/DTD/svg11.dtd">
<svg version="1.1" id="Layer_1" xmlns="http://www.w3.org/2000/svg" xmlns:xlink="http://www.w3.org/1999/xlink" x="0px" y="0px"
	 width="68.29px" height="70.5px" viewBox="0 0 68.29 70.5" enable-background="new 0 0 68.29 70.5" xml:space="preserve">
<g>
	<g>
		<g>
			<path fill="#292929" d="M39.434,10.55c-0.43-0.1-0.87-0.17-1.3-0.2c3.899,2.13,5.521,5.37,4.85,9.7h3.05l4.4,35.73h0.6h-0.309
				l-4.141-36.13h-3.051c0.23-2.93-0.5-5.43-2.199-7.5C40.764,11.52,40.124,10.98,39.434,10.55z"/>
			<path fill="#292929" d="M39.434,10.55c-0.43-0.1-0.87-0.17-1.3-0.2c3.899,2.13,5.521,5.37,4.85,9.7h3.05l4.4,35.73h0.6h-0.309
				l-4.141-36.13h-3.051c0.23-2.93-0.5-5.43-2.199-7.5C40.764,11.52,40.124,10.98,39.434,10.55z"/>
			
				<linearGradient id="SVGID_1_" gradientUnits="userSpaceOnUse" x1="396.8325" y1="-261.1997" x2="432.4807" y2="-261.1997" gradientTransform="matrix(-1 0 0 -1 448.9541 -229.5)">
				<stop  offset="0" style="stop-color:#414141"/>
				<stop  offset="1" style="stop-color:#3C3C3C"/>
			</linearGradient>
			<path fill="url(#SVGID_1_)" d="M18.075,55.78l4.799-36.13h3.5c-0.17-1.13-0.17-2.28,0-3.45c0.83-3.33,3.131-5.57,6.9-6.7
				c2.4-0.43,4.45-0.08,6.15,1.05c0.699,0.43,1.33,0.97,1.9,1.6c1.699,2.07,2.43,4.57,2.199,7.5h3.051l4.141,36.13h1.406
				l-3.498-35.73c-0.729-1.53-1.899-2.15-3.5-1.85l0.051-0.55c-0.03-4.13-2.1-7.18-6.2-9.15c-1.5-0.7-3.12-0.98-4.85-0.85
				c-1.1,0.1-2.25,0.38-3.45,0.85c-3.37,1.67-5.37,4.95-6,9.85c-2.1-0.2-3.2,0.23-3.301,1.3l-4.949,36.13H18.075z"/>
			
				<linearGradient id="SVGID_2_" gradientUnits="userSpaceOnUse" x1="396.8325" y1="-261.1997" x2="432.4807" y2="-261.1997" gradientTransform="matrix(-1 0 0 -1 448.9541 -229.5)">
				<stop  offset="0" style="stop-color:#414141"/>
				<stop  offset="1" style="stop-color:#3C3C3C"/>
			</linearGradient>
			<path fill="url(#SVGID_2_)" d="M18.075,55.78l4.799-36.13h3.5c-0.17-1.13-0.17-2.28,0-3.45c0.83-3.33,3.131-5.57,6.9-6.7
				c2.4-0.43,4.45-0.08,6.15,1.05c0.699,0.43,1.33,0.97,1.9,1.6c1.699,2.07,2.43,4.57,2.199,7.5h3.051l4.141,36.13h1.406
				l-3.498-35.73c-0.729-1.53-1.899-2.15-3.5-1.85l0.051-0.55c-0.03-4.13-2.1-7.18-6.2-9.15c-1.5-0.7-3.12-0.98-4.85-0.85
				c-1.1,0.1-2.25,0.38-3.45,0.85c-3.37,1.67-5.37,4.95-6,9.85c-2.1-0.2-3.2,0.23-3.301,1.3l-4.949,36.13H18.075z"/>
			
				<linearGradient id="SVGID_3_" gradientUnits="userSpaceOnUse" x1="414.3003" y1="-249.9531" x2="414.3003" y2="-292.9878" gradientTransform="matrix(-1 0 0 -1 448.9541 -229.5)">
				<stop  offset="0" style="stop-color:#3E3E3E"/>
				<stop  offset="1" style="stop-color:#222222"/>
			</linearGradient>
			<path fill="url(#SVGID_3_)" d="M38.124,10.35l-2.199-0.3c-6.73,0.5-9.631,4.12-8.7,10.85h-3.75l-4.601,34.88h31.561l-4.4-35.73
				h-3.05C43.644,15.72,42.034,12.48,38.124,10.35z M37.524,16.1c-0.07-0.1-0.15-0.2-0.25-0.3c-0.47-0.47-1.029-0.73-1.699-0.8
				c-0.131-0.03-0.271-0.05-0.4-0.05c-0.131,0-0.27,0.02-0.4,0.05c-0.1,0-0.2,0.02-0.3,0.05c-0.03-0.03-0.08-0.05-0.15-0.05
				c-0.79,0-1.48,0.28-2.041,0.85c-0.57,0.6-0.85,1.3-0.85,2.1c0,0.8,0.279,1.48,0.85,2.05c0.57,0.6,1.25,0.9,2.05,0.9
				c0.13,0,0.27-0.02,0.4-0.05h0.05c0.101,0,0.18-0.02,0.25-0.05c0.07,0,0.121,0,0.15,0c0.13,0,0.25,0,0.35,0c0.03,0,0.07,0,0.101,0
				c0.37-0.07,0.68-0.18,0.95-0.35c0.27-0.13,0.5-0.3,0.699-0.5c0.57-0.57,0.851-1.27,0.851-2.1c0-0.37-0.07-0.7-0.2-1
				C37.825,16.58,37.694,16.33,37.524,16.1z"/>
			
				<linearGradient id="SVGID_4_" gradientUnits="userSpaceOnUse" x1="414.3003" y1="-249.9531" x2="414.3003" y2="-292.9878" gradientTransform="matrix(-1 0 0 -1 448.9541 -229.5)">
				<stop  offset="0" style="stop-color:#3E3E3E"/>
				<stop  offset="1" style="stop-color:#222222"/>
			</linearGradient>
			<path fill="url(#SVGID_4_)" d="M38.124,10.35l-2.199-0.3c-6.73,0.5-9.631,4.12-8.7,10.85h-3.75l-4.601,34.88h31.561l-4.4-35.73
				h-3.05C43.644,15.72,42.034,12.48,38.124,10.35z M37.524,16.1c-0.07-0.1-0.15-0.2-0.25-0.3c-0.47-0.47-1.029-0.73-1.699-0.8
				c-0.131-0.03-0.271-0.05-0.4-0.05c-0.131,0-0.27,0.02-0.4,0.05c-0.1,0-0.2,0.02-0.3,0.05c-0.03-0.03-0.08-0.05-0.15-0.05
				c-0.79,0-1.48,0.28-2.041,0.85c-0.57,0.6-0.85,1.3-0.85,2.1c0,0.8,0.279,1.48,0.85,2.05c0.57,0.6,1.25,0.9,2.05,0.9
				c0.13,0,0.27-0.02,0.4-0.05h0.05c0.101,0,0.18-0.02,0.25-0.05c0.07,0,0.121,0,0.15,0c0.13,0,0.25,0,0.35,0c0.03,0,0.07,0,0.101,0
				c0.37-0.07,0.68-0.18,0.95-0.35c0.27-0.13,0.5-0.3,0.699-0.5c0.57-0.57,0.851-1.27,0.851-2.1c0-0.37-0.07-0.7-0.2-1
				C37.825,16.58,37.694,16.33,37.524,16.1z"/>
			
				<linearGradient id="SVGID_5_" gradientUnits="userSpaceOnUse" x1="413.4448" y1="-237.3584" x2="439.6209" y2="-282.6024" gradientTransform="matrix(-1 0 0 -1 448.9541 -229.5)">
				<stop  offset="0.0039" style="stop-color:#B3B3B3"/>
				<stop  offset="0.2196" style="stop-color:#464646"/>
				<stop  offset="0.5098" style="stop-color:#4A4A4A"/>
				<stop  offset="0.8392" style="stop-color:#959595"/>
				<stop  offset="1" style="stop-color:#4C4C4C"/>
			</linearGradient>
			<path fill="url(#SVGID_5_)" d="M34.124,7.65c-6.299,0.23-9.73,3.58-10.299,10.05c-2.33-0.43-3.57,0.5-3.701,2.8l-4.29,35.28
				h0.591l4.949-36.13c0.101-1.07,1.201-1.5,3.301-1.3c0.63-4.9,2.63-8.18,6-9.85C31.874,8.03,33.034,7.75,34.124,7.65z"/>
			
				<linearGradient id="SVGID_6_" gradientUnits="userSpaceOnUse" x1="413.4448" y1="-237.3584" x2="439.6209" y2="-282.6024" gradientTransform="matrix(-1 0 0 -1 448.9541 -229.5)">
				<stop  offset="0.0039" style="stop-color:#B3B3B3"/>
				<stop  offset="0.2196" style="stop-color:#464646"/>
				<stop  offset="0.5098" style="stop-color:#4A4A4A"/>
				<stop  offset="0.8392" style="stop-color:#959595"/>
				<stop  offset="1" style="stop-color:#4C4C4C"/>
			</linearGradient>
			<path fill="url(#SVGID_6_)" d="M34.124,7.65c-6.299,0.23-9.73,3.58-10.299,10.05c-2.33-0.43-3.57,0.5-3.701,2.8l-4.29,35.28
				h0.591l4.949-36.13c0.101-1.07,1.201-1.5,3.301-1.3c0.63-4.9,2.63-8.18,6-9.85C31.874,8.03,33.034,7.75,34.124,7.65z"/>
			<path fill="#323232" d="M18.874,55.78l4.601-34.88h3.75c-0.931-6.73,1.97-10.35,8.7-10.85l2.199,0.3
				c0.431,0.03,0.871,0.1,1.301,0.2c-1.7-1.13-3.75-1.48-6.15-1.05c-3.77,1.13-6.07,3.37-6.9,6.7c-0.17,1.17-0.17,2.32,0,3.45h-3.5
				l-4.799,36.13H18.874z"/>
			<path fill="#323232" d="M18.874,55.78l4.601-34.88h3.75c-0.931-6.73,1.97-10.35,8.7-10.85l2.199,0.3
				c0.431,0.03,0.871,0.1,1.301,0.2c-1.7-1.13-3.75-1.48-6.15-1.05c-3.77,1.13-6.07,3.37-6.9,6.7c-0.17,1.17-0.17,2.32,0,3.45h-3.5
				l-4.799,36.13H18.874z"/>
			<path fill="#424242" d="M34.784,20.8c-0.629-0.1-1.18-0.38-1.649-0.85c-0.601-0.57-0.9-1.27-0.9-2.1c0-0.8,0.3-1.48,0.9-2.05
				c0.37-0.37,0.78-0.62,1.25-0.75c0.03,0,0.07,0,0.1,0c0.1-0.03,0.2-0.05,0.3-0.05c0.131-0.03,0.271-0.05,0.4-0.05
				s0.27,0.02,0.4,0.05c0.67,0.07,1.229,0.33,1.699,0.8c0.101,0.1,0.18,0.2,0.25,0.3c0.17,0.23,0.301,0.48,0.4,0.75
				c-0.13-0.23-0.279-0.47-0.45-0.7c-0.37-0.37-0.8-0.6-1.3-0.7c-0.2-0.03-0.4-0.05-0.6-0.05c-0.101,0-0.2,0.02-0.301,0.05h-0.05
				c-0.069,0-0.149,0.02-0.25,0.05c-0.47,0.1-0.88,0.32-1.25,0.65c-0.5,0.53-0.75,1.15-0.75,1.85c0,0.73,0.25,1.37,0.75,1.9
				c0.03,0,0.05,0.02,0.05,0.05c0.43,0.37,0.919,0.6,1.45,0.7c0.07,0,0.13,0,0.2,0s0.12,0,0.15,0c0.369,0,0.699-0.07,1-0.2
				c-0.271,0.17-0.58,0.28-0.95,0.35c-0.03,0-0.07,0-0.101,0c-0.1,0-0.22,0-0.35,0c-0.029,0-0.08,0-0.15,0S34.874,20.8,34.784,20.8z
				 M34.224,19.25c-0.37-0.37-0.55-0.82-0.55-1.35c0-0.5,0.18-0.92,0.55-1.25c0.3-0.33,0.67-0.52,1.101-0.55
				c0.069,0,0.129,0,0.199,0c0.27,0,0.5,0.05,0.7,0.15c0.069,0.04,0.14,0.09,0.2,0.15c0.369,0.37,0.55,0.8,0.55,1.3
				s-0.181,0.93-0.55,1.3c-0.301,0.3-0.68,0.48-1.15,0.55c-0.029,0-0.08,0-0.15,0c-0.27,0-0.52-0.05-0.75-0.15
				C34.344,19.33,34.294,19.28,34.224,19.25z"/>
			<path fill="#424242" d="M34.784,20.8c-0.629-0.1-1.18-0.38-1.649-0.85c-0.601-0.57-0.9-1.27-0.9-2.1c0-0.8,0.3-1.48,0.9-2.05
				c0.37-0.37,0.78-0.62,1.25-0.75c0.03,0,0.07,0,0.1,0c0.1-0.03,0.2-0.05,0.3-0.05c0.131-0.03,0.271-0.05,0.4-0.05
				s0.27,0.02,0.4,0.05c0.67,0.07,1.229,0.33,1.699,0.8c0.101,0.1,0.18,0.2,0.25,0.3c0.17,0.23,0.301,0.48,0.4,0.75
				c-0.13-0.23-0.279-0.47-0.45-0.7c-0.37-0.37-0.8-0.6-1.3-0.7c-0.2-0.03-0.4-0.05-0.6-0.05c-0.101,0-0.2,0.02-0.301,0.05h-0.05
				c-0.069,0-0.149,0.02-0.25,0.05c-0.47,0.1-0.88,0.32-1.25,0.65c-0.5,0.53-0.75,1.15-0.75,1.85c0,0.73,0.25,1.37,0.75,1.9
				c0.03,0,0.05,0.02,0.05,0.05c0.43,0.37,0.919,0.6,1.45,0.7c0.07,0,0.13,0,0.2,0s0.12,0,0.15,0c0.369,0,0.699-0.07,1-0.2
				c-0.271,0.17-0.58,0.28-0.95,0.35c-0.03,0-0.07,0-0.101,0c-0.1,0-0.22,0-0.35,0c-0.029,0-0.08,0-0.15,0S34.874,20.8,34.784,20.8z
				 M34.224,19.25c-0.37-0.37-0.55-0.82-0.55-1.35c0-0.5,0.18-0.92,0.55-1.25c0.3-0.33,0.67-0.52,1.101-0.55
				c0.069,0,0.129,0,0.199,0c0.27,0,0.5,0.05,0.7,0.15c0.069,0.04,0.14,0.09,0.2,0.15c0.369,0.37,0.55,0.8,0.55,1.3
				s-0.181,0.93-0.55,1.3c-0.301,0.3-0.68,0.48-1.15,0.55c-0.029,0-0.08,0-0.15,0c-0.27,0-0.52-0.05-0.75-0.15
				C34.344,19.33,34.294,19.28,34.224,19.25z"/>
			<path fill="#2C2C2C" d="M34.784,20.85h-0.05c-0.13,0.03-0.27,0.05-0.4,0.05c-0.8,0-1.48-0.3-2.05-0.9
				c-0.57-0.57-0.85-1.25-0.85-2.05c0-0.8,0.279-1.5,0.85-2.1c0.57-0.57,1.25-0.85,2.05-0.85c0.07,0,0.12,0.02,0.15,0.05
				c-0.03,0-0.07,0-0.1,0c-0.47,0.13-0.88,0.38-1.25,0.75c-0.601,0.57-0.9,1.25-0.9,2.05c0,0.83,0.3,1.53,0.9,2.1
				c0.47,0.47,1.02,0.75,1.649,0.85c0.101,0,0.18,0,0.25,0C34.963,20.83,34.874,20.85,34.784,20.85z M36.474,16.35
				c0.13,0.07,0.25,0.17,0.351,0.3c0.1,0.07,0.17,0.15,0.199,0.25c0.23,0.3,0.35,0.63,0.35,1c0,0.53-0.18,0.98-0.549,1.35
				c-0.371,0.33-0.801,0.5-1.301,0.5c-0.07,0-0.13,0-0.199,0c-0.33-0.03-0.65-0.15-0.951-0.35c0.23,0.1,0.48,0.15,0.75,0.15
				c0.07,0,0.121,0,0.15,0c0.471-0.07,0.85-0.25,1.15-0.55c0.369-0.37,0.55-0.8,0.55-1.3s-0.181-0.93-0.55-1.3
				c-0.061-0.06-0.131-0.11-0.2-0.15C36.304,16.29,36.384,16.32,36.474,16.35z"/>
			<path fill="#2C2C2C" d="M34.784,20.85h-0.05c-0.13,0.03-0.27,0.05-0.4,0.05c-0.8,0-1.48-0.3-2.05-0.9
				c-0.57-0.57-0.85-1.25-0.85-2.05c0-0.8,0.279-1.5,0.85-2.1c0.57-0.57,1.25-0.85,2.05-0.85c0.07,0,0.12,0.02,0.15,0.05
				c-0.03,0-0.07,0-0.1,0c-0.47,0.13-0.88,0.38-1.25,0.75c-0.601,0.57-0.9,1.25-0.9,2.05c0,0.83,0.3,1.53,0.9,2.1
				c0.47,0.47,1.02,0.75,1.649,0.85c0.101,0,0.18,0,0.25,0C34.963,20.83,34.874,20.85,34.784,20.85z M36.474,16.35
				c0.13,0.07,0.25,0.17,0.351,0.3c0.1,0.07,0.17,0.15,0.199,0.25c0.23,0.3,0.35,0.63,0.35,1c0,0.53-0.18,0.98-0.549,1.35
				c-0.371,0.33-0.801,0.5-1.301,0.5c-0.07,0-0.13,0-0.199,0c-0.33-0.03-0.65-0.15-0.951-0.35c0.23,0.1,0.48,0.15,0.75,0.15
				c0.07,0,0.121,0,0.15,0c0.471-0.07,0.85-0.25,1.15-0.55c0.369-0.37,0.55-0.8,0.55-1.3s-0.181-0.93-0.55-1.3
				c-0.061-0.06-0.131-0.11-0.2-0.15C36.304,16.29,36.384,16.32,36.474,16.35z"/>
			<path fill="#373737" d="M36.834,16.65c-0.101-0.13-0.221-0.23-0.351-0.3c-0.09-0.03-0.18-0.06-0.25-0.1
				c-0.2-0.1-0.43-0.15-0.7-0.15c-0.07,0-0.129,0-0.199,0c-0.43,0.03-0.8,0.22-1.101,0.55c-0.37,0.33-0.55,0.75-0.55,1.25
				c0,0.53,0.18,0.98,0.55,1.35c0.07,0.03,0.12,0.08,0.15,0.15c0.3,0.2,0.62,0.32,0.95,0.35c0.07,0,0.129,0,0.199,0v0.05
				c-0.33,0.2-0.919,0.25-1.75,0.15c0-0.03-0.02-0.05-0.05-0.05c-0.5-0.53-0.75-1.17-0.75-1.9c0-0.7,0.25-1.32,0.75-1.85
				c0.37-0.33,0.78-0.55,1.25-0.65c0.101-0.03,0.181-0.05,0.25-0.05h0.05c0.101-0.03,0.2-0.05,0.301-0.05
				c0.199,0,0.399,0.02,0.6,0.05c0.6,0.47,0.88,0.95,0.85,1.45C36.995,16.8,36.934,16.72,36.834,16.65z"/>
			<path fill="#373737" d="M36.834,16.65c-0.101-0.13-0.221-0.23-0.351-0.3c-0.09-0.03-0.18-0.06-0.25-0.1
				c-0.2-0.1-0.43-0.15-0.7-0.15c-0.07,0-0.129,0-0.199,0c-0.43,0.03-0.8,0.22-1.101,0.55c-0.37,0.33-0.55,0.75-0.55,1.25
				c0,0.53,0.18,0.98,0.55,1.35c0.07,0.03,0.12,0.08,0.15,0.15c0.3,0.2,0.62,0.32,0.95,0.35c0.07,0,0.129,0,0.199,0v0.05
				c-0.33,0.2-0.919,0.25-1.75,0.15c0-0.03-0.02-0.05-0.05-0.05c-0.5-0.53-0.75-1.17-0.75-1.9c0-0.7,0.25-1.32,0.75-1.85
				c0.37-0.33,0.78-0.55,1.25-0.65c0.101-0.03,0.181-0.05,0.25-0.05h0.05c0.101-0.03,0.2-0.05,0.301-0.05
				c0.199,0,0.399,0.02,0.6,0.05c0.6,0.47,0.88,0.95,0.85,1.45C36.995,16.8,36.934,16.72,36.834,16.65z"/>
			<path fill="#414141" d="M37.484,16.15c0.171,0.23,0.32,0.47,0.45,0.7c0.13,0.3,0.2,0.63,0.2,1c0,0.83-0.28,1.53-0.851,2.1
				c-0.199,0.2-0.43,0.37-0.699,0.5c-0.301,0.13-0.631,0.2-1,0.2c-0.03,0-0.08,0-0.15,0s-0.13,0-0.2,0c-0.53-0.1-1.02-0.33-1.45-0.7
				c0.83,0.1,1.419,0.05,1.75-0.15v-0.05c0.5,0,0.93-0.17,1.301-0.5c0.369-0.37,0.55-0.82,0.55-1.35c0-0.37-0.12-0.7-0.351-1
				c0.03-0.5-0.25-0.98-0.85-1.45C36.684,15.55,37.114,15.78,37.484,16.15z"/>
			<path fill="#414141" d="M37.484,16.15c0.171,0.23,0.32,0.47,0.45,0.7c0.13,0.3,0.2,0.63,0.2,1c0,0.83-0.28,1.53-0.851,2.1
				c-0.199,0.2-0.43,0.37-0.699,0.5c-0.301,0.13-0.631,0.2-1,0.2c-0.03,0-0.08,0-0.15,0s-0.13,0-0.2,0c-0.53-0.1-1.02-0.33-1.45-0.7
				c0.83,0.1,1.419,0.05,1.75-0.15v-0.05c0.5,0,0.93-0.17,1.301-0.5c0.369-0.37,0.55-0.82,0.55-1.35c0-0.37-0.12-0.7-0.351-1
				c0.03-0.5-0.25-0.98-0.85-1.45C36.684,15.55,37.114,15.78,37.484,16.15z"/>
			<path fill="#404040" d="M51.514,55.42c0-0.01,0.01-0.02,0.029-0.02"/>
			<path fill="#404040" d="M51.514,55.42c0-0.01,0.01-0.02,0.029-0.02"/>
		</g>
	</g>
	
		<radialGradient id="SVGID_7_" cx="416.0298" cy="-2556.126" r="32.5331" gradientTransform="matrix(1 0 0 -0.1068 -381 -206.5445)" gradientUnits="userSpaceOnUse">
		<stop  offset="0" style="stop-color:#000000;stop-opacity:0.6314"/>
		<stop  offset="0.1373" style="stop-color:#000000;stop-opacity:0.6"/>
		<stop  offset="0.2863" style="stop-color:#000000;stop-opacity:0.3804"/>
		<stop  offset="0.4471" style="stop-color:#000000;stop-opacity:0.1137"/>
		<stop  offset="0.6863" style="stop-color:#000000;stop-opacity:0.0275"/>
		<stop  offset="1" style="stop-color:#000000;stop-opacity:0"/>
	</radialGradient>
	<path fill="url(#SVGID_7_)" d="M1.88,66.45c0-0.931,3.23-1.72,9.7-2.351c6.47-0.67,14.28-1,23.45-1s16.98,0.33,23.45,1
		c6.47,0.631,9.7,1.42,9.7,2.351c0,0.97-3.23,1.771-9.7,2.399c-6.47,0.67-14.28,1-23.45,1s-16.98-0.33-23.45-1
		C5.11,68.221,1.88,67.42,1.88,66.45z"/>
	<g>
		<g>
			
				<linearGradient id="SVGID_8_" gradientUnits="userSpaceOnUse" x1="398.48" y1="-279.9502" x2="398.48" y2="-247.05" gradientTransform="matrix(1 0 0 -1 -381 -229.5)">
				<stop  offset="0" style="stop-color:#483E3D"/>
				<stop  offset="1" style="stop-color:#A77250"/>
			</linearGradient>
			<path fill="url(#SVGID_8_)" d="M12.17,10.7C5.74,17.1,2.52,24.87,2.52,34c0,1.23,0.07,2.471,0.2,3.7
				c0.77,7.5,3.92,14.021,9.45,19.55c6.07,6.07,13.32,9.27,21.75,9.6V66.9c-9.1,0-16.85-3.221-23.25-9.65
				C5.14,51.721,1.99,45.2,1.23,37.7c-0.13-1.229-0.2-2.47-0.2-3.7c0-9.13,3.22-16.9,9.65-23.3c6.4-6.43,14.15-9.65,23.25-9.65V1.1
				C25.49,1.4,18.24,4.6,12.17,10.7z"/>
		</g>
		<g>
			<path fill="#9F7859" d="M35.081,62.7c7.469-0.271,13.869-3.07,19.199-8.4c5.631-5.67,8.45-12.47,8.45-20.4
				c0-1.13-0.05-2.23-0.149-3.3c-0.701-6.57-3.471-12.28-8.301-17.15c-5.33-5.33-11.73-8.13-19.199-8.4
				c7.93,0,14.729,2.8,20.399,8.4c4.83,4.87,7.58,10.58,8.25,17.15c0.101,1.07,0.149,2.17,0.149,3.3c0,7.93-2.799,14.73-8.399,20.4
				C49.81,59.9,43.01,62.7,35.081,62.7z"/>
			
				<linearGradient id="SVGID_9_" gradientUnits="userSpaceOnUse" x1="410.0825" y1="-241.6924" x2="410.6388" y2="-243.7907" gradientTransform="matrix(1 0 0 -1 -381 -229.5)">
				<stop  offset="0" style="stop-color:#A8774F"/>
				<stop  offset="1" style="stop-color:#B6875D"/>
			</linearGradient>
			<path fill="url(#SVGID_9_)" d="M35.081,5.05c-0.201,0-0.4,0-0.601,0c-7.73,0.13-14.35,2.93-19.85,8.4
				C9.79,18.32,7.04,24.03,6.38,30.6c-0.1,1.07-0.15,2.17-0.15,3.3c0,7.93,2.8,14.73,8.4,20.4c5.5,5.47,12.12,8.271,19.85,8.4
				c0.2,0,0.399,0,0.601,0c7.93,0,14.729-2.8,20.399-8.4c5.601-5.67,8.399-12.47,8.399-20.4c0-1.13-0.049-2.23-0.149-3.3
				c-0.67-6.57-3.42-12.28-8.25-17.15C49.81,7.85,43.01,5.05,35.081,5.05z M33.38,1.1c0.27-0.03,0.52-0.05,0.75-0.05s0.48,0,0.75,0
				c9.101,0,16.851,3.22,23.25,9.65c6.431,6.4,9.65,14.17,9.65,23.3c0,1.23-0.07,2.471-0.199,3.7
				c-0.771,7.5-3.92,14.021-9.451,19.55c-6.399,6.43-14.149,9.65-23.25,9.65c-0.27,0-0.52,0-0.75,0
				c-0.23-0.03-0.48-0.051-0.75-0.051c-8.47-0.33-15.73-3.529-21.8-9.6C6.04,51.721,2.89,45.2,2.13,37.7
				c-0.1-1.229-0.15-2.47-0.15-3.7c0-9.13,3.2-16.9,9.6-23.3C17.64,4.6,24.91,1.4,33.38,1.1z"/>
		</g>
		<g>
			
				<linearGradient id="SVGID_10_" gradientUnits="userSpaceOnUse" x1="433.0659" y1="-259.1465" x2="433.6139" y2="-262.1218" gradientTransform="matrix(1 0 0 -1 -381 -229.5)">
				<stop  offset="0" style="stop-color:#B78F6C"/>
				<stop  offset="0.4941" style="stop-color:#C8B19D"/>
				<stop  offset="1" style="stop-color:#9E846B"/>
			</linearGradient>
			<path fill="url(#SVGID_10_)" d="M42.379,34.15h-1.1c0.07-0.33,0.1-0.58,0.1-0.75c0-0.63-0.08-1.23-0.25-1.8v-0.05L63.379,28
				c0.131,0.83,0.25,1.72,0.351,2.65L42.379,34.15z"/>
			
				<linearGradient id="SVGID_11_" gradientUnits="userSpaceOnUse" x1="429.9331" y1="-252.4385" x2="431.6826" y2="-254.9878" gradientTransform="matrix(1 0 0 -1 -381 -229.5)">
				<stop  offset="0" style="stop-color:#B78F6C"/>
				<stop  offset="0.4941" style="stop-color:#C8B19D"/>
				<stop  offset="1" style="stop-color:#9E846B"/>
			</linearGradient>
			<path fill="url(#SVGID_11_)" d="M39.73,29.25l0.7-0.9l17.9-11.65c0.629,0.83,1.199,1.68,1.699,2.55l-18.9,12.3
				C40.86,30.75,40.39,29.98,39.73,29.25z"/>
			
				<linearGradient id="SVGID_12_" gradientUnits="userSpaceOnUse" x1="417.1753" y1="-245.6309" x2="420.076" y2="-245.9559" gradientTransform="matrix(1 0 0 -1 -381 -229.5)">
				<stop  offset="0" style="stop-color:#B78F6C"/>
				<stop  offset="0.4941" style="stop-color:#C8B19D"/>
				<stop  offset="1" style="stop-color:#9E846B"/>
			</linearGradient>
			<path fill="url(#SVGID_12_)" d="M38.17,24.85L37.12,27.5c-0.83-0.2-1.5-0.3-2-0.3c-0.199,0-0.379,0.02-0.55,0.05l-0.05-0.05
				L37.379,5c1.17,0.07,2.281,0.22,3.351,0.45L38.17,24.85z"/>
			
				<linearGradient id="SVGID_13_" gradientUnits="userSpaceOnUse" x1="408.8599" y1="-247.1348" x2="411.8362" y2="-245.9884" gradientTransform="matrix(1 0 0 -1 -381 -229.5)">
				<stop  offset="0" style="stop-color:#B78F6C"/>
				<stop  offset="0.4941" style="stop-color:#C8B19D"/>
				<stop  offset="1" style="stop-color:#9E846B"/>
			</linearGradient>
			<path fill="url(#SVGID_13_)" d="M31.73,28.2l-0.05-0.15l-7.7-21.1c0.93-0.37,1.92-0.7,2.95-1l7.6,21.25v0.05
				C33.52,27.32,32.59,27.63,31.73,28.2z"/>
			
				<linearGradient id="SVGID_14_" gradientUnits="userSpaceOnUse" x1="404.3003" y1="-250.0254" x2="402.1464" y2="-252.4719" gradientTransform="matrix(1 0 0 -1 -381 -229.5)">
				<stop  offset="0" style="stop-color:#B78F6C"/>
				<stop  offset="0.4941" style="stop-color:#C8B19D"/>
				<stop  offset="1" style="stop-color:#9E846B"/>
			</linearGradient>
			<path fill="url(#SVGID_14_)" d="M29.63,30.5l-0.45-0.1l-16.55-15c0.6-0.7,1.22-1.38,1.85-2.05c0.17-0.17,0.32-0.32,0.45-0.45
				l16.75,15.15l0.05,0.15c-0.33,0.23-0.67,0.5-1,0.8C30.29,29.47,29.92,29.97,29.63,30.5z"/>
			
				<linearGradient id="SVGID_15_" gradientUnits="userSpaceOnUse" x1="399.5483" y1="-257.0981" x2="398.8698" y2="-259.648" gradientTransform="matrix(1 0 0 -1 -381 -229.5)">
				<stop  offset="0" style="stop-color:#B78F6C"/>
				<stop  offset="0.4941" style="stop-color:#C8B19D"/>
				<stop  offset="1" style="stop-color:#9E846B"/>
			</linearGradient>
			<path fill="url(#SVGID_15_)" d="M29.17,30.4l0.45,0.1c-0.47,0.97-0.7,1.93-0.7,2.9L6.77,27.25c0.2-1,0.47-1.98,0.8-2.95
				L29.17,30.4z"/>
			
				<linearGradient id="SVGID_16_" gradientUnits="userSpaceOnUse" x1="423.7388" y1="-247.1904" x2="426.7896" y2="-249.2408" gradientTransform="matrix(1 0 0 -1 -381 -229.5)">
				<stop  offset="0" style="stop-color:#B78F6C"/>
				<stop  offset="0.4941" style="stop-color:#C8B19D"/>
				<stop  offset="1" style="stop-color:#9E846B"/>
			</linearGradient>
			<path fill="url(#SVGID_16_)" d="M40.42,28.35l-0.7,0.9c-0.7-0.7-1.57-1.28-2.601-1.75l1.051-2.65L48.87,8.35
				c1.101,0.6,2.15,1.28,3.15,2.05L40.42,28.35z"/>
			
				<linearGradient id="SVGID_17_" gradientUnits="userSpaceOnUse" x1="432.4595" y1="-269.4561" x2="433.2445" y2="-266.4828" gradientTransform="matrix(1 0 0 -1 -381 -229.5)">
				<stop  offset="0" style="stop-color:#B78F6C"/>
				<stop  offset="0.4941" style="stop-color:#C8B19D"/>
				<stop  offset="1" style="stop-color:#9E846B"/>
			</linearGradient>
			<path fill="url(#SVGID_17_)" d="M41.27,34.15h1.1L63.27,40c-0.2,0.971-0.45,1.9-0.75,2.8l-20.95-5.85l-1.1-0.3
				C40.94,35.75,41.209,34.92,41.27,34.15z"/>
			
				<linearGradient id="SVGID_18_" gradientUnits="userSpaceOnUse" x1="427.9897" y1="-275.9146" x2="430.3402" y2="-273.5641" gradientTransform="matrix(1 0 0 -1 -381 -229.5)">
				<stop  offset="0" style="stop-color:#B78F6C"/>
				<stop  offset="0.4941" style="stop-color:#C8B19D"/>
				<stop  offset="1" style="stop-color:#9E846B"/>
			</linearGradient>
			<path fill="url(#SVGID_18_)" d="M38.831,39.15c-0.031-0.07-0.051-0.121-0.051-0.15l-0.15-0.45c0.301-0.2,0.601-0.45,0.9-0.75
				c0.37-0.37,0.68-0.75,0.95-1.149l1.101,0.3L57.831,51.6c-0.73,0.871-1.521,1.73-2.351,2.601L38.831,39.15z"/>
			
				<linearGradient id="SVGID_19_" gradientUnits="userSpaceOnUse" x1="421.106" y1="-280.0137" x2="423.5302" y2="-279.0121" gradientTransform="matrix(1 0 0 -1 -381 -229.5)">
				<stop  offset="0" style="stop-color:#B78F6C"/>
				<stop  offset="0.4941" style="stop-color:#C8B19D"/>
				<stop  offset="1" style="stop-color:#9E846B"/>
			</linearGradient>
			<path fill="url(#SVGID_19_)" d="M36.129,40.15l0.101-0.601c0.771-0.13,1.569-0.47,2.399-1L38.77,39c0,0.029,0.02,0.08,0.05,0.15
				l7.65,21.3c-0.83,0.37-1.671,0.68-2.5,0.95L36.129,40.15z"/>
			
				<linearGradient id="SVGID_20_" gradientUnits="userSpaceOnUse" x1="400.481" y1="-271.2046" x2="402.0081" y2="-273.8534" gradientTransform="matrix(1 0 0 -1 -381 -229.5)">
				<stop  offset="0" style="stop-color:#B78F6C"/>
				<stop  offset="0.4941" style="stop-color:#C8B19D"/>
				<stop  offset="1" style="stop-color:#9E846B"/>
			</linearGradient>
			<path fill="url(#SVGID_20_)" d="M27.88,36.5l1.45-0.85c0.33,0.7,0.72,1.321,1.15,1.85l-2,2.25l-16.95,11
				c-0.63-0.8-1.2-1.63-1.7-2.5L27.88,36.5z"/>
			
				<linearGradient id="SVGID_21_" gradientUnits="userSpaceOnUse" x1="412.811" y1="-280.3013" x2="415.6854" y2="-280.6318" gradientTransform="matrix(1 0 0 -1 -381 -229.5)">
				<stop  offset="0" style="stop-color:#B78F6C"/>
				<stop  offset="0.4941" style="stop-color:#C8B19D"/>
				<stop  offset="1" style="stop-color:#9E846B"/>
			</linearGradient>
			<path fill="url(#SVGID_21_)" d="M36.23,39.55l-0.101,0.601l-2.899,22.5c-1.1-0.03-2.17-0.15-3.2-0.351l2.9-22.35l0.1-0.65
				c0.77,0.229,1.47,0.351,2.1,0.351C35.42,39.65,35.79,39.62,36.23,39.55z"/>
			
				<linearGradient id="SVGID_22_" gradientUnits="userSpaceOnUse" x1="404.7866" y1="-276.5679" x2="407.5879" y2="-278.4923" gradientTransform="matrix(1 0 0 -1 -381 -229.5)">
				<stop  offset="0" style="stop-color:#B78F6C"/>
				<stop  offset="0.4941" style="stop-color:#C8B19D"/>
				<stop  offset="1" style="stop-color:#9E846B"/>
			</linearGradient>
			<path fill="url(#SVGID_22_)" d="M28.48,39.75l2-2.25c0.97,0.93,1.82,1.529,2.55,1.8l-0.1,0.65l-12.35,19
				c-1.07-0.63-2.12-1.351-3.15-2.15L28.48,39.75z"/>
			
				<linearGradient id="SVGID_23_" gradientUnits="userSpaceOnUse" x1="398.5161" y1="-264.5996" x2="399.0199" y2="-267.4489" gradientTransform="matrix(1 0 0 -1 -381 -229.5)">
				<stop  offset="0" style="stop-color:#B78F6C"/>
				<stop  offset="0.4941" style="stop-color:#C8B19D"/>
				<stop  offset="1" style="stop-color:#9E846B"/>
			</linearGradient>
			<path fill="url(#SVGID_23_)" d="M29.33,35.65l-1.45,0.85l-21.2,3.45c-0.2-0.9-0.35-1.82-0.45-2.75l22.7-3.65
				C28.92,34.25,29.06,34.95,29.33,35.65z"/>
		</g>
		<g>
			
				<radialGradient id="SVGID_24_" cx="418.4243" cy="-263.8999" r="10.2506" gradientTransform="matrix(1 0 0 -1 -381 -229.5)" gradientUnits="userSpaceOnUse">
				<stop  offset="0.2196" style="stop-color:#B67A18"/>
				<stop  offset="0.8157" style="stop-color:#B67A18"/>
				<stop  offset="0.9294" style="stop-color:#483E3D"/>
				<stop  offset="1" style="stop-color:#B2701C"/>
			</radialGradient>
			<path fill="url(#SVGID_24_)" d="M42.02,28.3c1.67,1.63,2.5,3.63,2.5,6c0,2.33-0.83,4.33-2.5,6c-1.67,1.671-3.68,2.5-6.05,2.5
				c-2.33,0-4.33-0.829-6-2.5c-1.67-1.67-2.5-3.67-2.5-6c0-2.37,0.83-4.37,2.5-6c1.67-1.7,3.67-2.55,6-2.55
				C38.34,25.75,40.36,26.6,42.02,28.3z"/>
		</g>
		<g>
			
				<radialGradient id="SVGID_25_" cx="418.2749" cy="-264.0493" r="6.7747" gradientTransform="matrix(1 0 0 -1 -381 -229.5)" gradientUnits="userSpaceOnUse">
				<stop  offset="0" style="stop-color:#000000"/>
				<stop  offset="0.1176" style="stop-color:#2D1D06"/>
				<stop  offset="0.2039" style="stop-color:#704910"/>
				<stop  offset="0.3176" style="stop-color:#8D5C14"/>
				<stop  offset="0.8157" style="stop-color:#B67A18"/>
				<stop  offset="0.9294" style="stop-color:#483E3D"/>
				<stop  offset="1" style="stop-color:#B2701C"/>
			</radialGradient>
			<path fill="url(#SVGID_25_)" d="M36.629,28.8c1.57,0,2.9,0.57,4,1.7c1.101,1.1,1.65,2.42,1.65,3.95c0,1.569-0.55,2.899-1.65,4
				c-1.1,1.1-2.43,1.649-4,1.649c-1.529,0-2.85-0.55-3.949-1.649c-1.1-1.101-1.65-2.431-1.65-4c0-1.53,0.55-2.85,1.65-3.95
				C33.77,29.37,35.09,28.8,36.629,28.8z"/>
		</g>
		<g>
			<path fill="#CCAB8C" d="M60.92,14.9c2.33,2.8,4.07,6.07,5.199,9.8c0.33,1.07,0.621,2.13,0.851,3.2c0.399,2.13,0.55,4.23,0.45,6.3
				c0-0.1,0-0.2,0-0.3c-0.4-4.27-1.131-7.8-2.2-10.6C64.129,20.53,62.69,17.73,60.92,14.9z M13.77,13.45
				c2.23-2.2,4.63-3.98,7.2-5.35v0.4c-2.3,1.3-4.47,2.95-6.5,4.95C9.64,18.32,6.89,24.03,6.23,30.6c-0.1,1.07-0.15,2.17-0.15,3.3
				c0,7.93,2.8,14.73,8.4,20.4c3.57,3.53,7.57,5.95,12,7.25v0.2c-4.73-1.27-8.97-3.75-12.7-7.45c-5.63-5.67-8.45-12.47-8.45-20.4
				c0-1.13,0.05-2.23,0.15-3.3C6.14,24.03,8.91,18.32,13.77,13.45z"/>
		</g>
	</g>
</g>
</svg>
