<?xml version="1.0" encoding="utf-8"?>
<!-- Generator: Adobe Illustrator 16.0.0, SVG Export Plug-In . SVG Version: 6.00 Build 0)  -->
<!DOCTYPE svg PUBLIC "-//W3C//DTD SVG 1.1//EN" "http://www.w3.org/Graphics/SVG/1.1/DTD/svg11.dtd">
<svg version="1.1" xmlns="http://www.w3.org/2000/svg" xmlns:xlink="http://www.w3.org/1999/xlink" x="0px" y="0px" width="31.33px"
	 height="70.67px" viewBox="0 0 31.33 70.67" enable-background="new 0 0 31.33 70.67" xml:space="preserve">
<g id="Layer_1">
	<g>
		<g>
			<path fill-rule="evenodd" clip-rule="evenodd" fill="#84572B" d="M1.58,20.03c0-0.5,1.38-0.93,4.15-1.3s6.12-0.55,10.05-0.55
				c3.9,0,7.25,0.18,10.05,0.55c2.77,0.37,4.15,0.8,4.15,1.3c-0.01,0.5-1.39,0.93-4.15,1.3c-2.8,0.37-6.15,0.55-10.05,0.55
				c-3.93,0-7.28-0.18-10.05-0.55C2.98,20.97,1.59,20.53,1.58,20.03z"/>
			<linearGradient id="SVGID_1_" gradientUnits="userSpaceOnUse" x1="1.5835" y1="45.333" x2="30.0335" y2="45.333">
				<stop  offset="0.0314" style="stop-color:#624120"/>
				<stop  offset="0.1451" style="stop-color:#996633"/>
				<stop  offset="0.3686" style="stop-color:#CCCC66"/>
				<stop  offset="0.6039" style="stop-color:#996633"/>
				<stop  offset="0.7137" style="stop-color:#CBCA65"/>
				<stop  offset="0.8039" style="stop-color:#FFFFFF"/>
				<stop  offset="0.9255" style="stop-color:#996633"/>
			</linearGradient>
			<path fill-rule="evenodd" clip-rule="evenodd" fill="url(#SVGID_1_)" d="M29.98,20.03v50.6H1.58v-50.6
				c0.01,0.5,1.39,0.93,4.15,1.3c2.77,0.37,6.12,0.55,10.05,0.55c3.9,0,7.25-0.18,10.05-0.55C28.59,20.97,29.97,20.53,29.98,20.03z"
				/>
		</g>
		<g>
			<path fill-rule="evenodd" clip-rule="evenodd" fill="#31220F" d="M17.13,20.58c0.43,0.1,0.65,0.22,0.65,0.35
				s-0.22,0.25-0.65,0.35c-0.37,0.1-0.85,0.15-1.45,0.15c-0.57,0-1.07-0.05-1.5-0.15c-0.37-0.1-0.55-0.22-0.55-0.35
				s0.18-0.25,0.55-0.35c0.43-0.1,0.93-0.15,1.5-0.15C16.28,20.43,16.77,20.48,17.13,20.58z"/>
		</g>
		<g>
			<path fill-rule="evenodd" clip-rule="evenodd" fill="#C4AC8E" d="M9.68,6.58c0.17-1.47,0.75-2.68,1.75-3.65
				c1.27-1.3,2.8-1.95,4.6-1.95c1.7,0,3.18,0.65,4.45,1.95c1.27,1.2,1.9,2.67,1.9,4.4c0,1.8-0.63,3.35-1.9,4.65
				c-0.83,0.8-1.78,1.33-2.85,1.6v7.3c0,0.07-0.22,0.17-0.65,0.3c-0.43,0.13-0.95,0.13-1.55,0c-0.63-0.07-0.95-0.17-0.95-0.3v-8.65
				c0-0.47,0.17-0.85,0.5-1.15c0.27-0.3,0.63-0.45,1.1-0.45c0.8,0,1.55-0.33,2.25-1c0.6-0.63,0.9-1.4,0.9-2.3
				c0-0.83-0.3-1.55-0.9-2.15c-0.7-0.7-1.47-1.05-2.3-1.05c-0.9,0-1.65,0.35-2.25,1.05c-0.57,0.47-0.9,1.03-1,1.7
				c-0.03,0.43-0.22,0.78-0.55,1.05c-0.33,0.3-0.72,0.42-1.15,0.35c-0.43-0.07-0.8-0.27-1.1-0.6C9.72,7.38,9.62,7.02,9.68,6.58z"/>
		</g>
	</g>
</g>
<g id="Layer_2">
</g>
</svg>
