<?xml version="1.0" encoding="utf-8"?>
<!-- Generator: Adobe Illustrator 16.0.0, SVG Export Plug-In . SVG Version: 6.00 Build 0)  -->
<!DOCTYPE svg PUBLIC "-//W3C//DTD SVG 1.1//EN" "http://www.w3.org/Graphics/SVG/1.1/DTD/svg11.dtd">
<svg version="1.1" xmlns="http://www.w3.org/2000/svg" xmlns:xlink="http://www.w3.org/1999/xlink" x="0px" y="0px" width="700px"
	 height="700px" viewBox="0 0 700 700" enable-background="new 0 0 700 700" xml:space="preserve">
<g id="Layer_2">
</g>
<g id="Layer_1">
	<g>
		<g>
			<g>
				<path fill="none" stroke="#333333" stroke-linecap="round" stroke-linejoin="round" stroke-miterlimit="3" d="M7.5,384.3H100
					v-91.8 M100,384.3h92.3 M100,384.3v92.5"/>
			</g>
			<g>
				<path fill="none" stroke="#FFFFFF" stroke-width="2" stroke-linecap="round" stroke-linejoin="round" stroke-miterlimit="3" d="
					M7.5,384.3c0-0.1,0-0.2,0-0.3c0.1-25.3,9.1-47,27-65c18.1-18,39.9-27,65.4-27s47.3,9,65.3,27s27,39.6,27.1,65c0,0.1,0,0.2,0,0.3
					c0,0,0,0.1,0,0.2c0,25.5-9,47.3-27.1,65.3c-17.6,17.7-38.9,26.7-63.7,27.1c-0.5,0-1,0-1.5,0l0,0h-0.1c-25.5,0-47.3-9-65.4-27.1
					c-18-18-27-39.8-27-65.3C7.5,384.3,7.5,384.3,7.5,384.3z"/>
			</g>
		</g>
	</g>
</g>
</svg>
