<?xml version="1.0" encoding="utf-8"?>
<!-- Generator: Adobe Illustrator 16.0.0, SVG Export Plug-In . SVG Version: 6.00 Build 0)  -->
<!DOCTYPE svg PUBLIC "-//W3C//DTD SVG 1.1//EN" "http://www.w3.org/Graphics/SVG/1.1/DTD/svg11.dtd">
<svg version="1.1" id="Layer_1" xmlns="http://www.w3.org/2000/svg" xmlns:xlink="http://www.w3.org/1999/xlink" x="0px" y="0px"
	 width="700px" height="700px" viewBox="0 0 700 700" enable-background="new 0 0 700 700" xml:space="preserve">
<g>
	
		<linearGradient id="SVGID_1_" gradientUnits="userSpaceOnUse" x1="403.626" y1="289.939" x2="405.9257" y2="289.1129" gradientTransform="matrix(1 0 0 -1 2.3398 580.04)">
		<stop  offset="0" style="stop-color:#060606;stop-opacity:0"/>
		<stop  offset="1" style="stop-color:#000000"/>
	</linearGradient>
	<polygon fill="url(#SVGID_1_)" points="402.5,312.9 402.6,299.5 413.6,268.8 413.6,300.4 	"/>
	<g>
		<g>
			<g>
				
					<linearGradient id="SVGID_2_" gradientUnits="userSpaceOnUse" x1="409.624" y1="365.7979" x2="400.7695" y2="114.3834" gradientTransform="matrix(1 0 0 -1 2.3398 580.04)">
					<stop  offset="0" style="stop-color:#9DAAD0"/>
					<stop  offset="0.3176" style="stop-color:#848482"/>
					<stop  offset="1" style="stop-color:#959595"/>
				</linearGradient>
				<polygon fill="url(#SVGID_2_)" points="401.5,465.6 401.5,238.6 413.6,214.3 413.6,238.6 413.6,440.5 				"/>
				
					<linearGradient id="SVGID_3_" gradientUnits="userSpaceOnUse" x1="407.2393" y1="266.5488" x2="314.224" y2="220.998" gradientTransform="matrix(1 0 0 -1 2.3398 580.04)">
					<stop  offset="0.0314" style="stop-color:#0E0D0B"/>
					<stop  offset="0.4863" style="stop-color:#787C76"/>
					<stop  offset="0.7922" style="stop-color:#3C3D35"/>
					<stop  offset="0.9725" style="stop-color:#2E2E26"/>
				</linearGradient>
				<polygon fill="url(#SVGID_3_)" points="359.7,238.6 359.7,465.6 351.4,440.9 351.4,234.6 351.4,214.3 358.3,234.6 				"/>
				
					<linearGradient id="SVGID_4_" gradientUnits="userSpaceOnUse" x1="358.0332" y1="346.0679" x2="400.9163" y2="366.1328" gradientTransform="matrix(1 0 0 -1 2.3398 580.04)">
					<stop  offset="0" style="stop-color:#7F878A"/>
					<stop  offset="0.2392" style="stop-color:#7F8789"/>
					<stop  offset="0.3373" style="stop-color:#32312D"/>
					<stop  offset="0.5098" style="stop-color:#9097A0"/>
					<stop  offset="0.6157" style="stop-color:#A3ACB8"/>
					<stop  offset="0.7765" style="stop-color:#586168"/>
					<stop  offset="1" style="stop-color:#51536C"/>
				</linearGradient>
				<polygon fill="url(#SVGID_4_)" points="413.6,214.3 401.5,238.6 359.7,238.6 358.3,234.6 351.4,214.3 383,214.3 				"/>
				
					<linearGradient id="SVGID_5_" gradientUnits="userSpaceOnUse" x1="348.564" y1="338.6748" x2="403.7442" y2="133.2588" gradientTransform="matrix(1 0 0 -1 2.3398 580.04)">
					<stop  offset="0" style="stop-color:#FFFFFF"/>
					<stop  offset="0.1569" style="stop-color:#9FADD4"/>
					<stop  offset="0.5804" style="stop-color:#737478"/>
					<stop  offset="0.7765" style="stop-color:#848482"/>
					<stop  offset="1" style="stop-color:#959595"/>
				</linearGradient>
				<rect x="359.7" y="238.6" fill="url(#SVGID_5_)" width="41.899" height="227"/>
			</g>
		</g>
		<g>
			<polyline fill="none" points="401.8,238.6 401.8,271.8 401.8,290.7 401.8,297.6 401.8,422.8 401.8,465.6 			"/>
			<g>
				
					<linearGradient id="SVGID_6_" gradientUnits="userSpaceOnUse" x1="385.248" y1="353.4902" x2="439.9731" y2="353.4902" gradientTransform="matrix(1 0 0 -1 2.3398 580.04)">
					<stop  offset="0.0235" style="stop-color:#A2AAB3"/>
					<stop  offset="0.1451" style="stop-color:#F7FFFF"/>
					<stop  offset="0.2275" style="stop-color:#FEFEFF"/>
					<stop  offset="0.3922" style="stop-color:#ACB0BD"/>
					<stop  offset="0.4627" style="stop-color:#C6C9D2"/>
					<stop  offset="0.5882" style="stop-color:#5D657C"/>
					<stop  offset="0.7882" style="stop-color:#5B6377"/>
					<stop  offset="0.9765" style="stop-color:#464646"/>
				</linearGradient>
				<path fill="url(#SVGID_6_)" d="M414.2,214.3l-7.4,15l-4.6,9.4l-41.3,0.1L401.3,237l10.4-21.2c0.6-0.9-0.3-1.4-2.7-1.5H414.2z"/>
			</g>
		</g>
		<g>
			<polyline fill="none" points="352,440.9 360.3,465.6 377.3,465.6 401.5,465.6 413.8,440.1 			"/>
		</g>
		<g>
			<g>
				
					<linearGradient id="SVGID_7_" gradientUnits="userSpaceOnUse" x1="374.2168" y1="377.459" x2="414.2761" y2="377.459" gradientTransform="matrix(0.9935 0.1136 0.05 -1.0008 -29.8828 574.8239)">
					<stop  offset="0" style="stop-color:#181512"/>
					<stop  offset="0.2078" style="stop-color:#948A74"/>
					<stop  offset="0.4627" style="stop-color:#5A5247"/>
					<stop  offset="0.651" style="stop-color:#979087"/>
					<stop  offset="0.8078" style="stop-color:#0B0A08"/>
					<stop  offset="1" style="stop-color:#171411"/>
				</linearGradient>
				<polygon fill="url(#SVGID_7_)" points="389.7,242.1 371.8,242.1 371.9,241.6 389.6,241.6 				"/>
				
					<linearGradient id="SVGID_8_" gradientUnits="userSpaceOnUse" x1="376.3701" y1="336.042" x2="380.6937" y2="103.321" gradientTransform="matrix(1 0 0 -1 2.3398 580.04)">
					<stop  offset="0" style="stop-color:#FFFFFF"/>
					<stop  offset="0.1569" style="stop-color:#9FADD4"/>
					<stop  offset="0.5804" style="stop-color:#737478"/>
					<stop  offset="0.7765" style="stop-color:#848482"/>
					<stop  offset="1" style="stop-color:#959595"/>
				</linearGradient>
				<rect x="371.8" y="242.1" fill="url(#SVGID_8_)" width="17.9" height="223.4"/>
			</g>
		</g>
		<g>
			
				<path fill="none" stroke="#000000" stroke-linecap="round" stroke-linejoin="round" stroke-miterlimit="3" stroke-opacity="0.2706" d="
				M373.4,243.4h8.3 M373.4,246h3.8 M373.4,247h3.8 M373.4,243.9h3.8 M373.4,244.9h3.8 M373.4,244.4h5.399 M373.4,246.5h5.399
				 M373.4,245.5h5.399 M373.4,267h3.8 M373.4,263.9h3.8 M373.4,271.8h5.6 M373.4,270.8h5.6 M373.4,270.1h3.8 M373.4,271.1h3.8
				 M373.4,272.2h3.8 M373.4,269.6h6.899 M373.4,264.4h8.3 M373.4,263.4h5.6 M373.4,266.5h5.399 M373.4,265.5h5.399 M373.4,267.5
				h5.399 M373.4,262.3h5.6 M373.4,269.1h3.8 M373.4,268.6h5.399 M373.4,260.7h3.8 M373.4,261.7h3.8 M373.4,268.1h3.8 M373.4,264.9
				h3.8 M373.4,266h3.8 M373.4,262.9h3.8 M373.4,261.3h5.6 M373.4,253.9h8.3 M373.4,248.6h6.899 M373.4,259.1h6.899 M373.4,254.4
				h3.8 M373.4,255.5h3.8 M373.4,253.3h3.8 M373.4,256.5h3.8 M373.4,257h5.399 M373.4,258h5.399 M373.4,258.5h3.8 M373.4,257.5h3.8
				 M373.4,252.3h3.8 M373.4,260.2h5.6 M373.4,259.6h3.8 M373.4,252.8h5.6 M373.4,255h5.399 M373.4,256h5.399 M373.4,251.8h5.6
				 M373.4,248h3.8 M373.4,250.8h5.6 M373.4,249.7h5.6 M373.4,251.1h3.8 M373.4,250.2h3.8 M373.4,249.1h3.8 M373.4,247.5h5.399
				 M373.4,288.6h5.399 M373.4,294.4h3.8 M373.4,292.3h3.8 M373.4,291.2h3.8 M373.4,290.7h6.899 M373.4,285.5h8.3 M373.4,280.2
				h6.899 M373.4,296.5h3.8 M373.4,296h8.3 M373.4,293.9h5.6 M373.4,292.9h5.6 M373.4,293.4h3.8 M373.4,287.6h5.399 M373.4,289.1
				h3.8 M373.4,289.6h5.399 M373.4,291.8h5.6 M373.4,290.2h3.8 M373.4,287.1h3.8 M373.4,288.1h3.8 M373.4,294.9h5.6 M373.4,295.5
				h3.8 M373.4,284.9h3.8 M373.4,283.9h3.8 M373.4,280.7h3.8 M373.4,282.8h3.8 M373.4,281.7h3.8 M373.4,284.4h5.6 M373.4,286.5
				h5.399 M373.4,286h3.8 M373.4,278.6h3.8 M373.4,279.6h3.8 M373.4,279.1h5.399 M373.4,278h5.399 M373.4,281.3h5.6 M373.4,283.3
				h5.6 M373.4,282.3h5.6 M373.4,274.9h8.3 M373.4,276h5.399 M373.4,273.9h5.6 M373.4,272.8h5.6 M373.4,274.4h3.8 M373.4,276.5h3.8
				 M373.4,275.4h3.8 M373.4,277.5h3.8 M373.4,277h5.399 M373.4,273.4h3.8 M373.4,321.2h5.399 M373.4,319.1h5.399 M373.4,318.6h3.8
				 M373.4,316.5h3.8 M373.4,317.6h3.8 M373.4,313.3h3.8 M373.4,314.4h3.8 M373.4,315.5h3.8 M373.4,317h8.3 M373.4,319.7h3.8
				 M373.4,320.7h3.8 M373.4,316h5.6 M373.4,313.9h5.6 M373.4,314.9h5.6 M373.4,320.1h5.399 M373.4,318.1h5.399 M373.4,301.3h6.899
				 M373.4,306.5h8.3 M373.4,311.8h6.899 M373.4,306h3.8 M373.4,305h3.8 M373.4,304.4h5.6 M373.4,311.3h3.8 M373.4,307.5h5.399
				 M373.4,305.5h5.6 M373.4,310.2h3.8 M373.4,312.3h3.8 M373.4,308.1h3.8 M373.4,310.7h5.399 M373.4,312.9h5.6 M373.4,309.2h3.8
				 M373.4,309.6h5.399 M373.4,308.6h5.399 M373.4,307h3.8 M373.4,301.8h3.8 M373.4,302.8h3.8 M373.4,299.1h5.399 M373.4,300.1
				h5.399 M373.4,298.1h5.399 M373.4,303.4h5.6 M373.4,302.3h5.6 M373.4,297h5.399 M373.4,300.8h3.8 M373.4,298.7h3.8 M373.4,299.6
				h3.8 M373.4,297.6h3.8 M373.4,303.9h3.8 M373.4,345.9h3.8 M373.4,340.1h5.399 M373.4,341.2h5.399 M373.4,342.3h5.399
				 M373.4,346.5h5.6 M373.4,339.6h3.8 M373.4,343.4h6.899 M373.4,338h8.3 M373.4,332.8h6.899 M373.4,343.9h3.8 M373.4,340.7h3.8
				 M373.4,344.4h5.6 M373.4,345.4h5.6 M373.4,344.9h3.8 M373.4,341.8h3.8 M373.4,342.8h3.8 M373.4,336.5h3.8 M373.4,337.5h3.8
				 M373.4,338.5h3.8 M373.4,333.8h5.6 M373.4,334.9h5.6 M373.4,339.1h5.399 M373.4,333.3h3.8 M373.4,332.3h3.8 M373.4,331.3h3.8
				 M373.4,334.3h3.8 M373.4,335.4h3.8 M373.4,331.8h5.399 M373.4,337h5.6 M373.4,336h5.6 M373.4,322.3h6.899 M373.4,327.5h8.3
				 M373.4,326h3.8 M373.4,327h3.8 M373.4,328h3.8 M373.4,324.4h5.6 M373.4,328.6h5.399 M373.4,329.1h3.8 M373.4,323.4h5.6
				 M373.4,323.9h3.8 M373.4,324.9h3.8 M373.4,329.6h5.399 M373.4,330.7h5.399 M373.4,330.2h3.8 M373.4,325.4h5.6 M373.4,326.5h5.6
				 M373.4,322.8h3.8 M373.4,321.8h3.8 M373.4,369.1h3.8 M373.4,371.2h3.8 M373.4,370.2h3.8 M373.4,367h3.8 M373.4,366.5h5.6
				 M373.4,370.7h5.399 M373.4,368.5h5.6 M373.4,367.5h5.6 M373.4,369.7h8.3 M373.4,368.1h3.8 M373.4,364.4h6.899 M373.4,353.8
				h6.899 M373.4,359.1h8.3 M373.4,348.5h8.3 M373.4,360.7h3.8 M373.4,362.8h3.8 M373.4,361.8h3.8 M373.4,363.3h5.399 M373.4,362.3
				h5.399 M373.4,357.5h3.8 M373.4,360.2h5.399 M373.4,358h5.6 M373.4,359.6h3.8 M373.4,364.9h3.8 M373.4,363.8h3.8 M373.4,358.5
				h3.8 M373.4,361.2h5.399 M373.4,365.4h5.6 M373.4,365.9h3.8 M373.4,350.6h5.399 M373.4,352.2h3.8 M373.4,356.3h3.8 M373.4,355.3
				h3.8 M373.4,353.2h3.8 M373.4,354.3h3.8 M373.4,357h5.6 M373.4,351.3h3.8 M373.4,349.1h3.8 M373.4,350.1h3.8 M373.4,351.8h5.399
				 M373.4,349.6h5.399 M373.4,352.7h5.399 M373.4,354.8h5.6 M373.4,355.9h5.6 M373.4,347h3.8 M373.4,347.5h5.6 M373.4,348h3.8
				 M373.4,393.8h5.399 M373.4,394.4h3.8 M373.4,395.4h3.8 M373.4,392.8h5.399 M373.4,394.8h5.399 M373.4,393.3h3.8 M373.4,390.7
				h8.3 M373.4,396h6.899 M373.4,385.5h6.899 M373.4,386h3.8 M373.4,383.8h3.8 M373.4,391.2h3.8 M373.4,389.2h3.8 M373.4,388h3.8
				 M373.4,390.2h3.8 M373.4,391.8h5.399 M373.4,392.3h3.8 M373.4,387.5h5.6 M373.4,386.5h5.6 M373.4,387h3.8 M373.4,385h3.8
				 M373.4,384.3h5.399 M373.4,388.5h5.6 M373.4,389.5h5.6 M373.4,374.9h6.899 M373.4,380.2h8.3 M373.4,379.6h3.8 M373.4,376.4h3.8
				 M373.4,375.4h3.8 M373.4,381.8h3.8 M373.4,381.3h5.399 M373.4,382.3h5.399 M373.4,377.5h3.8 M373.4,380.8h3.8 M373.4,378.6h3.8
				 M373.4,377h5.6 M373.4,382.8h3.8 M373.4,383.3h5.399 M373.4,375.9h5.6 M373.4,379h5.6 M373.4,378h5.6 M373.4,373.3h3.8
				 M373.4,371.7h5.399 M373.4,373.8h5.399 M373.4,372.8h5.399 M373.4,372.3h3.8 M373.4,374.3h3.8 M373.4,410.6h5.6 M373.4,417.1
				h6.899 M373.4,411.8h8.3 M373.4,401.2h8.3 M373.4,406.5h6.899 M373.4,419.2h5.6 M373.4,419.7h3.8 M373.4,420.7h3.8 M373.4,420.2
				h5.6 M373.4,410.2h3.8 M373.4,411.3h3.8 M373.4,413.4h3.8 M373.4,415.5h3.8 M373.4,414.5h3.8 M373.4,412.3h3.8 M373.4,416.5h3.8
				 M373.4,417.5h3.8 M373.4,418.1h5.6 M373.4,418.5h3.8 M373.4,413.9h5.399 M373.4,416h5.399 M373.4,415h5.399 M373.4,412.9h5.399
				 M373.4,407h3.8 M373.4,408h3.8 M373.4,406h3.8 M373.4,405.3h5.399 M373.4,404.3h5.399 M373.4,402.3h5.399 M373.4,409.6h5.6
				 M373.4,402.8h3.8 M373.4,403.8h3.8 M373.4,404.9h3.8 M373.4,401.7h3.8 M373.4,409.1h3.8 M373.4,408.6h5.6 M373.4,407.5h5.6
				 M373.4,403.3h5.399 M373.4,398h5.6 M373.4,397h5.6 M373.4,400.1h5.6 M373.4,399h5.6 M373.4,399.7h3.8 M373.4,400.7h3.8
				 M373.4,398.5h3.8 M373.4,396.5h3.8 M373.4,397.5h3.8 M373.4,439.1h5.6 M373.4,437h5.399 M373.4,440.2h5.6 M373.4,442.8h3.8
				 M373.4,441.8h3.8 M373.4,443.9h3.8 M373.4,445.5h5.399 M373.4,438.2h6.899 M373.4,443.4h8.3 M373.4,441.3h5.6 M373.4,442.3h5.6
				 M373.4,436.5h3.8 M373.4,439.6h3.8 M373.4,438.5h3.8 M373.4,440.7h3.8 M373.4,437.5h3.8 M373.4,444.5h5.399 M373.4,445h3.8
				 M373.4,422.3h8.3 M373.4,432.8h8.3 M373.4,427.6h6.899 M373.4,429.1h3.8 M373.4,428h3.8 M373.4,429.7h5.6 M373.4,434h5.399
				 M373.4,435.5h3.8 M373.4,428.6h5.6 M373.4,430.8h5.6 M373.4,431.8h5.6 M373.4,434.5h3.8 M373.4,430.2h3.8 M373.4,432.3h3.8
				 M373.4,431.3h3.8 M373.4,433.3h3.8 M373.4,435h5.399 M373.4,436h5.399 M373.4,423.4h5.399 M373.4,421.2h5.6 M373.4,425h3.8
				 M373.4,426h3.8 M373.4,423.9h3.8 M373.4,427h3.8 M373.4,422.8h3.8 M373.4,421.8h3.8 M373.4,424.4h5.399 M373.4,425.5h5.399
				 M373.4,426.5h5.399 M373.4,453.9h8.3 M373.4,448.7h6.899 M373.4,447.1h3.8 M373.4,446.1h3.8 M373.4,450.2h3.8 M373.4,451.8h5.6
				 M373.4,452.8h5.6 M373.4,448.1h3.8 M373.4,450.7h5.6 M373.4,449.2h3.8 M373.4,451.2h3.8 M373.4,446.5h5.399 M373.4,452.3h3.8
				 M373.4,449.7h5.6 M373.4,453.3h3.8 M373.4,447.6h5.399"/>
		</g>
		<g>
			<g>
				<path fill-opacity="0.3137" d="M384.7,243.3v-0.6c0.1-0.1,0.2-0.1,0.399-0.1c0.101,0,0.301,0,0.5,0c0.301,0,0.601,0.1,0.801,0.2
					c0.199,0.1,0.3,0.3,0.3,0.6c0,0.1,0,0.3-0.101,0.5c-0.1,0.1-0.199,0.3-0.3,0.5c-0.2,0.1-0.3,0.2-0.399,0.3
					c-0.101,0.1-0.2,0.1-0.301,0.1h1.301v0.6h-2.2v-0.5c0.1-0.1,0.3-0.2,0.5-0.4s0.399-0.3,0.5-0.4c0.1-0.2,0.2-0.3,0.3-0.4
					c0.1-0.2,0.2-0.3,0.2-0.4c0-0.1-0.101-0.2-0.2-0.3s-0.2-0.1-0.3-0.1c-0.101,0-0.2,0-0.4,0C384.9,243.1,384.8,243.2,384.7,243.3
					L384.7,243.3z M389.3,242.9c0.101,0.1,0.2,0.3,0.2,0.4c0.1,0.2,0.1,0.4,0.1,0.6c0,0.2,0,0.5-0.1,0.6c0,0.2-0.1,0.4-0.2,0.5
					c-0.1,0.1-0.2,0.2-0.3,0.2c-0.1,0.1-0.3,0.1-0.6,0.1c-0.2,0-0.4,0-0.5-0.1c-0.2,0-0.301-0.1-0.301-0.2
					c-0.1-0.1-0.199-0.3-0.3-0.5c0-0.2,0-0.4,0-0.6c0-0.2,0-0.4,0-0.6c0.101-0.2,0.2-0.3,0.3-0.4c0.101-0.1,0.2-0.2,0.301-0.3
					c0.1,0,0.3,0,0.5,0c0.199,0,0.399,0,0.6,0C389,242.6,389.2,242.7,389.3,242.9z M388,243.2c-0.1,0.1-0.1,0.4-0.1,0.7
					c0,0.3,0,0.6,0.1,0.8c0,0.2,0.1,0.3,0.3,0.3s0.3-0.1,0.4-0.3c0-0.2,0-0.4,0-0.8c0-0.3,0-0.6,0-0.7c-0.101-0.1-0.2-0.2-0.4-0.2
					C388.2,243,388.1,243.1,388,243.2z M385.2,252.6l0.1-0.1c0,0,0-0.1,0.101-0.2h0.6v2.4h0.6v0.5H384.7v-0.5h0.5v-1.5h-0.5v-0.4
					c0.1,0,0.2,0,0.3,0C385.1,252.7,385.2,252.6,385.2,252.6z M388.3,252.3c0.2,0,0.3,0,0.4,0.1c0.1,0,0.3,0.1,0.3,0.2
					c0.2,0.1,0.3,0.2,0.3,0.4s0,0.4,0,0.6c0,0.2,0,0.4,0,0.6c0,0.2-0.1,0.4-0.3,0.5c-0.1,0.2-0.3,0.3-0.5,0.4s-0.4,0.1-0.7,0.1
					c-0.1,0-0.2,0-0.3,0s-0.1-0.1-0.2-0.1v-0.5h0.101h0.1c0.1,0.1,0.2,0.1,0.3,0.1c0.101,0,0.2,0,0.3-0.1c0.101,0,0.2,0,0.301-0.1
					c0.1,0,0.1-0.1,0.1-0.2c0.1,0,0.2-0.1,0.2-0.3c-0.101,0.1-0.2,0.1-0.3,0.1c-0.101,0.1-0.2,0.1-0.4,0.1c-0.1,0-0.3,0-0.3-0.1
					c-0.101,0-0.2,0-0.2,0c-0.1-0.1-0.2-0.2-0.3-0.4c0-0.1,0-0.3,0-0.5c0-0.3,0.1-0.5,0.3-0.7C387.7,252.4,388,252.3,388.3,252.3z
					 M388.2,252.8c-0.101,0-0.101,0-0.2,0.1c-0.1,0-0.1,0.1-0.1,0.1c0,0.1,0,0.2,0,0.3c0,0.1,0,0.1,0,0.2s0,0.1,0.1,0.1
					c0,0,0.1,0,0.2,0.1c0.1,0,0.2,0,0.2,0s0.1,0,0.199,0c0.101-0.1,0.101-0.1,0.2-0.1v-0.1c0-0.2,0-0.3,0-0.4s0-0.2-0.1-0.2
					c0-0.1-0.101-0.1-0.101-0.1h-0.1C388.3,252.8,388.2,252.8,388.2,252.8z M385.2,263.6l0.1-0.1c0,0,0-0.1,0.101-0.2h0.6v2.4h0.6
					v0.5H384.7v-0.5h0.5v-1.5h-0.5v-0.4c0.1,0,0.2,0,0.3,0C385.1,263.6,385.2,263.6,385.2,263.6z M387.3,265
					c0.101-0.1,0.3-0.2,0.5-0.3c-0.1-0.1-0.3-0.2-0.399-0.3c-0.101-0.1-0.101-0.3-0.101-0.4c0-0.2,0.101-0.3,0.3-0.5
					c0.2-0.1,0.5-0.2,0.801-0.2c0.399,0,0.699,0,0.899,0.1s0.3,0.3,0.3,0.6c0,0.1,0,0.2-0.1,0.4c-0.1,0.1-0.2,0.1-0.4,0.2
					c0.2,0.1,0.301,0.2,0.5,0.4c0.101,0.1,0.101,0.2,0.101,0.4c0,0.3-0.101,0.5-0.3,0.7c-0.2,0.2-0.5,0.3-0.9,0.3
					c-0.2,0-0.4,0-0.5-0.1c-0.2,0-0.3-0.1-0.3-0.1c-0.101-0.1-0.2-0.2-0.3-0.3c0-0.1,0-0.2,0-0.4C387.2,265.2,387.2,265,387.3,265z
					 M388.7,263.9c-0.101-0.1-0.2-0.1-0.4-0.1c-0.1,0-0.1,0-0.1,0H388c0,0.1-0.1,0.1-0.1,0.1v0.1c0,0.1,0,0.2,0.1,0.3
					c0,0,0.1,0,0.2,0c0,0.1,0,0.1,0.2,0.1c0,0,0.1,0,0.199,0c0.101,0,0.101-0.1,0.2-0.1c0-0.1,0-0.2,0-0.2
					C388.8,264,388.7,263.9,388.7,263.9z M388,265c0,0,0,0.1,0,0.2c0,0.1,0,0.2,0.1,0.3c0.101,0.1,0.2,0.2,0.4,0.2h0.1
					c0,0,0.101,0,0.2-0.1v-0.1c0.101-0.1,0.101-0.1,0.101-0.3c0,0,0-0.1-0.101-0.1c0-0.1-0.1-0.2-0.3-0.3c0,0-0.1,0-0.1-0.1
					c-0.101,0-0.2,0-0.301,0C388.1,264.9,388,265,388,265z M384.7,296c0.1,0,0.2,0,0.3,0c0.1-0.1,0.2-0.1,0.2-0.1l0.1-0.1
					c0-0.1,0-0.1,0.101-0.3h0.6v2.4h0.6v0.5H384.7V298h0.5v-1.5h-0.5V296L384.7,296z M384.7,285c0.1,0,0.2,0,0.3,0s0.2,0,0.2,0
					s0.1-0.1,0.1-0.2c0,0,0-0.1,0.101-0.2h0.6v2.4h0.6v0.5H384.7V287h0.5v-1.5h-0.5V285L384.7,285z M384.7,274.5c0.1,0,0.2,0,0.3,0
					c0.1-0.1,0.2-0.1,0.2-0.1l0.1-0.1c0,0,0-0.1,0.101-0.2h0.6v2.4h0.6v0.5H384.7v-0.5h0.5V275h-0.5V274.5L384.7,274.5z
					 M389.5,274.5l-1.3,2.3h-0.8l1.3-2.3h-1.5V274h2.2v0.5H389.5z M389.1,284.6c0.101,0,0.2,0,0.301,0v0.5H389.3c0,0-0.1,0-0.2,0
					c-0.1,0-0.199,0-0.3,0c-0.2,0-0.399,0-0.5,0.1c-0.2,0.1-0.3,0.3-0.3,0.5c0.1-0.1,0.2-0.1,0.3-0.1c0.101,0,0.3,0,0.3,0
					c0.101,0,0.2,0,0.301,0c0.1,0,0.199,0.1,0.3,0.1c0.1,0,0.2,0.1,0.3,0.3s0.1,0.3,0.1,0.5s0,0.3-0.1,0.4c0,0.2-0.1,0.3-0.2,0.4
					c-0.1,0.1-0.2,0.1-0.3,0.2c-0.1,0-0.3,0-0.5,0c-0.1,0-0.3,0-0.5,0c-0.1-0.1-0.3-0.1-0.4-0.2c-0.1-0.1-0.199-0.3-0.3-0.5
					c-0.1-0.2-0.1-0.4-0.1-0.6c0-0.2,0-0.4,0.1-0.6c0-0.2,0.101-0.3,0.3-0.5c0.101-0.1,0.301-0.3,0.5-0.4c0.2,0,0.5,0,0.7,0
					C388.8,284.6,389,284.6,389.1,284.6z M388.3,286.1c-0.1,0-0.2,0-0.3,0h-0.1c0,0.1,0,0.1,0,0.1c0,0.1,0,0.3,0,0.4
					c0.1,0.1,0.1,0.2,0.1,0.3c0.1,0,0.1,0,0.2,0c0.1,0,0.1,0,0.2,0h0.1c0,0,0.1,0,0.2,0c0-0.1,0-0.1,0-0.2c0.1-0.1,0.1-0.1,0.1-0.3
					c0-0.2,0-0.2-0.1-0.2v-0.1c-0.101,0-0.2,0-0.3,0C388.4,286.1,388.4,286.1,388.3,286.1z M389.4,296.2H388v0.5
					c0-0.1,0.1-0.1,0.2-0.1c0.1,0,0.1,0,0.2,0c0.1,0,0.3,0,0.399,0.1c0.101,0,0.2,0.1,0.3,0.1c0.2,0,0.301,0.1,0.301,0.3
					c0,0.1,0,0.3,0,0.4s0,0.3,0,0.4s-0.101,0.3-0.2,0.4c-0.2,0.1-0.3,0.2-0.5,0.2c-0.101,0.1-0.3,0.1-0.5,0.1s-0.4,0-0.5-0.1
					c-0.2,0-0.4-0.1-0.5-0.2v-0.5h0.1c0.101,0,0.3,0.1,0.4,0.1c0.1,0,0.3,0.1,0.3,0.1c0.1,0,0.2,0,0.3,0c0.101,0,0.2-0.1,0.2-0.2
					h0.1c0,0,0-0.1,0-0.2s0-0.1,0-0.1c0-0.1,0-0.1-0.1-0.1s-0.2,0-0.3,0c-0.101,0-0.2,0-0.3,0c-0.101,0-0.2,0-0.301,0
					c-0.1,0-0.199,0-0.3,0h-0.1v-1.5h2v0.3H389.4z M389.2,305.5v1.6h0.399v0.5H389.2v0.6h-0.8v-0.6H387V307l1.4-1.5H389.2z
					 M386,305.5v2.3h0.6v0.5H384.7v-0.5h0.5v-1.5h-0.5v-0.4c0.1,0,0.2,0,0.3,0s0.2-0.1,0.2-0.1c0-0.1,0.1-0.1,0.1-0.1
					c0-0.1,0-0.1,0.101-0.2H386L386,305.5z M388.5,307.1V306l-0.8,1.1H388.5z M389.1,316.3c0.101,0,0.2,0.1,0.301,0.2
					c0,0.1,0.1,0.2,0.1,0.3c0,0.1-0.1,0.3-0.2,0.4c-0.1,0.2-0.2,0.3-0.3,0.3h0.1c0.101,0,0.2,0,0.2,0.1c0.101,0.1,0.101,0.2,0.2,0.2
					c0,0.1,0,0.2,0,0.3s0,0.3,0,0.4s-0.1,0.2-0.2,0.3c-0.2,0.1-0.3,0.1-0.5,0.2c-0.1,0-0.3,0-0.5,0s-0.5,0-0.7,0
					c-0.1-0.1-0.3-0.1-0.3-0.2v-0.5h0.101c0.1,0,0.199,0.1,0.399,0.1c0.101,0.1,0.3,0.1,0.4,0.1c0.1,0,0.2,0,0.3,0s0.1,0,0.2-0.1
					c0,0,0.1-0.1,0.2-0.1c0-0.1,0-0.1,0-0.3v-0.1c-0.101-0.1-0.101-0.1-0.2-0.1c-0.101,0-0.2,0-0.2,0c-0.1,0-0.2,0-0.3,0H388.1v-0.5
					h0.101c0.1,0,0.2,0,0.3,0s0.1,0,0.2-0.1l0,0c0.1-0.1,0.1-0.1,0.1-0.2s0-0.1-0.1-0.1v-0.1c-0.101,0-0.101,0-0.2,0s-0.1,0-0.1,0
					c-0.2,0-0.301,0-0.4,0c-0.2,0.1-0.3,0.1-0.4,0.3h-0.1v-0.6c0.1-0.1,0.2-0.1,0.4-0.1c0.199,0,0.399,0,0.5,0
					c0.199,0,0.399,0,0.5,0C388.9,316.1,389,316.2,389.1,316.3z M386,318.5h0.6v0.5H384.7v-0.5h0.5V317h-0.5v-0.5c0.1,0,0.2,0,0.3,0
					s0.2,0,0.2,0s0.1-0.1,0.1-0.2c0,0,0-0.1,0.101-0.2h0.6V318.5L386,318.5z M384.7,337.7c0.1,0,0.2,0,0.3,0s0.2-0.1,0.2-0.1
					c0-0.1,0.1-0.1,0.1-0.1s0-0.1,0.101-0.2h0.6v2.4h0.6v0.5H384.7v-0.5h0.5v-1.5h-0.5V337.7L384.7,337.7z M384.7,328.6h0.5v-1.5
					h-0.5v-0.4c0.1,0,0.2,0,0.3,0c0.1-0.1,0.2-0.1,0.2-0.1l0.1-0.1c0-0.1,0-0.1,0.101-0.3h0.6v2.4h0.6v0.5H384.7V328.6L384.7,328.6z
					 M388.3,326.3c0.3,0,0.601,0.1,0.8,0.3c0.2,0.1,0.301,0.3,0.301,0.6c0,0.2-0.101,0.3-0.2,0.5c-0.101,0.2-0.2,0.3-0.3,0.5
					c-0.101,0.1-0.301,0.2-0.4,0.3s-0.2,0.1-0.3,0.1h1.3v0.6h-2.2v-0.5c0.101-0.1,0.3-0.2,0.5-0.4c0.2-0.1,0.3-0.3,0.4-0.4
					c0.1-0.1,0.2-0.3,0.3-0.4s0.2-0.3,0.2-0.3c0-0.1,0-0.2-0.2-0.3c-0.1-0.1-0.2-0.1-0.3-0.1c-0.101,0-0.2,0-0.4,0.1
					c-0.2,0-0.3,0.1-0.3,0.2h-0.1v-0.6c0.1,0,0.3,0,0.399,0C388,326.3,388.2,326.3,388.3,326.3z M387.5,337.7c0.1,0,0.2,0,0.3,0
					c0.101,0,0.2-0.1,0.2-0.1c0.1-0.1,0.1-0.1,0.1-0.1s0-0.1,0.101-0.2h0.5v2.4h0.7v0.5h-1.9v-0.5h0.5v-1.5h-0.5V337.7L387.5,337.7z
					 M388.3,347.9c0.2,0,0.4,0,0.601,0.1c0.1,0.1,0.3,0.2,0.3,0.3c0,0.1,0.2,0.3,0.2,0.4c0.1,0.2,0.1,0.4,0.1,0.6
					c0,0.2,0,0.5-0.1,0.7c0,0.2-0.101,0.4-0.2,0.5c-0.101,0.1-0.2,0.2-0.3,0.2c-0.101,0.1-0.301,0.1-0.601,0.1
					c-0.2,0-0.399,0-0.5-0.1c-0.2,0-0.3-0.101-0.3-0.2c-0.1-0.1-0.2-0.3-0.3-0.5c0-0.2,0-0.4,0-0.7c0-0.2,0-0.4,0-0.6
					c0.1-0.1,0.2-0.3,0.3-0.4c0.1-0.1,0.2-0.2,0.3-0.3C388,347.9,388.2,347.9,388.3,347.9z M388,348.6c-0.1,0.1-0.1,0.4-0.1,0.7
					c0,0.3,0,0.6,0.1,0.7c0,0.2,0.1,0.3,0.3,0.3s0.3-0.1,0.4-0.3c0-0.1,0-0.4,0-0.7c0-0.3,0-0.6,0-0.7c-0.101-0.1-0.2-0.2-0.4-0.2
					C388.2,348.4,388.1,348.5,388,348.6z M385.3,348.1c0,0,0-0.1,0.101-0.2h0.6v2.4h0.6v0.5H384.7v-0.5h0.5v-1.5h-0.5v-0.5
					c0.1,0,0.2,0,0.3,0s0.2,0,0.2,0C385.2,348.2,385.3,348.1,385.3,348.1z M386.6,359.5c0.101,0.2,0.101,0.4,0.101,0.7
					s0,0.5-0.101,0.6c0,0.2-0.1,0.4-0.3,0.5c-0.1,0.2-0.3,0.3-0.5,0.4c-0.2,0.1-0.399,0.1-0.7,0.1c-0.1,0-0.199,0-0.3,0
					c-0.1,0-0.2,0-0.2,0v-0.5l0,0h0.101c0.1,0.101,0.2,0.101,0.3,0.101s0.1,0,0.3-0.101c0.101,0,0.2,0,0.3-0.2
					c0,0,0.101-0.1,0.101-0.199c0.1,0,0.2-0.101,0.2-0.301c-0.101,0.101-0.2,0.101-0.301,0.2c-0.1,0.101-0.199,0.101-0.399,0.101
					c-0.101,0-0.3,0-0.3-0.101c-0.101,0-0.2,0-0.301,0c-0.1-0.1-0.199-0.2-0.3-0.399c-0.1-0.101-0.1-0.301-0.1-0.4
					c0-0.3,0.1-0.5,0.3-0.7s0.5-0.3,0.8-0.3c0.2,0,0.4,0,0.5,0.1c0.101,0,0.3,0.101,0.3,0.2C386.5,359.3,386.6,359.4,386.6,359.5z
					 M385.7,359.4c0,0-0.101-0.101-0.2-0.101c0,0-0.1,0-0.1,0.101c0,0-0.101,0-0.2,0.1v0.1c0,0.101,0,0.2,0,0.301
					c0,0.1,0,0.1,0,0.199c0,0.101,0,0.101,0,0.2c0.1,0,0.1,0,0.2,0.101c0.1,0,0.199,0,0.3,0c0,0,0.1,0,0.2,0
					c0-0.101,0.1-0.101,0.199-0.101v-0.2c0-0.199,0-0.3-0.1-0.399c0-0.101,0-0.2-0.1-0.2C385.8,359.4,385.7,359.4,385.7,359.4z
					 M386.7,369.5c0,0.1,0,0.2-0.2,0.3c0,0.101-0.1,0.2-0.3,0.2c0.2,0.1,0.3,0.2,0.399,0.3c0.101,0.101,0.2,0.3,0.2,0.5
					s-0.1,0.4-0.3,0.601c-0.2,0.199-0.5,0.3-1,0.3c-0.2,0-0.4,0-0.5-0.101c-0.1,0-0.3-0.1-0.3-0.1c-0.101-0.1-0.2-0.2-0.2-0.3
					c-0.1-0.101-0.1-0.2-0.1-0.4s0-0.3,0.1-0.3c0.1-0.1,0.2-0.2,0.4-0.3c-0.101-0.101-0.301-0.2-0.4-0.3c0-0.101,0-0.301,0-0.4
					c0-0.2,0.1-0.4,0.3-0.5c0.2-0.2,0.5-0.3,0.8-0.3c0.4,0,0.7,0,0.9,0.1C386.6,369,386.7,369.2,386.7,369.5z M385.2,369.3
					c0,0,0,0.101,0,0.2s0,0.2,0,0.2c0.1,0,0.2,0,0.3,0c0,0.1,0,0.1,0.2,0.1c0,0,0.1,0,0.2,0c0,0,0.1-0.1,0.199-0.1
					c0-0.101,0-0.101,0-0.2s0-0.2-0.1-0.2c-0.1-0.1-0.2-0.1-0.4-0.1l0,0H385.4C385.3,369.3,385.2,369.3,385.2,369.3z M385.5,370.3
					c-0.1,0-0.2,0-0.2,0c-0.1,0-0.1,0.101-0.1,0.2c0,0,0,0.1,0,0.2c0,0.2,0,0.3,0.1,0.3c0.101,0.1,0.2,0.2,0.4,0.2h0.1
					c0.101,0,0.101,0,0.2-0.101h0.1c0,0,0-0.1,0-0.199c0-0.101,0-0.101,0-0.101c-0.1-0.1-0.199-0.1-0.3-0.2
					C385.7,370.5,385.6,370.4,385.5,370.3z M384.5,390.3c0.1-0.2,0.2-0.399,0.3-0.5c0.101-0.1,0.2-0.3,0.4-0.3
					c0.3-0.1,0.5-0.1,0.8-0.1c0.1,0,0.2,0,0.3,0c0.101,0,0.2,0,0.2,0v0.6l0,0c-0.1,0-0.2,0-0.3-0.1c-0.101,0-0.2,0-0.3,0
					c-0.2,0-0.4,0-0.601,0.1c-0.1,0.1-0.2,0.3-0.2,0.5c0.101,0,0.2-0.1,0.301-0.1c0.1,0,0.3,0,0.3,0c0.1,0,0.2,0,0.3,0
					c0.1,0.1,0.1,0.1,0.3,0.1c0.101,0.1,0.2,0.2,0.3,0.3c0,0.101,0,0.3,0,0.5c0,0.101,0,0.3,0,0.4c-0.1,0.1-0.1,0.3-0.199,0.3
					c-0.101,0.1-0.2,0.2-0.301,0.2c-0.199,0.1-0.3,0.1-0.5,0.1c-0.199,0-0.3,0-0.5-0.1c-0.1,0-0.3-0.101-0.399-0.2
					c-0.101-0.1-0.2-0.3-0.3-0.5c0-0.2,0-0.4,0-0.6C384.4,390.7,384.5,390.5,384.5,390.3z M384.5,378.5h2.2v0.5l-1.3,2.3H384.6
					l1.301-2.3h-1.5v-0.5H384.5z M385.2,391C385.2,391,385.2,391.1,385.2,391c0,0.3,0,0.4,0,0.5s0.1,0.2,0.1,0.3
					c0,0,0.101,0,0.2,0.101c0,0,0.1,0,0.2,0h0.1c0.101-0.101,0.101-0.101,0.2-0.101s0.1-0.1,0.1-0.2c0,0,0-0.1,0-0.199
					c0-0.101,0-0.2,0-0.301c0,0,0-0.1-0.1-0.1c0-0.1-0.1-0.1-0.2-0.1c0,0-0.1,0-0.2,0c-0.1,0-0.199,0-0.199,0
					C385.3,390.9,385.2,390.9,385.2,391z M385.7,401.1c0.1,0,0.3,0,0.399,0.101c0.101,0,0.2,0.1,0.301,0.1
					c0.1,0,0.199,0.101,0.3,0.3c0.1,0.101,0.1,0.2,0.1,0.4c0,0.1,0,0.3-0.1,0.3c0,0.101-0.101,0.3-0.2,0.4c-0.1,0.1-0.3,0.2-0.4,0.3
					c-0.199,0-0.3,0-0.5,0c-0.199,0-0.399,0-0.6,0c-0.2-0.1-0.3-0.1-0.4-0.2v-0.6l0,0c0.101,0.1,0.301,0.1,0.5,0.1
					c0.101,0.101,0.301,0.101,0.301,0.101c0.1,0,0.199,0,0.3,0c0.1-0.101,0.1-0.101,0.2-0.2l0.1-0.101c0.1,0,0.1-0.1,0.1-0.199
					c0,0,0-0.101-0.1-0.201c0,0,0-0.1-0.1-0.1c-0.101,0-0.2,0-0.301,0c-0.1,0-0.199,0-0.3,0c-0.1,0-0.2,0-0.3,0s-0.2,0-0.3,0l0,0
					v-1.5h1.899v0.5h-1.3v0.5c0.101,0,0.2-0.1,0.3-0.1C385.5,401.1,385.6,401.1,385.7,401.1z M386.4,410.8v1.7h0.399v0.5H386.4v0.6
					h-0.7V413h-1.4v-0.5l1.4-1.6h0.7V410.8z M385.7,412.5v-1l-0.8,1H385.7z M385.5,420.5c0.2,0,0.3,0,0.5,0c0.1,0.1,0.3,0.1,0.3,0.2
					c0.101,0.1,0.2,0.1,0.2,0.2c0,0.1,0,0.199,0,0.399c0,0.101,0,0.3-0.1,0.4c-0.101,0.1-0.2,0.2-0.301,0.3c0,0,0.101,0,0.101,0.1
					c0.1,0,0.2,0,0.3,0c0,0.101,0.1,0.2,0.1,0.2c0.101,0.101,0.101,0.2,0.101,0.3c0,0.101,0,0.301-0.101,0.4
					c0,0.1-0.1,0.2-0.199,0.3c-0.101,0.101-0.301,0.2-0.4,0.2c-0.2,0.1-0.3,0.1-0.5,0.1s-0.5,0-0.7-0.1c-0.1,0-0.3-0.1-0.3-0.2v-0.5
					l0,0c0.1,0,0.2,0.101,0.4,0.101c0.199,0,0.3,0.1,0.399,0.1c0.101,0,0.2,0,0.2,0c0.1,0,0.2,0,0.2-0.1
					c0.1-0.101,0.1-0.101,0.2-0.101c0.1,0,0.1-0.1,0.1-0.2c0-0.1,0-0.1-0.1-0.199c0-0.101-0.101-0.101-0.2-0.101
					c-0.101,0-0.101,0-0.2,0s-0.2,0-0.3,0H385.1v-0.5h0.101c0.1,0,0.2,0,0.3,0s0.2,0,0.2,0c0.1,0,0.1,0,0.1-0.1
					c0,0,0.101-0.101,0.101-0.2c0,0,0-0.1-0.101-0.1h-0.1c0,0-0.101,0-0.2,0c0-0.101-0.1-0.101-0.1-0.101
					c-0.101,0-0.301,0-0.4,0.101c-0.1,0-0.3,0.1-0.4,0.199h-0.1V421c0.1,0,0.3,0,0.5,0C385.2,420.6,385.3,420.5,385.5,420.5z
					 M384.7,444.5h0.5V443h-0.5v-0.5c0.1,0,0.2,0,0.3,0s0.2,0,0.2,0c0-0.1,0.1-0.1,0.1-0.1c0-0.101,0-0.101,0.101-0.2h0.6v2.3h0.6
					v0.5H384.7V444.5L384.7,444.5z M384.5,434c0.1-0.1,0.3-0.2,0.5-0.4c0.2-0.199,0.4-0.3,0.5-0.399c0.1-0.101,0.2-0.3,0.3-0.4
					c0.101-0.1,0.2-0.3,0.2-0.3c0-0.1-0.1-0.2-0.2-0.3c-0.1-0.101-0.2-0.2-0.3-0.2s-0.2,0-0.4,0.1c-0.1,0.101-0.3,0.101-0.3,0.2l0,0
					v-0.6c0.101-0.101,0.2-0.101,0.4-0.101c0.1,0,0.3-0.1,0.5-0.1c0.3,0,0.6,0.1,0.8,0.2c0.2,0.1,0.3,0.399,0.3,0.7
					c0,0.1,0,0.3-0.1,0.5c-0.101,0.1-0.2,0.3-0.3,0.5c-0.2,0.1-0.301,0.199-0.4,0.3c-0.1,0.1-0.2,0.1-0.3,0.1h1.3v0.601h-2.2V434
					H384.5z M386.7,452.5c0.1,0.2,0.2,0.3,0.2,0.5c0.1,0.2,0.1,0.4,0.1,0.7s0,0.399-0.1,0.6c0,0.2-0.101,0.4-0.2,0.5
					c-0.101,0.101-0.2,0.2-0.4,0.3c-0.1,0.101-0.3,0.2-0.6,0.2c-0.2,0-0.3-0.1-0.5-0.2c-0.101-0.1-0.3-0.199-0.3-0.3
					c-0.101-0.1-0.2-0.3-0.2-0.5s0-0.399,0-0.6s0-0.5,0-0.7c0-0.1,0.1-0.3,0.2-0.5c0.1-0.1,0.199-0.2,0.3-0.3
					c0.2-0.101,0.3-0.101,0.5-0.101c0.3,0,0.5,0,0.6,0.101C386.5,452.3,386.6,452.4,386.7,452.5z M385.5,452.9
					c-0.1,0.199-0.2,0.399-0.2,0.8c0,0.3,0.101,0.6,0.2,0.7c0,0.199,0.1,0.3,0.3,0.3s0.3-0.101,0.4-0.3c0-0.101,0-0.4,0-0.7
					s0-0.601,0-0.8c-0.101-0.101-0.2-0.2-0.4-0.2S385.5,452.8,385.5,452.9z"/>
			</g>
		</g>
	</g>
	<g>
		<g>
			<path d="M396.7,223.5c-0.101,2.4-1.5,4.4-4.3,6.1c-2.9,1.7-6.301,2.6-10.301,2.6s-7.399-0.9-10.199-2.6
				c-2.801-1.7-4.101-3.8-4.101-6.1c0-2.4,1.5-4.5,4.4-6.2c2.8-1.7,6.2-2.5,10.2-2.5s7.3,0.8,10.1,2.5
				C395.3,219,396.7,221,396.7,223.5z"/>
		</g>
		<g>
			<g>
				
					<linearGradient id="SVGID_9_" gradientUnits="userSpaceOnUse" x1="351.3604" y1="426.1396" x2="410.6604" y2="426.1396" gradientTransform="matrix(1 0 0 -1 2.3398 580.04)">
					<stop  offset="0" style="stop-color:#98A0AD"/>
					<stop  offset="0.4235" style="stop-color:#9BA3AE"/>
					<stop  offset="1" style="stop-color:#8893A2"/>
				</linearGradient>
				<path fill="url(#SVGID_9_)" d="M413,155.8c-0.2,1.4-0.7,2.8-1.3,4.2c-1.5,2.8-4,5.3-7.601,7.6c-6.1,3.7-13.399,5.6-21.899,5.6
					c-6.2,0-11.8-1-16.7-3c-1.8-0.7-3.5-1.6-5.2-2.6c-3.5-2.2-6-4.7-7.5-7.5c-0.8-1.4-1.3-2.9-1.399-4.4v-3.2
					c0.5-4.7,3.5-8.8,9-12.1c0.5-0.3,1-0.6,1.5-1c5.699-3.2,12.5-4.8,20.399-4.8c8.5,0,15.8,1.9,21.9,5.7
					c5.3,3.3,8.3,7.3,8.899,11.9L413,155.8z"/>
				
					<linearGradient id="SVGID_10_" gradientUnits="userSpaceOnUse" x1="349.0605" y1="409.5898" x2="410.6611" y2="409.5898" gradientTransform="matrix(1 0 0 -1 2.3398 580.04)">
					<stop  offset="0" style="stop-color:#4D4433"/>
					<stop  offset="0.1451" style="stop-color:#130F0E"/>
					<stop  offset="0.2745" style="stop-color:#151110"/>
					<stop  offset="0.3922" style="stop-color:#2D2A23"/>
					<stop  offset="0.6196" style="stop-color:#0D0906"/>
					<stop  offset="0.7255" style="stop-color:#23221E"/>
					<stop  offset="0.8353" style="stop-color:#463D34"/>
					<stop  offset="0.9176" style="stop-color:#473C30"/>
					<stop  offset="1" style="stop-color:#2B221A"/>
				</linearGradient>
				<path fill="url(#SVGID_10_)" d="M392.6,184.4c-1.199,0.3-2.399,0.5-3.699,0.6c-2.2,0.3-4.4,0.4-6.801,0.4
					c-1.6,0-3.199-0.1-4.699-0.2c-2.101-0.2-4.101-0.5-6-0.9c-4.101-1-7.9-2.5-11.2-4.5c-5.3-3.4-8.3-7.4-8.9-12v-12.3
					c0.2,1.6,0.7,3,1.4,4.4c1.399,2.8,3.899,5.3,7.5,7.5c1.6,1,3.399,1.9,5.2,2.6c4.899,2,10.5,3,16.699,3
					c8.5,0,15.801-1.9,21.9-5.6c3.6-2.3,6.1-4.8,7.6-7.6c0.7-1.3,1.101-2.7,1.301-4.2v12.3c-0.7,4.5-3.7,8.4-9,11.8
					C400.7,182,396.8,183.5,392.6,184.4z"/>
				
					<linearGradient id="SVGID_11_" gradientUnits="userSpaceOnUse" x1="369.0605" y1="383.6895" x2="390.2598" y2="383.6895" gradientTransform="matrix(1 0 0 -1 2.3398 580.04)">
					<stop  offset="0" style="stop-color:#645244"/>
					<stop  offset="0.1255" style="stop-color:#11100E"/>
					<stop  offset="0.4471" style="stop-color:#080705"/>
					<stop  offset="0.8039" style="stop-color:#75787F"/>
					<stop  offset="1" style="stop-color:#474749"/>
				</linearGradient>
				<path fill="url(#SVGID_11_)" d="M392.5,199.6v3.1c-0.1,0.4-0.4,1-1.1,1.8c0,0.1-0.101,0.2-0.2,0.3c-0.5,0.5-1.101,1-1.8,1.4
					c-0.801,0.6-1.801,1-2.9,1.4c-1.4,0.4-2.9,0.6-4.6,0.6c-2.9,0-5.4-0.7-7.5-2c-0.801-0.5-1.5-1-2-1.5c-0.601-0.8-1-1.6-1-2.4
					v-1.7V199v-14.5c1.899,0.4,3.8,0.7,6,0.9c1.5,0.1,3.1,0.2,4.699,0.2c2.301,0,4.601-0.1,6.801-0.4c1.3-0.2,2.5-0.4,3.699-0.6
					v14.1C392.5,198.9,392.5,199.2,392.5,199.6z"/>
				
					<linearGradient id="SVGID_12_" gradientUnits="userSpaceOnUse" x1="385.8838" y1="370.3906" x2="394.0351" y2="372.5896" gradientTransform="matrix(1 0 0 -1 2.3398 580.04)">
					<stop  offset="0.1882" style="stop-color:#767876"/>
					<stop  offset="0.5686" style="stop-color:#868A8D"/>
					<stop  offset="0.6314" style="stop-color:#5A5A58"/>
					<stop  offset="1" style="stop-color:#000000"/>
				</linearGradient>
				<path fill="url(#SVGID_12_)" d="M390.3,215.7L388,209c1-0.3,1.9-0.8,2.8-1.3c0.9-0.5,1.601-1.1,2.2-1.7c0.3-0.4,0.6-0.8,0.8-1.3
					c0.2-0.4,0.4-0.9,0.5-1.4c0-0.3,0-0.7,0-1c0-0.3,0-0.6,0-0.9l1.5,4c0.2,0.4,0.4,0.8,0.5,1.3c0.101,0.5,0.2,1,0.2,1.5v0.5
					c0,0.4-0.1,0.7-0.2,1c-0.5,1.8-1.8,3.4-4,4.8c-0.6,0.3-1.1,0.6-1.8,0.9C390.5,215.6,390.3,215.6,390.3,215.7z"/>
				
					<linearGradient id="SVGID_13_" gradientUnits="userSpaceOnUse" x1="386.9355" y1="360.5898" x2="393.9856" y2="360.5898" gradientTransform="matrix(1 0 0 -1 2.3398 580.04)">
					<stop  offset="0" style="stop-color:#65665E"/>
					<stop  offset="0.6431" style="stop-color:#878B8E"/>
					<stop  offset="1" style="stop-color:#000000"/>
				</linearGradient>
				<path fill="url(#SVGID_13_)" d="M390.3,230.1v-14.4c0.101-0.1,0.2-0.1,0.3-0.2c0.601-0.3,1.2-0.6,1.801-0.9
					c2.199-1.4,3.5-3,4-4.8c0.1-0.3,0.199-0.7,0.199-1v14.1c0,0.3,0,0.6,0,0.9c0,0.2,0,0.4-0.199,0.5c-0.5,1.9-1.801,3.5-4,4.8
					C391.6,229.4,391,229.8,390.3,230.1z"/>
				
					<linearGradient id="SVGID_14_" gradientUnits="userSpaceOnUse" x1="367.7598" y1="375.8398" x2="391.9847" y2="375.8398" gradientTransform="matrix(1 0 0 -1 2.3398 580.04)">
					<stop  offset="0" style="stop-color:#180E02"/>
					<stop  offset="0.4471" style="stop-color:#9D9D9D"/>
					<stop  offset="0.6471" style="stop-color:#AFB3B4"/>
					<stop  offset="1" style="stop-color:#868789"/>
				</linearGradient>
				<path fill="url(#SVGID_14_)" d="M376.9,209.2c-1.2-0.4-2.301-0.9-3.301-1.5c-0.8-0.5-1.5-1.1-2-1.7c-0.699-0.7-1.1-1.5-1.3-2.5
					c-0.1-0.4-0.2-0.8-0.2-1.1c0-0.5,0.101-0.9,0.2-1.4c0.101-0.2,0.2-0.5,0.3-0.7c0.2-0.5,0.5-1,1-1.5v1.6
					c-0.1,0.1-0.1,0.3-0.1,0.4c0,0.2-0.1,0.4-0.1,0.6c-0.101,0.1-0.101,0.3-0.101,0.5v0.1v0.1l0,0c0,0.1,0,0.2,0.101,0.4
					c0,0.3,0,0.5,0.1,0.6c0.1,0.5,0.4,1,0.7,1.5l0.1,0.1c0,0.1,0.101,0.2,0.2,0.4c0.5,0.6,1.2,1.2,2,1.7c2.1,1.3,4.7,1.9,7.7,1.9
					c1.6,0,3.1-0.2,4.399-0.6c0.4-0.1,0.801-0.2,1.101-0.3c0.8-0.3,1.5-0.6,2.3-1c0.9-0.6,1.6-1.2,2.1-1.8
					c0.101-0.1,0.2-0.3,0.4-0.4c0.5-0.7,0.7-1.4,0.8-2.2c0-0.2,0-0.4,0-0.5c0-0.5-0.1-1-0.2-1.4c0-0.1,0-0.2,0-0.2
					c-0.1-0.2-0.199-0.5-0.399-0.8c0-0.4,0-0.7,0-1.1c0.1,0,0.1,0.1,0.2,0.1c0.3,0.3,0.6,0.7,0.8,1.1c0.1,0.2,0.3,0.5,0.399,0.7
					c0,0,0,0.1,0,0.2c0.101,0.3,0.2,0.6,0.301,0.9c0,0.3,0,0.6,0,0.9c0,0.3,0,0.7,0,1c-0.101,0.5-0.301,0.9-0.5,1.4
					c-0.2,0.5-0.5,0.9-0.801,1.3c-0.6,0.6-1.3,1.2-2.199,1.7c-0.9,0.5-1.801,1-2.801,1.3c-0.399,0.2-0.899,0.4-1.399,0.5
					c-1.4,0.3-2.8,0.5-4.4,0.5C380.3,210,378.5,209.7,376.9,209.2z"/>
				<path fill="#191208" d="M371.5,200.5v1.7c0.1,0.8,0.4,1.6,1,2.4c0.5,0.6,1.2,1.1,2,1.5c2.1,1.3,4.5,2,7.5,2
					c1.7,0,3.2-0.2,4.6-0.6c1.101-0.3,2-0.8,2.9-1.4c0.8-0.4,1.4-0.9,1.8-1.4c0.101-0.1,0.101-0.1,0.2-0.3c0.7-0.7,1-1.3,1.1-1.8
					v-3.1c0.101,0.3,0.301,0.6,0.4,0.8c0,0,0,0.1,0,0.2c0.1,0.4,0.2,0.9,0.2,1.4c0,0.1,0,0.3,0,0.5c0,0.8-0.3,1.5-0.8,2.2
					c-0.2,0.1-0.301,0.3-0.4,0.4c-0.5,0.6-1.2,1.2-2.1,1.8c-0.7,0.4-1.5,0.8-2.301,1c-0.3,0.1-0.699,0.2-1.1,0.3
					c-1.4,0.4-2.8,0.6-4.4,0.6c-3,0-5.6-0.6-7.699-1.9c-0.801-0.5-1.5-1.1-2-1.7c-0.101-0.2-0.2-0.3-0.2-0.4l-0.101-0.1
					c-0.3-0.5-0.6-1-0.699-1.5c0-0.2-0.101-0.4-0.101-0.6c-0.1-0.1-0.1-0.3-0.1-0.4l0,0c0-0.1,0-0.1,0-0.1l0,0c0-0.2,0-0.4,0.1-0.5
					c0-0.2,0-0.4,0.101-0.6C371.4,200.8,371.4,200.7,371.5,200.5z"/>
				
					<linearGradient id="SVGID_15_" gradientUnits="userSpaceOnUse" x1="372.0762" y1="366.1465" x2="388.7261" y2="368.0627" gradientTransform="matrix(1 0 0 -1 2.3398 580.04)">
					<stop  offset="0" style="stop-color:#776944"/>
					<stop  offset="0.1725" style="stop-color:#776944"/>
					<stop  offset="0.2706" style="stop-color:#2E2219"/>
					<stop  offset="0.3529" style="stop-color:#0E0D0B"/>
					<stop  offset="0.502" style="stop-color:#0E0D0B"/>
					<stop  offset="0.8" style="stop-color:#767876"/>
					<stop  offset="0.9882" style="stop-color:#767876"/>
				</linearGradient>
				<path fill="url(#SVGID_15_)" d="M375,216l2-6.8c1.6,0.5,3.3,0.8,5.3,0.8c1.601,0,3.101-0.2,4.4-0.5c0.5-0.1,1-0.3,1.399-0.5
					l2.301,6.7c-1.101,0.5-2.301,0.8-3.7,1.1c-1.4,0.3-2.8,0.4-4.4,0.4C379.5,217.2,377.1,216.8,375,216z"/>
				
					<linearGradient id="SVGID_16_" gradientUnits="userSpaceOnUse" x1="371.1475" y1="356.2402" x2="389.2725" y2="356.2402" gradientTransform="matrix(1 0 0 -1 2.3398 580.04)">
					<stop  offset="0" style="stop-color:#201A14"/>
					<stop  offset="0.149" style="stop-color:#3F3327"/>
					<stop  offset="0.2706" style="stop-color:#2E2219"/>
					<stop  offset="0.3529" style="stop-color:#0E0D0B"/>
					<stop  offset="0.5529" style="stop-color:#0E0D0B"/>
					<stop  offset="0.651" style="stop-color:#67625F"/>
					<stop  offset="0.8" style="stop-color:#32302D"/>
					<stop  offset="1" style="stop-color:#93968B"/>
				</linearGradient>
				<path fill="url(#SVGID_16_)" d="M375,230.5V216c2.1,0.8,4.5,1.3,7.3,1.3c1.601,0,3-0.1,4.4-0.4c1.3-0.3,2.6-0.6,3.7-1.1v14.4
					c-2.301,1.1-5,1.6-8,1.6C379.5,231.7,377.1,231.3,375,230.5z"/>
				
					<linearGradient id="SVGID_17_" gradientUnits="userSpaceOnUse" x1="367.2813" y1="372.3584" x2="375.8522" y2="370.0683" gradientTransform="matrix(1 0 0 -1 2.3398 580.04)">
					<stop  offset="0.0196" style="stop-color:#5B3A19"/>
					<stop  offset="0.2431" style="stop-color:#503311"/>
					<stop  offset="0.4078" style="stop-color:#776944"/>
					<stop  offset="1" style="stop-color:#796B46"/>
				</linearGradient>
				<path fill="url(#SVGID_17_)" d="M376.9,209.2l-2,6.8c-0.301-0.1-0.7-0.2-1-0.4c-0.7-0.3-1.301-0.7-1.9-1
					c-2.5-1.6-3.8-3.4-4.1-5.6c0-0.3,0-0.5,0-0.8c0-0.4,0-0.8,0.199-1.2c0.101-0.5,0.301-1,0.5-1.5l1.5-4.6
					c-0.1,0.4-0.199,0.9-0.199,1.4c0,0.4,0.1,0.8,0.199,1.1c0.2,0.9,0.601,1.7,1.301,2.5c0.6,0.6,1.3,1.2,2,1.7
					C374.6,208.3,375.7,208.8,376.9,209.2z"/>
				
					<linearGradient id="SVGID_18_" gradientUnits="userSpaceOnUse" x1="365.6973" y1="360.29" x2="372.6223" y2="360.29" gradientTransform="matrix(1 0 0 -1 2.3398 580.04)">
					<stop  offset="0" style="stop-color:#30281D"/>
					<stop  offset="0.4431" style="stop-color:#392C1C"/>
					<stop  offset="0.6902" style="stop-color:#483829"/>
					<stop  offset="0.9882" style="stop-color:#34281E"/>
				</linearGradient>
				<path fill="url(#SVGID_18_)" d="M375,216v14.5c-1-0.4-2-0.9-2.9-1.5c-2.5-1.5-3.8-3.3-4.1-5.4c0-0.3,0-0.6,0-0.9
					c0-0.3,0-0.5,0-0.6V209c0.3,2.1,1.6,4,4.1,5.6c0.601,0.3,1.2,0.7,1.9,1C374.3,215.8,374.6,215.9,375,216z"/>
			</g>
		</g>
		<g>
			
				<radialGradient id="SVGID_19_" cx="379.3604" cy="346.0151" r="23.3619" gradientTransform="matrix(1 0 0 -0.5762 2.3398 381.5665)" gradientUnits="userSpaceOnUse">
				<stop  offset="0" style="stop-color:#000000;stop-opacity:0.8824"/>
				<stop  offset="0.6667" style="stop-color:#000000;stop-opacity:0.6941"/>
				<stop  offset="1" style="stop-color:#000000;stop-opacity:0"/>
			</radialGradient>
			<path fill="url(#SVGID_19_)" d="M371.5,196.6v-12.3c1.9,0.4,3.8,0.7,6,0.9c1.5,0.1,3.1,0.2,4.7,0.2c2.3,0,4.6-0.1,6.8-0.4
				c1.3-0.2,2.5-0.4,3.7-0.6v12.3c-1.5,0.3-2.8,0.5-3.601,0.6c-2.1,0.3-4.399,0.4-6.8,0.4c-1.8,0-3.399-0.1-4.7-0.2
				C375.2,197.4,373.2,197,371.5,196.6z"/>
		</g>
		<g>
			
				<radialGradient id="SVGID_20_" cx="389.8105" cy="372.7402" r="4.9743" gradientTransform="matrix(1 0 0 -1 2.3398 580.04)" gradientUnits="userSpaceOnUse">
				<stop  offset="0" style="stop-color:#FFFFFF"/>
				<stop  offset="0.4431" style="stop-color:#FEFEFE;stop-opacity:0.8039"/>
				<stop  offset="1" style="stop-color:#F6F6F6;stop-opacity:0"/>
			</radialGradient>
			<path fill="url(#SVGID_20_)" d="M394.5,201.5c0,0.3,0,0.6,0,0.9c0,0.3,0,0.7-0.1,1.1c-0.2,0.9-0.601,1.7-1.101,2.4
				c-0.6,0.7-1.3,1.3-2.1,1.8c-0.7,0.5-1.5,0.9-2.3,1.1c-0.2,0-0.4,0.1-0.601,0.2c0.4-0.3,0.9-0.6,1.5-0.8c0.7-0.4,1.5-1,2.5-1.8
				c0.9-0.9,1.4-1.7,1.8-2.4c0.2-0.8,0.301-1.4,0.301-1.7c-0.101-0.3-0.101-0.6-0.101-0.9v-0.1c0.101,0,0.101,0,0.101,0
				c0-0.1,0-0.1,0,0L394.5,201.5z"/>
		</g>
		<g>
			<g>
				
					<linearGradient id="SVGID_21_" gradientUnits="userSpaceOnUse" x1="332.7979" y1="425.8398" x2="362.1229" y2="425.8398" gradientTransform="matrix(1 0 0 -1 2.3398 580.04)">
					<stop  offset="0" style="stop-color:#FFFFFF"/>
					<stop  offset="1" style="stop-color:#FFFFFF;stop-opacity:0.0431"/>
				</linearGradient>
				<path fill="url(#SVGID_21_)" d="M364.2,138.3c2.3-1.1,4.7-1.9,7.3-2.5c-2.5,0.8-4.9,1.8-7,3c-0.6,0.3-1.1,0.5-1.5,0.9h-0.1
					c-0.2,0.1-0.301,0.2-0.4,0.4h-0.1c-1.2,0.8-2.301,1.6-3.301,2.4c-3.3,2.9-5.199,6.2-5.5,9.9c-0.1,0.5-0.1,1-0.1,1.5
					c0,0.6,0,1.1,0.1,1.8c0.2,1.6,0.7,3.1,1.5,4.6c1.101,2.1,2.801,4.1,5.101,5.9c0.8,0.6,1.7,1.2,2.6,1.8c1,0.6,2,1.2,3,1.7
					c0.7,0.4,1.4,0.7,2.2,1.1c1,0.4,2,0.7,3,1c0.6,0.2,1.1,0.4,1.7,0.5v0.3c-0.601-0.2-1.101-0.3-1.7-0.4c-1.1-0.2-2.2-0.5-3.2-0.9
					V171c-0.8-0.3-1.6-0.6-2.399-0.9c-1.801-0.7-3.5-1.6-5.2-2.6c-0.3-0.2-0.5-0.4-0.8-0.6c-3.101-2.1-5.301-4.4-6.601-6.9
					c-0.8-1.4-1.3-2.9-1.399-4.4v-3.2c0.399-4.1,2.8-7.7,7-10.8c0.6-0.5,1.3-1,2-1.4c0.1-0.1,0.3-0.2,0.5-0.3c0.3-0.2,0.6-0.5,1-0.7
					c0.199-0.1,0.399-0.2,0.6-0.3C363.1,138.8,363.6,138.5,364.2,138.3L364.2,138.3z"/>
				
					<radialGradient id="SVGID_22_" cx="398.4102" cy="412.6895" r="14.6131" fx="400.7024" fy="412.6895" gradientTransform="matrix(1 0 0 -1 2.3398 580.04)" gradientUnits="userSpaceOnUse">
					<stop  offset="0" style="stop-color:#FFFFFF;stop-opacity:0.9451"/>
					<stop  offset="0" style="stop-color:#FFFFFF"/>
					<stop  offset="0.4863" style="stop-color:#FEFEFE;stop-opacity:0.651"/>
					<stop  offset="1" style="stop-color:#FBFBFB;stop-opacity:0"/>
				</radialGradient>
				<path fill="url(#SVGID_22_)" d="M384,173.1c7.3-1.4,13.2-3.3,17.9-5.7c4.6-2.4,8-5.4,10.3-9.1c-1.8,3.3-2.9,5.1-3,5.3v0.1
					c-1.3,1.3-2.9,2.5-4.8,3.7C398.7,170.9,391.9,172.8,384,173.1z"/>
				<line fill="none" x1="371.5" y1="184.4" x2="371.5" y2="190.3"/>
			</g>
		</g>
		<g>
			<g>
				
					<radialGradient id="SVGID_23_" cx="393.3105" cy="362.7393" r="7.7015" gradientTransform="matrix(1 0 0 -1 2.3398 580.04)" gradientUnits="userSpaceOnUse">
					<stop  offset="0" style="stop-color:#787B7C"/>
					<stop  offset="0.5569" style="stop-color:#7A7D7F;stop-opacity:0.8078"/>
					<stop  offset="0.9647" style="stop-color:#85898C;stop-opacity:0"/>
				</radialGradient>
				<path fill="url(#SVGID_23_)" d="M394.6,213l0.5-0.5v13.9c0,0.1,0,0.1,0,0.3c-0.1,0-0.199,0-0.3,0h-0.1
					c-0.101-0.1-0.2-0.2-0.2-0.3V213H394.6z"/>
				
					<linearGradient id="SVGID_24_" gradientUnits="userSpaceOnUse" x1="382.9307" y1="366.8848" x2="386.7794" y2="367.9147" gradientTransform="matrix(1 0 0 -1 2.3398 580.04)">
					<stop  offset="0" style="stop-color:#0A0A0A;stop-opacity:0"/>
					<stop  offset="0.4549" style="stop-color:#32302D;stop-opacity:0.9098"/>
					<stop  offset="1" style="stop-color:#000000;stop-opacity:0"/>
				</linearGradient>
				<path fill="url(#SVGID_24_)" d="M388.3,209c1.2-0.4,2-0.9,2.4-1.3l2.3,6.3c-3.3,2-5.5,2.9-6.8,2.5l-1.8-6.8
					C385.8,209.7,387.2,209.4,388.3,209z"/>
				
					<linearGradient id="SVGID_25_" gradientUnits="userSpaceOnUse" x1="371.9355" y1="357.2402" x2="375.9856" y2="357.2402" gradientTransform="matrix(1 0 0 -1 2.3398 580.04)">
					<stop  offset="0" style="stop-color:#151412;stop-opacity:0"/>
					<stop  offset="1" style="stop-color:#0E0D0B"/>
				</linearGradient>
				<path fill="url(#SVGID_25_)" d="M380.2,217.1c0,5-0.2,9.7-0.7,14.3c-4.4-0.3-7.4-1.7-9-4.1v-13.1h0.8
					C373.6,215.8,376.5,216.8,380.2,217.1z"/>
				
					<linearGradient id="SVGID_26_" gradientUnits="userSpaceOnUse" x1="371.2617" y1="368.3506" x2="375.5626" y2="367.1789" gradientTransform="matrix(1 0 0 -1 2.3398 580.04)">
					<stop  offset="0" style="stop-color:#151412;stop-opacity:0"/>
					<stop  offset="1" style="stop-color:#0E0D0B"/>
				</linearGradient>
				<path fill="url(#SVGID_26_)" d="M380.2,217.1c-3.601-0.3-6.5-1.3-8.8-3l2.899-6.1c2.9,1.4,5.5,2.1,7.8,2l2,7.2
					C382.3,217.3,381.1,217.2,380.2,217.1z"/>
			</g>
		</g>
		<g>
			<path fill="none" d="M396.2,210.5c-0.7,1.3-1.8,2.6-3.4,3.7c-2.899,2.1-6.399,3.2-10.6,3.2c-4.101,0-7.7-1.1-10.601-3.2
				c-1.5-1.1-2.6-2.3-3.399-3.7"/>
		</g>
		<g>
			
				<radialGradient id="SVGID_27_" cx="363.6602" cy="410.3389" r="13.0128" fx="363.405" fy="410.3389" gradientTransform="matrix(1 0 0 -1 2.3398 580.04)" gradientUnits="userSpaceOnUse">
				<stop  offset="0" style="stop-color:#6F5D49"/>
				<stop  offset="1" style="stop-color:#7D6D5B;stop-opacity:0"/>
			</radialGradient>
			<path fill="url(#SVGID_27_)" d="M384.5,173.1c-4,0.9-7.2,1-9.5,0.5c-11.4-1.6-18.7-6-21.9-13.1
				C360,169.4,370.5,173.6,384.5,173.1z"/>
		</g>
		<g>
			<g>
				
					<radialGradient id="SVGID_28_" cx="360.6602" cy="409.2402" r="17.6131" gradientTransform="matrix(1 0 0 -1 2.3398 580.04)" gradientUnits="userSpaceOnUse">
					<stop  offset="0" style="stop-color:#FFFFFF;stop-opacity:0.1373"/>
					<stop  offset="1" style="stop-color:#F9F9F9;stop-opacity:0"/>
				</radialGradient>
				<path fill="url(#SVGID_28_)" d="M377.2,174c0.2,0.2,0.399,0.4,0.6,0.5c-1.2,0.5-2.1,0.3-2.8-0.5c-1.1,0.4-1.8,0.5-2,0.3
					c-0.3-0.3-0.5-0.5-0.7-0.6c-1.2,0.6-2.2,0.3-3-0.8c-1.1,0.3-1.899,0.1-2.399-0.6c-1.4,0.2-2.301-0.2-2.5-1.1
					c-1.301,0.3-2.301-0.2-2.9-1.3c-1.5-0.3-2.4-1-2.8-2c-1.601-0.6-2.4-1.3-2.5-2.2l-0.8-0.8c-1-0.7-1.601-1.8-1.801-3.2
					c-1.6-1.2-2.199-2.7-1.699-4.3c0.5,1.4,1,2.8,1.699,4c0,0.1,0.101,0.2,0.2,0.2c0.601,1.3,1.4,2.5,2.4,3.6
					c0.3,0.3,0.6,0.6,0.8,0.8c0.6,0.6,1.2,1.1,1.8,1.6c0.8,0.7,1.9,1.4,3.2,2.2c0.7,0.4,1.4,0.8,2.3,1.2c0-0.1-0.1-0.1-0.1-0.1
					c1,0.5,2,0.9,3.1,1.1c0.601,0.3,1.4,0.6,2.3,0.8l-0.1,0.1c1.1,0.2,2.2,0.4,3.1,0.6c0.801,0.2,1.7,0.3,2.601,0.4
					c0.5,0.1,1.1,0.1,1.8,0.2L377.2,174z"/>
				
					<radialGradient id="SVGID_29_" cx="369.6348" cy="410.2744" r="21.0854" gradientTransform="matrix(0.9113 -0.4117 -0.2456 -0.5436 160.2174 544.2814)" gradientUnits="userSpaceOnUse">
					<stop  offset="0" style="stop-color:#FFFFFF;stop-opacity:0.3569"/>
					<stop  offset="1" style="stop-color:#F9F9F9;stop-opacity:0"/>
				</radialGradient>
				<path fill="url(#SVGID_29_)" d="M376.7,173.8v-0.1l0.3,0.2L376.7,173.8z M377.2,174v-1.1c0.399,0.1,0.899,0.1,1.5,0.3
					c2.7,0.3,7,0.1,12.8-0.8c11.4-2.5,18.4-7.2,20.9-13.9h0.5c0.1,2-0.5,3.2-1.601,3.8c-0.1,1.8-1.1,3-3.1,3.4
					c-0.3,1.7-1.3,2.5-2.8,2.2c-0.2,1.3-1.2,1.7-2.9,1.4c0.1,1.5-0.8,2-2.6,1.5c-0.4,1.4-1.301,1.8-2.801,1.1
					c-0.3,1.1-1.199,1.3-2.8,0.8c-0.6,1.1-1.5,1.4-2.7,0.8c-0.1,0-0.199,0-0.199-0.1c-0.801,1.5-1.601,1.7-2.601,0.5
					c-1,1.4-1.899,1.5-2.8,0.3c-1,1.2-1.9,1.3-2.8,0.1c-0.101,0-0.101,0.1-0.3,0.2c-0.9,0.6-1.7,0.5-2.5-0.3
					c-1.2,0.6-2.101,0.7-2.801,0.3C377.5,174.4,377.3,174.2,377.2,174z"/>
			</g>
		</g>
		<g>
			
				<radialGradient id="SVGID_30_" cx="496.6992" cy="460.2529" r="3.9391" gradientTransform="matrix(0.2854 0.9584 3.5508 -1.0574 -1382.2866 181.7805)" gradientUnits="userSpaceOnUse">
				<stop  offset="0" style="stop-color:#FFFFFF"/>
				<stop  offset="0.4078" style="stop-color:#FEFEFE;stop-opacity:0.1686"/>
				<stop  offset="0.8" style="stop-color:#FEFEFE;stop-opacity:0"/>
				<stop  offset="1" style="stop-color:#FAFAFA;stop-opacity:0"/>
			</radialGradient>
			<path fill="url(#SVGID_30_)" d="M379.3,175.5c-0.3-1,0.9-2.3,3.4-3.9c2.2-1.4,5.2-2.7,9-3.8c3.6-1.1,6.8-1.7,9.8-1.8
				c2.8,0,4.3,0.5,4.6,1.5c0.301,0.9-0.699,2.2-3,3.8c-2.6,1.6-5.6,3-9.1,4c-3.8,1.1-7,1.6-9.6,1.6
				C381.3,176.9,379.7,176.4,379.3,175.5z"/>
		</g>
	</g>
	<g>
		<g>
			<g>
				<path d="M406.3,220c0.3,0.5,0.601,1,0.9,1.5c0,0.1,0,0.1,0,0.1c0.1,0.1,0.1,0.3,0.1,0.6c0.101,0.1,0.101,0.3,0.101,0.4
					s0,0.2,0,0.2c-0.101,0.3-0.2,0.6-0.301,0.9c-0.1,0.5-0.399,1-0.699,1.4c0,0-0.101,0.1-0.2,0.2c0,0.1-0.101,0.1-0.101,0.1
					c-0.199,0.1-0.3,0.3-0.399,0.4c0,0.1-0.101,0.1-0.101,0.1c-1,0.9-2.199,1.4-3.5,1.4c-1.199,0-2.3-0.4-3.199-1.1
					c-0.2-0.2-0.301-0.3-0.5-0.4c-0.301-0.4-0.601-0.7-0.801-1.1c-0.1-0.2-0.199-0.4-0.199-0.5c0,0,0,0,0-0.1
					c-0.2-0.4-0.301-0.7-0.4-1.1c0-0.1,0-0.3,0-0.4c0-0.2,0-0.3,0-0.5c0.1-0.8,0.4-1.4,0.9-2c0.1-0.2,0.199-0.3,0.3-0.5
					c0.1-0.1,0.2-0.2,0.2-0.3c0.1-0.1,0.199-0.2,0.3-0.3c1-0.8,2.1-1.3,3.399-1.3c1.101,0,2,0.3,2.801,0.9c0.3,0.1,0.5,0.4,0.8,0.6
					c0.1,0.1,0.2,0.2,0.399,0.3C406.2,219.9,406.3,219.9,406.3,220z M399.3,226c0,0,0.101,0,0.2,0l0,0c-0.1,0-0.1,0-0.1-0.1
					L399.3,226z M402.8,221c-0.5,0.1-0.7,0.4-0.6,0.9c0.1,0.8,0.5,1,1.3,0.6C404.7,221.9,404.5,221.4,402.8,221z M398.7,220H398.6
					c0.801,0.5,1,0.4,0.5-0.4C398.8,219.6,398.7,219.8,398.7,220z"/>
			</g>
		</g>
		<g>
			<g>
				<g>
					
						<radialGradient id="SVGID_31_" cx="399.4102" cy="360.0898" r="7.25" gradientTransform="matrix(1 0 0 -1 2.3398 580.04)" gradientUnits="userSpaceOnUse">
						<stop  offset="0" style="stop-color:#8F929B"/>
						<stop  offset="0.6196" style="stop-color:#686779"/>
						<stop  offset="0.8" style="stop-color:#3D3B44"/>
						<stop  offset="0.9922" style="stop-color:#2F291B"/>
					</radialGradient>
					<path fill="url(#SVGID_31_)" d="M406,220.1c0.3,0.4,0.6,0.9,0.8,1.4c0.101,0,0.101,0.1,0.101,0.2c0,0.1,0,0.3,0,0.5
						c0.1,0.1,0.1,0.3,0.1,0.5c0,0,0,0.1,0,0.2c-0.1,0.2-0.1,0.5-0.1,0.8c-0.101,0.5-0.4,0.9-0.7,1.4c-0.101,0-0.101,0.1-0.2,0.2
						c-0.1,0-0.1,0.1-0.3,0.1c0,0.1-0.101,0.2-0.2,0.3c0,0.1-0.1,0.2-0.2,0.3c-0.899,0.8-2,1.3-3.3,1.3c-1.2,0-2.2-0.3-3-1
						c-0.2-0.1-0.4-0.3-0.5-0.5c-0.3-0.3-0.6-0.7-0.9-1c-0.1-0.1-0.1-0.3-0.3-0.4c-0.1-0.3-0.2-0.7-0.3-1.1
						c-0.1-0.1-0.1-0.2-0.1-0.4c0-0.2,0-0.3,0.1-0.4c0.1-0.7,0.3-1.4,0.7-2c0.1-0.2,0.3-0.4,0.5-0.5c0,0,0.1-0.1,0.2-0.2
						c0-0.1,0.1-0.2,0.199-0.2c1-0.8,2.101-1.3,3.301-1.3c1,0,1.899,0.3,2.699,0.8c0.301,0.1,0.5,0.3,0.801,0.6
						c0.1,0.1,0.199,0.2,0.199,0.3C405.9,219.9,406,220,406,220.1z M403.3,222.5c1.101-0.6,0.9-1.1-0.6-1.5
						c-0.5,0.1-0.8,0.4-0.7,0.9C402.2,222.6,402.6,222.8,403.3,222.5z M398.7,220L398.7,220c0.8,0.5,0.899,0.5,0.3-0.3
						C398.9,219.8,398.8,219.8,398.7,220z M399.3,225.7c0,0,0.101,0,0.2,0C399.5,225.7,399.5,225.6,399.3,225.7L399.3,225.7z"/>
					<path fill="#FEFEFF" d="M398.7,220c0.1-0.2,0.2-0.3,0.3-0.3C399.6,220.5,399.5,220.5,398.7,220L398.7,220z M403.3,222.5
						c-0.7,0.3-1.2,0.1-1.3-0.6c-0.1-0.5,0.1-0.8,0.7-0.9C404.3,221.4,404.5,221.9,403.3,222.5z"/>
					<path fill="#2F291B" d="M399.3,225.7L399.3,225.7c0.101-0.1,0.2,0,0.2,0S399.4,225.7,399.3,225.7z"/>
				</g>
			</g>
		</g>
		<g>
			<g>
				<g>
					
						<radialGradient id="SVGID_32_" cx="401.5098" cy="357.9404" r="3.55" gradientTransform="matrix(1 0 0 -1 2.3398 580.04)" gradientUnits="userSpaceOnUse">
						<stop  offset="0" style="stop-color:#AAABA6;stop-opacity:0"/>
						<stop  offset="0.7255" style="stop-color:#AAABA6;stop-opacity:0"/>
						<stop  offset="1" style="stop-color:#AAABA6"/>
					</radialGradient>
					<path fill="url(#SVGID_32_)" d="M405.5,222c0.9,0.3,1.3,0.7,1.3,1.1c0,0.6-0.3,1.2-0.8,1.9c-0.5,0.6-1.1,1.2-2,1.6
						c0.6-0.5,0.8-1.3,0.5-2.4c-0.2-1.2-0.5-1.9-0.8-2.1c-0.4-0.1-0.601-0.2-0.7-0.3l0.1-0.1h0.101c0.1,0,0.2,0,0.3,0
						C404.1,221.8,404.8,221.8,405.5,222z"/>
					
						<radialGradient id="SVGID_33_" cx="399.0098" cy="357.7393" r="6.5141" fx="400.4659" fy="357.7393" gradientTransform="matrix(1 0 0 -1 2.3398 580.04)" gradientUnits="userSpaceOnUse">
						<stop  offset="0" style="stop-color:#010101;stop-opacity:0"/>
						<stop  offset="0" style="stop-color:#040403;stop-opacity:0"/>
						<stop  offset="0.4078" style="stop-color:#13110B;stop-opacity:0"/>
						<stop  offset="0.5961" style="stop-color:#2F291B;stop-opacity:0.298"/>
						<stop  offset="1" style="stop-color:#261A1A"/>
					</radialGradient>
					<path fill="url(#SVGID_33_)" d="M397.3,223c0.9-1.4,2-1.8,3.3-1.2c2.101,1,2.801,2.8,2,5.2C399.9,227.1,398.2,225.8,397.3,223z
						"/>
				</g>
				<g>
					
						<radialGradient id="SVGID_34_" cx="405.71" cy="358.6904" r="1.8125" gradientTransform="matrix(1 0 0.0276 -1 -15.6051 580.04)" gradientUnits="userSpaceOnUse">
						<stop  offset="0" style="stop-color:#FFFFFF"/>
						<stop  offset="0.4078" style="stop-color:#FEFEFE;stop-opacity:0.1569"/>
						<stop  offset="0.8" style="stop-color:#FEFEFE;stop-opacity:0"/>
						<stop  offset="1" style="stop-color:#FAFAFA;stop-opacity:0"/>
					</radialGradient>
					<path fill="url(#SVGID_34_)" d="M398.2,221.5c0-0.5,0.2-0.9,0.5-1.3c0.399-0.3,0.8-0.5,1.3-0.5s0.9,0.2,1.3,0.5
						c0.3,0.4,0.5,0.8,0.5,1.3s-0.2,0.9-0.5,1.3c-0.399,0.3-0.8,0.5-1.3,0.5s-0.9-0.2-1.3-0.5C398.3,222.4,398.2,222,398.2,221.5z"
						/>
				</g>
			</g>
		</g>
		<g>
			<g>
				<g>
					<path fill="#999AA4" d="M406.4,221.8c-0.101,0-0.2,0-0.301-0.1c-2.899-1.5-5.6-1.3-7.899,0.5l-0.4,0.5l-0.1-1.1
						c2.8-2,5.5-2.2,8.3-0.8l0.5,0.9L406.4,221.8z"/>
				</g>
			</g>
		</g>
		<g>
			<g>
				<g>
					<g>
						<path d="M406.4,222c-0.101,0-0.2,0-0.301,0c-2.899-1.5-5.6-1.4-7.899,0.4c0,0.1-0.101,0.2-0.4,0.4l-0.1-1
							c2.8-2,5.5-2.2,8.3-0.8L406.4,222L406.4,222z"/>
					</g>
				</g>
			</g>
		</g>
	</g>
</g>
</svg>
