<?xml version="1.0" encoding="utf-8"?>
<!-- Generator: Adobe Illustrator 16.0.0, SVG Export Plug-In . SVG Version: 6.00 Build 0)  -->
<!DOCTYPE svg PUBLIC "-//W3C//DTD SVG 1.1//EN" "http://www.w3.org/Graphics/SVG/1.1/DTD/svg11.dtd">
<svg version="1.1" id="Layer_3" xmlns="http://www.w3.org/2000/svg" xmlns:xlink="http://www.w3.org/1999/xlink" x="0px" y="0px"
	 width="700px" height="700px" viewBox="0 0 700 700" enable-background="new 0 0 700 700" xml:space="preserve">
<g>
	<g>
		<path fill-rule="evenodd" clip-rule="evenodd" d="M641.4,621.4h-18c0,1.9-1.9,3.1-5.7,3.7H133.8c-3.1-0.1-5.3-1.4-6.6-4.1h-27.1
			c-3-0.5-5.2-1.7-6.8-3.6c-1.7-1.9-2.2-4.2-1.5-6.8l5.9-14.4h549.9l2,17.1c-0.3,2-1.2,3.7-2.8,5.2
			C645.3,619.9,643.5,620.9,641.4,621.4z"/>
	</g>
	<g>
		
			<linearGradient id="SVGID_1_" gradientUnits="userSpaceOnUse" x1="26.812" y1="151.6499" x2="26.812" y2="166.4499" gradientTransform="matrix(1.4223 0 0 1.4223 328.95 401.1498)">
			<stop  offset="0" style="stop-color:#000000;stop-opacity:0.502"/>
			<stop  offset="1" style="stop-color:#000000;stop-opacity:0"/>
		</linearGradient>
		<path fill-rule="evenodd" clip-rule="evenodd" fill="url(#SVGID_1_)" d="M669.3,666H64.8c16.5-30.6,27.3-51.3,32.5-62.2h548.2
			C647.3,611.3,655.2,632.1,669.3,666z"/>
	</g>
	<g>
		
			<linearGradient id="SVGID_2_" gradientUnits="userSpaceOnUse" x1="138.6831" y1="120.4229" x2="154.0994" y2="120.4229" gradientTransform="matrix(1.347 -0.4567 0.5374 1.3196 328.9507 401.15)">
			<stop  offset="0" style="stop-color:#000000;stop-opacity:0.502"/>
			<stop  offset="1" style="stop-color:#000000;stop-opacity:0"/>
		</linearGradient>
		<polygon fill-rule="evenodd" clip-rule="evenodd" fill="url(#SVGID_2_)" points="520.8,385.9 590.6,385.9 676,595.4 606.1,595.4 
					"/>
	</g>
	<g>
		<g>
			
				<linearGradient id="SVGID_3_" gradientUnits="userSpaceOnUse" x1="186.9248" y1="146.999" x2="230.3745" y2="146.999" gradientTransform="matrix(1.4223 0 0 1.4223 328.95 401.1498)">
				<stop  offset="0" style="stop-color:#000000"/>
				<stop  offset="0.698" style="stop-color:#2C2C28"/>
				<stop  offset="0.7843" style="stop-color:#4B4A45"/>
				<stop  offset="0.8196" style="stop-color:#282824"/>
				<stop  offset="0.9882" style="stop-color:#282824"/>
			</linearGradient>
			<path fill-rule="evenodd" clip-rule="evenodd" fill="url(#SVGID_3_)" d="M649.2,600.3v12.8c-0.3,1.4-1.2,2.7-2.6,3.9
				c-2.3,2-5.4,3.1-9.3,3.2c-0.2,0-0.4,0-0.6,0c-0.7,0-1.4,0-2.1-0.1h-47.1v-12.7h31h16.8h3c3.3-0.2,6-1.2,8-2.8
				c0.1-0.1,0.3-0.2,0.4-0.4C648,603,648.9,601.7,649.2,600.3z"/>
			
				<linearGradient id="SVGID_4_" gradientUnits="userSpaceOnUse" x1="178.1626" y1="137.4492" x2="221.7622" y2="137.4492" gradientTransform="matrix(1.4223 0 0 1.4223 328.95 401.1498)">
				<stop  offset="0" style="stop-color:#2D3031"/>
				<stop  offset="9.411765e-002" style="stop-color:#2F3233"/>
				<stop  offset="1" style="stop-color:#798287"/>
			</linearGradient>
			<path fill-rule="evenodd" clip-rule="evenodd" fill="url(#SVGID_4_)" d="M587.4,607.4v-21.5h44.4c3.9,0.1,7.4,1.2,10.7,3.1
				c3.6,2.1,5.8,4.7,6.6,7.8c0.1,0.6,0.2,1.1,0.3,1.7c0,0.6-0.1,1.2-0.2,1.8c-0.3,1.4-1.2,2.7-2.6,3.9c-0.1,0.1-0.3,0.3-0.4,0.4
				c-2,1.7-4.6,2.6-8,2.8h-3h-16.8H587.4z"/>
		</g>
	</g>
	<g>
		
			<linearGradient id="SVGID_5_" gradientUnits="userSpaceOnUse" x1="70.6309" y1="-98.2744" x2="85.8579" y2="-98.2744" gradientTransform="matrix(-1.345 -0.4624 0.5804 -1.3045 328.9513 401.1497)">
			<stop  offset="0" style="stop-color:#000000;stop-opacity:0.502"/>
			<stop  offset="1" style="stop-color:#000000;stop-opacity:0"/>
		</linearGradient>
		<polygon fill-rule="evenodd" clip-rule="evenodd" fill="url(#SVGID_5_)" points="240.9,385.9 147.7,595.4 77.8,595.4 171.1,385.9 
					"/>
	</g>
	<g>
		<g>
			
				<linearGradient id="SVGID_6_" gradientUnits="userSpaceOnUse" x1="119.6626" y1="-137.4492" x2="163.2124" y2="-137.4492" gradientTransform="matrix(-1.4223 0 0 -1.4223 328.9494 401.151)">
				<stop  offset="0" style="stop-color:#2D3031"/>
				<stop  offset="9.411765e-002" style="stop-color:#2F3233"/>
				<stop  offset="1" style="stop-color:#798287"/>
			</linearGradient>
			<path fill-rule="evenodd" clip-rule="evenodd" fill="url(#SVGID_6_)" d="M153.7,607.4h-31h-16.7h-3.1c-3.3-0.2-5.9-1.2-8-2.8
				c-0.1-0.1-0.3-0.2-0.4-0.4c-1.4-1.2-2.3-2.5-2.7-3.9c-0.1-0.6-0.1-1.2-0.1-1.8c0-0.6,0.1-1.1,0.3-1.7c0.8-3,3-5.6,6.5-7.8
				c3.2-1.9,6.8-3,10.7-3.1h44.4V607.4z"/>
			
				<linearGradient id="SVGID_7_" gradientUnits="userSpaceOnUse" x1="128.375" y1="-146.999" x2="171.8247" y2="-146.999" gradientTransform="matrix(-1.4223 0 0 -1.4223 328.9494 401.151)">
				<stop  offset="0" style="stop-color:#000000"/>
				<stop  offset="0.698" style="stop-color:#2C2C28"/>
				<stop  offset="0.7843" style="stop-color:#4B4A45"/>
				<stop  offset="0.8196" style="stop-color:#282824"/>
				<stop  offset="0.9882" style="stop-color:#282824"/>
			</linearGradient>
			<path fill-rule="evenodd" clip-rule="evenodd" fill="url(#SVGID_7_)" d="M153.7,607.4v12.7h-47.1c-0.7,0-1.4,0.1-2.2,0.1
				c-0.2,0-0.4,0-0.5,0c-4-0.1-7.1-1.2-9.3-3.2c-1.4-1.2-2.3-2.5-2.7-3.9v-12.8c0.4,1.4,1.3,2.7,2.7,3.9c0.1,0.1,0.2,0.3,0.4,0.4
				c2,1.7,4.7,2.6,8,2.8h3.1h16.7H153.7z"/>
		</g>
	</g>
	<g>
		
			<radialGradient id="SVGID_8_" cx="219.6001" cy="140.6499" r="2.6558" gradientTransform="matrix(0.5473 1.3127 -2.9306 1.2219 933.2744 141.0548)" gradientUnits="userSpaceOnUse">
			<stop  offset="0" style="stop-color:#FFFFFF"/>
			<stop  offset="0.4078" style="stop-color:#FEFEFE;stop-opacity:0.1686"/>
			<stop  offset="0.8" style="stop-color:#FEFEFE;stop-opacity:0"/>
			<stop  offset="1" style="stop-color:#FAFAFA;stop-opacity:0"/>
		</radialGradient>
		<path fill-rule="evenodd" clip-rule="evenodd" fill="url(#SVGID_8_)" d="M648.2,598.3c0.4,0.9,0,2-1.2,3.3
			c-1.2,1.4-2.8,2.5-4.8,3.3c-2.1,0.9-4,1.2-5.6,1c-1.8,0-3-0.5-3.3-1.4c-0.4-0.9,0.1-2,1.4-3.4c1-1.2,2.6-2.3,4.7-3.1
			c2-0.8,3.9-1.2,5.7-1.2C646.7,596.9,647.8,597.4,648.2,598.3z"/>
	</g>
	<g>
		
			<radialGradient id="SVGID_9_" cx="207.5498" cy="143.1499" r="4.2001" gradientTransform="matrix(7.372530e-003 1.4223 -3.835 1.987934e-002 1171.588 306.7139)" gradientUnits="userSpaceOnUse">
			<stop  offset="0" style="stop-color:#FFFFFF"/>
			<stop  offset="0.4078" style="stop-color:#FEFEFE;stop-opacity:0.1686"/>
			<stop  offset="0.8" style="stop-color:#FEFEFE;stop-opacity:0"/>
			<stop  offset="1" style="stop-color:#FAFAFA;stop-opacity:0"/>
		</radialGradient>
		<path fill-rule="evenodd" clip-rule="evenodd" fill="url(#SVGID_9_)" d="M638.4,604.7c0,1.6-1.5,3-4.5,4.2
			c-3.2,1.3-6.8,1.9-11,1.9c-4.3,0-7.9-0.6-10.7-1.8c-3.2-1.2-4.8-2.6-4.8-4.2s1.6-3,4.8-4.2c2.8-1.1,6.4-1.6,10.7-1.6
			c4.1,0,7.8,0.5,11,1.5C636.9,601.7,638.4,603.1,638.4,604.7z"/>
	</g>
	<g>
		
			<radialGradient id="SVGID_10_" cx="211.5498" cy="136.9502" r="15.475" gradientTransform="matrix(1.4223 0 0 0.4768 328.95 530.6363)" gradientUnits="userSpaceOnUse">
			<stop  offset="0" style="stop-color:#000000"/>
			<stop  offset="0.4863" style="stop-color:#000000"/>
			<stop  offset="1" style="stop-color:#000000;stop-opacity:0"/>
		</radialGradient>
		<path fill-rule="evenodd" clip-rule="evenodd" fill="url(#SVGID_10_)" d="M640.7,601c-4,1.7-8.7,2.7-14.3,2.8h-0.5
			c-0.4,0-0.7,0-1.1,0c-6.3,0-11.6-0.9-15.9-2.8c-4.4-1.8-6.6-4-6.6-6.6s2.2-4.8,6.6-6.6c4.4-1.8,9.7-2.7,15.9-2.7
			c0.1,0,0.3,0,0.5,0h1.1c5.5,0.1,10.3,1,14.3,2.7c4.4,1.8,6.6,4,6.6,6.6S645.1,599.2,640.7,601z"/>
	</g>
	<g>
		
			<radialGradient id="SVGID_11_" cx="-145.25" cy="136.9502" r="15.475" gradientTransform="matrix(1.4223 0 0 0.4768 328.95 530.6363)" gradientUnits="userSpaceOnUse">
			<stop  offset="0" style="stop-color:#000000"/>
			<stop  offset="0.4863" style="stop-color:#000000"/>
			<stop  offset="1" style="stop-color:#000000;stop-opacity:0"/>
		</radialGradient>
		<path fill-rule="evenodd" clip-rule="evenodd" fill="url(#SVGID_11_)" d="M119,585.1c5.5,0.1,10.3,1,14.3,2.7
			c4.4,1.8,6.6,4,6.6,6.6s-2.2,4.8-6.6,6.6c-4,1.7-8.7,2.7-14.3,2.8h-0.5c-0.4,0-0.7,0-1.1,0c-6.3,0-11.6-0.9-15.9-2.8
			c-4.4-1.8-6.6-4-6.6-6.6s2.2-4.8,6.6-6.6c4.4-1.8,9.7-2.7,15.9-2.7c0.1,0,0.3,0,0.5,0H119z"/>
	</g>
	<g>
		<g>
			<g>
				
					<linearGradient id="SVGID_12_" gradientUnits="userSpaceOnUse" x1="235.645" y1="78.6006" x2="266.3638" y2="78.6006" gradientTransform="matrix(1.3913 0.2952 -0.6038 1.3258 328.9503 401.1503)">
					<stop  offset="0" style="stop-color:#DCE5F6"/>
					<stop  offset="1" style="stop-color:#C5D0E6"/>
				</linearGradient>
				<path fill-rule="evenodd" clip-rule="evenodd" fill="url(#SVGID_12_)" d="M653.1,583.3c0,0.1,0,0.2-0.1,0.4
					c0,0.1-0.1,0.2-0.1,0.4c0,0,0,0.1,0,0.1v0.1h-0.1c0,0,0,0.1,0,0.2c-0.5,2-1.8,3.9-3.8,5.5c-2.6,2.1-5.9,3.5-9.7,4.1
					c-1.4,0.2-2.8,0.4-4.3,0.4c-5.9,0-11.3-1.5-16.1-4.4c-4.9-2.9-7.8-6.4-8.7-10.5c-0.1-0.7-0.2-1.3-0.3-1.9c0-0.4,0-0.9,0-1.3
					c0-0.3,0.1-0.6,0.1-0.9c0.4-2.4,1.7-4.5,4-6.3c3.5-2.9,8.2-4.3,14.1-4.3c5.9,0,11.3,1.4,16.1,4.3c4.1,2.5,6.8,5.3,8.1,8.6
					c0.2,0.6,0.4,1.2,0.6,1.8c0.1,0.6,0.2,1.1,0.3,1.6c0,0.1,0,0.2,0,0.3c0,0.3,0.1,0.7,0.1,1c0,0.1-0.1,0.2-0.1,0.3v0.1
					C653.1,583,653.1,583.1,653.1,583.3L653.1,583.3z"/>
				
					<linearGradient id="SVGID_13_" gradientUnits="userSpaceOnUse" x1="197.4502" y1="131.4995" x2="227.8999" y2="131.4995" gradientTransform="matrix(1.4223 0 0 1.4223 328.95 401.1498)">
					<stop  offset="0" style="stop-color:#000000"/>
					<stop  offset="0.2353" style="stop-color:#000000"/>
					<stop  offset="0.4275" style="stop-color:#000000"/>
					<stop  offset="0.502" style="stop-color:#373737"/>
					<stop  offset="0.5804" style="stop-color:#000000"/>
					<stop  offset="0.7216" style="stop-color:#605142"/>
					<stop  offset="0.8353" style="stop-color:#000000"/>
					<stop  offset="1" style="stop-color:#000000"/>
				</linearGradient>
				<path fill-rule="evenodd" clip-rule="evenodd" fill="url(#SVGID_13_)" d="M609.8,577.7c0,0.6,0.1,1.3,0.3,1.9
					c0.9,4.1,3.9,7.6,8.7,10.5c4.8,2.9,10.2,4.4,16.1,4.4c1.5,0,3-0.1,4.3-0.4c3.9-0.6,7.1-1.9,9.7-4.1c2-1.7,3.3-3.5,3.8-5.5
					c0-0.1,0-0.2,0-0.2h0.1v-0.1c0,0,0-0.1,0-0.1c0-0.1,0-0.3,0.1-0.4c0-0.1,0.1-0.3,0.1-0.4v0.2c0,0.4-0.1,1.2-0.2,2.3h0.1
					c0,0,0-0.1,0-0.1s0-0.1,0-0.1c0-0.1,0-0.2,0.1-0.4c0-0.1,0.1-0.2,0.1-0.3v0.1c0,0.4-0.1,1.4-0.3,3c-0.6,1.8-1.6,3.4-3.2,5
					c-3.1,2.9-6.5,4.7-10.3,5.3c-1.4,0.2-2.9,0.4-4.6,0.4c-5.9,0-11.3-1.5-16.1-4.4c-4.8-2.9-7.8-6.4-8.7-10.5c0-0.1,0-0.3-0.1-0.4
					V577.7z"/>
			</g>
		</g>
		<g>
			<g>
				
					<linearGradient id="SVGID_14_" gradientUnits="userSpaceOnUse" x1="107.2046" y1="-217.2422" x2="117.8871" y2="-217.2422" gradientTransform="matrix(-5.325618e-002 1.4213 -1.4223 -2.554357e-002 328.9493 401.1497)">
					<stop  offset="0" style="stop-color:#FFFFFF"/>
					<stop  offset="1" style="stop-color:#FCFDFE;stop-opacity:0"/>
				</linearGradient>
				<path fill-rule="evenodd" clip-rule="evenodd" fill="url(#SVGID_14_)" d="M628,564.8c5.9,0,11.3,1.4,16.1,4.3
					c4.1,2.5,6.8,5.3,8.1,8.6c0.2,0.6,0.4,1.2,0.6,1.8c0.1,0.6,0.2,1.1,0.3,1.6c0,0.1,0,0.2,0,0.2v0.1c0,0.2,0.1,0.5,0.1,0.8
					c0,0.2-0.1,0.4-0.1,0.5H653c0-0.3-0.1-0.6-0.2-0.9c-0.1-0.6-0.3-1.2-0.6-1.8c-1.3-3.3-4-6.2-8.1-8.6c-4.9-2.9-10.3-4.3-16.1-4.3
					c-2.3,0-4.5,0.2-6.4,0.7c-3,0.7-5.6,1.9-7.7,3.6c-2.2,1.8-3.5,3.9-3.9,6.3c-0.1-0.4-0.2-0.9-0.2-1.3c0-0.3,0.1-0.6,0.1-0.9
					c0.4-2.4,1.7-4.5,4-6.3c2.1-1.8,4.6-3,7.7-3.6C623.5,565,625.7,564.8,628,564.8z"/>
				
					<radialGradient id="SVGID_15_" cx="213.7998" cy="134.2998" r="12.8" gradientTransform="matrix(1.4223 0 0 0.9736 328.95 461.4003)" gradientUnits="userSpaceOnUse">
					<stop  offset="0" style="stop-color:#8D8FF3"/>
					<stop  offset="1" style="stop-color:#999BF3;stop-opacity:0"/>
				</radialGradient>
				<path fill-rule="evenodd" clip-rule="evenodd" fill="url(#SVGID_15_)" d="M609.8,578.2c0,0.5,0.1,0.9,0.2,1.4
					c0.9,4.1,3.9,7.6,8.7,10.5c0.9,0.6,1.8,1.1,2.8,1.5c4.1,1.9,8.5,2.9,13.4,2.9c1.5,0,3-0.1,4.3-0.4c3.9-0.6,7.1-1.9,9.7-4.1
					c2.1-1.7,3.4-3.7,3.9-5.8c0,0,0,0.1,0.1,0.2v0.4c-0.5,2.2-1.8,4.1-4,5.9c-2.6,2.1-5.9,3.5-9.7,4.1c-1.4,0.2-2.8,0.3-4.3,0.3
					c-4.8,0-9.3-1-13.4-2.9c-0.9-0.4-1.9-0.9-2.8-1.4c-4.9-2.9-7.8-6.4-8.7-10.5c-0.1-0.5-0.2-0.9-0.3-1.4c0-0.1,0-0.2,0-0.3
					C609.8,578.5,609.8,578.4,609.8,578.2z"/>
				
					<linearGradient id="SVGID_16_" gradientUnits="userSpaceOnUse" x1="-80.6074" y1="247.4375" x2="-68.4648" y2="247.4375" gradientTransform="matrix(0.6905 -1.2434 1.4213 0.3701 328.9506 401.1497)">
					<stop  offset="0" style="stop-color:#FFFFFF"/>
					<stop  offset="1" style="stop-color:#FCFDFE;stop-opacity:0"/>
				</linearGradient>
				<path fill-rule="evenodd" clip-rule="evenodd" fill="url(#SVGID_16_)" d="M652.9,584.2c-0.5,2.2-1.8,4.1-3.9,5.8
					c-2.6,2.1-5.9,3.5-9.7,4.1c-1.4,0.2-2.8,0.4-4.3,0.4c-4.8,0-9.3-1-13.4-2.9c-0.9-0.4-1.9-0.9-2.8-1.5c-4.9-2.9-7.8-6.4-8.7-10.5
					c-0.1-0.4-0.2-0.9-0.2-1.4c0-0.1,0-0.3,0.1-0.5h0.1c0,0.1,0,0.3,0.1,0.5c0.9,4.1,3.9,7.6,8.7,10.5c0.9,0.5,1.8,1,2.8,1.5
					c4.1,1.9,8.5,2.8,13.4,2.8c1.5,0,3-0.1,4.3-0.3c3.9-0.6,7.1-1.9,9.7-4.1c2-1.7,3.4-3.6,4.1-5.7c0,0,0,0.1,0,0.2
					c0,0.1,0,0.3-0.1,0.5C653,583.8,652.9,584,652.9,584.2z"/>
			</g>
		</g>
		<g>
			
				<linearGradient id="SVGID_17_" gradientUnits="userSpaceOnUse" x1="201.1792" y1="-59.6504" x2="225.1864" y2="-59.6504" gradientTransform="matrix(0.9968 1.0145 -1.3729 0.6321 328.95 401.1505)">
				<stop  offset="0" style="stop-color:#FFFFFF;stop-opacity:0.6431"/>
				<stop  offset="1" style="stop-color:#F2F2F2;stop-opacity:0"/>
			</linearGradient>
			<path fill-rule="evenodd" clip-rule="evenodd" fill="url(#SVGID_17_)" d="M639.3,592.7c-1.4,0.2-2.8,0.3-4.3,0.3
				c-5.9,0-11.3-1.4-16.1-4.3c-2.5-1.5-4.4-3.1-5.8-4.8c3.3-2.2,7.5-3.3,12.7-3.3c5.9,0,11.3,1.4,16.1,4.3c2.5,1.5,4.4,3.1,5.8,4.8
				C645.3,591.3,642.5,592.3,639.3,592.7z"/>
		</g>
	</g>
	<g>
		
			<radialGradient id="SVGID_18_" cx="-133.3501" cy="125.1001" r="27.35" gradientTransform="matrix(1.4223 0 0 0.9334 328.95 462.3018)" gradientUnits="userSpaceOnUse">
			<stop  offset="0" style="stop-color:#000000;stop-opacity:2.745098e-002"/>
			<stop  offset="0.6157" style="stop-color:#000000;stop-opacity:6.274509e-002"/>
			<stop  offset="1" style="stop-color:#000000;stop-opacity:0.498"/>
		</radialGradient>
		<path fill-rule="evenodd" clip-rule="evenodd" fill="url(#SVGID_18_)" d="M140.5,575.7c0,0.4,0,0.8,0,1.2c0,0.6-0.1,1.2-0.3,1.8
			c-1,3.9-3.9,7.3-8.7,10c-4.8,2.8-10.2,4.2-16.1,4.2c-1.5,0-3-0.1-4.4-0.3c-3.9-0.6-7.1-1.9-9.7-3.9c-1.4-1.1-2.5-2.3-3.2-3.6
			c-0.3-0.6-0.5-1.1-0.6-1.7c0-0.1,0-0.2,0-0.2h-0.1v-0.1c0,0,0-0.1-0.1-0.1c0-0.1,0-0.3,0-0.4c0-0.1-0.1-0.3-0.1-0.4
			c0-0.1-0.1-0.3-0.1-0.4v-0.1c0-0.1,0-0.2,0-0.3c0-0.3,0-0.6,0-0.9c0-0.1,0-0.2,0-0.3c0.1-0.5,0.2-1,0.3-1.6
			c0.2-0.6,0.4-1.2,0.6-1.8c1.3-3.2,4.1-5.9,8.2-8.2c4.9-2.8,10.3-4.1,16.1-4.1c5.9,0,10.6,1.4,14.1,4.1c2.3,1.8,3.6,3.8,4,6
			C140.4,575,140.5,575.3,140.5,575.7z"/>
		<g>
			<g>
				
					<linearGradient id="SVGID_19_" gradientUnits="userSpaceOnUse" x1="176.7778" y1="-92.9844" x2="207.4407" y2="-92.9844" gradientTransform="matrix(-1.3938 0.2829 -0.6279 -1.3238 328.9503 401.1495)">
					<stop  offset="0" style="stop-color:#DCE5F6"/>
					<stop  offset="1" style="stop-color:#C5D0E6"/>
				</linearGradient>
				<path fill-rule="evenodd" clip-rule="evenodd" fill="url(#SVGID_19_)" d="M140.5,576.9c0,0.6-0.1,1.2-0.3,1.8
					c-1,3.9-3.9,7.3-8.7,10c-4.8,2.8-10.2,4.2-16.1,4.2c-1.5,0-3-0.1-4.4-0.3c-3.9-0.6-7.1-1.9-9.7-3.9c-1.4-1.1-2.5-2.3-3.2-3.6
					c-0.3-0.6-0.5-1.1-0.6-1.7c0-0.1,0-0.2,0-0.2h-0.1v-0.1c0,0,0-0.1-0.1-0.1c0-0.1,0-0.3,0-0.4c0-0.1-0.1-0.3-0.1-0.4
					c0-0.1-0.1-0.3-0.1-0.4v-0.1c0-0.1,0-0.2,0-0.3c0-0.3,0-0.6,0-0.9c0-0.1,0-0.2,0-0.3c0.1-0.5,0.2-1,0.3-1.6
					c0.2-0.6,0.4-1.2,0.6-1.8c1.3-3.2,4.1-5.9,8.2-8.2c4.9-2.8,10.3-4.1,16.1-4.1c5.9,0,10.6,1.4,14.1,4.1c2.3,1.8,3.6,3.8,4,6
					c0,0.3,0.1,0.6,0.1,0.9C140.5,576,140.5,576.4,140.5,576.9z"/>
				
					<linearGradient id="SVGID_20_" gradientUnits="userSpaceOnUse" x1="-187.123" y1="118.2412" x2="-157.0787" y2="118.2412" gradientTransform="matrix(1.4166 -0.1266 0.2887 1.4021 328.9501 401.1508)">
					<stop  offset="0" style="stop-color:#000000"/>
					<stop  offset="0.2353" style="stop-color:#000000"/>
					<stop  offset="0.4275" style="stop-color:#000000"/>
					<stop  offset="0.502" style="stop-color:#373737"/>
					<stop  offset="0.5804" style="stop-color:#000000"/>
					<stop  offset="0.7216" style="stop-color:#605142"/>
					<stop  offset="0.8353" style="stop-color:#000000"/>
					<stop  offset="1" style="stop-color:#000000"/>
				</linearGradient>
				<path fill-rule="evenodd" clip-rule="evenodd" fill="url(#SVGID_20_)" d="M97.5,585.3l0.6-0.1c0.7,1.3,1.8,2.5,3.2,3.6
					c2.6,2,5.8,3.3,9.7,3.9c1.4,0.2,2.9,0.3,4.4,0.3c5.9,0,11.3-1.4,16.1-4.2c4.8-2.7,7.8-6.1,8.7-10h0.3v3.7c0,0.1-0.1,0.3-0.1,0.4
					c-0.9,3.9-3.8,7.3-8.7,10c-4.8,2.8-10.2,4.2-16.1,4.2c-1.6,0-3.2-0.1-4.6-0.4c-3.8-0.5-7.2-2.2-10.2-5c-1.4-1.3-2.4-2.8-3-4.3
					L97.5,585.3z"/>
				<path fill-rule="evenodd" clip-rule="evenodd" d="M97.2,582.3c0,0.1,0,0.2,0.1,0.4c0,0.1,0,0.2,0,0.4c0,0,0.1,0.1,0.1,0.1v0.1
					h0.1c0,0,0,0.1,0,0.2c0.1,0.6,0.4,1.1,0.6,1.7l-0.6,0.1c-0.2-1.4-0.3-2.3-0.4-2.8C97.2,582.4,97.2,582.3,97.2,582.3z
					 M140.5,576.9v1.8h-0.3C140.4,578.1,140.5,577.5,140.5,576.9z"/>
			</g>
		</g>
		<g>
			<g>
				
					<linearGradient id="SVGID_21_" gradientUnits="userSpaceOnUse" x1="-99.1367" y1="-190.9775" x2="-87.3533" y2="-190.9775" gradientTransform="matrix(-0.7121 -1.2311 1.4361 -0.3578 328.9506 401.1497)">
					<stop  offset="0" style="stop-color:#FFFFFF"/>
					<stop  offset="1" style="stop-color:#FCFDFE;stop-opacity:0"/>
				</linearGradient>
				<path fill-rule="evenodd" clip-rule="evenodd" fill="url(#SVGID_21_)" d="M140.4,577.4c0,0.4-0.1,0.9-0.2,1.3
					c-1,3.9-3.9,7.3-8.7,10c-0.9,0.5-1.8,1-2.8,1.4c-4.1,1.8-8.5,2.8-13.4,2.8c-1.5,0-3-0.1-4.4-0.3c-3.9-0.6-7.1-1.9-9.7-3.9
					c-2.1-1.7-3.4-3.5-3.9-5.6c0-0.2-0.1-0.4-0.1-0.5c0-0.1-0.1-0.3-0.1-0.4c0-0.1,0.1-0.2,0.1-0.2c0.6,2,2,3.8,4.1,5.4
					c2.6,2,5.8,3.3,9.7,3.9c1.4,0.2,2.9,0.3,4.4,0.3c4.8,0,9.3-0.9,13.4-2.8c0.9-0.4,1.9-0.9,2.8-1.4c4.8-2.8,7.8-6.1,8.7-10
					c0-0.1,0-0.3,0.1-0.4h0.1C140.4,577.1,140.4,577.3,140.4,577.4z"/>
				
					<linearGradient id="SVGID_22_" gradientUnits="userSpaceOnUse" x1="108.4619" y1="152.5059" x2="118.7197" y2="152.5059" gradientTransform="matrix(5.546108e-002 1.4212 -1.4224 2.438404e-002 328.9508 401.1499)">
					<stop  offset="0" style="stop-color:#FFFFFF"/>
					<stop  offset="1" style="stop-color:#FCFDFE;stop-opacity:0"/>
				</linearGradient>
				<path fill-rule="evenodd" clip-rule="evenodd" fill="url(#SVGID_22_)" d="M140.4,574.7c0,0.3,0.1,0.6,0.1,0.9
					c0,0.4-0.1,0.8-0.2,1.1c-0.4-2.2-1.7-4.2-3.9-6c-2.1-1.7-4.7-2.8-7.7-3.5c-1.9-0.4-4.1-0.6-6.4-0.6c-5.9,0-11.3,1.4-16.1,4.1
					c-4.1,2.4-6.9,5.1-8.2,8.3c-0.2,0.6-0.4,1.1-0.6,1.7c0,0.3-0.1,0.6-0.1,0.9h-0.1c0-0.1,0-0.3,0-0.5c0-0.2,0-0.5,0-0.7v-0.1
					c0-0.1,0-0.2,0-0.2c0.1-0.5,0.2-1,0.3-1.6c0.2-0.6,0.4-1.2,0.6-1.8c1.3-3.2,4.1-5.9,8.2-8.2c4.9-2.8,10.3-4.1,16.1-4.1
					c2.3,0,4.5,0.2,6.4,0.6c3,0.7,5.5,1.8,7.7,3.5C138.7,570.4,140,572.5,140.4,574.7z"/>
				
					<radialGradient id="SVGID_23_" cx="148.8501" cy="-133.2998" r="12.8" gradientTransform="matrix(-1.4223 0 0 0.9334 328.9494 715.157)" gradientUnits="userSpaceOnUse">
					<stop  offset="0" style="stop-color:#8D8FF3"/>
					<stop  offset="1" style="stop-color:#999BF3;stop-opacity:0"/>
				</radialGradient>
				<path fill-rule="evenodd" clip-rule="evenodd" fill="url(#SVGID_23_)" d="M140.4,577.4c0,0.1,0.1,0.3,0.1,0.4s0,0.2,0,0.3
					c-0.1,0.4-0.2,0.9-0.3,1.3c-1,3.9-3.9,7.3-8.7,10c-0.9,0.5-1.8,1-2.8,1.4c-4.1,1.8-8.5,2.8-13.4,2.8c-1.5,0-3-0.1-4.4-0.3
					c-3.9-0.6-7.1-1.9-9.7-3.9c-2.1-1.7-3.5-3.5-4-5.6v-0.4c0-0.1,0-0.2,0.1-0.2c0.5,2.1,1.8,4,3.9,5.6c2.6,2,5.8,3.3,9.7,3.9
					c1.4,0.2,2.9,0.3,4.4,0.3c4.8,0,9.3-0.9,13.4-2.8c0.9-0.4,1.9-0.9,2.8-1.4c4.8-2.7,7.8-6.1,8.7-10
					C140.3,578.3,140.4,577.9,140.4,577.4z"/>
			</g>
		</g>
		<g>
			
				<linearGradient id="SVGID_24_" gradientUnits="userSpaceOnUse" x1="173.1899" y1="9.8218" x2="196.7029" y2="9.8218" gradientTransform="matrix(-1.0177 0.9935 -1.4029 -0.6181 328.9512 401.1505)">
				<stop  offset="0" style="stop-color:#FFFFFF;stop-opacity:0.6431"/>
				<stop  offset="1" style="stop-color:#F2F2F2;stop-opacity:0"/>
			</linearGradient>
			<path fill-rule="evenodd" clip-rule="evenodd" fill="url(#SVGID_24_)" d="M115.3,591.6c-1.5,0-3-0.1-4.4-0.3
				c-3.2-0.4-6-1.4-8.2-2.8c1.4-1.7,3.4-3.2,5.8-4.6c4.8-2.8,10.2-4.1,16.1-4.1c5.2,0,9.4,1,12.7,3.1c-1.5,1.7-3.4,3.2-5.8,4.6
				C126.6,590.2,121.3,591.6,115.3,591.6z"/>
		</g>
	</g>
	<g>
		<g>
			<g>
				
					<linearGradient id="SVGID_25_" gradientUnits="userSpaceOnUse" x1="227.3789" y1="63.2944" x2="226.8091" y2="95.395" gradientTransform="matrix(1.4223 0 0 1.4223 328.95 401.1498)">
					<stop  offset="0" style="stop-color:#737173"/>
					<stop  offset="9.803922e-002" style="stop-color:#FDFDFD"/>
					<stop  offset="0.2863" style="stop-color:#AFB3CE"/>
					<stop  offset="0.549" style="stop-color:#A1A5C0"/>
					<stop  offset="0.7216" style="stop-color:#F8FBFF"/>
					<stop  offset="0.8353" style="stop-color:#818082"/>
					<stop  offset="1" style="stop-color:#1F1D1E"/>
				</linearGradient>
				<path fill-rule="evenodd" clip-rule="evenodd" fill="url(#SVGID_25_)" d="M648.4,537.1c1.4-0.1,2.3-2.4,2.7-7
					c0.2-3.1,0.2-6.6-0.1-10.7v-0.1c-0.2-1.8-0.4-3.7-0.7-5.7c-0.2-1.8-0.5-3.4-0.9-5v-0.1c-0.8-4.2-1.8-7.9-3.1-11.2
					c-1.3-3.4-2.5-5.5-3.6-6.3V491l9.2-0.3c0.3,0,0.6,0.1,0.9,0.3c1.2,0.8,2.4,2.9,3.7,6.3c1.7,4.5,3,9.9,3.9,16.3
					c0.9,6.4,1.2,11.9,0.8,16.5c-0.3,4.2-1.1,6.5-2.2,7H648.4z"/>
				<path fill-rule="evenodd" clip-rule="evenodd" fill="#171715" d="M642.7,491.1c1.1,0.8,2.3,2.8,3.6,6.3
					c1.2,3.2,2.3,6.9,3.1,11.2v0.1c0.3,1.6,0.6,3.3,0.9,5c0.3,2,0.5,3.9,0.7,5.7v0.1c0.3,4,0.4,7.6,0.1,10.7c-0.4,4.6-1.3,6.9-2.7,7
					h-0.1c-0.2,0-0.5,0-0.6-0.1c-1.2-0.6-2.5-2.8-3.9-6.5c-0.3-1-0.7-2-1-3.1c-1.2-3.8-2.1-8.2-2.8-13.2c-0.8-5.2-1.1-9.7-1-13.7
					c0-0.9,0-1.8,0.1-2.7c0.3-3.8,0.9-6,1.9-6.8h1.6L642.7,491.1z"/>
			</g>
		</g>
		<g>
			
				<linearGradient id="SVGID_26_" gradientUnits="userSpaceOnUse" x1="227.4219" y1="60.626" x2="226.8207" y2="94.9764" gradientTransform="matrix(1.4223 0 0 1.4223 328.95 401.1498)">
				<stop  offset="0" style="stop-color:#363535"/>
				<stop  offset="0.1765" style="stop-color:#FFFFFF"/>
				<stop  offset="0.1961" style="stop-color:#FDFDFD;stop-opacity:0.9725"/>
				<stop  offset="0.302" style="stop-color:#BEBEBE;stop-opacity:0.298"/>
				<stop  offset="0.5412" style="stop-color:#D1D0D0;stop-opacity:0"/>
				<stop  offset="0.5882" style="stop-color:#5C5B5B;stop-opacity:0"/>
				<stop  offset="1" style="stop-color:#1F1D1E"/>
			</linearGradient>
			<path fill-rule="evenodd" clip-rule="evenodd" fill="url(#SVGID_26_)" d="M652.8,491c1.2,0.8,2.4,2.9,3.7,6.3
				c1.7,4.5,3,9.9,3.9,16.3c0.9,6.4,1.2,11.9,0.8,16.5c-0.3,4.2-1.1,6.5-2.2,7h-10.6c1.4-0.1,2.3-2.4,2.7-7
				c0.2-3.1,0.2-6.6-0.1-10.7v-0.1c-0.2-1.8-0.4-3.7-0.7-5.7c-0.2-1.8-0.5-3.4-0.9-5v-0.1c-0.8-4.2-1.8-7.9-3.1-11.2
				c-1.3-3.4-2.5-5.5-3.6-6.3V491l9.2-0.3C652.2,490.8,652.5,490.8,652.8,491z"/>
		</g>
		<g>
			<g>
				
					<linearGradient id="SVGID_27_" gradientUnits="userSpaceOnUse" x1="206.7607" y1="76.0151" x2="206.7237" y2="83.9652" gradientTransform="matrix(1.4223 0 0 1.4223 328.95 401.1498)">
					<stop  offset="0" style="stop-color:#282428"/>
					<stop  offset="0.2431" style="stop-color:#6C6865"/>
					<stop  offset="0.3647" style="stop-color:#A3A7A3"/>
					<stop  offset="0.4275" style="stop-color:#8B8B88"/>
					<stop  offset="0.7294" style="stop-color:#1E1C1D"/>
					<stop  offset="0.8471" style="stop-color:#1A1A1A"/>
					<stop  offset="0.9882" style="stop-color:#161616"/>
				</linearGradient>
				<path fill-rule="evenodd" clip-rule="evenodd" fill="url(#SVGID_27_)" d="M637.8,509h2.3c0.2,0.8,0.4,1.7,0.6,2.6
					c0.1,0.7,0.3,1.4,0.4,2.1c0.1,0.9,0.2,1.7,0.3,2.4v0.1c0.1,1.7,0.2,3.2,0.1,4.5v0.1h-1.6h-34.1v-0.1c0.1-1.4,0.1-2.9,0-4.5v-0.1
					l-1.3-7.1H637.8z"/>
				<path fill-rule="evenodd" clip-rule="evenodd" fill="#161415" d="M639.9,520.8h1.6v-0.1c0.1-1.3,0.1-2.8-0.1-4.5v-0.1
					c0-0.7-0.1-1.5-0.3-2.4c-0.1-0.7-0.3-1.4-0.4-2.1c-0.1-0.9-0.3-1.8-0.6-2.6h-2.3c0-0.3,0-0.5,0-0.8c0-0.4,0-0.8,0.1-1.1
					c0.1-1.2,0.3-2,0.5-2.4c0.1-0.2,0.2-0.3,0.3-0.4h0.7c0.5,0.3,1,1.2,1.6,2.6c0.3,0.7,0.5,1.5,0.7,2.3c0.2,0.8,0.4,1.6,0.6,2.4
					c0.1,0.7,0.2,1.4,0.4,2.1c0.1,0.9,0.2,1.7,0.3,2.4v0.1c0.1,0.8,0.1,1.5,0.1,2.3c0,0.8,0,1.5-0.1,2.2c-0.1,1.7-0.4,2.6-0.9,2.9
					h-0.6c-0.2-0.1-0.4-0.2-0.5-0.4C640.6,522.7,640.2,521.9,639.9,520.8L639.9,520.8z"/>
				
					<linearGradient id="SVGID_28_" gradientUnits="userSpaceOnUse" x1="220.8896" y1="72.9741" x2="220.8489" y2="85.8242" gradientTransform="matrix(1.4223 0 0 1.4223 328.95 401.1498)">
					<stop  offset="0" style="stop-color:#161719"/>
					<stop  offset="0.1294" style="stop-color:#262726"/>
					<stop  offset="0.2667" style="stop-color:#6A6B63"/>
					<stop  offset="0.5373" style="stop-color:#232321"/>
					<stop  offset="0.9882" style="stop-color:#1C1C1C"/>
				</linearGradient>
				<path fill-rule="evenodd" clip-rule="evenodd" fill="url(#SVGID_28_)" d="M642.1,523.6c0.4-0.3,0.7-1.3,0.9-2.9
					c0-0.7,0.1-1.4,0.1-2.2c0-0.8,0-1.5-0.1-2.3v-0.1c0-0.7-0.1-1.5-0.3-2.4c-0.1-0.7-0.3-1.4-0.4-2.1c-0.2-0.8-0.4-1.6-0.6-2.4
					c-0.2-0.8-0.4-1.6-0.7-2.3c-0.5-1.5-1-2.3-1.6-2.6h3.8c0,0,0.1,0,0.1,0c0.5,0.3,1,1.2,1.5,2.6c0.5,1.4,0.9,2.9,1.3,4.7
					c0.1,0.7,0.3,1.4,0.4,2.1c0.1,0.9,0.2,1.7,0.3,2.4v0.1c0.1,1.7,0.1,3.2,0,4.5c-0.1,1.9-0.5,2.9-1.1,2.9H642.1z"/>
			</g>
		</g>
		<g>
			<g>
				
					<linearGradient id="SVGID_29_" gradientUnits="userSpaceOnUse" x1="187.1919" y1="74.25" x2="187.4761" y2="86.9504" gradientTransform="matrix(1.4223 0 0 1.4223 328.95 401.1498)">
					<stop  offset="0" style="stop-color:#878B8C"/>
					<stop  offset="7.058824e-002" style="stop-color:#9AA2AD"/>
					<stop  offset="0.1765" style="stop-color:#FFFFFF"/>
					<stop  offset="0.298" style="stop-color:#828692"/>
					<stop  offset="0.3686" style="stop-color:#797BCE"/>
					<stop  offset="0.5216" style="stop-color:#282E57"/>
					<stop  offset="0.5961" style="stop-color:#7E808C"/>
					<stop  offset="0.6627" style="stop-color:#6A6D77"/>
					<stop  offset="0.7686" style="stop-color:#242528"/>
					<stop  offset="0.8667" style="stop-color:#585B64"/>
					<stop  offset="0.9804" style="stop-color:#383745"/>
				</linearGradient>
				<path fill-rule="evenodd" clip-rule="evenodd" fill="url(#SVGID_29_)" d="M599.5,506.2l0.6,1c0-0.4,0-0.8,0-1l1.3-0.1
					c0.1,0.6,0.5,2.1,1,4.3c0.5,2.3,0.8,4.9,0.9,8c0,3.1,0,4.6-0.1,4.7c-0.2,0.8-0.5,1.3-0.9,1.3h-11.4c0,0-0.1,0-0.2,0
					c-0.5-0.2-1-1-1.5-2.4c-0.1-0.4-0.3-0.8-0.4-1.2c-0.4-1.4-0.8-3-1.1-4.9c-0.3-1.9-0.4-3.6-0.4-5.1c0-0.4,0-0.7,0.1-1.1
					c0.1-1.4,0.3-2.6,0.7-3.5H599.5z"/>
				
					<linearGradient id="SVGID_30_" gradientUnits="userSpaceOnUse" x1="194.2393" y1="76.3564" x2="194.0157" y2="86.0315" gradientTransform="matrix(1.4223 0 0 1.4223 328.95 401.1498)">
					<stop  offset="0" style="stop-color:#878B8C"/>
					<stop  offset="7.058824e-002" style="stop-color:#9AA2AD"/>
					<stop  offset="0.1765" style="stop-color:#ACB4BF"/>
					<stop  offset="0.298" style="stop-color:#828692"/>
					<stop  offset="0.5529" style="stop-color:#292325"/>
					<stop  offset="0.7765" style="stop-color:#3D3633"/>
					<stop  offset="0.9804" style="stop-color:#3C3734"/>
				</linearGradient>
				<path fill-rule="evenodd" clip-rule="evenodd" fill="url(#SVGID_30_)" d="M600.2,506.2c0,0.2,0,0.6,0,1l-0.6-1H600.2z
					 M602.3,524.4c0.4,0,0.7-0.4,0.9-1.3c0.1,0,0.1-1.6,0.1-4.7c0-3-0.3-5.7-0.9-8c-0.5-2.3-0.9-3.7-1-4.3l0.1,0.1l7.1,2.8l-0.2,0.1
					c0.2,0.3,0.4,0.6,0.5,0.7c0.2,0.3,0.4,0.7,0.6,1.2c0.3,0.8,0.6,1.7,0.8,2.8c0.1,0.4,0.2,0.9,0.3,1.3c0,0.5,0.1,0.9,0.1,1.4v0.1
					c0.1,1,0.1,1.9,0,2.6c-0.1,1.1-0.3,1.7-0.6,1.7H610l-6.4,3.5H602.3z"/>
			</g>
		</g>
	</g>
	<g>
		<g>
			<g>
				
					<linearGradient id="SVGID_31_" gradientUnits="userSpaceOnUse" x1="0.7373" y1="65.3745" x2="135.8623" y2="65.3745" gradientTransform="matrix(1.4223 0 0 1.4223 328.95 401.1498)">
					<stop  offset="0" style="stop-color:#201F1D"/>
					<stop  offset="1" style="stop-color:#798287"/>
				</linearGradient>
				<path fill-rule="evenodd" clip-rule="evenodd" fill="url(#SVGID_31_)" d="M622.9,598.9c-0.6,1.1-2,1.8-4.4,2.2
					c-0.6,0.1-1.2,0.2-1.8,0.3h-4.6h-89.7H138.7h-2.8c-4.8-0.6-7.4-2-7.8-4.4l79.4-210.1h347.4l66.1,202.3l2,7l0.2,0.7l0.1,0.4
					C623.2,597.9,623.2,598.4,622.9,598.9z"/>
				
					<linearGradient id="SVGID_32_" gradientUnits="userSpaceOnUse" x1="-48.2749" y1="147.1006" x2="249.2751" y2="147.1006" gradientTransform="matrix(1.4223 0 0 1.4223 328.95 401.1498)">
					<stop  offset="0" style="stop-color:#17120E"/>
					<stop  offset="1" style="stop-color:#474840"/>
				</linearGradient>
				<path fill-rule="evenodd" clip-rule="evenodd" fill="url(#SVGID_32_)" d="M128.1,597c0.4,2.4,3,3.8,7.8,4.4h2.8h383.7h89.7h4.6
					c0.6-0.1,1.2-0.2,1.8-0.3c2.4-0.4,3.8-1.1,4.4-2.2v19.6c0.3,3.6-2,5.3-7,5.2h-93.6H138.8h-3.9c-5.1-0.5-7.4-2.5-6.9-6l-0.1-20.7
					H128.1z"/>
			</g>
		</g>
		<g>
			
				<linearGradient id="SVGID_33_" gradientUnits="userSpaceOnUse" x1="-122.5005" y1="110.8745" x2="186.9495" y2="110.8745" gradientTransform="matrix(1.4223 0 0 1.4223 328.95 401.1498)">
				<stop  offset="0" style="stop-color:#201F1D"/>
				<stop  offset="1" style="stop-color:#000000;stop-opacity:0"/>
			</linearGradient>
			<path fill-rule="evenodd" clip-rule="evenodd" fill="url(#SVGID_33_)" d="M603.3,555.6c1.6,0,3.3,0,5,0v0.1
				c-3.3,0.1-6.5,0.3-9.7,0.4l-19.3-0.1l-2.1,0.7l-0.5,0.4c-1.9,0-3.9,0.1-6,0.2l-26.8,1.4c-2.2,0-4.4,0-6.5,0.1
				c-0.6,0-1.1-0.1-1.5-0.1c-0.5,0-1.1,0-1.7,0.1c-0.3,0-1.5,0.2-3.6,0.7c-2.2,0.4-8.5,0.4-18.8,0.1c-10.4-0.3-18.4-0.1-24,0.8
				c-3.9,0.4-7.8,0.6-11.7,0.6l-0.7,0.2l-29.7,0.4c-0.2-0.1-0.5-0.2-0.9-0.2c-1.1,0-2.2,0.2-3.2,0.4c-4.3,0-8.5-0.1-12.4-0.2
				l-20.4,1.9c-2.8,0.1-5.8,0.2-8.7,0.3l-0.2,0.1l-244.9-1.6v-8.7l453.6,0.4v1.3L603.3,555.6z"/>
		</g>
		<g>
			<path fill-rule="evenodd" clip-rule="evenodd" fill="#09090B" d="M597.9,554.1l0.4,0.1l-439.4-0.1c-1.9,0-2.9-0.8-3.1-2.5v-8.3
				l0.4-0.6l443.9,0.2l1.2,1.6v7.3C601.1,553.4,599.9,554.2,597.9,554.1z"/>
		</g>
		<g>
			
				<linearGradient id="SVGID_34_" gradientUnits="userSpaceOnUse" x1="-108.8623" y1="45.8115" x2="254.6627" y2="45.8115" gradientTransform="matrix(1.4223 0 0 1.4223 328.95 401.1498)">
				<stop  offset="3.921569e-003" style="stop-color:#272928"/>
				<stop  offset="1" style="stop-color:#5B606F"/>
			</linearGradient>
			<path fill-rule="evenodd" clip-rule="evenodd" fill="url(#SVGID_34_)" d="M572.7,460.1c1,0,2.1,0.7,3.1,2.1l3.5,10.3H181l3.1-8.9
				l-0.1,0.5c0.7-3,2.6-4.3,5.5-4.1H572.7z"/>
		</g>
		<g>
			
				<linearGradient id="SVGID_35_" gradientUnits="userSpaceOnUse" x1="-138.0752" y1="76.0967" x2="227.0748" y2="76.0967" gradientTransform="matrix(1.4223 0 0 1.4223 328.95 401.1498)">
				<stop  offset="0" style="stop-color:#7B8177"/>
				<stop  offset="1" style="stop-color:#DCE3EB"/>
			</linearGradient>
			<path fill-rule="evenodd" clip-rule="evenodd" fill="url(#SVGID_35_)" d="M576.3,471.8c1.2,0,2.2,0.3,3.1,0.8
				c0.5,0.2,0.8,0.5,1,0.9l20.9,70.5c0.3,1.9-1.5,3-5.3,3.1H161.6c-3.9-0.6-5.9-1.8-5.8-3.6l22.4-70c0.1-0.5,0.5-0.9,1.1-1.1
				c0.7-0.4,1.6-0.5,2.8-0.5H576.3z"/>
		</g>
		<g>
			<g>
				<path fill-rule="evenodd" clip-rule="evenodd" d="M520.6,532.1l2.7-34.3c0.6-3.5-0.3-6.3-2.7-8.3c3.6,0.2,5.6,1.5,6,3.8
					l5.3,34.1c0.1,2.7-1,4.3-3.4,4.8H520.6z"/>
				
					<linearGradient id="SVGID_36_" gradientUnits="userSpaceOnUse" x1="33.2075" y1="55.2749" x2="33.2075" y2="91.1249" gradientTransform="matrix(1.4223 0 0 1.4223 328.95 401.1498)">
					<stop  offset="8.627451e-002" style="stop-color:#6D7292"/>
					<stop  offset="0.298" style="stop-color:#232529"/>
					<stop  offset="0.9333" style="stop-color:#07090A"/>
					<stop  offset="1" style="stop-color:#64564F"/>
				</linearGradient>
				<path fill-rule="evenodd" clip-rule="evenodd" fill="url(#SVGID_36_)" d="M520.6,532.1H228.9v-42.5c0.6-0.1,1.2-0.2,1.8-0.2h0.1
					c0.1,0,0.2,0,0.2,0h289.4c0,0,0.1,0,0.1,0c2.4,2,3.3,4.8,2.7,8.3L520.6,532.1z"/>
				
					<linearGradient id="SVGID_37_" gradientUnits="userSpaceOnUse" x1="-56.5254" y1="105.0762" x2="-5.5872" y2="105.0762" gradientTransform="matrix(1.2069 0.7525 -0.7896 1.1838 328.9503 401.1492)">
					<stop  offset="0" style="stop-color:#FFFFFF"/>
					<stop  offset="1" style="stop-color:#000000"/>
				</linearGradient>
				<path fill-rule="evenodd" clip-rule="evenodd" fill="url(#SVGID_37_)" d="M228.9,532.1h-10.8c-3.5-0.3-4.9-1.5-4.1-3.7l11-35.1
					c0.7-1.9,2-3.2,4-3.6V532.1z"/>
			</g>
		</g>
		<g>
			<g>
				
					<linearGradient id="SVGID_38_" gradientUnits="userSpaceOnUse" x1="127.3623" y1="77.0996" x2="144.3373" y2="77.0996" gradientTransform="matrix(1.4223 0 0 1.4223 328.95 401.1498)">
					<stop  offset="0" style="stop-color:#020202;stop-opacity:0"/>
					<stop  offset="0.2353" style="stop-color:#020202;stop-opacity:0.3098"/>
					<stop  offset="0.5725" style="stop-color:#010101"/>
					<stop  offset="0.7451" style="stop-color:#010101;stop-opacity:0.298"/>
					<stop  offset="1" style="stop-color:#000000;stop-opacity:0"/>
				</linearGradient>
				<path fill-rule="evenodd" clip-rule="evenodd" fill="url(#SVGID_38_)" d="M493.7,532.1v-42.7h26.7c0,0,0.1,0,0.1,0
					c3.6,0.2,5.6,1.5,6,3.8l5.3,34.1c0.1,2.7-1,4.3-3.4,4.8h-8H493.7z"/>
				
					<linearGradient id="SVGID_39_" gradientUnits="userSpaceOnUse" x1="-78.1123" y1="77.0996" x2="-61.4873" y2="77.0996" gradientTransform="matrix(1.4223 0 0 1.4223 328.95 401.1498)">
					<stop  offset="0.1176" style="stop-color:#010101;stop-opacity:0"/>
					<stop  offset="0.3059" style="stop-color:#010101;stop-opacity:0.298"/>
					<stop  offset="0.5176" style="stop-color:#010101;stop-opacity:0.9098"/>
					<stop  offset="0.7373" style="stop-color:#010101;stop-opacity:0.2431"/>
					<stop  offset="1" style="stop-color:#000000;stop-opacity:0"/>
				</linearGradient>
				<path fill-rule="evenodd" clip-rule="evenodd" fill="url(#SVGID_39_)" d="M225.1,493.3c0.7-1.9,2-3.2,4-3.6
					c0.6-0.1,1.2-0.2,1.8-0.2h0.1c0.1,0,0.2,0,0.2,0H266v42.7h-0.5H229h-10.8c-3.5-0.3-4.9-1.5-4.1-3.7L225.1,493.3z"/>
			</g>
		</g>
		<g>
			
				<radialGradient id="SVGID_40_" cx="61.9746" cy="62.3994" r="70.6128" gradientTransform="matrix(1.4223 0 0 1.4223 328.95 401.1498)" gradientUnits="userSpaceOnUse">
				<stop  offset="0" style="stop-color:#FFFFFF"/>
				<stop  offset="0.7922" style="stop-color:#FFFFFF;stop-opacity:0.6627"/>
				<stop  offset="1" style="stop-color:#FFFFFF;stop-opacity:0"/>
			</radialGradient>
			<path fill-rule="evenodd" clip-rule="evenodd" fill="url(#SVGID_40_)" d="M517.8,490.3c-0.1,0.1-0.2,0.1-0.3,0.1H316.7
				c-0.1,0-0.3,0-0.4-0.1c-0.1-0.1-0.1-0.2-0.1-0.4s0-0.3,0.1-0.4c0.1-0.1,0.2-0.1,0.4-0.1h200.8c0.1,0,0.2,0,0.3,0.1
				c0.1,0.1,0.1,0.2,0.1,0.4S517.9,490.2,517.8,490.3z"/>
		</g>
		<g>
			
				<radialGradient id="SVGID_41_" cx="136" cy="64.7998" r="3.875" gradientTransform="matrix(1.4223 0 0 1.4223 328.95 401.1498)" gradientUnits="userSpaceOnUse">
				<stop  offset="0" style="stop-color:#FFFFFF"/>
				<stop  offset="0.7922" style="stop-color:#FFFFFF;stop-opacity:0.6627"/>
				<stop  offset="1" style="stop-color:#FFFFFF;stop-opacity:0"/>
			</radialGradient>
			<path fill-rule="evenodd" clip-rule="evenodd" fill="url(#SVGID_41_)" d="M527.6,496.2c0,0.1,0,0.3-0.1,0.4
				c-0.1,0-0.2,0.1-0.3,0.1c-0.2,0-0.3,0-0.4-0.1c-0.1-0.1-0.1-0.2-0.1-0.4c0.1-2-0.5-3.5-1.9-4.4c-1.5-1-3.9-1.5-7-1.4
				c-0.1,0-0.3,0-0.4-0.1c-0.1-0.1-0.1-0.2-0.1-0.4c0-0.1,0-0.3,0.1-0.4c0.1-0.1,0.2-0.1,0.4-0.1c3.4,0,6,0.5,7.6,1.6
				C527,492,527.8,493.7,527.6,496.2z"/>
		</g>
		<g>
			<g>
				
					<radialGradient id="SVGID_42_" cx="-76.6499" cy="76.1499" r="10.9625" gradientTransform="matrix(1.4223 0 0 1.4223 328.95 401.1498)" gradientUnits="userSpaceOnUse">
					<stop  offset="0" style="stop-color:#FFFFFF"/>
					<stop  offset="1" style="stop-color:#F7F7F7;stop-opacity:0"/>
				</radialGradient>
				<path fill-rule="evenodd" clip-rule="evenodd" fill="url(#SVGID_42_)" d="M224.6,494.6L224.6,494.6c0.1-0.2,0.2-0.3,0.3-0.4
					c0.1,0,0.2,0,0.4,0l0.2,0.1l0.1,0.1c0,0.1,0.1,0.3,0.1,0.4l-9.4,29.7c0,0.1-0.1,0.2-0.2,0.3c-0.2,0-0.3,0.1-0.4,0.1
					c-0.1,0-0.2-0.1-0.3-0.3c0-0.1,0-0.2,0-0.4L224.6,494.6z"/>
				
					<radialGradient id="SVGID_43_" cx="-70.6499" cy="63.8999" r="3.125" gradientTransform="matrix(1.4223 0 0 1.4223 328.95 401.1498)" gradientUnits="userSpaceOnUse">
					<stop  offset="0" style="stop-color:#FFFFFF"/>
					<stop  offset="1" style="stop-color:#F7F7F7;stop-opacity:0"/>
				</radialGradient>
				<path fill-rule="evenodd" clip-rule="evenodd" fill="url(#SVGID_43_)" d="M232.8,490.5h-0.5c-3.4-0.3-5.7,1-6.8,3.9l-0.2-0.1
					c-0.1,0-0.3,0-0.4,0c-0.1,0-0.2,0.1-0.2,0.3l-0.1,0.1l-0.1-0.1c0-0.1,0-0.2,0-0.3c0.6-1.8,1.5-3.1,2.6-3.8c1.2-0.7,3-1,5.2-0.9
					h0.4c-0.1,0-0.2,0.1-0.3,0.2c-0.1,0.1-0.1,0.2-0.1,0.3c0,0.1,0,0.3,0.1,0.4C232.6,490.4,232.7,490.5,232.8,490.5z"/>
				
					<radialGradient id="SVGID_44_" cx="-47.6001" cy="62.3501" r="20.6625" gradientTransform="matrix(1.4223 0 0 1.4223 328.95 401.1498)" gradientUnits="userSpaceOnUse">
					<stop  offset="0" style="stop-color:#FFFFFF"/>
					<stop  offset="1" style="stop-color:#F7F7F7;stop-opacity:0"/>
				</radialGradient>
				<path fill-rule="evenodd" clip-rule="evenodd" fill="url(#SVGID_44_)" d="M232.8,489.5h57.9c0.1,0,0.2,0,0.3,0.1
					c0.1,0.1,0.1,0.2,0.1,0.4c0,0.1,0,0.2-0.1,0.3c-0.1,0.1-0.2,0.1-0.3,0.1l-57.9,0.1c-0.1,0-0.2-0.1-0.3-0.1
					c-0.1-0.1-0.1-0.2-0.1-0.4c0-0.1,0-0.2,0.1-0.3C232.6,489.5,232.7,489.5,232.8,489.5z"/>
			</g>
		</g>
		<g>
			
				<linearGradient id="SVGID_45_" gradientUnits="userSpaceOnUse" x1="-54.7251" y1="13.5244" x2="131.7249" y2="13.5244" gradientTransform="matrix(1.4223 0 0 1.4223 328.95 401.1498)">
				<stop  offset="0" style="stop-color:#D1D6D9"/>
				<stop  offset="1" style="stop-color:#E9ECED"/>
			</linearGradient>
			<path fill-rule="evenodd" clip-rule="evenodd" fill="url(#SVGID_45_)" d="M546.3,380.7c1,0,2,0.3,2.8,0.6c0.5,0.3,0.9,0.7,1,1.1
				l22.5,77.7H184.5l28.2-77.9c0.2-0.4,0.5-0.7,1-0.9c0.7-0.4,1.6-0.6,2.6-0.6H546.3z"/>
		</g>
		<g>
			<g>
				<g>
					<path fill-rule="evenodd" clip-rule="evenodd" d="M541,417.9c0,0.1,0,0.2,0,0.2l-0.5,0.7c0,0.2,0,0.3,0.1,0.4
						c0,0.1,0.2,0.2,0.4,0.2l1.6,0.5c0,0,0.1,0,0.1,0.1c0.1,0.1,0.1,0.3-0.1,0.6c0,0.1-0.1,0.1-0.1,0.1c-0.2,0.2-0.4,0.3-0.6,0.3
						l-1.3-0.4c-0.1,0-0.2,0-0.4,0c-0.6,0-1,0.2-1.4,0.6l-0.4,0.8c-0.1,0.1-0.3,0.1-0.4,0.1l-0.8-0.2c-0.1,0-0.1,0-0.1-0.1v-0.1
						l0.3-0.7c0.2-0.4,0.2-0.7,0-0.9c-0.1-0.1-0.3-0.2-0.5-0.2h-0.1l-1.1-0.2c-0.1-0.1-0.2-0.2-0.1-0.4l0.3-0.5
						c0.1-0.1,0.3-0.2,0.5-0.1l1,0.2c0.2,0,0.5,0,0.7,0c0.2,0,0.3,0,0.4-0.1c0.2,0,0.4-0.1,0.6-0.3l0.6-0.8c0.1,0,0.2,0,0.4,0
						c0.1,0,0.3,0,0.5,0.1C540.9,417.7,541,417.8,541,417.9z"/>
					<path fill-rule="evenodd" clip-rule="evenodd" fill="#473A32" d="M537.1,421.6l-0.1,0.3l-0.3-0.1l0.5-1.1
						c0.2-0.3,0.2-0.5,0.1-0.7c-0.3-0.1-0.6-0.2-0.9-0.3c-0.3,0-0.6-0.1-0.9-0.1c-0.1,0-0.2-0.1-0.1-0.2l0.6-0.8
						c0.1-0.2,0.5-0.3,1.2-0.1c0.6,0.1,1.1,0.1,1.5,0c0.3-0.2,0.6-0.4,0.8-0.6c0.1-0.1,0.2-0.2,0.2-0.3c0-0.1,0.3-0.2,0.6-0.2v0.1
						c-0.1,0-0.3,0-0.4,0l-0.6,0.8c-0.1,0.1-0.3,0.2-0.6,0.3c-0.1,0.1-0.2,0.1-0.4,0.1c-0.2,0-0.5,0-0.7,0l-1-0.2
						c-0.2,0-0.4,0-0.5,0.1l-0.3,0.5c-0.1,0.1-0.1,0.3,0.1,0.4l1.1,0.2h0.1c0.2,0,0.4,0.1,0.5,0.2c0.2,0.2,0.2,0.5,0,0.9l-0.3,0.7
						V421.6z"/>
					
						<radialGradient id="SVGID_46_" cx="13.0684" cy="-145.8462" r="4.2127" gradientTransform="matrix(1.187509e-002 1.4222 2.165 -1.807675e-002 852.1289 396.7819)" gradientUnits="userSpaceOnUse">
						<stop  offset="0" style="stop-color:#FDFDFB"/>
						<stop  offset="1" style="stop-color:#030303"/>
					</radialGradient>
					<path fill-rule="evenodd" clip-rule="evenodd" fill="url(#SVGID_46_)" d="M537,421.9l1.4,0.4l0.8-1.1c0.3-0.3,0.7-0.5,1.1-0.6
						l0.3,0.1l1.4,0.4l0.6-0.1l0.5-0.6c0.2-0.2,0.1-0.4-0.4-0.4c0,0,0-0.1-0.1-0.1l-1.6-0.5c-0.2,0-0.3-0.1-0.4-0.2l0.6-1.3
						l-0.1-0.2l-0.5-0.3c-0.2,0-0.4-0.1-0.5-0.1c-0.4,0-0.6,0.1-0.6,0.2c0,0.1-0.1,0.2-0.2,0.3c-0.2,0.2-0.5,0.5-0.8,0.6
						c-0.4,0.1-0.9,0.1-1.5,0c-0.7-0.2-1.1-0.2-1.2,0.1l-0.6,0.8c0,0.1,0,0.2,0.1,0.2c0.3,0,0.6,0,0.9,0.1c0.3,0.1,0.6,0.2,0.9,0.3
						c0.1,0.2,0.1,0.4-0.1,0.7l-0.5,1.1L537,421.9z M543,422.1c-0.1,0-0.3,0.1-0.4,0.2c-0.9,0.6-2.1,0.9-3.4,0.9
						c-1.4,0-2.6-0.3-3.7-0.9c0,0-0.1-0.1-0.2-0.1c-0.5-0.3-0.9-0.7-1.2-1.1c0-0.1-0.1-0.3-0.1-0.4c-0.1-0.2-0.2-0.5-0.2-0.7
						c0.1-0.8,0.7-1.5,1.6-2.1c1.1-0.8,2.4-1.1,3.9-1.1c1.5,0,2.8,0.3,3.9,1c0.7,0.5,1.2,1,1.5,1.6c0,0,0,0.1,0,0.1c0,0,0,0.1,0,0.1
						c0,0,0,0.1,0,0.1v0.1C544.5,420.7,544,421.4,543,422.1L543,422.1z"/>
					<path fill-rule="evenodd" clip-rule="evenodd" fill="#FEFFF7" d="M541.2,417.7l-0.1,0.1c0-0.1-0.1-0.2-0.4-0.3
						c-0.2,0-0.4-0.1-0.5-0.1v-0.1c0.1,0,0.3,0,0.5,0.1L541.2,417.7z M540.5,420.7l0.1-0.1l1.3,0.4c0.2,0,0.4-0.1,0.6-0.3
						c0,0,0.1,0,0.1-0.1c0.1-0.2,0.2-0.4,0.1-0.6c0.4,0,0.5,0.1,0.4,0.4l-0.5,0.6l-0.6,0.1L540.5,420.7z M537,421.9l0.1-0.3
						c0,0.1,0,0.1,0.1,0.1l0.8,0.2c0.1,0,0.3,0,0.4-0.1l0.4-0.8c0.3-0.4,0.8-0.6,1.4-0.6c-0.5,0.1-0.9,0.3-1.1,0.6l-0.8,1.1
						L537,421.9z"/>
					<path fill-rule="evenodd" clip-rule="evenodd" fill="#FFFFFF" d="M540.7,419.2c-0.1-0.1-0.1-0.2-0.1-0.4l0.5-0.7
						c0,0,0-0.1,0-0.2l0.1-0.1l0.1,0.2L540.7,419.2z"/>
					
						<linearGradient id="SVGID_47_" gradientUnits="userSpaceOnUse" x1="137.1001" y1="-19.9458" x2="143.6979" y2="-19.9458" gradientTransform="matrix(1.385 0.3234 -0.7182 1.2928 328.9503 401.15)">
						<stop  offset="0" style="stop-color:#070707"/>
						<stop  offset="0.4471" style="stop-color:#EFEFED"/>
						<stop  offset="1" style="stop-color:#0E0E0E"/>
					</linearGradient>
					<path fill-rule="evenodd" clip-rule="evenodd" fill="url(#SVGID_47_)" d="M543,422.1l0.2,0.1L543,422.1
						c0.9-0.7,1.5-1.4,1.6-2.3c0,0.2,0,0.4,0,0.5c-0.1,0.7-0.6,1.4-1.4,1.9h-0.1c0,0-0.1,0.1-0.1,0.1c-0.1,0-0.2,0.1-0.2,0.1
						c-1,0.6-2.2,0.9-3.6,0.9c-1.5,0-2.8-0.3-3.9-0.9c0-0.1-0.1-0.1-0.1-0.1c-0.5-0.4-0.9-0.8-1.1-1.3c0,0-0.1-0.1-0.1-0.2
						c0,0-0.1,0-0.1-0.1s0-0.1-0.1-0.1c0-0.2-0.1-0.5-0.1-0.7c0,0.2,0.1,0.5,0.2,0.7c0,0.1,0.1,0.3,0.1,0.4c0.3,0.4,0.7,0.8,1.2,1.1
						c0.1,0,0.2,0.1,0.2,0.1c1.1,0.6,2.3,0.9,3.7,0.9c1.3,0,2.5-0.3,3.4-0.9C542.7,422.2,542.9,422.2,543,422.1z"/>
					
						<linearGradient id="SVGID_48_" gradientUnits="userSpaceOnUse" x1="142.3345" y1="23.9512" x2="147.7957" y2="23.9512" gradientTransform="matrix(1.4193 -9.115078e-002 0.1802 1.4136 328.9503 401.1508)">
						<stop  offset="0" style="stop-color:#070707"/>
						<stop  offset="0.4471" style="stop-color:#EFEFED"/>
						<stop  offset="1" style="stop-color:#0E0E0E"/>
					</linearGradient>
					<path fill-rule="evenodd" clip-rule="evenodd" fill="url(#SVGID_48_)" d="M533.7,419.9c0,0.2,0,0.5,0.1,0.7
						c0,0,0.1,0.1,0.1,0.1s0,0.1,0.1,0.1c0,0.1,0,0.2,0.1,0.2c0.2,0.5,0.6,0.9,1.1,1.3c0,0,0.1,0,0.1,0.1c1.1,0.6,2.4,0.9,3.9,0.9
						c1.4,0,2.6-0.3,3.6-0.9c0,0,0.1-0.1,0.2-0.1c0,0,0.1-0.1,0.1-0.1h0.1c0.8-0.6,1.2-1.2,1.4-1.9c0-0.1,0-0.3,0-0.5v-0.1
						c0,0,0-0.1,0-0.1h0.1c0,0.2,0.1,0.5,0.1,0.7c0,1-0.5,1.8-1.6,2.6c-1,0.8-2.3,1.1-3.8,1.1c-1.5,0-2.8-0.3-4-1
						c-0.8-0.5-1.3-1.1-1.5-1.8c0-0.1-0.1-0.2-0.1-0.3c0-0.1,0-0.2,0-0.2c0,0-0.1-0.1-0.1-0.2C533.6,420.2,533.6,420.1,533.7,419.9z
						"/>
					
						<linearGradient id="SVGID_49_" gradientUnits="userSpaceOnUse" x1="140.8154" y1="25.4463" x2="145.6321" y2="25.4463" gradientTransform="matrix(1.4174 -0.1181 0.2699 1.4047 328.9502 401.1503)">
						<stop  offset="0" style="stop-color:#6C6B67"/>
						<stop  offset="1" style="stop-color:#2B281F"/>
					</linearGradient>
					<path fill-rule="evenodd" clip-rule="evenodd" fill="url(#SVGID_49_)" d="M544.6,419.6c0,0,0-0.1,0-0.1
						C544.6,419.5,544.6,419.5,544.6,419.6L544.6,419.6z"/>
				</g>
			</g>
			<g>
				
					<radialGradient id="SVGID_50_" cx="-39.4438" cy="-120.5884" r="0.8243" gradientTransform="matrix(-0.9274 1.0783 3.6232 1.3371 937.5836 625.7651)" gradientUnits="userSpaceOnUse">
					<stop  offset="0" style="stop-color:#FFFFFF"/>
					<stop  offset="0.4078" style="stop-color:#FEFEFE;stop-opacity:0.1686"/>
					<stop  offset="0.8" style="stop-color:#FEFEFE;stop-opacity:0"/>
					<stop  offset="1" style="stop-color:#FAFAFA;stop-opacity:0"/>
				</radialGradient>
				<path fill-rule="evenodd" clip-rule="evenodd" fill="url(#SVGID_50_)" d="M534.7,421.2c0.2-0.3,0.7-0.4,1.4-0.4
					c0.7,0,1.4,0.1,2.1,0.4c0.7,0.2,1.2,0.6,1.5,1c0.4,0.4,0.4,0.7,0.1,1c-0.2,0.3-0.7,0.4-1.4,0.4c-0.7,0-1.4-0.1-2.1-0.4
					c-0.7-0.2-1.2-0.5-1.5-0.9C534.5,421.8,534.4,421.5,534.7,421.2z"/>
			</g>
			<g>
				
					<radialGradient id="SVGID_51_" cx="13.4229" cy="-146.7227" r="1.2626" gradientTransform="matrix(1.427218e-002 1.4222 4.154 -4.168618e-002 1147.1 392.9405)" gradientUnits="userSpaceOnUse">
					<stop  offset="0" style="stop-color:#FFFFFF"/>
					<stop  offset="0.4078" style="stop-color:#FEFEFE;stop-opacity:0.1686"/>
					<stop  offset="0.8" style="stop-color:#FEFEFE;stop-opacity:0"/>
					<stop  offset="1" style="stop-color:#FAFAFA;stop-opacity:0"/>
				</radialGradient>
				<path fill-rule="evenodd" clip-rule="evenodd" fill="url(#SVGID_51_)" d="M536.3,416.9c0.8-0.3,1.7-0.5,2.7-0.5
					c1,0,1.9,0.1,2.6,0.4c0.8,0.3,1.2,0.7,1.2,1.2c0,0.5-0.4,0.9-1.1,1.2c-0.8,0.4-1.6,0.6-2.6,0.6c-1,0-1.9-0.2-2.7-0.5
					c-0.8-0.3-1.1-0.7-1.1-1.1C535.3,417.6,535.6,417.2,536.3,416.9z"/>
			</g>
			<g>
				
					<radialGradient id="SVGID_52_" cx="-4.9224" cy="-149.105" r="0.4339" gradientTransform="matrix(-0.2868 1.3931 5.4903 0.6965 1358.5828 531.7749)" gradientUnits="userSpaceOnUse">
					<stop  offset="0" style="stop-color:#FFFFFF"/>
					<stop  offset="0.4078" style="stop-color:#FEFEFE;stop-opacity:0.1686"/>
					<stop  offset="0.8" style="stop-color:#FEFEFE;stop-opacity:0"/>
					<stop  offset="1" style="stop-color:#FAFAFA;stop-opacity:0"/>
				</radialGradient>
				<path fill-rule="evenodd" clip-rule="evenodd" fill="url(#SVGID_52_)" d="M539.4,420.8c0-0.2,0.3-0.3,0.7-0.4c0.5,0,1,0,1.5,0
					c0.6,0.1,1,0.2,1.4,0.4s0.5,0.4,0.5,0.6s-0.3,0.3-0.7,0.4c-0.4,0.1-0.9,0.1-1.5,0.1c-0.5,0-1-0.2-1.4-0.4
					C539.5,421.2,539.3,421,539.4,420.8z"/>
			</g>
		</g>
		<g>
			<g>
				<g>
					
						<radialGradient id="SVGID_53_" cx="11.2007" cy="76.5977" r="4.2127" gradientTransform="matrix(1.206523e-002 1.4222 2.0932 -1.775760e-002 59.6758 403.4339)" gradientUnits="userSpaceOnUse">
						<stop  offset="0" style="stop-color:#FDFDFB"/>
						<stop  offset="1" style="stop-color:#030303"/>
					</radialGradient>
					<path fill-rule="evenodd" clip-rule="evenodd" fill="url(#SVGID_53_)" d="M220.6,421.9l1.3,0.4l0.8-1.1
						c0.2-0.3,0.6-0.5,1.1-0.6l0.2,0.1l1.4,0.4l0.5-0.1l0.5-0.6c0.2-0.2,0.1-0.4-0.4-0.4l-0.1-0.1l-1.6-0.5c-0.1,0-0.2-0.1-0.3-0.2
						l0.6-1.3l-0.1-0.2l-0.5-0.3c-0.2,0-0.4-0.1-0.5-0.1c-0.4,0-0.6,0.1-0.6,0.2c0,0.1-0.1,0.2-0.2,0.3c-0.2,0.2-0.4,0.5-0.7,0.6
						c-0.4,0.1-0.9,0.1-1.5,0c-0.6-0.2-1-0.2-1.1,0.1l-0.5,0.8c-0.1,0.1-0.1,0.2,0.1,0.2c0.3,0,0.6,0,0.9,0.1
						c0.3,0.1,0.6,0.2,0.9,0.3c0.1,0.2,0.1,0.4-0.1,0.7l-0.4,1.1L220.6,421.9z M217.5,420.6c-0.1-0.2-0.1-0.4-0.1-0.6v-0.1
						c0.1-0.8,0.6-1.5,1.5-2.1c1-0.8,2.3-1.1,3.8-1.1c1.5,0,2.7,0.3,3.8,1c0.7,0.5,1.1,1,1.4,1.6c0,0,0,0.1,0,0.1c0,0,0,0.1,0,0.1
						s0,0.1,0,0.1v0.1c-0.1,0.9-0.6,1.7-1.6,2.3v0.1c-0.1,0-0.2,0.1-0.4,0.2c-0.9,0.6-2.1,0.9-3.3,0.9c-1.4,0-2.6-0.3-3.6-0.9
						c0,0-0.1-0.1-0.1-0.1c-0.5-0.3-0.9-0.7-1.1-1.1C217.7,420.9,217.6,420.8,217.5,420.6z"/>
					<path fill-rule="evenodd" clip-rule="evenodd" fill="#473A32" d="M220.6,421.6l-0.1,0.3l-0.3-0.1l0.4-1.1
						c0.2-0.3,0.2-0.5,0.1-0.7c-0.3-0.1-0.6-0.2-0.9-0.3c-0.3,0-0.6-0.1-0.9-0.1c-0.1,0-0.2-0.1-0.1-0.2l0.5-0.8
						c0.1-0.2,0.5-0.3,1.1-0.1c0.6,0.1,1.1,0.1,1.5,0c0.3-0.2,0.5-0.4,0.7-0.6c0.1-0.1,0.2-0.2,0.2-0.3c0-0.1,0.3-0.2,0.6-0.2v0.1
						c-0.1,0-0.3,0-0.4,0l-0.6,0.8c-0.1,0.1-0.3,0.2-0.5,0.3c-0.1,0.1-0.3,0.1-0.4,0.1c-0.2,0-0.5,0-0.7,0l-0.9-0.2
						c-0.2,0-0.4,0-0.5,0.1l-0.3,0.5c-0.1,0.1-0.1,0.3,0.1,0.4l1.1,0.2h0.1c0.2,0,0.3,0.1,0.4,0.2c0.2,0.2,0.2,0.5,0,0.9l-0.3,0.7
						V421.6z"/>
					<path fill-rule="evenodd" clip-rule="evenodd" d="M223.6,417.5c0.2,0,0.4,0,0.5,0.1c0.2,0.1,0.3,0.2,0.4,0.3c0,0.1,0,0.2,0,0.2
						l-0.5,0.7c0,0.2,0,0.3,0.1,0.4c0,0.1,0.1,0.2,0.3,0.2l1.6,0.5l0.1,0.1c0.1,0.1,0.1,0.3-0.1,0.6c0,0.1-0.1,0.1-0.1,0.1
						c-0.1,0.2-0.3,0.3-0.6,0.3l-1.2-0.4c-0.1,0-0.2,0-0.3,0c-0.6,0-1,0.2-1.4,0.6l-0.5,0.8c0,0.1-0.2,0.1-0.4,0.1l-0.8-0.2
						c-0.1,0-0.1,0-0.1-0.1v-0.1l0.3-0.7c0.2-0.4,0.2-0.7,0-0.9c-0.1-0.1-0.2-0.2-0.4-0.2h-0.1l-1.1-0.2c-0.1-0.1-0.2-0.2-0.1-0.4
						l0.3-0.5c0.1-0.1,0.3-0.2,0.5-0.1l0.9,0.2c0.2,0,0.5,0,0.7,0c0.1,0,0.3,0,0.4-0.1c0.2,0,0.4-0.1,0.5-0.3l0.6-0.8
						C223.3,417.5,223.5,417.5,223.6,417.5z"/>
					<path fill-rule="evenodd" clip-rule="evenodd" fill="#FEFFF7" d="M220.6,421.9l0.1-0.3c0,0.1,0,0.1,0.1,0.1l0.8,0.2
						c0.2,0,0.3,0,0.4-0.1l0.5-0.8c0.3-0.4,0.8-0.6,1.4-0.6c-0.5,0.1-0.9,0.3-1.1,0.6l-0.8,1.1L220.6,421.9z M224,420.7l0.1-0.1
						l1.2,0.4c0.2,0,0.4-0.1,0.6-0.3c0,0,0.1,0,0.1-0.1c0.1-0.2,0.2-0.4,0.1-0.6c0.4,0,0.5,0.1,0.4,0.4l-0.5,0.6l-0.5,0.1L224,420.7
						z M224.6,417.7l-0.1,0.1c0-0.1-0.2-0.2-0.4-0.3c-0.1,0-0.3-0.1-0.5-0.1v-0.1c0.1,0,0.3,0,0.5,0.1L224.6,417.7z"/>
					<path fill-rule="evenodd" clip-rule="evenodd" fill="#FFFFFF" d="M224.5,417.9l0.1-0.1l0.1,0.2l-0.6,1.3
						c-0.1-0.1-0.1-0.2-0.1-0.4l0.5-0.7C224.5,418,224.5,418,224.5,417.9z"/>
					
						<linearGradient id="SVGID_54_" gradientUnits="userSpaceOnUse" x1="-65.48" y1="31.1362" x2="-59.0768" y2="31.1362" gradientTransform="matrix(1.3827 0.3332 -0.6926 1.2961 328.9505 401.1492)">
						<stop  offset="0" style="stop-color:#070707"/>
						<stop  offset="0.4471" style="stop-color:#EFEFED"/>
						<stop  offset="1" style="stop-color:#0E0E0E"/>
					</linearGradient>
					<path fill-rule="evenodd" clip-rule="evenodd" fill="url(#SVGID_54_)" d="M226.3,422.1l0.2,0.1L226.3,422.1
						c0.9-0.7,1.5-1.4,1.6-2.3c0,0.2,0,0.4,0,0.5c-0.1,0.7-0.6,1.4-1.4,1.9c0,0-0.1,0.1-0.2,0.1c0,0-0.1,0.1-0.1,0.1h-0.1
						c-0.9,0.6-2.1,0.9-3.4,0.9c-1.5,0-2.7-0.3-3.8-0.9c0-0.1-0.1-0.1-0.2-0.1c-0.5-0.4-0.9-0.8-1.1-1.3c0,0-0.1-0.1-0.1-0.2v-0.1
						c0,0,0-0.1,0-0.1c0.1,0.1,0.2,0.3,0.3,0.4c0.2,0.4,0.6,0.8,1.1,1.1c0,0,0.1,0.1,0.1,0.1c1,0.6,2.2,0.9,3.6,0.9
						c1.3,0,2.4-0.3,3.3-0.9C226.1,422.2,226.2,422.2,226.3,422.1z"/>
					
						<linearGradient id="SVGID_55_" gradientUnits="userSpaceOnUse" x1="-78.6704" y1="9.5693" x2="-73.3838" y2="9.5693" gradientTransform="matrix(1.4192 -9.416170e-002 0.1733 1.4139 328.9508 401.15)">
						<stop  offset="0" style="stop-color:#070707"/>
						<stop  offset="0.4471" style="stop-color:#EFEFED"/>
						<stop  offset="1" style="stop-color:#0E0E0E"/>
					</linearGradient>
					<path fill-rule="evenodd" clip-rule="evenodd" fill="url(#SVGID_55_)" d="M217.4,420c0,0.2,0.1,0.4,0.1,0.6c0,0,0,0.1,0,0.1
						v0.1c0,0.1,0.1,0.2,0.1,0.2c0.2,0.5,0.5,0.9,1.1,1.3c0.1,0,0.2,0,0.2,0.1c1,0.6,2.3,0.9,3.8,0.9c1.3,0,2.5-0.3,3.4-0.9h0.1
						c0,0,0.1-0.1,0.1-0.1c0.1,0,0.2-0.1,0.2-0.1c0.8-0.6,1.2-1.2,1.4-1.9c0-0.1,0-0.3,0-0.5v-0.1c0,0,0-0.1,0-0.1h0.1
						c0,0.2,0.1,0.5,0.1,0.7c0,1-0.5,1.8-1.6,2.6c-1,0.8-2.2,1.1-3.7,1.1c-1.5,0-2.8-0.3-3.9-1c-0.8-0.5-1.2-1.1-1.4-1.8
						c0-0.1-0.1-0.2-0.1-0.3c0-0.1,0-0.2,0-0.2c0,0,0-0.1,0-0.2C217.4,420.3,217.4,420.2,217.4,420z"/>
					
						<linearGradient id="SVGID_56_" gradientUnits="userSpaceOnUse" x1="-78.7637" y1="6.7656" x2="-74.0965" y2="6.7656" gradientTransform="matrix(1.417 -0.1219 0.2562 1.4055 328.95 401.1508)">
						<stop  offset="0" style="stop-color:#6C6B67"/>
						<stop  offset="1" style="stop-color:#2B281F"/>
					</linearGradient>
					<path fill-rule="evenodd" clip-rule="evenodd" fill="url(#SVGID_56_)" d="M228,419.6L228,419.6c-0.1,0-0.1-0.1-0.1-0.1
						C227.9,419.5,228,419.5,228,419.6z"/>
				</g>
			</g>
			<g>
				
					<radialGradient id="SVGID_57_" cx="43.2427" cy="48.8091" r="0.8162" gradientTransform="matrix(-0.9148 1.089 3.5285 1.3504 88.1205 308.9816)" gradientUnits="userSpaceOnUse">
					<stop  offset="0" style="stop-color:#FFFFFF"/>
					<stop  offset="0.4078" style="stop-color:#FEFEFE;stop-opacity:0.1686"/>
					<stop  offset="0.8" style="stop-color:#FEFEFE;stop-opacity:0"/>
					<stop  offset="1" style="stop-color:#FAFAFA;stop-opacity:0"/>
				</radialGradient>
				<path fill-rule="evenodd" clip-rule="evenodd" fill="url(#SVGID_57_)" d="M218.3,421.2c0.3-0.3,0.7-0.4,1.4-0.4
					c0.7,0,1.4,0.1,2.1,0.4c0.7,0.2,1.2,0.6,1.5,1c0.3,0.4,0.3,0.7,0.1,1c-0.2,0.3-0.6,0.4-1.3,0.4c-0.7,0-1.4-0.1-2.1-0.4
					c-0.7-0.2-1.2-0.5-1.5-0.9C218.1,421.8,218.1,421.5,218.3,421.2z"/>
			</g>
			<g>
				
					<radialGradient id="SVGID_58_" cx="11.1772" cy="75.7183" r="1.2626" gradientTransform="matrix(1.452586e-002 1.4222 4.0132 -4.098907e-002 -82.6058 405.3541)" gradientUnits="userSpaceOnUse">
					<stop  offset="0" style="stop-color:#FFFFFF"/>
					<stop  offset="0.4078" style="stop-color:#FEFEFE;stop-opacity:0.1686"/>
					<stop  offset="0.8" style="stop-color:#FEFEFE;stop-opacity:0"/>
					<stop  offset="1" style="stop-color:#FAFAFA;stop-opacity:0"/>
				</radialGradient>
				<path fill-rule="evenodd" clip-rule="evenodd" fill="url(#SVGID_58_)" d="M219.9,416.9c0.8-0.3,1.6-0.5,2.6-0.5
					c0.9,0,1.8,0.1,2.5,0.4c0.8,0.3,1.1,0.7,1.1,1.2c0,0.5-0.4,0.9-1.1,1.2c-0.7,0.4-1.5,0.6-2.5,0.6c-1,0-1.9-0.2-2.6-0.5
					c-0.7-0.3-1.1-0.7-1.1-1.1C218.9,417.6,219.2,417.2,219.9,416.9z"/>
			</g>
			<g>
				
					<radialGradient id="SVGID_59_" cx="23.4355" cy="68.873" r="0.4339" gradientTransform="matrix(-0.2868 1.3931 5.3264 0.6965 -135.2805 340.4428)" gradientUnits="userSpaceOnUse">
					<stop  offset="0" style="stop-color:#FFFFFF"/>
					<stop  offset="0.4078" style="stop-color:#FEFEFE;stop-opacity:0.1686"/>
					<stop  offset="0.8" style="stop-color:#FEFEFE;stop-opacity:0"/>
					<stop  offset="1" style="stop-color:#FAFAFA;stop-opacity:0"/>
				</radialGradient>
				<path fill-rule="evenodd" clip-rule="evenodd" fill="url(#SVGID_59_)" d="M222.9,420.8c0-0.2,0.2-0.3,0.6-0.4c0.4,0,0.9,0,1.5,0
					c0.5,0.1,0.9,0.2,1.3,0.4c0.4,0.2,0.6,0.4,0.6,0.6c0,0.2-0.3,0.3-0.7,0.4c-0.4,0.1-0.9,0.1-1.4,0.1c-0.5,0-1-0.2-1.4-0.4
					C223,421.2,222.9,421,222.9,420.8z"/>
			</g>
		</g>
		<g>
			
				<radialGradient id="SVGID_60_" cx="75.25" cy="140.7002" r="152.5375" gradientTransform="matrix(1.4223 0 0 0.2164 328.95 570.8113)" gradientUnits="userSpaceOnUse">
				<stop  offset="0" style="stop-color:#FFFFFF;stop-opacity:0.498"/>
				<stop  offset="1" style="stop-color:#FDFDFD;stop-opacity:0"/>
			</radialGradient>
			<path fill-rule="evenodd" clip-rule="evenodd" fill="url(#SVGID_60_)" d="M614.8,601.3c-0.1,0.1-0.3,0.1-0.5,0.1H148.3
				c-0.2,0-0.4,0-0.5-0.1s-0.2-0.2-0.2-0.2c0-0.1,0.1-0.3,0.2-0.4c0.1,0,0.3-0.1,0.5-0.1h465.9c0.2,0,0.4,0,0.5,0.1
				c0.1,0.1,0.1,0.2,0.1,0.4C614.9,601.1,614.9,601.2,614.8,601.3z"/>
		</g>
		<g>
			<g>
				
					<linearGradient id="SVGID_61_" gradientUnits="userSpaceOnUse" x1="64.2612" y1="150.3706" x2="209.8098" y2="147.7379" gradientTransform="matrix(1.4223 0 0 1.4223 328.95 401.1498)">
					<stop  offset="0" style="stop-color:#FFFFFF;stop-opacity:6.274509e-002"/>
					<stop  offset="0.5647" style="stop-color:#FDFDFD;stop-opacity:0"/>
					<stop  offset="1" style="stop-color:#FDFDFD;stop-opacity:0"/>
				</linearGradient>
				<path fill-rule="evenodd" clip-rule="evenodd" fill="url(#SVGID_61_)" d="M608.9,603.4v19.1H405.3c64.7-6.4,84-12.8,57.8-19.1
					H608.9z"/>
				
					<linearGradient id="SVGID_62_" gradientUnits="userSpaceOnUse" x1="123.5996" y1="198.8086" x2="14.7227" y2="136.4182" gradientTransform="matrix(1.4223 0 0 1.4223 328.95 401.1498)">
					<stop  offset="0.3294" style="stop-color:#FFFFFF;stop-opacity:6.666667e-002"/>
					<stop  offset="0.6627" style="stop-color:#FDFDFD;stop-opacity:0"/>
					<stop  offset="1" style="stop-color:#FDFDFD;stop-opacity:0"/>
				</linearGradient>
				<path fill-rule="evenodd" clip-rule="evenodd" fill="url(#SVGID_62_)" d="M400.6,623v0.4h-3.9C398,623.2,399.4,623,400.6,623z"
					/>
			</g>
		</g>
	</g>
	<g>
		<g>
			
				<radialGradient id="SVGID_63_" cx="189.2788" cy="-183.3384" r="1.0522" gradientTransform="matrix(0.321 1.3856 -6.9447 1.9094 -692.6467 682.028)" gradientUnits="userSpaceOnUse">
				<stop  offset="0" style="stop-color:#FFFFFF"/>
				<stop  offset="0.4078" style="stop-color:#FEFEFE;stop-opacity:0.1686"/>
				<stop  offset="0.8" style="stop-color:#FEFEFE;stop-opacity:0"/>
				<stop  offset="1" style="stop-color:#FAFAFA;stop-opacity:0"/>
			</radialGradient>
			<path fill-rule="evenodd" clip-rule="evenodd" fill="url(#SVGID_63_)" d="M645.5,591.9c1.4,0,2.2,0.1,2.3,0.5
				c0.1,0.4-0.5,0.9-1.8,1.6c-1.3,0.7-2.9,1.3-4.8,1.8c-1.9,0.5-3.6,0.8-5,0.9c-1.5,0.1-2.3,0-2.4-0.4c-0.1-0.4,0.6-0.9,2-1.7
				c1.2-0.6,2.8-1.1,4.8-1.6C642.4,592.4,644.1,592.1,645.5,591.9z"/>
		</g>
		<g>
			
				<radialGradient id="SVGID_64_" cx="220.75" cy="145.2002" r="1.7" gradientTransform="matrix(1.4223 0 0 2.5517 328.95 237.1533)" gradientUnits="userSpaceOnUse">
				<stop  offset="0" style="stop-color:#FFFFFF"/>
				<stop  offset="0.4078" style="stop-color:#FEFEFE;stop-opacity:0.1686"/>
				<stop  offset="0.8" style="stop-color:#FEFEFE;stop-opacity:0"/>
				<stop  offset="1" style="stop-color:#FAFAFA;stop-opacity:0"/>
			</radialGradient>
			<path fill-rule="evenodd" clip-rule="evenodd" fill="url(#SVGID_64_)" d="M644.6,605c0.5,0.9,0.7,1.8,0.7,2.9
				c0,1.1-0.2,2.1-0.7,2.8c-0.5,0.9-1.1,1.3-1.7,1.3c-0.6,0-1.2-0.4-1.7-1.3c-0.4-0.8-0.6-1.7-0.6-2.8c0-1.1,0.2-2.1,0.6-2.9
				c0.5-0.8,1.1-1.2,1.7-1.2C643.5,603.8,644.1,604.2,644.6,605z"/>
		</g>
		<g>
			
				<radialGradient id="SVGID_65_" cx="203.8501" cy="142.75" r="2.425" gradientTransform="matrix(1.4223 0 0 3.2478 328.95 140.5607)" gradientUnits="userSpaceOnUse">
				<stop  offset="0" style="stop-color:#FFFFFF"/>
				<stop  offset="0.4078" style="stop-color:#FEFEFE;stop-opacity:0.1686"/>
				<stop  offset="0.8" style="stop-color:#FEFEFE;stop-opacity:0"/>
				<stop  offset="1" style="stop-color:#FAFAFA;stop-opacity:0"/>
			</radialGradient>
			<path fill-rule="evenodd" clip-rule="evenodd" fill="url(#SVGID_65_)" d="M622.4,604.7c0,2.1-0.4,3.8-1.1,5.2
				c-0.7,1.6-1.5,2.3-2.4,2.3c-0.9,0-1.7-0.8-2.4-2.3c-0.6-1.4-0.9-3.1-0.9-5.2c0-2,0.3-3.8,0.9-5.3c0.7-1.5,1.5-2.2,2.4-2.2
				c0.9,0,1.7,0.7,2.4,2.2C622,601,622.4,602.8,622.4,604.7z"/>
		</g>
	</g>
	<g>
		<g>
			<path fill-rule="evenodd" clip-rule="evenodd" d="M497.7,527.9h-3.8h-25.7H225.1h-1.8c-0.4-0.2-0.7-0.5-1.1-1.1
				c-0.4-0.9-0.6-2-0.4-3.2c0.1-1.3,0.6-2.4,1.3-3.3c0.7-0.9,1.4-1.3,2.2-1.4h242.9h25.7h3.8h17.8h9.2c0.8,0,1.5,0.5,2.2,1.4
				c0.7,0.9,1.1,2,1.3,3.3c0.1,1.2,0,2.3-0.4,3.2c-0.3,0.5-0.7,0.9-1.1,1.1h-1.8h-9.3H497.7z"/>
		</g>
		<g>
			
				<linearGradient id="SVGID_66_" gradientUnits="userSpaceOnUse" x1="32.311" y1="71.167" x2="32.3744" y2="88.267" gradientTransform="matrix(1.4223 0 0 1.4223 328.95 401.1498)">
				<stop  offset="0" style="stop-color:#16171B"/>
				<stop  offset="9.803922e-002" style="stop-color:#595E61"/>
				<stop  offset="0.2196" style="stop-color:#77848D"/>
				<stop  offset="0.3059" style="stop-color:#FAFBFF"/>
				<stop  offset="0.3608" style="stop-color:#FFFFFF"/>
				<stop  offset="0.4314" style="stop-color:#A4ADE4"/>
				<stop  offset="0.502" style="stop-color:#555C8A"/>
				<stop  offset="0.6196" style="stop-color:#565B6F"/>
				<stop  offset="0.7373" style="stop-color:#353A3E"/>
				<stop  offset="1" style="stop-color:#0F1012"/>
			</linearGradient>
			<path fill-rule="evenodd" clip-rule="evenodd" fill="url(#SVGID_66_)" d="M497.7,526.3h-3.8h-25.7H225.1h-1.8
				c-0.4-0.5-0.7-1.5-1.1-3c-0.4-2.4-0.6-5.2-0.4-8.4c0.1-3.4,0.6-6.3,1.3-8.7c0.7-2.3,1.4-3.4,2.2-3.5h242.9h25.7h3.8h17.8h9.2
				c0.8,0,1.5,1.2,2.2,3.5c0.7,2.4,1.1,5.3,1.3,8.7c0.1,3.3,0,6.1-0.4,8.4c-0.3,1.4-0.7,2.4-1.1,3h-1.8h-9.3H497.7z"/>
		</g>
		<g>
			<g>
				
					<radialGradient id="SVGID_67_" cx="-139.8501" cy="-75.6499" r="4.425" gradientTransform="matrix(-1.4223 0 0 2.7441 328.9494 716.3366)" gradientUnits="userSpaceOnUse">
					<stop  offset="0" style="stop-color:#FFFFFF;stop-opacity:0.4824"/>
					<stop  offset="0.3373" style="stop-color:#FFFFFF;stop-opacity:0"/>
					<stop  offset="1" style="stop-color:#FFFFFF;stop-opacity:0"/>
				</radialGradient>
				<path fill-rule="evenodd" clip-rule="evenodd" fill="url(#SVGID_67_)" d="M525.9,503.3c0-0.1,0-0.2,0.1-0.3s0.2-0.1,0.4-0.1
					c0.1,0,0.3,0.1,0.4,0.2c0.5,0.6,0.9,1.6,1.3,3c0.8,2.5,1.2,5.4,1.4,8.8c0.1,3.2,0,6-0.4,8.5c-0.2,0.8-0.4,1.5-0.6,2.1
					c0,0.1-0.1,0.2-0.2,0.2c-0.1,0.1-0.3,0.1-0.4,0.1c-0.1,0-0.2-0.1-0.3-0.3c0-0.1-0.1-0.3-0.1-0.4c0.2-0.5,0.4-1.2,0.6-1.9
					c0.4-2.4,0.6-5.2,0.5-8.3c-0.2-3.3-0.6-6.2-1.4-8.5c-0.3-1.2-0.7-2.1-1.1-2.7C525.8,503.6,525.8,503.5,525.9,503.3z"/>
				
					<radialGradient id="SVGID_68_" cx="-75.1001" cy="75.6499" r="4.425" gradientTransform="matrix(1.4223 0 0 2.7441 328.95 301.1536)" gradientUnits="userSpaceOnUse">
					<stop  offset="0" style="stop-color:#FFFFFF"/>
					<stop  offset="0.3373" style="stop-color:#FFFFFF;stop-opacity:0"/>
					<stop  offset="1" style="stop-color:#FFFFFF;stop-opacity:0"/>
				</radialGradient>
				<path fill-rule="evenodd" clip-rule="evenodd" fill="url(#SVGID_68_)" d="M221.9,506.1c0.4-1.4,0.9-2.4,1.4-3
					c0.1-0.1,0.2-0.2,0.3-0.2c0.1,0,0.3,0,0.4,0.1c0.1,0.1,0.2,0.2,0.2,0.3c0,0.1,0,0.3-0.1,0.4c-0.4,0.6-0.8,1.5-1.2,2.7
					c-0.7,2.4-1.1,5.2-1.3,8.5c-0.1,3.1,0,5.9,0.5,8.3c0.1,0.8,0.3,1.4,0.5,1.9c0,0.1,0,0.2,0,0.4c-0.1,0.1-0.2,0.2-0.3,0.3
					c-0.1,0-0.3,0-0.4-0.1c-0.1,0-0.2-0.1-0.3-0.2c-0.2-0.6-0.4-1.3-0.6-2.1c-0.4-2.5-0.6-5.4-0.5-8.5
					C220.8,511.5,221.2,508.6,221.9,506.1z"/>
			</g>
		</g>
		<g>
			
				<radialGradient id="SVGID_69_" cx="-74.5" cy="78.8623" r="6.9506" gradientTransform="matrix(1.4223 0 0 1.4223 328.95 401.1498)" gradientUnits="userSpaceOnUse">
				<stop  offset="0" style="stop-color:#0C0C0C"/>
				<stop  offset="1" style="stop-color:#000000;stop-opacity:0"/>
			</radialGradient>
			<path fill-rule="evenodd" clip-rule="evenodd" fill="url(#SVGID_69_)" d="M223,506.1c0.3-1.1,0.7-2,1.1-2.6c0,0,0.1-0.1,0.1-0.1
				c0,0,0,0,0.1,0c0,0,0,0.1,0.1,0.1c0,0,0,0.1-0.1,0.1c-0.4,0.6-0.7,1.4-1,2.6c-0.8,2.4-1.2,5.3-1.4,8.7c-0.1,3,0,5.8,0.4,8.2
				c0,0,0,0.1-0.1,0.1s-0.1,0-0.1,0.1c0,0-0.1,0-0.1-0.1h-0.1c-0.4-2.5-0.6-5.2-0.4-8.2C221.8,511.5,222.2,508.6,223,506.1z"/>
		</g>
		<g>
			
				<radialGradient id="SVGID_70_" cx="-52.6548" cy="79.0088" r="0.7509" gradientTransform="matrix(1.4205 7.102486e-002 -0.4972 1.7993 337.5664 369.9686)" gradientUnits="userSpaceOnUse">
				<stop  offset="0" style="stop-color:#FFFFFF"/>
				<stop  offset="0.4392" style="stop-color:#FEFEFE"/>
				<stop  offset="1" style="stop-color:#FAFAFA;stop-opacity:0"/>
			</radialGradient>
			<path fill-rule="evenodd" clip-rule="evenodd" fill="url(#SVGID_70_)" d="M226,508.7c-0.1,0.5-0.5,0.9-0.9,1.1
				c-0.6,0.3-1.1,0.4-1.6,0.4c-0.5,0-0.9-0.2-1.3-0.6c-0.3-0.4-0.4-0.8-0.3-1.2c0.1-0.4,0.5-0.8,1-1.1c0.5-0.2,1-0.4,1.5-0.4
				s1,0.2,1.4,0.6C226,507.9,226.1,508.2,226,508.7z"/>
		</g>
		<g>
			
				<radialGradient id="SVGID_71_" cx="-116.7012" cy="-82.2471" r="0.7509" gradientTransform="matrix(-1.4205 7.102486e-002 0.4972 1.7993 401.7643 664.6655)" gradientUnits="userSpaceOnUse">
				<stop  offset="0" style="stop-color:#FFFFFF"/>
				<stop  offset="0.4392" style="stop-color:#FEFEFE"/>
				<stop  offset="1" style="stop-color:#FAFAFA;stop-opacity:0"/>
			</radialGradient>
			<path fill-rule="evenodd" clip-rule="evenodd" fill="url(#SVGID_71_)" d="M524.2,508.7c-0.1-0.4,0-0.8,0.3-1.1
				c0.4-0.4,0.8-0.6,1.4-0.6c0.6,0,1.1,0.1,1.6,0.4c0.5,0.3,0.8,0.7,0.9,1.1c0.1,0.4,0,0.8-0.3,1.2c-0.3,0.3-0.7,0.5-1.3,0.6
				c-0.5,0-1-0.1-1.6-0.4C524.6,509.5,524.3,509.1,524.2,508.7z"/>
		</g>
	</g>
	<g>
		
			<linearGradient id="SVGID_72_" gradientUnits="userSpaceOnUse" x1="32.2891" y1="133.7881" x2="32.2617" y2="138.9131" gradientTransform="matrix(1.4223 0 0 1.4223 328.95 401.1498)">
			<stop  offset="0" style="stop-color:#000000"/>
			<stop  offset="1" style="stop-color:#000000;stop-opacity:0"/>
		</linearGradient>
		<path fill-rule="evenodd" clip-rule="evenodd" fill="url(#SVGID_72_)" d="M616.7,597.3c-0.4,0.6-0.9,0.9-1.7,0.9H136.2
			c-0.8,0-1.5-0.3-2.1-0.9c-0.7-0.6-1.1-1.4-1.3-2.2s-0.1-1.6,0.3-2.1c0.4-0.6,0.9-0.9,1.7-0.9h478.8c0.8,0,1.5,0.3,2.1,0.9
			c0.7,0.6,1.1,1.3,1.3,2.1S617.1,596.7,616.7,597.3z"/>
	</g>
	<g>
		<g>
			<g>
				
					<linearGradient id="SVGID_73_" gradientUnits="userSpaceOnUse" x1="-111.5684" y1="127.2378" x2="210.4209" y2="141.8268" gradientTransform="matrix(1.4223 0 0 1.4223 328.95 401.1498)">
					<stop  offset="1.568628e-002" style="stop-color:#090806"/>
					<stop  offset="1" style="stop-color:#45413E"/>
				</linearGradient>
				<path fill-rule="evenodd" clip-rule="evenodd" fill="url(#SVGID_73_)" d="M132.4,590.2h441.5h44.7v2.8h-44.7l-441.5-0.4
					C132.4,592,132.4,591.2,132.4,590.2z"/>
				
					<linearGradient id="SVGID_74_" gradientUnits="userSpaceOnUse" x1="-127.625" y1="124.1748" x2="194.225" y2="124.1748" gradientTransform="matrix(1.4223 0 0 1.4223 328.95 401.1498)">
					<stop  offset="0" style="stop-color:#858889"/>
					<stop  offset="6.666666e-002" style="stop-color:#C2C8CD"/>
					<stop  offset="0.3137" style="stop-color:#E8ECF5"/>
					<stop  offset="0.4863" style="stop-color:#A7AEB9"/>
					<stop  offset="0.6" style="stop-color:#B5BCC6"/>
					<stop  offset="0.7255" style="stop-color:#F3F6FF"/>
					<stop  offset="0.8941" style="stop-color:#FFFFFF"/>
					<stop  offset="1" style="stop-color:#E6EAF3"/>
				</linearGradient>
				<polygon fill-rule="evenodd" clip-rule="evenodd" fill="url(#SVGID_74_)" points="618.5,590.2 573.9,590.2 132.4,590.2 
					141.9,565.4 573.9,565.4 610.9,565.4 				"/>
			</g>
		</g>
		<g>
			<g>
				<path fill="#333333" d="M238.9,578.9h-1.6v-0.3h0.6v-1.9h-0.6v-0.3c0.1,0,0.2,0,0.3,0c0.1,0,0.2,0,0.2-0.1
					c0.1,0,0.1-0.1,0.1-0.1c0,0,0.1-0.1,0.1-0.2h0.3v2.6h0.6V578.9z"/>
			</g>
			<g>
				<path fill="#333333" d="M253.8,578.9h-1.9v-0.4c0.1-0.1,0.3-0.2,0.4-0.3c0.1-0.1,0.3-0.2,0.4-0.3c0.2-0.2,0.4-0.4,0.5-0.6
					c0.1-0.1,0.1-0.3,0.1-0.5c0-0.1,0-0.3-0.1-0.3c-0.1-0.1-0.2-0.1-0.4-0.1c-0.1,0-0.2,0-0.4,0.1c-0.1,0-0.3,0.1-0.4,0.2h0v-0.4
					c0.1,0,0.2-0.1,0.4-0.1s0.3-0.1,0.4-0.1c0.3,0,0.5,0.1,0.7,0.2s0.3,0.3,0.3,0.6c0,0.1,0,0.2,0,0.3c0,0.1-0.1,0.2-0.1,0.3
					c-0.1,0.1-0.1,0.2-0.2,0.2c-0.1,0.1-0.1,0.2-0.2,0.3c-0.1,0.1-0.3,0.3-0.4,0.4s-0.3,0.2-0.4,0.4h1.5V578.9z"/>
			</g>
			<g>
				<path fill="#333333" d="M268.4,577.5c0.1,0.1,0.1,0.1,0.2,0.2c0,0.1,0.1,0.2,0.1,0.3s0,0.3-0.1,0.4c0,0.1-0.1,0.2-0.2,0.3
					c-0.1,0.1-0.2,0.2-0.3,0.2c-0.1,0-0.3,0.1-0.4,0.1c-0.2,0-0.3,0-0.5-0.1s-0.3-0.1-0.4-0.1v-0.4h0c0.1,0.1,0.2,0.1,0.4,0.2
					c0.1,0,0.3,0.1,0.4,0.1c0.1,0,0.2,0,0.3,0c0.1,0,0.2-0.1,0.2-0.1c0.1-0.1,0.1-0.1,0.1-0.2s0-0.2,0-0.3s0-0.2,0-0.3
					s-0.1-0.1-0.1-0.2c-0.1,0-0.1-0.1-0.2-0.1c-0.1,0-0.2,0-0.3,0h-0.2v-0.3h0.1c0.2,0,0.4,0,0.5-0.1c0.1-0.1,0.2-0.2,0.2-0.4
					c0-0.1,0-0.1,0-0.2c0-0.1-0.1-0.1-0.1-0.1c-0.1,0-0.1-0.1-0.2-0.1s-0.1,0-0.2,0c-0.1,0-0.3,0-0.4,0.1c-0.1,0-0.3,0.1-0.4,0.2h0
					v-0.4c0.1,0,0.2-0.1,0.4-0.1s0.3-0.1,0.4-0.1c0.1,0,0.3,0,0.4,0c0.1,0,0.2,0.1,0.3,0.1c0.1,0.1,0.2,0.1,0.2,0.2
					c0,0.1,0.1,0.2,0.1,0.3c0,0.2-0.1,0.3-0.2,0.4c-0.1,0.1-0.2,0.2-0.4,0.2v0c0.1,0,0.1,0,0.2,0.1
					C268.2,577.4,268.3,577.5,268.4,577.5z"/>
			</g>
			<g>
				<path fill="#333333" d="M283.4,578.1h-0.4v0.8h-0.4v-0.8h-1.4v-0.4l1.4-1.6h0.4v1.8h0.4V578.1z M282.6,577.8v-1.3l-1.1,1.3
					H282.6z"/>
			</g>
			<g>
				<path fill="#333333" d="M297.9,578c0,0.1,0,0.3-0.1,0.4s-0.1,0.2-0.2,0.3c-0.1,0.1-0.2,0.2-0.3,0.2c-0.1,0-0.3,0.1-0.4,0.1
					c-0.2,0-0.3,0-0.5,0c-0.1,0-0.3-0.1-0.4-0.1v-0.4h0c0.1,0.1,0.2,0.1,0.4,0.2c0.1,0,0.3,0.1,0.4,0.1c0.1,0,0.2,0,0.3,0
					s0.2-0.1,0.2-0.1c0.1-0.1,0.1-0.1,0.1-0.2c0-0.1,0-0.2,0-0.3c0-0.1,0-0.2-0.1-0.3c0-0.1-0.1-0.1-0.1-0.2c-0.1,0-0.1-0.1-0.2-0.1
					s-0.2,0-0.3,0c-0.1,0-0.2,0-0.3,0s-0.2,0-0.3,0V576h1.7v0.3h-1.4v0.8c0.1,0,0.1,0,0.2,0c0.1,0,0.1,0,0.2,0c0.2,0,0.3,0,0.4,0
					s0.2,0.1,0.3,0.1c0.1,0.1,0.2,0.2,0.2,0.3C297.9,577.7,297.9,577.8,297.9,578z"/>
			</g>
			<g>
				<path fill="#333333" d="M313.3,578c0,0.3-0.1,0.5-0.3,0.7c-0.2,0.2-0.4,0.3-0.7,0.3c-0.1,0-0.3,0-0.4-0.1s-0.2-0.1-0.3-0.2
					c-0.1-0.1-0.2-0.2-0.3-0.4c-0.1-0.2-0.1-0.4-0.1-0.6c0-0.3,0-0.5,0.1-0.7c0.1-0.2,0.1-0.4,0.3-0.5c0.1-0.1,0.3-0.3,0.4-0.3
					c0.2-0.1,0.4-0.1,0.6-0.1c0.1,0,0.1,0,0.2,0c0.1,0,0.1,0,0.2,0v0.4h0c0,0-0.1,0-0.2-0.1c-0.1,0-0.1,0-0.2,0
					c-0.3,0-0.5,0.1-0.7,0.3s-0.3,0.4-0.3,0.7c0.1-0.1,0.2-0.1,0.3-0.1s0.2-0.1,0.4-0.1c0.1,0,0.2,0,0.3,0s0.2,0.1,0.3,0.1
					c0.1,0.1,0.2,0.2,0.3,0.3C313.3,577.6,313.3,577.8,313.3,578z M312.9,578c0-0.1,0-0.2-0.1-0.3c0-0.1-0.1-0.1-0.2-0.2
					c-0.1,0-0.1-0.1-0.2-0.1c-0.1,0-0.1,0-0.2,0c-0.1,0-0.2,0-0.3,0c-0.1,0-0.2,0.1-0.3,0.1c0,0,0,0.1,0,0.1c0,0,0,0.1,0,0.1
					c0,0.2,0,0.4,0.1,0.5c0,0.1,0.1,0.2,0.2,0.3c0.1,0.1,0.1,0.1,0.2,0.1s0.1,0,0.2,0c0.2,0,0.3-0.1,0.4-0.2
					C312.9,578.4,312.9,578.2,312.9,578z"/>
			</g>
			<g>
				<path fill="#333333" d="M327.6,576.5l-1.3,2.4h-0.4l1.4-2.5h-1.6V576h2V576.5z"/>
			</g>
			<g>
				<path fill="#333333" d="M342.4,578.1c0,0.2-0.1,0.5-0.3,0.6c-0.2,0.2-0.4,0.2-0.7,0.2c-0.3,0-0.6-0.1-0.7-0.2
					c-0.2-0.2-0.3-0.4-0.3-0.6c0-0.2,0-0.3,0.1-0.4c0.1-0.1,0.2-0.2,0.4-0.3v0c-0.2-0.1-0.3-0.2-0.3-0.3c-0.1-0.1-0.1-0.2-0.1-0.4
					c0-0.2,0.1-0.4,0.3-0.5c0.2-0.1,0.4-0.2,0.7-0.2c0.3,0,0.5,0.1,0.7,0.2c0.2,0.1,0.3,0.3,0.3,0.5c0,0.1,0,0.3-0.1,0.4
					s-0.2,0.2-0.4,0.3v0c0.2,0.1,0.3,0.2,0.4,0.3C342.4,577.8,342.4,577.9,342.4,578.1z M342,578.1c0-0.1,0-0.2-0.1-0.3
					c-0.1-0.1-0.2-0.1-0.3-0.2c-0.1,0-0.1-0.1-0.2-0.1c-0.1,0-0.2-0.1-0.3-0.1c-0.1,0.1-0.2,0.1-0.3,0.3c-0.1,0.1-0.1,0.2-0.1,0.4
					c0,0.2,0.1,0.3,0.2,0.4s0.3,0.2,0.5,0.2c0.2,0,0.3,0,0.5-0.1C342,578.4,342,578.3,342,578.1z M342,576.7c0-0.1-0.1-0.2-0.2-0.3
					c-0.1-0.1-0.2-0.1-0.4-0.1c-0.2,0-0.3,0-0.4,0.1s-0.2,0.2-0.2,0.3c0,0.1,0,0.2,0.1,0.2c0.1,0.1,0.1,0.1,0.2,0.2
					c0,0,0.1,0.1,0.2,0.1s0.2,0.1,0.3,0.1c0.1-0.1,0.2-0.2,0.3-0.3S342,576.8,342,576.7z"/>
			</g>
			<g>
				<path fill="#333333" d="M357.3,577.3c0,0.3,0,0.5-0.1,0.7c-0.1,0.2-0.1,0.4-0.3,0.5c-0.1,0.1-0.3,0.3-0.4,0.3
					c-0.2,0.1-0.4,0.1-0.6,0.1c-0.1,0-0.1,0-0.2,0c-0.1,0-0.1,0-0.2,0v-0.4h0c0,0,0.1,0,0.2,0.1s0.1,0,0.2,0c0.3,0,0.5-0.1,0.7-0.3
					s0.3-0.4,0.3-0.7c-0.1,0.1-0.2,0.1-0.3,0.2c-0.1,0-0.2,0-0.3,0c-0.1,0-0.2,0-0.3,0s-0.2-0.1-0.3-0.1c-0.1-0.1-0.2-0.2-0.3-0.3
					s-0.1-0.3-0.1-0.4c0-0.3,0.1-0.5,0.3-0.7c0.2-0.2,0.4-0.3,0.7-0.3c0.1,0,0.3,0,0.4,0.1s0.2,0.1,0.3,0.2c0.1,0.1,0.2,0.2,0.3,0.4
					C357.2,576.8,357.3,577,357.3,577.3z M356.9,577.2c0-0.2,0-0.4-0.1-0.5s-0.1-0.2-0.2-0.3c-0.1-0.1-0.1-0.1-0.2-0.1s-0.1,0-0.2,0
					c-0.2,0-0.3,0.1-0.4,0.2c-0.1,0.1-0.2,0.3-0.2,0.5c0,0.1,0,0.2,0.1,0.3c0,0.1,0.1,0.1,0.2,0.2c0.1,0,0.1,0.1,0.2,0.1
					s0.1,0,0.2,0c0.1,0,0.2,0,0.3,0c0.1,0,0.2-0.1,0.3-0.1c0,0,0-0.1,0-0.1S356.9,577.2,356.9,577.2z"/>
			</g>
			<g>
				<path fill="#333333" d="M369.2,578.9h-1.6v-0.3h0.6v-1.9h-0.6v-0.3c0.1,0,0.2,0,0.3,0c0.1,0,0.2,0,0.2-0.1
					c0.1,0,0.1-0.1,0.1-0.1c0,0,0.1-0.1,0.1-0.2h0.3v2.6h0.6V578.9z"/>
				<path fill="#333333" d="M371.9,577.5c0,0.5-0.1,0.9-0.2,1.1c-0.2,0.2-0.4,0.4-0.8,0.4c-0.3,0-0.6-0.1-0.8-0.4
					c-0.2-0.2-0.2-0.6-0.2-1.1c0-0.5,0.1-0.9,0.2-1.1c0.2-0.2,0.4-0.4,0.8-0.4c0.3,0,0.6,0.1,0.8,0.4
					C371.8,576.6,371.9,577,371.9,577.5z M371.4,578.3c0-0.1,0.1-0.2,0.1-0.4c0-0.1,0-0.3,0-0.5c0-0.2,0-0.4,0-0.5
					c0-0.1,0-0.3-0.1-0.4c0-0.1-0.1-0.2-0.2-0.2c-0.1-0.1-0.2-0.1-0.3-0.1c-0.1,0-0.2,0-0.3,0.1c-0.1,0-0.1,0.1-0.2,0.2
					c0,0.1-0.1,0.2-0.1,0.4c0,0.2,0,0.3,0,0.5c0,0.2,0,0.4,0,0.5c0,0.1,0,0.3,0.1,0.4c0,0.1,0.1,0.2,0.2,0.2
					c0.1,0.1,0.2,0.1,0.3,0.1c0.1,0,0.2,0,0.3-0.1C371.3,578.5,371.3,578.4,371.4,578.3z"/>
			</g>
			<g>
				<path fill="#333333" d="M384.6,578.9h-1.6v-0.3h0.6v-1.9h-0.6v-0.3c0.1,0,0.2,0,0.3,0c0.1,0,0.2,0,0.2-0.1
					c0.1,0,0.1-0.1,0.1-0.1c0,0,0.1-0.1,0.1-0.2h0.3v2.6h0.6V578.9z"/>
				<path fill="#333333" d="M387.1,578.9h-1.6v-0.3h0.6v-1.9h-0.6v-0.3c0.1,0,0.2,0,0.3,0c0.1,0,0.2,0,0.2-0.1
					c0.1,0,0.1-0.1,0.1-0.1c0,0,0.1-0.1,0.1-0.2h0.3v2.6h0.6V578.9z"/>
			</g>
			<g>
				<path fill="#333333" d="M399.2,578.9h-1.6v-0.3h0.6v-1.9h-0.6v-0.3c0.1,0,0.2,0,0.3,0c0.1,0,0.2,0,0.2-0.1
					c0.1,0,0.1-0.1,0.1-0.1c0,0,0.1-0.1,0.1-0.2h0.3v2.6h0.6V578.9z"/>
				<path fill="#333333" d="M401.8,578.9h-1.9v-0.4c0.1-0.1,0.3-0.2,0.4-0.3c0.1-0.1,0.3-0.2,0.4-0.3c0.2-0.2,0.4-0.4,0.5-0.6
					c0.1-0.1,0.1-0.3,0.1-0.5c0-0.1,0-0.3-0.1-0.3s-0.2-0.1-0.4-0.1c-0.1,0-0.2,0-0.4,0.1c-0.1,0-0.3,0.1-0.4,0.2h0v-0.4
					c0.1,0,0.2-0.1,0.4-0.1s0.3-0.1,0.4-0.1c0.3,0,0.5,0.1,0.7,0.2s0.3,0.3,0.3,0.6c0,0.1,0,0.2,0,0.3c0,0.1-0.1,0.2-0.1,0.3
					c0,0.1-0.1,0.2-0.2,0.2s-0.1,0.2-0.2,0.3c-0.1,0.1-0.3,0.3-0.4,0.4s-0.3,0.2-0.4,0.4h1.5V578.9z"/>
			</g>
			<g>
				<path fill="#333333" d="M414,578.9h-1.6v-0.3h0.6v-1.9h-0.6v-0.3c0.1,0,0.2,0,0.3,0c0.1,0,0.2,0,0.2-0.1c0.1,0,0.1-0.1,0.1-0.1
					c0,0,0.1-0.1,0.1-0.2h0.3v2.6h0.6V578.9z"/>
				<path fill="#333333" d="M416.4,577.5c0.1,0.1,0.1,0.1,0.2,0.2c0,0.1,0.1,0.2,0.1,0.3s0,0.3-0.1,0.4c0,0.1-0.1,0.2-0.2,0.3
					c-0.1,0.1-0.2,0.2-0.3,0.2c-0.1,0-0.3,0.1-0.4,0.1c-0.2,0-0.3,0-0.5-0.1s-0.3-0.1-0.4-0.1v-0.4h0c0.1,0.1,0.2,0.1,0.4,0.2
					c0.1,0,0.3,0.1,0.4,0.1c0.1,0,0.2,0,0.3,0c0.1,0,0.2-0.1,0.2-0.1c0.1-0.1,0.1-0.1,0.1-0.2c0-0.1,0-0.2,0-0.3s0-0.2,0-0.3
					c0-0.1-0.1-0.1-0.1-0.2c-0.1,0-0.1-0.1-0.2-0.1s-0.2,0-0.3,0h-0.2v-0.3h0.1c0.2,0,0.4,0,0.5-0.1c0.1-0.1,0.2-0.2,0.2-0.4
					c0-0.1,0-0.1,0-0.2c0-0.1-0.1-0.1-0.1-0.1c-0.1,0-0.1-0.1-0.2-0.1c-0.1,0-0.1,0-0.2,0c-0.1,0-0.3,0-0.4,0.1
					c-0.1,0-0.3,0.1-0.4,0.2h0v-0.4c0.1,0,0.2-0.1,0.4-0.1s0.3-0.1,0.4-0.1c0.1,0,0.3,0,0.4,0c0.1,0,0.2,0.1,0.3,0.1
					c0.1,0.1,0.2,0.1,0.2,0.2c0,0.1,0.1,0.2,0.1,0.3c0,0.2-0.1,0.3-0.2,0.4c-0.1,0.1-0.2,0.2-0.4,0.2v0c0.1,0,0.1,0,0.2,0.1
					C416.3,577.4,416.4,577.5,416.4,577.5z"/>
			</g>
			<g>
				<path fill="#333333" d="M428.7,578.9h-1.6v-0.3h0.6v-1.9h-0.6v-0.3c0.1,0,0.2,0,0.3,0c0.1,0,0.2,0,0.2-0.1
					c0.1,0,0.1-0.1,0.1-0.1c0,0,0.1-0.1,0.1-0.2h0.3v2.6h0.6V578.9z"/>
				<path fill="#333333" d="M431.4,578.1H431v0.8h-0.4v-0.8h-1.4v-0.4l1.4-1.6h0.4v1.8h0.4V578.1z M430.6,577.8v-1.3l-1.1,1.3H430.6
					z"/>
			</g>
			<g>
				<path fill="#333333" d="M443.7,578.9h-1.6v-0.3h0.6v-1.9h-0.6v-0.3c0.1,0,0.2,0,0.3,0c0.1,0,0.2,0,0.2-0.1
					c0.1,0,0.1-0.1,0.1-0.1c0,0,0.1-0.1,0.1-0.2h0.3v2.6h0.6V578.9z"/>
				<path fill="#333333" d="M446.3,578c0,0.1,0,0.3-0.1,0.4s-0.1,0.2-0.2,0.3c-0.1,0.1-0.2,0.2-0.3,0.2c-0.1,0-0.3,0.1-0.4,0.1
					c-0.2,0-0.3,0-0.5,0c-0.1,0-0.3-0.1-0.4-0.1v-0.4h0c0.1,0.1,0.2,0.1,0.4,0.2s0.3,0.1,0.4,0.1c0.1,0,0.2,0,0.3,0
					c0.1,0,0.2-0.1,0.2-0.1c0.1-0.1,0.1-0.1,0.1-0.2c0-0.1,0-0.2,0-0.3c0-0.1,0-0.2-0.1-0.3c0-0.1-0.1-0.1-0.1-0.2
					c-0.1,0-0.1-0.1-0.2-0.1s-0.2,0-0.3,0c-0.1,0-0.2,0-0.3,0s-0.2,0-0.3,0V576h1.7v0.3h-1.4v0.8c0.1,0,0.1,0,0.2,0
					c0.1,0,0.1,0,0.2,0c0.2,0,0.3,0,0.4,0s0.2,0.1,0.3,0.1c0.1,0.1,0.2,0.2,0.2,0.3C446.3,577.7,446.3,577.8,446.3,578z"/>
			</g>
			<g>
				<path fill="#333333" d="M458.5,578.9H457v-0.3h0.6v-1.9H457v-0.3c0.1,0,0.2,0,0.3,0c0.1,0,0.2,0,0.2-0.1c0.1,0,0.1-0.1,0.1-0.1
					c0,0,0.1-0.1,0.1-0.2h0.3v2.6h0.6V578.9z"/>
				<path fill="#333333" d="M461.2,578c0,0.3-0.1,0.5-0.3,0.7c-0.2,0.2-0.4,0.3-0.7,0.3c-0.1,0-0.3,0-0.4-0.1
					c-0.1,0-0.2-0.1-0.3-0.2c-0.1-0.1-0.2-0.2-0.3-0.4c-0.1-0.2-0.1-0.4-0.1-0.6c0-0.3,0-0.5,0.1-0.7c0.1-0.2,0.1-0.4,0.3-0.5
					c0.1-0.1,0.3-0.3,0.4-0.3c0.2-0.1,0.4-0.1,0.6-0.1c0.1,0,0.1,0,0.2,0c0.1,0,0.1,0,0.2,0v0.4h0c0,0-0.1,0-0.2-0.1
					c-0.1,0-0.1,0-0.2,0c-0.3,0-0.5,0.1-0.7,0.3c-0.2,0.2-0.3,0.4-0.3,0.7c0.1-0.1,0.2-0.1,0.3-0.1s0.2-0.1,0.4-0.1
					c0.1,0,0.2,0,0.3,0c0.1,0,0.2,0.1,0.3,0.1c0.1,0.1,0.2,0.2,0.3,0.3C461.2,577.6,461.2,577.8,461.2,578z M460.8,578
					c0-0.1,0-0.2-0.1-0.3c0-0.1-0.1-0.1-0.2-0.2c-0.1,0-0.1-0.1-0.2-0.1c-0.1,0-0.1,0-0.2,0c-0.1,0-0.2,0-0.3,0
					c-0.1,0-0.2,0.1-0.3,0.1c0,0,0,0.1,0,0.1c0,0,0,0.1,0,0.1c0,0.2,0,0.4,0.1,0.5c0,0.1,0.1,0.2,0.2,0.3c0.1,0.1,0.1,0.1,0.2,0.1
					c0.1,0,0.1,0,0.2,0c0.2,0,0.3-0.1,0.4-0.2C460.8,578.4,460.8,578.2,460.8,578z"/>
			</g>
			<g>
				<path fill="#333333" d="M473.4,578.9h-1.6v-0.3h0.6v-1.9h-0.6v-0.3c0.1,0,0.2,0,0.3,0c0.1,0,0.2,0,0.2-0.1
					c0.1,0,0.1-0.1,0.1-0.1c0,0,0.1-0.1,0.1-0.2h0.3v2.6h0.6V578.9z"/>
				<path fill="#333333" d="M476,576.5l-1.3,2.4h-0.4l1.4-2.5h-1.6V576h2V576.5z"/>
			</g>
			<g>
				<path fill="#333333" d="M487.7,578.9h-1.6v-0.3h0.6v-1.9h-0.6v-0.3c0.1,0,0.2,0,0.3,0c0.1,0,0.2,0,0.2-0.1
					c0.1,0,0.1-0.1,0.1-0.1c0,0,0.1-0.1,0.1-0.2h0.3v2.6h0.6V578.9z"/>
				<path fill="#333333" d="M490.4,578.1c0,0.2-0.1,0.5-0.3,0.6c-0.2,0.2-0.4,0.2-0.7,0.2c-0.3,0-0.6-0.1-0.7-0.2
					c-0.2-0.2-0.3-0.4-0.3-0.6c0-0.2,0-0.3,0.1-0.4c0.1-0.1,0.2-0.2,0.4-0.3v0c-0.2-0.1-0.3-0.2-0.3-0.3c-0.1-0.1-0.1-0.2-0.1-0.4
					c0-0.2,0.1-0.4,0.3-0.5c0.2-0.1,0.4-0.2,0.7-0.2c0.3,0,0.5,0.1,0.7,0.2s0.3,0.3,0.3,0.5c0,0.1,0,0.3-0.1,0.4
					c-0.1,0.1-0.2,0.2-0.4,0.3v0c0.2,0.1,0.3,0.2,0.4,0.3C490.3,577.8,490.4,577.9,490.4,578.1z M490,578.1c0-0.1,0-0.2-0.1-0.3
					s-0.2-0.1-0.3-0.2c-0.1,0-0.1-0.1-0.2-0.1s-0.2-0.1-0.3-0.1c-0.1,0.1-0.2,0.1-0.3,0.3c-0.1,0.1-0.1,0.2-0.1,0.4
					c0,0.2,0.1,0.3,0.2,0.4c0.1,0.1,0.3,0.2,0.5,0.2c0.2,0,0.3,0,0.5-0.1C489.9,578.4,490,578.3,490,578.1z M489.9,576.7
					c0-0.1-0.1-0.2-0.2-0.3c-0.1-0.1-0.2-0.1-0.4-0.1c-0.2,0-0.3,0-0.4,0.1s-0.2,0.2-0.2,0.3c0,0.1,0,0.2,0.1,0.2
					c0.1,0.1,0.1,0.1,0.2,0.2c0,0,0.1,0.1,0.2,0.1c0.1,0,0.2,0.1,0.3,0.1c0.1-0.1,0.2-0.2,0.3-0.3S489.9,576.8,489.9,576.7z"/>
			</g>
			<g>
				<path fill="#333333" d="M502.3,578.9h-1.6v-0.3h0.6v-1.9h-0.6v-0.3c0.1,0,0.2,0,0.3,0c0.1,0,0.2,0,0.2-0.1
					c0.1,0,0.1-0.1,0.1-0.1c0,0,0.1-0.1,0.1-0.2h0.3v2.6h0.6V578.9z"/>
				<path fill="#333333" d="M504.9,577.3c0,0.3,0,0.5-0.1,0.7c-0.1,0.2-0.1,0.4-0.3,0.5c-0.1,0.1-0.3,0.3-0.4,0.3
					c-0.2,0.1-0.4,0.1-0.6,0.1c-0.1,0-0.1,0-0.2,0c-0.1,0-0.1,0-0.2,0v-0.4h0c0,0,0.1,0,0.2,0.1s0.1,0,0.2,0c0.3,0,0.5-0.1,0.7-0.3
					s0.3-0.4,0.3-0.7c-0.1,0.1-0.2,0.1-0.3,0.2c-0.1,0-0.2,0-0.3,0c-0.1,0-0.2,0-0.3,0s-0.2-0.1-0.3-0.1c-0.1-0.1-0.2-0.2-0.3-0.3
					s-0.1-0.3-0.1-0.4c0-0.3,0.1-0.5,0.3-0.7c0.2-0.2,0.4-0.3,0.7-0.3c0.1,0,0.3,0,0.4,0.1s0.2,0.1,0.3,0.2c0.1,0.1,0.2,0.2,0.3,0.4
					C504.9,576.8,504.9,577,504.9,577.3z M504.5,577.2c0-0.2,0-0.4-0.1-0.5s-0.1-0.2-0.2-0.3c-0.1-0.1-0.1-0.1-0.2-0.1s-0.1,0-0.2,0
					c-0.2,0-0.3,0.1-0.4,0.2c-0.1,0.1-0.2,0.3-0.2,0.5c0,0.1,0,0.2,0.1,0.3c0,0.1,0.1,0.1,0.2,0.2c0.1,0,0.1,0.1,0.2,0.1
					s0.1,0,0.2,0c0.1,0,0.2,0,0.3,0c0.1,0,0.2-0.1,0.3-0.1c0,0,0-0.1,0-0.1S504.5,577.2,504.5,577.2z"/>
			</g>
			<g>
				<path fill="#333333" d="M517.6,578.9h-1.9v-0.4c0.1-0.1,0.3-0.2,0.4-0.3c0.1-0.1,0.3-0.2,0.4-0.3c0.2-0.2,0.4-0.4,0.5-0.6
					c0.1-0.1,0.1-0.3,0.1-0.5c0-0.1,0-0.3-0.1-0.3s-0.2-0.1-0.4-0.1c-0.1,0-0.2,0-0.4,0.1c-0.1,0-0.3,0.1-0.4,0.2h0v-0.4
					c0.1,0,0.2-0.1,0.4-0.1s0.3-0.1,0.4-0.1c0.3,0,0.5,0.1,0.7,0.2s0.3,0.3,0.3,0.6c0,0.1,0,0.2,0,0.3c0,0.1-0.1,0.2-0.1,0.3
					c0,0.1-0.1,0.2-0.2,0.2s-0.1,0.2-0.2,0.3c-0.1,0.1-0.3,0.3-0.4,0.4s-0.3,0.2-0.4,0.4h1.5V578.9z"/>
				<path fill="#333333" d="M520.1,577.5c0,0.5-0.1,0.9-0.2,1.1c-0.2,0.2-0.4,0.4-0.8,0.4c-0.3,0-0.6-0.1-0.8-0.4
					c-0.2-0.2-0.2-0.6-0.2-1.1c0-0.5,0.1-0.9,0.2-1.1c0.2-0.2,0.4-0.4,0.8-0.4c0.3,0,0.6,0.1,0.8,0.4
					C520,576.6,520.1,577,520.1,577.5z M519.6,578.3c0-0.1,0.1-0.2,0.1-0.4c0-0.1,0-0.3,0-0.5c0-0.2,0-0.4,0-0.5
					c0-0.1,0-0.3-0.1-0.4c0-0.1-0.1-0.2-0.2-0.2c-0.1-0.1-0.2-0.1-0.3-0.1c-0.1,0-0.2,0-0.3,0.1c-0.1,0-0.1,0.1-0.2,0.2
					c0,0.1-0.1,0.2-0.1,0.4c0,0.2,0,0.3,0,0.5c0,0.2,0,0.4,0,0.5c0,0.1,0,0.3,0.1,0.4c0,0.1,0.1,0.2,0.2,0.2
					c0.1,0.1,0.2,0.1,0.3,0.1c0.1,0,0.2,0,0.3-0.1C519.5,578.5,519.5,578.4,519.6,578.3z"/>
			</g>
			<g>
				<path fill="#333333" d="M224.2,577.5c0,0.5-0.1,0.9-0.2,1.1c-0.2,0.2-0.4,0.4-0.8,0.4c-0.3,0-0.6-0.1-0.8-0.4s-0.2-0.6-0.2-1.1
					c0-0.5,0.1-0.9,0.2-1.1c0.2-0.2,0.4-0.4,0.8-0.4c0.3,0,0.6,0.1,0.8,0.4S224.2,577,224.2,577.5z M223.7,578.3
					c0-0.1,0.1-0.2,0.1-0.4s0-0.3,0-0.5c0-0.2,0-0.4,0-0.5c0-0.1,0-0.3-0.1-0.4c0-0.1-0.1-0.2-0.2-0.2c-0.1-0.1-0.2-0.1-0.3-0.1
					c-0.1,0-0.2,0-0.3,0.1c-0.1,0-0.1,0.1-0.2,0.2c0,0.1-0.1,0.2-0.1,0.4c0,0.2,0,0.3,0,0.5c0,0.2,0,0.4,0,0.5c0,0.1,0,0.3,0.1,0.4
					c0,0.1,0.1,0.2,0.2,0.2c0.1,0.1,0.2,0.1,0.3,0.1c0.1,0,0.2,0,0.3-0.1C223.6,578.5,223.7,578.4,223.7,578.3z"/>
			</g>
		</g>
		<g>
			<rect x="226.7" y="568.6" fill-rule="evenodd" clip-rule="evenodd" fill-opacity="0.251" width="309.4" height="4.3"/>
		</g>
		<g>
			<g>
				<g>
					<path fill-rule="evenodd" clip-rule="evenodd" d="M594.6,576.4c0.7,0.4,0.8,0.3,0.4-0.3C594.7,576.2,594.6,576.3,594.6,576.4
						L594.6,576.4z M594.5,576.1c0.1,0,0.2-0.1,0.3-0.2c0.8-0.6,1.8-0.9,2.9-0.9c0.9,0,1.7,0.2,2.4,0.6c0.2,0.1,0.5,0.3,0.7,0.5
						c0.1,0,0.2,0.1,0.3,0.2c0,0.1,0,0.2,0.1,0.2c0.3,0.3,0.5,0.7,0.7,1.1c0,0,0,0.1,0,0.1c0,0.1,0.1,0.2,0.1,0.4
						c0,0.1,0,0.2,0.1,0.4c0,0-0.1,0.1-0.1,0.1c0,0.2,0,0.4-0.1,0.6c-0.1,0.4-0.3,0.8-0.6,1.1c-0.1,0-0.1,0.1-0.1,0.2
						c-0.1,0-0.1,0-0.1,0.1c-0.1,0.1-0.2,0.2-0.3,0.2c0,0.1-0.1,0.1-0.2,0.1c-0.8,0.7-1.8,1.1-2.9,1.1c-1,0-1.9-0.3-2.7-0.9
						c-0.1-0.1-0.3-0.2-0.5-0.4c-0.3-0.2-0.5-0.5-0.7-0.8c0-0.1-0.1-0.3-0.2-0.4c-0.1-0.3-0.2-0.6-0.3-0.9c0-0.1,0-0.3,0-0.4
						c0-0.1,0-0.2,0-0.3c0.1-0.6,0.3-1.2,0.7-1.6c0.1-0.1,0.2-0.3,0.4-0.4C594.4,576.2,594.4,576.1,594.5,576.1z M595.3,581.1
						C595.3,581.1,595.3,581.1,595.3,581.1h-0.1C595.2,581.1,595.3,581.1,595.3,581.1z M597.6,577.9c0.1,0.6,0.5,0.8,1.1,0.5
						c1.1-0.5,0.9-0.9-0.5-1.2C597.7,577.3,597.5,577.5,597.6,577.9z"/>
				</g>
			</g>
			<g>
				<g>
					<g>
						
							<radialGradient id="SVGID_75_" cx="188.6499" cy="123.25" r="4.375" gradientTransform="matrix(1.4223 0 0 1.2922 328.95 417.1768)" gradientUnits="userSpaceOnUse">
							<stop  offset="0" style="stop-color:#8F929B"/>
							<stop  offset="0.6196" style="stop-color:#686779"/>
							<stop  offset="0.8" style="stop-color:#3D3B44"/>
							<stop  offset="0.9922" style="stop-color:#2F291B"/>
						</radialGradient>
						<path fill-rule="evenodd" clip-rule="evenodd" fill="url(#SVGID_75_)" d="M594.6,576.5c0.7,0.4,0.8,0.3,0.4-0.3
							C594.8,576.2,594.7,576.3,594.6,576.5L594.6,576.5z M594.6,576.2c0-0.1,0.1-0.1,0.1-0.1c0.8-0.7,1.8-1,2.8-1
							c0.9,0,1.6,0.2,2.3,0.6c0.2,0.1,0.5,0.3,0.7,0.5c0,0,0.1,0.1,0.2,0.2c0,0,0.1,0.1,0.1,0.1c0.3,0.3,0.5,0.7,0.7,1.1v0.1
							c0,0.1,0.1,0.3,0.1,0.4c0,0.1,0,0.2,0,0.4c0,0,0,0.1,0,0.1c0,0.2,0,0.4-0.1,0.6c-0.1,0.4-0.3,0.7-0.6,1.1c0,0-0.1,0-0.1,0.1
							c0,0-0.1,0.1-0.1,0.1c-0.1,0-0.2,0.1-0.2,0.2c0,0-0.1,0.1-0.2,0.1c-0.8,0.7-1.7,1-2.8,1c-1,0-1.8-0.3-2.6-0.9
							c-0.2-0.1-0.3-0.2-0.4-0.3c-0.3-0.3-0.5-0.5-0.8-0.8c0-0.1-0.1-0.3-0.1-0.4c-0.1-0.3-0.2-0.5-0.3-0.8c0-0.1,0-0.2,0-0.3
							c0-0.1,0-0.3,0-0.4c0.1-0.6,0.3-1.1,0.6-1.5c0.1-0.1,0.2-0.3,0.4-0.4C594.5,576.3,594.5,576.2,594.6,576.2z M595.4,581
							L595.4,581l-0.1-0.1l-0.1,0.1C595.3,580.9,595.4,580.9,595.4,581z M597.5,577.9c0.1,0.5,0.5,0.7,1.1,0.4
							c1-0.4,0.8-0.8-0.5-1.1C597.6,577.3,597.5,577.5,597.5,577.9z"/>
						<path fill-rule="evenodd" clip-rule="evenodd" fill="#FEFEFF" d="M594.6,576.5L594.6,576.5c0.1-0.2,0.2-0.3,0.4-0.3
							C595.4,576.8,595.3,576.9,594.6,576.5z M597.5,577.9c-0.1-0.4,0.1-0.7,0.6-0.7c1.3,0.3,1.5,0.7,0.5,1.1
							C598,578.6,597.6,578.5,597.5,577.9z"/>
						<path fill-rule="evenodd" clip-rule="evenodd" fill="#2F291B" d="M595.4,581c0,0-0.1-0.1-0.2-0.1l0.1-0.1L595.4,581L595.4,581
							z"/>
					</g>
				</g>
			</g>
			<g>
				<g>
					<g>
						
							<radialGradient id="SVGID_76_" cx="189.9502" cy="124.4502" r="2.15" gradientTransform="matrix(1.4223 0 0 1.29 328.95 417.6151)" gradientUnits="userSpaceOnUse">
							<stop  offset="0" style="stop-color:#AAABA6;stop-opacity:0"/>
							<stop  offset="0.7255" style="stop-color:#AAABA6;stop-opacity:0"/>
							<stop  offset="1" style="stop-color:#AAABA6"/>
						</radialGradient>
						<path fill-rule="evenodd" clip-rule="evenodd" fill="url(#SVGID_76_)" d="M601.7,578.9c0,0.4-0.2,0.9-0.7,1.4
							c-0.4,0.5-1,1-1.7,1.4c0.5-0.4,0.7-1.1,0.5-1.9c-0.2-0.9-0.5-1.4-0.8-1.6c-0.3-0.1-0.5-0.2-0.6-0.2l0.1-0.1h0.1
							c0,0,0.1,0,0.2,0c0.5,0,1,0.1,1.6,0.3C601.3,578.3,601.7,578.6,601.7,578.9z"/>
						
							<radialGradient id="SVGID_77_" cx="188.4502" cy="124.5498" r="3.925" fx="189.3275" fy="124.5498" gradientTransform="matrix(1.4223 0 0 1.2954 328.95 416.946)" gradientUnits="userSpaceOnUse">
							<stop  offset="0" style="stop-color:#010101;stop-opacity:0"/>
							<stop  offset="0" style="stop-color:#040403;stop-opacity:0"/>
							<stop  offset="0.4078" style="stop-color:#13110B;stop-opacity:0"/>
							<stop  offset="0.5961" style="stop-color:#2F291B;stop-opacity:0.3059"/>
							<stop  offset="1" style="stop-color:#261A1A"/>
						</radialGradient>
						<path fill-rule="evenodd" clip-rule="evenodd" fill="url(#SVGID_77_)" d="M598.1,581.9c-2.4,0.1-3.9-0.9-4.6-3.1
							c0.8-1.1,1.8-1.4,2.8-0.9C598.2,578.7,598.8,580,598.1,581.9z"/>
					</g>
					<g>
						
							<radialGradient id="SVGID_78_" cx="190.7036" cy="124.1001" r="1.0995" gradientTransform="matrix(1.4223 0 -3.232435e-002 1.293 328.5489 417.1956)" gradientUnits="userSpaceOnUse">
							<stop  offset="0" style="stop-color:#FFFFFF"/>
							<stop  offset="0.4078" style="stop-color:#FEFEFE;stop-opacity:0.1686"/>
							<stop  offset="0.8" style="stop-color:#FEFEFE;stop-opacity:0"/>
							<stop  offset="1" style="stop-color:#FAFAFA;stop-opacity:0"/>
						</radialGradient>
						<path fill-rule="evenodd" clip-rule="evenodd" fill="url(#SVGID_78_)" d="M596.9,576.8c0.3,0.3,0.4,0.6,0.4,0.9
							c0,0.4-0.2,0.7-0.6,1c-0.3,0.2-0.6,0.4-1.1,0.4s-0.8-0.1-1.1-0.4c-0.3-0.3-0.4-0.6-0.4-1c0-0.3,0.2-0.6,0.5-0.9
							c0.3-0.3,0.7-0.4,1.1-0.4C596.2,576.4,596.6,576.5,596.9,576.8z"/>
					</g>
				</g>
			</g>
			<g>
				<g>
					<g>
						<path fill-rule="evenodd" clip-rule="evenodd" fill="#999AA4" d="M594.8,577.2l-0.4,0.2l0.2-0.8c2.7-0.7,5-0.2,6.8,1.6
							l0.1,0.9c-0.1,0-0.2,0-0.3-0.1C599.3,577,597.2,576.4,594.8,577.2z"/>
					</g>
				</g>
			</g>
			<g>
				<g>
					<g>
						<g>
							<path fill-rule="evenodd" clip-rule="evenodd" d="M594.7,577.4c0,0-0.2,0-0.5,0.1l0.3-0.7c2.8-0.8,5-0.2,6.8,1.6l0.1,0.8v0.1
								c-0.1,0-0.2-0.1-0.2-0.1C599.2,577.2,597.1,576.7,594.7,577.4z"/>
						</g>
					</g>
				</g>
			</g>
		</g>
		<g>
			<g>
				<g>
					<path fill-rule="evenodd" clip-rule="evenodd" d="M156.8,576.5c0,0,0,0.1,0.1,0.2c0.3,0.3,0.5,0.7,0.7,1.1v0.1
						c0,0.1,0.1,0.3,0.1,0.5c0,0.1,0,0.2,0.1,0.3l-0.1,0.1c0,0.2,0,0.5-0.1,0.7c-0.1,0.4-0.3,0.8-0.6,1.1c-0.1,0-0.1,0.1-0.1,0.1
						c-0.1,0-0.1,0.1-0.1,0.1c-0.1,0.1-0.2,0.2-0.3,0.2c0,0-0.1,0.1-0.1,0.1c-0.9,0.7-1.8,1.1-3,1.1c-1,0-1.9-0.3-2.7-0.9
						c-0.1-0.1-0.3-0.2-0.5-0.4c-0.3-0.2-0.5-0.5-0.7-0.9c0-0.1-0.1-0.2-0.1-0.4c0,0-0.1,0-0.1-0.1c-0.1-0.3-0.2-0.5-0.2-0.8
						c0-0.1-0.1-0.3-0.1-0.4c0-0.1,0-0.2,0.1-0.4c0.1-0.6,0.3-1.1,0.6-1.6c0.1-0.1,0.2-0.3,0.4-0.4c0,0,0.1-0.1,0.1-0.1
						c0.1-0.1,0.2-0.2,0.3-0.2c0.9-0.7,1.8-1,2.9-1c0.9,0,1.7,0.2,2.4,0.7c0.3,0.1,0.5,0.3,0.7,0.5
						C156.6,576.3,156.7,576.4,156.8,576.5z M151,581.4L151,581.4l-0.1-0.1C150.9,581.3,151,581.3,151,581.4z M154.4,578.6
						c1.1-0.5,0.9-0.9-0.6-1.3c-0.4,0.1-0.6,0.4-0.6,0.8C153.4,578.7,153.8,578.9,154.4,578.6z M150.3,576.6L150.3,576.6
						c0.6,0.5,0.7,0.4,0.3-0.2C150.5,576.4,150.4,576.4,150.3,576.6z"/>
				</g>
			</g>
			<g>
				<g>
					<g>
						
							<radialGradient id="SVGID_79_" cx="-123.75" cy="123.3501" r="4.375" gradientTransform="matrix(1.4223 0 0 1.2922 328.95 417.1898)" gradientUnits="userSpaceOnUse">
							<stop  offset="0" style="stop-color:#8F929B"/>
							<stop  offset="0.6196" style="stop-color:#686779"/>
							<stop  offset="0.8" style="stop-color:#3D3B44"/>
							<stop  offset="0.9922" style="stop-color:#2F291B"/>
						</radialGradient>
						<path fill-rule="evenodd" clip-rule="evenodd" fill="url(#SVGID_79_)" d="M156.6,576.7c0.3,0.3,0.5,0.7,0.7,1.1
							c0,0,0,0.1,0,0.1c0,0.1,0.1,0.3,0.1,0.4c0,0.1,0,0.3,0.1,0.4c0,0-0.1,0-0.1,0.1c0,0.2,0,0.4-0.1,0.6c-0.1,0.4-0.3,0.7-0.6,1
							c0,0-0.1,0.1-0.1,0.2c0,0-0.1,0.1-0.1,0.1c-0.1,0-0.2,0.1-0.2,0.1c0,0.1-0.1,0.1-0.2,0.1c-0.8,0.7-1.7,1.1-2.8,1.1
							c-0.9,0-1.8-0.3-2.6-0.9c-0.1-0.1-0.3-0.2-0.4-0.4c-0.3-0.2-0.5-0.5-0.7-0.8c-0.1-0.1-0.1-0.2-0.1-0.4h-0.1
							c-0.1-0.3-0.2-0.6-0.2-0.9c0-0.1-0.1-0.2-0.1-0.3s0-0.2,0.1-0.3c0.1-0.6,0.3-1.1,0.6-1.5c0.1-0.1,0.2-0.3,0.4-0.4
							c0,0,0.1-0.1,0.2-0.2c0,0,0.1-0.1,0.2-0.1c0.8-0.6,1.7-0.9,2.8-0.9c0.9,0,1.6,0.2,2.3,0.6c0.2,0.1,0.5,0.2,0.7,0.4
							c0,0.1,0.1,0.2,0.2,0.3C156.5,576.6,156.6,576.6,156.6,576.7z M154.3,578.6c1-0.4,0.8-0.8-0.5-1.2c-0.5,0.1-0.7,0.4-0.6,0.8
							C153.3,578.7,153.7,578.8,154.3,578.6z M150.4,576.7L150.4,576.7c0.6,0.5,0.7,0.4,0.3-0.2
							C150.5,576.4,150.4,576.5,150.4,576.7z M151.1,581.1L151.1,581.1H151C151,581.1,151,581.1,151.1,581.1z"/>
						<path fill-rule="evenodd" clip-rule="evenodd" fill="#FEFEFF" d="M150.4,576.7c0-0.1,0.1-0.2,0.3-0.2
							C151.1,577,151,577.1,150.4,576.7L150.4,576.7z M154.3,578.6c-0.6,0.2-1,0.1-1.1-0.4c-0.1-0.4,0.1-0.7,0.6-0.8
							C155.1,577.7,155.3,578.2,154.3,578.6z"/>
						<path fill-rule="evenodd" clip-rule="evenodd" fill="#2F291B" d="M151.1,581.1c0,0-0.1,0-0.1,0H151.1L151.1,581.1z"/>
					</g>
				</g>
			</g>
			<g>
				<g>
					<g>
						
							<radialGradient id="SVGID_80_" cx="-122.4502" cy="124.5498" r="2.15" gradientTransform="matrix(1.4223 0 0 1.29 328.95 417.6283)" gradientUnits="userSpaceOnUse">
							<stop  offset="0" style="stop-color:#AAABA6;stop-opacity:0"/>
							<stop  offset="0.7255" style="stop-color:#AAABA6;stop-opacity:0"/>
							<stop  offset="1" style="stop-color:#AAABA6"/>
						</radialGradient>
						<path fill-rule="evenodd" clip-rule="evenodd" fill="url(#SVGID_80_)" d="M157.4,579.1c0,0.4-0.2,0.9-0.7,1.4
							c-0.4,0.5-0.9,1-1.7,1.4c0.6-0.4,0.7-1,0.5-1.9c-0.2-0.9-0.4-1.4-0.7-1.6c-0.3-0.1-0.5-0.2-0.6-0.2l0.1-0.1h0.1
							c0,0,0.1,0,0.2,0c0.5,0,1,0.1,1.6,0.3C157,578.5,157.4,578.8,157.4,579.1z"/>
						
							<radialGradient id="SVGID_81_" cx="-123.9502" cy="124.6499" r="3.925" fx="-123.0728" fy="124.6499" gradientTransform="matrix(1.4223 0 0 1.2954 328.95 416.9587)" gradientUnits="userSpaceOnUse">
							<stop  offset="0" style="stop-color:#010101;stop-opacity:0"/>
							<stop  offset="0" style="stop-color:#040403;stop-opacity:0"/>
							<stop  offset="0.4078" style="stop-color:#13110B;stop-opacity:0"/>
							<stop  offset="0.5961" style="stop-color:#2F291B;stop-opacity:0.3059"/>
							<stop  offset="1" style="stop-color:#261A1A"/>
						</radialGradient>
						<path fill-rule="evenodd" clip-rule="evenodd" fill="url(#SVGID_81_)" d="M152,578.1c1.8,0.8,2.4,2.2,1.8,4.1
							c-2.4,0.1-3.9-0.9-4.6-3.1C150,577.9,150.9,577.6,152,578.1z"/>
					</g>
					<g>
						
							<radialGradient id="SVGID_82_" cx="-121.7451" cy="124.2002" r="1.1" gradientTransform="matrix(1.4223 0 -3.232435e-002 1.293 328.5486 417.2086)" gradientUnits="userSpaceOnUse">
							<stop  offset="0" style="stop-color:#FFFFFF"/>
							<stop  offset="0.4078" style="stop-color:#FEFEFE;stop-opacity:0.1686"/>
							<stop  offset="0.8" style="stop-color:#FEFEFE;stop-opacity:0"/>
							<stop  offset="1" style="stop-color:#FAFAFA;stop-opacity:0"/>
						</radialGradient>
						<path fill-rule="evenodd" clip-rule="evenodd" fill="url(#SVGID_82_)" d="M152.5,576.9c0.3,0.3,0.4,0.6,0.4,1
							c0,0.4-0.2,0.7-0.5,0.9c-0.3,0.3-0.6,0.4-1.1,0.4c-0.4,0-0.8-0.1-1.1-0.4c-0.2-0.2-0.4-0.5-0.4-0.9c0-0.4,0.2-0.7,0.5-1
							c0.3-0.2,0.6-0.4,1.1-0.4C151.9,576.6,152.2,576.7,152.5,576.9z"/>
					</g>
				</g>
			</g>
			<g>
				<g>
					<g>
						<g>
							<path fill-rule="evenodd" clip-rule="evenodd" fill="#999AA4" d="M156.8,577.4L156.8,577.4c-0.2,0.1-0.2,0.1-0.3,0.1
								c-2.7-0.7-4.9-0.2-6.5,1.5c0,0-0.1,0.2-0.3,0.4l-0.3-0.8c2-1.9,4.3-2.5,6.8-1.8L156.8,577.4z"/>
						</g>
					</g>
				</g>
				<g>
					<g>
						<g>
							<g>
								<path fill-rule="evenodd" clip-rule="evenodd" d="M156.2,577.1l0.6,0.6c-0.1,0-0.2,0-0.3,0c-2.7-0.7-4.9-0.2-6.5,1.5
									c0,0.1-0.1,0.3-0.2,0.5l-0.3-0.8C151.5,576.9,153.7,576.3,156.2,577.1z"/>
							</g>
						</g>
					</g>
				</g>
			</g>
		</g>
	</g>
</g>
</svg>
