<?xml version="1.0" encoding="utf-8"?>
<!-- Generator: Adobe Illustrator 16.0.0, SVG Export Plug-In . SVG Version: 6.00 Build 0)  -->
<!DOCTYPE svg PUBLIC "-//W3C//DTD SVG 1.1//EN" "http://www.w3.org/Graphics/SVG/1.1/DTD/svg11.dtd">
<svg version="1.1" xmlns="http://www.w3.org/2000/svg" xmlns:xlink="http://www.w3.org/1999/xlink" x="0px" y="0px" width="700px"
	 height="700px" viewBox="0 0 700 700" enable-background="new 0 0 700 700" xml:space="preserve">
<g id="Layer_2">
</g>
<g id="Layer_1">
	<g>
		<g>
			<g>
				
					<linearGradient id="SVGID_1_" gradientUnits="userSpaceOnUse" x1="385.6523" y1="1119.5732" x2="423.7661" y2="1119.5732" gradientTransform="matrix(-0.1377 0.9905 1.0071 1.801643e-002 -595.3242 -132.2001)">
					<stop  offset="0" style="stop-color:#737173"/>
					<stop  offset="9.803922e-002" style="stop-color:#FDFDFD"/>
					<stop  offset="0.2863" style="stop-color:#AFB3CE"/>
					<stop  offset="0.549" style="stop-color:#A1A5C0"/>
					<stop  offset="0.7216" style="stop-color:#F8FBFF"/>
					<stop  offset="0.8353" style="stop-color:#818082"/>
					<stop  offset="1" style="stop-color:#1F1D1E"/>
				</linearGradient>
				<path fill="url(#SVGID_1_)" d="M474.5,269.8c0,0.2,0,0.4,0,0.6V269.8h4.9c0.5,0,0.9,0.3,1.2,0.8c0.6,1.2,1,2.6,1.4,4.3
					c0.4,2.7,0.7,5.8,0.8,9.3v0.1c0.1,1.4,0.2,2.8,0.2,4.3c0,1.6,0,3.2,0,4.7l0,0c-0.1,3.3-0.3,6.3-0.7,9c-0.4,3.4-0.9,5.3-1.6,5.6
					h-6.2v-0.4c0,0.1,0,0.3,0,0.4h-2.9c0.7,0,1.4-1.9,1.9-5.8c0.3-2.6,0.5-5.5,0.5-8.8l0.1-0.1c0-1.5,0-3,0-4.6
					c-0.1-1.5-0.1-2.9-0.2-4.2v-0.1c-0.2-3.5-0.5-6.5-0.9-9.3c-0.5-2.6-1-4.3-1.5-5c-0.1,0-0.1,0-0.1,0c0-0.1,0-0.1,0-0.2H474.5
					L474.5,269.8z"/>
			</g>
			<g>
				
					<linearGradient id="SVGID_2_" gradientUnits="userSpaceOnUse" x1="380.9756" y1="1115.2969" x2="421.6896" y2="1115.2969" gradientTransform="matrix(-0.124 0.9923 1.0053 2.002548e-002 -594.8453 -133.598)">
					<stop  offset="0" style="stop-color:#363535"/>
					<stop  offset="0.1765" style="stop-color:#FFFFFF"/>
					<stop  offset="0.1961" style="stop-color:#FDFDFD;stop-opacity:0.9725"/>
					<stop  offset="0.302" style="stop-color:#BEBEBE;stop-opacity:0.298"/>
					<stop  offset="0.5412" style="stop-color:#D1D0D0;stop-opacity:0"/>
					<stop  offset="0.5882" style="stop-color:#5C5B5B;stop-opacity:0"/>
					<stop  offset="1" style="stop-color:#1F1D1E"/>
				</linearGradient>
				<path fill="url(#SVGID_2_)" d="M479.3,269.9c0.7,0.1,1.1,0.3,1.2,0.8l0,0c0.6,1.1,1,2.6,1.3,4.3c0.4,2.7,0.7,5.8,0.9,9.3v0.1
					c0,1.4,0,2.8,0,4.3c0,1.6,0,3.2,0,4.7l0,0c0,3.3-0.2,6.3-0.5,9c-0.4,3.4-0.9,5.3-1.5,5.6h-8.9c0.1-0.4,0.2-0.8,0.4-1.4
					c1.2-3.9,1.8-10.2,1.8-18.8c0.1-8.7-0.9-14.6-2.8-17.9H479.3z"/>
			</g>
			<g>
				<path fill="#171715" d="M470.3,270.1c0.2-0.3,0.5-0.4,1-0.4h0.2c0,0,0,0.1,0,0.2h0.1c0.5,0.7,1,2.4,1.5,5
					c0.4,2.7,0.7,5.8,0.9,9.3v0.1c0.1,1.3,0.1,2.7,0.2,4.2c0,1.6,0,3.1,0,4.6l-0.1,0.1c-0.1,3.3-0.3,6.2-0.5,8.8
					c-0.5,3.8-1.2,5.7-1.9,5.8h-0.1c-0.1,0-0.2,0-0.3,0c-0.2-0.1-0.4-0.4-0.5-0.6c-0.4-0.9-0.9-2.5-1.3-4.7
					c-0.1-0.8-0.2-1.7-0.4-2.5c-0.4-3.2-0.6-6.8-0.7-11c0-4.2,0.1-8,0.4-11.3c0-0.8,0.1-1.6,0.2-2.3c0.3-2.2,0.7-3.8,1-4.8
					C470.2,270.5,470.2,270.3,470.3,270.1z"/>
			</g>
			<g>
				<g>
					<g>
						
							<linearGradient id="SVGID_3_" gradientUnits="userSpaceOnUse" x1="405.001" y1="1114.541" x2="420.2572" y2="1114.541" gradientTransform="matrix(-0.1426 0.9898 1.01 2.108594e-003 -596.9631 -121.8162)">
							<stop  offset="0" style="stop-color:#878B8C"/>
							<stop  offset="7.058824e-002" style="stop-color:#9AA2AD"/>
							<stop  offset="0.1765" style="stop-color:#FFFFFF"/>
							<stop  offset="0.298" style="stop-color:#828692"/>
							<stop  offset="0.3686" style="stop-color:#797BCE"/>
							<stop  offset="0.5216" style="stop-color:#282E57"/>
							<stop  offset="0.5961" style="stop-color:#7E808C"/>
							<stop  offset="0.6627" style="stop-color:#6A6D77"/>
							<stop  offset="0.7686" style="stop-color:#242528"/>
							<stop  offset="0.8667" style="stop-color:#585B64"/>
							<stop  offset="0.9804" style="stop-color:#383745"/>
						</linearGradient>
						<path fill="url(#SVGID_3_)" d="M468.5,280.8h2.5c0.2,0.3,0.4,1.1,0.5,2.3c0.1,0.6,0.2,1.2,0.3,1.9c0,0.6,0,1.3,0.1,2
							c0,0.3,0,0.7,0,1v0.7c0,0.7,0,1.4,0,2v0.1c-0.1,0.7-0.1,1.3-0.1,1.9v0.1c0,0.6-0.1,1.2-0.2,1.8c-0.1,1.2-0.3,1.9-0.5,2.3
							c0,0.1-0.1,0.1-0.2,0.1h-2.6v-0.1h0.2c0.2-0.2,0.4-1,0.6-2.4c0-0.6,0.1-1.2,0.2-1.9c0-0.6,0-1.2,0.1-1.9c0-0.6,0-1.3,0-2V288
							c0-0.4,0-0.8,0-1.1c-0.1-0.7-0.1-1.4-0.1-2c-0.1-0.7-0.2-1.4-0.3-1.9c-0.1-1.2-0.3-1.9-0.5-2.1V280.8z"/>
						
							<linearGradient id="SVGID_4_" gradientUnits="userSpaceOnUse" x1="477.5635" y1="291.1904" x2="497.5298" y2="291.1904" gradientTransform="matrix(1 0 7.956319e-002 -1 -49.4158 580.04)">
							<stop  offset="0" style="stop-color:#878B8C"/>
							<stop  offset="7.058824e-002" style="stop-color:#9AA2AD"/>
							<stop  offset="0.1765" style="stop-color:#FFFFFF"/>
							<stop  offset="0.298" style="stop-color:#828692"/>
							<stop  offset="0.3686" style="stop-color:#797BCE"/>
							<stop  offset="0.5216" style="stop-color:#282E57"/>
							<stop  offset="0.5961" style="stop-color:#7E808C"/>
							<stop  offset="0.6627" style="stop-color:#6A6D77"/>
							<stop  offset="0.7686" style="stop-color:#242528"/>
							<stop  offset="0.8667" style="stop-color:#585B64"/>
							<stop  offset="0.9804" style="stop-color:#383745"/>
						</linearGradient>
						<path fill="url(#SVGID_4_)" d="M468.5,280.8v0.1c0.2,0.2,0.4,0.9,0.5,2.1c0.1,0.6,0.2,1.2,0.3,1.9c0,0.6,0,1.3,0.1,2
							c0,0.3,0,0.7,0,1.1v0.7c0,0.7,0,1.4,0,2c-0.1,0.7-0.1,1.3-0.1,1.9c-0.1,0.7-0.2,1.3-0.2,1.9c-0.2,1.4-0.4,2.1-0.6,2.4h-0.2
							h-0.1c0,0,0-0.1,0-0.2c0-0.1-0.1-0.2-0.1-0.3c-0.1-0.2-0.3-1.7-0.4-4.4c-0.1-2.7-0.1-5,0-7c0.1-2,0.2-3.2,0.4-3.6
							C468.1,280.9,468.2,280.8,468.5,280.8z"/>
					</g>
				</g>
				<g>
					
						<linearGradient id="SVGID_5_" gradientUnits="userSpaceOnUse" x1="423.2139" y1="1151.9277" x2="430.1165" y2="1151.9277" gradientTransform="matrix(-0.3042 0.9526 1.0489 2.689508e-003 -614.1077 -120.316)">
						<stop  offset="0" style="stop-color:#878B8C"/>
						<stop  offset="7.058824e-002" style="stop-color:#9AA2AD"/>
						<stop  offset="0.1765" style="stop-color:#FFFFFF"/>
						<stop  offset="0.298" style="stop-color:#828692"/>
						<stop  offset="0.3686" style="stop-color:#797BCE"/>
						<stop  offset="0.5216" style="stop-color:#282E57"/>
						<stop  offset="0.5961" style="stop-color:#7E808C"/>
						<stop  offset="0.6627" style="stop-color:#6A6D77"/>
						<stop  offset="0.7686" style="stop-color:#242528"/>
						<stop  offset="0.8667" style="stop-color:#585B64"/>
						<stop  offset="0.9804" style="stop-color:#383745"/>
					</linearGradient>
					<path fill="url(#SVGID_5_)" d="M461,285.8h7.5c0,2-0.3,4.3-0.8,6.9H461V285.8z"/>
				</g>
			</g>
		</g>
		<g>
			<g>
				<g>
					
						<linearGradient id="SVGID_6_" gradientUnits="userSpaceOnUse" x1="546.8252" y1="538.1016" x2="593.3971" y2="538.1016" gradientTransform="matrix(0.6828 0.7306 1.3658 -3.195195e-003 -870.0944 -105.2769)">
						<stop  offset="0" style="stop-color:#737173"/>
						<stop  offset="9.803922e-002" style="stop-color:#FDFDFD"/>
						<stop  offset="0.2863" style="stop-color:#AFB3CE"/>
						<stop  offset="0.549" style="stop-color:#A1A5C0"/>
						<stop  offset="0.7216" style="stop-color:#F8FBFF"/>
						<stop  offset="0.8353" style="stop-color:#818082"/>
						<stop  offset="1" style="stop-color:#1F1D1E"/>
					</linearGradient>
					<path fill="url(#SVGID_6_)" d="M251.4,292.5l0.3-0.1H262c-0.1,0.2-0.3,0.4-0.6,0.6c-0.4,0.4-0.9,1.8-1.7,4.2
						c-0.6,2.1-1.2,4.5-1.7,7.3c-0.1,0.3-0.1,0.7-0.1,1l0,0c-0.2,1.2-0.5,2.5-0.7,3.8c-0.2,1.5-0.4,2.9-0.5,4.3v0.1
						c0,0.1,0,0.1-0.1,0.3c-0.2,2.9-0.4,5.4-0.4,7.6c0,3.5,0.4,5.2,1,5.3h-10.3c-0.1,0-0.1,0-0.1,0c-1-0.1-1.7-1.8-2-5.3
						c-0.2-2.3-0.1-4.9,0.1-7.8v-0.1c0.2-1.4,0.3-2.8,0.5-4.3c0.2-1.3,0.5-2.6,0.7-3.8l0,0c0.7-3.1,1.5-5.9,2.3-8.3
						c1-2.4,1.9-4,2.7-4.6C251.1,292.6,251.2,292.5,251.4,292.5L251.4,292.5z"/>
				</g>
				<g>
					<g>
						
							<linearGradient id="SVGID_7_" gradientUnits="userSpaceOnUse" x1="414.75" y1="852.5479" x2="451.1999" y2="852.5479" gradientTransform="matrix(-4.801042e-003 1 1.0001 -1.982590e-002 -597.4832 -108.0635)">
							<stop  offset="0" style="stop-color:#363535"/>
							<stop  offset="0.1765" style="stop-color:#FFFFFF"/>
							<stop  offset="0.1961" style="stop-color:#FDFDFD;stop-opacity:0.9725"/>
							<stop  offset="0.302" style="stop-color:#BEBEBE;stop-opacity:0.298"/>
							<stop  offset="0.5412" style="stop-color:#D1D0D0;stop-opacity:0"/>
							<stop  offset="0.5882" style="stop-color:#5C5B5B;stop-opacity:0"/>
							<stop  offset="1" style="stop-color:#1F1D1E"/>
						</linearGradient>
						<path fill="url(#SVGID_7_)" d="M251.8,292.4h1.2v0.1h5.1v0.1c0-0.1,0-0.1,0.1-0.1h3.3c-2.1,2.9-3.7,8.3-4.7,16
							c-0.9,7.8-1.1,13.5-0.5,17.1c0.1,0.4,0.2,0.8,0.2,1.2h-2.8c0-0.1,0-0.2-0.1-0.3v0.3h-6.8c-1.1-0.1-1.8-1.8-2.1-5.3
							c-0.1-2.3,0-4.9,0.3-7.8l-0.1-0.1c0.2-1.4,0.4-2.8,0.6-4.3c0.2-1.3,0.5-2.6,0.7-3.8l0,0c0.7-3.1,1.5-5.9,2.4-8.3
							s1.8-4,2.7-4.6c0.1-0.1,0.2-0.1,0.2-0.1c0.1,0,0.1,0,0.1,0L251.8,292.4z"/>
						
							<linearGradient id="SVGID_8_" gradientUnits="userSpaceOnUse" x1="414.7891" y1="861.3301" x2="451.2395" y2="861.3301" gradientTransform="matrix(-4.801042e-003 1 1.0001 -1.982590e-002 -597.4832 -108.0635)">
							<stop  offset="0" style="stop-color:#363535"/>
							<stop  offset="0.1765" style="stop-color:#FFFFFF"/>
							<stop  offset="0.1961" style="stop-color:#FDFDFD;stop-opacity:0.9725"/>
							<stop  offset="0.302" style="stop-color:#BEBEBE;stop-opacity:0.298"/>
							<stop  offset="0.5412" style="stop-color:#D1D0D0;stop-opacity:0"/>
							<stop  offset="0.5882" style="stop-color:#5C5B5B;stop-opacity:0"/>
							<stop  offset="1" style="stop-color:#1F1D1E"/>
						</linearGradient>
						<path fill="url(#SVGID_8_)" d="M261.8,292.5c-0.1-0.1,0-0.1,0.1-0.1h0.1l0.1,0.1H261.8z"/>
					</g>
				</g>
				<g>
					<path fill="#171715" d="M261.8,292.4c0.6,0,1,0.1,1.3,0.4c0.1,0.2,0.2,0.3,0.3,0.5c0.4,0.9,0.8,2.3,1,4.3c0,0.7,0,1.4,0,2.1
						c0.1,3-0.2,6.4-0.8,10.2c-0.6,3.7-1.3,7-2.3,9.9c-0.3,0.8-0.5,1.5-0.8,2.3c-0.8,2.1-1.6,3.5-2.4,4.3c-0.2,0.3-0.5,0.5-0.7,0.6
						c-0.1,0.1-0.3,0.1-0.5,0.1l0,0c-1.1-0.1-1.8-1.8-2.1-5.3c-0.2-2.3-0.1-4.9,0.2-7.8l-0.1-0.1c0.2-1.4,0.4-2.8,0.6-4.3
						c0.2-1.3,0.5-2.6,0.7-3.8l0,0c0.7-3.1,1.4-5.9,2.3-8.3c1-2.4,1.9-4,2.7-4.6c0.1-0.1,0.2-0.1,0.2-0.1L261.8,292.4z"/>
				</g>
				<g>
					<g>
						<g>
							
								<linearGradient id="SVGID_9_" gradientUnits="userSpaceOnUse" x1="-193.8154" y1="1030.873" x2="-175.8154" y2="1030.873" gradientTransform="matrix(-1 0 -5.181348e-002 1 137.0444 -720.96)">
								<stop  offset="0" style="stop-color:#878B8C"/>
								<stop  offset="7.058824e-002" style="stop-color:#9AA2AD"/>
								<stop  offset="0.1765" style="stop-color:#FFFFFF"/>
								<stop  offset="0.298" style="stop-color:#828692"/>
								<stop  offset="0.3686" style="stop-color:#797BCE"/>
								<stop  offset="0.5216" style="stop-color:#282E57"/>
								<stop  offset="0.5961" style="stop-color:#7E808C"/>
								<stop  offset="0.6627" style="stop-color:#6A6D77"/>
								<stop  offset="0.7686" style="stop-color:#242528"/>
								<stop  offset="0.8667" style="stop-color:#585B64"/>
								<stop  offset="0.9804" style="stop-color:#383745"/>
							</linearGradient>
							<path fill="url(#SVGID_9_)" d="M260.6,317.1c-0.3-0.2-0.4-0.8-0.5-1.6c0-0.2,0-0.4,0-0.5c-0.1-1-0.1-2.1,0-3.3v-0.1
								c0.1-0.5,0.1-1.1,0.3-1.8c0.1-0.6,0.1-1.1,0.3-1.6c0.3-1.3,0.6-2.5,1-3.5c0.1-0.1,0.1-0.3,0.1-0.4c0.3-0.8,0.7-1.3,1-1.6l0,0
								h0.4c0.2,0,0.3,0.1,0.3,0.1c0.1,0.1,0.1,0.1,0.1,0.3c0.1,0.3,0.3,0.9,0.4,1.8c0,0.3,0,0.6,0,0.9c0,1.3-0.1,2.8-0.3,4.3
								c-0.3,1.6-0.7,3-1.1,4.2c-0.1,0.3-0.1,0.6-0.3,0.9c-0.2,0.6-0.4,1.1-0.6,1.5C261.5,317,261.1,317.2,260.6,317.1z"/>
							
								<linearGradient id="SVGID_10_" gradientUnits="userSpaceOnUse" x1="423.6914" y1="852.4707" x2="439.2421" y2="852.4707" gradientTransform="matrix(1.446794e-002 0.9999 1.0001 -2.314979e-003 -598.4558 -119.4489)">
								<stop  offset="0" style="stop-color:#878B8C"/>
								<stop  offset="7.058824e-002" style="stop-color:#9AA2AD"/>
								<stop  offset="0.1765" style="stop-color:#FFFFFF"/>
								<stop  offset="0.298" style="stop-color:#828692"/>
								<stop  offset="0.3686" style="stop-color:#797BCE"/>
								<stop  offset="0.5216" style="stop-color:#282E57"/>
								<stop  offset="0.5961" style="stop-color:#7E808C"/>
								<stop  offset="0.6627" style="stop-color:#6A6D77"/>
								<stop  offset="0.7686" style="stop-color:#242528"/>
								<stop  offset="0.8667" style="stop-color:#585B64"/>
								<stop  offset="0.9804" style="stop-color:#383745"/>
							</linearGradient>
							<path fill="url(#SVGID_10_)" d="M260.6,317.1h-2.2c-0.2-0.3-0.4-1-0.5-2.1c-0.1-1-0.1-2.1,0.1-3.3v-0.1
								c0-0.5,0.1-1.1,0.2-1.8c0.1-0.6,0.2-1.1,0.3-1.6c0.3-1.3,0.6-2.5,0.9-3.5c0.4-1,0.8-1.7,1.1-2c0-0.1,0.1-0.2,0.2-0.2l2.1,0.1
								l0,0c-0.3,0.2-0.7,0.8-1,1.6c0,0.2,0,0.3-0.1,0.4c-0.4,1-0.7,2.2-1,3.5c-0.1,0.5-0.2,1-0.3,1.6c-0.1,0.7-0.2,1.3-0.3,1.8v0.1
								c-0.1,1.2-0.1,2.3,0,3.3c0,0.1,0,0.3,0,0.5C260.2,316.4,260.3,316.9,260.6,317.1z"/>
						</g>
					</g>
					<g>
						
							<linearGradient id="SVGID_11_" gradientUnits="userSpaceOnUse" x1="435.0703" y1="806.3164" x2="441.1211" y2="806.3164" gradientTransform="matrix(0.1818 0.9833 1.0164 -2.895756e-003 -617.5103 -118.2326)">
							<stop  offset="0" style="stop-color:#878B8C"/>
							<stop  offset="7.058824e-002" style="stop-color:#9AA2AD"/>
							<stop  offset="0.1765" style="stop-color:#FFFFFF"/>
							<stop  offset="0.298" style="stop-color:#828692"/>
							<stop  offset="0.3686" style="stop-color:#797BCE"/>
							<stop  offset="0.5216" style="stop-color:#282E57"/>
							<stop  offset="0.5961" style="stop-color:#7E808C"/>
							<stop  offset="0.6627" style="stop-color:#6A6D77"/>
							<stop  offset="0.7686" style="stop-color:#242528"/>
							<stop  offset="0.8667" style="stop-color:#585B64"/>
							<stop  offset="0.9804" style="stop-color:#383745"/>
						</linearGradient>
						<path fill="url(#SVGID_11_)" d="M302,307.2l-0.8,6.1h-39.5c-0.2,0-0.4-0.3-0.5-0.9c0-0.4,0-0.9,0-1.5c0.1-0.2,0.1-0.5,0.1-0.8
							c0-0.2,0.1-0.5,0.1-0.7c0.1-0.6,0.3-1.1,0.5-1.5c0.1-0.4,0.3-0.6,0.4-0.8L302,307.2z"/>
					</g>
				</g>
			</g>
			<g>
				<g>
					
						<linearGradient id="SVGID_12_" gradientUnits="userSpaceOnUse" x1="284.1406" y1="323.9761" x2="315.2718" y2="317.3681" gradientTransform="matrix(1 0 0 -1 2.3398 580.04)">
						<stop  offset="0" style="stop-color:#1A1A1A"/>
						<stop  offset="0.3451" style="stop-color:#2B2E30"/>
						<stop  offset="0.5176" style="stop-color:#666864"/>
						<stop  offset="1" style="stop-color:#131617"/>
					</linearGradient>
					<path fill="url(#SVGID_12_)" d="M308.9,247c1.6,0.6,3,1.5,4.4,2.7c3.2,2.7,4.8,6,4.8,9.8c0,0.1,0,0.2,0,0.2c0,0.2,0,0.4,0,0.5
						c-0.2,3.5-1.8,6.5-4.8,9c-3,2.6-6.7,4-11.1,4c-1,0-2-0.1-2.9-0.2c-3.2-0.5-6-1.7-8.4-3.8c-3.1-2.8-4.7-6-4.7-9.8
						c0-1.1,0.1-2.2,0.4-3.3c0.7-2.4,2.1-4.6,4.3-6.5c3.1-2.7,6.9-4.1,11.3-4.1c0.6,0,1.2,0,1.8,0.1
						C305.7,245.8,307.3,246.3,308.9,247z M311.1,252c-1.2-1-2.5-1.8-3.9-2.4c-1.3-0.5-2.6-0.8-4.1-0.9c-0.4-0.1-0.9-0.1-1.3-0.1
						c-3.7,0-6.8,1.1-9.4,3.4c-1.8,1.6-3,3.4-3.5,5.4c-0.3,0.9-0.5,1.9-0.5,2.9c0,3.2,1.3,5.9,4,8.1c2,1.8,4.3,2.8,7,3.2
						c0.8,0.1,1.5,0.1,2.4,0.1c3.7,0,6.8-1.1,9.3-3.4c2.4-2.1,3.8-4.6,4-7.5c0-0.2,0-0.4,0-0.5C315.1,257,313.8,254.2,311.1,252z"/>
				</g>
				<g>
					
						<linearGradient id="SVGID_13_" gradientUnits="userSpaceOnUse" x1="303.4795" y1="334.853" x2="295.2334" y2="304.1031" gradientTransform="matrix(1 0 0 -1 2.3398 580.04)">
						<stop  offset="0" style="stop-color:#696969"/>
						<stop  offset="1" style="stop-color:#000000"/>
					</linearGradient>
					<path fill="url(#SVGID_13_)" d="M303.5,246.9c1.7,0.1,3.4,0.5,5,1.3c1.6,0.7,3,1.6,4.3,2.7c3.2,2.7,4.8,6,4.8,9.9
						c0,0.1,0,0.1,0,0.2c0,0.2,0,0.4,0,0.5c-0.2,3.5-1.8,6.5-4.8,9c-3,2.7-6.7,4-11.1,4c-1,0-2-0.1-2.9-0.2c-3.2-0.5-6-1.7-8.4-3.8
						c-3.1-2.7-4.7-6-4.7-9.7c0-1.2,0.1-2.3,0.4-3.3c0.7-2.4,2.1-4.6,4.3-6.6c3.1-2.7,6.9-4,11.3-4
						C302.3,246.8,302.9,246.8,303.5,246.9z M310.8,253.1c-1.2-1-2.5-1.8-3.9-2.4c-1.3-0.5-2.7-0.9-4.1-1c-0.4,0-0.9,0-1.3,0
						c-3.7,0-6.8,1.1-9.4,3.4c-1.9,1.6-3,3.4-3.5,5.4c-0.3,0.9-0.5,1.9-0.5,2.9c0,3.2,1.3,5.9,4,8.1c2,1.8,4.4,2.8,7.1,3.2
						c0.7,0.1,1.5,0.1,2.4,0.1c3.6,0,6.7-1.1,9.3-3.3c2.4-2.1,3.7-4.7,3.9-7.6c0-0.2,0-0.4,0-0.5
						C314.6,258.1,313.4,255.4,310.8,253.1z"/>
				</g>
				<g>
					
						<linearGradient id="SVGID_14_" gradientUnits="userSpaceOnUse" x1="284.4878" y1="323.2974" x2="315.3617" y2="316.7917" gradientTransform="matrix(1 0 0 -1 2.3398 580.04)">
						<stop  offset="0" style="stop-color:#725130"/>
						<stop  offset="3.137255e-002" style="stop-color:#704E32"/>
						<stop  offset="5.098039e-002" style="stop-color:#7C5B32"/>
						<stop  offset="0.1882" style="stop-color:#8C652A"/>
						<stop  offset="0.2392" style="stop-color:#8F8F8D"/>
						<stop  offset="0.4471" style="stop-color:#A9A9A7"/>
						<stop  offset="0.502" style="stop-color:#D1D1CF"/>
						<stop  offset="0.5961" style="stop-color:#ADAFA1"/>
						<stop  offset="0.651" style="stop-color:#18191D"/>
						<stop  offset="0.7098" style="stop-color:#232428"/>
						<stop  offset="0.8196" style="stop-color:#6B695D"/>
						<stop  offset="1" style="stop-color:#6A654F"/>
					</linearGradient>
					<path fill="url(#SVGID_14_)" d="M283.6,268.3l2.9-10.9v-0.1c0.7-2,1.9-3.8,3.8-5.4c3-2.6,6.7-3.9,11.1-3.9
						c4.3,0,7.9,1.3,10.9,3.9c2.9,2.5,4.4,5.6,4.6,9.1l-1.8,10.3L283.6,268.3z"/>
				</g>
			</g>
			<g>
				<g>
					
						<linearGradient id="SVGID_15_" gradientUnits="userSpaceOnUse" x1="271.0444" y1="294.7173" x2="314.1347" y2="284.7255" gradientTransform="matrix(1 0 0 -1 2.3398 580.04)">
						<stop  offset="0" style="stop-color:#443820"/>
						<stop  offset="0.149" style="stop-color:#26261E"/>
						<stop  offset="0.3922" style="stop-color:#4F4F4D"/>
						<stop  offset="0.6627" style="stop-color:#676863"/>
						<stop  offset="0.7569" style="stop-color:#383836"/>
						<stop  offset="1" style="stop-color:#070707"/>
					</linearGradient>
					<path fill="url(#SVGID_15_)" d="M290.5,300.8c-0.8-0.1-1.7-0.1-2.5-0.1c-6.1,0-11.3,1.9-15.6,5.6c-3,2.6-4.9,5.6-5.8,9
						c0.1-1.7,0.4-3.3,0.9-4.8c0.2-0.8,0.5-1.5,1-2.2l10.1-35.3c0-0.1,0-0.1,0-0.2c0.8-3,2.5-5.6,5.2-7.8c3.7-3.3,8.3-5,13.7-5
						c0.8,0,1.7,0,2.6,0.1c2.5,0.3,4.8,1,6.9,2.1c1.5,0.7,2.9,1.6,4.2,2.8c3.7,3.3,5.6,7.3,5.6,11.9c0,1-0.1,2.3-0.3,4
						c0,0.1,0,0.2-0.1,0.3l-6.4,39.5c0,0.2-0.1,0.5-0.2,0.8c0,0.2-0.1,0.3-0.1,0.5l0.2-1.3c0-0.2,0-0.4,0-0.6c0-0.1,0-0.2,0-0.4
						c0-5.2-2.2-9.7-6.5-13.4c-1.8-1.6-3.8-2.9-6-3.8S292.9,301,290.5,300.8z"/>
					
						<linearGradient id="SVGID_16_" gradientUnits="userSpaceOnUse" x1="271.0444" y1="294.7173" x2="314.1347" y2="284.7255" gradientTransform="matrix(1 0 0 -1 2.3398 580.04)">
						<stop  offset="0" style="stop-color:#443820"/>
						<stop  offset="0.149" style="stop-color:#26261E"/>
						<stop  offset="0.3922" style="stop-color:#4F4F4D"/>
						<stop  offset="0.6627" style="stop-color:#676863"/>
						<stop  offset="0.7569" style="stop-color:#383836"/>
						<stop  offset="1" style="stop-color:#070707"/>
					</linearGradient>
					<path fill="url(#SVGID_16_)" d="M290.5,300.8c-0.8-0.1-1.7-0.1-2.5-0.1c-6.1,0-11.3,1.9-15.6,5.6c-3,2.6-4.9,5.6-5.8,9
						c0.1-1.7,0.4-3.3,0.9-4.8c0.2-0.8,0.5-1.5,1-2.2l10.1-35.3c0-0.1,0-0.1,0-0.2c0.8-3,2.5-5.6,5.2-7.8c3.7-3.3,8.3-5,13.7-5
						c0.8,0,1.7,0,2.6,0.1c2.5,0.3,4.8,1,6.9,2.1c1.5,0.7,2.9,1.6,4.2,2.8c3.7,3.3,5.6,7.3,5.6,11.9c0,1-0.1,2.3-0.3,4
						c0,0.1,0,0.2-0.1,0.3l-6.4,39.5c0,0.2-0.1,0.5-0.2,0.8c0,0.2-0.1,0.3-0.1,0.5l0.2-1.3c0-0.2,0-0.4,0-0.6c0-0.1,0-0.2,0-0.4
						c0-5.2-2.2-9.7-6.5-13.4c-1.8-1.6-3.8-2.9-6-3.8S292.9,301,290.5,300.8z"/>
					
						<linearGradient id="SVGID_17_" gradientUnits="userSpaceOnUse" x1="318.1436" y1="247.5186" x2="287.1828" y2="260.0787" gradientTransform="matrix(1 0 0 -1 2.3398 580.04)">
						<stop  offset="0" style="stop-color:#292A2C"/>
						<stop  offset="0.1922" style="stop-color:#617B8C"/>
						<stop  offset="0.4588" style="stop-color:#171918"/>
						<stop  offset="0.6824" style="stop-color:#000000"/>
						<stop  offset="0.8784" style="stop-color:#516482"/>
					</linearGradient>
					<path fill="url(#SVGID_17_)" d="M289.4,304.9l1.1-4.1c2.4,0.2,4.7,0.8,6.8,1.7c2.2,0.9,4.2,2.2,6,3.8c4.3,3.7,6.5,8.2,6.5,13.4
						c0,0.2,0,0.3,0,0.4c0,0.2,0,0.4,0,0.6l-0.2,1.3c0.1-0.1,0.1-0.3,0.1-0.5c-0.5,4.5-2.6,8.3-6.5,11.6c-4.2,3.7-9.3,5.5-15.3,5.5
						c-1.4,0-2.7-0.1-4-0.3l0.5-2.1c1,0.1,2.1,0.2,3.2,0.2c5,0,9.3-1.5,12.9-4.5c3.3-2.9,5.1-6.4,5.4-10.5c0-0.3,0-0.5,0-0.8
						c0-4.4-1.8-8.2-5.4-11.3c-1.7-1.4-3.5-2.5-5.5-3.3C293.3,305.5,291.4,305,289.4,304.9z"/>
					
						<linearGradient id="SVGID_18_" gradientUnits="userSpaceOnUse" x1="318.1436" y1="247.5186" x2="287.1828" y2="260.0787" gradientTransform="matrix(1 0 0 -1 2.3398 580.04)">
						<stop  offset="0" style="stop-color:#292A2C"/>
						<stop  offset="0.1922" style="stop-color:#617B8C"/>
						<stop  offset="0.4588" style="stop-color:#171918"/>
						<stop  offset="0.6824" style="stop-color:#000000"/>
						<stop  offset="0.8784" style="stop-color:#516482"/>
					</linearGradient>
					<path fill="url(#SVGID_18_)" d="M289.4,304.9l1.1-4.1c2.4,0.2,4.7,0.8,6.8,1.7c2.2,0.9,4.2,2.2,6,3.8c4.3,3.7,6.5,8.2,6.5,13.4
						c0,0.2,0,0.3,0,0.4c0,0.2,0,0.4,0,0.6l-0.2,1.3c0.1-0.1,0.1-0.3,0.1-0.5c-0.5,4.5-2.6,8.3-6.5,11.6c-4.2,3.7-9.3,5.5-15.3,5.5
						c-1.4,0-2.7-0.1-4-0.3l0.5-2.1c1,0.1,2.1,0.2,3.2,0.2c5,0,9.3-1.5,12.9-4.5c3.3-2.9,5.1-6.4,5.4-10.5c0-0.3,0-0.5,0-0.8
						c0-4.4-1.8-8.2-5.4-11.3c-1.7-1.4-3.5-2.5-5.5-3.3C293.3,305.5,291.4,305,289.4,304.9z"/>
					
						<linearGradient id="SVGID_19_" gradientUnits="userSpaceOnUse" x1="284.6392" y1="252.6216" x2="287.8413" y2="288.9964" gradientTransform="matrix(1 0 0 -1 2.3398 580.04)">
						<stop  offset="0" style="stop-color:#42362D"/>
						<stop  offset="1" style="stop-color:#7F776F"/>
					</linearGradient>
					<path fill="url(#SVGID_19_)" d="M284.5,336.3c-3.8-0.5-7-2-9.8-4.3c-3.7-3.1-5.5-6.9-5.5-11.3c0-1.3,0.2-2.6,0.6-3.8
						c0.7-2.8,2.3-5.3,4.9-7.5c3.5-3.1,7.8-4.6,12.9-4.6c0.6,0,1.2,0,1.8,0.1c2,0.2,3.9,0.6,5.6,1.3c2,0.8,3.8,1.9,5.5,3.3
						c3.6,3.1,5.4,6.9,5.4,11.3c0,0.3,0,0.5,0,0.8c-0.2,4-2,7.5-5.4,10.5c-3.6,3-7.9,4.5-12.9,4.5
						C286.5,336.5,285.5,336.4,284.5,336.3z"/>
					
						<linearGradient id="SVGID_20_" gradientUnits="userSpaceOnUse" x1="284.6392" y1="252.6216" x2="287.8413" y2="288.9964" gradientTransform="matrix(1 0 0 -1 2.3398 580.04)">
						<stop  offset="0" style="stop-color:#42362D"/>
						<stop  offset="1" style="stop-color:#7F776F"/>
					</linearGradient>
					<path fill="url(#SVGID_20_)" d="M284.5,336.3c-3.8-0.5-7-2-9.8-4.3c-3.7-3.1-5.5-6.9-5.5-11.3c0-1.3,0.2-2.6,0.6-3.8
						c0.7-2.8,2.3-5.3,4.9-7.5c3.5-3.1,7.8-4.6,12.9-4.6c0.6,0,1.2,0,1.8,0.1c2,0.2,3.9,0.6,5.6,1.3c2,0.8,3.8,1.9,5.5,3.3
						c3.6,3.1,5.4,6.9,5.4,11.3c0,0.3,0,0.5,0,0.8c-0.2,4-2,7.5-5.4,10.5c-3.6,3-7.9,4.5-12.9,4.5
						C286.5,336.5,285.5,336.4,284.5,336.3z"/>
					
						<linearGradient id="SVGID_21_" gradientUnits="userSpaceOnUse" x1="264.3892" y1="255.8008" x2="288.0684" y2="262.1602" gradientTransform="matrix(1 0 0 -1 2.3398 580.04)">
						<stop  offset="0" style="stop-color:#292A2C"/>
						<stop  offset="0.1647" style="stop-color:#434545"/>
						<stop  offset="0.4588" style="stop-color:#171918"/>
						<stop  offset="0.6824" style="stop-color:#000000"/>
						<stop  offset="0.8784" style="stop-color:#516482"/>
					</linearGradient>
					<path fill="url(#SVGID_21_)" d="M266.6,315.3c0.9-3.3,2.8-6.3,5.8-9c4.3-3.8,9.5-5.6,15.6-5.6c0.8,0,1.7,0.1,2.5,0.1l-1.1,4.1
						c-0.6,0-1.1-0.1-1.8-0.1c-5.1,0-9.4,1.5-12.9,4.6c-2.6,2.2-4.2,4.7-4.9,7.5c-0.4,1.2-0.6,2.5-0.6,3.8c0,4.4,1.8,8.1,5.5,11.3
						c2.7,2.4,6,3.8,9.8,4.3l-0.5,2.1c-4.4-0.7-8.3-2.4-11.6-5.2c-4.3-3.7-6.4-8.2-6.4-13.4C266,318.2,266.2,316.7,266.6,315.3z"/>
					
						<linearGradient id="SVGID_22_" gradientUnits="userSpaceOnUse" x1="264.3892" y1="255.8008" x2="288.0684" y2="262.1602" gradientTransform="matrix(1 0 0 -1 2.3398 580.04)">
						<stop  offset="0" style="stop-color:#292A2C"/>
						<stop  offset="0.1647" style="stop-color:#434545"/>
						<stop  offset="0.4588" style="stop-color:#171918"/>
						<stop  offset="0.6824" style="stop-color:#000000"/>
						<stop  offset="0.8784" style="stop-color:#516482"/>
					</linearGradient>
					<path fill="url(#SVGID_22_)" d="M266.6,315.3c0.9-3.3,2.8-6.3,5.8-9c4.3-3.8,9.5-5.6,15.6-5.6c0.8,0,1.7,0.1,2.5,0.1l-1.1,4.1
						c-0.6,0-1.1-0.1-1.8-0.1c-5.1,0-9.4,1.5-12.9,4.6c-2.6,2.2-4.2,4.7-4.9,7.5c-0.4,1.2-0.6,2.5-0.6,3.8c0,4.4,1.8,8.1,5.5,11.3
						c2.7,2.4,6,3.8,9.8,4.3l-0.5,2.1c-4.4-0.7-8.3-2.4-11.6-5.2c-4.3-3.7-6.4-8.2-6.4-13.4C266,318.2,266.2,316.7,266.6,315.3z"/>
				</g>
			</g>
			<g>
				<g>
					
						<linearGradient id="SVGID_23_" gradientUnits="userSpaceOnUse" x1="267.958" y1="264.2905" x2="303.4096" y2="256.823" gradientTransform="matrix(1 0 0 -1 2.3398 580.04)">
						<stop  offset="0" style="stop-color:#725130"/>
						<stop  offset="3.137255e-002" style="stop-color:#704E32"/>
						<stop  offset="5.098039e-002" style="stop-color:#7C5B32"/>
						<stop  offset="0.1882" style="stop-color:#8C652A"/>
						<stop  offset="0.2392" style="stop-color:#8F8F8D"/>
						<stop  offset="0.4471" style="stop-color:#A9A9A7"/>
						<stop  offset="0.502" style="stop-color:#D1D1CF"/>
						<stop  offset="0.5961" style="stop-color:#ADAFA1"/>
						<stop  offset="0.651" style="stop-color:#18191D"/>
						<stop  offset="0.7098" style="stop-color:#232428"/>
						<stop  offset="0.8196" style="stop-color:#6B695D"/>
						<stop  offset="1" style="stop-color:#6A654F"/>
					</linearGradient>
					<path fill="url(#SVGID_23_)" d="M304.9,320.8l-2.1,11.8l-36.1-3.6l3.4-12.5l0,0c0.8-2.2,2.2-4.3,4.3-6.2
						c3.5-3,7.8-4.5,12.8-4.5s9.2,1.5,12.6,4.5C303,313.2,304.7,316.7,304.9,320.8z"/>
					
						<linearGradient id="SVGID_24_" gradientUnits="userSpaceOnUse" x1="267.958" y1="264.2905" x2="303.4096" y2="256.823" gradientTransform="matrix(1 0 0 -1 2.3398 580.04)">
						<stop  offset="0" style="stop-color:#725130"/>
						<stop  offset="3.137255e-002" style="stop-color:#704E32"/>
						<stop  offset="5.098039e-002" style="stop-color:#7C5B32"/>
						<stop  offset="0.1882" style="stop-color:#8C652A"/>
						<stop  offset="0.2392" style="stop-color:#8F8F8D"/>
						<stop  offset="0.4471" style="stop-color:#A9A9A7"/>
						<stop  offset="0.502" style="stop-color:#D1D1CF"/>
						<stop  offset="0.5961" style="stop-color:#ADAFA1"/>
						<stop  offset="0.651" style="stop-color:#18191D"/>
						<stop  offset="0.7098" style="stop-color:#232428"/>
						<stop  offset="0.8196" style="stop-color:#6B695D"/>
						<stop  offset="1" style="stop-color:#6A654F"/>
					</linearGradient>
					<path fill="url(#SVGID_24_)" d="M304.9,320.8l-2.1,11.8l-36.1-3.6l3.4-12.5l0,0c0.8-2.2,2.2-4.3,4.3-6.2
						c3.5-3,7.8-4.5,12.8-4.5s9.2,1.5,12.6,4.5C303,313.2,304.7,316.7,304.9,320.8z"/>
				</g>
				<g>
					
						<radialGradient id="SVGID_25_" cx="276.96" cy="255.3398" r="36.2375" gradientTransform="matrix(1 0 0 -1 2.3398 580.04)" gradientUnits="userSpaceOnUse">
						<stop  offset="0" style="stop-color:#000000;stop-opacity:0"/>
						<stop  offset="0.4314" style="stop-color:#000000;stop-opacity:0"/>
						<stop  offset="0.6627" style="stop-color:#020202;stop-opacity:0.7176"/>
						<stop  offset="1" style="stop-color:#040404"/>
					</radialGradient>
					<path fill="url(#SVGID_25_)" d="M304.9,320.8l-2.1,11.8l-36.1-3.6l3.4-12.5l0,0c0.8-2.2,2.2-4.3,4.3-6.2
						c3.5-3,7.8-4.5,12.8-4.5s9.2,1.5,12.6,4.5C303,313.2,304.7,316.7,304.9,320.8z"/>
					
						<radialGradient id="SVGID_26_" cx="276.96" cy="255.3398" r="36.2375" gradientTransform="matrix(1 0 0 -1 2.3398 580.04)" gradientUnits="userSpaceOnUse">
						<stop  offset="0" style="stop-color:#000000;stop-opacity:0"/>
						<stop  offset="0.4314" style="stop-color:#000000;stop-opacity:0"/>
						<stop  offset="0.6627" style="stop-color:#020202;stop-opacity:0.7176"/>
						<stop  offset="1" style="stop-color:#040404"/>
					</radialGradient>
					<path fill="url(#SVGID_26_)" d="M304.9,320.8l-2.1,11.8l-36.1-3.6l3.4-12.5l0,0c0.8-2.2,2.2-4.3,4.3-6.2
						c3.5-3,7.8-4.5,12.8-4.5s9.2,1.5,12.6,4.5C303,313.2,304.7,316.7,304.9,320.8z"/>
				</g>
				<g>
					<g>
						
							<linearGradient id="SVGID_27_" gradientUnits="userSpaceOnUse" x1="257.7988" y1="251.6929" x2="302.0247" y2="239.8231" gradientTransform="matrix(1 0 0 -1 2.3398 580.04)">
							<stop  offset="0" style="stop-color:#857D72"/>
							<stop  offset="0.3451" style="stop-color:#938F86"/>
							<stop  offset="0.3804" style="stop-color:#55544F"/>
							<stop  offset="0.4471" style="stop-color:#B3BAC2"/>
							<stop  offset="0.5529" style="stop-color:#BFC1C0"/>
							<stop  offset="0.7137" style="stop-color:#9B9C9A"/>
							<stop  offset="0.8235" style="stop-color:#504748"/>
							<stop  offset="1" style="stop-color:#645A59"/>
						</linearGradient>
						<path fill="url(#SVGID_27_)" d="M304.7,346.5v-0.6c0-0.3,0-0.6,0-0.8c-0.2-5.2-2.5-9.6-6.8-13.2l-0.1-0.1
							c-1.9-1.7-4-3-6.3-3.9c-3-1.3-6.2-2-9.8-2c-6.4,0-11.8,2-16.3,5.9v0.1c-3.1,2.7-5.1,5.8-6.1,9.3c0.1-3.5,1.2-6.6,3.1-9.3
							c1-1.4,2.2-2.7,3.6-3.9c4.4-3.9,9.8-5.8,16.2-5.8c4.2,0,7.9,0.8,11.3,2.5c1.8,0.9,3.4,2,4.9,3.3c1.4,1.2,2.6,2.5,3.5,3.9
							c2.1,3.1,3.2,6.5,3.2,10.3c0,0.9-0.1,1.8-0.2,2.8C305,345.5,304.8,346,304.7,346.5z"/>
						
							<linearGradient id="SVGID_28_" gradientUnits="userSpaceOnUse" x1="257.7988" y1="251.6929" x2="302.0247" y2="239.8231" gradientTransform="matrix(1 0 0 -1 2.3398 580.04)">
							<stop  offset="0" style="stop-color:#857D72"/>
							<stop  offset="0.3451" style="stop-color:#938F86"/>
							<stop  offset="0.3804" style="stop-color:#55544F"/>
							<stop  offset="0.4471" style="stop-color:#B3BAC2"/>
							<stop  offset="0.5529" style="stop-color:#BFC1C0"/>
							<stop  offset="0.7137" style="stop-color:#9B9C9A"/>
							<stop  offset="0.8235" style="stop-color:#504748"/>
							<stop  offset="1" style="stop-color:#645A59"/>
						</linearGradient>
						<path fill="url(#SVGID_28_)" d="M304.7,346.5v-0.6c0-0.3,0-0.6,0-0.8c-0.2-5.2-2.5-9.6-6.8-13.2l-0.1-0.1
							c-1.9-1.7-4-3-6.3-3.9c-3-1.3-6.2-2-9.8-2c-6.4,0-11.8,2-16.3,5.9v0.1c-3.1,2.7-5.1,5.8-6.1,9.3c0.1-3.5,1.2-6.6,3.1-9.3
							c1-1.4,2.2-2.7,3.6-3.9c4.4-3.9,9.8-5.8,16.2-5.8c4.2,0,7.9,0.8,11.3,2.5c1.8,0.9,3.4,2,4.9,3.3c1.4,1.2,2.6,2.5,3.5,3.9
							c2.1,3.1,3.2,6.5,3.2,10.3c0,0.9-0.1,1.8-0.2,2.8C305,345.5,304.8,346,304.7,346.5z"/>
						
							<linearGradient id="SVGID_29_" gradientUnits="userSpaceOnUse" x1="256.6641" y1="240.5991" x2="312.5868" y2="225.6154" gradientTransform="matrix(1 0 0 -1 2.3398 580.04)">
							<stop  offset="0" style="stop-color:#523C25"/>
							<stop  offset="0.4118" style="stop-color:#B3BAC2"/>
							<stop  offset="0.4392" style="stop-color:#FFFFFF"/>
							<stop  offset="0.7137" style="stop-color:#9B9C9A"/>
							<stop  offset="1" style="stop-color:#645A59"/>
						</linearGradient>
						<path fill="url(#SVGID_29_)" d="M271.4,361.1l-1.6,1.8c-1.5-0.8-3-1.8-4.3-2.9c-4.5-4-6.8-8.7-6.8-14.1c0-0.1,0-0.2,0-0.3
							c0.1-1.6,0.3-3,0.6-4.4c0.9-3.5,3-6.6,6.1-9.3v-0.1c4.5-3.9,9.9-5.9,16.3-5.9c3.6,0,6.8,0.6,9.8,2c2.3,0.9,4.4,2.3,6.3,3.9
							l0.1,0.1c4.3,3.6,6.5,8,6.8,13.2l-4.3,0.4c-0.3-4-2.2-7.4-5.5-10.4c-1.6-1.4-3.3-2.5-5.2-3.2c-0.2-0.1-0.4-0.2-0.5-0.3
							c-2.4-0.9-5-1.4-7.8-1.4c-3.1,0-6,0.5-8.5,1.6c-1.9,0.8-3.6,1.9-5.1,3.2c-2.6,2.3-4.3,4.9-5.1,7.8c-0.3,1-0.5,2.1-0.5,3.1
							c-0.1,0.3-0.1,0.6-0.1,0.9c0,4.6,1.9,8.5,5.7,11.8C269,359.6,270.1,360.4,271.4,361.1z"/>
						
							<linearGradient id="SVGID_30_" gradientUnits="userSpaceOnUse" x1="256.6641" y1="240.5991" x2="312.5868" y2="225.6154" gradientTransform="matrix(1 0 0 -1 2.3398 580.04)">
							<stop  offset="0" style="stop-color:#523C25"/>
							<stop  offset="0.4118" style="stop-color:#B3BAC2"/>
							<stop  offset="0.4392" style="stop-color:#FFFFFF"/>
							<stop  offset="0.7137" style="stop-color:#9B9C9A"/>
							<stop  offset="1" style="stop-color:#645A59"/>
						</linearGradient>
						<path fill="url(#SVGID_30_)" d="M271.4,361.1l-1.6,1.8c-1.5-0.8-3-1.8-4.3-2.9c-4.5-4-6.8-8.7-6.8-14.1c0-0.1,0-0.2,0-0.3
							c0.1-1.6,0.3-3,0.6-4.4c0.9-3.5,3-6.6,6.1-9.3v-0.1c4.5-3.9,9.9-5.9,16.3-5.9c3.6,0,6.8,0.6,9.8,2c2.3,0.9,4.4,2.3,6.3,3.9
							l0.1,0.1c4.3,3.6,6.5,8,6.8,13.2l-4.3,0.4c-0.3-4-2.2-7.4-5.5-10.4c-1.6-1.4-3.3-2.5-5.2-3.2c-0.2-0.1-0.4-0.2-0.5-0.3
							c-2.4-0.9-5-1.4-7.8-1.4c-3.1,0-6,0.5-8.5,1.6c-1.9,0.8-3.6,1.9-5.1,3.2c-2.6,2.3-4.3,4.9-5.1,7.8c-0.3,1-0.5,2.1-0.5,3.1
							c-0.1,0.3-0.1,0.6-0.1,0.9c0,4.6,1.9,8.5,5.7,11.8C269,359.6,270.1,360.4,271.4,361.1z"/>
						
							<linearGradient id="SVGID_31_" gradientUnits="userSpaceOnUse" x1="259.8101" y1="233.04" x2="298.1602" y2="233.04" gradientTransform="matrix(1 0 0 -1 2.3398 580.04)">
							<stop  offset="0" style="stop-color:#635241"/>
							<stop  offset="1" style="stop-color:#ADB2B9"/>
						</linearGradient>
						<path fill="url(#SVGID_31_)" d="M300.5,345.5c0,0.5,0,1,0,1.4c0,0.3,0,0.6,0,0.9c0,0.9-0.1,1.8-0.4,2.7
							c-0.8,3.1-2.5,5.8-5.2,8.3c-3.7,3.2-8.2,4.8-13.5,4.8c-3.8,0-7.2-0.8-10.1-2.4c-1.3-0.7-2.4-1.5-3.5-2.4
							c-3.8-3.3-5.7-7.2-5.7-11.8c0-0.3,0-0.6,0.1-0.9c0-1.1,0.2-2.1,0.5-3.1c0.7-2.9,2.4-5.5,5.1-7.8c1.6-1.3,3.3-2.4,5.1-3.2
							c2.5-1.1,5.3-1.6,8.5-1.6c2.8,0,5.4,0.5,7.8,1.4c0.2,0.1,0.4,0.1,0.5,0.3c1.9,0.7,3.6,1.8,5.2,3.2
							C298.3,338,300.1,341.5,300.5,345.5z"/>
						
							<linearGradient id="SVGID_32_" gradientUnits="userSpaceOnUse" x1="259.8101" y1="233.04" x2="298.1602" y2="233.04" gradientTransform="matrix(1 0 0 -1 2.3398 580.04)">
							<stop  offset="0" style="stop-color:#635241"/>
							<stop  offset="1" style="stop-color:#ADB2B9"/>
						</linearGradient>
						<path fill="url(#SVGID_32_)" d="M300.5,345.5c0,0.5,0,1,0,1.4c0,0.3,0,0.6,0,0.9c0,0.9-0.1,1.8-0.4,2.7
							c-0.8,3.1-2.5,5.8-5.2,8.3c-3.7,3.2-8.2,4.8-13.5,4.8c-3.8,0-7.2-0.8-10.1-2.4c-1.3-0.7-2.4-1.5-3.5-2.4
							c-3.8-3.3-5.7-7.2-5.7-11.8c0-0.3,0-0.6,0.1-0.9c0-1.1,0.2-2.1,0.5-3.1c0.7-2.9,2.4-5.5,5.1-7.8c1.6-1.3,3.3-2.4,5.1-3.2
							c2.5-1.1,5.3-1.6,8.5-1.6c2.8,0,5.4,0.5,7.8,1.4c0.2,0.1,0.4,0.1,0.5,0.3c1.9,0.7,3.6,1.8,5.2,3.2
							C298.3,338,300.1,341.5,300.5,345.5z"/>
						
							<linearGradient id="SVGID_33_" gradientUnits="userSpaceOnUse" x1="286.0581" y1="238.3667" x2="284.7016" y2="220.443" gradientTransform="matrix(1 0 0 -1 2.3398 580.04)">
							<stop  offset="0" style="stop-color:#8E8D8B"/>
							<stop  offset="0.2078" style="stop-color:#91918F"/>
							<stop  offset="0.5059" style="stop-color:#6B6261"/>
							<stop  offset="1" style="stop-color:#645A59"/>
						</linearGradient>
						<path fill="url(#SVGID_33_)" d="M271.4,361.1c2.9,1.6,6.3,2.4,10.1,2.4c5.3,0,9.8-1.6,13.5-4.8c2.7-2.4,4.4-5.2,5.2-8.3
							c0.2-0.9,0.3-1.8,0.4-2.7c0-0.3,0-0.6,0-0.9c0-0.5,0-0.9,0-1.4l4.3-0.4c0,0.2,0,0.5,0,0.8v0.6c0,0.2,0,0.3,0,0.4
							c-0.1,1.4-0.3,2.7-0.7,4c-1,3.4-3.1,6.5-6.2,9.1c-4.4,3.8-9.8,5.8-16.1,5.8c-4.5,0-8.5-1-12-2.8L271.4,361.1z"/>
						
							<linearGradient id="SVGID_34_" gradientUnits="userSpaceOnUse" x1="286.0581" y1="238.3667" x2="284.7016" y2="220.443" gradientTransform="matrix(1 0 0 -1 2.3398 580.04)">
							<stop  offset="0" style="stop-color:#8E8D8B"/>
							<stop  offset="0.2078" style="stop-color:#91918F"/>
							<stop  offset="0.5059" style="stop-color:#6B6261"/>
							<stop  offset="1" style="stop-color:#645A59"/>
						</linearGradient>
						<path fill="url(#SVGID_34_)" d="M271.4,361.1c2.9,1.6,6.3,2.4,10.1,2.4c5.3,0,9.8-1.6,13.5-4.8c2.7-2.4,4.4-5.2,5.2-8.3
							c0.2-0.9,0.3-1.8,0.4-2.7c0-0.3,0-0.6,0-0.9c0-0.5,0-0.9,0-1.4l4.3-0.4c0,0.2,0,0.5,0,0.8v0.6c0,0.2,0,0.3,0,0.4
							c-0.1,1.4-0.3,2.7-0.7,4c-1,3.4-3.1,6.5-6.2,9.1c-4.4,3.8-9.8,5.8-16.1,5.8c-4.5,0-8.5-1-12-2.8L271.4,361.1z"/>
					</g>
				</g>
				<g>
					
						<linearGradient id="SVGID_35_" gradientUnits="userSpaceOnUse" x1="260.7832" y1="234.8867" x2="296.904" y2="226.5435" gradientTransform="matrix(1 0 0 -1 2.3398 580.04)">
						<stop  offset="0" style="stop-color:#725130"/>
						<stop  offset="3.137255e-002" style="stop-color:#704E32"/>
						<stop  offset="5.098039e-002" style="stop-color:#7C5B32"/>
						<stop  offset="0.1882" style="stop-color:#8C652A"/>
						<stop  offset="0.2392" style="stop-color:#8F8F8D"/>
						<stop  offset="0.4471" style="stop-color:#A9A9A7"/>
						<stop  offset="0.502" style="stop-color:#D1D1CF"/>
						<stop  offset="0.5961" style="stop-color:#ADAFA1"/>
						<stop  offset="0.651" style="stop-color:#18191D"/>
						<stop  offset="0.7098" style="stop-color:#232428"/>
						<stop  offset="0.8196" style="stop-color:#6B695D"/>
						<stop  offset="1" style="stop-color:#6A654F"/>
					</linearGradient>
					<path fill="url(#SVGID_35_)" d="M263,343.2c0.1-0.2,0.1-0.4,0.2-0.6c0.9-2.4,2.4-4.6,4.6-6.6c3.7-3.2,8.3-4.9,13.6-4.9
						c5.3,0,9.8,1.6,13.5,4.9s5.6,7.2,5.6,11.8c0,0.3,0,0.6,0,0.9c0,0.4-0.1,0.9-0.1,1.3c-0.1,0.8-0.2,1.5-0.4,2.1l-3.4,19
						l-38.9-8.3l4.7-17.6c0.1-0.4,0.2-0.9,0.3-1.3C262.8,343.7,262.9,343.4,263,343.2z"/>
					
						<linearGradient id="SVGID_36_" gradientUnits="userSpaceOnUse" x1="260.7832" y1="234.8867" x2="296.904" y2="226.5435" gradientTransform="matrix(1 0 0 -1 2.3398 580.04)">
						<stop  offset="0" style="stop-color:#725130"/>
						<stop  offset="3.137255e-002" style="stop-color:#704E32"/>
						<stop  offset="5.098039e-002" style="stop-color:#7C5B32"/>
						<stop  offset="0.1882" style="stop-color:#8C652A"/>
						<stop  offset="0.2392" style="stop-color:#8F8F8D"/>
						<stop  offset="0.4471" style="stop-color:#A9A9A7"/>
						<stop  offset="0.502" style="stop-color:#D1D1CF"/>
						<stop  offset="0.5961" style="stop-color:#ADAFA1"/>
						<stop  offset="0.651" style="stop-color:#18191D"/>
						<stop  offset="0.7098" style="stop-color:#232428"/>
						<stop  offset="0.8196" style="stop-color:#6B695D"/>
						<stop  offset="1" style="stop-color:#6A654F"/>
					</linearGradient>
					<path fill="url(#SVGID_36_)" d="M263,343.2c0.1-0.2,0.1-0.4,0.2-0.6c0.9-2.4,2.4-4.6,4.6-6.6c3.7-3.2,8.3-4.9,13.6-4.9
						c5.3,0,9.8,1.6,13.5,4.9s5.6,7.2,5.6,11.8c0,0.3,0,0.6,0,0.9c0,0.4-0.1,0.9-0.1,1.3c-0.1,0.8-0.2,1.5-0.4,2.1l-3.4,19
						l-38.9-8.3l4.7-17.6c0.1-0.4,0.2-0.9,0.3-1.3C262.8,343.7,262.9,343.4,263,343.2z"/>
				</g>
				<g>
					
						<radialGradient id="SVGID_37_" cx="279.5103" cy="224.8896" r="46.975" gradientTransform="matrix(1 0 0 -1 2.3398 580.04)" gradientUnits="userSpaceOnUse">
						<stop  offset="0" style="stop-color:#000000;stop-opacity:0"/>
						<stop  offset="0.4314" style="stop-color:#000000;stop-opacity:0"/>
						<stop  offset="0.6627" style="stop-color:#020202;stop-opacity:0.7176"/>
						<stop  offset="1" style="stop-color:#040404"/>
					</radialGradient>
					<path fill="url(#SVGID_37_)" d="M262.9,343.2c0-0.2,0.1-0.4,0.2-0.6c0.9-2.4,2.4-4.6,4.6-6.6c3.8-3.2,8.3-4.9,13.6-4.9
						c5.3,0,9.8,1.6,13.5,4.9c3.8,3.3,5.7,7.2,5.7,11.8c0,0.3,0,0.6,0,0.9c-0.1,0.4-0.1,0.9-0.2,1.3c-0.1,0.6-0.2,1.2-0.3,1.7
						c-13.5-7.2-26.6-7.2-39.3,0l1.7-6.5c0-0.4,0.1-0.9,0.3-1.3C262.7,343.7,262.8,343.4,262.9,343.2z"/>
					
						<radialGradient id="SVGID_38_" cx="279.5103" cy="224.8896" r="46.975" gradientTransform="matrix(1 0 0 -1 2.3398 580.04)" gradientUnits="userSpaceOnUse">
						<stop  offset="0" style="stop-color:#000000;stop-opacity:0"/>
						<stop  offset="0.4314" style="stop-color:#000000;stop-opacity:0"/>
						<stop  offset="0.6627" style="stop-color:#020202;stop-opacity:0.7176"/>
						<stop  offset="1" style="stop-color:#040404"/>
					</radialGradient>
					<path fill="url(#SVGID_38_)" d="M262.9,343.2c0-0.2,0.1-0.4,0.2-0.6c0.9-2.4,2.4-4.6,4.6-6.6c3.8-3.2,8.3-4.9,13.6-4.9
						c5.3,0,9.8,1.6,13.5,4.9c3.8,3.3,5.7,7.2,5.7,11.8c0,0.3,0,0.6,0,0.9c-0.1,0.4-0.1,0.9-0.2,1.3c-0.1,0.6-0.2,1.2-0.3,1.7
						c-13.5-7.2-26.6-7.2-39.3,0l1.7-6.5c0-0.4,0.1-0.9,0.3-1.3C262.7,343.7,262.8,343.4,262.9,343.2z"/>
				</g>
				<g>
					<g>
						
							<radialGradient id="SVGID_39_" cx="274.0601" cy="203.7246" r="24.175" fx="275.1028" fy="203.7246" gradientTransform="matrix(1 0 0 -0.9317 2.3398 560.9427)" gradientUnits="userSpaceOnUse">
							<stop  offset="0.2392" style="stop-color:#ABA476"/>
							<stop  offset="0.8078" style="stop-color:#ABA476"/>
							<stop  offset="0.8667" style="stop-color:#403F3E"/>
							<stop  offset="1" style="stop-color:#595856"/>
						</radialGradient>
						<path fill="url(#SVGID_39_)" d="M296.3,372c0-0.1,0-0.3,0-0.5v-0.4c0-1-0.1-1.9-0.3-2.7c-0.6-4-2.5-7.4-5.5-10
							c-3.9-3.4-8.5-5-14-5s-10.2,1.7-14.1,5c-2.5,2.2-4.2,4.7-5,7.5c-0.1,0.2-0.2,0.4-0.2,0.7c0.1-3.2,1.1-6,3.1-8.5
							c0.7-1,1.6-2,2.7-2.9c3.9-3.4,8.6-5,14.1-5s10.2,1.7,14,5c3.9,3.4,5.8,7.4,5.8,12.2c0,1.1-0.1,2.2-0.3,3.3L296.3,372z"/>
						
							<radialGradient id="SVGID_40_" cx="274.0601" cy="203.7246" r="24.175" fx="275.1028" fy="203.7246" gradientTransform="matrix(1 0 0 -0.9317 2.3398 560.9427)" gradientUnits="userSpaceOnUse">
							<stop  offset="0.2392" style="stop-color:#ABA476"/>
							<stop  offset="0.8078" style="stop-color:#ABA476"/>
							<stop  offset="0.8667" style="stop-color:#403F3E"/>
							<stop  offset="1" style="stop-color:#595856"/>
						</radialGradient>
						<path fill="url(#SVGID_40_)" d="M296.3,372c0-0.1,0-0.3,0-0.5v-0.4c0-1-0.1-1.9-0.3-2.7c-0.6-4-2.5-7.4-5.5-10
							c-3.9-3.4-8.5-5-14-5s-10.2,1.7-14.1,5c-2.5,2.2-4.2,4.7-5,7.5c-0.1,0.2-0.2,0.4-0.2,0.7c0.1-3.2,1.1-6,3.1-8.5
							c0.7-1,1.6-2,2.7-2.9c3.9-3.4,8.6-5,14.1-5s10.2,1.7,14,5c3.9,3.4,5.8,7.4,5.8,12.2c0,1.1-0.1,2.2-0.3,3.3L296.3,372z"/>
						<path d="M296,368.5c-0.6-3.5-2.5-6.6-5.5-9.2c-3.9-3.4-8.5-5-14-5s-10.2,1.7-14.1,5c-2.5,2.2-4.2,4.7-5,7.5
							c-0.1,0-0.1,0.1-0.1,0.2c0-0.1,0-0.2,0-0.3h-0.1c0-0.2,0.1-0.5,0.2-0.7c0.8-2.8,2.5-5.3,5-7.5c3.9-3.4,8.6-5,14.1-5
							s10.2,1.7,14,5C293.5,361.1,295.4,364.4,296,368.5z"/>
						<path d="M296,368.5c-0.6-3.5-2.5-6.6-5.5-9.2c-3.9-3.4-8.5-5-14-5s-10.2,1.7-14.1,5c-2.5,2.2-4.2,4.7-5,7.5
							c-0.1,0-0.1,0.1-0.1,0.2c0-0.1,0-0.2,0-0.3h-0.1c0-0.2,0.1-0.5,0.2-0.7c0.8-2.8,2.5-5.3,5-7.5c3.9-3.4,8.6-5,14.1-5
							s10.2,1.7,14,5C293.5,361.1,295.4,364.4,296,368.5z"/>
						
							<linearGradient id="SVGID_41_" gradientUnits="userSpaceOnUse" x1="273.4917" y1="191.2603" x2="275.2295" y2="227.3609" gradientTransform="matrix(1 0 0 -1 2.3398 580.04)">
							<stop  offset="0" style="stop-color:#111111"/>
							<stop  offset="1" style="stop-color:#262626"/>
						</linearGradient>
						<path fill="url(#SVGID_41_)" d="M257.3,367c0-0.1,0-0.1,0.1-0.2c0.8-2.8,2.5-5.3,5-7.5c3.9-3.4,8.6-5,14.1-5s10.2,1.7,14,5
							c3,2.6,4.9,5.7,5.5,9.2c0.2,0.8,0.3,1.7,0.3,2.7v0.4c0,0.2,0,0.3,0,0.5c-0.9,2.7-2.6,5.1-5.1,7.3c-3.8,3.4-8.5,5-14,5
							s-10.2-1.7-14.1-5c-3.8-3.3-5.8-7.3-5.9-11.8c0-0.1,0-0.2,0-0.3C257.3,367.1,257.3,367,257.3,367z"/>
						
							<linearGradient id="SVGID_42_" gradientUnits="userSpaceOnUse" x1="273.4917" y1="191.2603" x2="275.2295" y2="227.3609" gradientTransform="matrix(1 0 0 -1 2.3398 580.04)">
							<stop  offset="0" style="stop-color:#111111"/>
							<stop  offset="1" style="stop-color:#262626"/>
						</linearGradient>
						<path fill="url(#SVGID_42_)" d="M257.3,367c0-0.1,0-0.1,0.1-0.2c0.8-2.8,2.5-5.3,5-7.5c3.9-3.4,8.6-5,14.1-5s10.2,1.7,14,5
							c3,2.6,4.9,5.7,5.5,9.2c0.2,0.8,0.3,1.7,0.3,2.7v0.4c0,0.2,0,0.3,0,0.5c-0.9,2.7-2.6,5.1-5.1,7.3c-3.8,3.4-8.5,5-14,5
							s-10.2-1.7-14.1-5c-3.8-3.3-5.8-7.3-5.9-11.8c0-0.1,0-0.2,0-0.3C257.3,367.1,257.3,367,257.3,367z"/>
						
							<linearGradient id="SVGID_43_" gradientUnits="userSpaceOnUse" x1="254.7549" y1="207.5347" x2="293.1547" y2="197.2586" gradientTransform="matrix(1 0 0 -1 2.3398 580.04)">
							<stop  offset="0" style="stop-color:#292C31"/>
							<stop  offset="9.803922e-002" style="stop-color:#666A6F"/>
							<stop  offset="0.4314" style="stop-color:#26292E"/>
							<stop  offset="0.698" style="stop-color:#41454E"/>
							<stop  offset="1" style="stop-color:#2D2B2C"/>
						</linearGradient>
						<path fill="url(#SVGID_43_)" d="M257.3,367c0,0.1,0,0.2,0,0.2c0,0.1,0,0.2,0,0.3c0.1,4.6,2,8.5,5.9,11.8c3.9,3.4,8.6,5,14.1,5
							s10.2-1.7,14-5c2.5-2.2,4.2-4.6,5.1-7.3c-0.3,4.2-2.3,7.8-5.8,10.8c-3.9,3.4-8.5,5.1-14,5.1s-10.2-1.7-14.1-5.1
							c-3.9-3.4-5.9-7.4-5.9-12.1c0-1.4,0.2-2.8,0.6-4h0.1C257.3,366.7,257.3,366.8,257.3,367z"/>
						
							<linearGradient id="SVGID_44_" gradientUnits="userSpaceOnUse" x1="254.7549" y1="207.5347" x2="293.1547" y2="197.2586" gradientTransform="matrix(1 0 0 -1 2.3398 580.04)">
							<stop  offset="0" style="stop-color:#292C31"/>
							<stop  offset="9.803922e-002" style="stop-color:#666A6F"/>
							<stop  offset="0.4314" style="stop-color:#26292E"/>
							<stop  offset="0.698" style="stop-color:#41454E"/>
							<stop  offset="1" style="stop-color:#2D2B2C"/>
						</linearGradient>
						<path fill="url(#SVGID_44_)" d="M257.3,367c0,0.1,0,0.2,0,0.2c0,0.1,0,0.2,0,0.3c0.1,4.6,2,8.5,5.9,11.8c3.9,3.4,8.6,5,14.1,5
							s10.2-1.7,14-5c2.5-2.2,4.2-4.6,5.1-7.3c-0.3,4.2-2.3,7.8-5.8,10.8c-3.9,3.4-8.5,5.1-14,5.1s-10.2-1.7-14.1-5.1
							c-3.9-3.4-5.9-7.4-5.9-12.1c0-1.4,0.2-2.8,0.6-4h0.1C257.3,366.7,257.3,366.8,257.3,367z"/>
					</g>
				</g>
				<g>
					<g>
						
							<linearGradient id="SVGID_45_" gradientUnits="userSpaceOnUse" x1="271.2373" y1="219.9893" x2="275.1579" y2="205.3698" gradientTransform="matrix(1 0 0 -1 2.3398 580.04)">
							<stop  offset="0" style="stop-color:#A2A286"/>
							<stop  offset="1" style="stop-color:#51565A"/>
						</linearGradient>
						<path fill="url(#SVGID_45_)" d="M269.5,369.2c-0.1,0.3-0.2,0.6-0.2,0.8c0,1.7,0.7,3.1,2.1,4.2c1.3,1.1,2.9,1.7,4.9,1.7
							c1.9,0,3.5-0.6,4.9-1.7c1.2-1,1.8-2.3,1.9-3.9c0-0.1,0-0.2,0-0.3c0-1.6-0.6-2.9-1.9-4H281c-0.6-0.6-1.2-1-2-1.2h-0.1
							c-0.8-0.4-1.7-0.6-2.7-0.6c-1.9,0-3.5,0.6-4.9,1.8c-1,0.8-1.6,1.7-1.9,2.7C269.5,368.9,269.5,369,269.5,369.2z M270.5,365
							h-0.1c1.6-1.5,3.5-2.2,5.9-2.2c1.2,0,2.3,0.2,3.4,0.7c0.9,0.3,1.7,0.8,2.4,1.5c1.6,1.4,2.5,3,2.5,5c0,0.1,0,0.3,0,0.3v0.1
							c-0.1,1.9-0.9,3.5-2.5,4.8c-1.6,1.4-3.5,2.1-5.8,2.1c-2.3,0-4.3-0.7-5.8-2.1c-1.8-1.5-2.6-3.2-2.6-5.3c0-0.4,0.1-0.8,0.3-1.2
							v-0.1c0-0.1,0.1-0.3,0.1-0.4C268.5,367,269.3,365.9,270.5,365z"/>
						
							<linearGradient id="SVGID_46_" gradientUnits="userSpaceOnUse" x1="271.2373" y1="219.9893" x2="275.1579" y2="205.3698" gradientTransform="matrix(1 0 0 -1 2.3398 580.04)">
							<stop  offset="0" style="stop-color:#A2A286"/>
							<stop  offset="1" style="stop-color:#51565A"/>
						</linearGradient>
						<path fill="url(#SVGID_46_)" d="M269.5,369.2c-0.1,0.3-0.2,0.6-0.2,0.8c0,1.7,0.7,3.1,2.1,4.2c1.3,1.1,2.9,1.7,4.9,1.7
							c1.9,0,3.5-0.6,4.9-1.7c1.2-1,1.8-2.3,1.9-3.9c0-0.1,0-0.2,0-0.3c0-1.6-0.6-2.9-1.9-4H281c-0.6-0.6-1.2-1-2-1.2h-0.1
							c-0.8-0.4-1.7-0.6-2.7-0.6c-1.9,0-3.5,0.6-4.9,1.8c-1,0.8-1.6,1.7-1.9,2.7C269.5,368.9,269.5,369,269.5,369.2z M270.5,365
							h-0.1c1.6-1.5,3.5-2.2,5.9-2.2c1.2,0,2.3,0.2,3.4,0.7c0.9,0.3,1.7,0.8,2.4,1.5c1.6,1.4,2.5,3,2.5,5c0,0.1,0,0.3,0,0.3v0.1
							c-0.1,1.9-0.9,3.5-2.5,4.8c-1.6,1.4-3.5,2.1-5.8,2.1c-2.3,0-4.3-0.7-5.8-2.1c-1.8-1.5-2.6-3.2-2.6-5.3c0-0.4,0.1-0.8,0.3-1.2
							v-0.1c0-0.1,0.1-0.3,0.1-0.4C268.5,367,269.3,365.9,270.5,365z"/>
						<path fill="#11110F" d="M269.5,369.2c0-0.1,0.1-0.3,0.1-0.5c0.3-1,0.9-1.9,1.9-2.7c1.3-1.2,2.9-1.8,4.9-1.8
							c1,0,1.9,0.2,2.7,0.6h0.1c0.7,0.2,1.4,0.6,2,1.2h0.1c1.3,1.1,1.9,2.4,1.9,4c0,0.1,0,0.3,0,0.3c-0.1,1.5-0.7,2.8-1.9,3.9
							c-1.4,1.1-3,1.7-4.9,1.7s-3.5-0.6-4.9-1.7c-1.4-1.1-2.1-2.5-2.1-4.2C269.3,369.7,269.4,369.5,269.5,369.2z"/>
						<path fill="#11110F" d="M269.5,369.2c0-0.1,0.1-0.3,0.1-0.5c0.3-1,0.9-1.9,1.9-2.7c1.3-1.2,2.9-1.8,4.9-1.8
							c1,0,1.9,0.2,2.7,0.6h0.1c0.7,0.2,1.4,0.6,2,1.2h0.1c1.3,1.1,1.9,2.4,1.9,4c0,0.1,0,0.3,0,0.3c-0.1,1.5-0.7,2.8-1.9,3.9
							c-1.4,1.1-3,1.7-4.9,1.7s-3.5-0.6-4.9-1.7c-1.4-1.1-2.1-2.5-2.1-4.2C269.3,369.7,269.4,369.5,269.5,369.2z"/>
					</g>
				</g>
				<g>
					
						<linearGradient id="SVGID_47_" gradientUnits="userSpaceOnUse" x1="273.8032" y1="227.9404" x2="273.8588" y2="210.4406" gradientTransform="matrix(1 0 0 -1 2.3398 580.04)">
						<stop  offset="0" style="stop-color:#000000"/>
						<stop  offset="0.7529" style="stop-color:#000101;stop-opacity:0.902"/>
						<stop  offset="1" style="stop-color:#020303;stop-opacity:0"/>
					</linearGradient>
					<path fill="url(#SVGID_47_)" d="M269.5,363.8L269.5,363.8c1.7-1.7,4-2.5,6.7-2.5c1.3,0,2.6,0.3,3.9,0.8c1,0.4,1.9,1,2.8,1.7
						c1.9,1.6,2.9,3.5,2.9,5.9c0,0.2,0,0.3,0,0.4c0,0.5-0.1,1-0.2,1.5c-0.1,0.2-0.2,0.3-0.4,0.5c-0.2,0.1-0.4,0.1-0.5,0.1
						c-0.3-0.1-0.4-0.3-0.5-0.5c-0.2-0.2-0.3-0.4-0.1-0.5c0.1-0.3,0.1-0.7,0.1-1.1c0-0.1,0-0.2,0-0.4c0-1.9-0.8-3.4-2.3-4.7l0,0
						c-0.7-0.6-1.4-1.1-2.3-1.3l-0.1-0.1c-1-0.4-2-0.6-3.1-0.6c-2.3,0-4.1,0.7-5.6,2.1c-1.2,0.9-1.9,2-2.1,3.2l0,0
						c-0.2,0.5-0.4,1-0.4,1.5c0,0.1,0,0.2,0,0.4c0,0.3-0.1,0.5-0.3,0.6c-0.1,0.2-0.3,0.3-0.6,0.3c-0.2,0-0.4-0.1-0.5-0.3
						c-0.2-0.1-0.3-0.3-0.3-0.6c0-0.2,0-0.3,0-0.4c0-0.7,0.1-1.3,0.5-2v0.1C267.3,366.3,268.1,364.9,269.5,363.8z"/>
					
						<linearGradient id="SVGID_48_" gradientUnits="userSpaceOnUse" x1="273.8032" y1="227.9404" x2="273.8588" y2="210.4406" gradientTransform="matrix(1 0 0 -1 2.3398 580.04)">
						<stop  offset="0" style="stop-color:#000000"/>
						<stop  offset="0.7529" style="stop-color:#000101;stop-opacity:0.902"/>
						<stop  offset="1" style="stop-color:#020303;stop-opacity:0"/>
					</linearGradient>
					<path fill="url(#SVGID_48_)" d="M269.5,363.8L269.5,363.8c1.7-1.7,4-2.5,6.7-2.5c1.3,0,2.6,0.3,3.9,0.8c1,0.4,1.9,1,2.8,1.7
						c1.9,1.6,2.9,3.5,2.9,5.9c0,0.2,0,0.3,0,0.4c0,0.5-0.1,1-0.2,1.5c-0.1,0.2-0.2,0.3-0.4,0.5c-0.2,0.1-0.4,0.1-0.5,0.1
						c-0.3-0.1-0.4-0.3-0.5-0.5c-0.2-0.2-0.3-0.4-0.1-0.5c0.1-0.3,0.1-0.7,0.1-1.1c0-0.1,0-0.2,0-0.4c0-1.9-0.8-3.4-2.3-4.7l0,0
						c-0.7-0.6-1.4-1.1-2.3-1.3l-0.1-0.1c-1-0.4-2-0.6-3.1-0.6c-2.3,0-4.1,0.7-5.6,2.1c-1.2,0.9-1.9,2-2.1,3.2l0,0
						c-0.2,0.5-0.4,1-0.4,1.5c0,0.1,0,0.2,0,0.4c0,0.3-0.1,0.5-0.3,0.6c-0.1,0.2-0.3,0.3-0.6,0.3c-0.2,0-0.4-0.1-0.5-0.3
						c-0.2-0.1-0.3-0.3-0.3-0.6c0-0.2,0-0.3,0-0.4c0-0.7,0.1-1.3,0.5-2v0.1C267.3,366.3,268.1,364.9,269.5,363.8z"/>
				</g>
			</g>
			<g>
				
					<linearGradient id="SVGID_49_" gradientUnits="userSpaceOnUse" x1="271.811" y1="295.3633" x2="313.6571" y2="285.6465" gradientTransform="matrix(1 0 0 -1 2.3398 580.04)">
					<stop  offset="0" style="stop-color:#443820"/>
					<stop  offset="0.1882" style="stop-color:#000000"/>
					<stop  offset="0.5059" style="stop-color:#4F4F4D"/>
					<stop  offset="0.6627" style="stop-color:#565754"/>
					<stop  offset="0.7569" style="stop-color:#383836"/>
					<stop  offset="1" style="stop-color:#070707"/>
				</linearGradient>
				<path fill="url(#SVGID_49_)" d="M277,279.4c0,0.1,0,0.2,0,0.3c0.7-3,2.5-5.7,5.2-8.1c3.9-3.3,8.5-5,13.9-5c0.9,0,1.6,0,2.3,0
					c2.1,0.2,4.2,0.7,6.1,1.6c1.9,0.8,3.7,1.9,5.4,3.3c3.6,3,5.6,7,6.1,11.9l-4.6,28h-0.1c0-0.1,0-0.2,0-0.4c0-5.1-2.1-9.4-6.4-13
					c-1.8-1.6-3.7-2.8-5.8-3.6c-2.1-1-4.3-1.6-6.6-1.8c-0.7-0.1-1.5-0.1-2.4-0.1c-5.9,0-11,1.8-15.1,5.5c-2.8,2.5-4.7,5.3-5.6,8.5
					c-0.5,1.2-0.6,1.2-0.1-0.2c0.4-1.4,1.1-3.4,1.9-6L277,279.4z"/>
				
					<linearGradient id="SVGID_50_" gradientUnits="userSpaceOnUse" x1="271.811" y1="295.3633" x2="313.6571" y2="285.6465" gradientTransform="matrix(1 0 0 -1 2.3398 580.04)">
					<stop  offset="0" style="stop-color:#443820"/>
					<stop  offset="0.1882" style="stop-color:#000000"/>
					<stop  offset="0.5059" style="stop-color:#4F4F4D"/>
					<stop  offset="0.6627" style="stop-color:#565754"/>
					<stop  offset="0.7569" style="stop-color:#383836"/>
					<stop  offset="1" style="stop-color:#070707"/>
				</linearGradient>
				<path fill="url(#SVGID_50_)" d="M277,279.4c0,0.1,0,0.2,0,0.3c0.7-3,2.5-5.7,5.2-8.1c3.9-3.3,8.5-5,13.9-5c0.9,0,1.6,0,2.3,0
					c2.1,0.2,4.2,0.7,6.1,1.6c1.9,0.8,3.7,1.9,5.4,3.3c3.6,3,5.6,7,6.1,11.9l-4.6,28h-0.1c0-0.1,0-0.2,0-0.4c0-5.1-2.1-9.4-6.4-13
					c-1.8-1.6-3.7-2.8-5.8-3.6c-2.1-1-4.3-1.6-6.6-1.8c-0.7-0.1-1.5-0.1-2.4-0.1c-5.9,0-11,1.8-15.1,5.5c-2.8,2.5-4.7,5.3-5.6,8.5
					c-0.5,1.2-0.6,1.2-0.1-0.2c0.4-1.4,1.1-3.4,1.9-6L277,279.4z"/>
			</g>
			<g>
				<path fill="none" d="M315,282.8c-0.1-4.4-2-8.2-5.8-11.3c-1.6-1.4-3.3-2.4-5.2-3.2c-1.9-0.9-3.9-1.4-6-1.6c-0.7,0-1.4,0-2.2,0
					c-5.3,0-9.8,1.6-13.5,4.9c-2.3,2-3.9,4.3-4.8,6.8"/>
			</g>
			<g>
				<g>
					
						<radialGradient id="SVGID_51_" cx="292.71" cy="268.7524" r="22.1123" gradientTransform="matrix(1 0 0 -0.8999 2.3398 545.2875)" gradientUnits="userSpaceOnUse">
						<stop  offset="0" style="stop-color:#FFFFFF;stop-opacity:0.498"/>
						<stop  offset="1" style="stop-color:#F3F3F3;stop-opacity:0"/>
					</radialGradient>
					<path fill="url(#SVGID_51_)" d="M309.4,317.5c-0.7-3.8-2.5-7.2-5.4-10.1c-0.3-0.2-0.6-0.5-0.8-0.7c-4.2-3.8-9.3-5.7-15.4-5.7
						c-6,0-11.1,1.9-15.3,5.7c-0.3,0.2-0.6,0.5-0.8,0.7c-1.9,1.9-3.3,4-4.3,6.3c-0.1,0.1-0.2,0.2-0.3,0.2s-0.2,0-0.3,0
						c-0.1,0-0.2-0.1-0.2-0.2c0-0.1,0-0.2,0-0.3c0.9-2.1,2.2-4.1,3.9-5.9c0.4-0.4,0.8-0.8,1.3-1.2c4.3-3.9,9.6-5.9,15.8-5.9
						c6.2,0,11.5,2,15.9,5.9c0.4,0.4,0.9,0.8,1.3,1.2c2.8,2.9,4.5,6.3,5.1,10c0,0.1,0,0.1-0.1,0.3c-0.1,0.1-0.1,0.1-0.3,0.1
						c-0.1,0-0.1,0-0.3,0C309.5,317.7,309.4,317.6,309.4,317.5z"/>
					
						<radialGradient id="SVGID_52_" cx="268.0601" cy="246.5898" r="14.775" gradientTransform="matrix(1 0 0 -1 2.3398 580.04)" gradientUnits="userSpaceOnUse">
						<stop  offset="0" style="stop-color:#090909;stop-opacity:0.6431"/>
						<stop  offset="1" style="stop-color:#7F7F7F;stop-opacity:0"/>
					</radialGradient>
					<path fill="url(#SVGID_52_)" d="M288.3,332.4c0,0.1,0,0.2-0.1,0.2c-0.1,0-0.2,0-0.3,0c-11.3-2.2-19.3,1.1-24,9.9
						c-0.1,0-0.2,0.1-0.3,0.1c-0.1,0.1-0.2,0.1-0.3,0c-0.1,0-0.2-0.1-0.3-0.2c0-0.1,0-0.2,0.1-0.3c4.8-9.1,13-12.5,24.8-10.2
						c0.1,0,0.2,0,0.2,0.1C288.2,332.2,288.3,332.3,288.3,332.4z"/>
					
						<radialGradient id="SVGID_53_" cx="282.3604" cy="246.3262" r="22.6625" gradientTransform="matrix(1 0 0 -0.8996 2.3398 547.4407)" gradientUnits="userSpaceOnUse">
						<stop  offset="0" style="stop-color:#FFFFFF"/>
						<stop  offset="1" style="stop-color:#F3F3F3;stop-opacity:0"/>
					</radialGradient>
					<path fill="url(#SVGID_53_)" d="M304.8,343.1c0,0.1,0,0.2,0,0.3s-0.1,0.1-0.2,0.1c-0.1,0-0.2,0-0.3,0c-0.1-0.1-0.2-0.1-0.2-0.3
						c-0.8-4.3-2.9-8-6.3-11.1c-4.4-3.9-9.7-5.9-15.9-5.9c-6.1,0-11.4,2-15.7,5.9c-2.4,2.1-4.1,4.5-5.1,7.2
						c-0.1,0.1-0.1,0.1-0.3,0.2c-0.1,0-0.1,0-0.3,0c-0.1-0.1-0.1-0.1-0.1-0.2c0-0.1,0-0.2,0-0.3c1.1-2.8,2.9-5.2,5.3-7.4
						c4.5-4,9.9-6.1,16.2-6.1c6.4,0,11.9,2,16.4,6.1C301.9,334.9,304,338.8,304.8,343.1z"/>
					
						<radialGradient id="SVGID_54_" cx="266.5103" cy="194.0898" r="10.225" gradientTransform="matrix(1 0 0 -1 2.3398 580.04)" gradientUnits="userSpaceOnUse">
						<stop  offset="0" style="stop-color:#FFFFFF;stop-opacity:0.251"/>
						<stop  offset="1" style="stop-color:#FFFFFF;stop-opacity:0"/>
					</radialGradient>
					<path fill="url(#SVGID_54_)" d="M261,381.5c6.2,5,12.7,7,19.5,6C272.6,388.8,266.1,386.8,261,381.5z"/>
				</g>
			</g>
		</g>
		<g>
			<g>
				<g>
					<path fill="#797268" d="M408.3,273c0.2,0,0.4,1.6,0.5,4.8c0.1,2.2,0.2,6.1,0.2,11.6c0,5.6,0,9.5-0.2,11.6
						c-0.2,3.2-0.3,4.8-0.5,4.8s-0.4-1.6-0.6-4.8c-0.1-3.3-0.2-7.1-0.2-11.6s0.1-8.3,0.2-11.6C407.8,274.5,408,273,408.3,273z"/>
					
						<linearGradient id="SVGID_55_" gradientUnits="userSpaceOnUse" x1="391.4346" y1="1035.0098" x2="428.709" y2="1035.0098" gradientTransform="matrix(2.682763e-005 1 1 6.199628e-004 -597.6607 -121.3632)">
						<stop  offset="0" style="stop-color:#7A7977"/>
						<stop  offset="9.411765e-002" style="stop-color:#7F7E84"/>
						<stop  offset="0.1922" style="stop-color:#2A2C3B"/>
						<stop  offset="0.2549" style="stop-color:#A5ABC1"/>
						<stop  offset="0.3451" style="stop-color:#DBE2F4"/>
						<stop  offset="0.4314" style="stop-color:#7D766C"/>
						<stop  offset="0.5216" style="stop-color:#241A11"/>
						<stop  offset="0.6314" style="stop-color:#3C2B21"/>
						<stop  offset="0.7451" style="stop-color:#140A08"/>
						<stop  offset="0.8196" style="stop-color:#201C19"/>
						<stop  offset="0.9294" style="stop-color:#626667"/>
						<stop  offset="1" style="stop-color:#9BA19F"/>
					</linearGradient>
					<path fill="url(#SVGID_55_)" d="M408.3,273h53.5c1.2,0,2.2,1.6,3,4.8c0.9,3.2,1.4,7,1.6,11.6c0.1,4.6-0.2,8.5-0.9,11.6
						c-0.6,3-1.5,4.6-2.5,4.8h-54.7c0.2,0,0.4-1.6,0.5-4.8c0.1-2.2,0.2-6,0.2-11.6c0-5.5,0-9.4-0.2-11.6
						C408.6,274.5,408.5,273,408.3,273z"/>
				</g>
			</g>
			<g>
				<g>
					
						<linearGradient id="SVGID_56_" gradientUnits="userSpaceOnUse" x1="393.2637" y1="1016.749" x2="426.8887" y2="1016.749" gradientTransform="matrix(2.973978e-005 1 1 6.313131e-004 -597.6613 -121.3708)">
						<stop  offset="0" style="stop-color:#0F0E0A"/>
						<stop  offset="0.149" style="stop-color:#292C35"/>
						<stop  offset="0.3059" style="stop-color:#393F4D"/>
						<stop  offset="0.4431" style="stop-color:#191A1E"/>
						<stop  offset="0.5882" style="stop-color:#08080A"/>
						<stop  offset="0.9882" style="stop-color:#0B0B0D"/>
					</linearGradient>
					<path fill="url(#SVGID_56_)" d="M385.5,305.8c0.2,0,0.4-1.3,0.5-3.8c0.1-2.6,0.2-6.7,0.2-12.2l-0.4-15.8c0-0.7-0.1-1-0.3-1
						h62.9c1.1,0,2,1.6,2.8,4.8c0.8,3.2,1.3,7,1.5,11.6c0,4.6-0.3,8.5-0.9,11.6c-0.6,3-1.4,4.6-2.4,4.8H385.5z"/>
					<path fill="#030303" d="M385.5,305.8c-0.2,0-0.4-1.6-0.5-4.8c-0.2-3.3-0.3-7.1-0.3-11.6s0.1-8.3,0.3-11.6l0.3-3.8l0.3-1
						c0.2,0,0.3,0.4,0.3,1l0.4,15.8c0,5.5-0.1,9.6-0.2,12.2C385.9,304.5,385.8,305.8,385.5,305.8z"/>
				</g>
			</g>
			<g>
				<g>
					<path fill="#030303" d="M359.8,305.1c-0.1,0-0.3-1.5-0.4-4.5c-0.2-3.1-0.3-6.8-0.3-11.1c0-4.2,0.1-7.8,0.3-10.9
						c0.1-1.7,0.2-2.9,0.2-3.6s0.1-1,0.2-1c0.2,0,0.3,0.4,0.3,1c0.1,0.7,0.2,1.9,0.3,3.6c0.1,2.1,0.1,5.7,0.1,10.9
						c0,5.3,0,9-0.1,11.1C360.2,303.6,360,305.1,359.8,305.1z"/>
					
						<linearGradient id="SVGID_57_" gradientUnits="userSpaceOnUse" x1="394.4561" y1="970.4492" x2="426.3565" y2="970.4492" gradientTransform="matrix(3.134796e-005 1 1 2.874389e-004 -597.6624 -121.1474)">
						<stop  offset="0" style="stop-color:#0F0E0A"/>
						<stop  offset="0.149" style="stop-color:#292C35"/>
						<stop  offset="0.3059" style="stop-color:#393F4D"/>
						<stop  offset="0.4431" style="stop-color:#191A1E"/>
						<stop  offset="0.5882" style="stop-color:#08080A"/>
						<stop  offset="0.9882" style="stop-color:#0B0B0D"/>
					</linearGradient>
					<path fill="url(#SVGID_57_)" d="M359.8,274h22.7h2.8c0.1,0,0.1,0.3,0.1,1c0.1,0.7,0.2,1.9,0.2,3.6c0.1,3,0.2,6.6,0.2,10.9
						s0,8-0.2,11.1c-0.1,3-0.2,4.5-0.3,4.5h-25.4c0.2,0,0.4-1.5,0.6-4.5c0.1-2.1,0.1-5.8,0.1-11.1c0-5.2,0-8.9-0.1-10.9
						c-0.1-1.7-0.2-2.9-0.3-3.6C360.1,274.3,360,274,359.8,274z"/>
				</g>
			</g>
			<g>
				<g>
					
						<linearGradient id="SVGID_58_" gradientUnits="userSpaceOnUse" x1="397.1963" y1="950.9971" x2="425.4213" y2="950.9971" gradientTransform="matrix(3.542958e-005 1 1 9.999999e-004 -597.6616 -121.6107)">
						<stop  offset="0" style="stop-color:#7B7F7E"/>
						<stop  offset="0.1255" style="stop-color:#8D9192"/>
						<stop  offset="0.2353" style="stop-color:#F8FCFB"/>
						<stop  offset="0.3294" style="stop-color:#B1B3B0"/>
						<stop  offset="0.4784" style="stop-color:#686762"/>
						<stop  offset="0.7765" style="stop-color:#353626"/>
						<stop  offset="0.9804" style="stop-color:#242017"/>
					</linearGradient>
					<path fill="url(#SVGID_58_)" d="M346.6,305c0.1,0,0.3-1.5,0.4-4.5c0.1-2,0.1-5.6,0.1-10.8c0-5.2,0-8.9-0.1-10.9
						c-0.1-1.6-0.1-2.8-0.1-3.5c0-0.7-0.1-1-0.2-1h2.6h0.1h1.1h0.7h0.1h1h0.7h1.5h0.9h0.4h0.7l0,0h1h1.3h0.5c0.1,0,0.2,0.3,0.3,1
						c0.1,0.7,0.2,1.9,0.3,3.5c0.1,3,0.2,6.7,0.2,10.9c0,4.2-0.1,7.8-0.2,10.8c-0.2,2.9-0.4,4.4-0.6,4.5H346.6z"/>
					<path fill="#030303" d="M346.6,274.3c0.1,0,0.2,0.3,0.2,1c0,0.7,0,1.9,0.1,3.5c0.1,2,0.1,5.7,0.1,10.9c0,5.2,0,8.8-0.1,10.8
						c-0.1,3-0.2,4.5-0.4,4.5c-0.1,0-0.2-1.5-0.4-4.5c-0.1-3-0.1-6.6-0.1-10.8c0-4.2,0-7.8,0.1-10.9c0.1-1.6,0.2-2.8,0.3-3.5
						C346.6,274.6,346.6,274.3,346.6,274.3z"/>
				</g>
			</g>
			<g>
				
					<linearGradient id="SVGID_59_" gradientUnits="userSpaceOnUse" x1="394.7031" y1="925.7578" x2="426.6031" y2="925.7578" gradientTransform="matrix(3.134796e-005 1 1 1.632333e-005 -597.6624 -120.9706)">
					<stop  offset="0" style="stop-color:#0F0E0A"/>
					<stop  offset="0.149" style="stop-color:#292C35"/>
					<stop  offset="0.3059" style="stop-color:#393F4D"/>
					<stop  offset="0.4431" style="stop-color:#191A1E"/>
					<stop  offset="0.5882" style="stop-color:#08080A"/>
					<stop  offset="0.9882" style="stop-color:#0B0B0D"/>
				</linearGradient>
				<path fill="url(#SVGID_59_)" d="M346,274c0.2,0,0.3,0.4,0.5,1.1c0.1,0.7,0.2,1.9,0.3,3.6c0.2,3,0.3,6.7,0.3,11
					c0,4.3-0.1,7.9-0.3,11c-0.2,3-0.4,4.5-0.6,4.5h-33.8c0.5-5.7,0-11-1.5-15.8c-2.8-9.4-2.3-14.5,1.5-15.4h7h13.3h9.9h1.3H346
					L346,274z"/>
			</g>
		</g>
		<g>
			<g>
				<g>
					<g>
						
							<linearGradient id="SVGID_60_" gradientUnits="userSpaceOnUse" x1="408.2158" y1="296.1855" x2="432.4656" y2="272.4847" gradientTransform="matrix(1 0 0 -1 2.3398 580.04)">
							<stop  offset="2.352941e-002" style="stop-color:#5B5F60"/>
							<stop  offset="0.2745" style="stop-color:#52555A"/>
							<stop  offset="0.3059" style="stop-color:#808488"/>
							<stop  offset="0.3451" style="stop-color:#151515"/>
							<stop  offset="0.7843" style="stop-color:#171717"/>
							<stop  offset="0.8039" style="stop-color:#4C4B47"/>
							<stop  offset="0.8235" style="stop-color:#161616"/>
							<stop  offset="1" style="stop-color:#000000"/>
						</linearGradient>
						<path fill="url(#SVGID_60_)" d="M413.7,289v-1h6.4c0.9,0.2,1.6,0.5,2.2,1v0.1l7.3,11.5l0.4,0.5l0,0c0.6,1,0.9,2.3,0.9,3.9v3.8
							h-1.3v-4.3c-0.2-1.6-0.6-2.7-1.2-3.5l-7.1-10.5c-0.5-0.9-1.3-1.4-2.4-1.5H413.7z"/>
						<path fill="#09090B" d="M413.7,289h5.2c1.1,0.1,1.9,0.6,2.4,1.5l7.1,10.5c0.6,0.8,1,1.9,1.2,3.5v4.3h-15.8L413.7,289
							L413.7,289z M429.6,300.6l0.4,0.5l0,0L429.6,300.6z"/>
					</g>
				</g>
			</g>
		</g>
	</g>
</g>
</svg>
