<?xml version="1.0" encoding="utf-8"?>
<!-- Generator: Adobe Illustrator 16.0.0, SVG Export Plug-In . SVG Version: 6.00 Build 0)  -->
<!DOCTYPE svg PUBLIC "-//W3C//DTD SVG 1.1//EN" "http://www.w3.org/Graphics/SVG/1.1/DTD/svg11.dtd">
<svg version="1.1" id="Layer_1" xmlns="http://www.w3.org/2000/svg" xmlns:xlink="http://www.w3.org/1999/xlink" x="0px" y="0px"
	 width="700px" height="700px" viewBox="0 0 700 700" enable-background="new 0 0 700 700" xml:space="preserve">
<g>
	<g>
		
			<linearGradient id="SVGID_1_" gradientUnits="userSpaceOnUse" x1="-337.7583" y1="-282.7754" x2="-328.6525" y2="-282.7754" gradientTransform="matrix(-0.9088 -0.4173 0.3243 -0.9515 197.4683 -98.7732)">
			<stop  offset="0" style="stop-color:#A2A280"/>
			<stop  offset="0.5176" style="stop-color:#8A8A6E;stop-opacity:0.7059"/>
			<stop  offset="0.8353" style="stop-color:#5E5F4D;stop-opacity:0.2039"/>
			<stop  offset="0.9882" style="stop-color:#4C4D3F;stop-opacity:0"/>
		</linearGradient>
		<polygon fill="url(#SVGID_1_)" points="403,344 403.1,292.1 413.8,274.5 414,334 		"/>
	</g>
	<g>
		<g>
			
				<linearGradient id="SVGID_2_" gradientUnits="userSpaceOnUse" x1="402.9131" y1="458.5488" x2="407.8887" y2="460.0479" gradientTransform="matrix(1 0 0 1 4.6797 -140.9199)">
				<stop  offset="0" style="stop-color:#A3A397"/>
				<stop  offset="1" style="stop-color:#DEE8EA"/>
			</linearGradient>
			<path fill="url(#SVGID_2_)" d="M402.8,335.3c-0.1-0.2-0.1-0.5,0-0.8c0-0.1,0-0.2,0.1-0.3c0-0.2,0-0.3,0.1-0.4l1-3l1.4-3.9l4.2-12
				l4.3-12H424l-3.3,11.5l-6.9,21.8h-0.1h-9.3C403.5,336.2,402.9,335.9,402.8,335.3z M424,303h0.2l-0.2,0.1V303z"/>
			
				<linearGradient id="SVGID_3_" gradientUnits="userSpaceOnUse" x1="403.5205" y1="442.0947" x2="403.5205" y2="554.8447" gradientTransform="matrix(1 0 0 1 4.6797 -140.9199)">
				<stop  offset="0" style="stop-color:#A2633E"/>
				<stop  offset="1" style="stop-color:#2F261D"/>
			</linearGradient>
			<path fill="url(#SVGID_3_)" d="M413.7,336.6v69.6v14.1h-11v-85c0.2,0.6,0.7,0.9,1.7,0.9h9.3V336.6z"/>
			<polygon fill="#2F261D" points="413.7,336.6 413.7,336.2 413.8,336.2 			"/>
		</g>
	</g>
	<g>
		<g>
			<g>
				
					<linearGradient id="SVGID_4_" gradientUnits="userSpaceOnUse" x1="422.1699" y1="490.3955" x2="422.1699" y2="444.8455" gradientTransform="matrix(1 0 0 1 4.6797 -140.9199)">
					<stop  offset="0" style="stop-color:#000000"/>
					<stop  offset="0.251" style="stop-color:#000000"/>
					<stop  offset="0.2902" style="stop-color:#373737"/>
					<stop  offset="0.3373" style="stop-color:#000000"/>
					<stop  offset="1" style="stop-color:#000000"/>
				</linearGradient>
				<path fill="url(#SVGID_4_)" d="M441.8,420.5H408v-84.1l0,0l12-33.4h23.7c1.1,0.2,1.7,0.7,2,1.5c0,0.1,0,0.1,0,0.1l-0.1,0.5
					c0,0.1,0,0.3-0.1,0.5v0.1l-0.1,0.7l-0.1,1.2l-0.1,0.4v0.6l-0.3,1.6l-3,25.4h-0.1v0.6l0.1,57.7v26.6H441.8L441.8,420.5z"/>
				
					<linearGradient id="SVGID_5_" gradientUnits="userSpaceOnUse" x1="443.2578" y1="479.0225" x2="432.9939" y2="538.1821" gradientTransform="matrix(1 0 0 1 4.6797 -140.9199)">
					<stop  offset="0" style="stop-color:#312A23"/>
					<stop  offset="0.1569" style="stop-color:#553521"/>
					<stop  offset="0.3529" style="stop-color:#5A3721"/>
					<stop  offset="0.5098" style="stop-color:#332A21"/>
					<stop  offset="1" style="stop-color:#2D2C28"/>
				</linearGradient>
				<path fill="url(#SVGID_5_)" d="M441.8,420.5V394l-0.1-57.7v-0.6h0.1l3-25.4l0.3-1.6v-0.6l0.1-0.4l0.1-1.2l0.1-0.7
					c0-0.1,0-0.1,0-0.1c0.1-0.2,0.1-0.4,0.1-0.5l0.1-0.5l0.1,4.1v1.6l-0.2,83.7L441.8,420.5L441.8,420.5z"/>
			</g>
			<g>
				
					<radialGradient id="SVGID_6_" cx="436.9199" cy="488.7393" r="29.0125" gradientTransform="matrix(1 0 0 0.9104 4.6797 -110.9927)" gradientUnits="userSpaceOnUse">
					<stop  offset="0" style="stop-color:#FFFFFF;stop-opacity:0.5373"/>
					<stop  offset="0.8314" style="stop-color:#F6F6F6;stop-opacity:6.666667e-002"/>
					<stop  offset="1" style="stop-color:#F3F3F3;stop-opacity:0"/>
				</radialGradient>
				<path fill="url(#SVGID_6_)" d="M440.3,336.5l5.1-30l-3.8,30C441,336.8,440.6,336.8,440.3,336.5z"/>
			</g>
		</g>
		<g>
			<g>
				
					<linearGradient id="SVGID_7_" gradientUnits="userSpaceOnUse" x1="450.2402" y1="537.0322" x2="450.0977" y2="530.9083" gradientTransform="matrix(1 0 0 1 4.6797 -140.9199)">
					<stop  offset="0" style="stop-color:#000000"/>
					<stop  offset="0.4627" style="stop-color:#36373A"/>
					<stop  offset="0.6353" style="stop-color:#525458"/>
					<stop  offset="0.7686" style="stop-color:#404244"/>
					<stop  offset="0.9882" style="stop-color:#252628"/>
				</linearGradient>
				<rect x="448.8" y="389.7" fill="url(#SVGID_7_)" width="12.1" height="6.8"/>
			</g>
		</g>
		<g>
			<g>
				<g>
					<polygon fill="#A6ADB7" points="444.8,387 444.8,388.3 443.2,388.3 443.3,387 					"/>
					
						<linearGradient id="SVGID_8_" gradientUnits="userSpaceOnUse" x1="441.0078" y1="526.4531" x2="440.2101" y2="538.4991" gradientTransform="matrix(1 0 0 1 4.6797 -140.9199)">
						<stop  offset="0" style="stop-color:#727578"/>
						<stop  offset="1" style="stop-color:#000000"/>
					</linearGradient>
					<polygon fill="url(#SVGID_8_)" points="444.8,400.3 444.8,395.8 444.8,394.5 444.8,388.3 444.8,387 445.5,387 445.5,388.3 
						445.5,394.5 445.5,395.8 445.5,400.3 					"/>
					
						<linearGradient id="SVGID_9_" gradientUnits="userSpaceOnUse" x1="440.6953" y1="528.5703" x2="444.5453" y2="528.5703" gradientTransform="matrix(1 0 0 1 4.6797 -140.9199)">
						<stop  offset="0" style="stop-color:#BEC5CD"/>
						<stop  offset="0.9647" style="stop-color:#FBFDFF"/>
					</linearGradient>
					<polygon fill="url(#SVGID_9_)" points="449.3,388.3 445.5,388.3 445.5,387 449.2,387 					"/>
					
						<linearGradient id="SVGID_10_" gradientUnits="userSpaceOnUse" x1="438.3838" y1="536.3896" x2="439.8034" y2="530.2144" gradientTransform="matrix(1 0 0 1 4.6797 -140.9199)">
						<stop  offset="0" style="stop-color:#A7A7C7"/>
						<stop  offset="0.9647" style="stop-color:#FBFDFF"/>
					</linearGradient>
					<polygon fill="url(#SVGID_10_)" points="444.8,388.3 444.8,394.5 443.2,394.5 443.2,388.3 					"/>
					
						<linearGradient id="SVGID_11_" gradientUnits="userSpaceOnUse" x1="414.8418" y1="547.0762" x2="419.3942" y2="547.0762" gradientTransform="matrix(0.9995 -3.294913e-002 4.912740e-002 0.9989 4.7305 -137.593)">
						<stop  offset="0" style="stop-color:#4F4F75"/>
						<stop  offset="0.9882" style="stop-color:#151628"/>
					</linearGradient>
					<path fill="url(#SVGID_11_)" d="M445.5,394.5h5.9v0.3l-1.3,1.1l-4.5-0.1L445.5,394.5L445.5,394.5z M444.8,394.5v1.3h-1.7v-1.3
						H444.8z"/>
					<rect x="443.2" y="395.8" fill="#1B1B1B" width="1.7" height="4.5"/>
					
						<linearGradient id="SVGID_12_" gradientUnits="userSpaceOnUse" x1="443.7822" y1="535.6182" x2="443.6889" y2="531.718" gradientTransform="matrix(1 0 0 1 4.6797 -140.9199)">
						<stop  offset="0" style="stop-color:#A7A7C7"/>
						<stop  offset="0.9647" style="stop-color:#FBFDFF"/>
					</linearGradient>
					<polygon fill="url(#SVGID_12_)" points="445.5,388.3 449.3,388.3 451.3,389.7 451.3,394.5 445.5,394.5 					"/>
					
						<linearGradient id="SVGID_13_" gradientUnits="userSpaceOnUse" x1="446.9014" y1="529.6279" x2="444.1989" y2="528.7325" gradientTransform="matrix(1 0 0 1 4.6797 -140.9199)">
						<stop  offset="0" style="stop-color:#000000"/>
						<stop  offset="0.9647" style="stop-color:#5F6167"/>
					</linearGradient>
					<polygon fill="url(#SVGID_13_)" points="451.3,389.7 449.3,388.3 449.2,387 449.2,387 449.7,387 					"/>
					
						<linearGradient id="SVGID_14_" gradientUnits="userSpaceOnUse" x1="440.7207" y1="538.4697" x2="446.6202" y2="538.4697" gradientTransform="matrix(1 0 0 1 4.6797 -140.9199)">
						<stop  offset="0" style="stop-color:#19181E"/>
						<stop  offset="1" style="stop-color:#09070A"/>
					</linearGradient>
					<polygon fill="url(#SVGID_14_)" points="445.5,400.3 445.5,395.8 450,395.9 451.3,394.8 451.3,398 450.3,400.3 					"/>
				</g>
			</g>
			<g>
				<g>
					<path d="M464.8,398.6c-0.2,0-0.3-0.6-0.3-1.7c0-0.6,0-1.3,0-2.1c-0.1-0.3-0.1-0.7-0.1-1c0-0.2,0-0.5,0-0.7c0-1.5,0-2.8,0.1-3.9
						v-0.7c0-0.3,0-0.5,0-0.6c0-0.1,0-0.2,0.1-0.3l0,0c0,0.2,0.1,0.7,0.1,1.5c0,0.5,0,1,0,1.5c0,0.7,0,1.5,0,2.4c0,0.6,0,1.1,0,1.7
						v0.3c0,0.7,0,1.3,0,1.8C464.7,398,464.7,398.6,464.8,398.6z"/>
					
						<linearGradient id="SVGID_15_" gradientUnits="userSpaceOnUse" x1="457.6377" y1="539.6572" x2="457.6377" y2="528.3807" gradientTransform="matrix(1 0 0 1 4.6797 -140.9199)">
						<stop  offset="0" style="stop-color:#110F14"/>
						<stop  offset="0.1765" style="stop-color:#3B3A3E"/>
						<stop  offset="0.2235" style="stop-color:#424263"/>
						<stop  offset="0.2667" style="stop-color:#353553"/>
						<stop  offset="0.349" style="stop-color:#B2B2CE"/>
						<stop  offset="0.3961" style="stop-color:#FFFFFF"/>
						<stop  offset="0.7137" style="stop-color:#FFFFFF"/>
						<stop  offset="0.7569" style="stop-color:#CBD1D8"/>
						<stop  offset="0.8314" style="stop-color:#606F7D"/>
						<stop  offset="0.9098" style="stop-color:#788998"/>
						<stop  offset="0.9804" style="stop-color:#D1D6DC"/>
						<stop  offset="1" style="stop-color:#000000"/>
					</linearGradient>
					<path fill="url(#SVGID_15_)" d="M464.7,387.7c-0.1,0.1-0.1,0.2-0.1,0.3s0,0.3,0,0.6v0.7c-0.1,1.1-0.1,2.4-0.1,3.9
						c0,0.2,0,0.5,0,0.7c0,0.4,0,0.7,0.1,1c0,0.8,0,1.5,0,2.1c0,1.1,0.1,1.7,0.3,1.7h-4.3c-0.5,0-0.8-0.2-0.8-0.5
						c-0.1-3.3-0.1-6.6,0.1-9.9l0,0c-0.1-0.4,0.1-0.6,0.5-0.7h4.4C464.7,387.6,464.7,387.6,464.7,387.7z"/>
				</g>
			</g>
		</g>
		<g>
			<g>
				
					<linearGradient id="SVGID_16_" gradientUnits="userSpaceOnUse" x1="451.043" y1="491.2314" x2="450.9006" y2="484.8076" gradientTransform="matrix(1 0 0 1 4.6797 -140.9199)">
					<stop  offset="0" style="stop-color:#000000"/>
					<stop  offset="0.4627" style="stop-color:#36373A"/>
					<stop  offset="0.6353" style="stop-color:#525458"/>
					<stop  offset="0.7686" style="stop-color:#404244"/>
					<stop  offset="0.9882" style="stop-color:#252628"/>
				</linearGradient>
				<rect x="449.3" y="343.5" fill="url(#SVGID_16_)" width="12.7" height="7.1"/>
			</g>
		</g>
		<g>
			<g>
				<g>
					
						<linearGradient id="SVGID_17_" gradientUnits="userSpaceOnUse" x1="447.6592" y1="482.5654" x2="444.6818" y2="481.5741" gradientTransform="matrix(1 0 0 1 4.6797 -140.9199)">
						<stop  offset="0" style="stop-color:#000000"/>
						<stop  offset="0.9647" style="stop-color:#5F6167"/>
					</linearGradient>
					<polygon fill="url(#SVGID_17_)" points="449.7,341.2 449.7,339.7 449.7,339.6 450.2,339.8 452,342.7 					"/>
					
						<linearGradient id="SVGID_18_" gradientUnits="userSpaceOnUse" x1="440.6826" y1="481.3701" x2="444.9576" y2="481.3701" gradientTransform="matrix(1 0 0 1 4.6797 -140.9199)">
						<stop  offset="0" style="stop-color:#BEC5CD"/>
						<stop  offset="0.9647" style="stop-color:#FBFDFF"/>
					</linearGradient>
					<polygon fill="url(#SVGID_18_)" points="449.7,341.2 445.3,341.2 445.3,339.8 445.3,339.7 449.7,339.7 					"/>
					
						<linearGradient id="SVGID_19_" gradientUnits="userSpaceOnUse" x1="444.0371" y1="489.1943" x2="443.9363" y2="484.8445" gradientTransform="matrix(1 0 0 1 4.6797 -140.9199)">
						<stop  offset="0" style="stop-color:#A7A7C7"/>
						<stop  offset="0.9647" style="stop-color:#FBFDFF"/>
					</linearGradient>
					<polygon fill="url(#SVGID_19_)" points="445.3,341.2 449.7,341.2 452,342.7 452,348.1 445.3,348.1 					"/>
					
						<linearGradient id="SVGID_20_" gradientUnits="userSpaceOnUse" x1="440.9541" y1="479.0723" x2="440.0852" y2="492.4739" gradientTransform="matrix(1 0 0 1 4.6797 -140.9199)">
						<stop  offset="0" style="stop-color:#727578"/>
						<stop  offset="1" style="stop-color:#000000"/>
					</linearGradient>
					<polygon fill="url(#SVGID_20_)" points="444.7,348.1 444.8,341.2 444.8,339.8 445.3,339.8 445.3,341.2 445.3,348.1 
						445.3,349.6 445.3,354.5 444.8,354.5 444.8,349.6 444.8,349.6 444.8,349.5 					"/>
					<polygon fill="#A6ADB7" points="444.8,339.8 444.8,341.2 442.8,341.2 443,339.8 					"/>
					
						<linearGradient id="SVGID_21_" gradientUnits="userSpaceOnUse" x1="438.0596" y1="489.9941" x2="439.627" y2="483.1423" gradientTransform="matrix(1 0 0 1 4.6797 -140.9199)">
						<stop  offset="0" style="stop-color:#A7A7C7"/>
						<stop  offset="0.9647" style="stop-color:#FBFDFF"/>
					</linearGradient>
					<polygon fill="url(#SVGID_21_)" points="444.8,341.2 444.7,348.1 442.8,348.1 442.8,341.2 					"/>
					
						<linearGradient id="SVGID_22_" gradientUnits="userSpaceOnUse" x1="441.5967" y1="489.7861" x2="446.6455" y2="489.5873" gradientTransform="matrix(1 0 0 1 4.6797 -140.9199)">
						<stop  offset="0" style="stop-color:#4F4F75"/>
						<stop  offset="0.9882" style="stop-color:#151628"/>
					</linearGradient>
					<path fill="url(#SVGID_22_)" d="M444.8,349.6h-2v-1.5h1.9l0.1,1.4V349.6z M445.3,348.1h6.7v0.3l-1.5,1.2h-5.2V348.1z"/>
					<rect x="442.8" y="349.6" fill="#1B1B1B" width="2" height="4.9"/>
					
						<linearGradient id="SVGID_23_" gradientUnits="userSpaceOnUse" x1="440.6582" y1="492.3701" x2="447.2832" y2="492.3701" gradientTransform="matrix(1 0 0 1 4.6797 -140.9199)">
						<stop  offset="0" style="stop-color:#19181E"/>
						<stop  offset="1" style="stop-color:#09070A"/>
					</linearGradient>
					<polygon fill="url(#SVGID_23_)" points="445.3,349.6 450.5,349.6 452,348.4 452,352 450.9,354.5 445.3,354.5 					"/>
				</g>
			</g>
			<g>
				<g>
					
						<linearGradient id="SVGID_24_" gradientUnits="userSpaceOnUse" x1="459.5449" y1="494.4951" x2="459.5449" y2="481.9451" gradientTransform="matrix(1 0 0 1 4.6797 -140.9199)">
						<stop  offset="0" style="stop-color:#110F14"/>
						<stop  offset="0.1765" style="stop-color:#3B3A3E"/>
						<stop  offset="0.2235" style="stop-color:#424263"/>
						<stop  offset="0.2667" style="stop-color:#353553"/>
						<stop  offset="0.349" style="stop-color:#B2B2CE"/>
						<stop  offset="0.3961" style="stop-color:#FFFFFF"/>
						<stop  offset="0.7137" style="stop-color:#FFFFFF"/>
						<stop  offset="0.7569" style="stop-color:#CBD1D8"/>
						<stop  offset="0.8314" style="stop-color:#606F7D"/>
						<stop  offset="0.9098" style="stop-color:#788998"/>
						<stop  offset="0.9804" style="stop-color:#D1D6DC"/>
						<stop  offset="1" style="stop-color:#000000"/>
					</linearGradient>
					<path fill="url(#SVGID_24_)" d="M466.8,341.2c0,0.1,0,0.2,0,0.3s0,0.3,0,0.6v0.7c-0.1,1.2-0.1,2.6-0.1,4.3c0,0.3,0,0.6,0,0.8
						c0,0.5,0,0.9,0.1,1.3c0,0.8,0,1.6,0,2.3c0,1.2,0.1,1.8,0.3,1.8h-4.7c-0.5,0-0.8-0.2-0.9-0.5l0,0c-0.2-3.7-0.2-7.3,0-10.9h0.1
						c-0.1-0.4,0.1-0.6,0.6-0.6L466.8,341.2L466.8,341.2z"/>
					<path d="M466.9,353.3c-0.1,0-0.2-0.6-0.3-1.8c0-0.7,0-1.4,0-2.3c-0.1-0.4-0.1-0.8-0.1-1.3c0-0.2,0-0.5,0-0.8
						c0-1.7,0-3.1,0.1-4.3v-0.7c0-0.3,0-0.5,0-0.6s0-0.2,0-0.3l0,0c0.1,0.3,0.1,0.8,0.2,1.6c0,0.5,0,1,0,1.6c0,0.8,0,1.7,0,2.7
						c0,0.7,0,1.4,0,2v0.5c0,0.7,0,1.3,0,1.9C466.9,352.7,466.9,353.3,466.9,353.3z"/>
				</g>
			</g>
		</g>
		<g>
			<g>
				
					<linearGradient id="SVGID_25_" gradientUnits="userSpaceOnUse" x1="413.9443" y1="540.4648" x2="421.2438" y2="541.4926" gradientTransform="matrix(1 0 0 1 4.6797 -140.9199)">
					<stop  offset="0" style="stop-color:#515458"/>
					<stop  offset="0.1961" style="stop-color:#242628"/>
					<stop  offset="0.4275" style="stop-color:#DFE2E3"/>
					<stop  offset="0.5529" style="stop-color:#7F8B99"/>
					<stop  offset="0.7608" style="stop-color:#62656A"/>
					<stop  offset="1" style="stop-color:#A2A4A7"/>
				</linearGradient>
				<path fill="url(#SVGID_25_)" d="M425.4,411l-0.1-0.1c-0.2-0.6-0.6-1.2-1.2-1.6c-0.9-0.8-1.9-1.2-3.3-1.3c-1.2,0-2.3,0.3-3.3,1
					c-0.1,0.1-0.3,0.3-0.4,0.4c-0.2,0.1-0.3,0.3-0.5,0.5l3-18.2c0-0.2,0.1-0.5,0.3-0.7c0.1-0.1,0.2-0.3,0.3-0.3
					c0.1-0.1,0.3-0.2,0.5-0.3c0.7-0.6,1.6-0.8,2.6-0.8s1.9,0.4,2.6,1c0.4,0.3,0.7,0.7,0.9,1.2l0.2,0.4L425.4,411z"/>
				
					<linearGradient id="SVGID_26_" gradientUnits="userSpaceOnUse" x1="-517.7251" y1="233.9404" x2="-510.4772" y2="233.9404" gradientTransform="matrix(-0.1414 -0.9899 0.9763 -0.2371 119.9607 -40.9404)">
					<stop  offset="0" style="stop-color:#151724"/>
					<stop  offset="1" style="stop-color:#626971"/>
				</linearGradient>
				<path fill="url(#SVGID_26_)" d="M425.4,411c0,0.2,0.1,0.5,0.1,0.8v0.8c0,0.3-0.1,0.6-0.3,0.9c-0.1,0.2-0.2,0.4-0.4,0.5
					c-0.2,0.2-0.3,0.4-0.5,0.5c-0.1,0.1-0.1,0.2-0.2,0.2c-0.1,0.1-0.3,0.2-0.5,0.3c-1.7,0.8-3.4,0.8-5,0c-0.4-0.2-0.7-0.4-1-0.7l0,0
					c-0.3-0.3-0.6-0.7-0.8-1.1c-0.3-0.5-0.4-1-0.4-1.6c0-0.1,0-0.2,0-0.3v-0.4c0.1-0.3,0.2-0.7,0.4-1c0.1-0.2,0.3-0.4,0.5-0.5
					c0.1-0.1,0.3-0.2,0.4-0.4c1-0.7,2.1-1,3.3-1c1.3,0.1,2.4,0.5,3.3,1.3C424.9,409.7,425.3,410.2,425.4,411L425.4,411z"/>
			</g>
		</g>
	</g>
	<g>
		<g>
			<g>
				
					<linearGradient id="SVGID_27_" gradientUnits="userSpaceOnUse" x1="-391.1313" y1="234.7822" x2="-345.581" y2="234.7822" gradientTransform="matrix(2.195390e-005 -1 1 -1.000000e-003 105.6766 -39.9206)">
					<stop  offset="0" style="stop-color:#000000"/>
					<stop  offset="0.251" style="stop-color:#000000"/>
					<stop  offset="0.2902" style="stop-color:#373737"/>
					<stop  offset="0.3373" style="stop-color:#000000"/>
					<stop  offset="1" style="stop-color:#000000"/>
				</linearGradient>
				<path fill="url(#SVGID_27_)" d="M321.7,306.1c0-0.1,0-0.1,0-0.1c0.2-0.9,0.9-1.4,2-1.5h28.1l7.3,33.3h0.1V422h-33.7v-26.5
					l0.1-57.8v-0.6l-0.1,0.1l-3-25.4l-0.2-1.6l-0.1-0.7v-0.3l-0.2-1.3l-0.1-0.6v-0.1c0-0.2,0-0.4,0-0.6L321.7,306.1z"/>
				
					<linearGradient id="SVGID_28_" gradientUnits="userSpaceOnUse" x1="610.9688" y1="-128.4248" x2="671.0032" y2="-128.4248" gradientTransform="matrix(0.171 0.9853 -0.9853 0.171 88.4087 -240.435)">
					<stop  offset="0" style="stop-color:#312A23"/>
					<stop  offset="0.1569" style="stop-color:#553521"/>
					<stop  offset="0.3529" style="stop-color:#5A3721"/>
					<stop  offset="0.5098" style="stop-color:#332A21"/>
					<stop  offset="1" style="stop-color:#2D2C28"/>
				</linearGradient>
				<path fill="url(#SVGID_28_)" d="M325.5,422l-3.6-26.5l-0.2-83.7v-1.6l0.1-4.1l0.1,0.4c0,0.2,0,0.4,0,0.6v0.1l0.1,0.6l0.2,1.3
					v0.3l0.1,0.7l0.2,1.6l3,25.4l0.1-0.1v0.6l-0.1,57.8V422L325.5,422z"/>
			</g>
		</g>
		<g>
			<g>
				
					<linearGradient id="SVGID_29_" gradientUnits="userSpaceOnUse" x1="347.479" y1="525.1777" x2="343.255" y2="526.1322" gradientTransform="matrix(1 0 0 1 4.6797 -140.9199)">
					<stop  offset="0" style="stop-color:#7F878A"/>
					<stop  offset="1" style="stop-color:#7D8286"/>
				</linearGradient>
				<path fill="url(#SVGID_29_)" d="M354.9,383.2v16l-15.1-0.7v-2.4c0-3.6,0-6,0-7.3c0-0.2,0-0.3,0-0.5v-1.2l0,0v-15.3
					c6.1-2.6,10.4-1.2,12.9,4.1C353.8,377.9,354.4,380.3,354.9,383.2z"/>
				
					<linearGradient id="SVGID_30_" gradientUnits="userSpaceOnUse" x1="347.479" y1="525.1777" x2="343.255" y2="526.1322" gradientTransform="matrix(1 0 0 1 4.6797 -140.9199)">
					<stop  offset="0" style="stop-color:#7F878A"/>
					<stop  offset="1" style="stop-color:#7D8286"/>
				</linearGradient>
				<path fill="url(#SVGID_30_)" d="M354.9,383.2v16l-15.1-0.7v-2.4c0-3.6,0-6,0-7.3c0-0.2,0-0.3,0-0.5v-1.2l0,0v-15.3
					c6.1-2.6,10.4-1.2,12.9,4.1C353.8,377.9,354.4,380.3,354.9,383.2z"/>
				
					<radialGradient id="SVGID_31_" cx="346.6201" cy="517.1699" r="33.9375" fx="347.2855" fy="517.1699" gradientTransform="matrix(1 0 0 1 4.6797 -140.9199)" gradientUnits="userSpaceOnUse">
					<stop  offset="0" style="stop-color:#7D8286"/>
					<stop  offset="0.1961" style="stop-color:#7D8286"/>
					<stop  offset="0.6314" style="stop-color:#6D7381"/>
					<stop  offset="1" style="stop-color:#343B45"/>
				</radialGradient>
				<path fill="url(#SVGID_31_)" d="M339.9,355.8l15,0.5v26.9c-0.5-2.9-1.2-5.3-2.1-7.2c-2.6-5.3-6.9-6.7-12.9-4.1V355.8z"/>
				
					<radialGradient id="SVGID_32_" cx="346.6201" cy="517.1699" r="33.9375" fx="347.2855" fy="517.1699" gradientTransform="matrix(1 0 0 1 4.6797 -140.9199)" gradientUnits="userSpaceOnUse">
					<stop  offset="0" style="stop-color:#7D8286"/>
					<stop  offset="0.1961" style="stop-color:#7D8286"/>
					<stop  offset="0.6314" style="stop-color:#6D7381"/>
					<stop  offset="1" style="stop-color:#343B45"/>
				</radialGradient>
				<path fill="url(#SVGID_32_)" d="M339.9,355.8l15,0.5v26.9c-0.5-2.9-1.2-5.3-2.1-7.2c-2.6-5.3-6.9-6.7-12.9-4.1V355.8z"/>
				
					<linearGradient id="SVGID_33_" gradientUnits="userSpaceOnUse" x1="353.2422" y1="519.2656" x2="361.1665" y2="518.508" gradientTransform="matrix(1 0 0 1 4.6797 -140.9199)">
					<stop  offset="0" style="stop-color:#6B6C70"/>
					<stop  offset="1" style="stop-color:#8B8F98"/>
				</linearGradient>
				<polygon fill="url(#SVGID_33_)" points="354.9,399.2 354.9,383.2 354.9,356.3 373.4,355.8 373.4,399.2 				"/>
				
					<linearGradient id="SVGID_34_" gradientUnits="userSpaceOnUse" x1="337.5078" y1="496.9697" x2="370.0328" y2="496.9697" gradientTransform="matrix(1 0 0 1 4.6797 -140.9199)">
					<stop  offset="0" style="stop-color:#535760"/>
					<stop  offset="0.5725" style="stop-color:#D2D7DD"/>
					<stop  offset="0.9725" style="stop-color:#9498A1"/>
				</linearGradient>
				<polygon fill="url(#SVGID_34_)" points="373.4,355.8 354.9,356.3 339.9,355.8 				"/>
				
					<line fill="none" stroke="#929290" stroke-linecap="round" stroke-linejoin="round" stroke-miterlimit="3" x1="373.4" y1="355.8" x2="354.9" y2="356.3"/>
			</g>
		</g>
		<g>
			<line fill="none" x1="354.9" y1="357.8" x2="354.9" y2="397.8"/>
		</g>
		<g>
			
				<path fill="none" stroke="#000000" stroke-width="0.25" stroke-linecap="round" stroke-linejoin="round" stroke-miterlimit="3" stroke-opacity="0.4118" d="
				M373.3,361.2h-4.8 M373.3,360.5h-4.8 M373.3,359.8h-4.8 M373.3,367.8h-4.8 M373.3,370.8h-4.8 M373.3,367.1h-4.8 M373.3,364.9
				h-4.8 M373.3,365.6h-4.8 M373.3,364.2h-4.8 M373.3,363.4h-4.8 M373.3,362.6h-6 M373.3,362h-4.8 M373.3,370h-6 M373.3,369.3h-4.8
				 M373.3,368.6h-4.8 M373.3,371.5h-4.8 M373.3,372.3h-4.8 M373.3,373h-4.8 M373.3,376.8h-4.8 M373.3,376h-4.8 M373.3,379.7h-4.8
				 M373.3,379h-4.8 M373.3,378.2h-4.8 M373.3,377.5h-6 M373.3,381.9h-4.8 M373.3,382.6h-4.8 M373.3,380.4h-4.8 M373.3,374.5h-4.8
				 M373.3,375.3h-4.8 M373.3,383.3h-4.8 M373.3,394.5h-4.8 M373.3,393.7h-4.8 M373.3,395.2h-4.8 M373.3,390.8h-4.8 M373.3,390h-4.8
				 M373.3,387h-4.8 M373.3,391.5h-4.8 M373.3,392.3h-6 M373.3,384.8h-6 M373.3,384.1h-4.8 M373.3,389.3h-4.8 M373.3,387.8h-4.8
				 M373.3,393h-4.8 M373.3,385.6h-4.8 M373.3,386.3h-4.8 M373.3,388.5h-9 M373.3,396h-9 M373.3,366.4h-9 M373.3,373.7h-9
				 M373.3,381.1h-9 M373.3,359h-9"/>
		</g>
		<g>
			<g>
				<g>
					<path d="M345.9,357.7c0.1-0.1,0.3-0.1,0.5-0.2c0.1,0,0.2,0,0.3,0c0.1,0,0.1,0,0.1,0c0.2,0,0.5,0,0.7,0.2
						c0.3,0.1,0.7,0.2,1.1,0.5c0,0,0,0.1,0.1,0.1c0,0.1,0,0.1,0.1,0.2c0.1,0.1,0.1,0.2,0.3,0.2c0,0.1,0.1,0.1,0.1,0.2
						c0.7,0.8,1.1,1.7,1.1,2.7c0,0.9-0.3,1.7-0.8,2.3c-0.2,0.1-0.3,0.3-0.4,0.4c-0.3,0.3-0.6,0.5-0.8,0.6c-0.1,0.1-0.3,0.1-0.4,0.2
						l0,0c-0.3,0.1-0.6,0.2-0.9,0.3c-0.1,0-0.2,0-0.3,0c-0.1,0-0.2,0-0.4,0c-0.5-0.1-1-0.3-1.5-0.6c-0.2-0.1-0.3-0.2-0.4-0.3
						c-0.1-0.1-0.1-0.2-0.3-0.3c-0.1,0-0.1-0.1-0.1-0.2c-0.6-0.7-1-1.5-1-2.5c0-0.8,0.2-1.5,0.6-2.2c0.1-0.2,0.3-0.5,0.5-0.7
						c0.1,0,0.2-0.1,0.3-0.2c0.1,0,0.1-0.1,0.1-0.2c0.3-0.2,0.7-0.4,1.1-0.6h0.3V357.7L345.9,357.7z M349.1,363.5L349.1,363.5
						L349.1,363.5L349.1,363.5L349.1,363.5z M344.4,363.8c0,0.2,0.1,0.3,0.3,0.3C345.1,363.5,345,363.4,344.4,363.8z M346.1,361.4
						c0.6-0.1,0.7-0.4,0.5-1c-0.5-1-0.9-0.8-1.2,0.5C345.4,361.3,345.7,361.5,346.1,361.4z"/>
				</g>
			</g>
			<g>
				<g>
					<g>
						
							<radialGradient id="SVGID_35_" cx="339.9712" cy="502.6201" r="5.4744" gradientTransform="matrix(1 0 0 1 4.6797 -140.9199)" gradientUnits="userSpaceOnUse">
							<stop  offset="0" style="stop-color:#8F929B"/>
							<stop  offset="0.6196" style="stop-color:#686779"/>
							<stop  offset="0.8" style="stop-color:#3D3B44"/>
							<stop  offset="0.9922" style="stop-color:#2F291B"/>
						</radialGradient>
						<path fill="url(#SVGID_35_)" d="M345.9,357.8c0.1-0.1,0.2-0.1,0.4-0.1c0.1,0,0.2,0,0.4,0c0,0,0,0,0.1,0c0.2,0,0.4,0,0.6,0.1
							c0.4,0.1,0.8,0.3,1.1,0.6l0.1,0.1v0.1c0,0.1,0.1,0.2,0.2,0.3c0.1,0,0.1,0.1,0.3,0.2c0.6,0.7,0.9,1.5,0.9,2.4s-0.3,1.6-0.8,2.3
							v0.1c-0.1,0.1-0.3,0.3-0.4,0.3c-0.1,0.1-0.3,0.3-0.4,0.4c-0.1,0.1-0.2,0.2-0.3,0.3c-0.1,0-0.3,0.1-0.4,0.2
							c-0.2,0.1-0.7,0.1-1.4,0.2c-0.6,0-1.3-0.3-1.9-0.8l-0.1-0.2c-0.1-0.1-0.1-0.1-0.1-0.1s0,0-0.1,0c-0.6-0.7-0.9-1.5-0.9-2.5
							c0-0.7,0.1-1.3,0.4-1.7c0.2-0.3,0.3-0.5,0.3-0.7l0.6-0.4c0.5-0.4,0.9-0.6,1.3-0.8C345.8,357.9,345.8,357.8,345.9,357.8z
							 M349,363.4L349,363.4L349,363.4L349,363.4z"/>
						<path fill="#2F291B" d="M349,363.4L349,363.4L349,363.4L349,363.4z"/>
					</g>
				</g>
			</g>
			<g>
				<g>
					<g>
						
							<radialGradient id="SVGID_36_" cx="341.5708" cy="501.0215" r="2.6867" gradientTransform="matrix(1 0 0 1 4.6797 -140.9199)" gradientUnits="userSpaceOnUse">
							<stop  offset="0" style="stop-color:#AAABA6;stop-opacity:0"/>
							<stop  offset="0.7255" style="stop-color:#AAABA6;stop-opacity:0"/>
							<stop  offset="1" style="stop-color:#AAABA6"/>
						</radialGradient>
						<path fill="url(#SVGID_36_)" d="M347,357.9c0.4,0,0.9,0.2,1.5,0.6c0.5,0.3,0.9,0.8,1.2,1.5c-0.3-0.5-0.9-0.6-1.8-0.5
							c-0.9,0.2-1.4,0.4-1.6,0.7c-0.1,0.3-0.2,0.4-0.2,0.5c-0.1,0-0.1,0-0.1-0.1v-0.1v-0.1c0-0.4,0.1-0.9,0.3-1.4
							C346.4,358.2,346.7,357.9,347,357.9z"/>
						
							<radialGradient id="SVGID_37_" cx="341.6714" cy="502.9707" r="4.924" fx="342.772" fy="502.9707" gradientTransform="matrix(1 0 0 1 4.6797 -140.9199)" gradientUnits="userSpaceOnUse">
							<stop  offset="0" style="stop-color:#010101;stop-opacity:0"/>
							<stop  offset="0" style="stop-color:#040403;stop-opacity:0"/>
							<stop  offset="0.4078" style="stop-color:#13110B;stop-opacity:0"/>
							<stop  offset="0.5961" style="stop-color:#2F291B;stop-opacity:0.3059"/>
							<stop  offset="1" style="stop-color:#261A1A"/>
						</radialGradient>
						<path fill="url(#SVGID_37_)" d="M346,362.5c0.8-1.6,2.1-2.1,4-1.5c0.1,2-0.9,3.4-3,4C345.9,364.3,345.5,363.5,346,362.5z"/>
					</g>
					<g>
						
							<radialGradient id="SVGID_38_" cx="-396.5688" cy="240.2544" r="1.3752" gradientTransform="matrix(3.636364e-004 -1 1 2.727273e-002 105.64 -39.9202)" gradientUnits="userSpaceOnUse">
							<stop  offset="0" style="stop-color:#FFFFFF"/>
							<stop  offset="0.4078" style="stop-color:#FEFEFE;stop-opacity:0.1686"/>
							<stop  offset="0.8" style="stop-color:#FEFEFE;stop-opacity:0"/>
							<stop  offset="1" style="stop-color:#FAFAFA;stop-opacity:0"/>
						</radialGradient>
						<path fill="url(#SVGID_38_)" d="M347.1,363.2c0,0.4-0.1,0.7-0.4,1s-0.6,0.4-1,0.4c-0.3,0-0.6-0.1-0.9-0.5
							c-0.3-0.3-0.4-0.6-0.4-1c0-0.4,0.1-0.7,0.4-0.9c0.3-0.3,0.6-0.4,0.9-0.4c0.4,0,0.7,0.2,1,0.5
							C347,362.5,347.1,362.8,347.1,363.2z"/>
					</g>
				</g>
			</g>
			<g>
				<g>
					<g>
						<g>
							<path fill="#999AA4" d="M349.5,359.3L349.5,359.3c-0.1,0.1-0.2,0.2-0.2,0.2c-2.4,0.4-4,1.5-4.8,3.5c0,0,0,0.2-0.1,0.5
								l-0.4-0.6c1-2.2,2.6-3.5,4.9-3.9L349.5,359.3z"/>
						</g>
					</g>
				</g>
				<g>
					<g>
						<g>
							<g>
								<path d="M344.6,363.7l-0.4-0.5c0.8-2.3,2.4-3.7,4.8-4.1l0.6,0.4c-0.1,0.1-0.1,0.1-0.1,0.1c-2.4,0.4-4,1.7-4.8,3.7
									C344.8,363.3,344.8,363.4,344.6,363.7z"/>
							</g>
						</g>
					</g>
				</g>
			</g>
			<g>
				<path fill="#FFFFFF" d="M347.4,360.3c0.9,0.8,0.8,1.2-0.3,1.2c-0.2,0-0.3-0.1-0.4-0.4C346.7,360.6,346.9,360.3,347.4,360.3z"/>
			</g>
		</g>
		<g>
			<g>
				<g>
					<path d="M344.1,386.7c0,0,0.1-0.1,0.1-0.3c0-0.1,0-0.2,0-0.3c0.1-0.4,0.4-0.7,0.7-1c0,0,0-0.1,0-0.2c0.1,0,0.2-0.1,0.4-0.3
						c0,0,0.1-0.1,0.2-0.2c0.1,0.1,0.1,0.1,0.1,0c0.2-0.1,0.4-0.2,0.6-0.3c0.4-0.1,0.8-0.1,1.3,0c0,0,0.1,0,0.2,0c0,0,0.1,0,0.2,0
						c0.1,0.1,0.2,0.1,0.3,0.1c0.1,0,0.2,0,0.3,0c1,0.3,1.7,1,2.2,1.9c0.4,0.8,0.6,1.6,0.5,2.5c0,0.2-0.1,0.3-0.2,0.5
						c-0.1,0.3-0.2,0.6-0.3,1c-0.1,0.1-0.1,0.1-0.2,0.3v0.1c-0.3,0.2-0.5,0.4-0.7,0.6c-0.1,0.1-0.2,0.2-0.3,0.3c0,0-0.1,0.1-0.2,0.1
						c-0.6,0.2-1.1,0.3-1.6,0.2c-0.2,0-0.3,0-0.4,0c-0.1,0-0.2,0-0.3,0s-0.2,0-0.3,0c-0.9-0.3-1.6-0.9-2.1-1.8
						c-0.4-0.7-0.5-1.4-0.5-2.2C344,387.2,344,386.9,344.1,386.7z M347.1,391.3h0.1c0-0.7-0.1-0.8-0.5-0.3
						C346.9,391.3,347,391.3,347.1,391.3z M347.1,388.3c0.5-0.4,0.4-0.8-0.1-1.1c-0.8-0.6-1.1-0.2-0.8,1
						C346.5,388.5,346.8,388.5,347.1,388.3z M350.7,388.5C350.8,388.5,350.8,388.5,350.7,388.5l0.1,0.2
						C350.8,388.6,350.8,388.5,350.7,388.5L350.7,388.5z"/>
				</g>
			</g>
			<g>
				<g>
					<g>
						
							<radialGradient id="SVGID_39_" cx="341.3203" cy="530.1201" r="5.4817" gradientTransform="matrix(1 0 0 1 4.6797 -140.9199)" gradientUnits="userSpaceOnUse">
							<stop  offset="0" style="stop-color:#8F929B"/>
							<stop  offset="0.6196" style="stop-color:#686779"/>
							<stop  offset="0.8" style="stop-color:#3D3B44"/>
							<stop  offset="0.9922" style="stop-color:#2F291B"/>
						</radialGradient>
						<path fill="url(#SVGID_39_)" d="M344.1,387.5l0.2-0.8c0.2-0.6,0.5-1,0.8-1.3v-0.1c0.1,0,0.2-0.1,0.3-0.3
							c0.1-0.1,0.2-0.1,0.3-0.2c0-0.1,0.1-0.1,0.1-0.1c0.2-0.1,0.4-0.1,0.6-0.2c0.3-0.1,0.7-0.1,1.1,0c0.1,0,0.1,0,0.2,0
							c0,0,0.1,0.1,0.2,0.1c0.1,0,0.1,0,0.2,0c0.1,0,0.1,0,0.3,0.1c0.9,0.3,1.6,0.8,2,1.6c0.4,0.8,0.6,1.5,0.5,2.4l0,0
							c-0.1,0.1-0.1,0.3-0.2,0.5c0,0.2-0.1,0.4-0.2,0.5c0,0.1,0,0.3-0.1,0.3c-0.1,0.1-0.1,0.3-0.3,0.4c-0.2,0.2-0.6,0.5-1.1,0.8
							c-0.5,0.4-1.2,0.5-2.1,0.3c-0.1,0-0.1,0-0.1-0.1c-0.1,0-0.1-0.1-0.2-0.1h-0.1c-0.8-0.3-1.5-0.9-2-1.7
							c-0.4-0.6-0.5-1.2-0.5-1.6L344.1,387.5z M350.5,388.5C350.6,388.6,350.6,388.6,350.5,388.5l0.2,0.1c0,0,0-0.1,0-0.2
							L350.5,388.5z"/>
						<path fill="#2F291B" d="M350.5,388.5L350.5,388.5c0.1,0.1,0.1,0.1,0.1,0.2h-0.2C350.6,388.6,350.6,388.6,350.5,388.5z"/>
					</g>
				</g>
			</g>
			<g>
				<g>
					<g>
						
							<radialGradient id="SVGID_40_" cx="341.9214" cy="527.9697" r="2.6708" gradientTransform="matrix(1 0 0 1 4.6797 -140.9199)" gradientUnits="userSpaceOnUse">
							<stop  offset="0" style="stop-color:#AAABA6;stop-opacity:0"/>
							<stop  offset="0.7255" style="stop-color:#AAABA6;stop-opacity:0"/>
							<stop  offset="1" style="stop-color:#AAABA6"/>
						</radialGradient>
						<path fill="url(#SVGID_40_)" d="M346.6,387c0.1,0.3,0.1,0.5,0.1,0.5h-0.1l0,0c-0.1,0-0.1-0.1-0.1-0.2
							c-0.2-0.4-0.4-0.8-0.5-1.3c-0.1-0.7-0.1-1.1,0.2-1.3s0.8-0.3,1.5-0.2c0.6,0.1,1.3,0.3,1.9,0.7c-0.5-0.2-1.1-0.1-1.8,0.5
							C347.1,386.3,346.7,386.8,346.6,387z"/>
						
							<radialGradient id="SVGID_41_" cx="343.02" cy="529.5703" r="4.9173" fx="344.1193" fy="529.5703" gradientTransform="matrix(1 0 0 1 4.6797 -140.9199)" gradientUnits="userSpaceOnUse">
							<stop  offset="0" style="stop-color:#010101;stop-opacity:0"/>
							<stop  offset="0" style="stop-color:#040403;stop-opacity:0"/>
							<stop  offset="0.4078" style="stop-color:#13110B;stop-opacity:0"/>
							<stop  offset="0.5961" style="stop-color:#2F291B;stop-opacity:0.3059"/>
							<stop  offset="1" style="stop-color:#261A1A"/>
						</radialGradient>
						<path fill="url(#SVGID_41_)" d="M350.3,386c1.1,1.8,0.9,3.5-0.6,5c-1.3-0.1-2-0.7-2-1.8C347.5,387.4,348.4,386.3,350.3,386z"
							/>
					</g>
					<g>
						
							<radialGradient id="SVGID_42_" cx="-481.0229" cy="-55.4902" r="1.3732" gradientTransform="matrix(-0.501 -0.8654 0.8836 -0.4828 155.6663 -53.178)" gradientUnits="userSpaceOnUse">
							<stop  offset="0" style="stop-color:#FFFFFF"/>
							<stop  offset="0.4078" style="stop-color:#FEFEFE;stop-opacity:0.1686"/>
							<stop  offset="0.8" style="stop-color:#FEFEFE;stop-opacity:0"/>
							<stop  offset="1" style="stop-color:#FAFAFA;stop-opacity:0"/>
						</radialGradient>
						<path fill="url(#SVGID_42_)" d="M349,389.2c0.2,0.3,0.2,0.7,0,1c0,0.3-0.2,0.6-0.5,0.8s-0.7,0.2-1.1,0.1
							c-0.3-0.1-0.6-0.3-0.8-0.6c-0.2-0.3-0.3-0.7-0.1-1c0.1-0.4,0.3-0.7,0.6-0.8c0.3-0.2,0.6-0.2,0.9,0
							C348.4,388.8,348.7,388.9,349,389.2z"/>
					</g>
				</g>
			</g>
			<g>
				<g>
					<g>
						<g>
							<path fill="#999AA4" d="M349.1,384.8L349.1,384.8c0,0.2-0.1,0.2-0.1,0.2c-2,1.5-2.8,3.4-2.4,5.5c0,0,0,0.2,0,0.3l-0.6-0.2
								c-0.3-2.4,0.5-4.4,2.3-5.8H349.1z"/>
						</g>
					</g>
				</g>
				<g>
					<g>
						<g>
							<g>
								<path d="M349.2,384.7L349.2,384.7c0,0.2,0,0.2-0.1,0.3c-1.9,1.6-2.7,3.4-2.3,5.5c0,0,0,0.2,0.1,0.3l-0.6-0.2
									c-0.4-2.4,0.3-4.4,2.1-5.8L349.2,384.7z"/>
							</g>
						</g>
					</g>
				</g>
			</g>
			<g>
				<path fill="#FFFFFF" d="M347.6,386.5c1.1,0.2,1.3,0.6,0.4,1.3c-0.2,0.1-0.3,0-0.4-0.1C347.3,387.3,347.3,386.9,347.6,386.5z"/>
			</g>
		</g>
		<g>
			<path fill="#262626" d="M361.9,358.7c0.1,0,0.1,0,0.3,0c0.1,0.1,0.1,0.1,0.2,0.2c0.1,0.1,0.1,0.1,0.2,0.2
				c0.1,0.1,0.1,0.2,0.1,0.4c0,0.1,0,0.2-0.1,0.3c0,0.2,0,0.3,0,0.3h-0.3c0.1-0.1,0.1-0.2,0.1-0.3c0-0.1,0-0.2,0-0.3s0-0.2,0-0.3
				c0,0-0.1-0.1-0.1-0.2c0,0-0.1-0.1-0.2-0.1H362c-0.1,0-0.2,0-0.3,0c0,0-0.1,0-0.2,0c0,0.1,0,0.2,0,0.3c0,0,0,0.1,0,0.2
				c0,0.1,0,0.2,0,0.2c0,0.1,0,0.2,0,0.3h-1.1v-1.3h0.3v1h0.6c0-0.1,0-0.1,0-0.2l0,0c0-0.2,0-0.3,0-0.3c0-0.1,0-0.2,0-0.3
				c0.1,0,0.2-0.1,0.2-0.2C361.6,358.7,361.7,358.7,361.9,358.7z M362.5,366.3H362v1h-0.4l-1.2-1V366h1.3v-0.3h0.3v0.3h0.5V366.3
				L362.5,366.3z M360.8,366.3l0.9,0.8v-0.8H360.8z M362.5,373.4c0.1,0.2,0.1,0.3,0.1,0.3c0,0.1,0,0.2-0.1,0.4c0,0.1,0,0.1,0,0.3
				h-0.3v-0.1c0.1-0.1,0.1-0.2,0.1-0.3s0-0.2,0-0.3c0,0,0-0.1,0-0.2v-0.1c-0.1,0-0.1-0.1-0.2-0.1c-0.1-0.1-0.1-0.1-0.2-0.1
				c-0.1,0-0.2,0-0.3,0.1c0,0-0.1,0-0.1,0.1c-0.1,0.1-0.1,0.1-0.1,0.1c0,0.1,0,0.2,0,0.2v0.2h-0.3v-0.2c0-0.1,0-0.2-0.1-0.3
				c0-0.1-0.1-0.2-0.3-0.2c-0.1,0-0.1,0-0.2,0c0,0,0,0.1-0.1,0.2h-0.1c0,0.1,0,0.1,0,0.2c0,0.1,0,0.2,0.1,0.3
				c0.1,0.1,0.1,0.2,0.1,0.3h-0.3c0-0.1-0.1-0.2-0.1-0.3c0-0.1,0-0.2,0-0.3c0-0.1,0-0.2,0-0.2c0-0.1,0-0.2,0-0.3
				c0-0.1,0.1-0.1,0.2-0.1c0.1-0.1,0.1-0.1,0.3-0.1c0.1,0,0.1,0,0.3,0.2c0.1,0,0.2,0.1,0.3,0.3c0-0.1,0-0.2,0-0.3l0.1-0.1
				c0.1-0.1,0.1-0.1,0.2-0.1s0.1,0,0.3,0c0.1,0,0.1,0,0.3,0c0.1,0.1,0.2,0.1,0.2,0.2C362.4,373.2,362.5,373.3,362.5,373.4z
				 M360.8,381c-0.1,0.1-0.2,0.2-0.2,0.3c0,0.1,0,0.2,0.1,0.3c0,0.1,0,0.2,0.1,0.3h-0.3c0-0.1-0.1-0.2-0.1-0.3c0-0.1,0-0.2,0-0.3
				c0-0.2,0-0.4,0.1-0.5c0.1-0.1,0.3-0.2,0.5-0.2c0.1,0,0.2,0,0.2,0c0.1,0,0.2,0.1,0.3,0.2c0,0,0.1,0,0.1,0.2c0.1,0,0.2,0.1,0.3,0.1
				c0.1,0.1,0.2,0.2,0.3,0.3c0.1,0.1,0.2,0.3,0.3,0.4v-1.1h0.2v1.4h-0.3c-0.1-0.1-0.2-0.2-0.3-0.3c-0.1-0.1-0.2-0.2-0.2-0.3
				c-0.2-0.2-0.3-0.4-0.5-0.5c-0.1,0-0.2,0-0.3,0C360.8,380.9,360.8,380.9,360.8,381z M360.7,389L360.7,389c0-0.1-0.1-0.2-0.2-0.2
				h-0.1v-0.3h1.9V388h0.2v1.2h-0.2v-0.4h-1.4v0.4h-0.3C360.7,389.2,360.7,389.1,360.7,389z M360.7,395.2c0.2-0.1,0.4-0.2,0.8-0.2
				s0.6,0,0.8,0.2c0.2,0.1,0.3,0.3,0.3,0.5s-0.1,0.4-0.3,0.5c-0.2,0.1-0.5,0.2-0.8,0.2c-0.4,0-0.6,0-0.8-0.2
				c-0.2-0.1-0.3-0.3-0.3-0.5S360.5,395.3,360.7,395.2z M361.5,395.3c-0.1,0-0.3,0-0.4,0c-0.1,0-0.2,0-0.3,0.1l-0.1,0.1
				c0,0-0.1,0.1-0.1,0.2c0,0.1,0,0.2,0.1,0.2c0.1,0.1,0.1,0.1,0.1,0.1c0.1,0,0.2,0.1,0.3,0.1c0.1,0,0.2,0,0.4,0c0.1,0,0.3,0,0.3,0
				c0.1,0,0.2,0,0.3-0.1c0.1,0,0.2-0.1,0.2-0.1s0-0.1,0-0.2c0-0.1,0-0.2,0-0.2c0-0.1-0.1-0.1-0.2-0.1c-0.1-0.1-0.2-0.1-0.3-0.1
				C361.7,395.3,361.6,395.3,361.5,395.3z"/>
		</g>
	</g>
</g>
</svg>
