<?xml version="1.0" encoding="utf-8"?>
<!-- Generator: Adobe Illustrator 16.0.0, SVG Export Plug-In . SVG Version: 6.00 Build 0)  -->
<!DOCTYPE svg PUBLIC "-//W3C//DTD SVG 1.1//EN" "http://www.w3.org/Graphics/SVG/1.1/DTD/svg11.dtd">
<svg version="1.1" id="Layer_1" xmlns="http://www.w3.org/2000/svg" xmlns:xlink="http://www.w3.org/1999/xlink" x="0px" y="0px"
	 width="15px" height="37.7px" viewBox="0 0 15 37.7" enable-background="new 0 0 15 37.7" xml:space="preserve">
<g>
	<g>
		<g>
			<g>
				
					<linearGradient id="SVGID_1_" gradientUnits="userSpaceOnUse" x1="-266.4106" y1="-173.4229" x2="-255.6104" y2="-173.4229" gradientTransform="matrix(0.8653 0.7099 -0.619 0.9399 126.539 381.8431)">
					<stop  offset="0" style="stop-color:#B7B7B7"/>
					<stop  offset="1" style="stop-color:#FFFFFF"/>
				</linearGradient>
				<polygon fill-rule="evenodd" clip-rule="evenodd" fill="url(#SVGID_1_)" points="14.7,36.6 0.4,36.6 1.4,29.2 14,29.2 				"/>
				
					<linearGradient id="SVGID_2_" gradientUnits="userSpaceOnUse" x1="-267.3882" y1="-168.1001" x2="-267.3882" y2="-165.3501" gradientTransform="matrix(1.1192 0 0 1.1192 306.8512 224.1783)">
					<stop  offset="0" style="stop-color:#A6A6A6"/>
					<stop  offset="1" style="stop-color:#808080"/>
				</linearGradient>
				<polygon fill-rule="evenodd" clip-rule="evenodd" fill="url(#SVGID_2_)" points="14.7,36.6 14.6,37.7 0.5,37.7 0.4,36.6 				"/>
			</g>
		</g>
		<g>
			<path fill-rule="evenodd" clip-rule="evenodd" d="M8.1,33c0,0.1-0.1,0.1-0.2,0.2c-0.1,0-0.3,0.1-0.5,0.1s-0.4,0-0.5-0.1
				c-0.1,0-0.2-0.1-0.2-0.2c0,0,0.1-0.1,0.2-0.2c0.1,0,0.3-0.1,0.5-0.1s0.4,0,0.5,0.1C8.1,32.9,8.1,32.9,8.1,33z"/>
		</g>
	</g>
	<g>
		
			<linearGradient id="SVGID_3_" gradientUnits="userSpaceOnUse" x1="-268.4126" y1="-184.9878" x2="-266.7622" y2="-184.9878" gradientTransform="matrix(1.1192 0 0 1.1192 306.8512 224.1783)">
			<stop  offset="0" style="stop-color:#929292"/>
			<stop  offset="0.2039" style="stop-color:#A2A2A2"/>
			<stop  offset="0.5255" style="stop-color:#FFFFFF"/>
			<stop  offset="1" style="stop-color:#717171"/>
		</linearGradient>
		<path fill-rule="evenodd" clip-rule="evenodd" fill="url(#SVGID_3_)" d="M7.4,0.5l0.9,6.2l0.1,26.9c-0.6,0.3-1.2,0.3-1.8,0v-27
			L7.4,0.5z"/>
	</g>
</g>
</svg>
