<?xml version="1.0" encoding="utf-8"?>
<!-- Generator: Adobe Illustrator 16.0.0, SVG Export Plug-In . SVG Version: 6.00 Build 0)  -->
<!DOCTYPE svg PUBLIC "-//W3C//DTD SVG 1.1//EN" "http://www.w3.org/Graphics/SVG/1.1/DTD/svg11.dtd">
<svg version="1.1" id="Layer_1" xmlns="http://www.w3.org/2000/svg" xmlns:xlink="http://www.w3.org/1999/xlink" x="0px" y="0px"
	 width="700px" height="700px" viewBox="0 0 700 700" enable-background="new 0 0 700 700" xml:space="preserve">
<g>
	
		<path fill-rule="evenodd" clip-rule="evenodd" fill="none" stroke="#000000" stroke-linecap="round" stroke-linejoin="round" stroke-miterlimit="3" stroke-opacity="0.251" d="
		M378.5,130.4v4 M370.1,130.4v4 M387,130.4v4 M327.6,130.4v4 M336.2,130.4v4 M361.6,130.4v4 M353.2,130.4v4 M344.6,130.4v4
		 M209.2,130.4v4 M217.6,130.4v4 M234.6,130.4v4 M226.2,130.4v4 M175.4,130.4v4 M166.8,130.4v4 M200.6,130.4v4 M192.4,130.4v4
		 M183.8,130.4v4 M302.4,130.4v4 M293.8,130.4v4 M285.4,130.4v4 M319.2,130.4v4 M310.6,130.4v4 M251.6,130.4v4 M243.2,130.4v4
		 M260.1,130.4v4 M268.5,130.4v4 M276.8,130.4v4 M56.6,130.4v4 M48.4,130.4v4 M65.2,130.4v4 M73.6,130.4v4 M6,130.4v4 M14.5,130.4v4
		 M40,130.4v4 M31.5,130.4v4 M23,130.4v4 M133,130.4v4 M141.5,130.4v4 M124.5,130.4v4 M150,130.4v4 M158.4,130.4v4 M99,130.4v4
		 M90.5,130.4v4 M82.2,130.4v4 M116,130.4v4 M107.5,130.4v4"/>
</g>
<g>
	
		<path fill-rule="evenodd" clip-rule="evenodd" fill="none" stroke="#000000" stroke-linecap="round" stroke-linejoin="round" stroke-miterlimit="3" stroke-opacity="0.251" d="
		M539.5,130.4v4 M530.9,130.4v4 M564.8,130.4v4 M556.3,130.4v4 M547.8,130.4v4 M505.6,130.4v4 M497.3,130.4v4 M488.8,130.4v4
		 M522.5,130.4v4 M514,130.4v4 M615.6,130.4v4 M624,130.4v4 M632.6,130.4v4 M641,130.4v4 M581.8,130.4v4 M573.3,130.4v4
		 M598.8,130.4v4 M607.3,130.4v4 M590.3,130.4v4 M395.5,130.4v4 M404,130.4v4 M463.3,130.4v4 M454.8,130.4v4 M446.3,130.4v4
		 M471.8,130.4v4 M480.3,130.4v4 M412.5,130.4v4 M420.9,130.4v4 M429.5,130.4v4 M437.8,130.4v4 M700.5,130.4v4 M691.9,130.4v4
		 M666.5,130.4v4 M657.9,130.4v4 M649.6,130.4v4 M683.5,130.4v4 M674.9,130.4v4"/>
</g>
<g>
	<path fill-rule="evenodd" clip-rule="evenodd" fill-opacity="0.498" d="M550.7,128.8c0,0.1,0,0.3-0.1,0.4c-0.1,0.1-0.2,0.2-0.3,0.3
		c-0.1,0-0.2,0.1-0.2,0.1c-0.1,0-0.1,0.1-0.1,0.1h0.8v0.3h-1.4v-0.3c0.1,0,0.2-0.1,0.4-0.2c0.1-0.1,0.2-0.2,0.2-0.2
		c0.1-0.1,0.2-0.2,0.2-0.2c0,0,0.1-0.1,0.1-0.2c0,0,0-0.1-0.1-0.1c0,0-0.1-0.1-0.2-0.1c-0.1,0-0.2,0-0.2,0c-0.1,0-0.2,0.1-0.3,0.1
		v-0.4c0,0,0.1-0.1,0.2-0.1c0.1,0,0.3-0.1,0.4-0.1c0.2,0,0.4,0,0.5,0.1C550.6,128.5,550.7,128.6,550.7,128.8z M548.9,128.6l-0.8,1.4
		h-0.5l0.9-1.4h-0.9v-0.3h1.4V128.6z M559.1,128.6c0,0,0.1,0.1,0.1,0.1c0,0.1,0,0.2-0.1,0.3c0,0-0.1,0.1-0.2,0.1c0,0,0.1,0,0.1,0
		l0.1,0.1c0,0,0.1,0.1,0.1,0.1c0,0,0,0.1,0,0.1c0,0.1,0,0.2,0,0.2c0,0-0.1,0.1-0.2,0.1c0,0-0.1,0.1-0.2,0.1c-0.1,0-0.2,0-0.4,0
		s-0.3,0-0.4,0s-0.2,0-0.3-0.1v-0.4h0.1c0,0,0.1,0.1,0.3,0.1c0.1,0,0.2,0.1,0.2,0.1c0,0,0.1,0,0.1,0c0.1,0,0.1,0,0.1-0.1
		c0,0,0.1,0,0.1-0.1c0,0,0.1,0,0.1-0.1s0-0.1-0.1-0.1c0,0,0-0.1-0.1-0.1c0,0-0.1,0-0.1,0c0,0-0.1,0-0.1,0h-0.1V129h0.1
		c0,0,0.1,0,0.1,0c0,0,0.1,0,0.1-0.1h0.1c0,0,0-0.1,0-0.1v-0.1c0,0-0.1,0-0.1-0.1c0,0-0.1,0-0.1,0h-0.1c-0.1,0-0.2,0-0.3,0
		c-0.1,0-0.2,0.1-0.2,0.1h-0.1v-0.4c0,0,0.1-0.1,0.3-0.1c0.1,0,0.2-0.1,0.4-0.1c0.1,0,0.2,0,0.3,0.1c0.1,0,0.2,0,0.2,0.1
		C559,128.5,559.1,128.5,559.1,128.6z M556.7,130h-0.5l0.9-1.4h-0.9v-0.3h1.4v0.3L556.7,130z M533.9,129.1c0,0.1,0,0.3-0.1,0.4
		c0,0.1,0,0.2-0.1,0.2c0,0.1-0.1,0.2-0.2,0.2c-0.1,0-0.2,0-0.4,0c-0.1,0-0.2,0-0.3,0c-0.1,0-0.2-0.1-0.3-0.2c0,0-0.1-0.1-0.1-0.2
		c0-0.1,0-0.3,0-0.4c0-0.1,0-0.3,0-0.4c0-0.1,0.1-0.2,0.1-0.3c0.1,0,0.2-0.1,0.3-0.1c0.1,0,0.2-0.1,0.3-0.1c0.1,0,0.3,0,0.4,0.1
		c0.1,0,0.2,0.1,0.2,0.1c0.1,0.1,0.1,0.2,0.1,0.3C533.9,128.9,533.9,129,533.9,129.1z M533.3,128.7c0,0-0.1-0.1-0.2-0.1
		s-0.2,0-0.2,0.1c0,0.1-0.1,0.2-0.1,0.4c0,0.2,0,0.4,0.1,0.4c0,0.1,0.1,0.1,0.2,0.1s0.2,0,0.2-0.1c0,0,0.1-0.2,0.1-0.4
		C533.4,129,533.4,128.8,533.3,128.7z M532.1,128.6l-0.8,1.4h-0.5l0.9-1.4h-0.9v-0.3h1.4V128.6z M542.3,130h-1.1v-0.3h0.4v-0.9h-0.4
		v-0.3c0,0,0.1,0,0.1,0c0,0,0.1,0,0.1-0.1c0,0,0.1,0,0.1-0.1l0.1-0.1h0.4v1.4h0.4V130z M540.6,128.6l-0.8,1.4h-0.5l0.9-1.4h-0.9
		v-0.3h1.4V128.6z M523,128.6c-0.1,0-0.3,0-0.4,0.1c-0.1,0.1-0.1,0.2-0.1,0.3c0,0,0.1-0.1,0.2-0.1c0,0,0.1,0,0.2,0c0,0,0.1,0,0.1,0
		c0.1,0,0.2,0,0.2,0.1c0,0,0.1,0.1,0.1,0.1c0,0.1,0.1,0.2,0.1,0.3c0,0.1,0,0.2-0.1,0.2c0,0.1-0.1,0.2-0.1,0.2c0,0-0.1,0.1-0.2,0.1
		c-0.1,0-0.2,0-0.3,0s-0.2,0-0.3,0c-0.1,0-0.2-0.1-0.3-0.1c0,0-0.1-0.1-0.1-0.2s-0.1-0.2-0.1-0.4c0-0.1,0-0.3,0.1-0.4
		c0-0.1,0.1-0.2,0.2-0.3c0-0.1,0.1-0.2,0.3-0.2c0.1,0,0.2-0.1,0.4-0.1c0,0,0.1,0,0.2,0.1c0,0,0.1,0,0.1,0v0.3h-0.1
		C523.1,128.6,523.1,128.6,523,128.6z M522.5,129.4c0,0,0,0.1,0,0.2c0,0,0.1,0.1,0.1,0.1h0.1c0,0,0.1,0.1,0.1,0.1l0.1-0.1h0.1
		c0,0,0.1-0.1,0.1-0.1v-0.2c0,0,0-0.1-0.1-0.1h-0.1c0,0-0.1,0-0.1,0c0,0-0.1,0-0.1,0h-0.1V129.4z M516.8,128.7c0,0.1,0,0.2-0.1,0.2
		c0,0-0.1,0.1-0.2,0.1c0.1,0,0.2,0.1,0.3,0.2c0,0,0.1,0.1,0.1,0.3c0,0.1-0.1,0.3-0.2,0.4c-0.1,0.1-0.3,0.1-0.6,0.1
		c-0.1,0-0.2,0-0.3-0.1c-0.1,0-0.2-0.1-0.3-0.1c0,0-0.1-0.1-0.1-0.2c0,0,0-0.1,0-0.1c0-0.1,0-0.2,0.1-0.2c0-0.1,0.1-0.2,0.3-0.2
		c-0.1,0-0.2-0.1-0.3-0.1c0-0.1-0.1-0.2-0.1-0.2c0-0.1,0.1-0.3,0.2-0.4c0.1-0.1,0.3-0.1,0.5-0.1c0.2,0,0.4,0,0.6,0.1
		C516.8,128.5,516.8,128.6,516.8,128.7z M516.4,128.8c0,0,0-0.1-0.1-0.1c0,0-0.1-0.1-0.2-0.1H516l-0.1,0.1h-0.1v0.1c0,0,0,0.1,0,0.1
		c0,0,0.1,0,0.1,0.1c0,0,0.1,0,0.1,0c0,0,0,0.1,0.1,0.1C516.3,129,516.4,128.9,516.4,128.8L516.4,128.8z M516.2,129.4L516.2,129.4
		c-0.1-0.1-0.2-0.1-0.2-0.1c0,0-0.1,0-0.1,0.1c0,0-0.1,0.1-0.1,0.1c0,0.1,0,0.2,0.1,0.2c0.1,0,0.2,0.1,0.3,0.1l0.1-0.1h0.1
		c0,0,0.1,0,0.1-0.1c0,0,0.1,0,0.1-0.1c0,0,0-0.1-0.1-0.1C516.4,129.4,516.3,129.4,516.2,129.4z M525.2,129.5c0,0.1-0.1,0.2-0.2,0.3
		c-0.1,0.1-0.2,0.2-0.3,0.2c-0.1,0-0.3,0-0.5,0c0,0-0.1,0-0.1,0h-0.1v-0.3h0.1c0,0,0.1,0,0.2,0c0,0,0.1,0,0.1,0s0.1,0,0.1-0.1
		c0,0,0.1-0.1,0.1-0.1c0,0,0.1-0.1,0.1-0.1c-0.1,0-0.2,0-0.2,0.1c0,0-0.1,0-0.2,0c0,0-0.1,0-0.2,0c0,0-0.1,0-0.1-0.1
		c-0.1,0-0.1-0.1-0.1-0.1c0-0.1-0.1-0.2-0.1-0.3c0-0.2,0.1-0.3,0.2-0.4c0.1-0.1,0.3-0.2,0.5-0.2c0.1,0,0.2,0,0.3,0.1
		c0.1,0,0.2,0.1,0.2,0.1c0.1,0,0.2,0.1,0.2,0.2c0,0.1,0,0.2,0,0.4C525.2,129.2,525.2,129.4,525.2,129.5z M524.4,128.6
		c0,0-0.1,0.1-0.1,0.1c0,0-0.1,0-0.1,0.1c0,0.1,0,0.1,0.1,0.1c0,0,0,0.1,0.1,0.1c0,0,0,0.1,0.1,0.1s0.1,0,0.1,0h0.1c0,0,0.1,0,0.1,0
		V129c0-0.1,0-0.2,0-0.2c0,0-0.1-0.1-0.1-0.1h-0.1c0,0,0-0.1-0.1-0.1C524.5,128.6,524.4,128.6,524.4,128.6L524.4,128.6z M507.6,130
		h-0.5l0.9-1.4H507v-0.3h1.4v0.3L507.6,130z M506.4,128.6c-0.1,0-0.2,0-0.2,0c-0.1,0-0.3,0-0.4,0.1c-0.1,0.1-0.1,0.2-0.1,0.3
		c0,0,0.1-0.1,0.2-0.1c0,0,0.1,0,0.2,0c0,0,0.1,0,0.1,0c0.1,0,0.2,0,0.2,0.1c0,0,0.1,0.1,0.1,0.1c0,0.1,0.1,0.2,0.1,0.3
		c0,0.1,0,0.2-0.1,0.2c0,0.1-0.1,0.2-0.1,0.2c0,0-0.1,0.1-0.2,0.1c-0.1,0-0.2,0-0.3,0s-0.2,0-0.3,0c-0.1,0-0.2-0.1-0.3-0.1
		c0,0-0.1-0.1-0.1-0.2c0-0.1-0.1-0.2-0.1-0.4c0-0.1,0-0.3,0.1-0.4c0-0.1,0.1-0.2,0.2-0.3c0-0.1,0.1-0.2,0.3-0.2
		c0.1,0,0.2-0.1,0.4-0.1c0,0,0.1,0,0.2,0.1c0,0,0.1,0,0.1,0v0.3H506.4z M505.7,129.4c0,0,0,0.1,0,0.2c0,0,0.1,0.1,0.1,0.1h0.1
		c0,0,0.1,0.1,0.1,0.1l0.1-0.1h0.1c0,0,0.1-0.1,0.1-0.1v-0.2c0,0,0-0.1-0.1-0.1H506c0,0-0.1,0-0.1,0c0,0-0.1,0-0.1,0h-0.1V129.4z
		 M515,128.4v0.3h-0.1c-0.1,0-0.2,0-0.2,0c-0.1,0-0.3,0-0.4,0.1c-0.1,0.1-0.1,0.2-0.1,0.3c0,0,0.1-0.1,0.2-0.1c0,0,0.1,0,0.2,0
		c0,0,0.1,0,0.1,0c0.1,0,0.2,0,0.2,0.1s0.1,0.1,0.1,0.1c0,0.1,0.1,0.2,0.1,0.3c0,0.1,0,0.2-0.1,0.2c0,0.1-0.1,0.2-0.1,0.2
		s-0.1,0.1-0.2,0.1c-0.1,0-0.2,0-0.3,0c-0.1,0-0.2,0-0.3,0c-0.1,0-0.2-0.1-0.3-0.1c0,0-0.1-0.1-0.1-0.2s-0.1-0.2-0.1-0.4
		c0-0.1,0-0.3,0.1-0.4c0-0.1,0.1-0.2,0.2-0.3c0-0.1,0.1-0.2,0.3-0.2c0.1,0,0.2-0.1,0.4-0.1c0,0,0.1,0,0.2,0.1
		C514.9,128.4,514.9,128.4,515,128.4z M514.6,129.2L514.6,129.2c-0.1,0-0.2,0-0.2,0c0,0-0.1,0-0.1,0h-0.1v0.1c0,0,0,0.1,0,0.2
		c0,0,0.1,0.1,0.1,0.1h0.1c0,0,0.1,0.1,0.1,0.1l0.1-0.1h0.1c0,0,0.1-0.1,0.1-0.1v-0.2C514.6,129.3,514.6,129.3,514.6,129.2z
		 M491.4,129.4c0,0.1,0,0.2,0,0.3c0,0-0.1,0.1-0.1,0.1c-0.1,0-0.2,0.1-0.3,0.1c-0.1,0-0.2,0-0.4,0c-0.1,0-0.3,0-0.4,0
		c-0.1,0-0.2,0-0.2-0.1v-0.4c0.1,0,0.2,0.1,0.3,0.1c0.1,0,0.2,0.1,0.2,0.1c0,0,0.1,0,0.2,0c0,0,0.1-0.1,0.1-0.1c0,0,0-0.1,0.1-0.1
		c0,0,0-0.1,0-0.1l-0.1-0.1c0,0,0-0.1-0.1-0.1s-0.1,0-0.1-0.1c0,0-0.1,0-0.1,0c-0.1,0-0.2,0-0.2,0c0,0-0.1,0.1-0.2,0.1v-0.9h1.3v0.3
		h-0.9v0.3h0.1c0,0,0.1,0,0.1,0c0.1,0,0.2,0,0.2,0c0.1,0,0.2,0.1,0.2,0.1c0.1,0,0.2,0.1,0.2,0.2
		C491.4,129.3,491.4,129.3,491.4,129.4z M489.2,128.6c-0.1,0-0.3,0-0.4,0.1c-0.1,0.1-0.1,0.2-0.1,0.3c0,0,0.1-0.1,0.2-0.1
		c0,0,0.1,0,0.2,0c0,0,0.1,0,0.1,0c0.1,0,0.2,0,0.2,0.1s0.1,0.1,0.1,0.1c0,0.1,0.1,0.2,0.1,0.3c0,0.1,0,0.2-0.1,0.2
		c0,0.1-0.1,0.2-0.1,0.2s-0.1,0.1-0.2,0.1c-0.1,0-0.2,0-0.3,0c-0.1,0-0.2,0-0.3,0c-0.1,0-0.2-0.1-0.3-0.1c0,0-0.1-0.1-0.1-0.2
		c0-0.1-0.1-0.2-0.1-0.4c0-0.1,0-0.3,0.1-0.4c0-0.1,0.1-0.2,0.2-0.3c0-0.1,0.1-0.2,0.3-0.2c0.1,0,0.2-0.1,0.4-0.1c0,0,0.1,0,0.2,0.1
		c0,0,0.1,0,0.1,0v0.3h-0.1C489.4,128.6,489.3,128.6,489.2,128.6z M489.2,129.2L489.2,129.2c-0.1,0-0.2,0-0.2,0c0,0-0.1,0-0.1,0
		h-0.1v0.1c0,0,0,0.1,0,0.2c0,0,0.1,0.1,0.1,0.1h0.1c0,0,0.1,0.1,0.1,0.1l0.1-0.1h0.1c0,0,0.1-0.1,0.1-0.1v-0.2
		C489.2,129.3,489.2,129.3,489.2,129.2z M499.6,128.6h-0.1c-0.1,0-0.2,0-0.2,0c-0.1,0-0.3,0-0.4,0.1c-0.1,0.1-0.1,0.2-0.1,0.3
		c0,0,0.1-0.1,0.2-0.1c0,0,0.1,0,0.2,0c0,0,0.1,0,0.1,0c0.1,0,0.2,0,0.2,0.1s0.1,0.1,0.1,0.1c0,0.1,0.1,0.2,0.1,0.3
		c0,0.1,0,0.2-0.1,0.2c0,0.1-0.1,0.2-0.1,0.2s-0.1,0.1-0.2,0.1c-0.1,0-0.2,0-0.3,0s-0.2,0-0.3,0c-0.1,0-0.2-0.1-0.3-0.1
		c0,0-0.1-0.1-0.1-0.2s-0.1-0.2-0.1-0.4c0-0.1,0-0.3,0.1-0.4c0-0.1,0.1-0.2,0.2-0.3c0-0.1,0.1-0.2,0.3-0.2c0.1,0,0.2-0.1,0.4-0.1
		c0,0,0.1,0,0.2,0.1c0,0,0.1,0,0.1,0V128.6z M499.1,129.2c0,0-0.1,0-0.1,0c0,0-0.1,0-0.1,0h-0.1v0.1c0,0,0,0.1,0,0.2
		c0,0,0.1,0.1,0.1,0.1h0.1c0,0,0.1,0.1,0.1,0.1l0.1-0.1h0.1c0,0,0.1-0.1,0.1-0.1v-0.2C499.3,129.3,499.2,129.3,499.1,129.2
		L499.1,129.2z M497.8,128.6h-0.1c-0.1,0-0.2,0-0.2,0c-0.1,0-0.3,0-0.4,0.1c-0.1,0.1-0.1,0.2-0.1,0.3c0,0,0.1-0.1,0.2-0.1
		c0,0,0.1,0,0.2,0c0,0,0.1,0,0.1,0c0.1,0,0.2,0,0.2,0.1c0,0,0.1,0.1,0.1,0.1c0,0.1,0.1,0.2,0.1,0.3c0,0.1,0,0.2-0.1,0.2
		c0,0.1-0.1,0.2-0.1,0.2c0,0-0.1,0.1-0.2,0.1c-0.1,0-0.2,0-0.3,0c-0.1,0-0.2,0-0.3,0c-0.1,0-0.2-0.1-0.3-0.1c0,0-0.1-0.1-0.1-0.2
		c0-0.1-0.1-0.2-0.1-0.4c0-0.1,0-0.3,0.1-0.4c0-0.1,0.1-0.2,0.2-0.3c0-0.1,0.1-0.2,0.3-0.2c0.1,0,0.2-0.1,0.4-0.1c0,0,0.1,0,0.2,0.1
		c0,0,0.1,0,0.1,0V128.6z M497.3,129.2c0,0-0.1,0-0.1,0s-0.1,0-0.1,0H497v0.1c0,0,0,0.1,0,0.2c0,0,0.1,0.1,0.1,0.1h0.1
		c0,0,0.1,0.1,0.1,0.1l0.1-0.1h0.1c0,0,0.1-0.1,0.1-0.1v-0.2C497.5,129.3,497.5,129.3,497.3,129.2L497.3,129.2z M480,128.6
		c0-0.1,0.1-0.2,0.3-0.2c0.1,0,0.2-0.1,0.4-0.1c0,0,0.1,0,0.2,0.1c0,0,0.1,0,0.1,0v0.3h-0.1c-0.1,0-0.2,0-0.2,0
		c-0.1,0-0.3,0-0.4,0.1c-0.1,0.1-0.1,0.2-0.1,0.3c0,0,0.1-0.1,0.2-0.1c0,0,0.1,0,0.2,0c0,0,0.1,0,0.1,0c0.1,0,0.2,0,0.2,0.1
		c0,0,0.1,0.1,0.1,0.1c0,0.1,0.1,0.2,0.1,0.3c0,0.1,0,0.2-0.1,0.2c0,0.1-0.1,0.2-0.1,0.2c0,0-0.1,0.1-0.2,0.1c-0.1,0-0.2,0-0.3,0
		s-0.2,0-0.3,0c-0.1,0-0.2-0.1-0.3-0.1c0,0-0.1-0.1-0.1-0.2s-0.1-0.2-0.1-0.4c0-0.1,0-0.3,0.1-0.4
		C479.8,128.8,479.9,128.7,480,128.6z M473.6,128.6c0,0,0.1,0.1,0.1,0.1c0,0.1,0,0.2-0.1,0.3c0,0-0.1,0.1-0.2,0.1c0,0,0.1,0,0.1,0
		l0.1,0.1c0,0,0.1,0.1,0.1,0.1c0,0,0,0.1,0,0.1c0,0.1,0,0.2,0,0.2c0,0-0.1,0.1-0.2,0.1c0,0-0.1,0.1-0.2,0.1c-0.1,0-0.2,0-0.4,0
		c-0.1,0-0.3,0-0.4,0c-0.1,0-0.2,0-0.3-0.1v-0.4h0.1c0,0,0.1,0.1,0.3,0.1c0.1,0,0.2,0.1,0.2,0.1c0,0,0.1,0,0.1,0
		c0.1,0,0.1,0,0.1-0.1c0,0,0.1,0,0.1-0.1c0,0,0.1,0,0.1-0.1s0-0.1-0.1-0.1c0,0,0-0.1-0.1-0.1s-0.1,0-0.1,0s-0.1,0-0.1,0h-0.1V129
		h0.1c0,0,0.1,0,0.1,0s0.1,0,0.1-0.1h0.1c0,0,0-0.1,0-0.1v-0.1c0,0-0.1,0-0.1-0.1c0,0-0.1,0-0.1,0h-0.1c-0.1,0-0.2,0-0.3,0
		c-0.1,0-0.2,0.1-0.2,0.1h-0.1v-0.4c0,0,0.1-0.1,0.3-0.1c0.1,0,0.2-0.1,0.4-0.1c0.1,0,0.2,0,0.3,0.1c0.1,0,0.2,0,0.2,0.1
		S473.5,128.5,473.6,128.6z M482.8,128.4v0.9h0.2v0.4h-0.2v0.4h-0.4v-0.4h-0.9v-0.4l0.9-0.9H482.8z M482.3,128.7l-0.6,0.6h0.6V128.7
		z M480.2,129.4c0,0,0,0.1,0,0.2c0,0,0.1,0.1,0.1,0.1h0.1c0,0,0.1,0.1,0.1,0.1l0.1-0.1h0.1c0,0,0.1-0.1,0.1-0.1v-0.2
		c0,0,0-0.1-0.1-0.1h-0.1c0,0-0.1,0-0.1,0c0,0-0.1,0-0.1,0h-0.1V129.4z M465.3,128.8c0,0.1,0,0.3-0.1,0.4c-0.1,0.1-0.2,0.2-0.3,0.3
		c-0.1,0-0.2,0.1-0.2,0.1c-0.1,0-0.1,0.1-0.1,0.1h0.8v0.3h-1.4v-0.3c0.1,0,0.2-0.1,0.4-0.2c0.1-0.1,0.2-0.2,0.2-0.2
		c0.1-0.1,0.2-0.2,0.2-0.2c0,0,0.1-0.1,0.1-0.2c0,0,0-0.1-0.1-0.1c0,0-0.1-0.1-0.2-0.1c-0.1,0-0.2,0-0.2,0c-0.1,0-0.2,0.1-0.3,0.1
		v-0.4c0,0,0.1-0.1,0.2-0.1c0.1,0,0.3-0.1,0.4-0.1c0.2,0,0.4,0,0.5,0.1C465.2,128.5,465.3,128.6,465.3,128.8z M463.3,128.6
		c-0.1,0-0.2,0-0.2,0c-0.1,0-0.3,0-0.4,0.1c-0.1,0.1-0.1,0.2-0.1,0.3c0,0,0.1-0.1,0.2-0.1c0,0,0.1,0,0.2,0c0,0,0.1,0,0.1,0
		c0.1,0,0.2,0,0.2,0.1c0,0,0.1,0.1,0.1,0.1c0,0.1,0.1,0.2,0.1,0.3c0,0.1,0,0.2-0.1,0.2c0,0.1-0.1,0.2-0.1,0.2c0,0-0.1,0.1-0.2,0.1
		c-0.1,0-0.2,0-0.3,0s-0.2,0-0.3,0c-0.1,0-0.2-0.1-0.3-0.1c0,0-0.1-0.1-0.1-0.2c0-0.1-0.1-0.2-0.1-0.4c0-0.1,0-0.3,0.1-0.4
		c0-0.1,0.1-0.2,0.2-0.3c0-0.1,0.1-0.2,0.3-0.2c0.1,0,0.2-0.1,0.4-0.1c0,0,0.1,0,0.2,0.1c0,0,0.1,0,0.1,0v0.3H463.3z M462.6,129.4
		c0,0,0,0.1,0,0.2c0,0,0.1,0.1,0.1,0.1h0.1c0,0,0.1,0.1,0.1,0.1l0.1-0.1h0.1c0,0,0.1-0.1,0.1-0.1v-0.2c0,0,0-0.1-0.1-0.1h-0.1
		c0,0-0.1,0-0.1,0s-0.1,0-0.1,0h-0.1V129.4z M471.8,128.4v0.3h-0.1c-0.1,0-0.2,0-0.2,0c-0.1,0-0.3,0-0.4,0.1
		c-0.1,0.1-0.1,0.2-0.1,0.3c0,0,0.1-0.1,0.2-0.1c0,0,0.1,0,0.2,0c0,0,0.1,0,0.1,0c0.1,0,0.2,0,0.2,0.1s0.1,0.1,0.1,0.1
		c0,0.1,0.1,0.2,0.1,0.3c0,0.1,0,0.2-0.1,0.2c0,0.1-0.1,0.2-0.1,0.2s-0.1,0.1-0.2,0.1c-0.1,0-0.2,0-0.3,0c-0.1,0-0.2,0-0.3,0
		c-0.1,0-0.2-0.1-0.3-0.1c0,0-0.1-0.1-0.1-0.2c0-0.1-0.1-0.2-0.1-0.4c0-0.1,0-0.3,0.1-0.4c0-0.1,0.1-0.2,0.2-0.3
		c0-0.1,0.1-0.2,0.3-0.2c0.1,0,0.2-0.1,0.4-0.1c0,0,0.1,0,0.2,0.1C471.7,128.4,471.8,128.4,471.8,128.4z M471.4,129.2L471.4,129.2
		c-0.1,0-0.2,0-0.2,0c0,0-0.1,0-0.1,0H471v0.1c0,0,0,0.1,0,0.2c0,0,0.1,0.1,0.1,0.1h0.1c0,0,0.1,0.1,0.1,0.1l0.1-0.1h0.1
		c0,0,0.1-0.1,0.1-0.1v-0.2C471.5,129.3,471.4,129.3,471.4,129.2z M448,129.1c0,0.1,0,0.3-0.1,0.4c0,0.1,0,0.2-0.1,0.2
		c0,0.1-0.1,0.2-0.2,0.2c-0.1,0-0.2,0-0.4,0c-0.1,0-0.2,0-0.3,0c-0.1,0-0.2-0.1-0.3-0.2c0,0-0.1-0.1-0.1-0.2c0-0.1,0-0.3,0-0.4
		c0-0.1,0-0.3,0-0.4c0-0.1,0.1-0.2,0.1-0.3c0.1,0,0.2-0.1,0.3-0.1c0.1,0,0.2-0.1,0.3-0.1c0.1,0,0.3,0,0.4,0.1c0.1,0,0.2,0.1,0.2,0.1
		c0.1,0.1,0.1,0.2,0.1,0.3C448,128.9,448,129,448,129.1z M447.4,128.7c0,0-0.1-0.1-0.2-0.1s-0.2,0-0.2,0.1c0,0.1-0.1,0.2-0.1,0.4
		c0,0.2,0,0.4,0.1,0.4c0,0.1,0.1,0.1,0.2,0.1s0.2,0,0.2-0.1c0,0,0.1-0.2,0.1-0.4C447.5,129,447.5,128.8,447.4,128.7z M446.1,128.6
		h-0.1c-0.1,0-0.2,0-0.2,0c-0.1,0-0.3,0-0.4,0.1c-0.1,0.1-0.1,0.2-0.1,0.3c0,0,0.1-0.1,0.2-0.1c0,0,0.1,0,0.2,0c0,0,0.1,0,0.1,0
		c0.1,0,0.2,0,0.2,0.1c0,0,0.1,0.1,0.1,0.1c0,0.1,0.1,0.2,0.1,0.3c0,0.1,0,0.2-0.1,0.2c0,0.1-0.1,0.2-0.1,0.2c0,0-0.1,0.1-0.2,0.1
		c-0.1,0-0.2,0-0.3,0c-0.1,0-0.2,0-0.3,0c-0.1,0-0.2-0.1-0.3-0.1c0,0-0.1-0.1-0.1-0.2c0-0.1-0.1-0.2-0.1-0.4c0-0.1,0-0.3,0.1-0.4
		c0-0.1,0.1-0.2,0.2-0.3c0-0.1,0.1-0.2,0.3-0.2c0.1,0,0.2-0.1,0.4-0.1c0,0,0.1,0,0.2,0.1c0,0,0.1,0,0.1,0V128.6z M445.2,129.4
		c0,0,0,0.1,0,0.2c0,0,0.1,0.1,0.1,0.1h0.1c0,0,0.1,0.1,0.1,0.1l0.1-0.1h0.1c0,0,0.1-0.1,0.1-0.1v-0.2c0,0,0-0.1-0.1-0.1h-0.1
		c0,0-0.1,0-0.1,0c0,0-0.1,0-0.1,0h-0.1V129.4z M455.2,128.9v-0.3c0,0,0.1,0,0.1,0c0,0,0.1,0,0.1-0.1c0,0,0.1,0,0.1-0.1l0.1-0.1h0.4
		v1.4h0.4v0.3h-1.1v-0.3h0.4v-0.9H455.2z M454.5,128.6h-0.1c-0.1,0-0.2,0-0.2,0c-0.1,0-0.3,0-0.4,0.1c-0.1,0.1-0.1,0.2-0.1,0.3
		c0,0,0.1-0.1,0.2-0.1c0,0,0.1,0,0.2,0c0,0,0.1,0,0.1,0c0.1,0,0.2,0,0.2,0.1c0,0,0.1,0.1,0.1,0.1c0,0.1,0.1,0.2,0.1,0.3
		c0,0.1,0,0.2-0.1,0.2c0,0.1-0.1,0.2-0.1,0.2c0,0-0.1,0.1-0.2,0.1c-0.1,0-0.2,0-0.3,0s-0.2,0-0.3,0c-0.1,0-0.2-0.1-0.3-0.1
		c0,0-0.1-0.1-0.1-0.2c0-0.1-0.1-0.2-0.1-0.4c0-0.1,0-0.3,0.1-0.4c0-0.1,0.1-0.2,0.2-0.3c0-0.1,0.1-0.2,0.3-0.2
		c0.1,0,0.2-0.1,0.4-0.1c0,0,0.1,0,0.2,0.1c0,0,0.1,0,0.1,0V128.6z M454.1,129.2L454.1,129.2c-0.1,0-0.2,0-0.2,0c0,0-0.1,0-0.1,0
		h-0.1v0.1c0,0,0,0.1,0,0.2c0,0,0.1,0.1,0.1,0.1h0.1c0,0,0.1,0.1,0.1,0.1l0.1-0.1h0.1c0,0,0.1-0.1,0.1-0.1v-0.2
		C454.2,129.3,454.2,129.3,454.1,129.2z M436.8,128.9c0,0,0.1,0,0.1,0c0.1,0,0.2,0,0.2,0c0.1,0,0.2,0.1,0.2,0.1
		c0.1,0,0.2,0.1,0.2,0.2c0,0,0,0.1,0,0.2c0,0.1,0,0.2,0,0.3c0,0-0.1,0.1-0.1,0.1c-0.1,0-0.2,0.1-0.3,0.1c-0.1,0-0.2,0-0.4,0
		c-0.1,0-0.3,0-0.4,0s-0.2,0-0.2-0.1v-0.4c0.1,0,0.2,0.1,0.3,0.1c0.1,0,0.2,0.1,0.2,0.1c0,0,0.1,0,0.2,0c0,0,0.1-0.1,0.1-0.1
		c0,0,0-0.1,0.1-0.1c0,0,0-0.1,0-0.1l-0.1-0.1c0,0,0-0.1-0.1-0.1s-0.1,0-0.1-0.1c0,0-0.1,0-0.1,0c-0.1,0-0.2,0-0.2,0
		c0,0-0.1,0.1-0.2,0.1v-0.9h1.3v0.3h-0.9L436.8,128.9L436.8,128.9z M431.1,129.3c0,0,0.1,0.1,0.1,0.3c0,0.1-0.1,0.3-0.2,0.4
		c-0.1,0.1-0.3,0.1-0.6,0.1c-0.1,0-0.2,0-0.3-0.1c-0.1,0-0.2-0.1-0.3-0.1c0,0-0.1-0.1-0.1-0.2c0,0,0-0.1,0-0.1c0-0.1,0-0.2,0.1-0.2
		c0-0.1,0.1-0.2,0.3-0.2c-0.1,0-0.2-0.1-0.3-0.1c0-0.1-0.1-0.2-0.1-0.2c0-0.1,0.1-0.3,0.2-0.4s0.3-0.1,0.5-0.1c0.2,0,0.4,0,0.6,0.1
		c0.1,0.1,0.1,0.2,0.1,0.3c0,0.1,0,0.2-0.1,0.2s-0.1,0.1-0.2,0.1C431,129.1,431,129.2,431.1,129.3z M430.7,128.8c0,0,0-0.1-0.1-0.1
		s-0.1-0.1-0.2-0.1h-0.1l-0.1,0.1h-0.1v0.1c0,0,0,0.1,0,0.1c0,0,0.1,0,0.1,0.1c0,0,0.1,0,0.1,0c0,0,0,0.1,0.1,0.1
		C430.6,129,430.7,128.9,430.7,128.8L430.7,128.8z M430.2,129.4c0,0-0.1,0.1-0.1,0.1c0,0.1,0,0.2,0.1,0.2c0.1,0,0.2,0.1,0.3,0.1
		l0.1-0.1h0.1c0,0,0.1,0,0.1-0.1c0,0,0.1,0,0.1-0.1c0,0,0-0.1-0.1-0.1c0,0-0.1,0-0.2-0.1l-0.1-0.1
		C430.4,129.3,430.3,129.3,430.2,129.4C430.2,129.3,430.2,129.3,430.2,129.4z M439.4,129.1c0,0.1,0,0.3,0,0.4c0,0.1-0.1,0.2-0.2,0.3
		c-0.1,0.1-0.2,0.2-0.3,0.2c-0.1,0-0.3,0-0.5,0c0,0-0.1,0-0.1,0h-0.1v-0.3h0.1c0,0,0.1,0,0.2,0c0,0,0.1,0,0.1,0s0.1,0,0.1-0.1
		c0,0,0.1-0.1,0.1-0.1c0,0,0.1-0.1,0.1-0.1c-0.1,0-0.2,0-0.2,0.1c0,0-0.1,0-0.2,0c0,0-0.1,0-0.2,0c0,0-0.1,0-0.1-0.1
		c-0.1,0-0.1-0.1-0.1-0.1c0-0.1-0.1-0.2-0.1-0.3c0-0.2,0.1-0.3,0.2-0.4c0.1-0.1,0.3-0.2,0.5-0.2c0.1,0,0.2,0,0.3,0.1
		c0.1,0,0.2,0.1,0.2,0.1c0.1,0,0.2,0.1,0.2,0.2C439.4,128.8,439.4,128.9,439.4,129.1z M439,128.8c0,0-0.1-0.1-0.1-0.1h-0.1
		c0,0,0-0.1-0.1-0.1c0,0-0.1,0-0.1,0.1h-0.1c0,0-0.1,0.1-0.1,0.1c0,0-0.1,0-0.1,0.1c0,0.1,0,0.1,0.1,0.1c0,0,0,0.1,0.1,0.1
		c0,0,0,0.1,0.1,0.1s0.1,0,0.1,0h0.1c0,0,0.1,0,0.1,0V129C439,128.9,439,128.8,439,128.8z M420.8,129.9c-0.1,0-0.2,0.1-0.3,0.1
		c-0.1,0-0.2,0-0.4,0s-0.3,0-0.4,0c-0.1,0-0.2,0-0.2-0.1v-0.4c0.1,0,0.2,0.1,0.3,0.1c0.1,0,0.2,0.1,0.2,0.1s0.1,0,0.2,0
		c0,0,0.1-0.1,0.1-0.1c0,0,0-0.1,0.1-0.1c0,0,0-0.1,0-0.1l-0.1-0.1c0,0,0-0.1-0.1-0.1s-0.1,0-0.1-0.1c0,0-0.1,0-0.1,0
		c-0.1,0-0.2,0-0.2,0c0,0-0.1,0.1-0.2,0.1v-0.9h1.3v0.3H420v0.3h0.1c0,0,0.1,0,0.1,0c0.1,0,0.2,0,0.2,0c0.1,0,0.2,0.1,0.2,0.1
		c0.1,0,0.2,0.1,0.2,0.2c0,0,0,0.1,0,0.2c0,0.1,0,0.2,0,0.3C420.9,129.8,420.8,129.8,420.8,129.9z M422.3,128.6h-0.9v-0.3h1.4v0.3
		l-0.8,1.4h-0.5L422.3,128.6z M428.9,129.4C428.9,129.3,428.8,129.3,428.9,129.4c-0.1-0.1-0.2-0.1-0.2-0.1c0,0-0.1,0-0.1,0
		c-0.1,0-0.2,0-0.2,0c0,0-0.1,0.1-0.2,0.1v-0.9h1.3v0.3h-0.9v0.3h0.1c0,0,0.1,0,0.1,0c0.1,0,0.2,0,0.2,0c0.1,0,0.2,0.1,0.2,0.1
		c0.1,0,0.2,0.1,0.2,0.2c0,0,0,0.1,0,0.2c0,0.1,0,0.2,0,0.3c0,0-0.1,0.1-0.1,0.1c-0.1,0-0.2,0.1-0.3,0.1c-0.1,0-0.2,0-0.4,0
		c-0.1,0-0.3,0-0.4,0s-0.2,0-0.2-0.1v-0.4c0.1,0,0.2,0.1,0.3,0.1c0.1,0,0.2,0.1,0.2,0.1c0,0,0.1,0,0.2,0c0,0,0.1-0.1,0.1-0.1
		c0,0,0-0.1,0.1-0.1C428.9,129.5,428.9,129.5,428.9,129.4L428.9,129.4z M405.8,128.6H405v0.3h0.1c0,0,0.1,0,0.1,0c0.1,0,0.2,0,0.2,0
		c0.1,0,0.2,0.1,0.2,0.1c0.1,0,0.2,0.1,0.2,0.2c0,0,0,0.1,0,0.2c0,0.1,0,0.2,0,0.3c0,0-0.1,0.1-0.1,0.1c-0.1,0-0.2,0.1-0.3,0.1
		c-0.1,0-0.2,0-0.4,0s-0.3,0-0.4,0c-0.1,0-0.2,0-0.2-0.1v-0.4c0.1,0,0.2,0.1,0.3,0.1c0.1,0,0.2,0.1,0.2,0.1s0.1,0,0.2,0
		c0,0,0.1-0.1,0.1-0.1c0,0,0-0.1,0.1-0.1c0,0,0-0.1,0-0.1l-0.1-0.1c0,0,0-0.1-0.1-0.1s-0.1,0-0.1-0.1c0,0-0.1,0-0.1,0
		c-0.1,0-0.2,0-0.2,0c0,0-0.1,0.1-0.2,0.1v-0.9h1.3V128.6z M404,128.6h-0.9v0.3h0.1c0,0,0.1,0,0.1,0c0.1,0,0.2,0,0.2,0
		c0.1,0,0.2,0.1,0.2,0.1c0.1,0,0.2,0.1,0.2,0.2c0,0,0,0.1,0,0.2c0,0.1,0,0.2,0,0.3c0,0-0.1,0.1-0.1,0.1c-0.1,0-0.2,0.1-0.3,0.1
		c-0.1,0-0.2,0-0.4,0s-0.3,0-0.4,0c-0.1,0-0.2,0-0.2-0.1v-0.4c0.1,0,0.2,0.1,0.3,0.1c0.1,0,0.2,0.1,0.2,0.1c0,0,0.1,0,0.2,0
		c0,0,0.1-0.1,0.1-0.1c0,0,0-0.1,0.1-0.1c0,0,0-0.1,0-0.1l-0.1-0.1c0,0,0-0.1-0.1-0.1c0,0-0.1,0-0.1-0.1c0,0-0.1,0-0.1,0
		c-0.1,0-0.2,0-0.2,0c0,0-0.1,0.1-0.2,0.1v-0.9h1.3V128.6z M414.2,128.4v0.3h-0.1c-0.1,0-0.2,0-0.2,0c-0.1,0-0.3,0-0.4,0.1
		c-0.1,0.1-0.1,0.2-0.1,0.3c0,0,0.1-0.1,0.2-0.1c0,0,0.1,0,0.2,0c0,0,0.1,0,0.1,0c0.1,0,0.2,0,0.2,0.1c0,0,0.1,0.1,0.1,0.1
		c0,0.1,0.1,0.2,0.1,0.3c0,0.1,0,0.2-0.1,0.2c0,0.1-0.1,0.2-0.1,0.2c0,0-0.1,0.1-0.2,0.1c-0.1,0-0.2,0-0.3,0s-0.2,0-0.3,0
		c-0.1,0-0.2-0.1-0.3-0.1c0,0-0.1-0.1-0.1-0.2s-0.1-0.2-0.1-0.4c0-0.1,0-0.3,0.1-0.4c0-0.1,0.1-0.2,0.2-0.3c0-0.1,0.1-0.2,0.3-0.2
		c0.1,0,0.2-0.1,0.4-0.1c0,0,0.1,0,0.2,0.1C414.1,128.4,414.2,128.4,414.2,128.4z M413.8,129.2L413.8,129.2c-0.1,0-0.2,0-0.2,0
		c0,0-0.1,0-0.1,0h-0.1v0.1c0,0,0,0.1,0,0.2c0,0,0.1,0.1,0.1,0.1h0.1c0,0,0.1,0.1,0.1,0.1l0.1-0.1h0.1c0,0,0.1-0.1,0.1-0.1v-0.2
		C413.9,129.3,413.8,129.3,413.8,129.2z M411.8,129.2c0,0-0.1,0-0.1,0c-0.1,0-0.2,0-0.2,0c0,0-0.1,0.1-0.2,0.1v-0.9h1.3v0.3h-0.9
		v0.3h0.1c0,0,0.1,0,0.1,0c0.1,0,0.2,0,0.2,0c0.1,0,0.2,0.1,0.2,0.1c0.1,0,0.2,0.1,0.2,0.2c0,0,0,0.1,0,0.2c0,0.1,0,0.2,0,0.3
		c0,0-0.1,0.1-0.1,0.1c-0.1,0-0.2,0.1-0.3,0.1c-0.1,0-0.2,0-0.4,0c-0.1,0-0.3,0-0.4,0s-0.2,0-0.2-0.1v-0.4c0.1,0,0.2,0.1,0.3,0.1
		c0.1,0,0.2,0.1,0.2,0.1s0.1,0,0.2,0c0,0,0.1-0.1,0.1-0.1c0,0,0-0.1,0.1-0.1c0,0,0-0.1,0-0.1l-0.1-0.1c0,0,0-0.1-0.1-0.1
		C411.9,129.3,411.8,129.3,411.8,129.2z M388.9,128.7c0,0.1,0,0.2-0.1,0.3c0,0-0.1,0.1-0.2,0.1c0,0,0.1,0,0.1,0l0.1,0.1
		c0,0,0.1,0.1,0.1,0.1c0,0,0,0.1,0,0.1c0,0.1,0,0.2,0,0.2c0,0-0.1,0.1-0.2,0.1c0,0-0.1,0.1-0.2,0.1c-0.1,0-0.2,0-0.4,0
		c-0.1,0-0.3,0-0.4,0c-0.1,0-0.2,0-0.3-0.1v-0.4h0.1c0,0,0.1,0.1,0.3,0.1c0.1,0,0.2,0.1,0.2,0.1c0,0,0.1,0,0.1,0
		c0.1,0,0.1,0,0.1-0.1c0,0,0.1,0,0.1-0.1c0,0,0.1,0,0.1-0.1s0-0.1-0.1-0.1c0,0,0-0.1-0.1-0.1s-0.1,0-0.1,0c0,0-0.1,0-0.1,0h-0.1V129
		h0.1c0,0,0.1,0,0.1,0c0,0,0.1,0,0.1-0.1h0.1c0,0,0-0.1,0-0.1v-0.1c0,0-0.1,0-0.1-0.1c0,0-0.1,0-0.1,0h-0.1c-0.1,0-0.2,0-0.3,0
		c-0.1,0-0.2,0.1-0.2,0.1h-0.1v-0.4c0,0,0.1-0.1,0.3-0.1c0.1,0,0.2-0.1,0.4-0.1c0.1,0,0.2,0,0.3,0.1c0.1,0,0.2,0,0.2,0.1
		s0.1,0.1,0.1,0.1C388.9,128.6,388.9,128.7,388.9,128.7z M386.6,129.4C386.6,129.3,386.6,129.3,386.6,129.4
		c-0.1-0.1-0.2-0.1-0.2-0.1c0,0-0.1,0-0.1,0c-0.1,0-0.2,0-0.2,0c0,0-0.1,0.1-0.2,0.1v-0.9h1.3v0.3h-0.9v0.3h0.1c0,0,0.1,0,0.1,0
		c0.1,0,0.2,0,0.2,0c0.1,0,0.2,0.1,0.2,0.1c0.1,0,0.2,0.1,0.2,0.2c0,0,0,0.1,0,0.2c0,0.1,0,0.2,0,0.3c0,0-0.1,0.1-0.1,0.1
		c-0.1,0-0.2,0.1-0.3,0.1c-0.1,0-0.2,0-0.4,0s-0.3,0-0.4,0s-0.2,0-0.2-0.1v-0.4c0.1,0,0.2,0.1,0.3,0.1c0.1,0,0.2,0.1,0.2,0.1
		c0,0,0.1,0,0.2,0c0,0,0.1-0.1,0.1-0.1c0,0,0-0.1,0.1-0.1C386.7,129.5,386.7,129.5,386.6,129.4L386.6,129.4z M397.4,129.6h-0.2v0.4
		h-0.4v-0.4h-0.9v-0.4l0.9-0.9h0.5v0.9h0.2V129.6z M396.8,128.7l-0.6,0.6h0.6V128.7z M395.6,129.4c0,0.1,0,0.2,0,0.3
		c0,0-0.1,0.1-0.1,0.1c-0.1,0-0.2,0.1-0.3,0.1c-0.1,0-0.2,0-0.4,0c-0.1,0-0.3,0-0.4,0c-0.1,0-0.2,0-0.2-0.1v-0.4
		c0.1,0,0.2,0.1,0.3,0.1c0.1,0,0.2,0.1,0.2,0.1c0,0,0.1,0,0.2,0c0,0,0.1-0.1,0.1-0.1c0,0,0-0.1,0.1-0.1c0,0,0-0.1,0-0.1l-0.1-0.1
		c0,0,0-0.1-0.1-0.1s-0.1,0-0.1-0.1c0,0-0.1,0-0.1,0c-0.1,0-0.2,0-0.2,0c0,0-0.1,0.1-0.2,0.1v-0.9h1.3v0.3h-0.9v0.3h0.1
		c0,0,0.1,0,0.1,0c0.1,0,0.2,0,0.2,0c0.1,0,0.2,0.1,0.2,0.1c0.1,0,0.2,0.1,0.2,0.2C395.6,129.3,395.6,129.3,395.6,129.4z
		 M379.3,128.4c0.1,0,0.3-0.1,0.4-0.1c0.2,0,0.4,0,0.5,0.1c0.1,0.1,0.2,0.2,0.2,0.4c0,0.1,0,0.3-0.1,0.4c-0.1,0.1-0.2,0.2-0.3,0.3
		c-0.1,0-0.2,0.1-0.2,0.1c-0.1,0-0.1,0.1-0.1,0.1h0.8v0.3H379v-0.3c0.1,0,0.2-0.1,0.4-0.2c0.1-0.1,0.2-0.2,0.2-0.2
		c0.1-0.1,0.2-0.2,0.2-0.2c0,0,0.1-0.1,0.1-0.2c0,0,0-0.1-0.1-0.1c0,0-0.1-0.1-0.2-0.1s-0.2,0-0.2,0c-0.1,0-0.2,0.1-0.3,0.1v-0.4
		C379.1,128.4,379.2,128.4,379.3,128.4z M378.6,128.6h-0.9v0.3h0.1c0,0,0.1,0,0.1,0c0.1,0,0.2,0,0.2,0c0.1,0,0.2,0.1,0.2,0.1
		c0.1,0,0.2,0.1,0.2,0.2c0,0,0,0.1,0,0.2c0,0.1,0,0.2,0,0.3c0,0-0.1,0.1-0.1,0.1c-0.1,0-0.2,0.1-0.3,0.1c-0.1,0-0.2,0-0.4,0
		c-0.1,0-0.3,0-0.4,0c-0.1,0-0.2,0-0.2-0.1v-0.4c0.1,0,0.2,0.1,0.3,0.1c0.1,0,0.2,0.1,0.2,0.1c0,0,0.1,0,0.2,0c0,0,0.1-0.1,0.1-0.1
		c0,0,0-0.1,0.1-0.1c0,0,0-0.1,0-0.1l-0.1-0.1c0,0,0-0.1-0.1-0.1s-0.1,0-0.1-0.1c0,0-0.1,0-0.1,0c-0.1,0-0.2,0-0.2,0
		c0,0-0.1,0.1-0.2,0.1v-0.9h1.3V128.6z M363.2,130c-0.1,0-0.2,0-0.4,0c-0.1,0-0.2,0-0.3,0c-0.1,0-0.2-0.1-0.3-0.2
		c0,0-0.1-0.1-0.1-0.2c0-0.1,0-0.3,0-0.4c0-0.1,0-0.3,0-0.4c0-0.1,0.1-0.2,0.1-0.3c0.1,0,0.2-0.1,0.3-0.1c0.1,0,0.2-0.1,0.3-0.1
		c0.1,0,0.3,0,0.4,0.1c0.1,0,0.2,0.1,0.2,0.1c0.1,0.1,0.1,0.2,0.1,0.3c0,0.1,0.1,0.2,0.1,0.4c0,0.1,0,0.3-0.1,0.4
		c0,0.1,0,0.2-0.1,0.2C363.3,129.9,363.3,129.9,363.2,130z M363,128.7c0,0-0.1-0.1-0.2-0.1c-0.1,0-0.2,0-0.2,0.1
		c0,0.1-0.1,0.2-0.1,0.4c0,0.2,0,0.4,0.1,0.4c0,0.1,0.1,0.1,0.2,0.1c0.1,0,0.2,0,0.2-0.1c0,0,0.1-0.2,0.1-0.4
		C363.1,129,363.1,128.8,363,128.7z M361.7,128.6h-0.9v0.3h0.1c0,0,0.1,0,0.1,0c0.1,0,0.2,0,0.2,0c0.1,0,0.2,0.1,0.2,0.1
		c0.1,0,0.2,0.1,0.2,0.2c0,0,0,0.1,0,0.2c0,0.1,0,0.2,0,0.3c0,0-0.1,0.1-0.1,0.1c-0.1,0-0.2,0.1-0.3,0.1c-0.1,0-0.2,0-0.4,0
		s-0.3,0-0.4,0s-0.2,0-0.2-0.1v-0.4c0.1,0,0.2,0.1,0.3,0.1c0.1,0,0.2,0.1,0.2,0.1c0,0,0.1,0,0.2,0c0,0,0.1-0.1,0.1-0.1
		c0,0,0-0.1,0.1-0.1c0,0,0-0.1,0-0.1l-0.1-0.1c0,0,0-0.1-0.1-0.1c0,0-0.1,0-0.1-0.1c0,0-0.1,0-0.1,0c-0.1,0-0.2,0-0.2,0
		c0,0-0.1,0.1-0.2,0.1v-0.9h1.3V128.6z M371.6,128.4v1.4h0.4v0.3h-1.1v-0.3h0.4v-0.9h-0.4v-0.3c0,0,0.1,0,0.1,0s0.1,0,0.1-0.1
		c0,0,0.1,0,0.1-0.1l0.1-0.1H371.6z M370.3,128.6h-0.9v0.3h0.1c0,0,0.1,0,0.1,0c0.1,0,0.2,0,0.2,0c0.1,0,0.2,0.1,0.2,0.1
		c0.1,0,0.2,0.1,0.2,0.2c0,0,0,0.1,0,0.2c0,0.1,0,0.2,0,0.3c0,0-0.1,0.1-0.1,0.1c-0.1,0-0.2,0.1-0.3,0.1c-0.1,0-0.2,0-0.4,0
		c-0.1,0-0.3,0-0.4,0c-0.1,0-0.2,0-0.2-0.1v-0.4c0.1,0,0.2,0.1,0.3,0.1c0.1,0,0.2,0.1,0.2,0.1c0,0,0.1,0,0.2,0c0,0,0.1-0.1,0.1-0.1
		c0,0,0-0.1,0.1-0.1c0,0,0-0.1,0-0.1l-0.1-0.1c0,0,0-0.1-0.1-0.1s-0.1,0-0.1-0.1c0,0-0.1,0-0.1,0c-0.1,0-0.2,0-0.2,0
		c0,0-0.1,0.1-0.2,0.1v-0.9h1.3V128.6z M346.2,128.7c0,0.1,0,0.2-0.1,0.2c0,0-0.1,0.1-0.2,0.1c0.1,0,0.2,0.1,0.3,0.2
		c0,0,0.1,0.1,0.1,0.3c0,0.1-0.1,0.3-0.2,0.4c-0.1,0.1-0.3,0.1-0.6,0.1c-0.1,0-0.2,0-0.3-0.1c-0.1,0-0.2-0.1-0.3-0.1
		c0,0-0.1-0.1-0.1-0.2c0,0,0-0.1,0-0.1c0-0.1,0-0.2,0.1-0.2c0-0.1,0.1-0.2,0.3-0.2c-0.1,0-0.2-0.1-0.3-0.1c0-0.1-0.1-0.2-0.1-0.2
		c0-0.1,0.1-0.3,0.2-0.4c0.1-0.1,0.3-0.1,0.5-0.1c0.2,0,0.4,0,0.6,0.1C346.2,128.5,346.2,128.6,346.2,128.7z M345.7,128.6
		c0,0-0.1-0.1-0.2-0.1h-0.1l-0.1,0.1h-0.1v0.1c0,0,0,0.1,0,0.1c0,0,0.1,0,0.1,0.1c0,0,0.1,0,0.1,0c0,0,0,0.1,0.1,0.1
		c0,0,0-0.1,0.1-0.1v-0.1C345.8,128.7,345.8,128.7,345.7,128.6z M345.3,129.4c0,0-0.1,0.1-0.1,0.1c0,0.1,0,0.2,0.1,0.2
		c0.1,0,0.2,0.1,0.3,0.1l0.1-0.1h0.1c0,0,0.1,0,0.1-0.1c0,0,0.1,0,0.1-0.1c0,0,0-0.1-0.1-0.1c0,0-0.1,0-0.2-0.1l-0.1-0.1
		C345.5,129.3,345.4,129.3,345.3,129.4C345.3,129.3,345.3,129.3,345.3,129.4z M344.3,129.3h0.2v0.4h-0.2v0.4h-0.4v-0.4H343v-0.4
		l0.9-0.9h0.5V129.3z M343.9,128.7l-0.6,0.6h0.6V128.7z M354.8,129.1c0,0.1,0,0.3,0,0.4c0,0.1-0.1,0.2-0.2,0.3
		c-0.1,0.1-0.2,0.2-0.3,0.2c-0.1,0-0.3,0-0.5,0c0,0-0.1,0-0.1,0h-0.1v-0.3h0.1c0,0,0.1,0,0.2,0c0,0,0.1,0,0.1,0s0.1,0,0.1-0.1
		c0,0,0.1-0.1,0.1-0.1s0.1-0.1,0.1-0.1c-0.1,0-0.2,0-0.2,0.1c0,0-0.1,0-0.2,0c0,0-0.1,0-0.2,0c0,0-0.1,0-0.1-0.1
		c-0.1,0-0.1-0.1-0.1-0.1c0-0.1-0.1-0.2-0.1-0.3c0-0.2,0.1-0.3,0.2-0.4c0.1-0.1,0.3-0.2,0.5-0.2c0.1,0,0.2,0,0.3,0.1
		c0.1,0,0.2,0.1,0.2,0.1c0.1,0,0.2,0.1,0.2,0.2C354.8,128.8,354.8,128.9,354.8,129.1z M354.3,129c0-0.1,0-0.2,0-0.2
		c0,0-0.1-0.1-0.1-0.1h-0.1c0,0,0-0.1-0.1-0.1c0,0-0.1,0-0.1,0.1h-0.1c0,0-0.1,0.1-0.1,0.1c0,0-0.1,0-0.1,0.1c0,0.1,0,0.1,0.1,0.1
		c0,0,0,0.1,0.1,0.1c0,0,0,0.1,0.1,0.1s0.1,0,0.1,0h0.1c0,0,0.1,0,0.1,0V129z M353.1,129.3v0.4h-0.2v0.4h-0.4v-0.4h-0.9v-0.4
		l0.9-0.9h0.5v0.9H353.1z M352.4,128.7l-0.6,0.6h0.6V128.7z M336.1,128.4v0.9h0.2v0.4h-0.2v0.4h-0.4v-0.4h-0.9v-0.4l0.9-0.9H336.1z
		 M335.6,128.7l-0.6,0.6h0.6V128.7z M329,128.6c-0.1,0-0.3,0-0.4,0.1c-0.1,0.1-0.1,0.2-0.1,0.3c0,0,0.1-0.1,0.2-0.1c0,0,0.1,0,0.2,0
		c0,0,0.1,0,0.1,0c0.1,0,0.2,0,0.2,0.1c0,0,0.1,0.1,0.1,0.1c0,0.1,0.1,0.2,0.1,0.3c0,0.1,0,0.2-0.1,0.2c0,0.1-0.1,0.2-0.1,0.2
		c0,0-0.1,0.1-0.2,0.1c-0.1,0-0.2,0-0.3,0c-0.1,0-0.2,0-0.3,0c-0.1,0-0.2-0.1-0.3-0.1c0,0-0.1-0.1-0.1-0.2s-0.1-0.2-0.1-0.4
		c0-0.1,0-0.3,0.1-0.4c0-0.1,0.1-0.2,0.2-0.3c0-0.1,0.1-0.2,0.3-0.2c0.1,0,0.2-0.1,0.4-0.1c0,0,0.1,0,0.2,0.1c0,0,0.1,0,0.1,0v0.3
		h-0.1C329.1,128.6,329.1,128.6,329,128.6z M329,129.2L329,129.2c-0.1,0-0.2,0-0.2,0c0,0-0.1,0-0.1,0h-0.1v0.1c0,0,0,0.1,0,0.2
		c0,0,0.1,0.1,0.1,0.1h0.1c0,0,0.1,0.1,0.1,0.1l0.1-0.1h0.1c0,0,0.1-0.1,0.1-0.1v-0.2C329,129.3,329,129.3,329,129.2z M336.7,130
		l0.9-1.4h-0.9v-0.3h1.4v0.3l-0.8,1.4H336.7z M694,129.1c0,0.1,0,0.3,0,0.4c0,0.1-0.1,0.2-0.2,0.3c-0.1,0.1-0.2,0.2-0.3,0.2
		c-0.1,0-0.3,0-0.5,0c0,0-0.1,0-0.1,0h-0.1v-0.3h0.1c0,0,0.1,0,0.2,0c0,0,0.1,0,0.1,0c0,0,0.1,0,0.1-0.1c0,0,0.1-0.1,0.1-0.1
		s0.1-0.1,0.1-0.1c-0.1,0-0.2,0-0.2,0.1c0,0-0.1,0-0.2,0c0,0-0.1,0-0.2,0c0,0-0.1,0-0.1-0.1c-0.1,0-0.1-0.1-0.1-0.1
		c0-0.1-0.1-0.2-0.1-0.3c0-0.2,0.1-0.3,0.2-0.4c0.1-0.1,0.3-0.2,0.5-0.2c0.1,0,0.2,0,0.3,0.1c0.1,0,0.2,0.1,0.2,0.1
		c0.1,0,0.2,0.1,0.2,0.2C694,128.8,694,128.9,694,129.1z M693.5,129c0-0.1,0-0.2,0-0.2c0,0-0.1-0.1-0.1-0.1h-0.1c0,0,0-0.1-0.1-0.1
		c0,0-0.1,0-0.1,0.1h-0.1c0,0-0.1,0.1-0.1,0.1c0,0-0.1,0-0.1,0.1c0,0.1,0,0.1,0.1,0.1c0,0,0,0.1,0.1,0.1c0,0,0,0.1,0.1,0.1
		c0,0,0.1,0,0.1,0h0.1c0,0,0.1,0,0.1,0V129z M692.2,129.3c0,0,0.1,0.1,0.1,0.3c0,0.1-0.1,0.3-0.2,0.4c-0.1,0.1-0.3,0.1-0.6,0.1
		c-0.1,0-0.2,0-0.3-0.1c-0.1,0-0.2-0.1-0.3-0.1c0,0-0.1-0.1-0.1-0.2c0,0,0-0.1,0-0.1c0-0.1,0-0.2,0.1-0.2c0-0.1,0.1-0.2,0.3-0.2
		c-0.1,0-0.2-0.1-0.3-0.1c0-0.1-0.1-0.2-0.1-0.2c0-0.1,0.1-0.3,0.2-0.4c0.1-0.1,0.3-0.1,0.5-0.1c0.2,0,0.4,0,0.6,0.1
		c0.1,0.1,0.1,0.2,0.1,0.3c0,0.1,0,0.2-0.1,0.2c0,0-0.1,0.1-0.2,0.1C692,129.1,692.1,129.2,692.2,129.3z M691.8,128.8
		c0,0,0-0.1-0.1-0.1c0,0-0.1-0.1-0.2-0.1h-0.1l-0.1,0.1h-0.1v0.1c0,0,0,0.1,0,0.1c0,0,0.1,0,0.1,0.1c0,0,0.1,0,0.1,0
		c0,0,0,0.1,0.1,0.1C691.7,129,691.7,128.9,691.8,128.8L691.8,128.8z M691.3,129.4c0,0-0.1,0.1-0.1,0.1c0,0.1,0,0.2,0.1,0.2
		c0.1,0,0.2,0.1,0.3,0.1l0.1-0.1h0.1c0,0,0.1,0,0.1-0.1c0,0,0.1,0,0.1-0.1c0,0,0-0.1-0.1-0.1c0,0-0.1,0-0.2-0.1l-0.1-0.1
		C691.4,129.3,691.4,129.3,691.3,129.4C691.3,129.3,691.3,129.3,691.3,129.4z M702.4,129.1c0,0.1,0,0.3-0.1,0.4c0,0.1,0,0.2-0.1,0.2
		c0,0.1-0.1,0.2-0.2,0.2c-0.1,0-0.2,0-0.4,0c-0.1,0-0.2,0-0.3,0c-0.1,0-0.2-0.1-0.3-0.2c0,0-0.1-0.1-0.1-0.2c0-0.1,0-0.3,0-0.4
		c0-0.1,0-0.3,0-0.4c0-0.1,0.1-0.2,0.1-0.3c0.1,0,0.2-0.1,0.3-0.1c0.1,0,0.2-0.1,0.3-0.1c0.1,0,0.3,0,0.4,0.1c0.1,0,0.2,0.1,0.2,0.1
		c0.1,0.1,0.1,0.2,0.1,0.3C702.4,128.9,702.4,129,702.4,129.1z M701.9,128.7c0,0-0.1-0.1-0.2-0.1s-0.2,0-0.2,0.1
		c0,0.1-0.1,0.2-0.1,0.4c0,0.2,0,0.4,0.1,0.4c0,0.1,0.1,0.1,0.2,0.1s0.2,0,0.2-0.1c0,0,0.1-0.2,0.1-0.4
		C701.9,129,701.9,128.8,701.9,128.7z M700.6,128.7c0,0.1,0,0.2,0,0.4c0,0.1,0,0.3,0,0.4c0,0.1-0.1,0.2-0.2,0.3
		c-0.1,0.1-0.2,0.2-0.3,0.2c-0.1,0-0.3,0-0.5,0c0,0-0.1,0-0.1,0h-0.1v-0.3h0.1c0,0,0.1,0,0.2,0c0,0,0.1,0,0.1,0s0.1,0,0.1-0.1
		c0,0,0.1-0.1,0.1-0.1s0.1-0.1,0.1-0.1c-0.1,0-0.2,0-0.2,0.1c0,0-0.1,0-0.2,0c0,0-0.1,0-0.2,0c0,0-0.1,0-0.1-0.1
		c-0.1,0-0.1-0.1-0.1-0.1c0-0.1-0.1-0.2-0.1-0.3c0-0.2,0.1-0.3,0.2-0.4c0.1-0.1,0.3-0.2,0.5-0.2c0.1,0,0.2,0,0.3,0.1
		c0.1,0,0.2,0.1,0.2,0.1C700.5,128.5,700.5,128.6,700.6,128.7z M699.8,128.6L699.8,128.6c-0.1,0-0.1,0.1-0.1,0.1c0,0-0.1,0-0.1,0.1
		c0,0.1,0,0.1,0.1,0.1c0,0,0,0.1,0.1,0.1c0,0,0,0.1,0.1,0.1s0.1,0,0.1,0h0.1c0,0,0.1,0,0.1,0V129c0-0.1,0-0.2,0-0.2
		c0,0-0.1-0.1-0.1-0.1H700C700,128.6,699.9,128.6,699.8,128.6C699.8,128.6,699.8,128.6,699.8,128.6z M677.1,128.6l-0.8,1.4h-0.5
		l0.9-1.4h-0.9v-0.3h1.4V128.6z M675.3,128.7c0,0.1,0,0.2-0.1,0.2s-0.1,0.1-0.2,0.1c0.1,0,0.2,0.1,0.3,0.2c0,0,0.1,0.1,0.1,0.3
		c0,0.1-0.1,0.3-0.2,0.4c-0.1,0.1-0.3,0.1-0.6,0.1c-0.1,0-0.2,0-0.3-0.1c-0.1,0-0.2-0.1-0.3-0.1c0,0-0.1-0.1-0.1-0.2
		c0,0,0-0.1,0-0.1c0-0.1,0-0.2,0.1-0.2c0-0.1,0.1-0.2,0.3-0.2c-0.1,0-0.2-0.1-0.3-0.1c0-0.1-0.1-0.2-0.1-0.2c0-0.1,0.1-0.3,0.2-0.4
		s0.3-0.1,0.5-0.1c0.2,0,0.4,0,0.6,0.1C675.2,128.5,675.3,128.6,675.3,128.7z M674.8,128.8c0,0,0-0.1-0.1-0.1s-0.1-0.1-0.2-0.1h-0.1
		l-0.1,0.1h-0.1v0.1c0,0,0,0.1,0,0.1c0,0,0.1,0,0.1,0.1c0,0,0.1,0,0.1,0c0,0,0,0.1,0.1,0.1C674.8,129,674.8,128.9,674.8,128.8
		L674.8,128.8z M674.6,129.3c0,0-0.1,0-0.1,0s-0.1,0-0.1,0.1c0,0-0.1,0.1-0.1,0.1c0,0.1,0,0.2,0.1,0.2c0.1,0,0.2,0.1,0.3,0.1
		l0.1-0.1h0.1c0,0,0.1,0,0.1-0.1c0,0,0.1,0,0.1-0.1c0,0,0-0.1-0.1-0.1C674.8,129.4,674.7,129.4,674.6,129.3L674.6,129.3z
		 M685.5,129.6c0,0.1-0.1,0.3-0.2,0.4c-0.1,0.1-0.3,0.1-0.6,0.1c-0.1,0-0.2,0-0.3-0.1c-0.1,0-0.2-0.1-0.3-0.1c0,0-0.1-0.1-0.1-0.2
		c0,0,0-0.1,0-0.1c0-0.1,0-0.2,0.1-0.2c0-0.1,0.1-0.2,0.3-0.2c-0.1,0-0.2-0.1-0.3-0.1c0-0.1-0.1-0.2-0.1-0.2c0-0.1,0.1-0.3,0.2-0.4
		c0.1-0.1,0.3-0.1,0.5-0.1c0.2,0,0.4,0,0.6,0.1c0.1,0.1,0.1,0.2,0.1,0.3c0,0.1,0,0.2-0.1,0.2c0,0-0.1,0.1-0.2,0.1
		c0.1,0,0.2,0.1,0.3,0.2C685.5,129.3,685.5,129.4,685.5,129.6z M684.9,128.6c0,0-0.1-0.1-0.2-0.1h-0.1l-0.1,0.1h-0.1v0.1
		c0,0,0,0.1,0,0.1c0,0,0.1,0,0.1,0.1c0,0,0.1,0,0.1,0c0,0,0,0.1,0.1,0.1c0,0,0-0.1,0.1-0.1v-0.1C685,128.7,685,128.7,684.9,128.6z
		 M684.5,129.4c0,0-0.1,0.1-0.1,0.1c0,0.1,0,0.2,0.1,0.2c0.1,0,0.2,0.1,0.3,0.1l0.1-0.1h0.1c0,0,0.1,0,0.1-0.1c0,0,0.1,0,0.1-0.1
		c0,0,0-0.1-0.1-0.1c0,0-0.1,0-0.2-0.1l-0.1-0.1C684.7,129.3,684.6,129.3,684.5,129.4C684.5,129.3,684.5,129.3,684.5,129.4z
		 M683.6,128.9c0,0-0.1,0.1-0.2,0.1c0.1,0,0.2,0.1,0.3,0.2c0,0,0.1,0.1,0.1,0.3c0,0.1-0.1,0.3-0.2,0.4c-0.1,0.1-0.3,0.1-0.6,0.1
		c-0.1,0-0.2,0-0.3-0.1c-0.1,0-0.2-0.1-0.3-0.1c0,0-0.1-0.1-0.1-0.2c0,0,0-0.1,0-0.1c0-0.1,0-0.2,0.1-0.2c0-0.1,0.1-0.2,0.3-0.2
		c-0.1,0-0.2-0.1-0.3-0.1c0-0.1-0.1-0.2-0.1-0.2c0-0.1,0.1-0.3,0.2-0.4c0.1-0.1,0.3-0.1,0.5-0.1c0.2,0,0.4,0,0.6,0.1
		c0.1,0.1,0.1,0.2,0.1,0.3C683.7,128.8,683.6,128.9,683.6,128.9z M683.2,128.6c0,0-0.1-0.1-0.2-0.1h-0.1l-0.1,0.1h-0.1v0.1
		c0,0,0,0.1,0,0.1c0,0,0.1,0,0.1,0.1c0,0,0.1,0,0.1,0c0,0,0,0.1,0.1,0.1c0,0,0-0.1,0.1-0.1v-0.1
		C683.2,128.7,683.2,128.7,683.2,128.6z M682.7,129.4c0,0-0.1,0.1-0.1,0.1c0,0.1,0,0.2,0.1,0.2c0.1,0,0.2,0.1,0.3,0.1l0.1-0.1h0.1
		c0,0,0.1,0,0.1-0.1c0,0,0.1,0,0.1-0.1c0,0,0-0.1-0.1-0.1c0,0-0.1,0-0.2-0.1l-0.1-0.1C682.9,129.3,682.9,129.3,682.7,129.4
		C682.8,129.3,682.7,129.3,682.7,129.4z M666.8,128.7c0,0.1,0,0.2-0.1,0.2c0,0-0.1,0.1-0.2,0.1c0.1,0,0.2,0.1,0.3,0.2
		c0,0,0.1,0.1,0.1,0.3c0,0.1-0.1,0.3-0.2,0.4c-0.1,0.1-0.3,0.1-0.6,0.1c-0.1,0-0.2,0-0.3-0.1c-0.1,0-0.2-0.1-0.3-0.1
		c0,0-0.1-0.1-0.1-0.2c0,0,0-0.1,0-0.1c0-0.1,0-0.2,0.1-0.2c0-0.1,0.1-0.2,0.3-0.2c-0.1,0-0.2-0.1-0.3-0.1c0-0.1-0.1-0.2-0.1-0.2
		c0-0.1,0.1-0.3,0.2-0.4c0.1-0.1,0.3-0.1,0.5-0.1c0.2,0,0.4,0,0.6,0.1C666.8,128.5,666.8,128.6,666.8,128.7z M667.2,128.9
		c0-0.1,0.1-0.2,0.2-0.3c0-0.1,0.1-0.2,0.3-0.2c0.1,0,0.2-0.1,0.4-0.1c0,0,0.1,0,0.2,0.1c0,0,0.1,0,0.1,0v0.3h-0.1
		c-0.1,0-0.2,0-0.2,0c-0.1,0-0.3,0-0.4,0.1c-0.1,0.1-0.1,0.2-0.1,0.3c0,0,0.1-0.1,0.2-0.1c0,0,0.1,0,0.2,0c0,0,0.1,0,0.1,0
		c0.1,0,0.2,0,0.2,0.1s0.1,0.1,0.1,0.1c0,0.1,0.1,0.2,0.1,0.3c0,0.1,0,0.2-0.1,0.2c0,0.1-0.1,0.2-0.1,0.2s-0.1,0.1-0.2,0.1
		c-0.1,0-0.2,0-0.3,0c-0.1,0-0.2,0-0.3,0c-0.1,0-0.2-0.1-0.3-0.1c0,0-0.1-0.1-0.1-0.2c0-0.1-0.1-0.2-0.1-0.4
		C667.2,129.1,667.2,129,667.2,128.9z M666.4,128.8c0,0,0-0.1-0.1-0.1c0,0-0.1-0.1-0.2-0.1H666l-0.1,0.1h-0.1v0.1c0,0,0,0.1,0,0.1
		c0,0,0.1,0,0.1,0.1c0,0,0.1,0,0.1,0c0,0,0,0.1,0.1,0.1C666.3,129,666.3,128.9,666.4,128.8L666.4,128.8z M665.9,129.4
		c0,0-0.1,0.1-0.1,0.1c0,0.1,0,0.2,0.1,0.2c0.1,0,0.2,0.1,0.3,0.1l0.1-0.1h0.1c0,0,0.1,0,0.1-0.1c0,0,0.1,0,0.1-0.1
		c0,0,0-0.1-0.1-0.1c0,0-0.1,0-0.2-0.1l-0.1-0.1C666.1,129.3,666,129.3,665.9,129.4C665.9,129.3,665.9,129.3,665.9,129.4z
		 M667.7,129.4c0,0,0,0.1,0,0.2c0,0,0.1,0.1,0.1,0.1h0.1c0,0,0.1,0.1,0.1,0.1l0.1-0.1h0.1c0,0,0.1-0.1,0.1-0.1v-0.2
		c0,0,0-0.1-0.1-0.1H668c0,0-0.1,0-0.1,0c0,0-0.1,0-0.1,0h-0.1V129.4z M651.2,128.7l-0.6,0.6h0.6V128.7z M651.6,129.3h0.2v0.4h-0.2
		v0.4h-0.4v-0.4h-0.9v-0.4l0.9-0.9h0.5V129.3z M649.5,128.6c0,0-0.1-0.1-0.2-0.1h-0.1l-0.1,0.1H649v0.1c0,0,0,0.1,0,0.1
		c0,0,0.1,0,0.1,0.1c0,0,0.1,0,0.1,0c0,0,0,0.1,0.1,0.1c0,0,0-0.1,0.1-0.1v-0.1C649.5,128.7,649.5,128.7,649.5,128.6z M649.9,128.9
		c0,0-0.1,0.1-0.2,0.1c0.1,0,0.2,0.1,0.3,0.2c0,0,0.1,0.1,0.1,0.3c0,0.1-0.1,0.3-0.2,0.4c-0.1,0.1-0.3,0.1-0.6,0.1
		c-0.1,0-0.2,0-0.3-0.1c-0.1,0-0.2-0.1-0.3-0.1c0,0-0.1-0.1-0.1-0.2c0,0,0-0.1,0-0.1c0-0.1,0-0.2,0.1-0.2c0-0.1,0.1-0.2,0.3-0.2
		c-0.1,0-0.2-0.1-0.3-0.1c0-0.1-0.1-0.2-0.1-0.2c0-0.1,0.1-0.3,0.2-0.4s0.3-0.1,0.5-0.1c0.2,0,0.4,0,0.6,0.1
		c0.1,0.1,0.1,0.2,0.1,0.3C650,128.8,649.9,128.9,649.9,128.9z M649.5,129.6C649.6,129.6,649.6,129.6,649.5,129.6
		c0.1-0.1,0-0.2,0-0.2c0,0-0.1,0-0.2-0.1l-0.1-0.1c0,0-0.1,0-0.1,0c0,0-0.1,0-0.1,0.1c0,0-0.1,0.1-0.1,0.1c0,0.1,0,0.2,0.1,0.2
		c0.1,0,0.2,0.1,0.3,0.1l0.1-0.1L649.5,129.6C649.5,129.7,649.5,129.7,649.5,129.6z M660.1,128.6h-0.9v0.3h0.1c0,0,0.1,0,0.1,0
		c0.1,0,0.2,0,0.2,0c0.1,0,0.2,0.1,0.2,0.1c0.1,0,0.2,0.1,0.2,0.2c0,0,0,0.1,0,0.2c0,0.1,0,0.2,0,0.3c0,0-0.1,0.1-0.1,0.1
		c-0.1,0-0.2,0.1-0.3,0.1c-0.1,0-0.2,0-0.4,0c-0.1,0-0.3,0-0.4,0c-0.1,0-0.2,0-0.2-0.1v-0.4c0.1,0,0.2,0.1,0.3,0.1
		c0.1,0,0.2,0.1,0.2,0.1c0,0,0.1,0,0.2,0c0,0,0.1-0.1,0.1-0.1c0,0,0-0.1,0.1-0.1c0,0,0-0.1,0-0.1l-0.1-0.1c0,0,0-0.1-0.1-0.1
		c0,0-0.1,0-0.1-0.1c0,0-0.1,0-0.1,0c-0.1,0-0.2,0-0.2,0c0,0-0.1,0.1-0.2,0.1v-0.9h1.3V128.6z M658.3,128.7c0,0.1,0,0.2-0.1,0.2
		s-0.1,0.1-0.2,0.1c0.1,0,0.2,0.1,0.3,0.2c0,0,0.1,0.1,0.1,0.3c0,0.1-0.1,0.3-0.2,0.4c-0.1,0.1-0.3,0.1-0.6,0.1
		c-0.1,0-0.2,0-0.3-0.1c-0.1,0-0.2-0.1-0.3-0.1c0,0-0.1-0.1-0.1-0.2c0,0,0-0.1,0-0.1c0-0.1,0-0.2,0.1-0.2c0-0.1,0.1-0.2,0.3-0.2
		c-0.1,0-0.2-0.1-0.3-0.1c0-0.1-0.1-0.2-0.1-0.2c0-0.1,0.1-0.3,0.2-0.4c0.1-0.1,0.3-0.1,0.5-0.1c0.2,0,0.4,0,0.6,0.1
		C658.2,128.5,658.3,128.6,658.3,128.7z M657.5,128.6L657.5,128.6l-0.1,0.1v0.1c0,0,0,0.1,0,0.1c0,0,0.1,0,0.1,0.1c0,0,0.1,0,0.1,0
		c0,0,0,0.1,0.1,0.1c0,0,0-0.1,0.1-0.1v-0.1c0,0,0-0.1-0.1-0.1S657.7,128.6,657.5,128.6L657.5,128.6z M657.6,129.4L657.6,129.4
		c-0.1-0.1-0.2-0.1-0.2-0.1s-0.1,0-0.1,0.1c0,0-0.1,0.1-0.1,0.1c0,0.1,0,0.2,0.1,0.2c0.1,0,0.2,0.1,0.3,0.1l0.1-0.1h0.1
		c0,0,0.1,0,0.1-0.1c0,0,0.1,0,0.1-0.1c0,0,0-0.1-0.1-0.1C657.8,129.4,657.7,129.4,657.6,129.4z M634.5,128.8c0,0.1,0,0.3-0.1,0.4
		c-0.1,0.1-0.2,0.2-0.3,0.3c-0.1,0-0.2,0.1-0.2,0.1c-0.1,0-0.1,0.1-0.1,0.1h0.8v0.3h-1.4v-0.3c0.1,0,0.2-0.1,0.4-0.2
		c0.1-0.1,0.2-0.2,0.2-0.2c0.1-0.1,0.2-0.2,0.2-0.2c0,0,0.1-0.1,0.1-0.2c0,0,0-0.1-0.1-0.1c0,0-0.1-0.1-0.2-0.1s-0.2,0-0.2,0
		c-0.1,0-0.2,0.1-0.3,0.1v-0.4c0,0,0.1-0.1,0.2-0.1c0.1,0,0.3-0.1,0.4-0.1c0.2,0,0.4,0,0.5,0.1C634.4,128.5,634.5,128.6,634.5,128.8
		z M632.4,129.1c0.1,0,0.2,0.1,0.3,0.2c0,0,0.1,0.1,0.1,0.3c0,0.1-0.1,0.3-0.2,0.4c-0.1,0.1-0.3,0.1-0.6,0.1c-0.1,0-0.2,0-0.3-0.1
		c-0.1,0-0.2-0.1-0.3-0.1c0,0-0.1-0.1-0.1-0.2c0,0,0-0.1,0-0.1c0-0.1,0-0.2,0.1-0.2c0-0.1,0.1-0.2,0.3-0.2c-0.1,0-0.2-0.1-0.3-0.1
		c0-0.1-0.1-0.2-0.1-0.2c0-0.1,0.1-0.3,0.2-0.4c0.1-0.1,0.3-0.1,0.5-0.1c0.2,0,0.4,0,0.6,0.1c0.1,0.1,0.1,0.2,0.1,0.3
		c0,0.1,0,0.2-0.1,0.2C632.6,129,632.5,129,632.4,129.1z M632.3,128.8c0,0,0-0.1-0.1-0.1c0,0-0.1-0.1-0.2-0.1h-0.1l-0.1,0.1h-0.1
		v0.1c0,0,0,0.1,0,0.1c0,0,0.1,0,0.1,0.1c0,0,0.1,0,0.1,0c0,0,0,0.1,0.1,0.1C632.2,129,632.2,128.9,632.3,128.8L632.3,128.8z
		 M631.8,129.3C631.8,129.3,631.8,129.3,631.8,129.3c-0.1,0.1-0.1,0.2-0.1,0.2c0,0.1,0,0.2,0.1,0.2c0.1,0,0.2,0.1,0.3,0.1l0.1-0.1
		h0.1c0,0,0.1,0,0.1-0.1c0,0,0.1,0,0.1-0.1c0,0,0-0.1-0.1-0.1c0,0-0.1,0-0.2-0.1l-0.1-0.1C631.9,129.3,631.9,129.3,631.8,129.3z
		 M643.1,128.7c0,0.1,0,0.2-0.1,0.3c0,0-0.1,0.1-0.2,0.1c0,0,0.1,0,0.1,0l0.1,0.1c0,0,0.1,0.1,0.1,0.1c0,0,0,0.1,0,0.1
		c0,0.1,0,0.2,0,0.2c0,0-0.1,0.1-0.2,0.1c0,0-0.1,0.1-0.2,0.1c-0.1,0-0.2,0-0.4,0c-0.1,0-0.3,0-0.4,0s-0.2,0-0.3-0.1v-0.4h0.1
		c0,0,0.1,0.1,0.3,0.1c0.1,0,0.2,0.1,0.2,0.1c0,0,0.1,0,0.1,0c0.1,0,0.1,0,0.1-0.1c0,0,0.1,0,0.1-0.1c0,0,0.1,0,0.1-0.1
		s0-0.1-0.1-0.1c0,0,0-0.1-0.1-0.1c0,0-0.1,0-0.1,0c0,0-0.1,0-0.1,0h-0.1V129h0.1c0,0,0.1,0,0.1,0c0,0,0.1,0,0.1-0.1h0.1
		c0,0,0-0.1,0-0.1v-0.1c0,0-0.1,0-0.1-0.1c0,0-0.1,0-0.1,0h-0.1c-0.1,0-0.2,0-0.3,0c-0.1,0-0.2,0.1-0.2,0.1h-0.1v-0.4
		c0,0,0.1-0.1,0.3-0.1c0.1,0,0.2-0.1,0.4-0.1c0.1,0,0.2,0,0.3,0.1c0.1,0,0.2,0,0.2,0.1c0,0,0.1,0.1,0.1,0.1
		C643,128.6,643.1,128.7,643.1,128.7z M640.9,128.8c0,0,0-0.1-0.1-0.1s-0.1-0.1-0.2-0.1h-0.1l-0.1,0.1h-0.1v0.1c0,0,0,0.1,0,0.1
		c0,0,0.1,0,0.1,0.1c0,0,0.1,0,0.1,0c0,0,0,0.1,0.1,0.1C640.8,129,640.8,128.9,640.9,128.8L640.9,128.8z M640.6,129.3
		c0,0-0.1,0-0.1,0s-0.1,0-0.1,0.1c0,0-0.1,0.1-0.1,0.1c0,0.1,0,0.2,0.1,0.2c0.1,0,0.2,0.1,0.3,0.1l0.1-0.1h0.1c0,0,0.1,0,0.1-0.1
		c0,0,0.1,0,0.1-0.1c0,0,0-0.1-0.1-0.1C640.8,129.4,640.7,129.4,640.6,129.3L640.6,129.3z M641,129.1c0.1,0,0.2,0.1,0.3,0.2
		c0,0,0.1,0.1,0.1,0.3c0,0.1-0.1,0.3-0.2,0.4c-0.1,0.1-0.3,0.1-0.6,0.1c-0.1,0-0.2,0-0.3-0.1c-0.1,0-0.2-0.1-0.3-0.1
		c0,0-0.1-0.1-0.1-0.2c0,0,0-0.1,0-0.1c0-0.1,0-0.2,0.1-0.2c0-0.1,0.1-0.2,0.3-0.2c-0.1,0-0.2-0.1-0.3-0.1c0-0.1-0.1-0.2-0.1-0.2
		c0-0.1,0.1-0.3,0.2-0.4s0.3-0.1,0.5-0.1c0.2,0,0.4,0,0.6,0.1c0.1,0.1,0.1,0.2,0.1,0.3c0,0.1,0,0.2-0.1,0.2S641.1,129,641,129.1z
		 M624.1,128.8c0,0,0-0.1-0.1-0.1c0,0-0.1-0.1-0.2-0.1h-0.1l-0.1,0.1h-0.1v0.1c0,0,0,0.1,0,0.1c0,0,0.1,0,0.1,0.1c0,0,0.1,0,0.1,0
		c0,0,0,0.1,0.1,0.1C624.1,129,624.1,128.9,624.1,128.8L624.1,128.8z M623.7,129.3C623.7,129.3,623.6,129.3,623.7,129.3
		c-0.1,0.1-0.1,0.2-0.1,0.2c0,0.1,0,0.2,0.1,0.2c0.1,0,0.2,0.1,0.3,0.1l0.1-0.1h0.1c0,0,0.1,0,0.1-0.1c0,0,0.1,0,0.1-0.1
		c0,0,0-0.1-0.1-0.1c0,0-0.1,0-0.2-0.1l-0.1-0.1C623.8,129.3,623.8,129.3,623.7,129.3z M623.1,128.8c0-0.1,0.1-0.3,0.2-0.4
		s0.3-0.1,0.5-0.1c0.2,0,0.4,0,0.6,0.1c0.1,0.1,0.1,0.2,0.1,0.3c0,0.1,0,0.2-0.1,0.2c0,0-0.1,0.1-0.2,0.1c0.1,0,0.2,0.1,0.3,0.2
		c0,0,0.1,0.1,0.1,0.3c0,0.1-0.1,0.3-0.2,0.4c-0.1,0.1-0.3,0.1-0.6,0.1c-0.1,0-0.2,0-0.3-0.1c-0.1,0-0.2-0.1-0.3-0.1
		c0,0-0.1-0.1-0.1-0.2c0,0,0-0.1,0-0.1c0-0.1,0-0.2,0.1-0.2c0-0.1,0.1-0.2,0.3-0.2c-0.1,0-0.2-0.1-0.3-0.1
		C623.2,128.9,623.1,128.8,623.1,128.8z M617.7,129.1c0,0.1,0,0.3-0.1,0.4c0,0.1,0,0.2-0.1,0.2c0,0.1-0.1,0.2-0.2,0.2
		c-0.1,0-0.2,0-0.4,0c-0.1,0-0.2,0-0.3,0c-0.1,0-0.2-0.1-0.3-0.2c0,0-0.1-0.1-0.1-0.2c0-0.1,0-0.3,0-0.4c0-0.1,0-0.3,0-0.4
		c0-0.1,0.1-0.2,0.1-0.3c0.1,0,0.2-0.1,0.3-0.1c0.1,0,0.2-0.1,0.3-0.1c0.1,0,0.3,0,0.4,0.1c0.1,0,0.2,0.1,0.2,0.1
		c0.1,0.1,0.1,0.2,0.1,0.3C617.7,128.9,617.7,129,617.7,129.1z M617.2,128.7c0,0-0.1-0.1-0.2-0.1c-0.1,0-0.2,0-0.2,0.1
		c0,0.1-0.1,0.2-0.1,0.4c0,0.2,0,0.4,0.1,0.4c0,0.1,0.1,0.1,0.2,0.1c0.1,0,0.2,0,0.2-0.1c0,0,0.1-0.2,0.1-0.4
		C617.2,129,617.2,128.8,617.2,128.7z M626.3,130h-1.1v-0.3h0.4v-0.9h-0.4v-0.3c0,0,0.1,0,0.1,0c0,0,0.1,0,0.1-0.1
		c0,0,0.1,0,0.1-0.1l0.1-0.1h0.4v1.4h0.4V130z M609,129.1c0,0.1,0,0.3,0,0.4c0,0.1-0.1,0.2-0.2,0.3c-0.1,0.1-0.2,0.2-0.3,0.2
		c-0.1,0-0.3,0-0.5,0c0,0-0.1,0-0.1,0h-0.1v-0.3h0.1c0,0,0.1,0,0.2,0c0,0,0.1,0,0.1,0c0,0,0.1,0,0.1-0.1c0,0,0.1-0.1,0.1-0.1
		c0,0,0.1-0.1,0.1-0.1c-0.1,0-0.2,0-0.2,0.1c0,0-0.1,0-0.2,0c0,0-0.1,0-0.2,0c0,0-0.1,0-0.1-0.1c-0.1,0-0.1-0.1-0.1-0.1
		c0-0.1-0.1-0.2-0.1-0.3c0-0.2,0.1-0.3,0.2-0.4c0.1-0.1,0.3-0.2,0.5-0.2c0.1,0,0.2,0,0.3,0.1c0.1,0,0.2,0.1,0.2,0.1
		c0.1,0,0.2,0.1,0.2,0.2C609,128.8,609,128.9,609,129.1z M608.4,128.6L608.4,128.6c-0.1,0-0.1-0.1-0.1-0.1s-0.1,0-0.1,0.1h-0.1
		c0,0-0.1,0.1-0.1,0.1c0,0-0.1,0-0.1,0.1c0,0.1,0,0.1,0.1,0.1c0,0,0,0.1,0.1,0.1c0,0,0,0.1,0.1,0.1c0,0,0.1,0,0.1,0h0.1
		c0,0,0.1,0,0.1,0V129c0-0.1,0-0.2,0-0.2C608.5,128.7,608.5,128.7,608.4,128.6z M607.2,128.6l-0.8,1.4h-0.5l0.9-1.4h-0.9v-0.3h1.4
		V128.6z M615.9,128.7c0,0.1,0,0.2-0.1,0.2s-0.1,0.1-0.2,0.1c0.1,0,0.2,0.1,0.3,0.2c0,0,0.1,0.1,0.1,0.3c0,0.1-0.1,0.3-0.2,0.4
		c-0.1,0.1-0.3,0.1-0.6,0.1c-0.1,0-0.2,0-0.3-0.1c-0.1,0-0.2-0.1-0.3-0.1c0,0-0.1-0.1-0.1-0.2c0,0,0-0.1,0-0.1c0-0.1,0-0.2,0.1-0.2
		c0-0.1,0.1-0.2,0.3-0.2c-0.1,0-0.2-0.1-0.3-0.1c0-0.1-0.1-0.2-0.1-0.2c0-0.1,0.1-0.3,0.2-0.4s0.3-0.1,0.5-0.1c0.2,0,0.4,0,0.6,0.1
		C615.8,128.5,615.9,128.6,615.9,128.7z M615.4,128.6c0,0-0.1-0.1-0.2-0.1h-0.1l-0.1,0.1H615v0.1c0,0,0,0.1,0,0.1c0,0,0.1,0,0.1,0.1
		c0,0,0.1,0,0.1,0c0,0,0,0.1,0.1,0.1c0,0,0-0.1,0.1-0.1v-0.1C615.5,128.7,615.4,128.7,615.4,128.6z M615.3,129.4L615.3,129.4
		c-0.1-0.1-0.2-0.1-0.2-0.1s-0.1,0-0.1,0.1c0,0-0.1,0.1-0.1,0.1c0,0.1,0,0.2,0.1,0.2c0.1,0,0.2,0.1,0.3,0.1l0.1-0.1h0.1
		c0,0,0.1,0,0.1-0.1c0,0,0.1,0,0.1-0.1c0,0,0-0.1-0.1-0.1C615.4,129.4,615.3,129.4,615.3,129.4z M592.4,128.6l-0.8,1.4h-0.5l0.9-1.4
		H591v-0.3h1.4V128.6z M590.6,128.6l-0.8,1.4h-0.5l0.9-1.4h-0.9v-0.3h1.4V128.6z M600.3,128.8c0,0,0-0.1-0.1-0.1
		c0,0-0.1-0.1-0.2-0.1H600l-0.1,0.1h-0.1v0.1c0,0,0,0.1,0,0.1c0,0,0.1,0,0.1,0.1c0,0,0.1,0,0.1,0c0,0,0,0.1,0.1,0.1
		C600.2,129,600.3,128.9,600.3,128.8L600.3,128.8z M600.7,128.7c0,0.1,0,0.2-0.1,0.2c0,0-0.1,0.1-0.2,0.1c0.1,0,0.2,0.1,0.3,0.2
		c0,0,0.1,0.1,0.1,0.3c0,0.1-0.1,0.3-0.2,0.4c-0.1,0.1-0.3,0.1-0.6,0.1c-0.1,0-0.2,0-0.3-0.1c-0.1,0-0.2-0.1-0.3-0.1
		c0,0-0.1-0.1-0.1-0.2c0,0,0-0.1,0-0.1c0-0.1,0-0.2,0.1-0.2c0-0.1,0.1-0.2,0.3-0.2c-0.1,0-0.2-0.1-0.3-0.1c0-0.1-0.1-0.2-0.1-0.2
		c0-0.1,0.1-0.3,0.2-0.4s0.3-0.1,0.5-0.1c0.2,0,0.4,0,0.6,0.1C600.7,128.5,600.7,128.6,600.7,128.7z M599.9,129.3
		C599.8,129.3,599.8,129.3,599.9,129.3c-0.1,0.1-0.1,0.2-0.1,0.2c0,0.1,0,0.2,0.1,0.2c0.1,0,0.2,0.1,0.3,0.1l0.1-0.1h0.1
		c0,0,0.1,0,0.1-0.1c0,0,0.1,0,0.1-0.1c0,0,0-0.1-0.1-0.1c0,0-0.1,0-0.2-0.1l-0.1-0.1C600,129.3,599.9,129.3,599.9,129.3z
		 M599,128.6l-0.8,1.4h-0.5l0.9-1.4h-0.9v-0.3h1.4V128.6z M580.8,128.4h1.4v0.3l-0.8,1.4h-0.5l0.9-1.4h-0.9V128.4z M575.5,128.6
		h-0.9v0.3h0.1c0,0,0.1,0,0.1,0c0.1,0,0.2,0,0.2,0c0.1,0,0.2,0.1,0.2,0.1c0.1,0,0.2,0.1,0.2,0.2c0,0,0,0.1,0,0.2c0,0.1,0,0.2,0,0.3
		c0,0-0.1,0.1-0.1,0.1c-0.1,0-0.2,0.1-0.3,0.1c-0.1,0-0.2,0-0.4,0c-0.1,0-0.3,0-0.4,0s-0.2,0-0.2-0.1v-0.4c0.1,0,0.2,0.1,0.3,0.1
		c0.1,0,0.2,0.1,0.2,0.1c0,0,0.1,0,0.2,0c0,0,0.1-0.1,0.1-0.1c0,0,0-0.1,0.1-0.1c0,0,0-0.1,0-0.1l-0.1-0.1c0,0,0-0.1-0.1-0.1
		c0,0-0.1,0-0.1-0.1c0,0-0.1,0-0.1,0c-0.1,0-0.2,0-0.2,0c0,0-0.1,0.1-0.2,0.1v-0.9h1.3V128.6z M583.8,128.6c-0.1,0-0.2,0-0.2,0
		c-0.1,0-0.3,0-0.4,0.1c-0.1,0.1-0.1,0.2-0.1,0.3c0,0,0.1-0.1,0.2-0.1c0,0,0.1,0,0.2,0c0,0,0.1,0,0.1,0c0.1,0,0.2,0,0.2,0.1
		s0.1,0.1,0.1,0.1c0,0.1,0.1,0.2,0.1,0.3c0,0.1,0,0.2-0.1,0.2c0,0.1-0.1,0.2-0.1,0.2s-0.1,0.1-0.2,0.1c-0.1,0-0.2,0-0.3,0
		s-0.2,0-0.3,0c-0.1,0-0.2-0.1-0.3-0.1c0,0-0.1-0.1-0.1-0.2c0-0.1-0.1-0.2-0.1-0.4c0-0.1,0-0.3,0.1-0.4c0-0.1,0.1-0.2,0.2-0.3
		c0-0.1,0.1-0.2,0.3-0.2c0.1,0,0.2-0.1,0.4-0.1c0,0,0.1,0,0.2,0.1c0,0,0.1,0,0.1,0v0.3H583.8z M583,129.4c0,0,0,0.1,0,0.2
		c0,0,0.1,0.1,0.1,0.1h0.1c0,0,0.1,0.1,0.1,0.1l0.1-0.1h0.1c0,0,0.1-0.1,0.1-0.1v-0.2c0,0,0-0.1-0.1-0.1h-0.1c0,0-0.1,0-0.1,0
		c0,0-0.1,0-0.1,0H583V129.4z M565.3,128.6l-0.8,1.4H564l0.9-1.4h-0.9v-0.3h1.4V128.6z M566.5,128.7l-0.6,0.6h0.6V128.7z
		 M566.4,128.4h0.5v0.9h0.2v0.4h-0.2v0.4h-0.4v-0.4h-0.9v-0.4L566.4,128.4z M573.7,128.6l-0.8,1.4h-0.5l0.9-1.4h-0.9v-0.3h1.4V128.6
		z M91.2,128.4c0.1-0.1,0.3-0.1,0.5-0.1c0.2,0,0.4,0,0.6,0.1c0.1,0.1,0.1,0.2,0.1,0.3c0,0.1,0,0.2-0.1,0.2c0,0-0.1,0.1-0.2,0.1
		c0.1,0,0.2,0.1,0.3,0.2c0,0,0.1,0.1,0.1,0.3c0,0.1-0.1,0.3-0.2,0.4c-0.1,0.1-0.3,0.1-0.6,0.1c-0.1,0-0.2,0-0.3-0.1
		c-0.1,0-0.2-0.1-0.3-0.1c0,0-0.1-0.1-0.1-0.2c0,0,0-0.1,0-0.1c0-0.1,0-0.2,0.1-0.2c0-0.1,0.1-0.2,0.3-0.2c-0.1,0-0.2-0.1-0.3-0.1
		c0-0.1-0.1-0.2-0.1-0.2C91,128.6,91.1,128.5,91.2,128.4z M89.8,128.4L89.8,128.4l0.4-0.1v1.4h0.4v0.3h-1.1v-0.3h0.4v-0.9h-0.4v-0.3
		c0,0,0.1,0,0.1,0C89.6,128.6,89.7,128.5,89.8,128.4C89.8,128.5,89.8,128.5,89.8,128.4z M84.3,128.6l-0.8,1.4H83l0.9-1.4H83v-0.3
		h1.4V128.6z M98.2,129.7h0.4v-0.9h-0.4v-0.3c0,0,0.1,0,0.1,0c0,0,0.1,0,0.1-0.1c0,0,0.1,0,0.1-0.1l0.1-0.1H99v1.4h0.4v0.3h-1.1
		V129.7z M91.9,128.6c0,0-0.1-0.1-0.2-0.1h-0.1l-0.1,0.1h-0.1v0.1c0,0,0,0.1,0,0.1c0,0,0.1,0,0.1,0.1c0,0,0.1,0,0.1,0
		c0,0,0,0.1,0.1,0.1c0,0,0-0.1,0.1-0.1v-0.1C92,128.7,92,128.7,91.9,128.6z M91.5,129.4c0,0-0.1,0.1-0.1,0.1c0,0.1,0,0.2,0.1,0.2
		c0.1,0,0.2,0.1,0.3,0.1l0.1-0.1h0.1c0,0,0.1,0,0.1-0.1c0,0,0.1,0,0.1-0.1c0,0,0-0.1-0.1-0.1c0,0-0.1,0-0.2-0.1l-0.1-0.1
		C91.7,129.3,91.6,129.3,91.5,129.4C91.5,129.3,91.5,129.3,91.5,129.4z M75.6,128.4v0.3h-0.1c-0.1,0-0.2,0-0.2,0
		c-0.1,0-0.3,0-0.4,0.1c-0.1,0.1-0.1,0.2-0.1,0.3c0,0,0.1-0.1,0.2-0.1c0,0,0.1,0,0.2,0c0,0,0.1,0,0.1,0c0.1,0,0.2,0,0.2,0.1
		c0,0,0.1,0.1,0.1,0.1c0,0.1,0.1,0.2,0.1,0.3c0,0.1,0,0.2-0.1,0.2c0,0.1-0.1,0.2-0.1,0.2c0,0-0.1,0.1-0.2,0.1c-0.1,0-0.2,0-0.3,0
		c-0.1,0-0.2,0-0.3,0c-0.1,0-0.2-0.1-0.3-0.1c0,0-0.1-0.1-0.1-0.2c0-0.1-0.1-0.2-0.1-0.4c0-0.1,0-0.3,0.1-0.4c0-0.1,0.1-0.2,0.2-0.3
		c0-0.1,0.1-0.2,0.3-0.2c0.1,0,0.2-0.1,0.4-0.1c0,0,0.1,0,0.2,0.1C75.5,128.4,75.5,128.4,75.6,128.4z M75.1,129.2L75.1,129.2
		c-0.1,0-0.2,0-0.2,0c0,0-0.1,0-0.1,0h-0.1v0.1c0,0,0,0.1,0,0.2c0,0,0.1,0.1,0.1,0.1h0.1c0,0,0.1,0.1,0.1,0.1l0.1-0.1h0.1
		c0,0,0.1-0.1,0.1-0.1v-0.2C75.2,129.3,75.2,129.3,75.1,129.2z M73.8,129.7v0.3h-1.1v-0.3H73v-0.9h-0.4v-0.3c0,0,0.1,0,0.1,0
		s0.1,0,0.1-0.1c0,0,0.1,0,0.1-0.1l0.1-0.1h0.4v1.4H73.8z M82.5,130h-1.1v-0.3h0.4v-0.9h-0.4v-0.3c0,0,0.1,0,0.1,0
		c0,0,0.1,0,0.1-0.1c0,0,0.1,0,0.1-0.1l0.1-0.1h0.4v1.4h0.4V130z M58.7,129.3v0.4h-0.2v0.4h-0.4v-0.4h-0.9v-0.4l0.9-0.9h0.5v0.9
		H58.7z M58.1,128.7l-0.6,0.6h0.6V128.7z M56.1,128.4h0.4v1.4h0.4v0.3h-1.1v-0.3H56v-0.9h-0.4v-0.3c0,0,0.1,0,0.1,0
		c0,0,0.1,0,0.1-0.1C56,128.5,56,128.5,56.1,128.4L56.1,128.4z M67,128.6h-0.9v0.3h0.1c0,0,0.1,0,0.1,0c0.1,0,0.2,0,0.2,0
		c0.1,0,0.2,0.1,0.2,0.1c0.1,0,0.2,0.1,0.2,0.2c0,0,0,0.1,0,0.2c0,0.1,0,0.2,0,0.3c0,0-0.1,0.1-0.1,0.1c-0.1,0-0.2,0.1-0.3,0.1
		c-0.1,0-0.2,0-0.4,0c-0.1,0-0.3,0-0.4,0s-0.2,0-0.2-0.1v-0.4c0.1,0,0.2,0.1,0.3,0.1c0.1,0,0.2,0.1,0.2,0.1c0,0,0.1,0,0.2,0
		c0,0,0.1-0.1,0.1-0.1c0,0,0-0.1,0.1-0.1c0,0,0-0.1,0-0.1l-0.1-0.1c0,0,0-0.1-0.1-0.1c0,0-0.1,0-0.1-0.1c0,0-0.1,0-0.1,0
		c-0.1,0-0.2,0-0.2,0c0,0-0.1,0.1-0.2,0.1v-0.9H67V128.6z M64.8,128.4v1.4h0.4v0.3H64v-0.3h0.4v-0.9H64v-0.3c0,0,0.1,0,0.1,0
		c0,0,0.1,0,0.1-0.1c0,0,0.1,0,0.1-0.1l0.1-0.1H64.8z M47.8,128.4h0.4v1.4h0.4v0.3h-1.1v-0.3h0.4v-0.9h-0.4v-0.3c0,0,0.1,0,0.1,0
		c0,0,0.1,0,0.1-0.1C47.7,128.5,47.7,128.5,47.8,128.4L47.8,128.4z M41.4,129.4c-0.1,0-0.2,0.1-0.2,0.1c-0.1,0-0.1,0.1-0.1,0.1h0.8
		v0.3h-1.4v-0.3c0.1,0,0.2-0.1,0.4-0.2c0.1-0.1,0.2-0.2,0.2-0.2c0.1-0.1,0.2-0.2,0.2-0.2c0,0,0.1-0.1,0.1-0.2c0,0,0-0.1-0.1-0.1
		c0,0-0.1-0.1-0.2-0.1s-0.2,0-0.2,0c-0.1,0-0.2,0.1-0.3,0.1v-0.4c0,0,0.1-0.1,0.2-0.1c0.1,0,0.3-0.1,0.4-0.1c0.2,0,0.4,0,0.5,0.1
		c0.1,0.1,0.2,0.2,0.2,0.4c0,0.1,0,0.3-0.1,0.4C41.6,129.2,41.5,129.3,41.4,129.4z M50.1,129.1L50.1,129.1c0.1,0.1,0.2,0.2,0.2,0.2
		c0,0,0,0.1,0,0.1c0,0.1,0,0.2,0,0.2c0,0-0.1,0.1-0.2,0.1c0,0-0.1,0.1-0.2,0.1c-0.1,0-0.2,0-0.4,0c-0.1,0-0.3,0-0.4,0
		c-0.1,0-0.2,0-0.3-0.1v-0.4H49c0,0,0.1,0.1,0.3,0.1c0.1,0,0.2,0.1,0.2,0.1c0,0,0.1,0,0.1,0c0.1,0,0.1,0,0.1-0.1c0,0,0.1,0,0.1-0.1
		c0,0,0.1,0,0.1-0.1s0-0.1-0.1-0.1c0,0,0-0.1-0.1-0.1c0,0-0.1,0-0.1,0s-0.1,0-0.1,0h-0.1V129h0.1c0,0,0.1,0,0.1,0s0.1,0,0.1-0.1h0.1
		c0,0,0-0.1,0-0.1v-0.1c0,0-0.1,0-0.1-0.1c0,0-0.1,0-0.1,0h-0.1c-0.1,0-0.2,0-0.3,0c-0.1,0-0.2,0.1-0.2,0.1H49v-0.4
		c0,0,0.1-0.1,0.3-0.1c0.1,0,0.2-0.1,0.4-0.1c0.1,0,0.2,0,0.3,0.1c0.1,0,0.2,0,0.2,0.1c0,0,0.1,0.1,0.1,0.1c0,0,0.1,0.1,0.1,0.1
		c0,0.1,0,0.2-0.1,0.3c0,0-0.1,0.1-0.2,0.1C50,129.1,50.1,129.1,50.1,129.1z M32.3,128.9v-0.3c0,0,0.1,0,0.1,0c0,0,0.1,0,0.1-0.1
		c0,0,0.1,0,0.1-0.1l0.1-0.1H33v1.4h0.4v0.3h-1.1v-0.3h0.4v-0.9H32.3z M30.9,128.4h0.4v1.4h0.4v0.3h-1.1v-0.3h0.4v-0.9h-0.4v-0.3
		c0,0,0.1,0,0.1,0c0,0,0.1,0,0.1-0.1C30.8,128.5,30.8,128.5,30.9,128.4L30.9,128.4z M39.6,128.4v1.4h0.4v0.3h-1.1v-0.3h0.4v-0.9
		h-0.4v-0.3c0,0,0.1,0,0.1,0s0.1,0,0.1-0.1c0,0,0.1,0,0.1-0.1l0.1-0.1H39.6z M15.3,128.5c0.1,0,0.2,0.1,0.2,0.2c0,0.1,0,0.2,0,0.4
		c0,0.1,0,0.3,0,0.4c0,0.1-0.1,0.2-0.2,0.3c-0.1,0.1-0.2,0.2-0.3,0.2c-0.1,0-0.3,0-0.5,0c0,0-0.1,0-0.1,0h-0.1v-0.3h0.1
		c0,0,0.1,0,0.2,0c0,0,0.1,0,0.1,0c0,0,0.1,0,0.1-0.1c0,0,0.1-0.1,0.1-0.1c0,0,0.1-0.1,0.1-0.1c-0.1,0-0.2,0-0.2,0.1
		c0,0-0.1,0-0.2,0c0,0-0.1,0-0.2,0c0,0-0.1,0-0.1-0.1c-0.1,0-0.1-0.1-0.1-0.1c0-0.1-0.1-0.2-0.1-0.3c0-0.2,0.1-0.3,0.2-0.4
		c0.1-0.1,0.3-0.2,0.5-0.2c0.1,0,0.2,0,0.3,0.1C15.1,128.4,15.2,128.5,15.3,128.5z M14.9,128.6L14.9,128.6c-0.1,0-0.1-0.1-0.1-0.1
		s-0.1,0-0.1,0.1h-0.1c0,0-0.1,0.1-0.1,0.1c0,0-0.1,0-0.1,0.1c0,0.1,0,0.1,0.1,0.1c0,0,0,0.1,0.1,0.1c0,0,0,0.1,0.1,0.1
		c0,0,0.1,0,0.1,0h0.1c0,0,0.1,0,0.1,0V129c0-0.1,0-0.2,0-0.2C15,128.7,15,128.7,14.9,128.6z M25.1,129.1c0,0.1,0,0.3-0.1,0.4
		c0,0.1,0,0.2-0.1,0.2c0,0.1-0.1,0.2-0.2,0.2c-0.1,0-0.2,0-0.4,0c-0.1,0-0.2,0-0.3,0c-0.1,0-0.2-0.1-0.3-0.2c0,0-0.1-0.1-0.1-0.2
		c0-0.1,0-0.3,0-0.4c0-0.1,0-0.3,0-0.4c0-0.1,0.1-0.2,0.1-0.3c0.1,0,0.2-0.1,0.3-0.1c0.1,0,0.2-0.1,0.3-0.1c0.1,0,0.3,0,0.4,0.1
		c0.1,0,0.2,0.1,0.2,0.1c0.1,0.1,0.1,0.2,0.1,0.3C25.1,128.9,25.1,129,25.1,129.1z M24,129.1c0,0.2,0,0.4,0.1,0.4
		c0,0.1,0.1,0.1,0.2,0.1c0.1,0,0.2,0,0.2-0.1c0,0,0.1-0.2,0.1-0.4c0-0.2,0-0.3-0.1-0.4c0,0-0.1-0.1-0.2-0.1c-0.1,0-0.2,0-0.2,0.1
		C24,128.8,24,129,24,129.1z M23.2,130H22v-0.3h0.4v-0.9H22v-0.3c0,0,0.1,0,0.1,0c0,0,0.1,0,0.1-0.1c0,0,0.1,0,0.1-0.1l0.1-0.1h0.4
		v1.4h0.4V130z M6.9,129.6c0,0.1-0.1,0.3-0.2,0.4c-0.1,0.1-0.3,0.1-0.6,0.1c-0.1,0-0.2,0-0.3-0.1c-0.1,0-0.2-0.1-0.3-0.1
		c0,0-0.1-0.1-0.1-0.2c0,0,0-0.1,0-0.1c0-0.1,0-0.2,0.1-0.2c0-0.1,0.1-0.2,0.3-0.2c-0.1,0-0.2-0.1-0.3-0.1c0-0.1-0.1-0.2-0.1-0.2
		c0-0.1,0.1-0.3,0.2-0.4c0.1-0.1,0.3-0.1,0.5-0.1c0.2,0,0.4,0,0.6,0.1c0.1,0.1,0.1,0.2,0.1,0.3c0,0.1,0,0.2-0.1,0.2
		s-0.1,0.1-0.2,0.1c0.1,0,0.2,0.1,0.3,0.2C6.9,129.3,6.9,129.4,6.9,129.6z M6.5,128.8c0,0,0-0.1-0.1-0.1c0,0-0.1-0.1-0.2-0.1H6.1
		L6,128.6H6v0.1c0,0,0,0.1,0,0.1c0,0,0.1,0,0.1,0.1c0,0,0.1,0,0.1,0c0,0,0,0.1,0.1,0.1C6.4,129,6.4,128.9,6.5,128.8L6.5,128.8z
		 M6,129.4c0,0-0.1,0.1-0.1,0.1c0,0.1,0,0.2,0.1,0.2c0.1,0,0.2,0.1,0.3,0.1l0.1-0.1h0.1c0,0,0.1,0,0.1-0.1c0,0,0.1,0,0.1-0.1
		c0,0,0-0.1-0.1-0.1c0,0-0.1,0-0.2-0.1l-0.1-0.1C6.1,129.3,6.1,129.3,6,129.4C6,129.3,6,129.3,6,129.4z M321,129.4
		c0,0.1,0,0.2,0,0.3c0,0-0.1,0.1-0.1,0.1c-0.1,0-0.2,0.1-0.3,0.1c-0.1,0-0.2,0-0.4,0c-0.1,0-0.3,0-0.4,0c-0.1,0-0.2,0-0.2-0.1v-0.4
		c0.1,0,0.2,0.1,0.3,0.1c0.1,0,0.2,0.1,0.2,0.1c0,0,0.1,0,0.2,0c0,0,0.1-0.1,0.1-0.1c0,0,0-0.1,0.1-0.1c0,0,0-0.1,0-0.1l-0.1-0.1
		c0,0,0-0.1-0.1-0.1s-0.1,0-0.1-0.1c0,0-0.1,0-0.1,0c-0.1,0-0.2,0-0.2,0c0,0-0.1,0.1-0.2,0.1v-0.9h1.3v0.3h-0.9v0.3h0.1
		c0,0,0.1,0,0.1,0c0.1,0,0.2,0,0.2,0c0.1,0,0.2,0.1,0.2,0.1c0.1,0,0.2,0.1,0.2,0.2C321,129.3,321,129.3,321,129.4z M319.3,129.3v0.4
		h-0.2v0.4h-0.4v-0.4h-0.9v-0.4l0.9-0.9h0.5v0.9H319.3z M318.6,128.7l-0.6,0.6h0.6V128.7z M327.5,129.3h0.2v0.4h-0.2v0.4h-0.4v-0.4
		h-0.9v-0.4l0.9-0.9h0.5V129.3z M327.1,129.3v-0.6l-0.6,0.6H327.1z M304.3,128.7c0,0.1,0,0.2-0.1,0.3c0,0-0.1,0.1-0.2,0.1
		c0,0,0.1,0,0.1,0l0.1,0.1c0,0,0.1,0.1,0.1,0.1c0,0,0,0.1,0,0.1c0,0.1,0,0.2,0,0.2c0,0-0.1,0.1-0.2,0.1c0,0-0.1,0.1-0.2,0.1
		c-0.1,0-0.2,0-0.4,0c-0.1,0-0.3,0-0.4,0c-0.1,0-0.2,0-0.3-0.1v-0.4h0.1c0,0,0.1,0.1,0.3,0.1c0.1,0,0.2,0.1,0.2,0.1c0,0,0.1,0,0.1,0
		c0.1,0,0.1,0,0.1-0.1c0,0,0.1,0,0.1-0.1c0,0,0.1,0,0.1-0.1s0-0.1-0.1-0.1c0,0,0-0.1-0.1-0.1c0,0-0.1,0-0.1,0s-0.1,0-0.1,0h-0.1V129
		h0.1c0,0,0.1,0,0.1,0s0.1,0,0.1-0.1h0.1c0,0,0-0.1,0-0.1v-0.1c0,0-0.1,0-0.1-0.1c0,0-0.1,0-0.1,0h-0.1c-0.1,0-0.2,0-0.3,0
		c-0.1,0-0.2,0.1-0.2,0.1h-0.1v-0.4c0,0,0.1-0.1,0.3-0.1c0.1,0,0.2-0.1,0.4-0.1c0.1,0,0.2,0,0.3,0.1c0.1,0,0.2,0,0.2,0.1
		c0,0,0.1,0.1,0.1,0.1C304.3,128.6,304.3,128.7,304.3,128.7z M302.6,129.3v0.4h-0.2v0.4h-0.4v-0.4H301v-0.4l0.9-0.9h0.5v0.9H302.6z
		 M301.9,128.7l-0.6,0.6h0.6V128.7z M312.7,129.3v0.4h-0.2v0.4h-0.4v-0.4h-0.9v-0.4l0.9-0.9h0.5v0.9H312.7z M312.1,128.7l-0.6,0.6
		h0.6V128.7z M311,129.6h-0.2v0.4h-0.4v-0.4h-0.9v-0.4l0.9-0.9h0.5v0.9h0.2V129.6z M310.3,128.7l-0.6,0.6h0.6V128.7z M292.5,129.3
		l0.9-0.9h0.5v0.9h0.2v0.4h-0.2v0.4h-0.4v-0.4h-0.9V129.3z M286.6,128.4h0.4v1.4h0.4v0.3h-1.1v-0.3h0.4v-0.9h-0.4v-0.3
		c0,0,0.1,0,0.1,0c0,0,0.1,0,0.1-0.1C286.5,128.5,286.5,128.5,286.6,128.4L286.6,128.4z M295.7,129.1c-0.1,0.1-0.2,0.2-0.3,0.3
		c-0.1,0-0.2,0.1-0.2,0.1c-0.1,0-0.1,0.1-0.1,0.1h0.8v0.3h-1.4v-0.3c0.1,0,0.2-0.1,0.4-0.2c0.1-0.1,0.2-0.2,0.2-0.2
		c0.1-0.1,0.2-0.2,0.2-0.2c0,0,0.1-0.1,0.1-0.2c0,0,0-0.1-0.1-0.1c0,0-0.1-0.1-0.2-0.1c-0.1,0-0.2,0-0.2,0c-0.1,0-0.2,0.1-0.3,0.1
		v-0.4c0,0,0.1-0.1,0.2-0.1c0.1,0,0.3-0.1,0.4-0.1c0.2,0,0.4,0,0.5,0.1c0.1,0.1,0.2,0.2,0.2,0.4C295.8,128.9,295.8,129,295.7,129.1z
		 M293.5,128.7l-0.6,0.6h0.6V128.7z M278.1,128.8c0-0.1,0.1-0.2,0.1-0.3c0.1,0,0.2-0.1,0.3-0.1c0.1,0,0.2-0.1,0.3-0.1
		c0.1,0,0.3,0,0.4,0.1c0.1,0,0.2,0.1,0.2,0.1c0.1,0.1,0.1,0.2,0.1,0.3c0,0.1,0.1,0.2,0.1,0.4c0,0.1,0,0.3-0.1,0.4
		c0,0.1,0,0.2-0.1,0.2c0,0.1-0.1,0.2-0.2,0.2c-0.1,0-0.2,0-0.4,0c-0.1,0-0.2,0-0.3,0c-0.1,0-0.2-0.1-0.3-0.2c0,0-0.1-0.1-0.1-0.2
		c0-0.1,0-0.3,0-0.4C278.1,129,278.1,128.9,278.1,128.8z M277.6,128.4v0.9h0.2v0.4h-0.2v0.4h-0.4v-0.4h-0.9v-0.4l0.9-0.9H277.6z
		 M277.2,128.7l-0.6,0.6h0.6V128.7z M285.6,129.3v0.4h-0.2v0.4H285v-0.4h-0.9v-0.4l0.9-0.9h0.5v0.9H285.6z M285,128.7l-0.6,0.6h0.6
		V128.7z M278.8,128.6c-0.1,0-0.2,0-0.2,0.1c0,0.1-0.1,0.2-0.1,0.4c0,0.2,0,0.4,0.1,0.4c0,0.1,0.1,0.1,0.2,0.1s0.2,0,0.2-0.1
		c0,0,0.1-0.2,0.1-0.4c0-0.2,0-0.3-0.1-0.4C279,128.7,278.9,128.6,278.8,128.6z M262.5,129.9c-0.1,0.1-0.3,0.1-0.6,0.1
		c-0.1,0-0.2,0-0.3-0.1c-0.1,0-0.2-0.1-0.3-0.1c0,0-0.1-0.1-0.1-0.2c0,0,0-0.1,0-0.1c0-0.1,0-0.2,0.1-0.2c0-0.1,0.1-0.2,0.3-0.2
		c-0.1,0-0.2-0.1-0.3-0.1c0-0.1-0.1-0.2-0.1-0.2c0-0.1,0.1-0.3,0.2-0.4c0.1-0.1,0.3-0.1,0.5-0.1c0.2,0,0.4,0,0.6,0.1
		c0.1,0.1,0.1,0.2,0.1,0.3c0,0.1,0,0.2-0.1,0.2c0,0-0.1,0.1-0.2,0.1c0.1,0,0.2,0.1,0.3,0.2c0,0,0.1,0.1,0.1,0.3
		C262.7,129.7,262.6,129.8,262.5,129.9z M262.2,128.8c0,0,0-0.1-0.1-0.1c0,0-0.1-0.1-0.2-0.1h-0.1l-0.1,0.1h-0.1v0.1
		c0,0,0,0.1,0,0.1c0,0,0.1,0,0.1,0.1c0,0,0.1,0,0.1,0c0,0,0,0.1,0.1,0.1C262.1,129,262.1,128.9,262.2,128.8L262.2,128.8z
		 M261.7,129.3C261.7,129.3,261.7,129.3,261.7,129.3c-0.1,0.1-0.1,0.2-0.1,0.2c0,0.1,0,0.2,0.1,0.2c0.1,0,0.2,0.1,0.3,0.1l0.1-0.1
		h0.1c0,0,0.1,0,0.1-0.1c0,0,0.1,0,0.1-0.1c0,0,0-0.1-0.1-0.1c0,0-0.1,0-0.2-0.1l-0.1-0.1C261.8,129.3,261.8,129.3,261.7,129.3z
		 M260.7,129.2c0,0,0.1,0.1,0.1,0.1c0,0,0,0.1,0,0.1c0,0.1,0,0.2,0,0.2c0,0-0.1,0.1-0.2,0.1c0,0-0.1,0.1-0.2,0.1c-0.1,0-0.2,0-0.4,0
		c-0.1,0-0.3,0-0.4,0c-0.1,0-0.2,0-0.3-0.1v-0.4h0.1c0,0,0.1,0.1,0.3,0.1c0.1,0,0.2,0.1,0.2,0.1c0,0,0.1,0,0.1,0
		c0.1,0,0.1,0,0.1-0.1c0,0,0.1,0,0.1-0.1c0,0,0.1,0,0.1-0.1s0-0.1-0.1-0.1c0,0,0-0.1-0.1-0.1c0,0-0.1,0-0.1,0s-0.1,0-0.1,0h-0.1V129
		h0.1c0,0,0.1,0,0.1,0s0.1,0,0.1-0.1h0.1c0,0,0-0.1,0-0.1v-0.1c0,0-0.1,0-0.1-0.1c0,0-0.1,0-0.1,0H260c-0.1,0-0.2,0-0.3,0
		c-0.1,0-0.2,0.1-0.2,0.1h-0.1v-0.4c0,0,0.1-0.1,0.3-0.1c0.1,0,0.2-0.1,0.4-0.1c0.1,0,0.2,0,0.3,0.1c0.1,0,0.2,0,0.2,0.1
		c0,0,0.1,0.1,0.1,0.1c0,0,0.1,0.1,0.1,0.1c0,0.1,0,0.2-0.1,0.3c0,0-0.1,0.1-0.2,0.1C260.5,129.1,260.6,129.1,260.7,129.2
		L260.7,129.2z M271.1,128.7c0,0.1,0,0.2,0,0.4c0,0.1,0,0.3,0,0.4c0,0.1-0.1,0.2-0.2,0.3c-0.1,0.1-0.2,0.2-0.3,0.2
		c-0.1,0-0.3,0-0.5,0c0,0-0.1,0-0.1,0h-0.1v-0.3h0.1c0,0,0.1,0,0.2,0c0,0,0.1,0,0.1,0c0,0,0.1,0,0.1-0.1c0,0,0.1-0.1,0.1-0.1
		c0,0,0.1-0.1,0.1-0.1c-0.1,0-0.2,0-0.2,0.1c0,0-0.1,0-0.2,0c0,0-0.1,0-0.2,0c0,0-0.1,0-0.1-0.1c-0.1,0-0.1-0.1-0.1-0.1
		c0-0.1-0.1-0.2-0.1-0.3c0-0.2,0.1-0.3,0.2-0.4c0.1-0.1,0.3-0.2,0.5-0.2c0.1,0,0.2,0,0.3,0.1c0.1,0,0.2,0.1,0.2,0.1
		C271,128.5,271.1,128.6,271.1,128.7z M270.5,128.6C270.5,128.6,270.5,128.6,270.5,128.6c-0.1-0.1-0.1,0-0.1,0h-0.1
		c0,0-0.1,0.1-0.1,0.1c0,0-0.1,0-0.1,0.1c0,0.1,0,0.1,0.1,0.1c0,0,0,0.1,0.1,0.1c0,0,0,0.1,0.1,0.1c0,0,0.1,0,0.1,0h0.1
		c0,0,0.1,0,0.1,0V129c0-0.1,0-0.2,0-0.2C270.7,128.7,270.6,128.7,270.5,128.6L270.5,128.6z M269.4,128.7c0,0.1,0,0.2-0.1,0.3
		c0,0-0.1,0.1-0.2,0.1c0,0,0.1,0,0.1,0l0.1,0.1c0,0,0.1,0.1,0.1,0.1c0,0,0,0.1,0,0.1c0,0.1,0,0.2,0,0.2c0,0-0.1,0.1-0.2,0.1
		c0,0-0.1,0.1-0.2,0.1c-0.1,0-0.2,0-0.4,0s-0.3,0-0.4,0c-0.1,0-0.2,0-0.3-0.1v-0.4h0.1c0,0,0.1,0.1,0.3,0.1c0.1,0,0.2,0.1,0.2,0.1
		c0,0,0.1,0,0.1,0c0.1,0,0.1,0,0.1-0.1c0,0,0.1,0,0.1-0.1c0,0,0.1,0,0.1-0.1s0-0.1-0.1-0.1c0,0,0-0.1-0.1-0.1c0,0-0.1,0-0.1,0
		s-0.1,0-0.1,0h-0.1V129h0.1c0,0,0.1,0,0.1,0s0.1,0,0.1-0.1h0.1c0,0,0-0.1,0-0.1v-0.1c0,0-0.1,0-0.1-0.1c0,0-0.1,0-0.1,0h-0.1
		c-0.1,0-0.2,0-0.3,0c-0.1,0-0.2,0.1-0.2,0.1H268v-0.4c0,0,0.1-0.1,0.3-0.1c0.1,0,0.2-0.1,0.4-0.1c0.1,0,0.2,0,0.3,0.1
		c0.1,0,0.2,0,0.2,0.1c0,0,0.1,0.1,0.1,0.1C269.3,128.6,269.4,128.7,269.4,128.7z M245.4,128.6c-0.1,0-0.2,0-0.2,0
		c-0.1,0-0.3,0-0.4,0.1c-0.1,0.1-0.1,0.2-0.1,0.3c0,0,0.1-0.1,0.2-0.1c0,0,0.1,0,0.2,0c0,0,0.1,0,0.1,0c0.1,0,0.2,0,0.2,0.1
		c0,0,0.1,0.1,0.1,0.1c0,0.1,0.1,0.2,0.1,0.3c0,0.1,0,0.2-0.1,0.2c0,0.1-0.1,0.2-0.1,0.2c0,0-0.1,0.1-0.2,0.1c-0.1,0-0.2,0-0.3,0
		c-0.1,0-0.2,0-0.3,0c-0.1,0-0.2-0.1-0.3-0.1c0,0-0.1-0.1-0.1-0.2c0-0.1-0.1-0.2-0.1-0.4c0-0.1,0-0.3,0.1-0.4c0-0.1,0.1-0.2,0.2-0.3
		c0-0.1,0.1-0.2,0.3-0.2c0.1,0,0.2-0.1,0.4-0.1c0,0,0.1,0,0.2,0.1c0,0,0.1,0,0.1,0v0.3H245.4z M244.7,129.4c0,0,0,0.1,0,0.2
		c0,0,0.1,0.1,0.1,0.1h0.1c0,0,0.1,0.1,0.1,0.1l0.1-0.1h0.1c0,0,0.1-0.1,0.1-0.1v-0.2c0,0,0-0.1-0.1-0.1H245c0,0-0.1,0-0.1,0
		c0,0-0.1,0-0.1,0h-0.1V129.4z M243.8,129.4c0,0,0,0.1,0,0.1c0,0.1,0,0.2,0,0.2c0,0-0.1,0.1-0.2,0.1c0,0-0.1,0.1-0.2,0.1
		c-0.1,0-0.2,0-0.4,0c-0.1,0-0.3,0-0.4,0c-0.1,0-0.2,0-0.3-0.1v-0.4h0.1c0,0,0.1,0.1,0.3,0.1c0.1,0,0.2,0.1,0.2,0.1c0,0,0.1,0,0.1,0
		c0.1,0,0.1,0,0.1-0.1c0,0,0.1,0,0.1-0.1c0,0,0.1,0,0.1-0.1s0-0.1-0.1-0.1c0,0,0-0.1-0.1-0.1s-0.1,0-0.1,0c0,0-0.1,0-0.1,0h-0.1V129
		h0.1c0,0,0.1,0,0.1,0c0,0,0.1,0,0.1-0.1h0.1c0,0,0-0.1,0-0.1v-0.1c0,0-0.1,0-0.1-0.1c0,0-0.1,0-0.1,0H243c-0.1,0-0.2,0-0.3,0
		c-0.1,0-0.2,0.1-0.2,0.1h-0.1v-0.4c0,0,0.1-0.1,0.3-0.1c0.1,0,0.2-0.1,0.4-0.1c0.1,0,0.2,0,0.3,0.1c0.1,0,0.2,0,0.2,0.1
		c0,0,0.1,0.1,0.1,0.1c0,0,0.1,0.1,0.1,0.1c0,0.1,0,0.2-0.1,0.3c0,0-0.1,0.1-0.2,0.1c0,0,0.1,0,0.1,0l0.1,0.1
		C243.7,129.3,243.8,129.3,243.8,129.4z M254.2,128.6l-0.8,1.4h-0.5l0.9-1.4h-0.9v-0.3h1.4V128.6z M252.2,128.4c0,0,0.1,0.1,0.1,0.1
		c0,0,0.1,0.1,0.1,0.1c0,0.1,0,0.2-0.1,0.3c0,0-0.1,0.1-0.2,0.1c0,0,0.1,0,0.1,0l0.1,0.1c0,0,0.1,0.1,0.1,0.1c0,0,0,0.1,0,0.1
		c0,0.1,0,0.2,0,0.2c0,0-0.1,0.1-0.2,0.1c0,0-0.1,0.1-0.2,0.1c-0.1,0-0.2,0-0.4,0c-0.1,0-0.3,0-0.4,0c-0.1,0-0.2,0-0.3-0.1v-0.4h0.1
		c0,0,0.1,0.1,0.3,0.1c0.1,0,0.2,0.1,0.2,0.1c0,0,0.1,0,0.1,0c0.1,0,0.1,0,0.1-0.1c0,0,0.1,0,0.1-0.1c0,0,0.1,0,0.1-0.1
		s0-0.1-0.1-0.1c0,0,0-0.1-0.1-0.1c0,0-0.1,0-0.1,0c0,0-0.1,0-0.1,0h-0.1V129h0.1c0,0,0.1,0,0.1,0c0,0,0.1,0,0.1-0.1h0.1
		c0,0,0-0.1,0-0.1v-0.1c0,0-0.1,0-0.1-0.1c0,0-0.1,0-0.1,0h-0.1c-0.1,0-0.2,0-0.3,0c-0.1,0-0.2,0.1-0.2,0.1h-0.1v-0.4
		c0,0,0.1-0.1,0.3-0.1c0.1,0,0.2-0.1,0.4-0.1c0.1,0,0.2,0,0.3,0.1C252.1,128.4,252.2,128.4,252.2,128.4z M235.3,128.6
		c0,0,0.1,0.1,0.1,0.1c0,0.1,0,0.2-0.1,0.3c0,0-0.1,0.1-0.2,0.1c0,0,0.1,0,0.1,0l0.1,0.1c0,0,0.1,0.1,0.1,0.1c0,0,0,0.1,0,0.1
		c0,0.1,0,0.2,0,0.2c0,0-0.1,0.1-0.2,0.1c0,0-0.1,0.1-0.2,0.1c-0.1,0-0.2,0-0.4,0c-0.1,0-0.3,0-0.4,0c-0.1,0-0.2,0-0.3-0.1v-0.4h0.1
		c0,0,0.1,0.1,0.3,0.1c0.1,0,0.2,0.1,0.2,0.1c0,0,0.1,0,0.1,0c0.1,0,0.1,0,0.1-0.1c0,0,0.1,0,0.1-0.1c0,0,0.1,0,0.1-0.1
		s0-0.1-0.1-0.1c0,0,0-0.1-0.1-0.1c0,0-0.1,0-0.1,0c0,0-0.1,0-0.1,0h-0.1V129h0.1c0,0,0.1,0,0.1,0c0,0,0.1,0,0.1-0.1h0.1
		c0,0,0-0.1,0-0.1v-0.1c0,0-0.1,0-0.1-0.1c0,0-0.1,0-0.1,0h-0.1c-0.1,0-0.2,0-0.3,0c-0.1,0-0.2,0.1-0.2,0.1H234v-0.4
		c0,0,0.1-0.1,0.3-0.1c0.1,0,0.2-0.1,0.4-0.1c0.1,0,0.2,0,0.3,0.1c0.1,0,0.2,0,0.2,0.1C235.2,128.5,235.2,128.5,235.3,128.6z
		 M228.5,129.6v0.4h-0.4v-0.4h-0.9v-0.4l0.9-0.9h0.5v0.9h0.2v0.4H228.5z M237.1,128.6h-0.9v0.3h0.1c0,0,0.1,0,0.1,0
		c0.1,0,0.2,0,0.2,0c0.1,0,0.2,0.1,0.2,0.1c0.1,0,0.2,0.1,0.2,0.2c0,0,0,0.1,0,0.2c0,0.1,0,0.2,0,0.3c0,0-0.1,0.1-0.1,0.1
		c-0.1,0-0.2,0.1-0.3,0.1c-0.1,0-0.2,0-0.4,0c-0.1,0-0.3,0-0.4,0c-0.1,0-0.2,0-0.2-0.1v-0.4c0.1,0,0.2,0.1,0.3,0.1
		c0.1,0,0.2,0.1,0.2,0.1c0,0,0.1,0,0.2,0c0,0,0.1-0.1,0.1-0.1c0,0,0-0.1,0.1-0.1c0,0,0-0.1,0-0.1l-0.1-0.1c0,0,0-0.1-0.1-0.1
		c0,0-0.1,0-0.1-0.1c0,0-0.1,0-0.1,0c-0.1,0-0.2,0-0.2,0c0,0-0.1,0.1-0.2,0.1v-0.9h1.3V128.6z M220.2,129.4c0,0,0,0.1,0,0.1
		c0,0.1,0,0.2,0,0.2c0,0-0.1,0.1-0.2,0.1c0,0-0.1,0.1-0.2,0.1c-0.1,0-0.2,0-0.4,0c-0.1,0-0.3,0-0.4,0s-0.2,0-0.3-0.1v-0.4h0.1
		c0,0,0.1,0.1,0.3,0.1c0.1,0,0.2,0.1,0.2,0.1c0,0,0.1,0,0.1,0c0.1,0,0.1,0,0.1-0.1c0,0,0.1,0,0.1-0.1c0,0,0.1,0,0.1-0.1
		s0-0.1-0.1-0.1c0,0,0-0.1-0.1-0.1s-0.1,0-0.1,0c0,0-0.1,0-0.1,0h-0.1V129h0.1c0,0,0.1,0,0.1,0c0,0,0.1,0,0.1-0.1h0.1
		c0,0,0-0.1,0-0.1v-0.1c0,0-0.1,0-0.1-0.1c0,0-0.1,0-0.1,0h-0.1c-0.1,0-0.2,0-0.3,0c-0.1,0-0.2,0.1-0.2,0.1h-0.1v-0.4
		c0,0,0.1-0.1,0.3-0.1c0.1,0,0.2-0.1,0.4-0.1c0.1,0,0.2,0,0.3,0.1c0.1,0,0.2,0,0.2,0.1c0,0,0.1,0.1,0.1,0.1c0,0,0.1,0.1,0.1,0.1
		c0,0.1,0,0.2-0.1,0.3c0,0-0.1,0.1-0.2,0.1c0,0,0.1,0,0.1,0l0.1,0.1C220.1,129.3,220.2,129.3,220.2,129.4z M218.3,129
		c0,0-0.1,0.1-0.2,0.1c0,0,0.1,0,0.1,0l0.1,0.1c0,0,0.1,0.1,0.1,0.1c0,0,0,0.1,0,0.1c0,0.1,0,0.2,0,0.2c0,0-0.1,0.1-0.2,0.1
		c0,0-0.1,0.1-0.2,0.1c-0.1,0-0.2,0-0.4,0c-0.1,0-0.3,0-0.4,0s-0.2,0-0.3-0.1v-0.4h0.1c0,0,0.1,0.1,0.3,0.1c0.1,0,0.2,0.1,0.2,0.1
		c0,0,0.1,0,0.1,0c0.1,0,0.1,0,0.1-0.1c0,0,0.1,0,0.1-0.1c0,0,0.1,0,0.1-0.1s0-0.1-0.1-0.1c0,0,0-0.1-0.1-0.1s-0.1,0-0.1,0
		c0,0-0.1,0-0.1,0h-0.1V129h0.1c0,0,0.1,0,0.1,0c0,0,0.1,0,0.1-0.1h0.1c0,0,0-0.1,0-0.1v-0.1c0,0-0.1,0-0.1-0.1c0,0-0.1,0-0.1,0
		h-0.1c-0.1,0-0.2,0-0.3,0c-0.1,0-0.2,0.1-0.2,0.1h-0.1v-0.4c0,0,0.1-0.1,0.3-0.1c0.1,0,0.2-0.1,0.4-0.1c0.1,0,0.2,0,0.3,0.1
		c0.1,0,0.2,0,0.2,0.1c0,0,0.1,0.1,0.1,0.1c0,0,0.1,0.1,0.1,0.1C218.4,128.8,218.4,128.9,218.3,129z M227.5,129.3h0.6v-0.6
		L227.5,129.3z M226.9,128.7c0,0.1,0,0.2-0.1,0.3c0,0-0.1,0.1-0.2,0.1c0,0,0.1,0,0.1,0l0.1,0.1c0,0,0.1,0.1,0.1,0.1c0,0,0,0.1,0,0.1
		c0,0.1,0,0.2,0,0.2c0,0-0.1,0.1-0.2,0.1c0,0-0.1,0.1-0.2,0.1c-0.1,0-0.2,0-0.4,0c-0.1,0-0.3,0-0.4,0c-0.1,0-0.2,0-0.3-0.1v-0.4h0.1
		c0,0,0.1,0.1,0.3,0.1c0.1,0,0.2,0.1,0.2,0.1c0,0,0.1,0,0.1,0c0.1,0,0.1,0,0.1-0.1c0,0,0.1,0,0.1-0.1c0,0,0.1,0,0.1-0.1
		s0-0.1-0.1-0.1c0,0,0-0.1-0.1-0.1s-0.1,0-0.1,0c0,0-0.1,0-0.1,0h-0.1V129h0.1c0,0,0.1,0,0.1,0c0,0,0.1,0,0.1-0.1h0.1
		c0,0,0-0.1,0-0.1v-0.1c0,0-0.1,0-0.1-0.1c0,0-0.1,0-0.1,0h-0.1c-0.1,0-0.2,0-0.3,0c-0.1,0-0.2,0.1-0.2,0.1h-0.1v-0.4
		c0,0,0.1-0.1,0.3-0.1c0.1,0,0.2-0.1,0.4-0.1c0.1,0,0.2,0,0.3,0.1c0.1,0,0.2,0,0.2,0.1s0.1,0.1,0.1,0.1
		C226.9,128.6,226.9,128.7,226.9,128.7z M203.1,130H202v-0.3h0.4v-0.9H202v-0.3c0,0,0.1,0,0.1,0s0.1,0,0.1-0.1c0,0,0.1,0,0.1-0.1
		l0.1-0.1h0.4v1.4h0.4V130z M201.4,129.4c0,0,0,0.1,0,0.1c0,0.1,0,0.2,0,0.2c0,0-0.1,0.1-0.2,0.1c0,0-0.1,0.1-0.2,0.1
		c-0.1,0-0.2,0-0.4,0c-0.1,0-0.3,0-0.4,0s-0.2,0-0.3-0.1v-0.4h0.1c0,0,0.1,0.1,0.3,0.1c0.1,0,0.2,0.1,0.2,0.1c0,0,0.1,0,0.1,0
		c0.1,0,0.1,0,0.1-0.1c0,0,0.1,0,0.1-0.1c0,0,0.1,0,0.1-0.1s0-0.1-0.1-0.1c0,0,0-0.1-0.1-0.1c0,0-0.1,0-0.1,0c0,0-0.1,0-0.1,0h-0.1
		V129h0.1c0,0,0.1,0,0.1,0c0,0,0.1,0,0.1-0.1h0.1c0,0,0-0.1,0-0.1v-0.1c0,0-0.1,0-0.1-0.1c0,0-0.1,0-0.1,0h-0.1c-0.1,0-0.2,0-0.3,0
		c-0.1,0-0.2,0.1-0.2,0.1h-0.1v-0.4c0,0,0.1-0.1,0.3-0.1c0.1,0,0.2-0.1,0.4-0.1c0.1,0,0.2,0,0.3,0.1c0.1,0,0.2,0,0.2,0.1
		c0,0,0.1,0.1,0.1,0.1c0,0,0.1,0.1,0.1,0.1c0,0.1,0,0.2-0.1,0.3c0,0-0.1,0.1-0.2,0.1c0,0,0.1,0,0.1,0l0.1,0.1
		C201.3,129.3,201.4,129.3,201.4,129.4z M211.3,129.4c-0.1,0-0.2,0.1-0.2,0.1c-0.1,0-0.1,0.1-0.1,0.1h0.8v0.3h-1.4v-0.3
		c0.1,0,0.2-0.1,0.4-0.2c0.1-0.1,0.2-0.2,0.2-0.2c0.1-0.1,0.2-0.2,0.2-0.2c0,0,0.1-0.1,0.1-0.2c0,0,0-0.1-0.1-0.1
		c0,0-0.1-0.1-0.2-0.1c-0.1,0-0.2,0-0.2,0c-0.1,0-0.2,0.1-0.3,0.1v-0.4c0,0,0.1-0.1,0.2-0.1c0.1,0,0.3-0.1,0.4-0.1
		c0.2,0,0.4,0,0.5,0.1c0.1,0.1,0.2,0.2,0.2,0.4c0,0.1,0,0.3-0.1,0.4C211.5,129.2,211.4,129.3,211.3,129.4z M209.9,128.7
		c0,0.1,0,0.2-0.1,0.3c0,0-0.1,0.1-0.2,0.1c0,0,0.1,0,0.1,0l0.1,0.1c0,0,0.1,0.1,0.1,0.1c0,0,0,0.1,0,0.1c0,0.1,0,0.2,0,0.2
		c0,0-0.1,0.1-0.2,0.1c0,0-0.1,0.1-0.2,0.1c-0.1,0-0.2,0-0.4,0c-0.1,0-0.3,0-0.4,0s-0.2,0-0.3-0.1v-0.4h0.1c0,0,0.1,0.1,0.3,0.1
		c0.1,0,0.2,0.1,0.2,0.1c0,0,0.1,0,0.1,0c0.1,0,0.1,0,0.1-0.1c0,0,0.1,0,0.1-0.1c0,0,0.1,0,0.1-0.1s0-0.1-0.1-0.1c0,0,0-0.1-0.1-0.1
		s-0.1,0-0.1,0c0,0-0.1,0-0.1,0h-0.1V129h0.1c0,0,0.1,0,0.1,0c0,0,0.1,0,0.1-0.1h0.1c0,0,0-0.1,0-0.1v-0.1c0,0-0.1,0-0.1-0.1
		c0,0-0.1,0-0.1,0h-0.1c-0.1,0-0.2,0-0.3,0c-0.1,0-0.2,0.1-0.2,0.1h-0.1v-0.4c0,0,0.1-0.1,0.3-0.1c0.1,0,0.2-0.1,0.4-0.1
		c0.1,0,0.2,0,0.3,0.1c0.1,0,0.2,0,0.2,0.1c0,0,0.1,0.1,0.1,0.1C209.9,128.6,209.9,128.7,209.9,128.7z M192.1,128.6
		c0,0,0.1,0.1,0.1,0.1c0,0.1,0,0.2-0.1,0.3c0,0-0.1,0.1-0.2,0.1c0,0,0.1,0,0.1,0l0.1,0.1c0,0,0.1,0.1,0.1,0.1c0,0,0,0.1,0,0.1
		c0,0.1,0,0.2,0,0.2c0,0-0.1,0.1-0.2,0.1c0,0-0.1,0.1-0.2,0.1c-0.1,0-0.2,0-0.4,0c-0.1,0-0.3,0-0.4,0c-0.1,0-0.2,0-0.3-0.1v-0.4h0.1
		c0,0,0.1,0.1,0.3,0.1c0.1,0,0.2,0.1,0.2,0.1c0,0,0.1,0,0.1,0c0.1,0,0.1,0,0.1-0.1c0,0,0.1,0,0.1-0.1c0,0,0.1,0,0.1-0.1
		s0-0.1-0.1-0.1c0,0,0-0.1-0.1-0.1c0,0-0.1,0-0.1,0s-0.1,0-0.1,0h-0.1V129h0.1c0,0,0.1,0,0.1,0s0.1,0,0.1-0.1h0.1c0,0,0-0.1,0-0.1
		v-0.1c0,0-0.1,0-0.1-0.1c0,0-0.1,0-0.1,0h-0.1c-0.1,0-0.2,0-0.3,0c-0.1,0-0.2,0.1-0.2,0.1h-0.1v-0.4c0,0,0.1-0.1,0.3-0.1
		c0.1,0,0.2-0.1,0.4-0.1c0.1,0,0.2,0,0.3,0.1c0.1,0,0.2,0,0.2,0.1C192,128.5,192.1,128.5,192.1,128.6z M185.4,128.5
		c0.1,0,0.2,0.1,0.2,0.2c0,0.1,0,0.2,0,0.4c0,0.1,0,0.3,0,0.4c0,0.1-0.1,0.2-0.2,0.3c-0.1,0.1-0.2,0.2-0.3,0.2c-0.1,0-0.3,0-0.5,0
		c0,0-0.1,0-0.1,0h-0.1v-0.3h0.1c0,0,0.1,0,0.2,0c0,0,0.1,0,0.1,0s0.1,0,0.1-0.1c0,0,0.1-0.1,0.1-0.1c0,0,0.1-0.1,0.1-0.1
		c-0.1,0-0.2,0-0.2,0.1c0,0-0.1,0-0.2,0c0,0-0.1,0-0.2,0c0,0-0.1,0-0.1-0.1c-0.1,0-0.1-0.1-0.1-0.1c0-0.1-0.1-0.2-0.1-0.3
		c0-0.2,0.1-0.3,0.2-0.4c0.1-0.1,0.3-0.2,0.5-0.2c0.1,0,0.2,0,0.3,0.1C185.3,128.4,185.3,128.5,185.4,128.5z M185,128.6L185,128.6
		c-0.1,0-0.1-0.1-0.1-0.1c0,0-0.1,0-0.1,0.1h-0.1c0,0-0.1,0.1-0.1,0.1c0,0-0.1,0-0.1,0.1c0,0.1,0,0.1,0.1,0.1c0,0,0,0.1,0.1,0.1
		c0,0,0,0.1,0.1,0.1s0.1,0,0.1,0h0.1c0,0,0.1,0,0.1,0V129c0-0.1,0-0.2,0-0.2C185.1,128.7,185.1,128.7,185,128.6z M194,129.6
		c0,0.1,0,0.2-0.1,0.2c0,0.1-0.1,0.2-0.2,0.2c-0.1,0-0.2,0-0.4,0c-0.1,0-0.2,0-0.3,0c-0.1,0-0.2-0.1-0.3-0.2c0,0-0.1-0.1-0.1-0.2
		c0-0.1,0-0.3,0-0.4c0-0.1,0-0.3,0-0.4c0-0.1,0.1-0.2,0.1-0.3c0.1,0,0.2-0.1,0.3-0.1c0.1,0,0.2-0.1,0.3-0.1c0.1,0,0.3,0,0.4,0.1
		c0.1,0,0.2,0.1,0.2,0.1c0.1,0.1,0.1,0.2,0.1,0.3c0,0.1,0.1,0.2,0.1,0.4C194,129.3,194,129.4,194,129.6z M193.5,128.7
		c0,0-0.1-0.1-0.2-0.1c-0.1,0-0.2,0-0.2,0.1c0,0.1-0.1,0.2-0.1,0.4c0,0.2,0,0.4,0.1,0.4c0,0.1,0.1,0.1,0.2,0.1c0.1,0,0.2,0,0.2-0.1
		c0,0,0.1-0.2,0.1-0.4C193.5,129,193.5,128.8,193.5,128.7z M177.1,128.7c0,0.1,0,0.2-0.1,0.2c0,0-0.1,0.1-0.2,0.1
		c0.1,0,0.2,0.1,0.3,0.2c0,0,0.1,0.1,0.1,0.3c0,0.1-0.1,0.3-0.2,0.4c-0.1,0.1-0.3,0.1-0.6,0.1c-0.1,0-0.2,0-0.3-0.1
		c-0.1,0-0.2-0.1-0.3-0.1c0,0-0.1-0.1-0.1-0.2c0,0,0-0.1,0-0.1c0-0.1,0-0.2,0.1-0.2c0-0.1,0.1-0.2,0.3-0.2c-0.1,0-0.2-0.1-0.3-0.1
		c0-0.1-0.1-0.2-0.1-0.2c0-0.1,0.1-0.3,0.2-0.4c0.1-0.1,0.3-0.1,0.5-0.1c0.2,0,0.4,0,0.6,0.1C177.1,128.5,177.1,128.6,177.1,128.7z
		 M176.4,128.6L176.4,128.6l-0.1,0.1h-0.1v0.1c0,0,0,0.1,0,0.1c0,0,0.1,0,0.1,0.1c0,0,0.1,0,0.1,0c0,0,0,0.1,0.1,0.1
		c0,0,0-0.1,0.1-0.1v-0.1c0,0,0-0.1-0.1-0.1C176.6,128.6,176.5,128.6,176.4,128.6z M176.2,129.4c0,0-0.1,0.1-0.1,0.1
		c0,0.1,0,0.2,0.1,0.2c0.1,0,0.2,0.1,0.3,0.1l0.1-0.1h0.1c0,0,0.1,0,0.1-0.1c0,0,0.1,0,0.1-0.1c0,0,0-0.1-0.1-0.1c0,0-0.1,0-0.2-0.1
		l-0.1-0.1C176.4,129.3,176.3,129.3,176.2,129.4C176.2,129.3,176.2,129.3,176.2,129.4z M175.3,128.8c0,0.1,0,0.3-0.1,0.4
		c-0.1,0.1-0.2,0.2-0.3,0.3c-0.1,0-0.2,0.1-0.2,0.1c-0.1,0-0.1,0.1-0.1,0.1h0.8v0.3H174v-0.3c0.1,0,0.2-0.1,0.4-0.2
		c0.1-0.1,0.2-0.2,0.2-0.2c0.1-0.1,0.2-0.2,0.2-0.2c0,0,0.1-0.1,0.1-0.2c0,0,0-0.1-0.1-0.1c0,0-0.1-0.1-0.2-0.1c-0.1,0-0.2,0-0.2,0
		c-0.1,0-0.2,0.1-0.3,0.1v-0.4c0,0,0.1-0.1,0.2-0.1c0.1,0,0.3-0.1,0.4-0.1c0.2,0,0.4,0,0.5,0.1C175.3,128.5,175.3,128.6,175.3,128.8
		z M183.5,129.4c-0.1,0-0.2,0.1-0.2,0.1c-0.1,0-0.1,0.1-0.1,0.1h0.8v0.3h-1.4v-0.3c0.1,0,0.2-0.1,0.4-0.2c0.1-0.1,0.2-0.2,0.2-0.2
		c0.1-0.1,0.2-0.2,0.2-0.2c0,0,0.1-0.1,0.1-0.2c0,0,0-0.1-0.1-0.1c0,0-0.1-0.1-0.2-0.1c-0.1,0-0.2,0-0.2,0c-0.1,0-0.2,0.1-0.3,0.1
		v-0.4c0,0,0.1-0.1,0.2-0.1c0.1,0,0.3-0.1,0.4-0.1c0.2,0,0.4,0,0.5,0.1c0.1,0.1,0.2,0.2,0.2,0.4c0,0.1,0,0.3-0.1,0.4
		C183.6,129.2,183.5,129.3,183.5,129.4z M160.3,128.6h-0.1c-0.1,0-0.2,0-0.2,0c-0.1,0-0.3,0-0.4,0.1c-0.1,0.1-0.1,0.2-0.1,0.3
		c0,0,0.1-0.1,0.2-0.1c0,0,0.1,0,0.2,0c0,0,0.1,0,0.1,0c0.1,0,0.2,0,0.2,0.1s0.1,0.1,0.1,0.1c0,0.1,0.1,0.2,0.1,0.3
		c0,0.1,0,0.2-0.1,0.2c0,0.1-0.1,0.2-0.1,0.2s-0.1,0.1-0.2,0.1c-0.1,0-0.2,0-0.3,0s-0.2,0-0.3,0c-0.1,0-0.2-0.1-0.3-0.1
		c0,0-0.1-0.1-0.1-0.2s-0.1-0.2-0.1-0.4c0-0.1,0-0.3,0.1-0.4c0-0.1,0.1-0.2,0.2-0.3c0-0.1,0.1-0.2,0.3-0.2c0.1,0,0.2-0.1,0.4-0.1
		c0,0,0.1,0,0.2,0.1c0,0,0.1,0,0.1,0V128.6z M159.8,129.2c0,0-0.1,0-0.1,0c0,0-0.1,0-0.1,0h-0.1v0.1c0,0,0,0.1,0,0.2
		c0,0,0.1,0.1,0.1,0.1h0.1c0,0,0.1,0.1,0.1,0.1l0.1-0.1h0.1c0,0,0.1-0.1,0.1-0.1v-0.2C159.9,129.3,159.9,129.3,159.8,129.2
		L159.8,129.2z M158,128.7c0,0-0.1-0.1-0.2-0.1c-0.1,0-0.2,0-0.2,0c-0.1,0-0.2,0.1-0.3,0.1v-0.4c0,0,0.1-0.1,0.2-0.1
		c0.1,0,0.3-0.1,0.4-0.1c0.2,0,0.4,0,0.5,0.1c0.1,0.1,0.2,0.2,0.2,0.4c0,0.1,0,0.3-0.1,0.4c-0.1,0.1-0.2,0.2-0.3,0.3
		c-0.1,0-0.2,0.1-0.2,0.1c-0.1,0-0.1,0.1-0.1,0.1h0.8v0.3h-1.4v-0.3c0.1,0,0.2-0.1,0.4-0.2c0.1-0.1,0.2-0.2,0.2-0.2
		c0.1-0.1,0.2-0.2,0.2-0.2c0,0,0.1-0.1,0.1-0.2C158.1,128.8,158,128.8,158,128.7z M167,130h-1.4v-0.3c0.1,0,0.2-0.1,0.4-0.2
		c0.1-0.1,0.2-0.2,0.2-0.2c0.1-0.1,0.2-0.2,0.2-0.2c0,0,0.1-0.1,0.1-0.2c0,0,0-0.1-0.1-0.1c0,0-0.1-0.1-0.2-0.1s-0.2,0-0.2,0
		c-0.1,0-0.2,0.1-0.3,0.1v-0.4c0,0,0.1-0.1,0.2-0.1c0.1,0,0.3-0.1,0.4-0.1c0.2,0,0.4,0,0.5,0.1c0.1,0.1,0.2,0.2,0.2,0.4
		c0,0.1,0,0.3-0.1,0.4c-0.1,0.1-0.2,0.2-0.3,0.3c-0.1,0-0.2,0.1-0.2,0.1c-0.1,0-0.1,0.1-0.1,0.1h0.8V130z M167.4,130l0.9-1.4h-0.9
		v-0.3h1.4v0.3l-0.8,1.4H167.4z M148.7,129.7c0.1,0,0.2-0.1,0.4-0.2c0.1-0.1,0.2-0.2,0.2-0.2c0.1-0.1,0.2-0.2,0.2-0.2
		c0,0,0.1-0.1,0.1-0.2c0,0,0-0.1-0.1-0.1c0,0-0.1-0.1-0.2-0.1s-0.2,0-0.2,0c-0.1,0-0.2,0.1-0.3,0.1v-0.4c0,0,0.1-0.1,0.2-0.1
		c0.1,0,0.3-0.1,0.4-0.1c0.2,0,0.4,0,0.5,0.1c0.1,0.1,0.2,0.2,0.2,0.4c0,0.1,0,0.3-0.1,0.4c-0.1,0.1-0.2,0.2-0.3,0.3
		c-0.1,0-0.2,0.1-0.2,0.1c-0.1,0-0.1,0.1-0.1,0.1h0.8v0.3h-1.4V129.7z M142.8,128.7l-0.6,0.6h0.6V128.7z M143.2,128.4v0.9h0.2v0.4
		h-0.2v0.4h-0.4v-0.4h-0.9v-0.4l0.9-0.9H143.2z M151.9,128.6H151v0.3h0.1c0,0,0.1,0,0.1,0c0.1,0,0.2,0,0.2,0c0.1,0,0.2,0.1,0.2,0.1
		c0.1,0,0.2,0.1,0.2,0.2c0,0,0,0.1,0,0.2c0,0.1,0,0.2,0,0.3c0,0-0.1,0.1-0.1,0.1c-0.1,0-0.2,0.1-0.3,0.1c-0.1,0-0.2,0-0.4,0
		s-0.3,0-0.4,0c-0.1,0-0.2,0-0.2-0.1v-0.4c0.1,0,0.2,0.1,0.3,0.1c0.1,0,0.2,0.1,0.2,0.1s0.1,0,0.2,0c0,0,0.1-0.1,0.1-0.1
		c0,0,0-0.1,0.1-0.1c0,0,0-0.1,0-0.1l-0.1-0.1c0,0,0-0.1-0.1-0.1s-0.1,0-0.1-0.1c0,0-0.1,0-0.1,0c-0.1,0-0.2,0-0.2,0
		c0,0-0.1,0.1-0.2,0.1v-0.9h1.3V128.6z M134.5,128.7C134.4,128.7,134.4,128.7,134.5,128.7c-0.1-0.1-0.2-0.1-0.2-0.1h-0.1
		c-0.1,0-0.2,0-0.3,0c-0.1,0-0.2,0.1-0.2,0.1h-0.1v-0.4c0,0,0.1-0.1,0.3-0.1c0.1,0,0.2-0.1,0.4-0.1c0.1,0,0.2,0,0.3,0.1
		c0.1,0,0.2,0,0.2,0.1c0,0,0.1,0.1,0.1,0.1c0,0,0.1,0.1,0.1,0.1c0,0.1,0,0.2-0.1,0.3c0,0-0.1,0.1-0.2,0.1c0,0,0.1,0,0.1,0l0.1,0.1
		c0,0,0.1,0.1,0.1,0.1c0,0,0,0.1,0,0.1c0,0.1,0,0.2,0,0.2c0,0-0.1,0.1-0.2,0.1c0,0-0.1,0.1-0.2,0.1c-0.1,0-0.2,0-0.4,0
		c-0.1,0-0.3,0-0.4,0s-0.2,0-0.3-0.1v-0.4h0.1c0,0,0.1,0.1,0.3,0.1c0.1,0,0.2,0.1,0.2,0.1c0,0,0.1,0,0.1,0c0.1,0,0.1,0,0.1-0.1
		c0,0,0.1,0,0.1-0.1c0,0,0.1,0,0.1-0.1s0-0.1-0.1-0.1c0,0,0-0.1-0.1-0.1c0,0-0.1,0-0.1,0c0,0-0.1,0-0.1,0H134V129h0.1
		c0,0,0.1,0,0.1,0c0,0,0.1,0,0.1-0.1h0.1C134.5,128.9,134.5,128.8,134.5,128.7L134.5,128.7z M133.2,128.8c0,0.1,0,0.3-0.1,0.4
		c-0.1,0.1-0.2,0.2-0.3,0.3c-0.1,0-0.2,0.1-0.2,0.1c-0.1,0-0.1,0.1-0.1,0.1h0.8v0.3h-1.4v-0.3c0.1,0,0.2-0.1,0.4-0.2
		c0.1-0.1,0.2-0.2,0.2-0.2c0.1-0.1,0.2-0.2,0.2-0.2c0,0,0.1-0.1,0.1-0.2c0,0,0-0.1-0.1-0.1c0,0-0.1-0.1-0.2-0.1c-0.1,0-0.2,0-0.2,0
		c-0.1,0-0.2,0.1-0.3,0.1v-0.4c0,0,0.1-0.1,0.2-0.1c0.1,0,0.3-0.1,0.4-0.1c0.2,0,0.4,0,0.5,0.1C133.1,128.5,133.2,128.6,133.2,128.8
		z M141.2,129.4c-0.1,0-0.2,0.1-0.2,0.1c-0.1,0-0.1,0.1-0.1,0.1h0.8v0.3h-1.4v-0.3c0.1,0,0.2-0.1,0.4-0.2c0.1-0.1,0.2-0.2,0.2-0.2
		c0.1-0.1,0.2-0.2,0.2-0.2c0,0,0.1-0.1,0.1-0.2c0,0,0-0.1-0.1-0.1c0,0-0.1-0.1-0.2-0.1s-0.2,0-0.2,0c-0.1,0-0.2,0.1-0.3,0.1v-0.4
		c0,0,0.1-0.1,0.2-0.1c0.1,0,0.3-0.1,0.4-0.1c0.2,0,0.4,0,0.5,0.1c0.1,0.1,0.2,0.2,0.2,0.4c0,0.1,0,0.3-0.1,0.4
		C141.4,129.2,141.3,129.3,141.2,129.4z M116.9,128.9v-0.3c0,0,0.1,0,0.1,0s0.1,0,0.1-0.1c0,0,0.1,0,0.1-0.1l0.1-0.1h0.4v1.4h0.4
		v0.3h-1.1v-0.3h0.4v-0.9H116.9z M116,129.4c-0.1,0-0.2,0.1-0.2,0.1c-0.1,0-0.1,0.1-0.1,0.1h0.8v0.3H115v-0.3c0.1,0,0.2-0.1,0.4-0.2
		c0.1-0.1,0.2-0.2,0.2-0.2c0.1-0.1,0.2-0.2,0.2-0.2c0,0,0.1-0.1,0.1-0.2c0,0,0-0.1-0.1-0.1c0,0-0.1-0.1-0.2-0.1c-0.1,0-0.2,0-0.2,0
		c-0.1,0-0.2,0.1-0.3,0.1v-0.4c0,0,0.1-0.1,0.2-0.1c0.1,0,0.3-0.1,0.4-0.1c0.2,0,0.4,0,0.5,0.1c0.1,0.1,0.2,0.2,0.2,0.4
		c0,0.1,0,0.3-0.1,0.4C116.2,129.2,116.1,129.3,116,129.4z M126.5,129.1c-0.1,0.1-0.2,0.2-0.3,0.3c-0.1,0-0.2,0.1-0.2,0.1
		c-0.1,0-0.1,0.1-0.1,0.1h0.8v0.3h-1.4v-0.3c0.1,0,0.2-0.1,0.4-0.2c0.1-0.1,0.2-0.2,0.2-0.2c0.1-0.1,0.2-0.2,0.2-0.2
		c0,0,0.1-0.1,0.1-0.2c0,0,0-0.1-0.1-0.1c0,0-0.1-0.1-0.2-0.1c-0.1,0-0.2,0-0.2,0c-0.1,0-0.2,0.1-0.3,0.1v-0.4c0,0,0.1-0.1,0.2-0.1
		c0.1,0,0.3-0.1,0.4-0.1c0.2,0,0.4,0,0.5,0.1c0.1,0.1,0.2,0.2,0.2,0.4C126.6,128.9,126.5,129,126.5,129.1z M124.7,129.1
		c-0.1,0.1-0.2,0.2-0.3,0.3c-0.1,0-0.2,0.1-0.2,0.1c-0.1,0-0.1,0.1-0.1,0.1h0.8v0.3h-1.4v-0.3c0.1,0,0.2-0.1,0.4-0.2
		c0.1-0.1,0.2-0.2,0.2-0.2c0.1-0.1,0.2-0.2,0.2-0.2c0,0,0.1-0.1,0.1-0.2c0,0,0-0.1-0.1-0.1c0,0-0.1-0.1-0.2-0.1c-0.1,0-0.2,0-0.2,0
		c-0.1,0-0.2,0.1-0.3,0.1v-0.4c0,0,0.1-0.1,0.2-0.1c0.1,0,0.3-0.1,0.4-0.1c0.2,0,0.4,0,0.5,0.1c0.1,0.1,0.2,0.2,0.2,0.4
		C124.8,128.9,124.8,129,124.7,129.1z M101.2,128.7c0,0.1,0,0.2,0,0.4c0,0.1,0,0.3,0,0.4c0,0.1-0.1,0.2-0.2,0.3
		c-0.1,0.1-0.2,0.2-0.3,0.2c-0.1,0-0.3,0-0.5,0c0,0-0.1,0-0.1,0h-0.1v-0.3h0.1c0,0,0.1,0,0.2,0c0,0,0.1,0,0.1,0c0,0,0.1,0,0.1-0.1
		c0,0,0.1-0.1,0.1-0.1c0,0,0.1-0.1,0.1-0.1c-0.1,0-0.2,0-0.2,0.1c0,0-0.1,0-0.2,0c0,0-0.1,0-0.2,0c0,0-0.1,0-0.1-0.1
		c-0.1,0-0.1-0.1-0.1-0.1c0-0.1-0.1-0.2-0.1-0.3c0-0.2,0.1-0.3,0.2-0.4c0.1-0.1,0.3-0.2,0.5-0.2c0.1,0,0.2,0,0.3,0.1
		c0.1,0,0.2,0.1,0.2,0.1C101.1,128.5,101.1,128.6,101.2,128.7z M100.4,128.6L100.4,128.6c-0.1,0-0.1,0.1-0.1,0.1c0,0-0.1,0-0.1,0.1
		c0,0.1,0,0.1,0.1,0.1c0,0,0,0.1,0.1,0.1c0,0,0,0.1,0.1,0.1c0,0,0.1,0,0.1,0h0.1c0,0,0.1,0,0.1,0V129c0-0.1,0-0.2,0-0.2
		c0,0-0.1-0.1-0.1-0.1h-0.1C100.5,128.6,100.5,128.6,100.4,128.6C100.4,128.6,100.4,128.6,100.4,128.6z M109.7,129.1
		c0,0.1,0,0.3-0.1,0.4c0,0.1,0,0.2-0.1,0.2c0,0.1-0.1,0.2-0.2,0.2c-0.1,0-0.2,0-0.4,0c-0.1,0-0.2,0-0.3,0c-0.1,0-0.2-0.1-0.3-0.2
		c0,0-0.1-0.1-0.1-0.2c0-0.1,0-0.3,0-0.4c0-0.1,0-0.3,0-0.4c0-0.1,0.1-0.2,0.1-0.3c0.1,0,0.2-0.1,0.3-0.1c0.1,0,0.2-0.1,0.3-0.1
		c0.1,0,0.3,0,0.4,0.1c0.1,0,0.2,0.1,0.2,0.1c0.1,0.1,0.1,0.2,0.1,0.3C109.7,128.9,109.7,129,109.7,129.1z M109.1,128.7
		c0,0-0.1-0.1-0.2-0.1c-0.1,0-0.2,0-0.2,0.1c0,0.1-0.1,0.2-0.1,0.4c0,0.2,0,0.4,0.1,0.4c0,0.1,0.1,0.1,0.2,0.1c0.1,0,0.2,0,0.2-0.1
		c0,0,0.1-0.2,0.1-0.4C109.2,129,109.2,128.8,109.1,128.7z M107.8,129.1c-0.1,0.1-0.2,0.2-0.3,0.3c-0.1,0-0.2,0.1-0.2,0.1
		c-0.1,0-0.1,0.1-0.1,0.1h0.8v0.3h-1.4v-0.3c0.1,0,0.2-0.1,0.4-0.2c0.1-0.1,0.2-0.2,0.2-0.2c0.1-0.1,0.2-0.2,0.2-0.2
		c0,0,0.1-0.1,0.1-0.2c0,0,0-0.1-0.1-0.1c0,0-0.1-0.1-0.2-0.1s-0.2,0-0.2,0c-0.1,0-0.2,0.1-0.3,0.1v-0.4c0,0,0.1-0.1,0.2-0.1
		c0.1,0,0.3-0.1,0.4-0.1c0.2,0,0.4,0,0.5,0.1c0.1,0.1,0.2,0.2,0.2,0.4C107.9,128.9,107.8,129,107.8,129.1z"/>
</g>
<g>
	<rect x="1.9" y="119.8" fill-rule="evenodd" clip-rule="evenodd" fill-opacity="0.251" width="698.9" height="1.4"/>
</g>
</svg>
