<?xml version="1.0" encoding="utf-8"?>
<!-- Generator: Adobe Illustrator 16.0.0, SVG Export Plug-In . SVG Version: 6.00 Build 0)  -->
<!DOCTYPE svg PUBLIC "-//W3C//DTD SVG 1.1//EN" "http://www.w3.org/Graphics/SVG/1.1/DTD/svg11.dtd">
<svg version="1.1" xmlns="http://www.w3.org/2000/svg" xmlns:xlink="http://www.w3.org/1999/xlink" x="0px" y="0px" width="85px"
	 height="170px" viewBox="0 0 85 170" enable-background="new 0 0 85 170" xml:space="preserve">
<g id="Layer_1">
</g>
<g id="Layer_2">
	<g>
		<g>
			<polygon fill-rule="evenodd" clip-rule="evenodd" fill-opacity="0.251" points="83.3,124.3 71.2,168.6 2.4,168.6 24.4,124.3 			
				"/>
		</g>
		<g>
			<g>
				
					<linearGradient id="SVGID_1_" gradientUnits="userSpaceOnUse" x1="-54.3887" y1="-164.8496" x2="5.3208" y2="-164.8496" gradientTransform="matrix(-0.989 0.1479 -0.1479 -0.989 5.038083e-004 3.903657e-004)">
					<stop  offset="0" style="stop-color:#422913"/>
					<stop  offset="1" style="stop-color:#7C5423"/>
				</linearGradient>
				<rect x="10" y="154.5" fill-rule="evenodd" clip-rule="evenodd" fill="url(#SVGID_1_)" width="59.3" height="12.6"/>
				<polygon fill-rule="evenodd" clip-rule="evenodd" fill="#8A4F28" points="69.3,154.5 80.8,117.5 80.8,127.6 74,150.8 
					73.9,150.8 69.3,167 				"/>
				
					<linearGradient id="SVGID_2_" gradientUnits="userSpaceOnUse" x1="89.3008" y1="94.9492" x2="132.9741" y2="94.9492" gradientTransform="matrix(0.8655 0.501 -0.501 0.8655 -1.608729e-004 -4.307032e-004)">
					<stop  offset="0" style="stop-color:#504630"/>
					<stop  offset="1" style="stop-color:#978959"/>
				</linearGradient>
				<polygon fill-rule="evenodd" clip-rule="evenodd" fill="url(#SVGID_2_)" points="10,154.5 26.9,117.5 80.8,117.5 69.3,154.5 
									"/>
			</g>
		</g>
		<g>
			<polygon fill-rule="evenodd" clip-rule="evenodd" fill="#3A2514" points="34.6,143.3 40.8,126.7 58,126.7 52.7,143.3 			"/>
		</g>
		<g>
			<linearGradient id="SVGID_3_" gradientUnits="userSpaceOnUse" x1="44.9512" y1="140.126" x2="23.2262" y2="118.401">
				<stop  offset="0" style="stop-color:#080808"/>
				<stop  offset="1" style="stop-color:#000000;stop-opacity:0"/>
			</linearGradient>
			<polygon fill-rule="evenodd" clip-rule="evenodd" fill="url(#SVGID_3_)" points="35.4,143 17.3,138.5 26,119.3 57.4,126.5 			"/>
		</g>
		<g>
			<g>
				<polygon fill-rule="evenodd" clip-rule="evenodd" fill="#653D23" points="52.3,45.5 52.3,143 35.4,143 35.4,44.3 44.1,12.6 
					46,17.7 				"/>
				<polygon fill-rule="evenodd" clip-rule="evenodd" fill="#724427" points="51,5 46,17.7 44.1,12.6 49.2,0.1 				"/>
				<polygon fill-rule="evenodd" clip-rule="evenodd" fill="#965B36" points="52.3,45.5 46,17.7 51,5 57.4,33.8 				"/>
				<polygon fill-rule="evenodd" clip-rule="evenodd" fill="#B06B3E" points="57.4,33.8 57.4,127 52.3,143 52.3,45.5 				"/>
			</g>
		</g>
		<g>
			<g>
				<path fill-rule="evenodd" clip-rule="evenodd" fill="#C28154" d="M45.8,17.6l0.1-0.1c0.1,0,0.1,0,0.1,0c0,0.1,0,0.1,0,0.2
					l6.4,27.9V143c0.1,0.1,0.1,0.1,0,0.2c0,0.1-0.1,0.1-0.2,0.1c0,0-0.1,0-0.1-0.1c-0.1,0-0.1-0.1-0.1-0.2V45.8l-6.4-28
					C45.8,17.7,45.8,17.6,45.8,17.6z"/>
				<path fill-rule="evenodd" clip-rule="evenodd" fill="#98672C" d="M69.3,154.7h-0.1H10.4c0,0-0.1,0-0.1-0.1c0,0,0-0.1,0-0.1
					c0,0,0-0.1,0-0.2c0.1,0,0.1,0,0.1,0h58.8l0,0.2l0,0.1C69.2,154.6,69.2,154.6,69.3,154.7z M69.5,154.6c0,0.1-0.1,0.1-0.2,0.1
					L69.5,154.6C69.5,154.6,69.5,154.6,69.5,154.6L69.5,154.6z"/>
				<path fill-rule="evenodd" clip-rule="evenodd" fill="#D5A686" d="M69.5,154.5C69.5,154.6,69.5,154.6,69.5,154.5l-0.2,0.2h0
					c-0.1-0.1-0.1-0.1-0.1-0.2l0-0.1l0-0.2l11.2-36.4c0,0,0.1-0.1,0.1-0.2c0,0,0,0,0,0c0,0,0.1,0,0.2,0.1c0,0,0,0.1,0,0.2
					L69.5,154.5z"/>
				<path fill-rule="evenodd" clip-rule="evenodd" fill="#9F5B2F" d="M69.3,154.7c0.1,0,0.1,0,0.2-0.1v12c0.1,0,0.1,0.1,0,0.2
					c0,0-0.1,0-0.2,0c0,0-0.1,0-0.1,0c0-0.1,0-0.1,0-0.2v-11.8H69.3L69.3,154.7z"/>
			</g>
		</g>
	</g>
</g>
</svg>
