<?xml version="1.0" encoding="utf-8"?>
<!-- Generator: Adobe Illustrator 16.0.0, SVG Export Plug-In . SVG Version: 6.00 Build 0)  -->
<!DOCTYPE svg PUBLIC "-//W3C//DTD SVG 1.1//EN" "http://www.w3.org/Graphics/SVG/1.1/DTD/svg11.dtd">
<svg version="1.1" id="Layer_1" xmlns="http://www.w3.org/2000/svg" xmlns:xlink="http://www.w3.org/1999/xlink" x="0px" y="0px"
	 width="32.3px" height="56.2px" viewBox="0 0 32.3 56.2" enable-background="new 0 0 32.3 56.2" xml:space="preserve">
<g>
	<g>
		<g>
			<g>
				
					<linearGradient id="SVGID_1_" gradientUnits="userSpaceOnUse" x1="-638.6514" y1="-329.3442" x2="-590.355" y2="-329.3442" gradientTransform="matrix(-0.9959 -9.006902e-002 0.4857 -0.9602 -443.6199 -321.957)">
					<stop  offset="0" style="stop-color:#FFFFFF"/>
					<stop  offset="1" style="stop-color:#000000"/>
				</linearGradient>
				<path fill-rule="evenodd" clip-rule="evenodd" fill="url(#SVGID_1_)" d="M0.6,50.3c0-0.4,1.6-0.8,4.6-1.1
					c3.1-0.3,6.8-0.4,11-0.4s8,0.1,11,0.4c3,0.3,4.6,0.7,4.6,1.1c0,0.4-1.6,0.8-4.6,1s-6.7,0.5-11,0.5s-8-0.2-11-0.5
					C2.1,51.1,0.6,50.7,0.6,50.3z"/>
				<linearGradient id="SVGID_2_" gradientUnits="userSpaceOnUse" x1="0.5664" y1="53.0405" x2="31.8169" y2="53.0405">
					<stop  offset="0" style="stop-color:#2C2C2C"/>
					<stop  offset="6.666666e-002" style="stop-color:#8C8C8C"/>
					<stop  offset="0.1569" style="stop-color:#FFFFFF"/>
					<stop  offset="0.2078" style="stop-color:#A2A2A2"/>
					<stop  offset="0.3373" style="stop-color:#F7F7F7"/>
					<stop  offset="0.4627" style="stop-color:#DDDDDD"/>
					<stop  offset="0.5804" style="stop-color:#FFFFFF"/>
					<stop  offset="0.8" style="stop-color:#5E5E5E"/>
					<stop  offset="0.898" style="stop-color:#292929"/>
					<stop  offset="1" style="stop-color:#848484"/>
				</linearGradient>
				<path fill-rule="evenodd" clip-rule="evenodd" fill="url(#SVGID_2_)" d="M31.8,50.3v4c0,0.4-1.6,0.7-4.6,1
					c-3,0.3-6.7,0.4-11,0.4s-8-0.1-11-0.4c-3-0.3-4.6-0.6-4.6-1v-4c0,0.4,1.6,0.8,4.6,1c3.1,0.3,6.8,0.5,11,0.5s8-0.2,11-0.5
					S31.8,50.7,31.8,50.3z"/>
			</g>
		</g>
		<g>
			<path fill-rule="evenodd" clip-rule="evenodd" d="M14.3,50.4c-0.5,0-0.8-0.1-0.8-0.2c0-0.1,0.3-0.1,0.8-0.2c0.6,0,1.2,0,1.9,0
				c0.8,0,1.4,0,1.9,0c0.5,0.1,0.8,0.1,0.8,0.2c0,0.1-0.3,0.1-0.8,0.2c-0.5,0.1-1.1,0.1-1.9,0.1C15.5,50.5,14.8,50.4,14.3,50.4z"/>
		</g>
	</g>
	<g>
		<g>
			<radialGradient id="SVGID_3_" cx="16.1616" cy="37.6157" r="4.5403" gradientUnits="userSpaceOnUse">
				<stop  offset="0" style="stop-color:#FFFFFF"/>
				<stop  offset="1" style="stop-color:#6D6967"/>
			</radialGradient>
			<path fill-rule="evenodd" clip-rule="evenodd" fill="url(#SVGID_3_)" d="M19.1,41.4c0.4-0.4-0.1-0.5-1.4-0.1
				c-1,0.2-0.9,0,0.1-0.5L17.4,41c0.1,0,0.2-0.1,0.2-0.1c0.1,0,0.2-0.1,0.3-0.2c0.3-0.2,0.6-0.4,0.8-0.6c0.6-0.7,1-1.5,1-2.5
				c0-1-0.3-1.8-1-2.5h0c-0.7-0.7-1.6-1.1-2.5-1.1s-1.8,0.4-2.5,1.1c-0.6,0.6-1,1.3-1,2c0,0.2-0.1,0.3-0.3,0.4
				c-0.2,0.1-0.3,0.1-0.5,0.1c-0.2,0-0.3-0.1-0.4-0.3c-0.1-0.2-0.2-0.3-0.1-0.5c0.1-1.1,0.6-2,1.4-2.8l0-0.1c0.9-0.9,2-1.4,3.4-1.4
				c1.3,0,2.5,0.5,3.4,1.5c0.9,0.9,1.4,2,1.4,3.4c0,1.3-0.5,2.5-1.4,3.4C19.4,41.2,19.3,41.3,19.1,41.4z"/>
			<radialGradient id="SVGID_4_" cx="19.7661" cy="46.2656" r="5.3375" gradientUnits="userSpaceOnUse">
				<stop  offset="0" style="stop-color:#FFFFFF"/>
				<stop  offset="1" style="stop-color:#6D6967"/>
			</radialGradient>
			<path fill-rule="evenodd" clip-rule="evenodd" fill="url(#SVGID_4_)" d="M19.1,41.4c0,0-0.1,0.1-0.1,0.1
				c-0.1,0.1-0.3,0.2-0.4,0.2c-0.1,0-0.1,0.1-0.2,0.1c-0.1,0-0.1,0.1-0.2,0.1c-0.1,0-0.3,0.2-0.6,0.4c-0.3,0.3-0.6,0.7-0.8,1.4
				c-0.2,0.6-0.3,1.8-0.2,3.6v0.3c0,0.3,0,0.5,0,0.8c0,0.5,0,1,0,1.6c-0.5,0.3-1,0.3-1.3,0c0-0.6,0-1.1,0-1.6c0-0.1,0-0.3,0-0.4
				c0-0.6,0-1,0-1.4c0-0.4,0-0.6-0.1-0.8c-0.2-1.3-0.1-2.4,0.3-3.4c0.3-0.6,0.7-1,1.1-1.3c0.3-0.1,0.7-0.3,1.1-0.5
				c-1,0.5-1.1,0.6-0.1,0.5C19,41,19.5,41,19.1,41.4z"/>
		</g>
	</g>
	<g>
		<path fill-rule="evenodd" clip-rule="evenodd" fill="none" d="M16.4,41.8c-0.8,0.9-1,2.8-0.5,5.9"/>
	</g>
	<g>
		<path fill-rule="evenodd" clip-rule="evenodd" fill="none" d="M11.7,37.1c0.1-0.9,0.5-1.8,1.3-2.5c0.8-0.8,1.8-1.2,3-1.2
			c1.1,0,2.1,0.4,2.9,1.2c0.8,0.8,1.2,1.8,1.2,3c0,1.2-0.4,2.1-1.2,2.9c-0.1,0.1-0.2,0.2-0.3,0.4c-0.6,0.5-1.3,0.8-2,0.9"/>
	</g>
	<g>
		
			<path fill-rule="evenodd" clip-rule="evenodd" fill="none" stroke="#FFFFFF" stroke-linecap="round" stroke-linejoin="round" stroke-miterlimit="3" d="
			M17,34.1l-0.3-1.8l-2.4-11.9 M16.7,32.4l-0.3-14.7l-2.6-17"/>
	</g>
</g>
</svg>
