<?xml version="1.0" encoding="utf-8"?>
<!-- Generator: Adobe Illustrator 16.0.0, SVG Export Plug-In . SVG Version: 6.00 Build 0)  -->
<!DOCTYPE svg PUBLIC "-//W3C//DTD SVG 1.1//EN" "http://www.w3.org/Graphics/SVG/1.1/DTD/svg11.dtd">
<svg version="1.1" id="Layer_1" xmlns="http://www.w3.org/2000/svg" xmlns:xlink="http://www.w3.org/1999/xlink" x="0px" y="0px"
	 width="32.3px" height="8.2px" viewBox="0 0 32.3 8.2" enable-background="new 0 0 32.3 8.2" xml:space="preserve">
<g>
	<g>
		<g>
			<g>
				
					<linearGradient id="SVGID_1_" gradientUnits="userSpaceOnUse" x1="-638.6514" y1="-377.3413" x2="-590.355" y2="-377.3413" gradientTransform="matrix(-0.9959 -9.006902e-002 0.4857 -0.9602 -420.3066 -416.0386)">
					<stop  offset="0" style="stop-color:#FFFFFF"/>
					<stop  offset="1" style="stop-color:#000000"/>
				</linearGradient>
				<path fill-rule="evenodd" clip-rule="evenodd" fill="url(#SVGID_1_)" d="M0.6,2.3c0-0.4,1.6-0.8,4.6-1.1c3.1-0.3,6.8-0.4,11-0.4
					s8,0.1,11,0.4c3,0.3,4.6,0.7,4.6,1.1c0,0.4-1.6,0.8-4.6,1s-6.7,0.5-11,0.5s-8-0.2-11-0.5C2.1,3.1,0.6,2.7,0.6,2.3z"/>
				<linearGradient id="SVGID_2_" gradientUnits="userSpaceOnUse" x1="0.5664" y1="5.0435" x2="31.8169" y2="5.0435">
					<stop  offset="0" style="stop-color:#2C2C2C"/>
					<stop  offset="6.666666e-002" style="stop-color:#8C8C8C"/>
					<stop  offset="0.1569" style="stop-color:#FFFFFF"/>
					<stop  offset="0.2078" style="stop-color:#A2A2A2"/>
					<stop  offset="0.3373" style="stop-color:#F7F7F7"/>
					<stop  offset="0.4627" style="stop-color:#DDDDDD"/>
					<stop  offset="0.5804" style="stop-color:#FFFFFF"/>
					<stop  offset="0.8" style="stop-color:#5E5E5E"/>
					<stop  offset="0.898" style="stop-color:#292929"/>
					<stop  offset="1" style="stop-color:#848484"/>
				</linearGradient>
				<path fill-rule="evenodd" clip-rule="evenodd" fill="url(#SVGID_2_)" d="M31.8,2.3v4c0,0.4-1.6,0.7-4.6,1c-3,0.3-6.7,0.4-11,0.4
					s-8-0.1-11-0.4c-3-0.3-4.6-0.6-4.6-1v-4c0,0.4,1.6,0.8,4.6,1c3.1,0.3,6.8,0.5,11,0.5s8-0.2,11-0.5S31.8,2.7,31.8,2.3z"/>
			</g>
		</g>
		<g>
			<path fill-rule="evenodd" clip-rule="evenodd" d="M14.3,2.4c-0.5,0-0.8-0.1-0.8-0.2c0-0.1,0.3-0.1,0.8-0.2c0.6,0,1.2,0,1.9,0
				c0.8,0,1.4,0,1.9,0c0.5,0.1,0.8,0.1,0.8,0.2c0,0.1-0.3,0.1-0.8,0.2c-0.5,0.1-1.1,0.1-1.9,0.1C15.5,2.5,14.8,2.4,14.3,2.4z"/>
		</g>
	</g>
</g>
</svg>
