<?xml version="1.0" encoding="utf-8"?>
<!-- Generator: Adobe Illustrator 16.0.0, SVG Export Plug-In . SVG Version: 6.00 Build 0)  -->
<!DOCTYPE svg PUBLIC "-//W3C//DTD SVG 1.1//EN" "http://www.w3.org/Graphics/SVG/1.1/DTD/svg11.dtd">
<svg version="1.1" xmlns="http://www.w3.org/2000/svg" xmlns:xlink="http://www.w3.org/1999/xlink" x="0px" y="0px" width="700px"
	 height="700px" viewBox="0 0 700 700" enable-background="new 0 0 700 700" xml:space="preserve">
<g id="Layer_1">
	<g id="Layer_6">
		<rect x="-7.7" y="15.5" fill="#010102" width="715.5" height="691.7"/>
	</g>
	<g id="Layer_1_1_">
		
			<linearGradient id="SVGID_1_" gradientUnits="userSpaceOnUse" x1="548.71" y1="566.6289" x2="548.71" y2="-27.6592" gradientTransform="matrix(1 0 0 -1 -44.96 641.8398)">
			<stop  offset="0" style="stop-color:#9FACD3"/>
			<stop  offset="0.9839" style="stop-color:#7D7F8C"/>
		</linearGradient>
		<rect x="382.2" y="69.5" fill="url(#SVGID_1_)" width="243.1" height="611.5"/>
	</g>
	<g id="Layer_3">
		<g>
			<g>
				<g>
					<g>
						
							<radialGradient id="SVGID_2_" cx="244.8374" cy="275.9678" r="338.2852" fx="251.4705" fy="275.9678" gradientTransform="matrix(1 0 0 -1 -44.96 641.8398)" gradientUnits="userSpaceOnUse">
							<stop  offset="0" style="stop-color:#7D8286"/>
							<stop  offset="0.1961" style="stop-color:#7D8286"/>
							<stop  offset="0.6314" style="stop-color:#6D7482"/>
							<stop  offset="1" style="stop-color:#343C46"/>
						</radialGradient>
						<path fill="url(#SVGID_2_)" d="M235.8,434.6c-4.7-28.9-11.5-52.7-20.4-71.3c-25.6-53.2-68.6-66.8-129.1-40.9V162l149.5,5
							V434.6z"/>
						
							<radialGradient id="SVGID_3_" cx="244.8374" cy="275.9678" r="338.2852" fx="251.4705" fy="275.9678" gradientTransform="matrix(1 0 0 -1 -44.96 641.8398)" gradientUnits="userSpaceOnUse">
							<stop  offset="0" style="stop-color:#7D8286"/>
							<stop  offset="0.1961" style="stop-color:#7D8286"/>
							<stop  offset="0.6314" style="stop-color:#6D7482"/>
							<stop  offset="1" style="stop-color:#343C46"/>
						</radialGradient>
						<path fill="url(#SVGID_3_)" d="M235.8,434.6c-4.7-28.9-11.5-52.7-20.4-71.3c-25.6-53.2-68.6-66.8-129.1-40.9V162l149.5,5
							V434.6z"/>
						
							<linearGradient id="SVGID_4_" gradientUnits="userSpaceOnUse" x1="154.0063" y1="477.3398" x2="478.2136" y2="477.3398" gradientTransform="matrix(1 0 0 -1 -44.96 641.8398)">
							<stop  offset="0" style="stop-color:#555861"/>
							<stop  offset="0.5725" style="stop-color:#D2D7DD"/>
							<stop  offset="0.9725" style="stop-color:#9599A2"/>
						</linearGradient>
						<polygon fill="url(#SVGID_4_)" points="86.2,162 420.2,162 235.8,167 						"/>
						
							<linearGradient id="SVGID_5_" gradientUnits="userSpaceOnUse" x1="154.0063" y1="477.3398" x2="478.2136" y2="477.3398" gradientTransform="matrix(1 0 0 -1 -44.96 641.8398)">
							<stop  offset="0" style="stop-color:#555861"/>
							<stop  offset="0.5725" style="stop-color:#D2D7DD"/>
							<stop  offset="0.9725" style="stop-color:#9599A2"/>
						</linearGradient>
						<polygon fill="url(#SVGID_5_)" points="86.2,162 420.2,162 235.8,167 						"/>
						
							<linearGradient id="SVGID_6_" gradientUnits="userSpaceOnUse" x1="253.4404" y1="195.8848" x2="211.3339" y2="186.3705" gradientTransform="matrix(1 0 0 -1 -44.96 641.8398)">
							<stop  offset="0" style="stop-color:#7F878A"/>
							<stop  offset="1" style="stop-color:#7D8286"/>
						</linearGradient>
						<path fill="url(#SVGID_6_)" d="M235.8,434.6v159.5l-150-6.5v-23.9c0-35.5,0-59.8,0-72.8c0-1.7,0-3.2,0-4.5v-12h0.5v-152
							c60.5-25.9,103.5-12.3,129.1,40.9C224.3,382,231.1,405.7,235.8,434.6z"/>
						
							<linearGradient id="SVGID_7_" gradientUnits="userSpaceOnUse" x1="253.4404" y1="195.8848" x2="211.3339" y2="186.3705" gradientTransform="matrix(1 0 0 -1 -44.96 641.8398)">
							<stop  offset="0" style="stop-color:#7F878A"/>
							<stop  offset="1" style="stop-color:#7D8286"/>
						</linearGradient>
						<path fill="url(#SVGID_7_)" d="M235.8,434.6v159.5l-150-6.5v-23.9c0-35.5,0-59.8,0-72.8c0-1.7,0-3.2,0-4.5v-12h0.5v-152
							c60.5-25.9,103.5-12.3,129.1,40.9C224.3,382,231.1,405.7,235.8,434.6z"/>
						
							<linearGradient id="SVGID_8_" gradientUnits="userSpaceOnUse" x1="310.8257" y1="255.3496" x2="389.8155" y2="262.9018" gradientTransform="matrix(1 0 0 -1 -44.96 641.8398)">
							<stop  offset="0" style="stop-color:#6C6D70"/>
							<stop  offset="1" style="stop-color:#8B8F98"/>
						</linearGradient>
						<polygon fill="url(#SVGID_8_)" points="235.8,594.1 235.8,434.6 235.8,167 420.2,162 420.2,594.1 						"/>
						
							<linearGradient id="SVGID_9_" gradientUnits="userSpaceOnUse" x1="310.8257" y1="255.3496" x2="389.8155" y2="262.9018" gradientTransform="matrix(1 0 0 -1 -44.96 641.8398)">
							<stop  offset="0" style="stop-color:#6C6D70"/>
							<stop  offset="1" style="stop-color:#8B8F98"/>
						</linearGradient>
						<polygon fill="url(#SVGID_9_)" points="235.8,594.1 235.8,434.6 235.8,167 420.2,162 420.2,594.1 						"/>
						
							<line fill="none" stroke="#929290" stroke-linecap="round" stroke-linejoin="round" stroke-miterlimit="3" x1="420.2" y1="162" x2="235.8" y2="167"/>
						
							<line fill="none" stroke="#929290" stroke-linecap="round" stroke-linejoin="round" stroke-miterlimit="3" x1="420.2" y1="162" x2="235.8" y2="167"/>
					</g>
				</g>
				<g>
					<line fill="none" x1="235.8" y1="181.5" x2="235.8" y2="580.2"/>
				</g>
				<g>
					<g>
						<g>
							<path fill="#010202" d="M175.4,187.9c0.7,1,1.5,1.7,2.5,2c0.3,0.7,0.7,1.2,1,1.5c7.3,7.6,11,16.4,11,26.4
								c0,9-2.8,16.8-8.5,23.4c-1.7,1.3-2.8,2.7-3.5,4c-3,3-5.6,5.1-8,6.5c-1.3,0.7-2.8,1.2-4.5,1.5v0.5c-2.6,1-5.5,1.8-8.5,2.5
								c-1,0.3-1.8,0.5-2.5,0.5c-1,0-2.3-0.2-4-0.5c-5-1-9.8-3-14.4-6c-1.7-0.7-3-1.5-4-2.5c-0.7-1-1.5-1.8-2.5-2.5
								c-0.7-0.3-1.2-1-1.5-2c-6.3-7-9.5-15.5-9.5-25.4c0-8,2.2-15.1,6.5-21.4c1-2.3,2.5-4.5,4.5-6.5c1-0.3,1.8-1,2.5-2
								c0.7-0.3,1.2-0.8,1.5-1.5c3.3-2.3,7.1-4.3,11.5-6h1c1.3-0.7,2.8-1.2,4.5-1.5c1,0,2,0,3,0c0.7,0,1.2,0,1.5,0
								c2.3,0,4.7,0.5,7,1.5c3.3,0.7,7,2.3,11,5c0,0.3,0.3,0.7,1,1C174,187.1,174.5,187.6,175.4,187.9z M178.4,239.3l0.5-1h-0.5
								l-0.5,1H178.4z M133.6,244.8c4.3-6,3.5-7-2.5-3C131.1,243.4,131.9,244.4,133.6,244.8z M141.1,213.4c0.3,4,2.6,5.5,7,4.5
								c5.6-1,7.3-4.1,5-9.5C148.4,198.7,144.4,200.4,141.1,213.4z"/>
						</g>
					</g>
					<g>
						<g>
							<g>
								
									<radialGradient id="SVGID_10_" cx="178.5469" cy="421.0029" r="54.573" gradientTransform="matrix(1 0 0 -1 -44.96 641.8398)" gradientUnits="userSpaceOnUse">
									<stop  offset="0" style="stop-color:#8F929B"/>
									<stop  offset="0.6196" style="stop-color:#69687A"/>
									<stop  offset="0.8" style="stop-color:#3D3C45"/>
									<stop  offset="0.9922" style="stop-color:#2F2A1C"/>
								</radialGradient>
								<path fill="url(#SVGID_10_)" d="M175.4,192.4c0.7,0,1.5,0.5,2.5,1.5c5.6,7,8.5,15,8.5,23.9c0,9-2.5,16.5-7.5,22.4v1
									c-1.3,1.3-2.5,2.5-3.5,3.5c-1.3,1.3-2.6,2.5-4,3.5c-1,1-2,2-3,3c-1.3,0.3-2.8,0.8-4.5,1.5c-2.3,0.7-6.8,1.3-13.5,2
									c-6.3,0.3-12.6-2.5-18.9-8.5l-0.5-1.5c-0.7-1-1.2-1.5-1.5-1.5c0-0.3-0.3-0.5-1-0.5c-6-6.6-9-15-9-24.9
									c0-7,1.2-12.5,3.5-16.4c2-3.3,3-5.5,3-6.5l5.5-4c4.6-3.7,9-6.3,13-8c0.3-0.3,0.8-0.5,1.5-0.5c0.7-0.7,2-1,4-1
									c1,0,2.2-0.2,3.5-0.5c0,0.3,0.3,0.5,1,0.5c2.3,0,4.3,0.3,6,1c4,1,7.7,2.8,11,5.5l1.5,1c0,0.3,0.2,0.7,0.5,1
									C173.8,190.6,174.5,191.4,175.4,192.4z M176.9,237.8h-0.5v1.5C176.5,238.6,176.6,238.1,176.9,237.8z"/>
								<path fill="#2F2A1C" d="M176.9,237.8c-0.3,0.3-0.5,0.8-0.5,1.5v-1.5H176.9z"/>
							</g>
						</g>
					</g>
					<g>
						<g>
							<g>
								
									<radialGradient id="SVGID_11_" cx="194.4995" cy="436.9541" r="26.7901" gradientTransform="matrix(1 0 0 -1 -44.96 641.8398)" gradientUnits="userSpaceOnUse">
									<stop  offset="0" style="stop-color:#AAABA6;stop-opacity:0"/>
									<stop  offset="0.7255" style="stop-color:#AAABA6;stop-opacity:0"/>
									<stop  offset="1" style="stop-color:#AAABA6"/>
								</radialGradient>
								<path fill="url(#SVGID_11_)" d="M171.5,188.9c4.6,3.3,8.6,8.5,12,15.4c-3.3-4.7-9.3-6.3-17.9-5c-9,2-14.1,4.2-15.4,6.5
									c-1.3,2.7-2,4.3-2,5c-0.7,0-1-0.3-1-1v-1.5c-0.3-0.3-0.5-0.7-0.5-1c0-4.3,1-9.1,3-14.5c1.7-6.6,4.1-10,7.5-10
									C161.3,183,166.1,184.9,171.5,188.9z"/>
								
									<radialGradient id="SVGID_12_" cx="195.4956" cy="417.5117" r="49.0895" fx="206.4686" fy="417.5117" gradientTransform="matrix(1 0 0 -1 -44.96 641.8398)" gradientUnits="userSpaceOnUse">
									<stop  offset="0" style="stop-color:#020303;stop-opacity:0"/>
									<stop  offset="0" style="stop-color:#040505;stop-opacity:0"/>
									<stop  offset="0.4078" style="stop-color:#13120E;stop-opacity:0"/>
									<stop  offset="0.5961" style="stop-color:#2F2A1C;stop-opacity:0.3059"/>
									<stop  offset="1" style="stop-color:#271B1B"/>
								</radialGradient>
								<path fill="url(#SVGID_12_)" d="M147,229.3c8.3-16.3,21.4-21.3,39.4-15c0.7,20.3-9.3,33.4-29.9,39.4
									C145.5,246.8,142.4,238.6,147,229.3z"/>
							</g>
							<g>
								
									<radialGradient id="SVGID_13_" cx="761.2373" cy="-440.6914" r="13.7058" gradientTransform="matrix(4.000000e-004 -1 -1 -2.730027e-002 -296.4542 984.9972)" gradientUnits="userSpaceOnUse">
									<stop  offset="0" style="stop-color:#FFFFFF"/>
									<stop  offset="0.4078" style="stop-color:#FFFFFF;stop-opacity:0.1686"/>
									<stop  offset="0.8" style="stop-color:#FFFFFF;stop-opacity:0"/>
									<stop  offset="1" style="stop-color:#FBFBFB;stop-opacity:0"/>
								</radialGradient>
								<path fill="url(#SVGID_13_)" d="M154.5,245.3c-2.7,2.7-5.8,4-9.5,4c-3.3,0-6.3-1.5-9-4.5s-4-6.3-4-10c0-3.7,1.3-6.6,4-9
									c2.6-2.7,5.6-4,9-4c3.7,0,6.8,1.5,9.5,4.5c2.7,2.3,4,5.5,4,9.5C158.5,239.4,157.2,242.6,154.5,245.3z"/>
							</g>
						</g>
					</g>
					<g>
						<g>
							<g>
								<g>
									<path fill="#999BA4" d="M175.4,194.4l6.5,3v0.5c-1,0.7-1.7,1-2,1c-24.2,3.7-40.2,15.4-47.8,35.4c0,0.3-0.3,2-1,5l-4.5-6.5
										C136.2,210.5,152.5,197.7,175.4,194.4z"/>
								</g>
							</g>
						</g>
						<g>
							<g>
								<g>
									<g>
										<path fill="#010202" d="M134.6,236.3c0.3,0.3,0,1.7-1,4l-4-4.5c8.3-22.9,24.1-36.6,47.3-40.9l6.5,4c-0.7,0.7-1.2,1-1.5,1
											C158,204.2,142.2,216.4,134.6,236.3z"/>
									</g>
								</g>
							</g>
						</g>
					</g>
					<g>
						<path fill="#FFFFFF" d="M158,218.3c-2,0-3.2-1.2-3.5-3.5c-0.7-4.7,1.3-7.5,6-8.5C169.5,214,168.6,218,158,218.3z"/>
					</g>
				</g>
				<g>
					<g>
						<g>
							<path fill="#010202" d="M136.6,454.6c0.3-0.3,0.5-0.8,0.5-1.5c1-0.3,2.3-1.3,4-3c0.3-0.3,1-1,2-2c1,0.7,1.5,0.7,1.5,0
								c1.7-1,3.7-2,6-3c4-0.7,8.1-0.7,12.5,0c0.3,0,1,0,2,0c0.3,0,0.8,0,1.5,0c1.3,1,2.2,1.5,2.5,1.5c1,0,1.8,0,2.5,0
								c10,3.3,17.3,9.5,21.9,18.4c4.3,7.6,6,15.8,5,24.4c0,1.7-0.5,3.5-1.5,5.5c-0.7,3-1.8,6.1-3.5,9.5c-0.7,0.7-1.3,1.5-2,2.5v1
								c-2.7,2.3-4.8,4.3-6.5,6c-1,0.7-2,1.5-3,2.5c-0.3,0.3-1,0.5-2,0.5c-5.6,2.3-11.1,3-16.4,2c-2,0-3.3,0-4,0c-1-0.3-2-0.5-3-0.5
								c-1-0.3-2-0.5-3-0.5c-9-3.3-16.1-9.3-21.4-17.9c-3.7-7-5.1-14.1-4.5-21.4c-0.7-3.3-0.5-6.1,0.5-8.5c0.3-0.3,0.8-1.2,1.5-2.5
								c0-0.7,0.2-1.5,0.5-2.5C131.4,461.4,133.6,457.9,136.6,454.6z M159.5,516.4c0.3-7.3-1.2-8.1-4.5-2.5c1,1.7,2.2,2.5,3.5,2.5
								H159.5z M149.5,485c2.7,3,5.5,3.3,8.5,1c4.7-4,4.3-7.6-1-11C148.7,469.4,146.2,472.7,149.5,485z M195.4,489.5
								c-0.3-0.7-0.5-1.2-0.5-1.5h-1c0.6,0,0.6,0.2,0,0.5L195.4,489.5z"/>
						</g>
					</g>
					<g>
						<g>
							<g>
								
									<radialGradient id="SVGID_14_" cx="191.9976" cy="146.875" r="54.6485" gradientTransform="matrix(1 0 0 -1 -44.96 641.8398)" gradientUnits="userSpaceOnUse">
									<stop  offset="0" style="stop-color:#8F929B"/>
									<stop  offset="0.6196" style="stop-color:#69687A"/>
									<stop  offset="0.8" style="stop-color:#3D3C45"/>
									<stop  offset="0.9922" style="stop-color:#2F2A1C"/>
								</radialGradient>
								<path fill="url(#SVGID_14_)" d="M163,447.6c0.7,0.3,1.3,0.3,2,0c0.3,0.3,1,0.8,2,1.5c0.7,0,1.3,0,2,0s1.5,0.2,2.5,0.5
									c9,3,15.8,8.5,20.4,16.5c4.3,7.6,6,15.4,5,23.4v0.5c-0.7,1.3-1.2,3-1.5,5c0,2-0.7,3.7-2,5c0,1.3-0.3,2.5-1,3.5
									c-0.7,1.3-1.5,2.5-2.5,3.5c-2,2-5.6,4.8-11,8.5c-5,4.3-12,5.2-20.9,2.5c-0.7,0-1.2-0.3-1.5-1c-0.7-0.3-1.2-0.5-1.5-0.5
									s-0.8,0-1.5,0c-8-3-14.6-8.6-19.9-16.9c-3.7-6.3-5.3-11.6-5-15.9l-0.5-6l2-8c2.3-5.6,5-10,8-13c0.3-0.3,0.5-0.8,0.5-1.5
									c1-0.3,2-1.2,3-2.5c1-0.7,2-1.2,3-1.5c0.3-0.7,0.8-1,1.5-1c1.7-0.7,3.6-1.3,6-2C155.4,447.1,159,446.9,163,447.6z
									 M193.4,488l-1,0.5c0.7,0.7,0.7,1,0,1h1.5C193.6,489.5,193.4,489,193.4,488z"/>
								<path fill="#2F2A1C" d="M193.4,488c0,1,0.2,1.5,0.5,1.5h-1.5c0.7,0,0.7-0.3,0-1L193.4,488z"/>
							</g>
						</g>
					</g>
					<g>
						<g>
							<g>
								
									<radialGradient id="SVGID_15_" cx="197.9878" cy="168.3223" r="26.6283" gradientTransform="matrix(1 0 0 -1 -44.96 641.8398)" gradientUnits="userSpaceOnUse">
									<stop  offset="0" style="stop-color:#AAABA6;stop-opacity:0"/>
									<stop  offset="0.7255" style="stop-color:#AAABA6;stop-opacity:0"/>
									<stop  offset="1" style="stop-color:#AAABA6"/>
								</radialGradient>
								<path fill="url(#SVGID_15_)" d="M148.5,450.1c3.3-2.3,8.3-3,15-2c6.3,1,12.5,3.3,18.4,7c-5.3-2.3-11.3-0.7-17.9,5
									c-6.3,6.3-9.8,10.8-10.5,13.5c0.7,3.3,1.2,5,1.5,5h-1.5L153,478c-0.7-0.3-1.2-0.8-1.5-1.5c-2-3.6-3.7-8.1-5-13.5
									C145.2,456.4,145.9,452.1,148.5,450.1z"/>
								
									<radialGradient id="SVGID_16_" cx="208.9468" cy="152.3765" r="49.019" fx="219.904" fy="152.3765" gradientTransform="matrix(1 0 0 -1 -44.96 641.8398)" gradientUnits="userSpaceOnUse">
									<stop  offset="0" style="stop-color:#020303;stop-opacity:0"/>
									<stop  offset="0" style="stop-color:#040505;stop-opacity:0"/>
									<stop  offset="0.4078" style="stop-color:#13120E;stop-opacity:0"/>
									<stop  offset="0.5961" style="stop-color:#2F2A1C;stop-opacity:0.3059"/>
									<stop  offset="1" style="stop-color:#271B1B"/>
								</radialGradient>
								<path fill="url(#SVGID_16_)" d="M163,495c-1-17.6,8-28.4,26.9-32.4c10.6,17.9,8.5,34.7-6.5,50.3
									C170.5,511.9,163.7,505.9,163,495z"/>
							</g>
							<g>
								
									<radialGradient id="SVGID_17_" cx="361.4775" cy="-659.6128" r="13.6819" gradientTransform="matrix(-0.501 -0.8654 -0.8836 0.4828 -238.2763 1133.2083)" gradientUnits="userSpaceOnUse">
									<stop  offset="0" style="stop-color:#FFFFFF"/>
									<stop  offset="0.4078" style="stop-color:#FFFFFF;stop-opacity:0.1686"/>
									<stop  offset="0.8" style="stop-color:#FFFFFF;stop-opacity:0"/>
									<stop  offset="1" style="stop-color:#FBFBFB;stop-opacity:0"/>
								</radialGradient>
								<path fill="url(#SVGID_17_)" d="M176.9,505.4c-0.3,3.3-2.2,5.8-5.5,7.5c-3.3,1.7-7,2-11,1c-3.3-0.7-5.8-2.7-7.5-6
									c-2-3.3-2.5-6.6-1.5-10c1-4,3.2-6.6,6.5-8c3.3-2,6.3-2.2,9-0.5c4,1,7.1,2.8,9.5,5.5C178.1,498.3,178.3,501.8,176.9,505.4z"
									/>
							</g>
						</g>
					</g>
					<g>
						<g>
							<g>
								<g>
									<path fill="#999BA4" d="M170,451.6l8-0.5v0.5c0,1-0.5,1.5-1.5,1.5c-19.6,15.3-27.4,33.6-23.4,54.8c0,0.3,0.2,1.5,0.5,3.5
										l-6.5-2C144.4,485.2,152,465.9,170,451.6z"/>
								</g>
							</g>
						</g>
						<g>
							<g>
								<g>
									<g>
										<path fill="#010202" d="M171.5,451.6l7.5-1.5v1.5c0,0.7-0.2,1.2-0.5,1.5c-18.9,15.6-26.6,33.9-22.9,54.8
											c0,0.3,0.5,1.5,1.5,3.5l-6.5-2C146.5,485.2,153.5,465.9,171.5,451.6z"/>
									</g>
								</g>
							</g>
						</g>
					</g>
					<g>
						<path fill="#FFFFFF" d="M163,480c-3.3-4.3-3.2-8.1,0.5-11.5c11.3,2,12.5,6.1,3.5,12.5C165,481.7,163.7,481.3,163,480z"/>
					</g>
				</g>
			</g>
		</g>
	</g>
	<g id="Layer_4">
		<line fill="none" stroke="#010202" stroke-miterlimit="10" x1="419.3" y1="560.8" x2="342.5" y2="560.8"/>
		<line fill="none" stroke="#010202" stroke-miterlimit="10" x1="419.3" y1="196" x2="342.5" y2="196"/>
		<line fill="none" stroke="#010202" stroke-miterlimit="10" x1="419.3" y1="203.3" x2="382.5" y2="203.3"/>
		<line fill="none" stroke="#010202" stroke-miterlimit="10" x1="419.3" y1="210.6" x2="382.5" y2="210.6"/>
		<line fill="none" stroke="#010202" stroke-miterlimit="10" x1="419.3" y1="217.9" x2="382.5" y2="217.9"/>
		<line fill="none" stroke="#010202" stroke-miterlimit="10" x1="419.3" y1="225.2" x2="382.5" y2="225.2"/>
		<line fill="none" stroke="#010202" stroke-miterlimit="10" x1="419.3" y1="232.5" x2="362.5" y2="232.5"/>
		<line fill="none" stroke="#010202" stroke-miterlimit="10" x1="419.3" y1="239.8" x2="382.5" y2="239.8"/>
		<line fill="none" stroke="#010202" stroke-miterlimit="10" x1="419.3" y1="247.1" x2="382.5" y2="247.1"/>
		<line fill="none" stroke="#010202" stroke-miterlimit="10" x1="419.3" y1="254.4" x2="382.5" y2="254.4"/>
		<line fill="none" stroke="#010202" stroke-miterlimit="10" x1="419.3" y1="261.7" x2="382.5" y2="261.7"/>
		<line fill="none" stroke="#010202" stroke-miterlimit="10" x1="419.3" y1="269" x2="342.5" y2="269"/>
		<line fill="none" stroke="#010202" stroke-miterlimit="10" x1="419.3" y1="276.3" x2="382.5" y2="276.3"/>
		<line fill="none" stroke="#010202" stroke-miterlimit="10" x1="419.3" y1="283.6" x2="382.5" y2="283.6"/>
		<line fill="none" stroke="#010202" stroke-miterlimit="10" x1="419.3" y1="290.9" x2="382.5" y2="290.9"/>
		<line fill="none" stroke="#010202" stroke-miterlimit="10" x1="419.3" y1="298.2" x2="382.5" y2="298.2"/>
		<line fill="none" stroke="#010202" stroke-miterlimit="10" x1="419.3" y1="305.5" x2="362.5" y2="305.5"/>
		<line fill="none" stroke="#010202" stroke-miterlimit="10" x1="419.3" y1="312.8" x2="382.5" y2="312.8"/>
		<line fill="none" stroke="#010202" stroke-miterlimit="10" x1="419.3" y1="320.1" x2="382.5" y2="320.1"/>
		<line fill="none" stroke="#010202" stroke-miterlimit="10" x1="419.3" y1="327.4" x2="382.5" y2="327.4"/>
		<line fill="none" stroke="#010202" stroke-miterlimit="10" x1="419.3" y1="334.7" x2="382.5" y2="334.7"/>
		<line fill="none" stroke="#010202" stroke-miterlimit="10" x1="419.3" y1="342" x2="342.5" y2="342"/>
		<line fill="none" stroke="#010202" stroke-miterlimit="10" x1="419.3" y1="349.3" x2="382.5" y2="349.3"/>
		<line fill="none" stroke="#010202" stroke-miterlimit="10" x1="419.3" y1="356.6" x2="382.5" y2="356.6"/>
		<line fill="none" stroke="#010202" stroke-miterlimit="10" x1="419.3" y1="363.8" x2="382.5" y2="363.8"/>
		<line fill="none" stroke="#010202" stroke-miterlimit="10" x1="419.3" y1="371.1" x2="382.5" y2="371.1"/>
		<line fill="none" stroke="#010202" stroke-miterlimit="10" x1="419.3" y1="378.4" x2="362.5" y2="378.4"/>
		<line fill="none" stroke="#010202" stroke-miterlimit="10" x1="419.3" y1="385.7" x2="382.5" y2="385.7"/>
		<line fill="none" stroke="#010202" stroke-miterlimit="10" x1="419.3" y1="393" x2="382.5" y2="393"/>
		<line fill="none" stroke="#010202" stroke-miterlimit="10" x1="419.3" y1="400.3" x2="382.5" y2="400.3"/>
		<line fill="none" stroke="#010202" stroke-miterlimit="10" x1="419.3" y1="407.6" x2="382.5" y2="407.6"/>
		<line fill="none" stroke="#010202" stroke-miterlimit="10" x1="419.3" y1="414.9" x2="342.5" y2="414.9"/>
		<line fill="none" stroke="#010202" stroke-miterlimit="10" x1="419.3" y1="422.2" x2="382.5" y2="422.2"/>
		<line fill="none" stroke="#010202" stroke-miterlimit="10" x1="419.3" y1="429.5" x2="382.5" y2="429.5"/>
		<line fill="none" stroke="#010202" stroke-miterlimit="10" x1="419.3" y1="436.8" x2="382.5" y2="436.8"/>
		<line fill="none" stroke="#010202" stroke-miterlimit="10" x1="419.3" y1="444.1" x2="382.5" y2="444.1"/>
		<line fill="none" stroke="#010202" stroke-miterlimit="10" x1="419.3" y1="451.4" x2="362.5" y2="451.4"/>
		<line fill="none" stroke="#010202" stroke-miterlimit="10" x1="419.3" y1="458.7" x2="382.5" y2="458.7"/>
		<line fill="none" stroke="#010202" stroke-miterlimit="10" x1="419.3" y1="466" x2="382.5" y2="466"/>
		<line fill="none" stroke="#010202" stroke-miterlimit="10" x1="419.3" y1="473.3" x2="382.5" y2="473.3"/>
		<line fill="none" stroke="#010202" stroke-miterlimit="10" x1="419.3" y1="480.6" x2="382.5" y2="480.6"/>
		<line fill="none" stroke="#010202" stroke-miterlimit="10" x1="419.3" y1="487.9" x2="342.5" y2="487.9"/>
		<line fill="none" stroke="#010202" stroke-miterlimit="10" x1="419.3" y1="495.2" x2="382.5" y2="495.2"/>
		<line fill="none" stroke="#010202" stroke-miterlimit="10" x1="419.3" y1="502.5" x2="382.5" y2="502.5"/>
		<line fill="none" stroke="#010202" stroke-miterlimit="10" x1="419.3" y1="509.8" x2="382.5" y2="509.8"/>
		<line fill="none" stroke="#010202" stroke-miterlimit="10" x1="419.3" y1="517.1" x2="382.5" y2="517.1"/>
		<line fill="none" stroke="#010202" stroke-miterlimit="10" x1="419.3" y1="524.4" x2="362.5" y2="524.4"/>
		<line fill="none" stroke="#010202" stroke-miterlimit="10" x1="419.3" y1="531.7" x2="382.5" y2="531.7"/>
		<line fill="none" stroke="#010202" stroke-miterlimit="10" x1="419.3" y1="539" x2="382.5" y2="539"/>
		<line fill="none" stroke="#010202" stroke-miterlimit="10" x1="419.3" y1="546.3" x2="382.5" y2="546.3"/>
		<line fill="none" stroke="#010202" stroke-miterlimit="10" x1="419.3" y1="553.6" x2="382.5" y2="553.6"/>
	</g>
	<g id="Layer_7">
		<g>
			
				<linearGradient id="SVGID_18_" gradientUnits="userSpaceOnUse" x1="394.6602" y1="628.8584" x2="394.6601" y2="-69.1668" gradientTransform="matrix(1 0 0 -1 -44.96 641.8398)">
				<stop  offset="0" style="stop-color:#454430"/>
				<stop  offset="0.9839" style="stop-color:#97856E"/>
			</linearGradient>
			<path fill="url(#SVGID_18_)" d="M-17.3-3.5v712.2h734V-3.5H-17.3z M619.7,634.8H90.6V78.4h529.2L619.7,634.8L619.7,634.8z"/>
		</g>
	</g>
	<g id="Layer_8">
		<rect x="90.6" y="78.4" fill="none" stroke="#EBEBBB" stroke-width="5" stroke-miterlimit="10" width="531.2" height="556.4"/>
	</g>
</g>
<g id="Layer_2">
	<g>
		<path d="M330.6,559.2c0,8.8-3.3,13.7-9,13.7c-5.1,0-8.5-4.8-8.6-13.4c0-8.7,3.8-13.5,9-13.5C327.5,546.1,330.6,550.9,330.6,559.2z
			 M316.5,559.6c0,6.8,2.1,10.6,5.3,10.6c3.6,0,5.3-4.2,5.3-10.8c0-6.4-1.6-10.6-5.3-10.6C318.7,548.8,316.5,552.5,316.5,559.6z"/>
	</g>
	<g>
		<path d="M320.9,476.8L320.9,476.8l-4.6,2.4l-0.7-2.7l5.7-3h3v26h-3.4V476.8z"/>
	</g>
	<g>
		<path d="M313.3,427.5v-2.2l2.8-2.7c6.6-6.3,9.6-9.7,9.7-13.6c0-2.6-1.3-5.1-5.2-5.1c-2.4,0-4.3,1.2-5.5,2.2l-1.1-2.5
			c1.8-1.5,4.4-2.6,7.4-2.6c5.6,0,8,3.8,8,7.6c0,4.8-3.5,8.7-9,14l-2.1,1.9v0.1h11.7v2.9H313.3z"/>
	</g>
	<g>
		<path d="M314.1,350.5c1,0.6,3.3,1.6,5.8,1.6c4.5,0,5.9-2.9,5.9-5c0-3.6-3.3-5.2-6.7-5.2h-2v-2.6h2c2.6,0,5.8-1.3,5.8-4.4
			c0-2.1-1.3-3.9-4.6-3.9c-2.1,0-4.1,0.9-5.2,1.7l-0.9-2.6c1.4-1,4-2,6.8-2c5.1,0,7.4,3,7.4,6.2c0,2.7-1.6,5-4.8,6.1v0.1
			c3.2,0.6,5.8,3,5.8,6.7c0,4.2-3.2,7.8-9.5,7.8c-2.9,0-5.5-0.9-6.8-1.8L314.1,350.5z"/>
	</g>
	<g>
		<path d="M324.2,281.5v-7.1h-12.1v-2.3l11.6-16.6h3.8v16.2h3.6v2.8h-3.6v7.1H324.2z M324.2,271.7V263c0-1.4,0-2.7,0.1-4.1h-0.1
			c-0.8,1.5-1.4,2.6-2.2,3.8l-6.4,8.8v0.1H324.2z"/>
	</g>
	<g>
		<path d="M328.8,185.5h-9.9l-1,6.7c0.6-0.1,1.2-0.2,2.1-0.2c2,0,4,0.4,5.6,1.4c2,1.2,3.7,3.4,3.7,6.7c0,5.1-4,8.9-9.7,8.9
			c-2.8,0-5.2-0.8-6.5-1.6l0.9-2.7c1.1,0.6,3.2,1.4,5.6,1.4c3.3,0,6.2-2.2,6.2-5.6c0-3.4-2.3-5.8-7.5-5.8c-1.5,0-2.6,0.2-3.6,0.3
			l1.7-12.5h12.4V185.5z"/>
	</g>
</g>
</svg>
