<?xml version="1.0" encoding="utf-8"?>
<!-- Generator: Adobe Illustrator 16.0.0, SVG Export Plug-In . SVG Version: 6.00 Build 0)  -->
<!DOCTYPE svg PUBLIC "-//W3C//DTD SVG 1.1//EN" "http://www.w3.org/Graphics/SVG/1.1/DTD/svg11.dtd">
<svg version="1.1" id="Layer_1" xmlns="http://www.w3.org/2000/svg" xmlns:xlink="http://www.w3.org/1999/xlink" x="0px" y="0px"
	 width="183.8px" height="1872px" viewBox="0 0 183.8 1872" enable-background="new 0 0 183.8 1872" xml:space="preserve">
<line fill="#0E0E0E" stroke="#010202" stroke-miterlimit="10" x1="123.1" y1="1816.8" x2="0" y2="1816.8"/>
<line fill="#0E0E0E" stroke="#010202" stroke-miterlimit="10" x1="49" y1="1809.4" x2="0" y2="1809.4"/>
<line fill="#0E0E0E" stroke="#010202" stroke-miterlimit="10" x1="75.6" y1="1802" x2="0" y2="1802"/>
<line fill="#0E0E0E" stroke="#010202" stroke-miterlimit="10" x1="49" y1="1794.5" x2="0" y2="1794.5"/>
<line fill="#0E0E0E" stroke="#010202" stroke-miterlimit="10" x1="75.6" y1="1787.1" x2="0" y2="1787.1"/>
<line fill="#0E0E0E" stroke="#010202" stroke-miterlimit="10" x1="49" y1="1779.6" x2="0" y2="1779.6"/>
<line fill="#0E0E0E" stroke="#010202" stroke-miterlimit="10" x1="75.6" y1="1772.2" x2="0" y2="1772.2"/>
<line fill="#0E0E0E" stroke="#010202" stroke-miterlimit="10" x1="49" y1="1764.7" x2="0" y2="1764.7"/>
<line fill="#0E0E0E" stroke="#010202" stroke-miterlimit="10" x1="75.6" y1="1757.3" x2="0" y2="1757.3"/>
<line fill="#0E0E0E" stroke="#010202" stroke-miterlimit="10" x1="49" y1="1749.8" x2="0" y2="1749.8"/>
<line fill="#0E0E0E" stroke="#010202" stroke-miterlimit="10" x1="103.3" y1="1742.4" x2="0" y2="1742.4"/>
<line fill="#0E0E0E" stroke="#010202" stroke-miterlimit="10" x1="49" y1="1735" x2="0" y2="1735"/>
<line fill="#0E0E0E" stroke="#010202" stroke-miterlimit="10" x1="75.6" y1="1727.5" x2="0" y2="1727.5"/>
<line fill="#0E0E0E" stroke="#010202" stroke-miterlimit="10" x1="49" y1="1720.1" x2="0" y2="1720.1"/>
<line fill="#0E0E0E" stroke="#010202" stroke-miterlimit="10" x1="75.6" y1="1712.6" x2="0" y2="1712.6"/>
<line fill="#0E0E0E" stroke="#010202" stroke-miterlimit="10" x1="49" y1="1705.2" x2="0" y2="1705.2"/>
<line fill="#0E0E0E" stroke="#010202" stroke-miterlimit="10" x1="75.6" y1="1697.7" x2="0" y2="1697.7"/>
<line fill="#0E0E0E" stroke="#010202" stroke-miterlimit="10" x1="49" y1="1690.3" x2="0" y2="1690.3"/>
<line fill="#0E0E0E" stroke="#010202" stroke-miterlimit="10" x1="75.6" y1="1682.8" x2="0" y2="1682.8"/>
<line fill="#0E0E0E" stroke="#010202" stroke-miterlimit="10" x1="49" y1="1675.4" x2="0" y2="1675.4"/>
<line fill="#0E0E0E" stroke="#010202" stroke-miterlimit="10" x1="123.1" y1="1667.9" x2="0" y2="1667.9"/>
<line fill="#0E0E0E" stroke="#010202" stroke-miterlimit="10" x1="49" y1="1660.5" x2="0" y2="1660.5"/>
<line fill="#0E0E0E" stroke="#010202" stroke-miterlimit="10" x1="75.6" y1="1653.1" x2="0" y2="1653.1"/>
<line fill="#0E0E0E" stroke="#010202" stroke-miterlimit="10" x1="49" y1="1645.6" x2="0" y2="1645.6"/>
<line fill="#0E0E0E" stroke="#010202" stroke-miterlimit="10" x1="75.6" y1="1638.2" x2="0" y2="1638.2"/>
<line fill="#0E0E0E" stroke="#010202" stroke-miterlimit="10" x1="49" y1="1630.7" x2="0" y2="1630.7"/>
<line fill="#0E0E0E" stroke="#010202" stroke-miterlimit="10" x1="75.6" y1="1623.3" x2="0" y2="1623.3"/>
<line fill="#0E0E0E" stroke="#010202" stroke-miterlimit="10" x1="49" y1="1615.8" x2="0" y2="1615.8"/>
<line fill="#0E0E0E" stroke="#010202" stroke-miterlimit="10" x1="75.6" y1="1608.4" x2="0" y2="1608.4"/>
<line fill="#0E0E0E" stroke="#010202" stroke-miterlimit="10" x1="49" y1="1600.9" x2="0" y2="1600.9"/>
<line fill="#0E0E0E" stroke="#010202" stroke-miterlimit="10" x1="103.3" y1="1593.5" x2="0" y2="1593.5"/>
<line fill="#0E0E0E" stroke="#010202" stroke-miterlimit="10" x1="49" y1="1586" x2="0" y2="1586"/>
<line fill="#0E0E0E" stroke="#010202" stroke-miterlimit="10" x1="75.6" y1="1578.6" x2="0" y2="1578.6"/>
<line fill="#0E0E0E" stroke="#010202" stroke-miterlimit="10" x1="49" y1="1571.2" x2="0" y2="1571.2"/>
<line fill="#0E0E0E" stroke="#010202" stroke-miterlimit="10" x1="75.6" y1="1563.7" x2="0" y2="1563.7"/>
<line fill="#0E0E0E" stroke="#010202" stroke-miterlimit="10" x1="49" y1="1556.3" x2="0" y2="1556.3"/>
<line fill="#0E0E0E" stroke="#010202" stroke-miterlimit="10" x1="75.6" y1="1548.8" x2="0" y2="1548.8"/>
<line fill="#0E0E0E" stroke="#010202" stroke-miterlimit="10" x1="49" y1="1541.4" x2="0" y2="1541.4"/>
<line fill="#0E0E0E" stroke="#010202" stroke-miterlimit="10" x1="75.6" y1="1533.9" x2="0" y2="1533.9"/>
<line fill="#0E0E0E" stroke="#010202" stroke-miterlimit="10" x1="49" y1="1526.5" x2="0" y2="1526.5"/>
<line fill="#0E0E0E" stroke="#010202" stroke-miterlimit="10" x1="123.1" y1="1519" x2="0" y2="1519"/>
<line fill="#0E0E0E" stroke="#010202" stroke-miterlimit="10" x1="49" y1="1511.6" x2="0" y2="1511.6"/>
<line fill="#0E0E0E" stroke="#010202" stroke-miterlimit="10" x1="75.6" y1="1504.1" x2="0" y2="1504.1"/>
<line fill="#0E0E0E" stroke="#010202" stroke-miterlimit="10" x1="49" y1="1496.7" x2="0" y2="1496.7"/>
<line fill="#0E0E0E" stroke="#010202" stroke-miterlimit="10" x1="75.6" y1="1489.3" x2="0" y2="1489.3"/>
<line fill="#0E0E0E" stroke="#010202" stroke-miterlimit="10" x1="49" y1="1481.8" x2="0" y2="1481.8"/>
<line fill="#0E0E0E" stroke="#010202" stroke-miterlimit="10" x1="75.6" y1="1474.4" x2="0" y2="1474.4"/>
<line fill="#0E0E0E" stroke="#010202" stroke-miterlimit="10" x1="49" y1="1466.9" x2="0" y2="1466.9"/>
<line fill="#0E0E0E" stroke="#010202" stroke-miterlimit="10" x1="75.6" y1="1459.5" x2="0" y2="1459.5"/>
<line fill="#0E0E0E" stroke="#010202" stroke-miterlimit="10" x1="49" y1="1452" x2="0" y2="1452"/>
<line fill="#0E0E0E" stroke="#010202" stroke-miterlimit="10" x1="103.3" y1="1444.6" x2="0" y2="1444.6"/>
<line fill="#0E0E0E" stroke="#010202" stroke-miterlimit="10" x1="49" y1="1437.1" x2="0" y2="1437.1"/>
<line fill="#0E0E0E" stroke="#010202" stroke-miterlimit="10" x1="75.6" y1="1429.7" x2="0" y2="1429.7"/>
<line fill="#0E0E0E" stroke="#010202" stroke-miterlimit="10" x1="49" y1="1422.3" x2="0" y2="1422.3"/>
<line fill="#0E0E0E" stroke="#010202" stroke-miterlimit="10" x1="75.6" y1="1414.8" x2="0" y2="1414.8"/>
<line fill="#0E0E0E" stroke="#010202" stroke-miterlimit="10" x1="49" y1="1407.4" x2="0" y2="1407.4"/>
<line fill="#0E0E0E" stroke="#010202" stroke-miterlimit="10" x1="75.6" y1="1399.9" x2="0" y2="1399.9"/>
<line fill="#0E0E0E" stroke="#010202" stroke-miterlimit="10" x1="49" y1="1392.5" x2="0" y2="1392.5"/>
<line fill="#0E0E0E" stroke="#010202" stroke-miterlimit="10" x1="75.6" y1="1385" x2="0" y2="1385"/>
<line fill="#0E0E0E" stroke="#010202" stroke-miterlimit="10" x1="49" y1="1377.6" x2="0" y2="1377.6"/>
<line fill="#0E0E0E" stroke="#010202" stroke-miterlimit="10" x1="123.1" y1="1370.1" x2="0" y2="1370.1"/>
<line fill="#0E0E0E" stroke="#010202" stroke-miterlimit="10" x1="49" y1="1362.7" x2="0" y2="1362.7"/>
<line fill="#0E0E0E" stroke="#010202" stroke-miterlimit="10" x1="75.6" y1="1355.2" x2="0" y2="1355.2"/>
<line fill="#0E0E0E" stroke="#010202" stroke-miterlimit="10" x1="49" y1="1347.8" x2="0" y2="1347.8"/>
<line fill="#0E0E0E" stroke="#010202" stroke-miterlimit="10" x1="75.6" y1="1340.4" x2="0" y2="1340.4"/>
<line fill="#0E0E0E" stroke="#010202" stroke-miterlimit="10" x1="49" y1="1332.9" x2="0" y2="1332.9"/>
<line fill="#0E0E0E" stroke="#010202" stroke-miterlimit="10" x1="75.6" y1="1325.5" x2="0" y2="1325.5"/>
<line fill="#0E0E0E" stroke="#010202" stroke-miterlimit="10" x1="49" y1="1318" x2="0" y2="1318"/>
<line fill="#0E0E0E" stroke="#010202" stroke-miterlimit="10" x1="75.6" y1="1310.6" x2="0" y2="1310.6"/>
<line fill="#0E0E0E" stroke="#010202" stroke-miterlimit="10" x1="49" y1="1303.1" x2="0" y2="1303.1"/>
<line fill="#0E0E0E" stroke="#010202" stroke-miterlimit="10" x1="103.3" y1="1295.7" x2="0" y2="1295.7"/>
<line fill="#0E0E0E" stroke="#010202" stroke-miterlimit="10" x1="49" y1="1288.2" x2="0" y2="1288.2"/>
<line fill="#0E0E0E" stroke="#010202" stroke-miterlimit="10" x1="75.6" y1="1280.8" x2="0" y2="1280.8"/>
<line fill="#0E0E0E" stroke="#010202" stroke-miterlimit="10" x1="49" y1="1273.3" x2="0" y2="1273.3"/>
<line fill="#0E0E0E" stroke="#010202" stroke-miterlimit="10" x1="75.6" y1="1265.9" x2="0" y2="1265.9"/>
<line fill="#0E0E0E" stroke="#010202" stroke-miterlimit="10" x1="49" y1="1258.5" x2="0" y2="1258.5"/>
<line fill="#0E0E0E" stroke="#010202" stroke-miterlimit="10" x1="75.6" y1="1251" x2="0" y2="1251"/>
<line fill="#0E0E0E" stroke="#010202" stroke-miterlimit="10" x1="49" y1="1243.6" x2="0" y2="1243.6"/>
<line fill="#0E0E0E" stroke="#010202" stroke-miterlimit="10" x1="75.6" y1="1236.1" x2="0" y2="1236.1"/>
<line fill="#0E0E0E" stroke="#010202" stroke-miterlimit="10" x1="49" y1="1228.7" x2="0" y2="1228.7"/>
<line fill="#0E0E0E" stroke="#010202" stroke-miterlimit="10" x1="123.1" y1="1221.2" x2="0" y2="1221.2"/>
<line fill="#0E0E0E" stroke="#010202" stroke-miterlimit="10" x1="49" y1="1213.8" x2="0" y2="1213.8"/>
<line fill="#0E0E0E" stroke="#010202" stroke-miterlimit="10" x1="75.6" y1="1206.3" x2="0" y2="1206.3"/>
<line fill="#0E0E0E" stroke="#010202" stroke-miterlimit="10" x1="49" y1="1198.9" x2="0" y2="1198.9"/>
<line fill="#0E0E0E" stroke="#010202" stroke-miterlimit="10" x1="75.6" y1="1191.4" x2="0" y2="1191.4"/>
<line fill="#0E0E0E" stroke="#010202" stroke-miterlimit="10" x1="49" y1="1184" x2="0" y2="1184"/>
<line fill="#0E0E0E" stroke="#010202" stroke-miterlimit="10" x1="75.6" y1="1176.6" x2="0" y2="1176.6"/>
<line fill="#0E0E0E" stroke="#010202" stroke-miterlimit="10" x1="49" y1="1169.1" x2="0" y2="1169.1"/>
<line fill="#0E0E0E" stroke="#010202" stroke-miterlimit="10" x1="75.6" y1="1161.7" x2="0" y2="1161.7"/>
<line fill="#0E0E0E" stroke="#010202" stroke-miterlimit="10" x1="49" y1="1154.2" x2="0" y2="1154.2"/>
<line fill="#0E0E0E" stroke="#010202" stroke-miterlimit="10" x1="103.3" y1="1146.8" x2="0" y2="1146.8"/>
<line fill="#0E0E0E" stroke="#010202" stroke-miterlimit="10" x1="49" y1="1139.3" x2="0" y2="1139.3"/>
<line fill="#0E0E0E" stroke="#010202" stroke-miterlimit="10" x1="75.6" y1="1131.9" x2="0" y2="1131.9"/>
<line fill="#0E0E0E" stroke="#010202" stroke-miterlimit="10" x1="49" y1="1124.4" x2="0" y2="1124.4"/>
<line fill="#0E0E0E" stroke="#010202" stroke-miterlimit="10" x1="75.6" y1="1117" x2="0" y2="1117"/>
<line fill="#0E0E0E" stroke="#010202" stroke-miterlimit="10" x1="49" y1="1109.6" x2="0" y2="1109.6"/>
<line fill="#0E0E0E" stroke="#010202" stroke-miterlimit="10" x1="75.6" y1="1102.1" x2="0" y2="1102.1"/>
<line fill="#0E0E0E" stroke="#010202" stroke-miterlimit="10" x1="49" y1="1094.7" x2="0" y2="1094.7"/>
<line fill="#0E0E0E" stroke="#010202" stroke-miterlimit="10" x1="75.6" y1="1087.2" x2="0" y2="1087.2"/>
<line fill="#0E0E0E" stroke="#010202" stroke-miterlimit="10" x1="49" y1="1079.8" x2="0" y2="1079.8"/>
<line fill="#0E0E0E" stroke="#010202" stroke-miterlimit="10" x1="123.1" y1="1072.3" x2="0" y2="1072.3"/>
<line fill="#0E0E0E" stroke="#010202" stroke-miterlimit="10" x1="49" y1="1064.9" x2="0" y2="1064.9"/>
<line fill="#0E0E0E" stroke="#010202" stroke-miterlimit="10" x1="75.6" y1="1057.4" x2="0" y2="1057.4"/>
<line fill="#0E0E0E" stroke="#010202" stroke-miterlimit="10" x1="49" y1="1050" x2="0" y2="1050"/>
<line fill="#0E0E0E" stroke="#010202" stroke-miterlimit="10" x1="75.6" y1="1042.5" x2="0" y2="1042.5"/>
<line fill="#0E0E0E" stroke="#010202" stroke-miterlimit="10" x1="49" y1="1035.1" x2="0" y2="1035.1"/>
<line fill="#0E0E0E" stroke="#010202" stroke-miterlimit="10" x1="75.6" y1="1027.7" x2="0" y2="1027.7"/>
<line fill="#0E0E0E" stroke="#010202" stroke-miterlimit="10" x1="49" y1="1020.2" x2="0" y2="1020.2"/>
<line fill="#0E0E0E" stroke="#010202" stroke-miterlimit="10" x1="75.6" y1="1012.8" x2="0" y2="1012.8"/>
<line fill="#0E0E0E" stroke="#010202" stroke-miterlimit="10" x1="49" y1="1005.3" x2="0" y2="1005.3"/>
<line fill="#0E0E0E" stroke="#010202" stroke-miterlimit="10" x1="103.3" y1="997.9" x2="0" y2="997.9"/>
<line fill="#0E0E0E" stroke="#010202" stroke-miterlimit="10" x1="49" y1="990.4" x2="0" y2="990.4"/>
<line fill="#0E0E0E" stroke="#010202" stroke-miterlimit="10" x1="75.6" y1="983" x2="0" y2="983"/>
<line fill="#0E0E0E" stroke="#010202" stroke-miterlimit="10" x1="49" y1="975.5" x2="0" y2="975.5"/>
<line fill="#0E0E0E" stroke="#010202" stroke-miterlimit="10" x1="75.6" y1="968.1" x2="0" y2="968.1"/>
<line fill="#0E0E0E" stroke="#010202" stroke-miterlimit="10" x1="49" y1="960.6" x2="0" y2="960.6"/>
<line fill="#0E0E0E" stroke="#010202" stroke-miterlimit="10" x1="75.6" y1="953.2" x2="0" y2="953.2"/>
<line fill="#0E0E0E" stroke="#010202" stroke-miterlimit="10" x1="49" y1="945.8" x2="0" y2="945.8"/>
<line fill="#0E0E0E" stroke="#010202" stroke-miterlimit="10" x1="75.6" y1="938.3" x2="0" y2="938.3"/>
<line fill="#0E0E0E" stroke="#010202" stroke-miterlimit="10" x1="49" y1="930.9" x2="0" y2="930.9"/>
<line fill="#0E0E0E" stroke="#010202" stroke-miterlimit="10" x1="123.1" y1="923.4" x2="0" y2="923.4"/>
<line fill="#0E0E0E" stroke="#010202" stroke-miterlimit="10" x1="49" y1="916" x2="0" y2="916"/>
<line fill="#0E0E0E" stroke="#010202" stroke-miterlimit="10" x1="75.6" y1="908.5" x2="0" y2="908.5"/>
<line fill="#0E0E0E" stroke="#010202" stroke-miterlimit="10" x1="49" y1="901.1" x2="0" y2="901.1"/>
<line fill="#0E0E0E" stroke="#010202" stroke-miterlimit="10" x1="75.6" y1="893.6" x2="0" y2="893.6"/>
<line fill="#0E0E0E" stroke="#010202" stroke-miterlimit="10" x1="49" y1="886.2" x2="0" y2="886.2"/>
<line fill="#0E0E0E" stroke="#010202" stroke-miterlimit="10" x1="75.6" y1="878.7" x2="0" y2="878.7"/>
<line fill="#0E0E0E" stroke="#010202" stroke-miterlimit="10" x1="49" y1="871.3" x2="0" y2="871.3"/>
<line fill="#0E0E0E" stroke="#010202" stroke-miterlimit="10" x1="75.6" y1="863.9" x2="0" y2="863.9"/>
<line fill="#0E0E0E" stroke="#010202" stroke-miterlimit="10" x1="49" y1="856.4" x2="0" y2="856.4"/>
<line fill="#0E0E0E" stroke="#010202" stroke-miterlimit="10" x1="103.3" y1="849" x2="0" y2="849"/>
<line fill="#0E0E0E" stroke="#010202" stroke-miterlimit="10" x1="49" y1="841.5" x2="0" y2="841.5"/>
<line fill="#0E0E0E" stroke="#010202" stroke-miterlimit="10" x1="75.6" y1="834.1" x2="0" y2="834.1"/>
<line fill="#0E0E0E" stroke="#010202" stroke-miterlimit="10" x1="49" y1="826.6" x2="0" y2="826.6"/>
<line fill="#0E0E0E" stroke="#010202" stroke-miterlimit="10" x1="75.6" y1="819.2" x2="0" y2="819.2"/>
<line fill="#0E0E0E" stroke="#010202" stroke-miterlimit="10" x1="49" y1="811.7" x2="0" y2="811.7"/>
<line fill="#0E0E0E" stroke="#010202" stroke-miterlimit="10" x1="75.6" y1="804.3" x2="0" y2="804.3"/>
<line fill="#0E0E0E" stroke="#010202" stroke-miterlimit="10" x1="49" y1="796.9" x2="0" y2="796.9"/>
<line fill="#0E0E0E" stroke="#010202" stroke-miterlimit="10" x1="75.6" y1="789.4" x2="0" y2="789.4"/>
<line fill="#0E0E0E" stroke="#010202" stroke-miterlimit="10" x1="49" y1="782" x2="0" y2="782"/>
<line fill="#0E0E0E" stroke="#010202" stroke-miterlimit="10" x1="123.1" y1="774.5" x2="0" y2="774.5"/>
<line fill="#0E0E0E" stroke="#010202" stroke-miterlimit="10" x1="49" y1="767.1" x2="0" y2="767.1"/>
<line fill="#0E0E0E" stroke="#010202" stroke-miterlimit="10" x1="75.6" y1="759.6" x2="0" y2="759.6"/>
<line fill="#0E0E0E" stroke="#010202" stroke-miterlimit="10" x1="49" y1="752.2" x2="0" y2="752.2"/>
<line fill="#0E0E0E" stroke="#010202" stroke-miterlimit="10" x1="75.6" y1="744.7" x2="0" y2="744.7"/>
<line fill="#0E0E0E" stroke="#010202" stroke-miterlimit="10" x1="49" y1="737.3" x2="0" y2="737.3"/>
<line fill="#0E0E0E" stroke="#010202" stroke-miterlimit="10" x1="75.6" y1="729.8" x2="0" y2="729.8"/>
<line fill="#0E0E0E" stroke="#010202" stroke-miterlimit="10" x1="49" y1="722.4" x2="0" y2="722.4"/>
<line fill="#0E0E0E" stroke="#010202" stroke-miterlimit="10" x1="75.6" y1="715" x2="0" y2="715"/>
<line fill="#0E0E0E" stroke="#010202" stroke-miterlimit="10" x1="49" y1="707.5" x2="0" y2="707.5"/>
<line fill="#0E0E0E" stroke="#010202" stroke-miterlimit="10" x1="103.3" y1="700.1" x2="0" y2="700.1"/>
<line fill="#0E0E0E" stroke="#010202" stroke-miterlimit="10" x1="49" y1="692.6" x2="0" y2="692.6"/>
<line fill="#0E0E0E" stroke="#010202" stroke-miterlimit="10" x1="75.6" y1="685.2" x2="0" y2="685.2"/>
<line fill="#0E0E0E" stroke="#010202" stroke-miterlimit="10" x1="49" y1="677.7" x2="0" y2="677.7"/>
<line fill="#0E0E0E" stroke="#010202" stroke-miterlimit="10" x1="75.6" y1="670.3" x2="0" y2="670.3"/>
<line fill="#0E0E0E" stroke="#010202" stroke-miterlimit="10" x1="49" y1="662.8" x2="0" y2="662.8"/>
<line fill="#0E0E0E" stroke="#010202" stroke-miterlimit="10" x1="75.6" y1="655.4" x2="0" y2="655.4"/>
<line fill="#0E0E0E" stroke="#010202" stroke-miterlimit="10" x1="49" y1="647.9" x2="0" y2="647.9"/>
<line fill="#0E0E0E" stroke="#010202" stroke-miterlimit="10" x1="75.6" y1="640.5" x2="0" y2="640.5"/>
<line fill="#0E0E0E" stroke="#010202" stroke-miterlimit="10" x1="49" y1="633.1" x2="0" y2="633.1"/>
<line fill="#0E0E0E" stroke="#010202" stroke-miterlimit="10" x1="123.1" y1="625.6" x2="0" y2="625.6"/>
<line fill="#0E0E0E" stroke="#010202" stroke-miterlimit="10" x1="49" y1="618.2" x2="0" y2="618.2"/>
<line fill="#0E0E0E" stroke="#010202" stroke-miterlimit="10" x1="75.6" y1="610.7" x2="0" y2="610.7"/>
<line fill="#0E0E0E" stroke="#010202" stroke-miterlimit="10" x1="49" y1="603.3" x2="0" y2="603.3"/>
<line fill="#0E0E0E" stroke="#010202" stroke-miterlimit="10" x1="75.6" y1="595.8" x2="0" y2="595.8"/>
<line fill="#0E0E0E" stroke="#010202" stroke-miterlimit="10" x1="49" y1="588.4" x2="0" y2="588.4"/>
<line fill="#0E0E0E" stroke="#010202" stroke-miterlimit="10" x1="75.6" y1="580.9" x2="0" y2="580.9"/>
<line fill="#0E0E0E" stroke="#010202" stroke-miterlimit="10" x1="49" y1="573.5" x2="0" y2="573.5"/>
<line fill="#0E0E0E" stroke="#010202" stroke-miterlimit="10" x1="75.6" y1="566" x2="0" y2="566"/>
<line fill="#0E0E0E" stroke="#010202" stroke-miterlimit="10" x1="49" y1="558.6" x2="0" y2="558.6"/>
<line fill="#0E0E0E" stroke="#010202" stroke-miterlimit="10" x1="103.3" y1="551.2" x2="0" y2="551.2"/>
<line fill="#0E0E0E" stroke="#010202" stroke-miterlimit="10" x1="49" y1="543.7" x2="0" y2="543.7"/>
<line fill="#0E0E0E" stroke="#010202" stroke-miterlimit="10" x1="75.6" y1="536.3" x2="0" y2="536.3"/>
<line fill="#0E0E0E" stroke="#010202" stroke-miterlimit="10" x1="49" y1="528.8" x2="0" y2="528.8"/>
<line fill="#0E0E0E" stroke="#010202" stroke-miterlimit="10" x1="75.6" y1="521.4" x2="0" y2="521.4"/>
<line fill="#0E0E0E" stroke="#010202" stroke-miterlimit="10" x1="49" y1="513.9" x2="0" y2="513.9"/>
<line fill="#0E0E0E" stroke="#010202" stroke-miterlimit="10" x1="75.6" y1="506.5" x2="0" y2="506.5"/>
<line fill="#0E0E0E" stroke="#010202" stroke-miterlimit="10" x1="49" y1="499" x2="0" y2="499"/>
<line fill="#0E0E0E" stroke="#010202" stroke-miterlimit="10" x1="75.6" y1="491.6" x2="0" y2="491.6"/>
<line fill="#0E0E0E" stroke="#010202" stroke-miterlimit="10" x1="49" y1="484.2" x2="0" y2="484.2"/>
<line fill="#0E0E0E" stroke="#010202" stroke-miterlimit="10" x1="123.1" y1="476.7" x2="0" y2="476.7"/>
<line fill="#0E0E0E" stroke="#010202" stroke-miterlimit="10" x1="49" y1="469.3" x2="0" y2="469.3"/>
<line fill="#0E0E0E" stroke="#010202" stroke-miterlimit="10" x1="75.6" y1="461.8" x2="0" y2="461.8"/>
<line fill="#0E0E0E" stroke="#010202" stroke-miterlimit="10" x1="49" y1="454.4" x2="0" y2="454.4"/>
<line fill="#0E0E0E" stroke="#010202" stroke-miterlimit="10" x1="75.6" y1="446.9" x2="0" y2="446.9"/>
<line fill="#0E0E0E" stroke="#010202" stroke-miterlimit="10" x1="49" y1="439.5" x2="0" y2="439.5"/>
<line fill="#0E0E0E" stroke="#010202" stroke-miterlimit="10" x1="75.6" y1="432" x2="0" y2="432"/>
<line fill="#0E0E0E" stroke="#010202" stroke-miterlimit="10" x1="49" y1="424.6" x2="0" y2="424.6"/>
<line fill="#0E0E0E" stroke="#010202" stroke-miterlimit="10" x1="75.6" y1="417.1" x2="0" y2="417.1"/>
<line fill="#0E0E0E" stroke="#010202" stroke-miterlimit="10" x1="49" y1="409.7" x2="0" y2="409.7"/>
<line fill="#0E0E0E" stroke="#010202" stroke-miterlimit="10" x1="103.3" y1="402.3" x2="0" y2="402.3"/>
<line fill="#0E0E0E" stroke="#010202" stroke-miterlimit="10" x1="49" y1="394.8" x2="0" y2="394.8"/>
<line fill="#0E0E0E" stroke="#010202" stroke-miterlimit="10" x1="75.6" y1="387.4" x2="0" y2="387.4"/>
<line fill="#0E0E0E" stroke="#010202" stroke-miterlimit="10" x1="49" y1="379.9" x2="0" y2="379.9"/>
<line fill="#0E0E0E" stroke="#010202" stroke-miterlimit="10" x1="75.6" y1="372.5" x2="0" y2="372.5"/>
<line fill="#0E0E0E" stroke="#010202" stroke-miterlimit="10" x1="49" y1="365" x2="0" y2="365"/>
<line fill="#0E0E0E" stroke="#010202" stroke-miterlimit="10" x1="75.6" y1="357.6" x2="0" y2="357.6"/>
<line fill="#0E0E0E" stroke="#010202" stroke-miterlimit="10" x1="49" y1="350.1" x2="0" y2="350.1"/>
<line fill="#0E0E0E" stroke="#010202" stroke-miterlimit="10" x1="75.6" y1="342.7" x2="0" y2="342.7"/>
<line fill="#0E0E0E" stroke="#010202" stroke-miterlimit="10" x1="49" y1="335.2" x2="0" y2="335.2"/>
<line fill="#0E0E0E" stroke="#010202" stroke-miterlimit="10" x1="123.1" y1="327.8" x2="0" y2="327.8"/>
<line fill="#0E0E0E" stroke="#010202" stroke-miterlimit="10" x1="49" y1="320.4" x2="0" y2="320.4"/>
<line fill="#0E0E0E" stroke="#010202" stroke-miterlimit="10" x1="75.6" y1="312.9" x2="0" y2="312.9"/>
<line fill="#0E0E0E" stroke="#010202" stroke-miterlimit="10" x1="49" y1="305.5" x2="0" y2="305.5"/>
<line fill="#0E0E0E" stroke="#010202" stroke-miterlimit="10" x1="75.6" y1="298" x2="0" y2="298"/>
<line fill="#0E0E0E" stroke="#010202" stroke-miterlimit="10" x1="49" y1="290.6" x2="0" y2="290.6"/>
<line fill="#0E0E0E" stroke="#010202" stroke-miterlimit="10" x1="75.6" y1="283.1" x2="0" y2="283.1"/>
<line fill="#0E0E0E" stroke="#010202" stroke-miterlimit="10" x1="49" y1="275.7" x2="0" y2="275.7"/>
<line fill="#0E0E0E" stroke="#010202" stroke-miterlimit="10" x1="75.6" y1="268.2" x2="0" y2="268.2"/>
<line fill="#0E0E0E" stroke="#010202" stroke-miterlimit="10" x1="49" y1="260.8" x2="0" y2="260.8"/>
<line fill="#0E0E0E" stroke="#010202" stroke-miterlimit="10" x1="103.3" y1="253.3" x2="0" y2="253.3"/>
<line fill="#0E0E0E" stroke="#010202" stroke-miterlimit="10" x1="49" y1="245.9" x2="0" y2="245.9"/>
<line fill="#0E0E0E" stroke="#010202" stroke-miterlimit="10" x1="75.6" y1="238.5" x2="0" y2="238.5"/>
<line fill="#0E0E0E" stroke="#010202" stroke-miterlimit="10" x1="49" y1="231" x2="0" y2="231"/>
<line fill="#0E0E0E" stroke="#010202" stroke-miterlimit="10" x1="75.6" y1="223.6" x2="0" y2="223.6"/>
<line fill="#0E0E0E" stroke="#010202" stroke-miterlimit="10" x1="49" y1="216.1" x2="0" y2="216.1"/>
<line fill="#0E0E0E" stroke="#010202" stroke-miterlimit="10" x1="75.6" y1="208.7" x2="0" y2="208.7"/>
<line fill="#0E0E0E" stroke="#010202" stroke-miterlimit="10" x1="49" y1="201.2" x2="0" y2="201.2"/>
<line fill="#0E0E0E" stroke="#010202" stroke-miterlimit="10" x1="75.6" y1="193.8" x2="0" y2="193.8"/>
<line fill="#0E0E0E" stroke="#010202" stroke-miterlimit="10" x1="49" y1="186.3" x2="0" y2="186.3"/>
<line fill="#0E0E0E" stroke="#010202" stroke-miterlimit="10" x1="123.1" y1="178.9" x2="0" y2="178.9"/>
<line fill="#0E0E0E" stroke="#010202" stroke-miterlimit="10" x1="49" y1="171.5" x2="0" y2="171.5"/>
<line fill="#0E0E0E" stroke="#010202" stroke-miterlimit="10" x1="75.6" y1="164" x2="0" y2="164"/>
<line fill="#0E0E0E" stroke="#010202" stroke-miterlimit="10" x1="49" y1="156.6" x2="0" y2="156.6"/>
<line fill="#0E0E0E" stroke="#010202" stroke-miterlimit="10" x1="75.6" y1="149.1" x2="0" y2="149.1"/>
<line fill="#0E0E0E" stroke="#010202" stroke-miterlimit="10" x1="49" y1="141.7" x2="0" y2="141.7"/>
<line fill="#0E0E0E" stroke="#010202" stroke-miterlimit="10" x1="75.6" y1="134.2" x2="0" y2="134.2"/>
<line fill="#0E0E0E" stroke="#010202" stroke-miterlimit="10" x1="49" y1="126.8" x2="0" y2="126.8"/>
<line fill="#0E0E0E" stroke="#010202" stroke-miterlimit="10" x1="75.6" y1="119.3" x2="0" y2="119.3"/>
<line fill="#0E0E0E" stroke="#010202" stroke-miterlimit="10" x1="49" y1="111.9" x2="0" y2="111.9"/>
<line fill="#0E0E0E" stroke="#010202" stroke-miterlimit="10" x1="103.3" y1="104.4" x2="0" y2="104.4"/>
<line fill="#0E0E0E" stroke="#010202" stroke-miterlimit="10" x1="49" y1="97" x2="0" y2="97"/>
<line fill="#0E0E0E" stroke="#010202" stroke-miterlimit="10" x1="75.6" y1="89.6" x2="0" y2="89.6"/>
<line fill="#0E0E0E" stroke="#010202" stroke-miterlimit="10" x1="49" y1="82.1" x2="0" y2="82.1"/>
<line fill="#0E0E0E" stroke="#010202" stroke-miterlimit="10" x1="75.6" y1="74.7" x2="0" y2="74.7"/>
<line fill="#0E0E0E" stroke="#010202" stroke-miterlimit="10" x1="49" y1="67.2" x2="0" y2="67.2"/>
<line fill="#0E0E0E" stroke="#010202" stroke-miterlimit="10" x1="75.6" y1="59.8" x2="0" y2="59.8"/>
<line fill="#0E0E0E" stroke="#010202" stroke-miterlimit="10" x1="49" y1="52.3" x2="0" y2="52.3"/>
<line fill="#0E0E0E" stroke="#010202" stroke-miterlimit="10" x1="75.6" y1="44.9" x2="0" y2="44.9"/>
<line fill="#0E0E0E" stroke="#010202" stroke-miterlimit="10" x1="49" y1="37.4" x2="0" y2="37.4"/>
<line fill="#0E0E0E" stroke="#010202" stroke-miterlimit="10" x1="123.1" y1="30" x2="0" y2="30"/>
<text transform="matrix(1 0 0 1 131.3052 1829.6104)" font-family="'MyriadPro-Semibold'" font-size="42">0</text>
<text transform="matrix(1 0 0 1 131.3052 1680.6104)" font-family="'MyriadPro-Semibold'" font-size="42">1</text>
<text transform="matrix(1 0 0 1 131.3052 1531.6104)" font-family="'MyriadPro-Semibold'" font-size="42">2</text>
<text transform="matrix(1 0 0 1 131.3052 1382.6104)" font-family="'MyriadPro-Semibold'" font-size="42">3</text>
<text transform="matrix(1 0 0 1 131.3052 1233.6104)" font-family="'MyriadPro-Semibold'" font-size="42">4</text>
<text transform="matrix(1 0 0 1 131.3052 1084.6104)" font-family="'MyriadPro-Semibold'" font-size="42">5</text>
<text transform="matrix(1 0 0 1 131.3052 935.6104)" font-family="'MyriadPro-Semibold'" font-size="42">6</text>
<text transform="matrix(1 0 0 1 131.3052 786.6104)" font-family="'MyriadPro-Semibold'" font-size="42">7</text>
<text transform="matrix(1 0 0 1 131.3052 637.6104)" font-family="'MyriadPro-Semibold'" font-size="42">8</text>
<text transform="matrix(1 0 0 1 131.3052 489.6104)" font-family="'MyriadPro-Semibold'" font-size="42">9</text>
<text transform="matrix(1 0 0 1 131.3052 339.6104)" font-family="'MyriadPro-Semibold'" font-size="42">10</text>
<text transform="matrix(1 0 0 1 131.3052 190.6104)" font-family="'MyriadPro-Semibold'" font-size="42">11</text>
<text transform="matrix(1 0 0 1 131.3052 41.6104)" font-family="'MyriadPro-Semibold'" font-size="42">12</text>
</svg>
