<?xml version="1.0" encoding="utf-8"?>
<!-- Generator: Adobe Illustrator 16.0.0, SVG Export Plug-In . SVG Version: 6.00 Build 0)  -->
<!DOCTYPE svg PUBLIC "-//W3C//DTD SVG 1.1//EN" "http://www.w3.org/Graphics/SVG/1.1/DTD/svg11.dtd">
<svg version="1.1" xmlns="http://www.w3.org/2000/svg" xmlns:xlink="http://www.w3.org/1999/xlink" x="0px" y="0px" width="358px"
	 height="411.7px" viewBox="0 0 358 411.7" enable-background="new 0 0 358 411.7" xml:space="preserve">
<g id="Layer_2">
	<rect y="0.9" fill="#5E4228" width="358" height="416.1"/>
</g>
<g id="Layer_1">
	<g>
		<g>
			<path fill-rule="evenodd" clip-rule="evenodd" fill="#5E4228" d="M359,86.8c0,5,0,10,0,15c-9.2-1.6-18.5-2.4-27.9-2
				c-0.8,0-1.7,0.1-2.5,0c-1.1-0.1-2.1,0.4-2.1,1.4c-0.1,1.2,1,1.6,2.1,1.6c2.8,0,5.6,0,8.5,0c7.3,0,14.6,0,21.9,0
				c0,8.7,0,17.3,0,26c-1.1-0.4-2.2-1.7-3.1-0.9c-5.6,4.7-12.3,2.4-18.5,3c-1.2,0.1-2.8-0.9-3.3,1.1c-0.2,0.8-0.4,1.8,0.3,2.4
				c1.1,1,2.4,0.5,3.7,0.1c6.9-2.2,14-1.5,21-1.6c0,3.7,0,7.3,0,11c-1.5-1.3-3.4-1-5.2-1c-9,0.2-18-0.6-26.8-2.8
				c-2.9-0.7-6-0.1-8.9-0.2c-5.8-0.3-11.1-1.5-14.3-7.2c-0.7-1.2-2.1-1-3.1-0.5c-1.1,0.5-0.9,1.8-0.2,2.6c1.4,1.6,2.7,2.8,1.8,5.6
				c-0.7,2,1.7,3.6,3.5,2.1c2.1-1.9,3.6-0.7,5.3,0c5.9,2.3,12.1,1.3,18.2,1.5c1.7,0.1,3.7-0.8,4,2.2c0.1,1.5,1.7,1.9,3.1,1.8
				c7.6-0.7,15.1,1.1,22.6,1c0,7,0,14,0,21c-4.1,0.1-8.1,1.6-12.2,1c-2.3-0.3-4.5-0.1-6.8-0.8c-2.2-0.6-5.2-1.3-6.9,2
				c-0.8,1.5-2.7,0.8-4.2,0.8c-12.3,0-24.6,0-36.9,0c-2.3,0-4.9-0.5-5,3.1c-1.7,2.1-7,2.8-8.3,0.9c-1.4-2-0.4-3,1.7-4.1
				c2-1,5.6,0.3,5.9-2.4c0.4-2.5-3.2-2.3-4.8-3.5c-3.6-2.6-2.5-5.6-0.5-8.9c-4.8,1.1-6.3,3-4.7,7.1c1.6,4-0.3,6.4-2.8,8.7
				c-2.5,2.3-5.7,3.1-8.7,1.3c-2.7-1.6-6.4-0.2-8.3-2.8c-2-2.8,1.5-5.1,1.6-7.9c0.1-3.1-1.6-5.4-2.5-8c-1-2.9-0.3-3.6,2.5-3.5
				c7.3,0.1,14.7,0.1,22,0c1.5,0,3.3,0.7,4.7-0.8c-1.3-2-3.5-0.5-5.4-1.8c1.8-1.7,1.9-5.1,4.9-4.9c2.9,0.2,5.3,2.6,6.4,5.1
				c2,4.7,5.4,5.5,10,5.5c9.1,0.1,18.2-1.3,27.1,1.8c2.1,0.7,4.3-0.1,6.1-1.4c1.3-0.9,1.5-2.4,1.4-3.6c-0.1-1.8-1.8-0.8-2.8-0.9
				c-10.9-2.1-21.9-0.5-32.8-1c-1.8-0.1-3.6,0.5-5.2-0.3c-0.3-0.4-0.4-0.8-0.2-1c4.5-5.7,2.4-9.8-5.9-11.6c-3.8,0-7.6,0-11.5,0
				c-1.1,0-1.9,0.2-1.9,1.6c0,1.5,0.9,1.5,2,1.4c3.4-0.2,6.9,0.5,10.4-0.4c0.8,2.4-1,2.3-2.4,2.4c-2,0.1-4,0.1-6,0
				c-2-0.1-3.2,0.3-2.9,2.6c0.3,3.1-1.6,3.5-4.1,3.4c-6.8-0.1-13.7,0-20.5,0c-1.2,0-2.4-0.4-3.4,0.1c-1.1,0.5-2.7,0.4-2.9,2.2
				c-0.3,1.8,1.4,1.5,2.1,2.3c0.6,0.6,1.3,1,2,1.4c2.7,1.8,2.7,3.9,0.2,5.8c-4.6,3.6-4.6,4.3-0.5,8.4c2.3,2.3,4.8,4.3,4.4,8.3
				c-0.2,2.3,2,3.5,4.6,3.4c5.8-0.1,11.7-0.1,17.5,0c2.6,0,5.1,0,7.8,0.8c2.7,0.8,6.4,1.1,6-3.8c3.2,0,6.3,0.2,9.3-2
				c4.8-3.3,10.3-2.6,15.2,0c5.8,3.2,12,1.5,18,2c0.9,0.1,1.8-0.4,2-1.2c1.2-4.1,4.8-3.4,7.7-3.7c5.9-0.7,11.7,1.7,17.7,1
				c0,3.7,0,7.3,0,11c-1.7,0.5-3,1.9-4.9,2c-4.4,0.4-5-0.4-4.2-4.7c0.2-1.2,0.9-2.7-1.3-3.5c-3.6-1.2-6.8-1.3-11.1,0.4
				c3.3,1.4,6.1,0.1,8.7,1.4c-1.1,2.1-2.3,3.7-3.5,5.4c-0.7,0.9-1.4,2-0.9,3.2c0.7,1.8,2.3,3.4,0.3,5.4c-2.3,2.3-4.9,4-8.2,4.3
				c-2.5,0.2-5,0-7.5,0c-3.7,0-7.3,0-11,0c-1.4,0-2.8,0.3-2.9,2c-0.1,1.6,1.3,2.2,2.4,2.8c1.2,0.6,2.6,0.2,3.9,0.2
				c10.9,0.4,21.7-0.5,32.6-1c2.6-0.1,5.2-0.2,7.7,1c0,12.3,0,24.7,0,37c-9.8,0-19.7,0-29.5,0c-5.8,0-8.5-2.6-8.5-8.4
				c0-1.2,0-2.3,0-3.5c0-1.7-0.8-3.3-2.5-3c-2.3,0.3-1.1,1.8-0.8,3.3c0.9,3.7-1.3,7.5-5,8.5c-2,0.5-1.8,1.7-1.6,2.9
				c0.2,1.5,1.3,2.6,2.8,2c6.4-2.4,10.3,0,12.7,6.1c1,2.5,4,2.9,6,1.6c2.8-1.8,0.8-3.6-0.8-5.2c-0.5-0.5-0.8-1-0.6-2.4
				c9.1,0,18.4,0,27.6,0c0,13.3,0,26.7,0,40c-2,0.1-3.3-0.9-3-2.9c0.7-4.2-0.9-7.1-4.5-9.1c-1.7-0.9-2.1-3.2-3.9-4.1
				c-1.9-1.8-5.1-2.3-4.9-6.1c0.1-1.3-2.6-0.9-2.5-0.1c0.9,4.9-3,5.3-6,6.7c4.1,0.8,8,0.8,12,0.3c1.5,2.8,2.3,5.8,4.2,8.5
				c1.1,1.4,1.8,4-1.1,5.1c-0.2,0.5-0.6,0.8-1.1,0.9c-2-1.4-4.3-2.6-4.2-5.6c0.1-2.2-1.9-2.6-3.3-3.2c-2.7-1.1-5.7-1.4-7.8-3.8
				c-1-1.2-2.5-0.7-3.4,0.6c-0.9,1.3-0.6,2.6,0.7,3.4c1.1,0.7,2.5,1.1,3.5,1.8c1.4,1,3.2,2.4,1.9,4.5c-1,1.5-2.3,3-4.5,1.7
				c-1.9-1-4-1-5.7-0.2c-3.9,1.7-4.4,5.6-1.1,8.8c0.9,0.9,0.8,1.7,0.4,2.6c-4.8,0.6-9.6,0.2-14.4,0.2c-4.2,0-8,1.4-11.8,2.9
				c-2.2,0.9-3.8,2.1-0.3,3.7c1,0.5,2.1,0.9,2.7,2.1c0.5,1,0.9,2.4,2.4,2c1.3-0.4,0.7-1.7,0.8-2.6c0.2-2.2,1.9-2.4,3.5-3
				c4.9-1.7,9.9-2.3,15-1c7.8,1.9,15.8,0.7,23.8,1c2.8,0.1,5.6,0,8.5,0c1.4,0,2.9,0,4.3,0c0,2.3,0,4.7,0,7c-0.6,0-1-0.2-1.3-0.7
				c0.3-1.3,0.9-2.9-0.9-3.2c-1.7-0.3-3.8-0.7-5.3,0.2c-1.4,0.9-0.1,2.3,0.5,3.5c-1.2,3.4-1.3,6.7-0.8,10.4c0.5,3.4-2.8,5.5-5.8,6.9
				c-1.9-3-5-1.9-7.7-2c-2.5-0.1-5-0.1-7.4,0c-1.3,0-2.3,0.3-2.2,1.9c0.1,1.4,0.8,2.1,2.2,2.1c3,0,6,0,8.9,0c6.6,0,13.2,0,19.8,0
				c0,3.7,0,7.3,0,11c-13.3,0.8-26.3-1.6-39.3-3.8c-5.6-0.9-11.7-1.2-17.7,0.6c-2.6,0.8-5.6,0-8.4,0.2c-1.3,0.1-3.5-1.3-3.6,1.7
				c-0.1,2.8,1.8,2.1,3.4,2.2c21.9,2.1,43.8,0.5,65.7,1c0,8,0,16,0,24c-2.8,0-5.6-0.1-9.4,0.1c3.5,2,6.2,3.1,9.4,2.9
				c0,1.7,0,3.3,0,5c-0.5-0.2-0.9-0.5-1.3-0.7c-1.5-0.5-3.5-1.1-4.5,0.4c-1.1,1.4,1,2.5,1.5,4.4c-11-0.8-21.8,1.2-32.6-1.1
				c-0.3-0.1-0.7,0-1,0c-14.4,0.7-28.8-1.1-43.2-1c-1.6,0-3.3-0.6-5.1,0.9c2.6,1.9,5.7,1.4,8.3,2c13.4,2.7,27,2.3,40.5,2.1
				c12.5-0.2,24.9,1.9,37.4,2c0,10.3-0.1,20.6,0.1,31c0,2.4-0.4,3.1-3,3.1c-13.1-0.2-26.3-0.1-39.5-0.1c-103.7,0-207.4,0-311.1,0.1
				c-3.9,0-4.6-1-4.5-4.7c0.2-15.5,0.1-31,0.1-46.4c8.1,0,16.3-0.1,24.4,0c6.7,0.1,13.2,2,19.9,2.1c3.9,0,5-1.4,4.6-5
				c-0.2-1.5,0.3-3.3-1.5-3.8c-2-0.6-2.3,1.1-2.6,2.6c-0.3,1.8-1.8,1-2.8,1c-8.5,0.1-17,0.6-25.4-0.2c-5.6-0.5-11.1-0.7-16.7-0.8
				c0-8,0-16,0-24c4.2,0,8.4,0,13.8,0c-5.1-3.1-9.6-1.5-13.8-2c0-9.7,0-19.3,0-29c10.5,0,21,0.2,31.5,0.1c-4.5,2.2-5.8,4.6-4.3,9.5
				c1.5,5.1,1.3,9.7-2.7,13.6c-6.2-0.3-12.4-0.7-18.5-2.2c-0.8-0.2-1.7-0.1-2.5,0c-1.1,0.1-2.6-0.4-2.6,1.4c0,1.5,0.8,2.5,2.4,2.6
				c1,0,2,0,3,0c8,0,16,0,24,0c4.2,0.1,3.8,2.3,2.9,5.4c-1.5,5.1,1.7,8.8,6.3,7.6c1.9-0.5,3.1-1.5,1.4-3.4c-0.9-1-1.7-2-2.3-3.2
				c-2-4.5-0.9-6.2,3.9-6.4c3.9-0.2,7.9,1.1,12-1.3c-2.8-2.1-5.9-2.4-8.9-2.6c-2.8-0.1-5.7-0.2-8.5,0c-3.3,0.2-4.5-1.2-4.3-4.4
				c0.2-2.8-0.2-5.6,0.4-9.4c5.1,6.1,10.7,3.7,16.2,2.5c6-1.4,11.7-1,17.4,1.3c2.1,0.9,4.3,1.8,6.6,2c3,0.3,4.4-1.2,4.5-4
				c0.1-2.8-1.8-3.1-4-3.1c-7.3,0.1-14.6,0.1-22,0c-1.3,0-3.9,1.3-3.8-1.5c0-2.2-0.1-5.3,2.2-6.3c2.1-0.9,4.2-2.8,6.9-2.1
				c4.5-0.1,9,0.2,13.4-0.2c0.6,1.2,1.4,2.2,3,2.2c10.5,0,21.1,0,32.3,0c-2.7-4.3-7.1-4.2-10.2-4.7c-5.1-0.7-10.3-1.9-15.6-1.4
				c-1.7,0.2-3.2,0.6-4.7,1.3c-0.8-1.6-2.2-1.3-3.5-1.2c-5.9,0.3-11.9-0.8-17.8,0.9c-1.9,0.5-3.9,0.3-5.4-1.6
				c-1.4-1.9-3.5-1.7-5.4-0.9c-2,0.8-1.3,2.8-1.4,4.4c-0.1,1.6,0.2,3.2,0.7,4.8c0.6,1.8,1,3.9-0.6,5.7c-1.6,1.8-4.4,3.3-5.8,2.1
				c-1.9-1.7-4-4.9-2.4-7.5c1.9-3.3-0.1-4.7-1.9-6.1c-2.2-1.8-3.5-0.2-4.3,2c-0.4,0.9-1.4,1.3-2.5,1.3c-7.3,0-14.6,0-22,0
				c-1.1,0-1.9-1.3-3.2-1c0-4,0-8,0-12c14.7-0.4,29.4,1.1,44-1.7c-14.7,0.4-29.3-2.1-44-1.3c0-7.7,0-15.3,0-23
				c1.9,0.3,3.7-0.3,5.7,0.8c2,1.2,3.8-0.4,4.1-2.5c0.3-2.3-1.6-2.4-3.4-2.4c-2.2,0-4.3,0-6.5,0c0-3.3,0-6.7,0-10
				c4.8,0.1,9.5-0.2,14.2,0.9c7.3,1.6,10.2,7,9.8,12.5c-0.1,1.2,0,2.3,0,3.5c-0.1,2,0.9,3.4,2.9,3.1c1.9-0.3,2.5-1.7,1.9-3.7
				c-1.2-3.7-1.8-7.5-1.8-11.5c0-2.8,1.1-3.8,3.8-3.8c4.3,0.1,8.6,0,12.9-0.7c-14.5-2.1-29-3.5-43.7-3.3c0-1.7,0-3.3,0-5
				c10.2,0.1,20.3-0.4,30.5,1.3c-0.3-3.6-2-4.5-5-4.4c-8.5,0.3-17.1-0.5-25.6,1c0-14.3,0-28.7,0-43c6.1-0.2,6.6-0.8,4.6-5.8
				c-0.8-2.1-1.6-4.7,0.3-5.8c1.7-1,4.4-0.9,6.3,1.3c1.7,2,3.6,3.9,6.1,5.1c3.9,1.9,7.7,2.1,11.1-0.7c2.5-2,4.6-2.4,6.6,0.5
				c1.1,1.6,2.8,1.5,4.5,1.5c6,0,12,0.2,18-0.1c3.1-0.2,5.8,1.1,8.8,1.1c1.6,0,3.1-0.1,3.6-1.9c0.5-1.9-0.9-2.5-2.3-3.3
				c-1.6-0.9-3.2-0.8-4.8-0.8c-8.7,0-17.3-0.3-26,0.1c-8.4,0.3-16.3-0.3-23.7-4.9c-3.9-2.4-8.5-2.9-13.1-3.1c0-21.7,0-43.3,0-65
				c4.1-0.4,8.1,0.5,11.9,1.6c3.3,1,4.3-0.2,5-3c-5.6-1.5-11.3-1.7-16.9-1.5c0-16.7,0-33.3,0-50c10.4,0.4,20.7,0.7,31,1.9
				c4.3,0.5,7.3,2.8,10.1,5.6c-2.4,2.4-1.5,4,1.2,5.1c0.1,2.2,1.9,1.3,2.9,1.3c13.4,0.6,26.9,0.5,40.2,1.4
				c9.5,0.6,18.6-0.4,27.9-1.4c2.2-0.2,4.2,0.5,6.2,0.9c1-8.9,0.6-9.4-6.6-8.4c1.4,3.3,1.4,5.2-3.3,5.7c-5.6,0.7-11,0.9-16.6,0
				c-3.7-0.6-7.6-0.6-11.3,0.2c-1.5-0.9-0.3-2.6-1.1-3.6c-1.6-2.1-3.5-3.6-6.3-2c-2.9,1.7-5.7,1.7-9.1,0.6C62.8,64,58.8,64.7,55,65
				c-2.3,0.2-4.6-2.6-6.9,0C43,61.4,37.8,58,35,52c-1.4-2.9-4-3-7.7-0.7c0.4,0.7,1.1,0.5,1.7,0.5c1.7,0,3.2,0.6,2.7,2.5
				c-0.4,1.2-1.5,2.6-3.4,2.2c-9.1-1.7-18.2-0.3-27.3-0.7c0-17,0.1-34-0.1-51c0-2.5,0.6-3.1,3.1-3.1c117.3,0.1,234.6,0.1,352,0
				c2.5,0,3.2,0.5,3.1,3.1c-0.2,5-0.1,10-0.1,15c-8.9,0.6-17.4-1.1-26.1-2.8c-6-1.1-12.2-0.2-18.4-0.2c-1.7,0-2.4,1-2.5,2.4
				c-0.1,1.5,0.9,2.5,2.4,2.6c1,0.1,2,0,3,0c11.3,0,22.6,0,33.9,0c2.6,0,5.2-0.1,7.7,1c0,7.3,0,14.7,0,22c-0.3,0-0.7,0-1,0
				c-1.7,0.1-3.7-0.6-4.9,1.4c-0.4,0.6,0,1.2,0.5,1.7c1.8,1.8,3.6,0.7,5.3-0.2c0,3.3,0,6.7,0,10c-15.8,0.3-31.5-0.3-47.4-0.7
				c4.5,0.5,8.9,0.8,12.1,4.5c0.5,0.6,1.7,0.3,2.4,0.2c11-2.7,21.9,0.6,32.9,0c0,7.7,0,15.3,0,23c-1.6,0.7-4.6-1.5-4.7,1.3
				C354.2,87.7,357.3,86.4,359,86.8z"/>
			<path fill-rule="evenodd" clip-rule="evenodd" fill="#5C3F25" d="M1,297.8c8.5,2.1,17.1,0.4,25.6,1.1c1.1,0.1,2-0.8,2.3-1.6
				c0.8-2.3,2.1-3.5,4.2-1.8c1.6,1.4,4,2.9,1.9,5.9c-2.1,3,1.1,5,1.8,7.5c0.7,2.6,2.8,0,4.1-0.2c2.5-0.4,3.4-2.5,3.2-5.2
				c-0.2-2.6-1.6-4.9-1.1-7.6c0.2-1.5-0.2-3.3,1.5-3.8c1.6-0.5,3.6-1,5,0.7c2.3,2.7,4.9,1.7,7.9,1.5c6.2-0.5,12.5-1.6,18.7,0.6
				c-0.3,0-0.6,0-0.9,0c-4.7,0-9.5,0.2-14.2-0.1c-2.5-0.1-3.2,0.8-2.9,3.1c-4,0.6-7.6,1.3-8.8,6.2c-0.8,3.2,0.2,3.9,3.2,3.8
				c7.5-0.2,15,0,22.5-0.1c2.5,0,4.4,0.3,4.1,3.4c-0.3,2.5-1.2,4-4.3,3.8c-3.4-0.3-6.1-2.3-9.3-3.1c-6.3-1.5-12.6-1.5-18.9,0.7
				c-4.2,1.5-8.6,1.2-12.6-2.7c0,3.5-0.1,7.1,0,10.6c0.1,2.5,2.1,2.4,4,2.4c6.1,0,12.3-0.7,18,2.5c-4,2.6-8.3,1.3-12.4,1.5
				c-5.2,0.2-6,1.5-3.7,6.4c0.3,0.6,0.4,1.2,0.7,1.8c0.6,1.5,4.5,2.6,1.1,4.4c-2,1.1-5.2,2.2-6.9-1.8c-0.8-2.1-1.1-3.7-0.2-5.9
				c0.9-2.3,0.9-4.7-2.6-4.8c-1.2-3.2-3.9-1.6-6-2c3.4-4,3.8-8.5,2.2-13.4c-1.6-5.2-0.3-7.6,4.5-9.6c-5.1,0-10.2,0-15.3,0
				c-5.5,0-11,0-16.5,0C1,300.5,1,299.2,1,297.8z"/>
			<path fill-rule="evenodd" clip-rule="evenodd" fill="#5E4126" d="M325,291.8c0-0.5,0.1-1.4-0.1-1.4c-2.9-1.1-4.4-3.1-2.9-5.9
				c1.7-3.1,5-5.1,8.2-3.4s4.7,0.1,5.5-1.8c1.1-2.4-1.1-3.6-3.1-4.5c-1-0.4-2-1-2.8-1.7c-1.2-1-1.4-2.2-0.3-3.4
				c1-1.1,2.3-1.6,3.4-0.4c2,2.3,4.8,2.8,7.5,3.7c1.7,0.5,3.7,1.3,3.8,4.3c0,2.3,2,4.3,4.8,4.5c-1.1,2-2.9,0.8-4.4,1
				c-5.4,0.6-10.9-0.9-16.3,0.8c-1.5,0.4-3.6,0.4-3,2.8c0.4,1.6,1.4,2.6,3.5,2.5c5.1-0.2,10.2-0.1,15.3,0c3.2,0.1,3.8-1.5,3-4.1
				c0.6,0.1,1.3,0.3,1.9,0.1c1.3-0.4,3.7,1.3,3.8-1.3c0.2-3.3-2.6-1.1-3.9-1.7c2.2-2,2.9-4,0.9-6.7c-1.5-2.1-3.2-4.4-2.9-7.3
				c0.7,0,1-0.3,1-1c2.2,2.1,3.6,5,6.7,6.3c2.2,0.9,1.2,3.5,1.2,5.4c0,2.2-0.2,4.4,3,4.3c0,5,0,10,0,15c-1.3,0-2.7,0-4,0
				c0.2-3.5-1.4-5.2-5-5c-3.8,0.2-7.7-0.6-11.5,0.9c-1,0.4-2.4,0.3-3.7-0.5C331.8,291.5,328.3,291.8,325,291.8z"/>
			<path fill-rule="evenodd" clip-rule="evenodd" fill="#5B3E24" d="M1,175.8c6.1,0.1,11.9,1.8,17,4.8c3.8,2.2,7.4,3.3,11.7,3.3
				c11.3-0.2,22.6-0.1,34,0c1.3,0,2.8-0.2,3.8,0.3c1.6,0.8,4.2,1.1,3.4,3.9c-0.6,2.3-2.8,2.2-4.5,1.8c-8.8-1.9-17.7-0.5-26.6-0.9
				c-1.1-0.1-2.4,0.4-3.2-0.8c-2.8-4.3-5.2-2.4-8.6-0.3c-4.3,2.8-8.8,1-12.7-2c-1.3-1-2.5-2.2-3.5-3.5c-1.8-2.3-4.6-1.9-6.3-1
				c-1.4,0.7-0.9,3.6-0.3,5.4c2,5.7,1.8,6.1-4.3,6.3C1,187.2,1,181.5,1,175.8z"/>
			<path fill-rule="evenodd" clip-rule="evenodd" fill="#583A20" d="M359,377.8c-21.1-1.7-42.3-2.1-63.5-2.2
				c-6.9,0-13.8-1.9-20.7-2.8c-0.9-0.1-1.8,0-1.6-1.2c0.2-1.2,1.2-0.8,2-0.8c6.5,0.4,13-0.2,19.6,0.7c7.2,1,14.6-0.2,21.9,0.3
				c12.7,1,25.3,0.9,38.2,0.9c-0.2-1.6-3.1-3-1.5-4.4c1.6-1.5,3.9-0.7,5.8,0.4C359,371.8,359,374.8,359,377.8z"/>
			<path fill-rule="evenodd" clip-rule="evenodd" fill="#5C3F25" d="M327,198.8c5.2,0.2,10.4,0.5,14.4-3.9c0.7-0.8,2.4-1.6,1.6-2.8
				c-3.6-5.2,1.4-7.9,3.3-11.8c-2.7-1.2-5.4-0.1-7.9-0.7c2-2.1,9.3-2.7,11.1-0.8c1,1,0.7,2.3,0.5,3.3c-0.8,4.4,0.9,6,5.3,4.7
				c1.3-0.4,2.5-1.3,3.8-1.9c0,5.3,0,10.7,0,16c-2,0.3-3.8-0.3-5.6-1c-5.3-2.1-10.2,0.5-15.2,1.5c-3,0.6-5.8,0.3-8.7,0.5
				C327.6,201.9,326.9,200.6,327,198.8z"/>
			<path fill-rule="evenodd" clip-rule="evenodd" fill="#5B3E23" d="M359,148.8c-7.7,0.1-15.3-1.7-23-1c-0.9,0.1-2,0-2.1-0.7
				c-1.1-5.1-5.1-3.1-8-3.2c-5.7-0.2-11.6,0.6-16.9-2.7c-1.3-0.8-1.8-0.1-2.4,0.6c-0.9,1-2.6,1.6-2.9,0.8c-1.4-3.3-2.7-6.7-3.3-10.2
				c-0.2-1.1,2.7-1.1,3.6,0c4.1,5.2,8,7.5,13.9,7.4c13.1-0.3,25.9,4.5,39.1,3c0.7-0.1,1.4,0.7,2.1,1.1
				C359,145.5,359,147.2,359,148.8z"/>
			<path fill-rule="evenodd" clip-rule="evenodd" fill="#583B20" d="M359,336.8c-16.3,0-32.6-0.2-48.9,0.1c-6.1,0.1-12-1.3-18.1-1.1
				c-1.4,0.1-2.1-0.2-2.1-1.8c0-1.7,0.4-2.3,2.2-2.2c8.5,0.5,17-1.9,25.5-0.9c6.1,0.7,12.2,1.8,18.2,3c7.7,1.6,15.4,0.7,23.1,1
				C359,335.5,359,336.2,359,336.8z"/>
			<path fill-rule="evenodd" clip-rule="evenodd" fill="#5A3D22" d="M359,173.8c-5.9,0.7-11.7-1.8-17.5-0.9
				c-2.9,0.4-6.8-0.9-7.8,3.7c-0.1,0.5-1,1.3-1.5,1.2c-5.6-0.7-11.5,1.4-16.9-1.3c-6.5-3.3-12.8-4.1-19,0.6
				c-2.2,1.7-4.8,0.3-7.2,0.7c-0.9,0.2-1.1-1.2-2-1c-0.5-3.4,1.3-4.1,4.4-4.1c12.6,0.1,25.2,0.1,37.8,0.1c1.9,0,4,0.5,4.9-2.1
				c0.7-2.1,2.7-1,3.8-0.8c7.1,1.5,14.1,1,21.1-0.1C359,171.2,359,172.5,359,173.8z"/>
			<path fill-rule="evenodd" clip-rule="evenodd" fill="#593D23" d="M359,242.8c-9.3,0-18.5,0-27.6,0c-0.8,1.4,0,1.9,0.6,2.5
				c1.5,1.5,3.7,3.3,0.8,5.1c-2.3,1.4-5.2,0.8-6.3-1.7c-2.4-5.8-5.9-8.4-12.2-5.9c-1.6,0.6-3-0.4-3.2-2.1c-0.2-1.3-0.5-2.7,2-3
				c3.8-0.5,5.8-4.7,4.5-8.8c-0.4-1.3-1.3-2.6,0.5-3c1.8-0.4,3.1,0.7,3,2.8c-0.1,1.5,0,3,0,4.5c0,4.4,3.1,7.6,7.5,7.6
				c10.2,0,20.3,0,30.5,0C359,241.5,359,242.2,359,242.8z"/>
			<path fill-rule="evenodd" clip-rule="evenodd" fill="#5A3D22" d="M1,242.8c14.8-0.2,29.4,1.3,44,2.6c0,0.5-0.1,0.9-0.1,1.4
				c-4.3,0-8.5,0.2-12.8-0.1c-3.3-0.2-4.2,1.1-4.2,4.3c0,3.7,0.7,7.3,1.8,10.8c0.7,2.2,0.2,3.6-2,3.9c-2.1,0.3-2.8-1.2-2.7-3.1
				c0.1-2.5,0.3-5-0.2-7.4c-1.4-5.9-6.9-9.3-14.8-9.5c-3-0.1-6,0-9,0C1,244.8,1,243.8,1,242.8z"/>
			<path fill-rule="evenodd" clip-rule="evenodd" fill="#583A20" d="M1,356.8c13.7,0,27.3,1.8,41,1c1.9-0.1,4.3,0.8,4.4-2.7
				c0-0.7,1.2-2.1,2.6-0.8c2.1,1.9,0.9,4.4,0.9,6.6c0,1.5-1.7,1.9-3.4,2c-6.8,0.2-13.4-1.7-20.1-2c-8.5-0.3-16.9-0.1-25.4-0.1
				C1,359.5,1,358.1,1,356.8z"/>
			<path fill-rule="evenodd" clip-rule="evenodd" fill="#593C22" d="M1,55.9c9.2,0.6,18.4-1.1,27.6,0.9c1.7,0.4,2.8-1.4,3.2-2.5
				c0.5-1.4-0.8-2.3-2.3-2.4c-0.8,0-1.6,0-2.3-0.4c2.7-1.7,5.8-3.5,7.7,0.6c2.9,6,8.1,9.3,13.1,12.9c-1.4,4.1-4,0.7-6,1
				c-3.1-5.6-8.9-6.8-14.2-6.8c-9,0-17.9-1.7-26.8-1.2C1,57.2,1,56.5,1,55.9z"/>
			<path fill-rule="evenodd" clip-rule="evenodd" fill="#593D23" d="M359,22.9c-4.4-1.7-9-0.9-13.6-1c-9.6-0.1-19.3,0-28.9,0
				c-1.9,0-4.3,0.6-4.4-2.4c-0.1-3,2.3-2.6,4.2-2.6c9.7,0,19.3-0.2,28.8,2.9c4.2,1.3,9.2,0.2,13.9,0.1C359,20.9,359,21.9,359,22.9z"
				/>
			<path fill-rule="evenodd" clip-rule="evenodd" fill="#583B20" d="M327,198.8c1.2,6,6.3,3.2,8.7,2.7c7.8-1.8,15.4-2.9,23.3-0.7
				c0,1,0,2,0,3c-5.9-1.2-11.7-0.9-17.7-0.2c-8.5,1-17.2,0.4-25.9,0.3c-1.7,0-3.3-1.5-3.2-3.1c0-1.7,1.7-2,3.4-1.9
				C319.3,198.9,323.1,198.8,327,198.8z"/>
			<path fill-rule="evenodd" clip-rule="evenodd" fill="#593C22" d="M359,61.9c-8.4,0.6-16.6-1.8-25-1c-1.9,0.2-3.7-0.5-5.7,0.8
				c-1.1,0.7-3.9,0.7-4.7-0.1c-3.4-3.9-7.8-4-12.4-4.3c16-0.3,31.9,1.1,47.8,0.5C359,59.2,359,60.5,359,61.9z"/>
			<path fill-rule="evenodd" clip-rule="evenodd" fill="#5E4126" d="M347,321.8c3-3.5,6.4-6.7,3.1-12c-0.6-1.1,2-3,1.9-5
				c1.6-0.4,2.2,1.1,3.3,1.7c1.6,0.8,2.9,0.6,2.7-1.7c0.3,0,0.7,0,1,0c0,5.7,0,11.3,0,17C355,321.8,351,321.8,347,321.8z"/>
			<path fill-rule="evenodd" clip-rule="evenodd" fill="#583B20" d="M1,282.8c14.6-0.8,29.2,1.7,43.9,1.3
				c-14.5,2.9-29.2,1.2-43.9,1.7C1,284.8,1,283.8,1,282.8z"/>
			<path fill-rule="evenodd" clip-rule="evenodd" fill="#593B21" d="M347,321.8c4,0,8,0,12,0c0,0.7,0,1.3,0,2
				c-8.9,0-17.9,0.1-26.8-0.1c-1.4,0-4.4,1.8-4.2-2c0.2-3.7,3-1.7,4.4-1.8C337.3,319.7,342.4,319,347,321.8z"/>
			<path fill-rule="evenodd" clip-rule="evenodd" fill="#5A3D22" d="M1,235.8c8.3-1.6,16.7-0.7,25-1.1c3.1-0.1,5.1,0.6,5.7,4.4
				c-10.3-1.8-20.5-1.2-30.8-1.3C1,237.2,1,236.5,1,235.8z"/>
			<path fill-rule="evenodd" clip-rule="evenodd" fill="#5A3D22" d="M359,102.8c-9.4,0-18.9,0-28.3,0c-1.7,0-4.3,0.6-4.4-1.6
				c0-1.7,2.5-1.3,4.2-1.4c9.6-0.4,19.1,0.4,28.5,2C359,102.2,359,102.5,359,102.8z"/>
			<path fill-rule="evenodd" clip-rule="evenodd" fill="#583A20" d="M359,132.8c-7.4,0.2-14.9-0.8-22.1,1.9c-1,0.4-3,0.8-3-1.9
				c0-2.4,1.3-2.1,2.8-2.1c5.5-0.2,11.2,1,16.4-1.1c2-0.8,3.5-3,5.8-0.9C359,130.2,359,131.5,359,132.8z"/>
			<path fill-rule="evenodd" clip-rule="evenodd" fill="#593B21" d="M1,107.8c5.7-0.3,11.3,0.2,17.2,1.5c-1,2.5-1.6,4.4-5.3,3.1
				c-3.7-1.2-7.8-2-11.8-1.6C1,109.8,1,108.8,1,107.8z"/>
			<path fill-rule="evenodd" clip-rule="evenodd" fill="#583A20" d="M1,255.8c2.3,0,4.6,0.1,6.9,0c1.8,0,3.4,0.4,2.9,2.6
				c-0.4,1.7-1.8,3.4-3.7,2.3c-2-1.1-4-0.8-6-0.9C1,258.5,1,257.2,1,255.8z"/>
			<path fill-rule="evenodd" clip-rule="evenodd" fill="#593C22" d="M1,330.8c4.3,0.3,8.7-0.9,12.8,2c-4.3,0-8.5,0-12.8,0
				C1,332.2,1,331.5,1,330.8z"/>
			<path fill-rule="evenodd" clip-rule="evenodd" fill="#5A3D24" d="M359,47.9c-0.7,0.4-1.3,1-2,1c-1.6,0.1-3.7,0.1-3.8-1.9
				c-0.2-2,1.7-2.4,3.5-2.2c0.8,0.1,1.6,0,2.4,0C359,45.9,359,46.9,359,47.9z"/>
			<path fill-rule="evenodd" clip-rule="evenodd" fill="#5A3D23" d="M359,363.8c-3.3,0.3-6-1.1-10.1-3c4.2,0,7.1,0,10.1,0
				C359,361.8,359,362.8,359,363.8z"/>
			<path fill-rule="evenodd" clip-rule="evenodd" fill="#56381E" d="M359,86.8c-1.6-0.7-4.6,1.5-4.7-1.3c0-1.6,3.1-0.3,4.7-0.7
				C359,85.5,359,86.2,359,86.8z"/>
			<path fill-rule="evenodd" clip-rule="evenodd" fill="#5E4126" d="M247,187.8c-0.1,0.3-0.3,0.9-0.3,0.8c-7.3-1-14.5,2.8-21.9,0.2
				c-1.6-0.6-4-0.8-4.8,1.9c-4.5,0.7-4.5,0.8-3.1,5.7c-6.6,1-13.4-0.8-19.9,1.3c1-2.6,5.1-3.6,4.7-6.3c-0.5-3.1-4.5-0.8-6.5-2.5
				c-3.3-2.9-6.8-5.4-10.2-8.1c5.2-2.9-1.2-3.9-1-6c1.9-4.1,2.4-8.5,2-13c2.1,1.2,0.7,3.2,0.9,4.7c0.2,1.4,0.3,2.6,1.7,3.1
				c1.7,0.6,2.8-0.2,3.3-1.9c2.9,0.1,2.3-1.5,1.4-3.1c-1.2-2,0-3.9,1.4-3.8c5,0.3,10.4-3.5,15.2,1.2c2,2,3.3,0.9,3-1.8
				c-0.3-2.4,0.2-4.7-0.7-7.2c-1.2-3.3,2.9-4.1,4.9-7.3c0,4.5,0,7.6,0,11.7c4.3-4.2,7.6-2.5,11.3,0.1c2.3,1.6,4.6,4.1,8.1,3.2
				c1.8-0.4,1.5,1.5,2,2.2c1,1.6-0.4,3.1-1.5,4c-1.8,1.5-4,1.8-2.6,5.5c0.4,1.1-4.3,5-6.2,8.1c-0.4,0.8-1.6-0.7-2.3-1.3
				c-2.7-2.4-4.7-5.8-9.2-5.6c-1.8,0-2.4-2.5-2.8-4.1c-0.3-1.6-0.1-3.6-2.1-3.7c-1.4,0-2.8,1.5-2.9,2.9c-0.1,1.7-0.8,3.9,1.9,5
				c2.6,1,4.9,2.6,7.5,3.8c1,0.5,2.7,0.6,2.1,2.1c-0.7,1.6-2.5,1.2-3.9,0.9c-0.6-0.1-1-0.8-1.5-1.3c-1.3-1.5-2.7-2.6-4.5-0.6
				c-1.7,2,0.8,2.4,1.4,3.5c0.3,0.6,0.7,1,1,1.6c-2.3,0.3-4.8-0.6-7.2,0.8c1.4,2.1,3.2,1.2,4.7,1.2c10.3,0.1,20.6,0.1,30.9,0
				C243.5,185.8,245.6,185.9,247,187.8z"/>
			<path fill-rule="evenodd" clip-rule="evenodd" fill="#5D4126" d="M183,246.8c-3.1-0.7-5.3,1-7,3.1c-1.3,1.6-2.2,4,0.1,5.5
				c2.5,1.6,4.4,0,5.6-2.1c0.6-1.2,0.1-2.8,2.5-2.5c2.2,0.2,1.7,1.5,1.7,2.7c0,1,0.5,1.5,1.5,1.4c6.8-1.1,12.7,1.5,18.4,4.9
				c-3,4-7.4,3.4-11.2,1.9c-2.7-1.1-5-0.1-8.6-1.6c2,3.3,4.9,5.3,1,7.7c-0.4,0.2-2.6,3.3-0.4,5.6c0.7,0.7,0.5,3-0.1,4.1
				c-1.3,2.1-0.5,3.6,0.4,5.4c-3,0.3-6.2-0.8-9,1c0-0.3,0-0.7,0-1c0-5.8-0.2-5.9-6.1-6c-5.2-0.1-10.5,0.6-15.7-0.4
				c-0.2-2.7-1.3-4.7-4.4-5.1c1.6-1.2,1-3,1.1-4.5c0.4-4.7-0.8-9.4,0.9-14.1c0.8-2.1-0.3-3.9-3-3.8c-2.6,0.1-5.2-0.4-7.8,0.3
				c-0.9-0.2-1.1-1.4-2.1-1.3c2.1-2.5,4.9-2.4,7.7-1.7c4,1,6.1-0.4,5.2-4.1c-0.5-1.9-0.7-3.2,1.4-3.2c2,0,5-1.2,5.7,2.1
				c0.4,1.6,0.4,3.3,0.1,4.9c-0.8,4.5,1.6,8.7,5.6,10.3c1.4,0.5,2,0.6,2.9-0.4c0.8-1-0.5-2.2-0.6-2.3c-4.6-3.1-3.4-6.5-0.9-10.2
				c2.7-4.1,2.9-8.3,0.4-12.6c-0.4-0.8-0.3-1.9-0.4-2.8c0.2,0,0.4,0,0.5-0.1c0.8-1.4,3.4-0.1,3.4-1.8c-0.1-2.3-2.4-0.4-3.5-1.2
				c-0.2-0.2-0.3-0.5-0.4-0.8c0.3-1.2,2-2.7,0.8-3.4c-3.8-2.3-1.2-5-0.8-7.6c0.7,0,1.3,0,2,0c-0.1,1.5-0.2,3.7,1.5,3.7
				c7.9,0.1,5.7,6.2,5.4,10c-0.6,7.6-1,7.5,6.5,8.4c0.6,0.1,1.1,0.6,1.6,0.9c0,0.7,0,1.3,0,2c-2.2,1.6-4.7,1-7.1,1
				c-1.6,0-3.4,0-3.7,1.6c-0.4,2.1,1.4,2.4,3.2,2.6c0.6,0,1.1,0.6,1.6,0.9c-0.1,1.3,0.1,2.2,1.7,2
				C181.6,245.8,182.7,245.4,183,246.8z"/>
			<path fill-rule="evenodd" clip-rule="evenodd" fill="#604429" d="M156,275.8c2.7,2.4,5.8,0.5,8.7,0.9c2.4,0.3,5,0.2,7.4,0
				c4.5-0.4,6.7,1.3,5.8,6c-4.1-0.1-7.6,0.2-11.1,3.3c-3,2.6-5.3-1.7-7.8-3.3c-0.1-4.1-3.1-3.2-5.3-2.8c-2.3,0.5-1.8,2.3-0.7,3.8
				c-0.3,0.7-0.7,1.3-1,2c-1.9-1.5-4.1-0.8-6.3-1.1c-1.1-1.6,2.7-2.2,0.7-4c-1-0.9-2-1-3.2-0.9c-1.3,0.2-2.5,1.1-2,2.3
				c1.9,4.3-1.9,2.9-2.9,2.6c-5.4-1.4-10.9-0.7-16.3-0.9c-2.6-1-3.2-2.8-3.1-5.6c0.1-4.4,1.9-8.6,1.1-13c-0.2-1.1,0.8-2.1,2-2.4
				c0.3,0,0.7,0.1,1,0c1.6-0.7,4.6,1.5,4.8-1.2c0.2-2.8-3-2.3-4.9-2.7c-1.2-0.3-2.6-0.1-3.9-0.1c-1.8-2.5-4.6-0.8-6.9-1.4
				c-1.6-0.4-5.5,1.2-5.8-0.4c-0.6-2.4-1.6-5.7,0.7-8.2c0.8,0,1.6,0,2.3,0.1c1.1,0.5,1.9,1.5,1.6,2.7c-0.7,3.7,1.7,3.3,4,3.2
				c1.3,2.2,3.4,0.5,5,1c2.1,0.3,4.2-0.5,6.3,0.6c1.6,0.8,3.5-0.4,4.1-1.7c1.5-2.8,3.8-3.1,6.4-2.9c2.2-0.2,5.2,1,5.2-3
				c3,0,6,0.1,9,0c2.4-0.1,3.6,1.3,2.9,3.3c-1.8,5.3-0.6,10.7-0.8,16.1c-0.1,1.4-0.7,2.4-1.1,3.6c-7,0-14.1,0.3-21.1-1
				c-2.3-0.4-4.5,0.1-4.7,2.7c-0.2,3,2.5,2.3,4.4,2.3C139.1,275.8,147.5,275.8,156,275.8z"/>
			<path fill-rule="evenodd" clip-rule="evenodd" fill="#5E4126" d="M296,115.8c-2.3-1.8-0.8-3,0.7-4c1-0.7,2.5-0.8,3.3-1.6
				c1.7-1.7,1.7-3.9,0.1-5.7c-1.6-1.8-2.8-0.4-4.1,0.7c-1.8,1.6-3,3.5-4,5.6c0.4-3.4-1-4.1-4.1-2.9c-5.1,2-10.4,0.6-15.5,0.9
				c-3.1,0.2-6.2,0-9.4,0c1.4-2.3,3.6-0.8,5.3-0.9c2-0.2,3.7-0.4,5.2-2c1.5-1.6,3.3-3.1,2.4-5.5c-0.9-2.4-3.4-1.6-5.2-1.6
				c-8.3,0-10.3-2.5-7.2-9.8c1.5-3.6-1.8-2.4-2.3-2.2c-3.6,2-4.5-0.3-5.2-3c0.6-2.5,0.5-2.8-1.7-3c-1.7-0.2-3.5,0-5.3,0
				c3.2-1.8,6.4-3,9.8-0.7c2.1,1.5,4.2,0.7,6.3-0.3c2.3-1.1,5.1-3.3,5,2c0,0.6,0.2,2.9,2.4,3c2.2,0.1,2-2,2.5-3
				c1.8-4,1.9-7.8-2.9-10.1c3.9-2.7,7.4,0.3,11,1c-0.5,4.1,2.5,7.5,2.3,11.5c-0.1,1,1.4,1.7,2.7,1.5c2.2,1.9,4.6,1.1,7,0.5
				c2.1-0.6,4.1-1.2,6,0.5c-0.1,1.7,0.9,2.2,2.3,3.1c3.8,2.4,6,6,3.6,10.3c-2.1,3.8-1.8,7.6-1.9,11.6c-1.8,2.1-3.1,5.3-6.9,3
				C297.4,114.5,296.8,115.8,296,115.8z"/>
			<path fill-rule="evenodd" clip-rule="evenodd" fill="#5D3F25" d="M116,135.8c0-2,0-4,0-6c1.3-0.5,3.1,1.1,4-1
				c0.8,0.1,1,0.5,1.1,1.3c0.5,6.8,1.7,8,7.7,5.6c2.4-1,4.2,0.1,6.2,0.1c2.3,0,5,1.1,7-1.2c-0.2-0.2-0.3-0.6-0.6-0.7
				c-2.1-0.8-3.9-2.2-4.1-4.3c-0.1-1,2.2-1.8,3.9-1.8c2.8,0,5.5,0.1,6.9,3.1c2.6,5.7,2.5,5.7,8,1.9c1.5,1.2,3.3,1,5,1
				c2.3,2.2,8.2,2.7,10.2,1c0.8-0.7,0.4-0.8,0.1-1.3c-0.6-1.2-0.9-2.8,0.3-3.5c0.7-0.4,2.2-0.7,3.2,0.3c1.1,1,1.6,2.2,1.4,3.9
				c-0.3,2.7-0.7,5.7,0,8.2c1.9,6.8,3.2,7.5,10.5,7.5c2.2,0,4.3-0.1,6.5,0c1.8,0.1,2.7,0.6,0.7,2c-0.2-0.8-0.7-1.1-1.4-1
				c-9.6,0.7-19-1.6-28.6-1c2.4-2.1,5.2-0.7,7.8-0.9c1.7-0.1,2.6-0.6,2.2-2.2c-0.8-3.6-9.7-7-11.9-4.3c-2,2.4-3.8,5.8-3.8,8.8
				c0,3.5,4.1,4.4,6.9,5.5c2.4,1,6.4,6.1,5.8,8.2c-0.4,1.3-1.5,1.9-3.1,1.8c-2.3-0.2-4.7,0.1-7-0.1c-1.8-0.2-1.9,0.8-1.9,2
				c-9,0-18,0-27,0c3.1-2.1,6.5-0.7,9.8-0.9c1.7-0.1,3.5,0,4.3-1.7c2.2-4.6,5.9-6,10.7-5.4c0.6,0.1,1.4-0.8,2.7-1.5
				c-4.7-0.5-6.5-5.2-10.8-5.6c-1.3-0.1-0.6-1.7-0.6-2.6c0.1-1.5,1-2.4,2.6-2.3c2.2,0.1,3.4-0.6,3.4-3c-0.1-2.4-1.5-3.6-3.5-3.9
				c-2.4-0.4-2.9,1-3.6,3.3c-2.4,7.3-7.6,10.3-14.6,9.7c-2.4-0.2-3.8-1.3-4.2-3.3c-0.4-2.4,1.4-2.9,3.5-2.8c0.5,0,1.1-0.4,1.7-0.7
				c1.7-0.9,5.1-1.2,4.4-3.3c-0.7-2.4-3.2-0.1-4.9,0.1c-1.2,0.1-2.8,0.8-3.7-0.5c-2.9-3.9-7-3.6-11.1-3.5
				C117.3,139.2,122,135.4,116,135.8z"/>
			<path fill-rule="evenodd" clip-rule="evenodd" fill="#5C4024" d="M143,185.8c-7.7,0-15.3,0.1-23-0.1c-3.4-0.1-6.6,0.5-8.9,2.7
				c-3.1,3-4.8,0.1-5-1.5c-0.6-5.3-4.9-5.9-8.1-5.9c-5.8,0-12.2-2.5-17.4,2.6c-0.4,0.4-1.7,0.5-1.8,0.2c-2.6-3.9-6.6-2.9-10.3-3
				c-2.1-0.1-2.5-1.6-2.4-3.5c0.3-5.1-0.6-9.3-6.5-10.7c-0.7-0.2-2.1-1.3-1.3-2.2c1-1.2,0.8-3.8,3.4-3.6c2.4,0.3,3.5-1.2,4.5-3
				c1.8-0.6,2.4,1.5,3.7,1.8c1-1.1-0.9-3.1,1.3-3.8c-1.3,5.7,2.6,7.7,6.8,10c-1,0-2-0.1-3,0c-1.7,0.1-4.2-1-3.8,2.5
				c0.3,2.2-1,5.3,3.4,4.5c1-0.2,2.4,0.7,3.4,1.3c3.7,2.4,7.2,1.5,10.3-1c3.1-2.5,2.3-5.6,1.1-8.8c-0.3-0.9-0.3-2-0.1-2.9
				c0.4-2.3,1.8-3.7,4.3-3.6c2.6,0.1,2.7,1.8,2.6,3.8c-0.1,3.5-0.4,7.1,5,7.4c-0.3-0.6-0.6-1-0.7-1.4c-0.7-1.7-4.5-2.1-2.6-4.9
				c1.8-2.6,4.8-3.8,7.7-2.7c5.8,2.1,10.8,5.6,14.5,10.6c0.9,1.1,1.7,2.3,2.7,3.3c2.2,2.3,4.5,4.2-1,5.1c-2.1,0.4-1.7,2.3-0.6,3.8
				c-0.4,1.8-2.3,0.5-4.1,2c7.9,0,14.8-0.1,21.7,0.1C140,184.9,141.9,183.8,143,185.8z"/>
			<path fill-rule="evenodd" clip-rule="evenodd" fill="#5C3F24" d="M287,176.8c0.7,0.3,1.3,0.7,2,1c0.6,4-2,4.6-4.9,3.9
				c-8.5-1.9-17-0.6-25.5-0.9c-3.9-0.1-6-1.3-5.6-5.4c0.3-3.7-3-4.8-4.9-6.9c-3.1-3.6-3.1-5,0.7-7.8c3.1-2.2,3.1-3.8,0-5.9
				c-0.9-0.7-1.7-1.5-2.7-2.1c-2-1.3-1.5-1.9,0.3-3.1c1.4-1,2.7-0.8,4.1-0.9c7.1,0,14.3,0,21.4,0c2.1,0,4.3,0.1,4-2.9
				c-0.4-3.2,1.3-3,3.7-3.3c2.8-0.3,6.4,2.2,8.4-1.9c1.9-0.5,0.6-2,1-3c3.9,0.2,5.6,3.6,8.2,5.6c1.6,1.2-0.1,2.2-0.3,2.7
				c-0.6,1.4-2,2.5-3.6,4.3c14.6,1.1,28.6-1,42.3,1.5c-1.8,6.2-2.8,6.6-10.1,4.8c-8.4-2-17-0.9-25.5-1c-4.1,0-6.9-0.7-9-5.1
				c-3.3-7-7.3-6.7-11.6-0.1c0.2,0.1,0.5,0.2,0.7,0.3c1.6,0.3,4.6-1,4.6,0.9c0,2.2-2.9,1-4.5,1c-7.3,0.2-14.6,0.1-22,0.1
				c-2.4,0-4.3-0.3-2.5,3.4c2.1,4.3,4.1,9,0.4,13.8c-0.4,0.5-0.1,2.1,0.5,2.7c2.4,2.9,14.9,3.2,17.6,0.6c2.2-2.2,3.7-4.3,2.2-8
				c-1.8-4.4,0.1-6.8,4.6-7.1c-3,5.8-2.6,7,3.2,9.7c1.1,0.5,2.7,1.7,2.7,2.6c0,1.2-1.6,1.8-3,1.4c-1.4-0.4-2.1,1.3-3.6,1.1
				c-1.3-0.1-2.3,1.1-2,2.7c0.3,1.5,1.2,2.4,2.7,2.1C282.8,177.4,285.2,179,287,176.8z"/>
			<path fill-rule="evenodd" clip-rule="evenodd" fill="#5A3D23" d="M231,322.8c1.3,0,2.7,0.2,4,0c2.2-0.4,7.9,1.9,3.4-4.1
				c-0.8-1,0.7-1.5,1.1-1.6c1.9-0.3,4.4-1.1,5.2,1.2c0.8,2.1,1.4,4.1,2.9,5.8c0.9,1.1,0.3,1.6-1,1.8c-4.4,0.7-8.5,3.3-13.4,1.1
				c-3.3-1.5-7.1,1.8-7.2,5.7c-0.1,1.7,0,3.3,0,5c0,6.3,4.6,9.2,10.8,8c8.7-1.6,17.6-1.2,26.4-0.1c1.3,0.2,2.6,0.3,3.9,0.3
				c16.2,0,32.3,0,48.5,0c4,0,7.7,1,11.3,3c-6.4,0-12.8,0-19.2,0c-1.2,0-2.5,0-3.1,1c-0.8,1.3,0.8,1.8,1.5,2.5
				c4.4,4.3,2.7,9.7,2.9,14.8c0,0.9-1,2.1-2.5,1.8c-1.5-0.2-2.4-1-2.4-2.5c0-2.2-0.1-4.3,0.1-6.5c0.6-7.5-3.5-10.5-10.8-10.9
				c-6.3-0.4-12.7-0.1-19-0.1c-1.8,0-3.4,0.1-5.1-0.9c-2.2-1.2-4.6-0.7-7.2-0.2c-7.8,1.6-15.8,1.9-23.7,0.1c-3.6-0.8-7,1-10.6,1.1
				c-2.9,0.1-5.3-0.8-7.7-2c-1.2-0.6-2.9-1.5-2.6-3c0.3-1.3,2.1-1.2,3.5-1.1c0.9,0.1,1.9,0,3.6,0c-3.3-5-3.3-9.5-0.8-14.3
				c1.6-3-0.9-3-2.6-2.6c-10.5,2.2-21.1,0.3-31.6,0.9c-1.3,0.1-3.3-0.4-3.4-2.4c-0.1-2.8,2.2-1.4,3.3-1.4c8-0.3,15.7,2.5,23.7,1.9
				c5-1.4,10.1-0.9,15.1-1C229.1,323.8,230.5,324.5,231,322.8z"/>
			<path fill-rule="evenodd" clip-rule="evenodd" fill="#5B3E24" d="M224.9,119.4c0.4-1-0.6-1.4-0.8-2.1c-1.7-5.1-1.4-5.2,4.1-4.4
				c2.9,0.4,6-0.2,9,0c3.3,0.2,4.2,2.3,2.3,4.9c-0.7,1-0.6,2,0.5,2c7.3,0.1,14.7,0,23.5,0c-2.3-1.8-3.4-2.7-4.4-3.5
				c4.2-4.8,9-1.4,13.5-1.3c0.5,0,1.2,1.1,1.3,1.8c0.2,0.8-0.6,1-1.3,0.9c-3-0.5-2.5,1.6-2.5,3.3c0,7.4,0.4,14.9-1.9,22.2
				c-0.8,2.3-1.7,4.5-4.4,3.3c-2.4-1-2-3.1-0.8-5.4c2.5-4.6,1.2-9.7,1-14.4c-0.1-3.1-4.1-3.9-6.9-3.9c-14.3-0.2-28.6,0-42.9-0.2
				c-1.6,0-3.3,0.7-3.9,1.2c-3.5,2.4-4-0.7-4.7-2.4c-1.2-2.5-0.1-3.2,2.3-1.9c3.3-7.8,7.3-2.6,11.4-0.8
				C221.8,120.1,221.9,119.8,224.9,119.4z"/>
			<path fill-rule="evenodd" clip-rule="evenodd" fill="#5D4025" d="M231,322.8c-0.9,2.3-2.8,0.9-4.2,0.9c-4.6,0.2-9.3-0.2-13.8,1.1
				c-0.2-5.2,1.4-10.3,1.1-15.5c-0.4-6-4-9.6-9.7-8.4c-6.6,1.4-13,1-19.7,0.1c-6-0.8-12.3-0.1-18.4-0.2c-1.1,0-2.7,1.2-3.3-0.9
				c4.3,0,8.6,0,12.9,0c2,0,3.8-0.2,5.1-2c9.1,1.3,18.4,1,27.5,1c5.8,0,6.5-0.9,4.5-6.5c8.5-1.3,10.2,0.6,8,9
				c-1.3,5.1,2,8.3,8.9,8.5c0,0.7,0,1.3,0,2c-1,0.3-2.6-0.8-2.9,0.8c-0.3,1.2,0.9,1.9,2.1,2.2c5.3,1.7,5.5,2.8,1.1,7.1
				c-0.1,0.1-0.1,0.4,0,0.5C230.5,322.6,230.7,322.7,231,322.8z"/>
			<path fill-rule="evenodd" clip-rule="evenodd" fill="#593D23" d="M283,72.9c-3.6-0.8-7.1-3.6-11-1c-9.4,1.6-18.7,1.9-27.8-0.8
				c0-0.4,0-0.8,0-1.2c15.2,0,30.5,0,45.7,0c1,0,2,0,3,0c15.6-0.1,31.3,2.1,47.1,0.6c-0.3-0.8-0.4-1.3-0.6-1.4
				c-1.6-0.5-3.9,0.3-4.5-2.1c-0.3-1.2,1-2.3,2.1-2.2c2.3,0.3,5.8-1.3,6.6,1.6c0.8,2.9,1.5,4.2,4.6,4.7c1.4,0.2,3.8,2.1,2.1,4.5
				c-1,1.5-2,2.9-4.6,1c-2.7-2-6.7-0.4-10.1-0.8c-3.1-0.4-6.5,1.2-9.3-1.7c-1.5-1.5-3.2,0.7-4.9,0.9c-4.5,0.5-8.3-2.3-12.7-2.2
				C300.3,73,291.6,72.9,283,72.9z"/>
			<path fill-rule="evenodd" clip-rule="evenodd" fill="#593B22" d="M243.1,354.1c5.7-1.4,9.3,0.7,11.1,6.3c0.7,2.1,1.9,4,5,3.5
				c2.1-0.4,3.3,1.4,3.8,3.1c0.5,1.4-0.6,2.5-2,2.9c-2,0.5-4.1-0.5-4.5-2.2c-1.1-5-4.7-4.7-8.5-4.9c-21.2-0.7-42.4-3-63.6-1.9
				c-2.1,0.1-2.7-0.6-2.4-2.5c0.3-2,2.1-2.6,3.4-2.4c13.5,2.1,27.1,1.9,40.7,1.9c5.5,0,11-0.1,16.5,0c1.5,0,2.9-0.3,3.3-1.6
				C246.6,353.7,243.3,355.7,243.1,354.1z"/>
			<path fill-rule="evenodd" clip-rule="evenodd" fill="#593C22" d="M123.9,120.8c16,0,31.8,0,47.5,0c0.7-1.5-1.9-0.7-1.4-2.1
				c0.6-1.7,1.9-0.7,2.9-0.9c0.9-0.2,1.7-0.2,2.1,1.2c1.1,3.7,4.9,4.3,7.1,0.8c1.8-2.9,5.3-2.7,6-1.8c1.3,1.8,2.5,4.7,1.7,7.1
				c-0.9,2.5-3.6,2.1-5.5,1.4c-4.2-1.5-8.5-0.4-12.7-0.7c-9.4-0.8-19,1.8-28.1-2c-0.7-0.3-1.9-0.4-2.4,0
				C134.7,128.1,129.4,125.4,123.9,120.8z"/>
			<path fill-rule="evenodd" clip-rule="evenodd" fill="#5B3E23" d="M143.3,81.8c9-1,20.1,1.1,31.4,1c4.4,0,8.7,0,12.8-1.8
				c1.2-0.5,2.9-0.7,4,0.8c1.2,1.7,0.9,3.8,0.4,5.2c-0.7,1.9-2.5-0.2-3.6-0.1c-5.1,0.4-10-0.9-15.1-1.1c-0.5,0-1.2-0.2-1.4,0
				c-4.8,5.2-9.8,1.6-14.8,0.5c-5.2-1.2-10.5-0.2-15.8-0.5c-2.2-0.1-4.4,0-6.6-1c-3.9-1.7-7.6-1.7-11.3,0.9
				c-0.9,0.6-2.5,2.2-3.8,0.8c-0.8-0.8-1.4-2.4-1.1-3.3c0.6-1.5,2.3-1.4,3.9-1.4C128.4,81.9,134.8,81.8,143.3,81.8z"/>
			<path fill-rule="evenodd" clip-rule="evenodd" fill="#593D23" d="M264,208.8c2.9,0.7,5.8,1.8,8.7,1.9c15.3,0.4,30.7,1.9,46,1
				c6.4-0.4,12.7,1.3,19.1,1.2c2.8-0.1,5.2-1.6,8.1-1.2c1.9,0.2,3.2,0.7,3.1,2.8c-0.1,2.4-2,1.2-3,1.2c-11.2,0.1-22.4,0.8-33.4-0.2
				c-9.4-0.8-18.8,0.1-28.1-1c-6.1-0.7-12.1-0.6-18.1-0.8c-1.6,0-2.6-0.2-2.3-2C264,210.8,264,209.8,264,208.8z"/>
			<path fill-rule="evenodd" clip-rule="evenodd" fill="#5A3D23" d="M230,311.8c0-0.7,0-1.3,0-2c11.6,0,23.3,0,34.9,0
				c2.1,0,4.3,0.5,2.2-2.9c-0.8-1.4-0.3-3.9,2.1-4.1c3-0.3,1.7,2.2,1.7,3.5c0,2.9,1.3,3.6,4,3.5c4-0.2,8,0,12-0.1
				c1.8,0,2.9,0.6,3.1,2.3c0.2,2.1-1.1,3-3.1,2.7c-6.3-0.9-13.2,2.4-18.9-2.5c-0.9-0.8-1,0.2-1.5,0.5c-9.1,5.1-18.3,2.5-27.4,0
				C236,311.9,233,311.8,230,311.8z"/>
			<path fill-rule="evenodd" clip-rule="evenodd" fill="#593C22" d="M178.7,54.9c10,0,20.1,0.3,30,1.5c6.6,0.8,12.9-2.1,19.3,0.1
				c1,0.4,4.5-1.2,1.9-4.2c-0.5-0.6-1.5-1.2-0.7-2c0.7-0.8,1.7-0.5,2.7,0c2.6,1.4,4.4,3.5,6.3,5.8c1.9,2.3,2,7.2,7.2,5.9
				c0.9-0.2,2.3,1.7,1.6,3.1c-1,1.8-3.9,1.1-4.2,0.6c-3.9-6.7-10.2-4-15.8-5c-9.7-1.7-19.5-4.2-29.2-2.6c-9.2,1.5-18.1-1.5-27.2-0.2
				c-1.7,0.2-3.4-0.3-3.4-1.9c0-2.1,2-1,3.1-1C173.1,54.7,175.9,54.9,178.7,54.9z"/>
			<path fill-rule="evenodd" clip-rule="evenodd" fill="#593C22" d="M325,291.8c3.5,0,6.8,0.5,10.3,1.5c4.6,1.4,9.4-1,14.3-0.6
				c3.5,0.3,5.6,1.3,5.4,5.1c-7.8,0-15.7,0-23.5,0c-4.8,0-9.5-1.1-14.2-1.9c-4.3-0.7-8.2,1.7-12.3,3c-0.4,0.1-1,0.5-1,0.7
				c0,10.4-2.7,1.4-4.1,0.6c-1.4-0.8-4-0.9-3.6-2.8c0.4-1.8,3-1.9,4.7-2.7c6.4-2.8,13.1-1.6,19.7-2C322.1,292.7,324,294.1,325,291.8
				z"/>
			<path fill-rule="evenodd" clip-rule="evenodd" fill="#593C22" d="M107.6,108.1c2.7,1.9,7.1-1.4,7.4,3.7c0,0.5-2.4,0.4-6.6,0
				c-3-0.3-6,0.1-9-0.1c-5.1-0.2-10.2,0.6-15.3-1.8c-2.9-1.4-6.6,0.7-10,0.8c-10,0.2-20,0.1-30,0.1c-2,0-4.3,0.2-4.1-2.7
				c0.2-2.5,2.2-2.3,4.1-2.3c10.4-0.3,20.5,1.6,30.8,2.9c9.3,1.2,18.9,0.2,28.4,0.2c1.4,0,1.5-0.6,1.7-1.7c0.2-1.5-2.1-3.9,1.2-4.3
				c1.1-0.1,3-0.8,3.7,0.5C110.9,105.4,108.6,106.5,107.6,108.1z"/>
			<path fill-rule="evenodd" clip-rule="evenodd" fill="#593D23" d="M291.4,250.8c14.1,3.4,28.3,1.6,42.5,2c3.6,0.1,6.3-0.6,6-5
				c-0.1-1.3,0-2.1,1.8-2.1c1.7,0,2.4,0.3,2.3,2.2c-0.3,3.3,1.8,5,4.6,5.9c1.1,0.4,2.6,0.4,1.7,2.3c-0.6,1.2,0.1,3.3-2.7,2.8
				c-11.3-2.1-23-0.7-34.3-3.9c-7.6-2.2-15.7,0.3-23.5-0.1c-1.5-0.1-2.8,0.3-2.8-2.1c0-2.7,1.7-1.7,3-1.9
				C290.4,250.8,290.9,250.8,291.4,250.8z"/>
			<path fill-rule="evenodd" clip-rule="evenodd" fill="#593C22" d="M122,283.8c5.2,0.4,10.4-0.8,15.6,0.8c0.7,0.2,6.1,2.7,3.5-2.8
				c-0.4-0.8,0.9-1.8,1.8-1.9c1.2-0.1,2.6-0.4,3.6,0.9c1.6,2-1.3,2.3-1.2,3.9c2.2,0.4,4.7-0.5,6.7,1.1c1.3,0.3,2.9-0.7,4,0.8
				c-0.8,2.2-2.6,1.1-3.9,1.1c-19.8,0.1-39.6,0.1-59.5,0c-1.2,0-3.9,1.5-3.6-1.5c0.1-1.9,2.2-2.4,3.9-2.4c8.2-0.1,16.3,0,24.5,0
				C119,283.8,120.5,283.8,122,283.8z"/>
			<path fill-rule="evenodd" clip-rule="evenodd" fill="#5A3D22" d="M145,355.8c-2.5-1.2-1.7-4.1-3.2-5.9c-3-3.5-7.2-3-10.9-4
				c-1.2-0.3-2.8-0.9-2.6-1.6c0.3-1.2,1.6-1.6,3.1-1.5c4.8,0.2,9.7-0.7,13.8,3c1.8,1.7,4.6,1.6,6.8,0.5c7.2-3.5,14.8-3.9,22.5-3.5
				c2.5,0.1,5,0.2,7.5,0c2.5-0.2,2,1.4,2.1,2.8c0.1,1.6-0.1,2.4-2.1,2.3c-5.6-0.1-11.3,0-16.9,0c-0.7,0-1.3,0-2,0
				c-5.3,0-10.7-0.5-16.1,1.6c0.5,2.1,4.8,4.4,0.1,6.4C146.3,355.8,145.6,355.8,145,355.8z"/>
			<path fill-rule="evenodd" clip-rule="evenodd" fill="#5B3E23" d="M114.3,32.5c-22,4.1-43.6,2.7-65.1-1.4
				c12.5,0.9,25.2-2.3,37.8,1.6c1.5,0.5,6.2,1.5,5.1-3.7c-0.2-0.7,0.3-1.2,1.1-1.2c4.5-0.3,9.1-1.1,13.5-0.9
				C109.8,27.1,112.7,28.8,114.3,32.5z"/>
			<path fill-rule="evenodd" clip-rule="evenodd" fill="#5A3D22" d="M203.4,72.9c-15.3-2-30.7-0.6-46-1c-3.4-0.1-4.7-2-4.4-5
				c0.1-1,1.4-3,2.7-1.6c2.4,2.6,5.4,1.9,7.9,1.4c10-1.9,19.3,2.5,29,3c3.6,0.2,7.3,0.1,10.9,0.1c2.3,0,1.8-1.6,1.2-2.7
				c-0.9-1.6-1.9-3,1-3.3c2.2-0.2,4.3-0.2,4.3,3.1C210.1,71.3,208.6,72.9,203.4,72.9z"/>
			<path fill-rule="evenodd" clip-rule="evenodd" fill="#5B3E23" d="M168,223.8c0,0.2,0,0.3,0.1,0.5c0.8,1.7,3.8-0.9,3.7,1.6
				c-0.1,1.5-2.8,0.7-3.8,1.9c-12.8,0-25.7,0.2-38.5-0.1c-6.5-0.1-12.9-1.5-19.3-2.8c-1.2-0.3-1.4-1.2-2.5-1.8
				C128.1,221.8,148,224,168,223.8z"/>
			<path fill-rule="evenodd" clip-rule="evenodd" fill="#593C22" d="M235.4,24.9c-19.9,0-39.2,0-58.5,0c-1.1,0-2.2-0.3-3.2,0.7
				c-0.9,0.8-2.1,0.5-3-0.5c-1.3-1.3-0.7-2.8-0.6-4.2c0.1-1.8,1.8-0.8,2.7-1c2.8-0.4,5.2,1.2,7.6,2c6.1,2.1,12.6-0.4,18.6,1.8
				c4.5-5.2,10.9-1.4,16-3.5c1.5-0.6,3.1-0.6,4.3-0.3c2.9,0.8,4.8,2.1,4.9-2.9c0-2.5,4.1-0.4,6.7-1.7
				C228.2,20.6,231.7,22.4,235.4,24.9z"/>
			<path fill-rule="evenodd" clip-rule="evenodd" fill="#5A3D21" d="M208.7,268.8c14.4,0.5,28.7,2.7,43.1,2c3.6-0.2,7.1-0.2,9.7-3.2
				c0.5-0.6,1.2-1.4,2.1-0.6c0.7,0.6,1.3,1.2,1.4,2.4c0.3,4.8-2.1,7.3-7.2,6.2c-16-3.5-32.1-2.9-48.3-2.9c-3,0-6-0.1-9,0
				c-1.7,0.1-3.4-0.2-3.4-1.9c-0.1-2.1,1.9-2.2,3.6-2.2C203.4,268.9,206.1,268.8,208.7,268.8z"/>
			<path fill-rule="evenodd" clip-rule="evenodd" fill="#593C22" d="M82,69.9c6.9-0.5,13.7,0.4,20.6,1.1c3.5,0.3,6.7-0.8,10.1-1.2
				c3.9-0.4,2.1-3.4,1.3-5.5c7.2-0.8,7.1-0.8,7.2,5c0.1,2.9,0,3.3-3.5,2.8c-5.7-0.7-11.6,0.4-17.4,1.2c-3.6,0.5-6.9,0.6-10.5,0
				c-3.3-0.6-6.9-0.6-10.3-0.4c-11.4,0.6-22.7-1.3-34-1c-1.6,0-2.6-0.2-2.3-2C56,69.9,69,69.9,82,69.9z"/>
			<path fill-rule="evenodd" clip-rule="evenodd" fill="#593C22" d="M263,108.8c6.5,0,13,0,19.4,0c1.9,0,3.7,0,5.6-0.9
				c2.8-1.3,4.4-0.5,3.9,2.9c-2,2-4.7,1.3-6.7,0.9c-7.5-1.6-15-0.5-22.6-0.8c-4.9-0.2-9.7-0.6-14.6-0.8c-6.3-0.4-12.6,1.3-19,0.8
				c-1.3-0.1-2.6,0.3-3.6-1c-0.9-1.1-0.6-2.3-0.4-3.3c0.3-1.3,1.6-0.6,2.5-0.7c11.1-2,21.9-1.1,32.4,3
				C260.9,109.1,262,108.8,263,108.8z"/>
			<path fill-rule="evenodd" clip-rule="evenodd" fill="#5C3F25" d="M126,321.8c3,2,6,1.2,9,0c3.1,0.3,4.3,2.9,6,5
				c-3.3-0.6-6.8,1.1-10-1c-1.7-2-1.7-2-5.2-2c-11.1,0-22.2,0-33.4,0c-1.8,0-3.7,0.4-4.5-2c1.6,0.6,2.7-0.8,4.1-1.1
				c5.1-1.4,7.3-6.2,5.6-11.5c-0.3-0.9-0.9-1.8-0.7-2.7c0.5-1.5-1.5-4.2,1.1-4.5c2.6-0.3,4.7,2,4.7,4.5c-0.1,5.5,2.4,8.4,7.5,9.2
				c1.5,0.3,1.8,1.2,2.7,2.2c1.3,1.5,0.2,2.6-0.2,3.2c-1.1,1.7-1.9,0-2.6-0.7c-2.1-2.1-4.2-3.7-7.5-3.8c-2.2-0.1-2.8,1.2-3.4,2.5
				c-0.9,1.9,1.3,3.3,2.1,3.3c7.9,0.2,15.8,1.5,23.7-0.6C125.3,321.8,125.7,321.8,126,321.8z"/>
			<path fill-rule="evenodd" clip-rule="evenodd" fill="#5C3F25" d="M163,347.8c0.7,0,1.3,0,2,0c1,2.3,2.9,0.8,4.3,0.9
				c4.6,0.4,5.6,1.7,4.2,6.1c-0.8,2.4-0.8,5-0.3,7.2c0.5,2.4,2.6,4.5-1.7,5c-0.2,0-0.4,1.2-0.4,1.7c0.2,2,1.8,1,2.7,1
				c13.1,0.1,26.3,0,39.4,0.1c1.2,0,3-1.3,3.8,0.9c-7.2,0-14.4,0-21.6,0c-1.8,0-3.7-0.4-4.4,2c-6,0-11.9,0-17.9,0
				c-5.2,0-5.8-1.1-4.7-6c0.5-2.2,1.9-4.3,1.3-6.7c-1.1-4.2-3.7-6.4-8.2-6.3c-1.1,0-3.2,1.4-3.5-1.2c-0.3-2.4,2.1-2.4,3.2-2.6
				C162.9,349.8,163,349.1,163,347.8z"/>
			<path fill-rule="evenodd" clip-rule="evenodd" fill="#593C22" d="M197,197.8c5.7-1.9,11.5-0.6,17.3-1c1.1-0.1,3.5,1,2.2-1.9
				c-1.7-3.8,0.6-4.1,3.5-4.1c4.2,1.8,0.3,3.8,0.3,5.8c1.2,0.6,3-0.5,4.3,1.2c1.1,1.4,2.3,2.4,0.7,4.2c-2.2,2.3-2.1-0.6-2.9-1.3
				c-1.1-1-2.1-2.7-3.7-1.8c-6.2,3.5-12.6,2-18.8,0.8c-5.3-1.1-10.4-0.7-15.6-0.8c-9.5-0.1-19,0-28.5-0.1c-1,0-2.8,1-2.8-1.5
				s1.8-1.4,2.8-1.5C169.6,195.1,183.2,197.2,197,197.8z"/>
			<path fill-rule="evenodd" clip-rule="evenodd" fill="#593C22" d="M170,212.8c-0.7,0-1.3,0-2,0c-5.1,0.7-10-1.3-15-1
				c-2.7,0.2-5.4-0.1-8.1,0.8c-2.1,0.8-5.2,0.8-6.4-2.1c-0.8-1.7-1.6-4.5,2-3.7c10.9,2.3,22.1-0.4,33.1,1.8
				c4.1,0.8,8.6,0.2,12.9,0.1c1.7,0,2.7,0,2.7,2.3c-0.1,2.2-1.4,1.8-2.6,1.8C180.9,212.8,175.5,212.8,170,212.8z"/>
			<path fill-rule="evenodd" clip-rule="evenodd" fill="#5A3D22" d="M178,398.8c-1.4,2.8-3.4,3.1-5.9,3.1c-12.1,0.1-24.2,0.1-36.1-2
				c-3.7-0.7-7.3,1.5-11.1,1c-2.3-0.3-4.4-0.6-5.9-3C138.8,396.4,158.3,395.8,178,398.8z"/>
			<path fill-rule="evenodd" clip-rule="evenodd" fill="#583A20" d="M251.6,42.9c8.3,0,16.6-0.1,24.9,0.1c1.6,0,4.4-1.9,4.5,2.3
				c0.1,4.6-3.1,2.4-4.8,2.6c-8.5,1-16.8-3.2-25.1-1.7c-9.2,1.7-18.1-1.2-27.2-0.3c-1,0.1-3.1,1-3-1.2c0.1-1.2,1.5-1.8,3.1-1.8
				C233.3,42.9,242.5,42.9,251.6,42.9z"/>
			<path fill-rule="evenodd" clip-rule="evenodd" fill="#5C3F25" d="M125,310.8c-2.1-2.9,0.5-2,1.6-2c11.3,0,22.6,0,34.1,0
				c-0.5-1.7-1.7-3.7-0.1-4.8c1.1-0.7,3.3-0.5,4.8-0.1c1.6,0.5,2.2,1.7,0.8,3.4c-0.7,0.8,0.2,1.6,1.1,1.4c4-0.7,7.6,1.7,11.6,1
				c2.1-0.4,6.8,1.8,4.2-3.9c-0.4-1,1-2.2,2.2-2c1.5,0.2,3.5-1,4.6,0.6c0.9,1.3-0.3,2.5-1.4,3.3c-0.7,0.6-1.6,1-2.3,1.5
				c1,2.1,2.9,1.4,4.7,1.5c1.2,0.1,2.5,1,2.1,2.2c-0.3,1-0.7,3.1-2,2.8c-7.5-1.8-15.4,0.3-22.9-2c1.7-0.8,2.9-2.1,3.8-4
				c-15.1,0-30,0-44.9,0C126.1,309.8,125.2,309.7,125,310.8z"/>
			<path fill-rule="evenodd" clip-rule="evenodd" fill="#583A1F" d="M114,24.9c-17.7-1.2-35.3-1.1-53-0.9c-2.5,0-4.8-1-4.8-3.1
				c0-2.7,2.9-1.8,4.7-2c7.4-0.7,14.7,1.5,22.1,1c0.7,1.9,2.3,0.9,3.4,1c7.1,0.1,14.3,0,21.4,0.1C110.6,20.9,113.5,21.1,114,24.9z"
				/>
			<path fill-rule="evenodd" clip-rule="evenodd" fill="#593C22" d="M119,258.8c2.2,0.4,4.5-0.7,6.6,0.9c0.8,0.6,2.7-0.4,2.4,1.9
				c-0.3,2.3-2,0.9-3.1,1.2c-0.9,0.2-2,0-3,0c-0.1-1.1-0.9-1-1.8-1c-17.1,0-34.2,0.1-51.3,0c-2.6,0-4,0.3-2.2,3.1
				c0.8,1.4,0.5,2.7-0.7,3.4c-1.3,0.7-1.6-1.2-2.5-1.5c-2.6-0.7-3.7-2.4-3.4-5c0.3,0,0.7,0,1,0c1.5-0.4,3.5,1,4.4-1.7
				c0.6-1.9,2.8-1.3,4.4-1.3C86.1,258.8,102.6,258.8,119,258.8z"/>
			<path fill-rule="evenodd" clip-rule="evenodd" fill="#5A3D23" d="M71,155.8c-2.4,0.6,0,2.6-1.6,3.7c-1.1,0-1.6-2.4-3.4-1.7
				c-1.1-1.8-2.2-3.8-4.5-3.9c-2-0.1-1.2-2.1-2.3-2.6c0.7-0.8,1.4-1.5,2.7-1.5c8.1,0.3,16.2-3.2,24.2,1c1.1,0.6,3.8,1,4.6-0.4
				c0.7-1.3,1-3.5-0.7-5c-0.7-0.6-1.7-1.1,0.3-1.7c4-1.3,7.7-1.3,12.7,0.5c-3.5,1.2-7.6-0.5-7.2,4.7c0.3,3.5,2.7,1.3,4.3,2.6
				c-4.9,1.7-9.3,3.2-14.5,1.9c-3.7-0.9-7.8-0.6-11.7-0.4C72.7,153,71.5,154.3,71,155.8z"/>
			<path fill-rule="evenodd" clip-rule="evenodd" fill="#5A3D22" d="M178,283.8c2.8-1.8,6-0.7,9-1c15.2-0.8,30.3,1.6,45.8,0.9
				c-1.3-2-0.9-3.6,0.9-5.2c1.5-1.3,3.3-0.9,4.7-0.6c1.9,0.5,1.7,2.5,1.6,4.2c-0.1,2.5,0,4.9,0,7.3c-0.5,0.2-1.1,0.4-1.1,0.3
				c-2.7-5.4-7.7-3.9-12.1-4c-15.1,0-30.3,0-45.4,0C179.9,285.8,177.7,286.8,178,283.8z"/>
			<path fill-rule="evenodd" clip-rule="evenodd" fill="#5B3E24" d="M275.6,235.8c4.5-0.2,9.6,0.7,14.5-2.4c2.3-1.5,3.6,1,3.9,3.2
				c1.2,8.5-2.1,12.2-10.9,12.2c-2.8,0-5.6,0-8.5,0c-1.4,0-2.4-0.8-2.5-1.8c-0.1-1.5,1-2.3,2.5-2.3c3.8,0,7.6-0.1,11.5,0.1
				c1.8,0.1,3,0.1,3-2.5c0-2.3-0.8-2.7-2.8-2.6c-6.9,0.2-13.6-2.9-20.6-2c-0.9,0.1-1.7-0.1-1.5-1.2c0.1-0.8,0.8-0.8,1.5-0.8
				C268.8,235.9,271.9,235.8,275.6,235.8z"/>
			<path fill-rule="evenodd" clip-rule="evenodd" fill="#5D4025" d="M27,268.8c1.3,0,2.7,0,4,0c1.9,0,4.4-0.9,4.4-2.1
				c0.2-4.6,2.2-8.8,2.4-13.4c0-0.7-1.5-1.8-0.1-2.3c1-0.4,2.6-0.7,3.6,0.6c1.3,1.7,2,3.5,1.8,5.8c-0.2,2.7,1.2,4.6,4,4.3
				c2.9-0.3,4.2,1.7,5.6,3.3c0.8,1,1.6,2.5,0.4,4c-1.5,1.8-2-0.4-3-0.7c-3-0.9-5.6-2.1-7.6-4.6c-2.5,2.1-1,4.7-1.4,7
				c-2.7,0-5.5,0-8.6,0c0.6,2,3.3,0,3.6,2c-3.7,0-7.3,0-11,0c0.6-2.2,2.6-0.2,3.6-1.3C28.8,270.3,27,270.1,27,268.8z"/>
			<path fill-rule="evenodd" clip-rule="evenodd" fill="#583A20" d="M86.7,385.8c-10,0-19.9-0.2-29.9,0.1c-4.5,0.1-8.6-1.6-13.1-1.1
				c-2.7,0.3-5.5-0.3-7.9,1.6c-1.1,0.9-2.7,0.9-3.5,0c-0.6-0.7-0.4-2.2-0.3-3.3c0.2-2.3,2-1.2,3-1.2c14.6-0.1,29.3,0,43.9-0.1
				C82.4,381.7,83.9,384.7,86.7,385.8z"/>
			<path fill-rule="evenodd" clip-rule="evenodd" fill="#5C3F25" d="M61,261.8c-0.3,0-0.7,0-1,0c-3.4-1.8-6.7-3.7-10.8-3
				c-0.8,0.1-1.9,0.6-2.2-1c-0.2-1.3,0.3-2.1,1.2-2.5c3.7-1.7,4.3-4.2,3-8c-0.6-1.8-0.4-4.3,0.4-6.7c0.8-2.4,2.5-5.2,0.6-8.1
				c-0.3-0.4-2.1-2-0.1-3.1c1.3-0.7,2.6-0.9,3.6-0.2c1,0.8,3.1,1.6,2.1,3.3c-3.5,6.1,1.1,12.8-1.7,19c-0.6,1.4,0.3,2.8,1.5,3.3
				C61.1,256,61,258.9,61,261.8z"/>
			<path fill-rule="evenodd" clip-rule="evenodd" fill="#5A3C22" d="M280.9,33.5c2-2.4,4.3-2.7,6.8-2.7c5.4-0.2,10.9-0.8,16.1-0.5
				c6.5,0.4,13.3-0.6,19.7,1.6c3.1,1,5.9,1.1,9.3,0.2c4.2-1,8.9-0.2,13.4-0.2c0.9,0,1.8-0.2,1.7,1.1c-0.1,1.2-1.1,0.9-1.9,0.9
				c-10.5,0.3-21.1,2.1-31.5,0.8c-4.5-0.6-9.2,0-13.8-1.6c-2-0.7-4.7-0.7-7.1,0.6C289.5,35.7,285.2,35.5,280.9,33.5z"/>
			<path fill-rule="evenodd" clip-rule="evenodd" fill="#5A3D22" d="M95.2,96.6c3.2-1.7,6.7-1.8,10.3-2c7.9-0.6,15.5,1.6,23.6,0.6
				c9.3-1.2,19.2-1.6,28.6,1.7c0.8,0.3,2.3-0.5,2.1,1.1c-0.1,1.5-1.5,0.9-2.4,0.9c-10.2-0.1-20.5-1.2-30.5-0.5
				C116.2,99,106,95.2,95.2,96.6z"/>
			<path fill-rule="evenodd" clip-rule="evenodd" fill="#604329" d="M82,69.9c-13,0-26,0-39,0c-3.7-0.5-1.8-2.4-1-4
				c2-0.2,4.6,3.1,6-1c2.2-2.4,4.4,0.1,6.7,0.1c5.1,0,10.3-0.9,15.4,1.3c1.2,0.5,3-0.5,4.5-1.3C79.3,62.6,81.8,64.3,82,69.9z"/>
			<path fill-rule="evenodd" clip-rule="evenodd" fill="#593C22" d="M36,272.8c-0.5-2.4-3,0.1-4-2c3.1,0,6.1,0,9,0
				c9,0,17.9,0,26.9,0c2.6,0,6.9,2.9,6.2-3.4c0-0.1,1.1-0.5,1.7-0.6c2.9-0.3,8.2,4.5,8.2,7.4c0,1.8,0.4,2.4-2.5,2
				c-6.3-0.9-12.7-1.2-19-2.4C53.7,272.4,44.8,272.8,36,272.8z"/>
			<path fill-rule="evenodd" clip-rule="evenodd" fill="#5B3E23" d="M288.2,166.7c6-2.8,11.8-4.4,16.3-8.6c0.6-0.5,2.3-0.4,3.1,0.1
				c0.8,0.5,0.4,1.7-0.1,2.6c-1.4,2.3-0.7,3.3,2,3c0.5-0.1,1.2-0.3,1.4-0.1c1.5,1.6,5.7,0.3,5,4c-0.6,2.8-3.2,2.9-5.8,3.2
				C302.5,171.7,296,167.7,288.2,166.7z"/>
			<path fill-rule="evenodd" clip-rule="evenodd" fill="#573A1E" d="M82.1,213.8c-5.4,0-10.8,0.3-16.1-0.1c-11.5-0.9-23-1-34.5-1
				c-1,0-2.4,0.8-2.5-1.3c-0.2-2.3,1.4-1.7,2.6-1.7c15.3,0,30.6,0.1,45.9-0.1C80.8,209.7,80.8,212.2,82.1,213.8z"/>
			<path fill-rule="evenodd" clip-rule="evenodd" fill="#5A3D22" d="M146.1,239.8c-6.9,0-13.2,0-19.5,0c-4.5,0-9,0.3-13.2-1.9
				c-1-0.5-3.4-0.5-3.7,0.1c-3.6,7-8-0.9-11.9,0.8c-0.4,0.2-1.9-0.9-1.7-2.1c0.2-1.2,1.1-1.8,2.4-2c3.3-0.5,6.3,1.2,9.6,1.1
				c8.8-0.1,17.7-0.5,26.4,0.2C138.2,236.4,143.1,235.1,146.1,239.8z"/>
			<path fill-rule="evenodd" clip-rule="evenodd" fill="#593C22" d="M59.2,373.2c2.4-1.9,4.1-2.4,6.1-2.4c11.5,0.1,23-0.2,34.5,0.1
				c5.9,0.1,11.7,2,17.7,1.9c3,0,6,0,5.5-4.4c-0.1-0.7,0-1.5,0.8-1.5c0.5,0,1.5,0.4,1.6,0.9c0.6,2.2,2.8,3.1,4,5.7
				C106.1,377.3,83.1,371,59.2,373.2z"/>
			<path fill-rule="evenodd" clip-rule="evenodd" fill="#593C22" d="M183,246.8c-0.2-2.5-4.8,0.8-4-3c5.1-0.1,10.4,0.8,14.6-3.7
				c1-1,3.5-0.6,5.3,0.9c2.6,2.1,5.7,2.9,9.3,2.9c8.3,0,16.8-1.3,25,2.6C216.2,247.9,199.6,245.5,183,246.8z"/>
			<path fill-rule="evenodd" clip-rule="evenodd" fill="#5C3F25" d="M141,326.8c-1.7-2.1-2.9-4.7-6-5c0.6-2-1.9-2.5-2.1-4.5
				c2.8-1,4.5-0.8,5.8,2.6c1.7,4.7,4.6,5.7,9.2,3.5c1-0.5,1.8-0.6,2.8-0.5c1.7,0.2,4.3-1.1,5,0.6c1.1,2.3-2,2.4-3.2,3.3
				c-3.4,2.6-1.8,5-0.4,7.8c1,2.1,2.4,4.7-1.3,6.1c-3.5,1.3-4.8-1.1-5.6-3.5c-0.8-2.4-1.7-4.9-1.1-7.5
				C144.6,327,143.1,326.5,141,326.8z"/>
			<path fill-rule="evenodd" clip-rule="evenodd" fill="#5C3F25" d="M10,70.2c0.4,4.5-2.6,8.7,0,12.9c0.3,0.5,0.2,1.3,0.6,1.7
				c1.9,2,3.1,3.5-0.6,5.1c-3.5,1.5-5.3,0.9-6.7-2.4C1.7,83.8,3,80.2,4.2,77c1.4-3.7-0.2-6.3-0.9-9.4c-0.2-1-2.3-2.7,0.1-3.4
				c1.8-0.5,4-1.6,5.8,1.1C10.4,67.1,9.6,68.8,10,70.2z"/>
			<path fill-rule="evenodd" clip-rule="evenodd" fill="#5C3F25" d="M20.3,395.1c-1.4-7.8-2.3-14.8,1.3-22c1.2-2.4-3.2-5.4-4.9-9.1
				c2.7,1.9,6.3-1.4,7.6,2.6c1.3,4.2,3.3,8.5-0.3,12.5c-2.6,2.9-2.7,5.1,1.4,6.8c1.4,0.6,2.7,2.1,3.3,3.6c0.4,0.8,0.9,4.1-1.1,3
				C24,390.6,23,394.3,20.3,395.1z"/>
			<path fill-rule="evenodd" clip-rule="evenodd" fill="#5A3D22" d="M166.7,330.8c3.3-0.8,7.7,1.7,11.1-2c0.3-0.3,1.4-0.2,1.9,0
				c10.2,4.2,20.8,1,31.2,2c1.2,0.1,2.3,0.1,3.5,0c1.4-0.1,1.6,0.6,1.6,1.8c0,1.1-0.6,1.4-1.6,1.3c-4.2-0.4-8.6,1-12.7-0.8
				c-2.3-1-3.8,1.1-6,0.9c-5.3-0.4-10.6-1.2-16.1-1.3c-7-0.1-13.8,0.6-20.8,1.1c-1,0.1-2.8,1.1-3-1.3c-0.2-2.8,2-1.3,3.1-1.7
				c0.5-0.1,1,0,1.5,0C162.4,330.8,164.3,330.8,166.7,330.8z"/>
			<path fill-rule="evenodd" clip-rule="evenodd" fill="#5A3D23" d="M76,294.8c10.9-2.3,21.1-0.6,30.7,5c-10.1,0-20.2,0-30.3,0
				c-1.8,0-3.7,0.4-4.4-2C74.2,298,76.1,297.8,76,294.8z"/>
			<path fill-rule="evenodd" clip-rule="evenodd" fill="#5A3C22" d="M27.2,118.9c10.3-0.1,20.5-0.6,30.6,1.1c6.1,1,12,0.6,18,0.9
				c0.9,0,2.2-0.5,2.1,1.2c-0.1,1.2-1.2,0.8-1.9,0.8c-14.9,0-29.9-0.1-44.8,0C28,122.9,28.2,120.6,27.2,118.9z"/>
			<path fill-rule="evenodd" clip-rule="evenodd" fill="#5A3D22" d="M296,115.8c0.7-0.4,1.7-1.2,2.1-1c3.8,2.3,5.1-0.9,6.9-3
				c6,0.3,12.1-0.8,17.9,2.8c2.4,1.5,6.4,0.2,9.8,0.2c-0.4,2.7-2.5,2-4,2c-5.3,0-10.6,0.1-15.9,0c-4.3-0.1-8.3,0.1-7.9,6.9
				C301.3,120.7,298.7,118.2,296,115.8z"/>
			<path fill-rule="evenodd" clip-rule="evenodd" fill="#5B3D23" d="M83.9,230.8c1.1,1.6,2.9,0.8,3.9,2.1c1,1.3,1.7,2.8,1.1,4
				c-0.8,1.5-2.6,2.1-4.4,1.9c-1.8-0.2-2.9-1.2-2.4-2.9c0.9-3-4.4-5.4-1.4-7.7c1.8-1.4,5.6,0.3,8.1-0.5c5-1.7,10.1-0.4,15.1-0.9
				c1.6-0.2,2.9,0.6,3,1.8c0.1,1.7-1.3,2.3-3,2.2C97.3,230.8,90.7,230.8,83.9,230.8z"/>
			<path fill-rule="evenodd" clip-rule="evenodd" fill="#5B3E24" d="M73,189.3c5.8-0.9,10.3-2.7,15-0.5c1.8,0.8,2.3-0.8,2-2.2
				c-0.3-1.1-2.2-2.4,0.4-2.6c2-0.2,5.4-1.2,5.5,2.1c0.1,4.3,2.6,3.8,5.3,3.8c1.3,0,2.6-0.6,3.8,0.4c1.5,1.3,1.5,2.9,0.6,4.4
				c-1.2,2-2.4,1-3.4-0.2c-3-3.6-7.4-3.3-10.9-2.4C84.9,193.6,79.6,191.2,73,189.3z"/>
			<path fill-rule="evenodd" clip-rule="evenodd" fill="#593C22" d="M246.9,223.8c-17.4,0-34.7,0-52.1,0c-1.1,0-1.9,0-1.9-1.5
				c0-1.4,0.5-1.6,1.8-1.6c12.8,0.6,25.6-0.9,38.5,0.8C237.6,222.2,242.1,223,246.9,223.8z"/>
			<path fill-rule="evenodd" clip-rule="evenodd" fill="#5A3D23" d="M175,27.9c8.5,0.6,17.2-1.5,25.5,2c1.6,0.7,3.3,1,4.6,3.1
				c-11.7-0.4-23.1,0.8-34.3-1.1c-0.3-0.1-0.5-0.7-0.8-1C172.2,30.7,175,31.7,175,27.9z"/>
			<path fill-rule="evenodd" clip-rule="evenodd" fill="#5A3D23" d="M62,223.3c-7.1,1.9-13.9,1.9-20.7,1.5c-9.2-0.5-18.3-2-27.6-1.9
				c-0.9,0-1.7,0-1.6-1.2c0.1-0.8,0.8-0.9,1.5-0.8c11.8,0.7,23.6-1,35.5,0.9C53.3,222.4,57.7,222.3,62,223.3z"/>
			<path fill-rule="evenodd" clip-rule="evenodd" fill="#593C22" d="M68.7,82.9c-9.1,0-18.3,0.1-27.4,0c-3.5,0-6.9-1.4-10.6-1
				c-3.5,0.3-7.1-0.7-10.3,1.8c-0.8,0.6-2.4,0.6-3.1-0.2c-0.5-0.6-0.4-1.9-0.3-2.8c0.3-1.4,1.6-0.8,2.5-0.8c13,0,25.9-0.1,38.9,0.1
				c3.5,0.1,7,1.1,10.5,1.7C68.9,82,68.8,82.4,68.7,82.9z"/>
			<path fill-rule="evenodd" clip-rule="evenodd" fill="#5A3D22" d="M248,381.8c4.1,0,8.3,0,12.4,0c8.2,0,8.2,0,15.8,5
				c-10.6,0-20.8,0-30.9,0c-1.7,0-2.8-0.4-3.4-2C244.2,384.4,247.7,386.3,248,381.8z"/>
			<path fill-rule="evenodd" clip-rule="evenodd" fill="#5A3D23" d="M109,248.8c-0.7,0-1.3,0-2,0c-3.9-3-8.3-2.4-12.4-0.8
				c-1.6,0.6-3,1.3-4.4,0.3c-0.4-0.3-0.3-1.6-0.1-2.3c0.6-2.4,2.5-1,3.7-1c8.8-0.2,17.7-0.5,26.5,0c7,0.4,13.8,1.9,20.8,2.9
				c0.7,0,1,0.3,1,1c0,3.9-2.8,2.9-5,3c-1.6-3.1-4-4.4-7.6-4c-4.9,0.5-9.6-1.1-14.4-1.4C112.7,246.2,110.2,246.2,109,248.8z"/>
			<path fill-rule="evenodd" clip-rule="evenodd" fill="#593C22" d="M42.3,345.8c17.4,0,34.8,0,52.2,0c1,0,2.4-0.8,2.5,1.3
				c0.2,2.3-1.4,1.6-2.6,1.7c-15.5,0.7-30.9-1.6-46.4-1C45.9,347.9,44.3,346.2,42.3,345.8z"/>
			<path fill-rule="evenodd" clip-rule="evenodd" fill="#5A3D23" d="M20.2,202.8c-5.9,0-11.2-3.8-17.3-3c-1.2,0.2-1.1-1.6-0.8-2.3
				c0.5-1.3,1.9-2.4,3.2-1.6c2.3,1.6,4.8,0.6,7.1,0.9c2.9,0.4,4.8-0.4,3.3-3.6c-0.7-1.5,0.2-1.8,0.8-2.2c0.9-0.7,1.7,0.1,2,0.8
				c1.1,2.7,3.6,4.2,5.3,6.3c0.8,1,2.9,1.6,1.9,3.5c-0.8,1.6-2.5,1.2-4,1.2C21.2,202.8,20.7,202.8,20.2,202.8z"/>
			<path fill-rule="evenodd" clip-rule="evenodd" fill="#5C3F25" d="M145,355.8c0.7,0,1.3,0,2,0c3,1.3,5.9,3.1,9.5,1.2
				c1.1-0.6,3.3-1.2,4.3,0.5c0.6,1,1.8,1.9,0.5,3.8c-1.2,1.6-1.9,2.5-4,2.5c-6.6-0.1-13.3,0.5-19.3-3c3.1,0,6.3-0.1,9.4,0
				c1.4,0,2.4-0.7,2.4-1.9c0.1-1.9-1.6-1.1-2.6-1.1c-6.4-0.1-12.8,0-19.3,0c3.9-2.2,8.2-0.3,12.2-1.1
				C141.8,356.5,143.8,358.1,145,355.8z"/>
			<path fill-rule="evenodd" clip-rule="evenodd" fill="#5B3E24" d="M249.3,190.7c7.4-4.1,14.8-3.7,21.8-1.7c3.7,1.1,4.9,1,4.8-2.8
				c0-1.5,0-2.4,2-2.4c2,0,1.9,0.9,2.1,2.4c0.9,7.4,0.3,7.1-7.5,6.2c-5.7-0.7-11.5-3.2-17.5-0.6
				C253.8,192.3,251.6,192.6,249.3,190.7z"/>
			<path fill-rule="evenodd" clip-rule="evenodd" fill="#5A3D23" d="M335.1,309.8c-1.2,1.6-2.6,4.1-4.6,2.9
				c-7.2-4.3-15.1-2.4-22.7-2.9c-1.1-0.1-2.5,0.3-3.3-0.3c-1.1-0.7-3-1.5-2.3-3.3c0.6-1.5,1.7-1.2,3.5-0.7c8,2.2,16.2,1.1,24.4,1.1
				C332.6,306.8,333.9,308,335.1,309.8z"/>
			<path fill-rule="evenodd" clip-rule="evenodd" fill="#5B3E24" d="M126.8,333.6c-5.9-0.1-11.4,0.1-16.2,4.8c-2.6,2.6-8,0-11.4-4.5
				c2,0,3.9,0.2,5.8-0.1c1.3-0.2,4.5,1.7,3.1-2.5c-0.2-0.7,1.7-1.4,3.2-1.6C116.9,329.4,121.9,330.9,126.8,333.6z"/>
			<path fill-rule="evenodd" clip-rule="evenodd" fill="#583A20" d="M163.7,42.6c-9.1,0.3-16.5,4.9-24.9,4.2
				c-2.6-0.2-6.3,0.2-6.5-2.6c-0.1-2.3,3.8-2.2,6.1-2.4C146.5,41.2,154.6,39.4,163.7,42.6z"/>
			<path fill-rule="evenodd" clip-rule="evenodd" fill="#593C22" d="M143,185.8c-0.4-1.9-1.8-0.9-2.8-1c-7.7-0.1-15.4,0-23.1,0
				c0.8-2.2,3.5,0.4,3.9-2c10.4-1,20.9-1.1,31.4-1c1.8,0,3.9-0.8,3.7,2.7c-0.1,3.8-2.8,2.5-4.1,2.2C149,185.8,146,185.9,143,185.8z"
				/>
			<path fill-rule="evenodd" clip-rule="evenodd" fill="#5A3C22" d="M208.5,140.9c-3.3,0-6.6,0-10,0c-1.5,0-2.4-0.8-2.6-2.3
				c-0.2-1.6,1-2.9,2.1-2.8c6.5,0.6,13-0.9,19.6,0.8c2.1,0.5,2.1,2,3.3,2.9c-1,1.3-2.4,1.5-3.9,1.4
				C214.2,140.7,211.4,140.8,208.5,140.9C208.5,140.9,208.5,140.9,208.5,140.9z"/>
			<path fill-rule="evenodd" clip-rule="evenodd" fill="#5C3F25" d="M293,69.9c-1,0-2,0-3,0c0.2-2.2-0.6-4.3-0.2-6.7
				c0.3-2.3-2.2-3.4-4.8-3.4c-1.3,0-3.8,1.7-4-1.8c-0.1-3.5,2.3-1.9,3.7-2.1c2-0.3,4.9,1,4.4-3.1c-0.2-1.4,1.5-0.8,2.3-0.9
				c2.2-0.3,2.6,2.4,2.5,2.8C293.2,59.7,295.8,65,293,69.9z"/>
			<path fill-rule="evenodd" clip-rule="evenodd" fill="#5A3C22" d="M233.9,394.8c2.7,0,5.3,0,8,0c1.5,0,3.9-0.4,3.6,1.6
				c-0.2,1.4-2,3.9-4.3,3.3c-7.6-2-15.4-0.3-23-0.9c-1.1-0.1-3.3,1.2-3.2-1.6c0.1-2.4,1.9-1.1,2.9-1.4
				C223.2,394.6,228.6,394.8,233.9,394.8z"/>
			<path fill-rule="evenodd" clip-rule="evenodd" fill="#583A1F" d="M16.7,140.8c-3.7,0-7.3,0-11,0c-1.6,0-2.8,0.1-2.7-2.2
				c0.1-2.2,1.3-1.8,2.6-1.8c5.2,0,10.3-0.1,15.5,0c2.3,0,4.4-0.3,6.6-1c1.8-0.5,3.3,0.3,3.4,2.4c0,1.8-1.1,2.5-2.8,2.5
				C24.3,140.8,20.5,140.8,16.7,140.8z"/>
			<path fill-rule="evenodd" clip-rule="evenodd" fill="#583B20" d="M152.3,108.2c11,2,21,1.7,31,1.5c4.8-0.1,9.7-1.3,14.6-1
				c1.5,0.1,3-0.1,3.9,1.5c0.2,0.3,0,1.1-0.2,1.2c-1.2,0.5-2.5,0.6-3.7-0.2c-1.7-1.1-3.7-0.7-5.3-0.4c-11.4,2.6-22.8,0.1-34.2,0.9
				C156.2,112,154.4,111.1,152.3,108.2z"/>
			<path fill-rule="evenodd" clip-rule="evenodd" fill="#5A3C22" d="M88,321.8c0.8,2.7,3,2,4.9,2c11.1,0,22.3,0.1,33.4-0.1
				c2,0,3.7,0.6,5.5,1.2c0.1,0,0.1,0.4,0,0.5c-0.2,0.2-0.5,0.3-0.7,0.4c-19-0.5-37.9-1.4-56.9-1c-1.2,0-3.3,1.1-3.1-1.7
				c0.2-2.3,2-1.2,3-1.2C78.7,321.7,83.3,321.8,88,321.8z"/>
			<path fill-rule="evenodd" clip-rule="evenodd" fill="#583A20" d="M132,168.8c9,0,18,0,27,0c2.2,2.5,1.2,3.1-1.6,3
				c-5.3-0.1-10.6,0.1-15.9-0.1c-3.4-0.1-6.9,0.2-9.9,1.4c-2.1,0.8-3.3,0.8-4.6-0.8c-0.5-0.6-1.4-1.1-0.9-2.1c1-1.8,2.7-1.5,4.4-1.4
				C131,168.9,131.5,168.8,132,168.8z"/>
			<path fill-rule="evenodd" clip-rule="evenodd" fill="#5C3E24" d="M78.8,331.8c5,0,10-0.1,15,0.1c1.1,0,3.2-1.1,3.1,1.1
				c0,1.6-1.7,2-3.4,1.9c-3.3-0.1-6.7,0-10,0c-6.8,0-13.6,0-20.5,0c-1.6,0-3.6,0-3.7-1.5c-0.1-1.4,1.9-1.6,3.5-1.6
				C68.1,331.9,73.4,331.8,78.8,331.8z"/>
			<path fill-rule="evenodd" clip-rule="evenodd" fill="#5B3E23" d="M114,24.9c-0.4-3.7-3.2-3.9-5.9-4c-7.4-0.1-14.9,0-22.3-0.1
				c-0.9,0-2.4,1-2.8-1c10,0,20,0,30,0c1.9,0,3.7-0.1,5.7-0.8c5-1.8,7.2-0.2,9.3,5.8C123.2,24.9,118.6,24.9,114,24.9z"/>
			<path fill-rule="evenodd" clip-rule="evenodd" fill="#573A1F" d="M175,27.9c0,3.9-2.8,2.9-5,3c-7.8,0.2-15.6-0.9-23.2,2
				c-2.4,0.9-3.5-1.4-3.7-2.6c-0.3-2,1.5-2.4,3.4-2.4C156,27.9,165.5,27.9,175,27.9z"/>
			<path fill-rule="evenodd" clip-rule="evenodd" fill="#5A3D23" d="M320.1,188.9c-1.2,1.6-2.5,3.8-4.9,2.9
				c-7.2-3-14.7-1.6-22.1-1.9c-1.5-0.1-3,0.2-3.9-1.4c-0.3-0.5-0.3-1.3-0.2-1.9c0.1-0.8,0.8-0.9,1.5-0.7c8.4,2.1,17,0.4,25.5,0.9
				C317.7,186.9,319.2,186.8,320.1,188.9z"/>
			<path fill-rule="evenodd" clip-rule="evenodd" fill="#5A3D22" d="M127,360.8c-0.5,1.7-1.7,2-3.4,2c-8-0.1-16-0.1-23.9,0
				c-2,0-3.8-0.1-3.7-2.7c0.1-2.1,1.7-2.2,3.5-2.4c4.7-0.3,9,1.8,13.5,2.5c4.9,0.8,9.9,1.8,14-2.5C127,358.8,127,359.8,127,360.8z"
				/>
			<path fill-rule="evenodd" clip-rule="evenodd" fill="#5A3D22" d="M185,237.8c0-0.7,0-1.3,0-2c9.1-1.9,18.3-0.6,27.5-1
				c1.7-0.1,2.9,0.2,3.5,1.9c0.5,1.6-0.8,2.3-1.6,3.3c-1.4,1.6-2,0.1-3.2-0.4c-2.4-1.1-5-1.8-7.7-1.8
				C197.3,237.9,191.1,237.8,185,237.8z"/>
			<path fill-rule="evenodd" clip-rule="evenodd" fill="#56381E" d="M264,208.8c0,1,0,2,0,3c-10,0-19.9,0-29.9,0
				c-1.6,0-3.8,0.3-3.8-1.7c0-1.5,2.2-1.4,3.8-1.4C244,208.9,254,208.8,264,208.8z"/>
			<path fill-rule="evenodd" clip-rule="evenodd" fill="#5A3D22" d="M184,174.8c-0.2,2.1,6.2,3.1,1,6c-8.4,1.3-15.7-3.5-23.7-4.2
				c1.8-1.8,7.8-2.6,11.4-1.5C176.5,176.2,180.3,176.4,184,174.8z"/>
			<path fill-rule="evenodd" clip-rule="evenodd" fill="#583B20" d="M125,310.8c1-2.3,2.9-0.9,4.3-0.9c14.1-0.1,28.2-0.1,42.5-0.1
				c-0.8,1.8-2,3.1-3.8,4c-7.5-3.1-15.3-1.8-23-2C138.3,311.7,131.6,312.2,125,310.8z"/>
			<path fill-rule="evenodd" clip-rule="evenodd" fill="#5A3D22" d="M120,128.8c-0.9,2.2-2.7,0.5-4,1c-3.6-3.2-5.9-7.8-11.3-8.9
				c-1.6-0.3-2.3-2.6-2.6-4.3c-0.2-0.8,1-1.9,2-1.8c2.2,0.1,5-0.8,6.2,1.9C112.4,121.7,117,124.6,120,128.8z"/>
			<path fill-rule="evenodd" clip-rule="evenodd" fill="#5B3E23" d="M148.9,72.8c-3-1.3-6.7-1-10.4-0.9c-1.6,0.1-1.5-1.1-1.5-1.9
				c0.1-2.7,4.4-6.3,7-6.1c3.3,0.2,8,4.6,8.1,7.2C152.1,73.2,150.8,72.9,148.9,72.8z"/>
			<path fill-rule="evenodd" clip-rule="evenodd" fill="#5A3D23" d="M201.2,96.4c10.7-3.9,21.6-2.7,32.7-1.5
				c-2.6,4.9-7.3,3.3-10.6,2.7C216,96.3,208.6,97.4,201.2,96.4z"/>
			<path fill-rule="evenodd" clip-rule="evenodd" fill="#5B3E23" d="M230,384.8c-1.1,0-1.7,1.3-3.1,1.1c-3.5-0.6-6.7-0.1-8.4,3.8
				c-0.4,0.9-1.4,2.6-3,1.9c-1.3-0.5-1.4-1.9-1.5-3.3c-0.6-6.5-0.7-6.5,6.1-6.5c3.3,0,6.7,0,10,0C230,382.8,230,383.8,230,384.8z"/>
			<path fill-rule="evenodd" clip-rule="evenodd" fill="#583B20" d="M116,135.8c6.1-0.5,1.3,3.3,2,5c-7.6,0-15.2,0.1-22.9-0.1
				c-1.3,0-4.2,1.8-4.1-1.5c0.1-2.8,2.6-1.2,3.9-1.3c6.2-0.4,12.4,0.6,18.5-1C114.3,136.6,115.1,136.2,116,135.8z"/>
			<path fill-rule="evenodd" clip-rule="evenodd" fill="#5A3D23" d="M19,178.1c0.7-2.2,2.3-1.8,3.5-2.4c1.6-0.8,6.4-0.1,3.5-4.6
				c-0.4-0.6-0.5-2.3,1-2.2c2,0.1,5-1.1,5.7,1.5c0.6,2.3,3.9,5.8-1.1,7.6c-0.9,0.3-0.6,1.4-0.6,2.2c-0.1,2.2-1.1,2.5-2.2,0.9
				C26.3,177.4,22.8,177.4,19,178.1z"/>
			<path fill-rule="evenodd" clip-rule="evenodd" fill="#5A3D23" d="M42.3,77.2c-0.8-0.5-1.3-0.7-1.5-1.1c-2-4.6-6.1-4.3-10.1-4.3
				c-2.4,0-5.2,0.3-2-3.4c1.2-1.4-0.8-5,1.9-5.4c2.6-0.4,4.3,2.3,6.1,4.1c1.9,1.9,3.8,3.7,5.6,5.6C43.7,74.2,43,75.6,42.3,77.2z"/>
			<path fill-rule="evenodd" clip-rule="evenodd" fill="#5A3C22" d="M114.4,57.7c4.3-2.3,8.3-1.6,12.2-1.9c5.2-0.3,10.4,1,15.5-0.9
				c1.5-0.6,2.6,0.7,2.8,2c0.2,1.9-0.7,3-2.9,3c-4.7,0-9.5,0.3-14-1.1C123.8,57.5,119.4,58.1,114.4,57.7z"/>
			<path fill-rule="evenodd" clip-rule="evenodd" fill="#5A3C22" d="M24.5,397.4c10-2.1,19.6-2.9,29.3-2.5c1,0,2.7-0.9,3,0.7
				c0.4,2.1-1.5,1-2.4,1.3C44.6,399.7,34.9,399.2,24.5,397.4z"/>
			<path fill-rule="evenodd" clip-rule="evenodd" fill="#593C22" d="M247,187.8c-1.4-2.4-3.7-2-5.9-2c-10.6,0-21.3,0-31.9-0.1
				c-1,0-3.1,1.1-3.1-1.1c0-1.6,1.8-0.7,2.8-0.8c1.3-0.2,2.7,0,4,0c10.7,0,21.5,0,32.2,0c1.6,0,3.1,0.1,3.6,1.7
				C249.2,186.7,248.2,187.5,247,187.8z"/>
			<path fill-rule="evenodd" clip-rule="evenodd" fill="#593C22" d="M249,80.9c1.8,0,3.6-0.2,5.4,0c1.8,0.2,3.6,0.7,1.6,3
				c-1.5-1.1-3.3-1.1-5.1-1c-9.9,0.7-19.7-1.2-29.6-1c-0.8,0-2.3,0.6-2.2-1c0.1-1.6,1.5-0.9,2.3-0.9C230.6,80,239.8,79.2,249,80.9z"
				/>
			<path fill-rule="evenodd" clip-rule="evenodd" fill="#5C3F25" d="M137.2,38.7c-3.2,0.7-5.2-0.3-6.2-3c-1.2-3.3-1.8-6.7,0.6-9.9
				c0.8-1.1,1.9-1.4,3-0.8c1,0.5,0.7,1.4,0.7,2.5c0.1,2.9-0.8,7.2,4.3,7.3c2,0.1,1.5,1.4,1.4,2.4C140.7,40.6,138,38,137.2,38.7z"/>
			<path fill-rule="evenodd" clip-rule="evenodd" fill="#5A3D22" d="M103.1,196.7c8.9,0,16.9-0.1,24.8,0.1c1,0,2.4,1,2,2.4
				c-0.3,1-1.2,1.7-2.6,1.8c-6.5,0.2-12.9-0.3-19.2-1.7C106.8,198.9,105,199.7,103.1,196.7z"/>
			<path fill-rule="evenodd" clip-rule="evenodd" fill="#5C3F25" d="M353.6,106.6c5.7,3.2,2.6,8.5,3.1,12.7c0.1,0.6-0.8,1.6-0.9,2.6
				c-0.2,1.6-0.3,4.1-2.4,3.6c-1.7-0.4-2.8-2.8-2.5-4.7C351.7,116.2,351.9,111.4,353.6,106.6z"/>
			<path fill-rule="evenodd" clip-rule="evenodd" fill="#5B3E23" d="M217.1,212.8c-0.2,0-0.3,0.1-0.5,0c-1.8-0.7-4.6,1.7-5.5-1.2
				c-1.1-3.2,2.1-4.7,4-6.2c1.9-1.5,4.3-1.2,6,0.9c1.2,1.5,4.1,2.7,3.5,4.2C223.3,213.8,219.8,212.8,217.1,212.8z"/>
			<path fill-rule="evenodd" clip-rule="evenodd" fill="#5B3E23" d="M89.4,199.8c3,0.1,7.3-0.9,7.3,3.3c0,4-4.1,3.9-7.5,3.7
				c-1.7-0.1-3.2,0-4.3-1.5c-1-1.3-2.7-2.2-1.8-4.1c0.7-1.5,2.3-1.6,3.8-1.4C87.8,199.9,88.6,199.8,89.4,199.8z"/>
			<path fill-rule="evenodd" clip-rule="evenodd" fill="#5A3D23" d="M10.7,115.8c3.7-0.7,7.1-3.3,9.6,1.6c0.6,1.3,1.9,2.5,3.2,3.1
				c1.8,0.9,3.5,2.1,2.2,3.8c-0.9,1.2-3.5,1.2-4.8-0.3c-1.4-1.5-2.9-1.2-4.5-1.3c-1.8-0.1-5.3,1.2-2.1-3
				C15.6,118.1,12.3,117.4,10.7,115.8z"/>
			<path fill-rule="evenodd" clip-rule="evenodd" fill="#5A3D22" d="M22.4,214c-2.9-1.3-5.9-1.2-9-1.2c-1.4,0-2.3-1-2.4-2.5
				c-0.1-2,1.4-1.5,2.3-1.4c1.2,0.1,2.2-0.6,2.4-1.4c0.5-2.1,0.5-4,3.5-2c2.7,1.8,5.8,3.1,5.8,7C25,214.7,23.3,213.5,22.4,214z"/>
			<path fill-rule="evenodd" clip-rule="evenodd" fill="#5B3E24" d="M41,372.5c0.3-2.2,2.3-2.7,2.9-4.3c-1.7-2.7-4.6-0.6-6.7-1.6
				c4.5-3.8,14.7-1.1,15.9,4.1c0.3,1.5-0.8,3.7-2.2,3C47.6,372,44.3,373.6,41,372.5z"/>
			<path fill-rule="evenodd" clip-rule="evenodd" fill="#5B3E23" d="M310.9,46.3c-1.3,2.2-3.3,1.5-5,1.5c-5,0-10-0.1-14.9,0
				c-1.6,0-2.7-0.6-2.9-2c-0.2-1.2,1.1-2.2,2.2-2.1C297.2,44.1,304.2,42.8,310.9,46.3z"/>
			<path fill-rule="evenodd" clip-rule="evenodd" fill="#5A3D22" d="M91.3,216.9c-2.3,0-4.6,0.1-6.9,0c-1.4-0.1-2.6-1-2.3-2.5
				c0.3-1.2,1.6-0.4,2.4-0.5c1.6-0.2,3.3-0.3,4.9,0c3.6,0.6,6.1-0.7,6.5-4.4c0.2-1.8,1.2-2,2.2-1.6c3.4,1.5,1.4,4.6,1.9,6.9
				c0.5,2.5-1.3,2.1-2.7,2c-2,0-4,0-5.9,0C91.3,216.9,91.3,216.9,91.3,216.9z"/>
			<path fill-rule="evenodd" clip-rule="evenodd" fill="#583A20" d="M63.8,42.9c5.1-0.6,9.7,0.9,14.2-1c2.5-1.1,3.5,1,4,2.8
				c0.5,1.8-0.5,2.9-2.7,3.2C73.5,48.5,68.3,48,63.8,42.9z"/>
			<path fill-rule="evenodd" clip-rule="evenodd" fill="#593C22" d="M26,324.8c2.1,0.4,4.9-1.3,6,2c-8.4,0-16.9,0-25.3,0
				c-2,0-5,0.7-4.5-2.6c0.4-3,3.4-1.4,4.8-1.2C13.3,324,19.5,325.1,26,324.8z"/>
			<path fill-rule="evenodd" clip-rule="evenodd" fill="#583B20" d="M5.2,96.5c11.2-2.8,22.4-3.7,35-1.2
				C27.7,97.6,16.5,96.6,5.2,96.5z"/>
			<path fill-rule="evenodd" clip-rule="evenodd" fill="#5A3C22" d="M129.7,213.3c-2.3-1.4-6.2,1.7-5.8-3.5c0.2-3.1,1.1-5.2,4.5-4.9
				c3.4,0.2,6.4,1.3,6.5,5.4C135.2,216,130.5,210.5,129.7,213.3z"/>
			<path fill-rule="evenodd" clip-rule="evenodd" fill="#593C22" d="M110.9,59.8c-8.9,0-17.9-0.1-26.8,0.1c-1.6,0-2.9-0.6-3-1.8
				c-0.1-1.7,1.3-2.4,3-2.2c6.8,0.8,13.7,1.2,20.5,2.4C106.6,58.7,108.8,58.3,110.9,59.8z"/>
			<path fill-rule="evenodd" clip-rule="evenodd" fill="#583A21" d="M268.7,260.8c-5.3,0-10.7,0.1-16-0.1c-0.9,0-2.7,1-2.6-1.1
				c0-1.5,1.5-0.9,2.4-0.9c11,0,22,0,33,0c0.8,0,2.3-0.6,2.4,0.8c0.1,2-1.7,1.1-2.6,1.1C279.7,260.9,274.2,260.8,268.7,260.8z"/>
			<path fill-rule="evenodd" clip-rule="evenodd" fill="#5B3E24" d="M348.7,86.8c-3.4,0-6,0.1-8.6,0c-1.6,0-3.7,0.8-4.5-0.9
				c-0.6-1.5,1.5-2.1,2.5-3.2c2.6-2.8-2.8-1.4-1.5-3.7C343,76.4,345.1,81.8,348.7,86.8z"/>
			<path fill-rule="evenodd" clip-rule="evenodd" fill="#5A3D22" d="M75.6,277.8c2.1,0,7.3,4.6,7.4,6.4c0,1.5-0.8,2.6-2.3,2.6
				c-6.9,0.1-8.7-1.1-8.8-5.2C71.9,278.8,72.8,277.5,75.6,277.8z"/>
			<path fill-rule="evenodd" clip-rule="evenodd" fill="#5B3E24" d="M291.5,156.8c1.1,0.7,3.6-1.3,3.5,1.8c0,1.9,0.3,3.9-2.6,4.3
				c-2.9,0.5-5.5,2.3-8.6,2c-1.8-0.2-2.7-0.9-2.8-2.6c-0.1-2.4,1.8-1.3,2.8-1.4c2-0.2,4,0.2,4.2-2.7
				C288.2,155.6,290.3,157.4,291.5,156.8z"/>
			<path fill-rule="evenodd" clip-rule="evenodd" fill="#593C22" d="M270.7,297.8c4.5,0,9,0,13.4,0c1,0,2.7-0.8,2.7,1.1
				c0,1-1.1,2.3-2.4,1.9c-6.1-2.1-12.6,0.3-18.7-1.7c-2.8-0.9-5.2,0.8-7.7,1.4c-1.3,0.3-2.5,0.5-3.7,0.1c-0.3-0.1-0.4-1.2-0.3-1.7
				c0.5-2.1,2.2-0.9,3.3-0.9C261.8,297.7,266.3,297.8,270.7,297.8z"/>
			<path fill-rule="evenodd" clip-rule="evenodd" fill="#5A3D22" d="M319.4,210.8c-1.7,0-3.3,0.1-5,0c-0.9,0-2.2,0.6-2.4-0.8
				c-0.2-1.3-0.2-2.7,0.3-3.8c0.3-0.7,1.7-0.6,2.6,0.1c2.3,1.9,4.1-1.2,6.4-0.6c1.7,0.5,3.5-0.1,4.8,1.7c0.6,0.9,1.1,1.6,0.8,2.7
				c-0.5,1.5-1.6,0.7-2.5,0.7C322.8,210.9,321.1,210.8,319.4,210.8z"/>
			<path fill-rule="evenodd" clip-rule="evenodd" fill="#5A3C22" d="M357,31.8c-0.2,2.6,0.7,5.6-1.7,5.7c-2.2,0.1-4.7-2.1-4.2-4.8
				c0.4-2.2-4-2.8-1.3-5.4c1.4-1.3,2.9-2.1,4.4-1.5C357.1,27.1,357.3,29.8,357,31.8z"/>
			<path fill-rule="evenodd" clip-rule="evenodd" fill="#56381E" d="M127,360.8c0-1,0-2,0-3c0.3,0,0.7,0,1,0c6.4,0,12.9,0,19.3,0
				c1,0,2.7-0.7,2.6,1.1c-0.1,1-1.1,1.9-2.5,1.9c-3.1-0.1-6.3,0-9.4,0C134.3,360.8,130.7,360.8,127,360.8z"/>
			<path fill-rule="evenodd" clip-rule="evenodd" fill="#5B3E24" d="M137.2,384.8c9.8,0,19.5,0,29.3,0c1,0,2.4-0.7,2.5,1.3
				c0,1.2-0.3,2-1.6,1.7C157.4,385.5,147.1,388.3,137.2,384.8z"/>
			<path fill-rule="evenodd" clip-rule="evenodd" fill="#583B20" d="M164,149.8c9.6-0.7,19.1,1.8,28.7,0.9c0.8-0.1,1.2,0.3,1.3,1.1
				c-3.1,1.3-6.1,3-9.7,1c-5.3-2.9-10.6,0.3-16,0C166.1,152.7,163.9,153.1,164,149.8z"/>
			<path fill-rule="evenodd" clip-rule="evenodd" fill="#5A3D21" d="M227,71.8c0.7-1.3,1.4-2.3,1.8-3.3c0.9-2.4,2.4-4.7,4.9-4.6
				c3.1,0.2,3.7,3.7,5.2,5.9c0.8,1.1-0.3,2.2-2.1,2.1C233.6,71.7,230.5,71.8,227,71.8z"/>
			<path fill-rule="evenodd" clip-rule="evenodd" fill="#5A3D22" d="M39.1,112.5c5.3,1.3,10.7,0.7,15.8,2.3c1,0.3,3.2-1,2.9,1.2
				c-0.1,1.2-1.7,3.2-3.1,2.6c-4-1.6-7.6-3-12.1-1.1C41.6,118.1,39.8,115,39.1,112.5z"/>
			<path fill-rule="evenodd" clip-rule="evenodd" fill="#5A3D23" d="M225,370.5c0,1.5,0.3,3-0.1,4.4c-0.2,1-1,1.9-2.5,1.9
				c-1.5,0-1.7-0.9-1.4-1.9c0.5-2.1-1.6-2.7-2.1-4.1c-0.6-1.8-1.9-3.4-0.2-5.3c1.4-1.5,3.2-1,4.6-0.7c1.8,0.4,1.9,2.4,1.7,4.1
				C224.9,369.5,225,370,225,370.5C225,370.5,225,370.5,225,370.5z"/>
			<path fill-rule="evenodd" clip-rule="evenodd" fill="#5A3D23" d="M269.8,285.8c-4.1,0-7.9-0.1-11.7,0c-2.9,0.1-2.6-1.2-1.6-3
				c2.1-3.7,6.7-4.2,9.8-1.2C267.5,282.9,269.1,283.8,269.8,285.8z"/>
			<path fill-rule="evenodd" clip-rule="evenodd" fill="#5A3C22" d="M27,268.8c0.6,0.9,1.2,1.8,1.8,2.7c-1,1.3-3.2-1.1-3.8,1.3
				c-3.6,0-7.3-0.1-10.9,0c-1.6,0.1-2.9-0.6-3-1.8c-0.1-1.7,1.2-2.3,3-2.2C18.4,268.9,22.7,268.8,27,268.8z"/>
			<path fill-rule="evenodd" clip-rule="evenodd" fill="#5A3C22" d="M330,128c0,1,0,2,0,3c0,1.4,0.5,3-2,2.9c-2-0.2-3-0.9-3-3
				c0.1-2.3,0.1-4.7,0-7c-0.1-1.8,0.6-2.9,2.3-3c2.1-0.2,2.8,1.2,2.7,3.2C329.9,125.4,329.9,126.7,330,128z"/>
			<path fill-rule="evenodd" clip-rule="evenodd" fill="#5B3E24" d="M136,374.1c-0.3,0.9,0.7,2.1-0.8,2.6c-1,0.3-1.8,0-2.6-0.7
				c-2.8-2.4-2.9-5.9-3.5-9c-0.4-1.9,1.7-2.2,3.5-2.3c1.9-0.1,2.8,0.4,2.4,2.4C134.4,369.7,135.9,371.9,136,374.1z"/>
			<path fill-rule="evenodd" clip-rule="evenodd" fill="#593C22" d="M262.3,32.9c-4.3,0-8.7,0-13,0c-0.8,0-2.3,0.6-2.2-1
				c0.1-1.6,1.5-0.9,2.3-0.9c8.5,0,17,0,25.5,0c0.8,0,1.8-0.3,2,0.8c0.2,1.6-1.2,1.2-2.1,1.2C270.6,32.9,266.5,32.8,262.3,32.9z"/>
			<path fill-rule="evenodd" clip-rule="evenodd" fill="#5A3D22" d="M158.1,372.8c-1.3-0.7-4.6,1.8-4.1-2.4c0.3-2.6,0.5-5.4,3.9-5.5
				c4.4-0.2,3.5,4.2,4.9,6.5C163.4,372.5,163,372.8,158.1,372.8z"/>
			<path fill-rule="evenodd" clip-rule="evenodd" fill="#593D23" d="M289.9,24.8c-3.7,0-7.2,0-10.7,0c-1.9,0-3.3-0.5-3.2-2.6
				c0.1-1.8,1.2-2.3,2.9-2.4C283.4,19.5,287.3,20.2,289.9,24.8z"/>
			<path fill-rule="evenodd" clip-rule="evenodd" fill="#5A3D23" d="M356.9,214.1c-0.3,1.1,0.6,2.5-0.4,3.6
				c-0.7,0.9-0.6,2.7-2.5,2.1c-1.3-0.4-2.1-1.2-2.1-2.8c0-1.4,0.7-2.9-0.5-4.2c-0.7-0.9-2.4-1.5-0.9-3.1c1.4-1.5,3.2-0.9,4.6-0.7
				c1.2,0.1,2.1,1.4,1.8,3C356.8,212.6,356.9,213.3,356.9,214.1z"/>
			<path fill-rule="evenodd" clip-rule="evenodd" fill="#593C22" d="M181,297.8c-2,2.8-5,1.9-7.7,2c-3.4,0.1-6.9,0-10.3,0
				c-3.9-0.4-8.1,1.2-12.6-2C161.1,297.8,171.1,297.8,181,297.8z"/>
			<path fill-rule="evenodd" clip-rule="evenodd" fill="#5A3D22" d="M242.2,372.8c0.3-2.3,4.9-3.4,1.9-6.7c-0.1-0.1,1.8-1.7,3.3-1.3
				c3.3,1,3.2,4.8,5.4,6.7c0.7,0.6-0.6,1.4-1.8,1.3C248.2,372.7,245.2,372.8,242.2,372.8z"/>
			<path fill-rule="evenodd" clip-rule="evenodd" fill="#593C22" d="M329.5,379.9c2.9-0.4,4.6,0.2,4.5,3.5c0,2.4-1.9,4.7-3,4.2
				c-2.6-1.2-4.6-3.6-6.9-5.5C325.6,380.4,327.2,379.1,329.5,379.9z"/>
			<path fill-rule="evenodd" clip-rule="evenodd" fill="#55381E" d="M76,294.8c0.1,3-1.8,3.1-4,3c-4.7,0-9.3,0-14,0
				c-0.3-2.1,0.1-3.2,2.7-3.1C65.8,295,70.9,294.8,76,294.8z"/>
			<path fill-rule="evenodd" clip-rule="evenodd" fill="#55381C" d="M230,384.8c0-1,0-2,0-3c6,0,12,0,18,0c-0.2,4.6-3.7,2.5-6,3
				C238,384.8,234,384.8,230,384.8z"/>
			<path fill-rule="evenodd" clip-rule="evenodd" fill="#5A3D23" d="M192,167.8c-0.5,1.7-1.7,2.5-3.3,1.9c-1.6-0.6-1.6-2.1-1.7-3.6
				c-0.1-1.4,1.3-3.3-0.9-4.3c-0.5-3.4,1.3-4.5,4.3-3.9c0.6,0.1,1.5,2.4,1.4,2.4C187.6,163.1,192,165.4,192,167.8z"/>
			<path fill-rule="evenodd" clip-rule="evenodd" fill="#583A20" d="M191,372.8c0.6-2.4,2.5-2,4.3-2c7.2,0,14.5,0,21.7,0
				c0.3,3-1.9,2-3.3,2C206.1,372.8,198.5,372.8,191,372.8z"/>
			<path fill-rule="evenodd" clip-rule="evenodd" fill="#593C22" d="M9.2,273.7c2.8,3.3,6.5,3.2,10.2,3.2c1.5,0,3.3-0.8,4.7,0.6
				c0.4,0.4,0.8,1.1,0.8,1.6c0,0.8-0.8,0.8-1.5,0.8c-3.6,0-7.3,0.3-10.9-0.1C9.5,279.4,8.4,277.1,9.2,273.7z"/>
			<path fill-rule="evenodd" clip-rule="evenodd" fill="#5A3D23" d="M239.6,267.3c-4.2,1-7.2,0.5-9.8-2.1c-0.7-0.7-1.5-1.3-2.1-2.1
				c-0.6-0.9-4,0.8-2.3-2.1c1.1-1.9,3.2-1.9,4.6-0.4C232.7,263.2,236.4,264.1,239.6,267.3z"/>
			<path fill-rule="evenodd" clip-rule="evenodd" fill="#5A3D22" d="M348,266.8c0,0.7-0.3,1-1,1c-4.3,0-8.6,0-12.9,0
				c0.5-1.2,1-2.1,2.4-2c2.9,0.3,3.7-1.3,3.5-3.9c-0.1-0.9-0.5-2,1.1-2.1c1.7-0.2,1.9,0.7,1.9,2C342.9,265.2,346.4,265,348,266.8z"
				/>
			<path fill-rule="evenodd" clip-rule="evenodd" fill="#5A3D22" d="M42.2,388.8c1,0,2,0,3,0c1.8,0,2.9,0.8,2.8,2.6
				c-0.1,2.1-1.6,2.6-3.5,2.4c-1.7-0.3-3.2-1.4-5.1-1c-1.3,0.3-2.5,0.3-2.5-1.8c-0.1-2.4,1.3-2.2,2.8-2.1
				C40.6,388.8,41.4,388.8,42.2,388.8z"/>
			<path fill-rule="evenodd" clip-rule="evenodd" fill="#5B3E24" d="M133.6,72.9c3-0.4,4.6,0.4,4.4,3.6c-0.1,2.2-0.7,3.4-3.1,3.3
				c-3.4,0-4.3-2.9-4.8-5.1C129.8,73.1,132,72.5,133.6,72.9z"/>
			<path fill-rule="evenodd" clip-rule="evenodd" fill="#593C22" d="M316.7,386.8c-8.4,0-16.8,0-25.2,0c-0.8,0-2.3,0.6-2.4-0.8
				c-0.1-2,1.6-1.1,2.5-1.1C300.1,384.1,308.4,386.1,316.7,386.8z"/>
			<path fill-rule="evenodd" clip-rule="evenodd" fill="#5A3D22" d="M251.2,269.8c-2.8,0.4-4.5-0.4-4.3-3.6c0.1-1.7-0.6-3.7,2.5-3.4
				c3,0.3,4.3,1.6,4.5,4.6C254.2,269.7,253.2,270.2,251.2,269.8z"/>
			<path fill-rule="evenodd" clip-rule="evenodd" fill="#573A1F" d="M289,137.8c-0.4,1,1,2.6-1,3c-3.6,0-7.3,0-11,0
				c-0.9,0-2,0.3-2.1-1.2c-0.1-1.7,0.7-1.8,2.1-1.8C281,137.9,285,137.8,289,137.8z"/>
			<path fill-rule="evenodd" clip-rule="evenodd" fill="#593C22" d="M25.3,354.9c-1.3,1.4-2.3,0.9-3.3,0.9c-3.4-0.2-5.4-2.3-6.8-5.2
				c-0.3-0.7-0.6-1.5,0.2-1.6c3-0.6,4.9,1.7,7.1,3C23.6,352.6,24.3,353.8,25.3,354.9z"/>
			<path fill-rule="evenodd" clip-rule="evenodd" fill="#5A3D23" d="M175.4,307.9c-1.8-1.4-6.1,0.3-6-2.8c0.1-2.4,4.4-1.4,6.8-2.2
				c1.9-0.6,2.8,0.8,2.9,2.8C179.2,308.9,177,307.5,175.4,307.9z"/>
			<path fill-rule="evenodd" clip-rule="evenodd" fill="#573A20" d="M301,86.8c-1.9-1.7-3.9-1.1-6-0.5c-2.3,0.6-4.8,1.5-7-0.5
				c1.2-2.2,3.2-0.9,4.7-0.9c6.1-0.2,12.1-0.1,18.8-0.1C308.1,88.4,304.3,86.2,301,86.8z"/>
			<path fill-rule="evenodd" clip-rule="evenodd" fill="#5A3D23" d="M224.5,354.8c-3.5-0.2-6.7,1.3-9-1.9c-0.9-1.2-0.9-2.6-0.2-3.6
				c0.7-0.9,1.8-0.4,2.9,0.2C220.4,350.7,222.9,351.4,224.5,354.8z"/>
			<path fill-rule="evenodd" clip-rule="evenodd" fill="#593C22" d="M119.8,118.9c-3.1,0-4.8-1.2-4.9-4.5c-0.1-2,1.1-1.5,2-1.5
				c3.3,0.1,5.4,2.1,5.9,4.9C123.2,119.7,120.9,118.4,119.8,118.9z"/>
			<path fill-rule="evenodd" clip-rule="evenodd" fill="#5A3D24" d="M235,335.5c-0.1-1.3-0.5-2.9,2-2.7c2.5,0.3,3.8,1.5,3.9,4
				c0.1,2-0.7,3-2.8,3C234.9,339.9,234.9,337.9,235,335.5z"/>
			<path fill-rule="evenodd" clip-rule="evenodd" fill="#593D23" d="M330.5,69.9c-2,0.1-3.6-0.2-3.6-2.8c0-2.2,0.9-3.3,3.2-3.2
				c2.3,0.1,3.6,1.5,3.8,3.6C334,69.5,332.4,70,330.5,69.9z"/>
			<path fill-rule="evenodd" clip-rule="evenodd" fill="#583C20" d="M231.9,255.8c3.8,0,7.2,0,10.7,0c1,0,2.3-0.6,2.4,1.4
				c0.1,1.9-1.1,1.8-2.2,1.6C239.2,258.2,234.8,260.8,231.9,255.8z"/>
			<path fill-rule="evenodd" clip-rule="evenodd" fill="#593C22" d="M358,304.8c0.2,2.3-1,2.6-2.7,1.7c-1.1-0.6-1.7-2.1-3.3-1.7
				c-0.4-1.3-2.1-2.8-0.5-3.7c1.4-0.8,3.5-0.6,5.2-0.2C359,301.3,357.5,303.5,358,304.8z"/>
			<path fill-rule="evenodd" clip-rule="evenodd" fill="#5A3D23" d="M313,300.8c2.6,0.2,4.8-0.7,5.9,1.6c0.5,1.1-0.8,1.7-1.4,2.3
				c-0.4,0.5-8.8-1.4-9.1-2c-0.7-1.2,0.7-1.5,1-1.6C310.8,300.8,312.2,300.8,313,300.8z"/>
			<path fill-rule="evenodd" clip-rule="evenodd" fill="#5A3D22" d="M126,321.8c-0.3,0-0.7,0-1,0c-0.6-0.5-1.3-0.9-1.9-1.4
				c-1.6-1.3-3-2.9-2-5c0.6-1.3,2.2-0.7,3.4-0.5c2.7,0.6,2.6,2.7,2.5,4.8C127,320.5,126.4,321.1,126,321.8z"/>
			<path fill-rule="evenodd" clip-rule="evenodd" fill="#593C22" d="M281.8,316.8c2.1,0,3.3,0.9,3.1,2.9c-0.2,1.8,0,4.2-2.7,4.1
				c-2.4-0.1-2.7-2.5-3.1-4.2C279,319,279.6,316.3,281.8,316.8z"/>
			<path fill-rule="evenodd" clip-rule="evenodd" fill="#5A3D23" d="M133.7,87.9c1.9-0.4,2.4,0.4,2.3,2.4c0,2.4-0.7,3.8-3.3,3.6
				c-2.1-0.1-2.7-1.3-2.7-3.2C130,88.1,131.5,87.7,133.7,87.9z"/>
			<path fill-rule="evenodd" clip-rule="evenodd" fill="#5A3C21" d="M242.9,19.9c2-0.1,4.8-0.5,4.8,1.5c0.1,2.3-2.4,3.1-4.7,2.4
				c-1.4-0.4-3.9,1.7-4-1.8C238.8,18.1,241.8,20.6,242.9,19.9z"/>
			<path fill-rule="evenodd" clip-rule="evenodd" fill="#583B20" d="M161,133.8c-1.7,0.1-3.5,0.2-5-1c-1.8-0.6-2.6-1.9-1.7-3.7
				c0.4-0.8,1.2-1.8,2.3-1.3c1.8,0.8,3.8,1.4,4.3,3.5C161.1,132.2,161,133,161,133.8z"/>
			<path fill-rule="evenodd" clip-rule="evenodd" fill="#5A3D22" d="M189.9,335.2c2.9,1.8,6.7-1.5,8,2.9c0.2,0.8,0.9,2.4-1,2.7
				C193,341.5,191.3,339.3,189.9,335.2z"/>
			<path fill-rule="evenodd" clip-rule="evenodd" fill="#593C22" d="M63.6,357.7c1.1,0,2.1-0.1,3.1,0c1.2,0.2,2.4,0.9,2.2,2.1
				c-0.2,1.3-1.3,2.3-2.8,1.9c-0.9-0.2-1.7-0.9-2.6-0.9c-1.8-0.1-4.5,0.2-4.3-1.9C59.4,356.5,62.2,358.5,63.6,357.7z"/>
			<path fill-rule="evenodd" clip-rule="evenodd" fill="#593B22" d="M138.6,176c3-0.8,4.6,0.7,5.3,2.8c0.4,1.1-1,2.2-2.6,2.1
				c-2.6-0.1-4.6-1.6-5.1-3.8C135.6,174.8,138,176.3,138.6,176z"/>
			<path fill-rule="evenodd" clip-rule="evenodd" fill="#583B20" d="M153,283.8c-1.2-1.7-1.4-3.6,0.9-3.9c2-0.3,5.2-1.1,5.1,2.9
				C157.7,287.3,155.1,284.2,153,283.8z"/>
			<path fill-rule="evenodd" clip-rule="evenodd" fill="#593C22" d="M81.1,199.8c-4.4,0-8.6,0-12.9,0
				C71.4,195.7,74.7,195.7,81.1,199.8z"/>
			<path fill-rule="evenodd" clip-rule="evenodd" fill="#5A3D23" d="M277.1,355.3c-0.3,1.5-1.3,2.8-2.1,2.4c-2-1.1-4.2-2.4-4.1-5.4
				c0.1-1.5,1-1.8,1.8-1.5C274.8,351.6,276.4,353.2,277.1,355.3z"/>
			<path fill-rule="evenodd" clip-rule="evenodd" fill="#593C22" d="M318.8,265.3c-0.2,0.6,1.1,2.8-1.6,2.6c-3.7-0.3-1.6-4-3.2-5.8
				c-0.8-0.8,0.9-1.2,1.9-1.2C318.8,260.7,319.2,262.5,318.8,265.3z"/>
			<path fill-rule="evenodd" clip-rule="evenodd" fill="#593C22" d="M38.3,354.3c-4,1.8-5.6-1.1-7.2-3.3c-0.5-0.7,0.9-2,1.6-2.1
				C36.5,348.5,36.7,351.9,38.3,354.3z"/>
			<path fill-rule="evenodd" clip-rule="evenodd" fill="#593B21" d="M284.8,340.2c3.1-0.7,5-4,8.2-1.4c0.8,0.6,1,0.9,1,1.8
				c0,0.7-0.3,1.4-1.1,1.3C290.3,341.3,287.2,343,284.8,340.2z"/>
			<path fill-rule="evenodd" clip-rule="evenodd" fill="#593C22" d="M137,19.8c2.2,0.2,4.1-0.7,4,2.3c-0.1,2.7-1.9,1.6-3.1,1.8
				c-1.7,0.3-3.8,0.1-3.8-1.9C134.1,19.9,136,19.6,137,19.8z"/>
			<path fill-rule="evenodd" clip-rule="evenodd" fill="#5A3D23" d="M89.9,283c-1.4-1.4-3.4-2.4-3.9-4.6c-0.2-1.1,0.3-1.7,1.7-1.6
				c2.5,0.1,3.9,1.3,4.3,3.6C92.2,281.7,91.1,282.3,89.9,283z"/>
			<path fill-rule="evenodd" clip-rule="evenodd" fill="#583A20" d="M23.3,346c-1.7-0.8-4.6,1.3-4.3-2.5c0.1-1.1,0.7-2.4,1.4-1.6
				c1.9,2.2,5.8-1.1,6.4,2.2C27.5,347.6,24,344.5,23.3,346z"/>
			<path fill-rule="evenodd" clip-rule="evenodd" fill="#583B20" d="M263.2,333c8.2,0,16.4,0,24.6,0c0,0.2,0,0.4,0,0.6
				c-8.2,0-16.4,0-24.6,0C263.2,333.3,263.2,333.2,263.2,333z"/>
			<path fill-rule="evenodd" clip-rule="evenodd" fill="#583C24" d="M295.2,406c3.1-5.9,6.4-1.9,9.7-0.8
				C301.9,409.6,298.3,403.7,295.2,406z"/>
			<path fill-rule="evenodd" clip-rule="evenodd" fill="#593C22" d="M299.3,378.8c-2.3,1.6-4,2.7-5.7,3.8c-1,0.6-2.4,0.5-3.2-0.1
				c-0.5-0.5-0.5-1.9-0.3-2.8c0.2-1.5,1.6-0.8,2.4-0.8C294.6,378.8,296.7,378.8,299.3,378.8z"/>
			<path fill-rule="evenodd" clip-rule="evenodd" fill="#573A20" d="M65.3,127.7c3.1,0.4,5.8-1,6.6,2.3c0.4,1.5-0.7,2.5-2.1,2.8
				C65.7,133.9,67.8,129.5,65.3,127.7z"/>
			<path fill-rule="evenodd" clip-rule="evenodd" fill="#573B20" d="M353.7,259.8c2-0.1,3.3,0.6,3.2,2.7c0,1.1,0.4,2.3-1.6,2.3
				c-2.2,0-3.4-0.6-3.4-3C351.9,260.4,352.1,259.5,353.7,259.8z"/>
			<path fill-rule="evenodd" clip-rule="evenodd" fill="#5A3C22" d="M288.2,267c7.2,0,14.4,0,21.6,0c0,0.2,0,0.4,0,0.6
				c-7.2,0-14.5,0-21.7,0C288.1,267.4,288.2,267.2,288.2,267z"/>
			<path fill-rule="evenodd" clip-rule="evenodd" fill="#593B22" d="M273.3,276.8c1.3,1.3,4.2,1.3,3.7,4.3c-0.2,1.2-0.3,1.9-1.6,1.7
				c-2.6-0.4-2.8-2.7-3.4-4.5C271.7,277.4,272.2,276.8,273.3,276.8z"/>
			<path fill-rule="evenodd" clip-rule="evenodd" fill="#583B20" d="M132.8,234.8c-2.7,0.3-1.6-1.8-1.8-3c-0.4-2,0.9-1.9,2.3-2
				c2.2-0.2,2.4,2.1,2.5,2.9C136,234.3,134.5,235.1,132.8,234.8z"/>
			<path fill-rule="evenodd" clip-rule="evenodd" fill="#583A20" d="M232,351.9c-0.4-1.7,0.5-2,2.1-2.2c2.1-0.2,3.2,0.8,3.4,2.3
				c0.2,1.3-1.1,2.1-2.6,1.8C233.8,353.5,231.7,354.8,232,351.9z"/>
			<path fill-rule="evenodd" clip-rule="evenodd" fill="#583A20" d="M265.3,360.9c-1.1-0.7-3.3,1.2-3.3-1.5c0-3.1,2.5-1.3,3.7-1.4
				c1-0.1,3.3-1.3,3.3,1.3C268.9,362.3,266.4,360.1,265.3,360.9z"/>
			<path fill-rule="evenodd" clip-rule="evenodd" fill="#583B20" d="M26.5,45.9c-1.1-0.7-3.6,1.4-3.5-1.8c0.1-2.3,1.9-1,2.9-1.3
				c1.7-0.4,3.9,0,4,1.7C30.1,47.1,27.7,45.3,26.5,45.9z"/>
			<path fill-rule="evenodd" clip-rule="evenodd" fill="#583B21" d="M151.3,93.6c-2.6,0.2-5,1.4-6.1-2c-0.3-1-0.3-1.6,0.8-1.7
				C148.7,89.4,150.1,90.9,151.3,93.6z"/>
			<path fill-rule="evenodd" clip-rule="evenodd" fill="#593C22" d="M27,205.1c0.1-1.2,0.8-1.3,1.7-1.2c1.9,0.1,3.9,0.2,4.3,2.6
				c0.3,1.6-0.9,1.3-1.9,1.4C28.8,208.2,28.1,206.3,27,205.1z"/>
			<path fill-rule="evenodd" clip-rule="evenodd" fill="#5A3D22" d="M248,381.8c-6,0-12,0-18,0C236,380.2,242,380.2,248,381.8z"/>
			<path fill-rule="evenodd" clip-rule="evenodd" fill="#563A1F" d="M68.7,114.7c1.3,0.5,3.3-0.8,3.2,1.3c-0.1,1.5-1.7,2.1-3.4,1.8
				c-1.1-0.2-2.7,0.7-2.5-1.7C66.1,113.7,68.1,115.6,68.7,114.7z"/>
			<path fill-rule="evenodd" clip-rule="evenodd" fill="#593C22" d="M100.1,369.8c-1.1-0.4-3.1,0.9-3-1.3c0-1.1,1.4-1.9,3.1-1.8
				c1.6,0.1,2.8,0.7,2.7,2.1C102.8,370.7,101,369.5,100.1,369.8z"/>
			<path fill-rule="evenodd" clip-rule="evenodd" fill="#583B21" d="M44.6,180.8c-1.2-0.1-2.8,0.6-2.6-1.7c0.1-2,1.5-1.3,2.5-1.3
				c1.1,0,2.7-0.7,2.6,1.6C46.9,181.5,45.5,180.6,44.6,180.8z"/>
			<path fill-rule="evenodd" clip-rule="evenodd" fill="#583B21" d="M250,183.5c1.5-2,3.1-2.4,4.7-0.4c0.6,0.7,1.9,1.2,1,2.3
				c-0.7,0.8-1.9,0.7-2.6,0C252.2,184.5,251.2,183.8,250,183.5z"/>
			<path fill-rule="evenodd" clip-rule="evenodd" fill="#583B21" d="M274.2,285c4.5,0,9.1,0,13.6,0c0,0.2,0,0.4,0,0.6
				c-4.6,0-9.1,0-13.7,0C274.2,285.4,274.2,285.2,274.2,285z"/>
			<path fill-rule="evenodd" clip-rule="evenodd" fill="#583B21" d="M321.4,382.6c-0.7,0.8-1.2,1.9-1.7,1.9c-2-0.1-1.7-2.3-2.6-3.4
				c-0.6-0.7,0.3-1.2,1.3-1.3C320.6,379.6,319.6,382.1,321.4,382.6z"/>
			<path fill-rule="evenodd" clip-rule="evenodd" fill="#5E4228" d="M347,284.8c0.9,2.4,0.8,4.1-2.5,4c-5.3-0.1-10.5-0.2-15.8,0.1
				c-2.2,0.1-3-1.1-3.4-2.4c-0.8-2.2,0.9-2.7,2.7-2.8c2,2,4.8,1.4,6.8,0.8C338.9,283.5,342.9,283.9,347,284.8z"/>
			<path fill-rule="evenodd" clip-rule="evenodd" fill="#593B22" d="M347,284.8c-5.4-2.3-10.9,0.3-16.3,0c-0.9-0.1-2.4,0.9-2.7-1
				c3.8-2.2,7.9-0.4,11.7-1c3.1-0.5,6.4,1.1,9.3-1c1.3,0.4,3.7-1.1,3.9,1.3c0.3,3.4-2.6,1.1-4,1.7C348.4,285,347.6,284.8,347,284.8z
				"/>
			<path fill-rule="evenodd" clip-rule="evenodd" fill="#583A20" d="M156,275.8c-8.4,0-16.9,0-25.3,0c-1.9,0-4.5,0.6-4.5-2.2
				c0-2.3,2-3.3,4.4-2.8c7.1,1.2,14.3,1,21.4,1C155.2,271.3,155.8,273.3,156,275.8z"/>
			<path fill-rule="evenodd" clip-rule="evenodd" fill="#583A20" d="M194.9,255.8c-0.9,1.9-2,3.2-4.4,3.1c-2.1-0.1-5.1-0.1-5.1-2.1
				c0-2,2.9-0.7,4.5-0.9C191.5,255.6,193.1,255.8,194.9,255.8z"/>
			<path fill-rule="evenodd" clip-rule="evenodd" fill="#57391F" d="M157.5,270.9c4.5,0,8.4,0,13.4,0
				C166,272.9,162.2,274.1,157.5,270.9z"/>
			<path fill-rule="evenodd" clip-rule="evenodd" fill="#5E4228" d="M109,248.8c3.2-5.1,8.1-1.8,12-1.7c2.5,0.1,5.4,0.8,8,0.6
				c3.7-0.2,6.3,0.8,8,4.1c-2.5-0.1-4.8,0-6.5,2.7c-0.9,1.5-2.6,3-5.2,1.5c-1.4-0.8-3.5-0.2-5.3-0.2c-1.3-3.9-2.2-4.1-5-1
				c-2.2,0-4.8,0.6-4-3.2C111.3,250.1,110.3,249.3,109,248.8z"/>
			<path fill-rule="evenodd" clip-rule="evenodd" fill="#593C22" d="M129.9,282.9c-1.4-0.7-4.2,1.4-3.9-1.9c0.1-0.9,0.6-3.7,2.1-3
				c2,0.9,5.4,1.2,5.6,3.7C134,284.2,131.2,282.1,129.9,282.9z"/>
			<path fill-rule="evenodd" clip-rule="evenodd" fill="#593B20" d="M115,254.8c2.8-3.1,3.7-2.9,5,1
				C118.4,255.2,116.3,257.1,115,254.8z"/>
			<path fill-rule="evenodd" clip-rule="evenodd" fill="#583B20" d="M279.4,97.5c2.7-4.2,5.8-1.6,8.2-2.6
				C285.8,98.3,282.7,96,279.4,97.5z"/>
			<path fill-rule="evenodd" clip-rule="evenodd" fill="#5E4228" d="M271.3,90.8c0.8,0,1.8,0,1.7,1.4c-0.1,0.6,0,1.4-0.7,1.5
				c-1.3,0.2-2-0.8-2.3-1.9C269.8,91.2,270.4,90.7,271.3,90.8z"/>
			<path fill-rule="evenodd" clip-rule="evenodd" fill="#573A20" d="M260.8,121.7c-7.9,0-15.7,0-23.6,0c0-0.2,0-0.4,0-0.6
				c7.9,0,15.7,0,23.6,0C260.8,121.3,260.8,121.5,260.8,121.7z"/>
			<path fill-rule="evenodd" clip-rule="evenodd" fill="#5E4228" d="M227.1,322.8c-1,0-1.6,0-2.2,0c-6.9,0-8.6-2.1-7-8.7
				c0.5-1.9,1.4-3.3,3.7-1.2C224.6,315.4,225.9,318.6,227.1,322.8z"/>
		</g>
	</g>
</g>
</svg>
