<?xml version="1.0" encoding="utf-8"?>
<!-- Generator: Adobe Illustrator 16.0.0, SVG Export Plug-In . SVG Version: 6.00 Build 0)  -->
<!DOCTYPE svg PUBLIC "-//W3C//DTD SVG 1.1//EN" "http://www.w3.org/Graphics/SVG/1.1/DTD/svg11.dtd">
<svg version="1.1" id="Layer_2" xmlns="http://www.w3.org/2000/svg" xmlns:xlink="http://www.w3.org/1999/xlink" x="0px" y="0px"
	 width="72.58px" height="71.67px" viewBox="0 0 72.58 71.67" enable-background="new 0 0 72.58 71.67" xml:space="preserve">
<g>
	<g>
		
			<radialGradient id="SVGID_1_" cx="50.8359" cy="56.1699" r="35.762" gradientTransform="matrix(1 0 0 -1 -15.4502 87.6445)" gradientUnits="userSpaceOnUse">
			<stop  offset="0" style="stop-color:#B26B79"/>
			<stop  offset="1" style="stop-color:#852842"/>
		</radialGradient>
		<path fill="url(#SVGID_1_)" d="M60.69,60.479c-6.83,6.801-15.07,10.201-24.7,10.201c-9.63,0-17.85-3.4-24.65-10.201
			C4.5,53.64,1.08,45.41,1.08,35.78c0-9.63,3.42-17.85,10.25-24.65C18.13,4.3,26.35,0.88,35.98,0.88
			c9.63,0,17.871,3.42,24.701,10.25c6.799,6.8,10.199,15.02,10.199,24.65C70.88,45.41,67.479,53.64,60.69,60.479z"/>
	</g>
	<g>
		
			<radialGradient id="SVGID_2_" cx="50.8359" cy="44.2715" r="23.2877" gradientTransform="matrix(1 0 0 -1 -15.4502 87.6445)" gradientUnits="userSpaceOnUse">
			<stop  offset="0" style="stop-color:#FFFFFF"/>
			<stop  offset="1" style="stop-color:#934258"/>
		</radialGradient>
		<path fill="url(#SVGID_2_)" d="M35.68,63.13c-3.53,0-6.57-1.23-9.1-3.699c-2.5-2.531-3.75-5.57-3.75-9.101
			c0-3.47,1.25-6.47,3.75-9c2.53-2.5,5.57-3.75,9.1-3.75c3.469,0,6.469,1.25,9,3.75c2.5,2.53,3.75,5.53,3.75,9
			c0,3.53-1.25,6.569-3.75,9.101C42.149,61.89,39.149,63.13,35.68,63.13z"/>
	</g>
	<g>
		<g>
			<g>
				
					<radialGradient id="SVGID_3_" cx="50.8359" cy="56.1699" r="35.762" gradientTransform="matrix(1 0 0 -1 -15.4502 87.6445)" gradientUnits="userSpaceOnUse">
					<stop  offset="0" style="stop-color:#B26B79"/>
					<stop  offset="1" style="stop-color:#852842"/>
				</radialGradient>
				<path fill="url(#SVGID_3_)" d="M60.69,60.479c-6.83,6.801-15.07,10.201-24.7,10.201c-9.63,0-17.85-3.4-24.65-10.201
					C4.5,53.64,1.08,45.41,1.08,35.78c0-9.63,3.42-17.85,10.25-24.65C18.13,4.3,26.35,0.88,35.98,0.88
					c9.63,0,17.871,3.42,24.701,10.25c6.799,6.8,10.199,15.02,10.199,24.65C70.88,45.41,67.479,53.64,60.69,60.479z"/>
			</g>
			<g>
				
					<radialGradient id="SVGID_4_" cx="50.8359" cy="44.2715" r="23.2877" gradientTransform="matrix(1 0 0 -1 -15.4502 87.6445)" gradientUnits="userSpaceOnUse">
					<stop  offset="0" style="stop-color:#FFFFFF"/>
					<stop  offset="1" style="stop-color:#934258"/>
				</radialGradient>
				<path fill="url(#SVGID_4_)" d="M35.68,63.13c-3.53,0-6.57-1.23-9.1-3.699c-2.5-2.531-3.75-5.57-3.75-9.101
					c0-3.47,1.25-6.47,3.75-9c2.53-2.5,5.57-3.75,9.1-3.75c3.469,0,6.469,1.25,9,3.75c2.5,2.53,3.75,5.53,3.75,9
					c0,3.53-1.25,6.569-3.75,9.101C42.149,61.89,39.149,63.13,35.68,63.13z"/>
			</g>
		</g>
		<g>
			<g>
				
					<radialGradient id="SVGID_5_" cx="50.2842" cy="90.1191" r="37.2012" gradientTransform="matrix(1 0 0 -1 -15.4502 87.6445)" gradientUnits="userSpaceOnUse">
					<stop  offset="0" style="stop-color:#FFFFFF"/>
					<stop  offset="1" style="stop-color:#FFFFFF;stop-opacity:0"/>
				</radialGradient>
				<path fill="url(#SVGID_5_)" d="M57.44,18.78c0,4.27-2.15,7.92-6.45,10.95c-4.23,3-9.33,4.5-15.3,4.5c-6,0-11.12-1.5-15.35-4.5
					c-4.23-3.03-6.35-6.68-6.35-10.95c0-4.3,2.12-7.93,6.35-10.9c4.23-3.03,9.35-4.55,15.35-4.55c5.97,0,11.07,1.52,15.3,4.55
					C55.29,10.84,57.44,14.48,57.44,18.78z"/>
			</g>
		</g>
	</g>
	<g>
		
			<radialGradient id="SVGID_6_" cx="50.8359" cy="56.1699" r="35.762" gradientTransform="matrix(1 0 0 -1 -15.4502 87.6445)" gradientUnits="userSpaceOnUse">
			<stop  offset="0" style="stop-color:#B26B79"/>
			<stop  offset="1" style="stop-color:#941A1D"/>
		</radialGradient>
		<path fill="url(#SVGID_6_)" d="M60.69,60.479c-6.83,6.801-15.07,10.201-24.7,10.201c-9.63,0-17.85-3.4-24.65-10.201
			C4.5,53.64,1.08,45.41,1.08,35.78c0-9.63,3.42-17.85,10.25-24.65C18.13,4.3,26.35,0.88,35.98,0.88
			c9.63,0,17.871,3.42,24.701,10.25c6.799,6.8,10.199,15.02,10.199,24.65C70.88,45.41,67.479,53.64,60.69,60.479z"/>
	</g>
	<g>
		
			<radialGradient id="SVGID_7_" cx="50.8359" cy="44.2715" r="23.2877" gradientTransform="matrix(1 0 0 -1 -15.4502 87.6445)" gradientUnits="userSpaceOnUse">
			<stop  offset="0" style="stop-color:#FFFFFF"/>
			<stop  offset="1" style="stop-color:#934258"/>
		</radialGradient>
		<path fill="url(#SVGID_7_)" d="M35.68,63.13c-3.53,0-6.57-1.23-9.1-3.699c-2.5-2.531-3.75-5.57-3.75-9.101
			c0-3.47,1.25-6.47,3.75-9c2.53-2.5,5.57-3.75,9.1-3.75c3.469,0,6.469,1.25,9,3.75c2.5,2.53,3.75,5.53,3.75,9
			c0,3.53-1.25,6.569-3.75,9.101C42.149,61.89,39.149,63.13,35.68,63.13z"/>
	</g>
	<g>
		<path d="M39.94,56.92l-1.301-3.399h-6l-1.25,3.399h-3.2l5.85-14.95h3.2l5.95,14.95H39.94z M37.63,51.03l-2.05-5.6l-2.05,5.6H37.63
			z"/>
	</g>
	<g>
		<g>
			
				<radialGradient id="SVGID_8_" cx="50.2842" cy="90.1191" r="37.2012" gradientTransform="matrix(1 0 0 -1 -15.4502 87.6445)" gradientUnits="userSpaceOnUse">
				<stop  offset="0" style="stop-color:#FFFFFF"/>
				<stop  offset="1" style="stop-color:#FFFFFF;stop-opacity:0"/>
			</radialGradient>
			<path fill="url(#SVGID_8_)" d="M57.44,18.78c0,4.27-2.15,7.92-6.45,10.95c-4.23,3-9.33,4.5-15.3,4.5c-6,0-11.12-1.5-15.35-4.5
				c-4.23-3.03-6.35-6.68-6.35-10.95c0-4.3,2.12-7.93,6.35-10.9c4.23-3.03,9.35-4.55,15.35-4.55c5.97,0,11.07,1.52,15.3,4.55
				C55.29,10.84,57.44,14.48,57.44,18.78z"/>
		</g>
	</g>
</g>
</svg>
