<?xml version="1.0" encoding="utf-8"?>
<!-- Generator: Adobe Illustrator 16.0.0, SVG Export Plug-In . SVG Version: 6.00 Build 0)  -->
<!DOCTYPE svg PUBLIC "-//W3C//DTD SVG 1.1//EN" "http://www.w3.org/Graphics/SVG/1.1/DTD/svg11.dtd">
<svg version="1.1" id="Layer_1" xmlns="http://www.w3.org/2000/svg" xmlns:xlink="http://www.w3.org/1999/xlink" x="0px" y="0px"
	 width="71.5px" height="71.67px" viewBox="0 0 71.5 71.67" enable-background="new 0 0 71.5 71.67" xml:space="preserve">
<g>
	<g>
		<radialGradient id="SVGID_1_" cx="35.0166" cy="31.4834" r="35.7625" gradientUnits="userSpaceOnUse">
			<stop  offset="0" style="stop-color:#2D3BC0"/>
			<stop  offset="1" style="stop-color:#05138A"/>
		</radialGradient>
		<path fill-rule="evenodd" clip-rule="evenodd" fill="url(#SVGID_1_)" d="M60.32,60.43c-6.83,6.83-15.07,10.25-24.7,10.25
			c-9.63,0-17.85-3.42-24.65-10.25C4.13,53.63,0.72,45.42,0.72,35.78c0-9.63,3.42-17.87,10.25-24.7c6.8-6.8,15.02-10.2,24.65-10.2
			c9.63,0,17.87,3.4,24.7,10.2c6.8,6.83,10.2,15.07,10.2,24.7C70.52,45.42,67.12,53.63,60.32,60.43z"/>
	</g>
	<g>
		<radialGradient id="SVGID_2_" cx="35.0166" cy="43.3833" r="17.1125" gradientUnits="userSpaceOnUse">
			<stop  offset="0" style="stop-color:#FFFFFF"/>
			<stop  offset="0.5725" style="stop-color:#C8CBE7"/>
			<stop  offset="1" style="stop-color:#737CBC"/>
		</radialGradient>
		<path fill-rule="evenodd" clip-rule="evenodd" fill="url(#SVGID_2_)" d="M35.32,37.58c3.47,0,6.47,1.25,9,3.75
			c2.5,2.53,3.75,5.53,3.75,9c0,3.53-1.25,6.57-3.75,9.1c-2.53,2.47-5.53,3.7-9,3.7c-3.53,0-6.57-1.23-9.1-3.7
			c-2.5-2.53-3.75-5.57-3.75-9.1c0-3.47,1.25-6.47,3.75-9C28.75,38.83,31.78,37.58,35.32,37.58z"/>
	</g>
	<g>
		<radialGradient id="SVGID_3_" cx="34.4663" cy="-2.4663" r="37.2" gradientUnits="userSpaceOnUse">
			<stop  offset="0" style="stop-color:#FFFFFF"/>
			<stop  offset="1" style="stop-color:#FFFFFF;stop-opacity:0"/>
		</radialGradient>
		<path fill-rule="evenodd" clip-rule="evenodd" fill="url(#SVGID_3_)" d="M57.07,18.78c0,4.27-2.15,7.92-6.45,10.95
			c-4.23,3-9.33,4.5-15.3,4.5c-6,0-11.12-1.5-15.35-4.5c-4.27-3.03-6.4-6.68-6.4-10.95c0-4.3,2.13-7.93,6.4-10.9
			c4.23-3.03,9.35-4.55,15.35-4.55c5.97,0,11.07,1.52,15.3,4.55C54.92,10.85,57.07,14.48,57.07,18.78z"/>
	</g>
	<g>
		<path fill-rule="evenodd" clip-rule="evenodd" d="M40.12,56.13c-0.53,0.37-1.22,0.6-2.05,0.7c-0.5,0.07-1.7,0.1-3.6,0.1h-5.1
			V41.98h5.95c1.2,0,2.08,0.05,2.65,0.15c0.6,0.07,1.13,0.27,1.6,0.6c0.43,0.3,0.82,0.72,1.15,1.25c0.3,0.53,0.45,1.12,0.45,1.75
			c0,0.7-0.18,1.35-0.55,1.95c-0.4,0.57-0.92,1-1.55,1.3c0.9,0.27,1.6,0.72,2.1,1.35c0.47,0.63,0.7,1.38,0.7,2.25
			c0,0.7-0.15,1.37-0.45,2C41.08,55.22,40.65,55.73,40.12,56.13z M32.37,44.43v3.5h2c1.17,0,1.9-0.02,2.2-0.05
			c0.5-0.07,0.9-0.25,1.2-0.55c0.3-0.3,0.45-0.7,0.45-1.2c0-0.43-0.13-0.8-0.4-1.1c-0.23-0.3-0.6-0.48-1.1-0.55
			c-0.3-0.03-1.17-0.05-2.6-0.05H32.37z M37.52,50.63c-0.43-0.17-1.33-0.25-2.7-0.25h-2.45v4.05h2.8c1.1,0,1.8-0.03,2.1-0.1
			c0.43-0.1,0.8-0.3,1.1-0.6c0.27-0.33,0.4-0.77,0.4-1.3c0-0.43-0.12-0.82-0.35-1.15C38.22,50.98,37.92,50.77,37.52,50.63z"/>
	</g>
</g>
</svg>
