<?xml version="1.0" encoding="utf-8"?>
<!-- Generator: Adobe Illustrator 16.0.0, SVG Export Plug-In . SVG Version: 6.00 Build 0)  -->
<!DOCTYPE svg PUBLIC "-//W3C//DTD SVG 1.1//EN" "http://www.w3.org/Graphics/SVG/1.1/DTD/svg11.dtd">
<svg version="1.1" id="Layer_1" xmlns="http://www.w3.org/2000/svg" xmlns:xlink="http://www.w3.org/1999/xlink" x="0px" y="0px"
	 width="857px" height="844px" viewBox="0 0 857 844" enable-background="new 0 0 857 844" xml:space="preserve">
<g>
	<g>
		
			<radialGradient id="SVGID_1_" cx="430.6992" cy="737.1504" r="458.5345" gradientTransform="matrix(1 0 0 0.9302 0 51.4305)" gradientUnits="userSpaceOnUse">
			<stop  offset="0" style="stop-color:#FFFFFF"/>
			<stop  offset="0.6" style="stop-color:#FEFEFE;stop-opacity:0.7804"/>
			<stop  offset="0.7804" style="stop-color:#FCFCFC;stop-opacity:0.2706"/>
			<stop  offset="1" style="stop-color:#FAFAFA;stop-opacity:0"/>
		</radialGradient>
		<path fill-rule="evenodd" clip-rule="evenodd" fill="url(#SVGID_1_)" d="M861.6,737.15c0,0.23-0.08,0.43-0.25,0.6
			c-0.17,0.1-0.33,0.15-0.5,0.15H0.55c-0.2,0-0.35-0.05-0.45-0.15c-0.2-0.17-0.3-0.37-0.3-0.6c0-0.17,0.1-0.33,0.3-0.5
			c0.1-0.17,0.25-0.25,0.45-0.25h860.3c0.17,0,0.33,0.08,0.5,0.25C861.52,736.82,861.6,736.98,861.6,737.15z"/>
		<g>
			<rect y="738.95" fill-rule="evenodd" clip-rule="evenodd" fill="#342921" width="860.3" height="105.95"/>
		</g>
		<g>
			<line fill-rule="evenodd" clip-rule="evenodd" fill="none" x1="46.05" y1="737.8" x2="772" y2="737.8"/>
		</g>
		<g>
			
				<radialGradient id="SVGID_2_" cx="421.25" cy="580.4502" r="504.2875" gradientTransform="matrix(1 0 0 1.1319 0 -76.5867)" gradientUnits="userSpaceOnUse">
				<stop  offset="0" style="stop-color:#709589"/>
				<stop  offset="0.7451" style="stop-color:#415452"/>
				<stop  offset="1" style="stop-color:#395257"/>
				<stop  offset="1" style="stop-color:#25363A"/>
			</radialGradient>
			<rect fill-rule="evenodd" clip-rule="evenodd" fill="url(#SVGID_2_)" width="860.3" height="595.75"/>
		</g>
		<g>
			<linearGradient id="SVGID_3_" gradientUnits="userSpaceOnUse" x1="430.3975" y1="611.1338" x2="430.4269" y2="584.9588">
				<stop  offset="0" style="stop-color:#000000"/>
				<stop  offset="0.1529" style="stop-color:#000000;stop-opacity:0.6588"/>
				<stop  offset="1" style="stop-color:#000000;stop-opacity:0"/>
			</linearGradient>
			<path fill-rule="evenodd" clip-rule="evenodd" fill="url(#SVGID_3_)" d="M860.3,550.05v72.3c0,4.87-0.93,7.3-2.8,7.3H3.3
				c-1.83,0-2.75-2.43-2.75-7.3v-72.3H860.3z"/>
		</g>
		<g>
			<rect x="-0.25" y="792.85" fill-rule="evenodd" clip-rule="evenodd" fill="#493A25" width="860.55" height="20.6"/>
			
				<radialGradient id="SVGID_4_" cx="396.9004" cy="684.0996" r="491.0875" gradientTransform="matrix(1 0 0 0.6687 0 226.646)" gradientUnits="userSpaceOnUse">
				<stop  offset="0" style="stop-color:#CEB197"/>
				<stop  offset="0.9882" style="stop-color:#474430"/>
			</radialGradient>
			<rect x="-0.25" y="590.8" fill-rule="evenodd" clip-rule="evenodd" fill="url(#SVGID_4_)" width="860.55" height="202.05"/>
		</g>
		<g>
			
				<radialGradient id="SVGID_5_" cx="517.7734" cy="793.4502" r="426.0578" gradientTransform="matrix(1 0 -0.2927 2.6155 143.4293 -1281.8491)" gradientUnits="userSpaceOnUse">
				<stop  offset="0" style="stop-color:#FFFFFF"/>
				<stop  offset="0.749" style="stop-color:#FFFFFF;stop-opacity:0.498"/>
				<stop  offset="1" style="stop-color:#FFFFFF;stop-opacity:0"/>
			</radialGradient>
			<polygon fill-rule="evenodd" clip-rule="evenodd" fill="url(#SVGID_5_)" points="855.1,792.85 854.95,794.35 2.85,794.35 
				3,792.85 			"/>
		</g>
	</g>
</g>
<g>
	<g>
		
			<radialGradient id="SVGID_6_" cx="163.7002" cy="673.5498" r="168.3375" gradientTransform="matrix(1 0 0 0.0544 0 636.8889)" gradientUnits="userSpaceOnUse">
			<stop  offset="0" style="stop-color:#000000;stop-opacity:0.251"/>
			<stop  offset="0.3922" style="stop-color:#000000;stop-opacity:0.1333"/>
			<stop  offset="0.5412" style="stop-color:#000000;stop-opacity:0.0863"/>
			<stop  offset="0.7176" style="stop-color:#000000;stop-opacity:3.921568e-003"/>
		</radialGradient>
		<path fill-rule="evenodd" clip-rule="evenodd" fill="url(#SVGID_6_)" d="M188.85,677.8c-2.03,9.63-19.48,13.78-52.35,12.45
			s-56.32-4.13-70.35-8.4c-14-4.3-22.88-6.6-26.65-6.9v-10.4c1.97-0.17,4.05-0.33,6.25-0.5h148L188.85,677.8z"/>
	</g>
	<g>
		<g>
			<linearGradient id="SVGID_7_" gradientUnits="userSpaceOnUse" x1="449.75" y1="672.1123" x2="449.75" y2="688.1873">
				<stop  offset="0" style="stop-color:#000000"/>
				<stop  offset="0.6235" style="stop-color:#394A48;stop-opacity:0.8275"/>
				<stop  offset="0.7922" style="stop-color:#415452;stop-opacity:0.298"/>
				<stop  offset="0.9059" style="stop-color:#395257;stop-opacity:0"/>
			</linearGradient>
			<path fill-rule="evenodd" clip-rule="evenodd" fill="url(#SVGID_7_)" d="M714.95,687.1H183.2l23.5-59.35h490.05l19.55,59.1
				C715.83,686.92,715.38,687,714.95,687.1z"/>
		</g>
		<g>
			
				<radialGradient id="SVGID_8_" cx="467.5498" cy="666.9004" r="494.1375" gradientTransform="matrix(1 0 0 0.0212 0 652.7462)" gradientUnits="userSpaceOnUse">
				<stop  offset="0" style="stop-color:#000000;stop-opacity:0.251"/>
				<stop  offset="0.3922" style="stop-color:#000000;stop-opacity:0.1216"/>
				<stop  offset="0.5412" style="stop-color:#000000;stop-opacity:0.0863"/>
				<stop  offset="0.7176" style="stop-color:#000000;stop-opacity:3.921568e-003"/>
			</radialGradient>
			<path fill-rule="evenodd" clip-rule="evenodd" fill="url(#SVGID_8_)" d="M858.2,661.9v10.05c-7.7,0.17-15.78,0.3-24.25,0.4
				c-101.23,1.47-223.37,2.2-366.4,2.2c-143,0-265.1-0.73-366.3-2.2c-23.8-0.37-44.8-0.73-63-1.1v-8.6c18.2-0.4,39.2-0.78,63-1.15
				c101.2-1.43,223.3-2.15,366.3-2.15c143.03,0,265.17,0.72,366.4,2.15C842.42,661.6,850.5,661.73,858.2,661.9z"/>
		</g>
		<g>
			
				<linearGradient id="SVGID_9_" gradientUnits="userSpaceOnUse" x1="-893.915" y1="-242.7505" x2="-725.2311" y2="-242.7505" gradientTransform="matrix(-0.8369 -0.5473 0.4569 -0.896 -113.8888 -33.9332)">
				<stop  offset="0" style="stop-color:#6E707E"/>
				<stop  offset="1" style="stop-color:#928795"/>
			</linearGradient>
			<polygon fill-rule="evenodd" clip-rule="evenodd" fill="url(#SVGID_9_)" points="708.5,637 707.2,637 204.15,637 192.45,637 
				193.75,634.25 201.45,617.25 208.15,602.25 691.45,602.25 698.8,617.25 707.1,634.25 707.2,634.4 			"/>
			<path fill-rule="evenodd" clip-rule="evenodd" fill="#31353C" d="M696.9,665.6h11.25v10.85H696.9V665.6z M192.45,665.6h10.9v8.45
				h-10.9V665.6z"/>
			<polygon fill-rule="evenodd" clip-rule="evenodd" fill="#3E454F" points="203.35,665.6 192.45,665.6 188.75,665.6 192.45,637 
				204.15,637 707.2,637 708.5,637 711.3,665.6 708.15,665.6 696.9,665.6 686.2,665.6 684.85,657.75 214.5,657.75 212.8,665.7 
				212.65,665.6 			"/>
		</g>
		<g>
			
				<radialGradient id="SVGID_10_" cx="449.7246" cy="637.2998" r="255.9756" gradientTransform="matrix(1 0 0 3.5691 0 -1637.3127)" gradientUnits="userSpaceOnUse">
				<stop  offset="0" style="stop-color:#FFFFFF"/>
				<stop  offset="0.749" style="stop-color:#FFFFFF;stop-opacity:0.498"/>
				<stop  offset="1" style="stop-color:#FFFFFF;stop-opacity:0"/>
			</radialGradient>
			<rect x="193.7" y="636.85" fill-rule="evenodd" clip-rule="evenodd" fill="url(#SVGID_10_)" width="512.05" height="1.25"/>
		</g>
	</g>
	<g>
		<g>
			
				<radialGradient id="SVGID_11_" cx="456.5498" cy="617.25" r="26.4125" gradientTransform="matrix(1 0 0 0.2248 0 478.4929)" gradientUnits="userSpaceOnUse">
				<stop  offset="0" style="stop-color:#000000;stop-opacity:0.7059"/>
				<stop  offset="0.3922" style="stop-color:#000000;stop-opacity:0.498"/>
				<stop  offset="0.6157" style="stop-color:#000000;stop-opacity:0.1059"/>
				<stop  offset="0.9255" style="stop-color:#000000;stop-opacity:3.921568e-003"/>
			</radialGradient>
			<path fill-rule="evenodd" clip-rule="evenodd" fill="url(#SVGID_11_)" d="M481.45,617.25c0,1.53-2.42,2.83-7.25,3.9
				c-4.87,1.1-10.75,1.65-17.65,1.65c-6.87,0-12.72-0.55-17.55-1.65c-4.83-1.07-7.25-2.37-7.25-3.9c0-1.57,2.42-2.88,7.25-3.95
				c4.83-1.1,10.68-1.65,17.55-1.65c6.9,0,12.78,0.55,17.65,1.65C479.03,614.37,481.45,615.68,481.45,617.25z"/>
		</g>
		<g>
			<linearGradient id="SVGID_12_" gradientUnits="userSpaceOnUse" x1="438.875" y1="453.8125" x2="467.925" y2="453.8125">
				<stop  offset="0" style="stop-color:#666666"/>
				<stop  offset="0.149" style="stop-color:#595959"/>
				<stop  offset="0.3216" style="stop-color:#AEAEAE"/>
				<stop  offset="0.4588" style="stop-color:#808080"/>
				<stop  offset="0.7059" style="stop-color:#FFFFFF"/>
				<stop  offset="0.851" style="stop-color:#9D9B9B"/>
				<stop  offset="1" style="stop-color:#666464"/>
			</linearGradient>
			<path fill-rule="evenodd" clip-rule="evenodd" fill="url(#SVGID_12_)" d="M466.15,288.45v328.6c-7,2.83-14.58,2.83-22.75,0
				v-328.6H466.15z"/>
		</g>
		<g>
			<path fill-rule="evenodd" clip-rule="evenodd" fill="#2F0F14" d="M452.05,302.35c-0.67-0.67-1-1.47-1-2.4c0-0.93,0.33-1.73,1-2.4
				c0.7-0.67,1.5-1,2.4-1c0.93,0,1.73,0.33,2.4,1c0.67,0.67,1,1.47,1,2.4c0,0.93-0.33,1.73-1,2.4c-0.67,0.67-1.47,1-2.4,1
				C453.55,303.35,452.75,303.02,452.05,302.35z"/>
		</g>
		<g>
			<linearGradient id="SVGID_13_" gradientUnits="userSpaceOnUse" x1="446.875" y1="294.2129" x2="462.3242" y2="294.2129">
				<stop  offset="0" style="stop-color:#932E3C"/>
				<stop  offset="0.051" style="stop-color:#D06A7E"/>
				<stop  offset="0.1255" style="stop-color:#8B2C39"/>
				<stop  offset="0.8706" style="stop-color:#521A25"/>
				<stop  offset="0.9333" style="stop-color:#331118"/>
				<stop  offset="1" style="stop-color:#471621"/>
			</linearGradient>
			<path fill-rule="evenodd" clip-rule="evenodd" fill="url(#SVGID_13_)" d="M446.9,288.45h15.45v10.45
				c-5.17,1.43-10.32,1.43-15.45,0V288.45z"/>
		</g>
		<g>
			<linearGradient id="SVGID_14_" gradientUnits="userSpaceOnUse" x1="438.8496" y1="270.3125" x2="470.5498" y2="270.3125">
				<stop  offset="0" style="stop-color:#932E3C"/>
				<stop  offset="0.051" style="stop-color:#D06A7E"/>
				<stop  offset="0.1255" style="stop-color:#8B2C39"/>
				<stop  offset="0.8706" style="stop-color:#521A25"/>
				<stop  offset="0.9333" style="stop-color:#331118"/>
				<stop  offset="1" style="stop-color:#471621"/>
			</linearGradient>
			<path fill-rule="evenodd" clip-rule="evenodd" fill="url(#SVGID_14_)" d="M438.85,250.95h31.7v37.5
				c-10.77,1.63-21.33,1.63-31.7,0V250.95z"/>
		</g>
		<g>
			<polygon fill-rule="evenodd" clip-rule="evenodd" fill="#C66073" points="441.15,251.65 470,251.65 468.4,253.65 441.15,253.65 
							"/>
		</g>
	</g>
	<g>
		<g>
			<polygon fill-rule="evenodd" clip-rule="evenodd" points="264.35,617.85 264.8,622.25 199.65,622.25 201.35,617.85 			"/>
		</g>
		<g>
			
				<radialGradient id="SVGID_15_" cx="274.1001" cy="620.7998" r="60.3" gradientTransform="matrix(1 0 0 0.0533 0 587.7265)" gradientUnits="userSpaceOnUse">
				<stop  offset="0" style="stop-color:#000000;stop-opacity:0.251"/>
				<stop  offset="0.3922" style="stop-color:#000000;stop-opacity:0.1294"/>
				<stop  offset="0.5412" style="stop-color:#000000;stop-opacity:0.0863"/>
				<stop  offset="0.7176" style="stop-color:#000000;stop-opacity:3.921568e-003"/>
			</radialGradient>
			<path fill-rule="evenodd" clip-rule="evenodd" fill="url(#SVGID_15_)" d="M314.35,622.95c-11.03,0.57-24.45,0.85-40.25,0.85
				c-15.63,0-28.98-0.28-40.05-0.85c-11.03-0.57-16.55-1.28-16.55-2.15c0-0.83,5.52-1.53,16.55-2.1
				c11.07-0.63,24.42-0.95,40.05-0.95c15.8,0,29.22,0.32,40.25,0.95c11.07,0.57,16.6,1.27,16.6,2.1
				C330.95,621.67,325.42,622.38,314.35,622.95z"/>
		</g>
		<g>
			<g>
				
					<linearGradient id="SVGID_16_" gradientUnits="userSpaceOnUse" x1="-635.7554" y1="332.7275" x2="-624.9304" y2="332.7275" gradientTransform="matrix(9.237876e-005 -1 1 -1.000000e-003 -61.9945 -62.0002)">
					<stop  offset="0" style="stop-color:#666666"/>
					<stop  offset="0.149" style="stop-color:#595959"/>
					<stop  offset="0.3216" style="stop-color:#AEAEAE"/>
					<stop  offset="0.4588" style="stop-color:#808080"/>
					<stop  offset="0.7059" style="stop-color:#FFFFFF"/>
					<stop  offset="0.851" style="stop-color:#9D9B9B"/>
					<stop  offset="1" style="stop-color:#666464"/>
				</linearGradient>
				<path fill-rule="evenodd" clip-rule="evenodd" fill="url(#SVGID_16_)" d="M264.2,573.55h-25.7v-11.2h40.15h23.15
					c1.4,3.77,1.4,7.5,0,11.2h-23.15H264.2z"/>
				<path fill-rule="evenodd" clip-rule="evenodd" fill="#481F2F" d="M176.6,577.4h44.55v0.1h17.55v-0.1h1.9v5.1h-58.8
					c-1.9-2.13-3.45-3.7-4.65-4.7C177.02,577.67,176.83,577.53,176.6,577.4z M167.65,577.4l-4.7,5.1H127v-5.1H167.65z"/>
				
					<linearGradient id="SVGID_17_" gradientUnits="userSpaceOnUse" x1="-636.4658" y1="292.5122" x2="-621.0158" y2="292.5122" gradientTransform="matrix(6.472493e-005 -1 1 -1.000000e-003 -61.9958 -62.0002)">
					<stop  offset="7.843138e-003" style="stop-color:#3A2C2E"/>
					<stop  offset="0.0667" style="stop-color:#8B696A"/>
					<stop  offset="0.1412" style="stop-color:#C49899"/>
					<stop  offset="0.3216" style="stop-color:#342123"/>
					<stop  offset="0.4078" style="stop-color:#A37979"/>
					<stop  offset="0.5176" style="stop-color:#E7C8CD"/>
					<stop  offset="0.6157" style="stop-color:#885E5E"/>
					<stop  offset="0.698" style="stop-color:#A87D7E"/>
					<stop  offset="0.7725" style="stop-color:#1F1415"/>
					<stop  offset="0.8706" style="stop-color:#BA8F90"/>
					<stop  offset="0.949" style="stop-color:#ECCFD4"/>
					<stop  offset="1" style="stop-color:#B54A61"/>
				</linearGradient>
				<polygon fill-rule="evenodd" clip-rule="evenodd" fill="url(#SVGID_17_)" points="238.5,573.55 238.5,576.1 222.45,576.1 
					222.45,573.55 222.45,562.35 222.45,558.55 238.5,558.55 238.5,562.35 				"/>
				
					<linearGradient id="SVGID_18_" gradientUnits="userSpaceOnUse" x1="359.2705" y1="-446.0684" x2="488.8023" y2="-446.0684" gradientTransform="matrix(-0.371 0.9286 -0.9286 -0.371 -85.0018 57.5753)">
					<stop  offset="0" style="stop-color:#842639"/>
					<stop  offset="0.1176" style="stop-color:#952B37"/>
					<stop  offset="0.5059" style="stop-color:#952B37"/>
					<stop  offset="1" style="stop-color:#691F2E"/>
				</linearGradient>
				<path fill-rule="evenodd" clip-rule="evenodd" fill="url(#SVGID_18_)" d="M238.5,576.1v-2.55h25.7v32.95h-11.6v-17.65V577.6
					h-3.4v8.95h-35.95c-2,0.5-3.23,1.92-3.7,4.25v15.7h-1.65l-9.5,3.75c-0.47-1.07-1.08-1.88-1.85-2.45c-0.13-0.17-0.33-0.3-0.6-0.4
					c-0.17-0.83-1.85-2.17-5.05-4h-17.55c-2.4,1.27-3.87,2.42-4.4,3.45h-28.8c-0.9,0.1-1.75,0.27-2.55,0.5
					c-0.17,0.03-0.33,0.08-0.5,0.15c-2.67,0.37-4.9,1.52-6.7,3.45c-2.77,3.07-4.45,8.1-5.05,15.1v0.05
					c-0.03,0.27-0.05,0.53-0.05,0.8c-0.1,1.23-0.25,2.42-0.45,3.55c-0.17,0.93-0.43,1.97-0.8,3.1c-1.97,5.47-6.03,8.25-12.2,8.35
					c-0.17,0-0.32,0-0.45,0c-1.87,0.03-3.75-0.2-5.65-0.7c-0.37-0.1-0.7-0.2-1-0.3c-0.27-0.13-0.5-0.25-0.7-0.35
					c-1.87-0.9-3.28-2.27-4.25-4.1c-0.17-0.1-0.27-0.35-0.3-0.75c-0.33-2.47,1-10.53,4-24.2c0.53-2.3,1.1-4.75,1.7-7.35
					c0.07-0.4,0.12-0.8,0.15-1.2v-0.1c0.3-2.33,0.1-5.4-0.6-9.2v0.45c-0.67-5.77-3.43-8.47-8.3-8.1v-0.95H240.6v-2.55v-5.1h-1.9
					v-1.3H238.5z"/>
				
					<linearGradient id="SVGID_19_" gradientUnits="userSpaceOnUse" x1="-636.8115" y1="236.7676" x2="-623.3615" y2="236.7676" gradientTransform="matrix(7.434945e-005 -1 1 -1.000000e-003 -61.9953 -61.9997)">
					<stop  offset="0" style="stop-color:#666666"/>
					<stop  offset="0.149" style="stop-color:#595959"/>
					<stop  offset="0.3216" style="stop-color:#AEAEAE"/>
					<stop  offset="0.4588" style="stop-color:#808080"/>
					<stop  offset="0.7059" style="stop-color:#FFFFFF"/>
					<stop  offset="0.851" style="stop-color:#9D9B9B"/>
					<stop  offset="1" style="stop-color:#666464"/>
				</linearGradient>
				<rect x="127" y="562.35" fill-rule="evenodd" clip-rule="evenodd" fill="url(#SVGID_19_)" width="95.45" height="11.2"/>
				<path fill-rule="evenodd" clip-rule="evenodd" fill="#B7434C" d="M199.55,616.9c0-0.67-0.02-1.28-0.05-1.85
					c-0.2-1.93-0.57-3.53-1.1-4.8l9.5-3.75h1.65h4.4h38.65h11.6l1.15,10.4H199.55z"/>
				
					<linearGradient id="SVGID_20_" gradientUnits="userSpaceOnUse" x1="-35.8789" y1="-654.9512" x2="3.7816" y2="-654.9512" gradientTransform="matrix(-0.866 0.5 -0.5 -0.866 -115.6947 30.997)">
					<stop  offset="0" style="stop-color:#6D232C"/>
					<stop  offset="1" style="stop-color:#852731"/>
				</linearGradient>
				<path fill-rule="evenodd" clip-rule="evenodd" fill="url(#SVGID_20_)" d="M249.2,586.55l-2.1,2.3h-6.5h-23.5
					c-1.9,0.43-2.95,1.5-3.15,3.2v14.45h-4.4v-15.7c0.47-2.33,1.7-3.75,3.7-4.25H249.2z"/>
				<linearGradient id="SVGID_21_" gradientUnits="userSpaceOnUse" x1="214.7876" y1="597.6748" x2="259.3126" y2="597.6748">
					<stop  offset="0" style="stop-color:#8E2A32"/>
					<stop  offset="1" style="stop-color:#832731"/>
				</linearGradient>
				<path fill-rule="evenodd" clip-rule="evenodd" fill="url(#SVGID_21_)" d="M247.1,588.85h5.5v17.65h-38.65v-14.45
					c0.2-1.7,1.25-2.77,3.15-3.2h23.5H247.1z"/>
				<polygon fill-rule="evenodd" clip-rule="evenodd" fill="#B43444" points="181.8,582.5 240.6,582.5 240.6,585.05 96.45,585.05 
					79.45,585.05 79.45,582.5 127,582.5 162.95,582.5 				"/>
				<polygon fill-rule="evenodd" clip-rule="evenodd" fill="#5E2025" points="247.1,588.85 249.2,586.55 249.2,577.6 252.6,577.6 
					252.6,588.85 				"/>
				
					<linearGradient id="SVGID_22_" gradientUnits="userSpaceOnUse" x1="-394.2998" y1="-619.4253" x2="-323.1998" y2="-619.4253" gradientTransform="matrix(-1 0 0 -1 -124 0)">
					<stop  offset="0" style="stop-color:#551A20"/>
					<stop  offset="0.5647" style="stop-color:#A3313B"/>
					<stop  offset="1" style="stop-color:#621E25"/>
				</linearGradient>
				<path fill-rule="evenodd" clip-rule="evenodd" fill="url(#SVGID_22_)" d="M199.55,616.9h65.8l-0.8,5.05h-64.6
					c-0.2-2.27-0.3-3.68-0.3-4.25C199.65,617.23,199.62,616.97,199.55,616.9z"/>
				<path fill-rule="evenodd" clip-rule="evenodd" fill="#952B37" d="M167.65,577.4l0.3-0.3c3-1.73,5.88-1.63,8.65,0.3
					c0.23,0.13,0.42,0.27,0.55,0.4c1.2,1,2.75,2.57,4.65,4.7h-18.85L167.65,577.4z M79.45,585.05h17V586h-17V585.05z"/>
				
					<linearGradient id="SVGID_23_" gradientUnits="userSpaceOnUse" x1="-644.6885" y1="165.2461" x2="-616.8408" y2="165.2461" gradientTransform="matrix(3.593891e-005 -1 1 -1.000000e-003 -61.9977 -62.0002)">
					<stop  offset="0" style="stop-color:#702131"/>
					<stop  offset="0.5686" style="stop-color:#A22D33"/>
					<stop  offset="1" style="stop-color:#692429"/>
				</linearGradient>
				<polygon fill-rule="evenodd" clip-rule="evenodd" fill="url(#SVGID_23_)" points="127,562.35 127,573.55 127,577.4 127,582.5 
					79.45,582.5 79.45,554.7 127,554.7 				"/>
				<path fill-rule="evenodd" clip-rule="evenodd" fill="#621C28" d="M137.1,607.5c-2.77,0.93-5,2.68-6.7,5.25
					c-2.1,3.2-3.38,7.68-3.85,13.45c-0.1,1.6-0.32,3.12-0.65,4.55c-0.2,1.1-0.45,2.1-0.75,3c-0.07,0.1-0.1,0.18-0.1,0.25
					c-2.2,6.33-6.7,9.42-13.5,9.25c-0.07-0.03-0.12-0.03-0.15,0h-0.1c-0.27-0.03-0.52-0.05-0.75-0.05c-1.97-0.17-3.7-0.45-5.2-0.85
					c-3.57-1.03-5.83-2.82-6.8-5.35c-0.1-0.3-0.18-0.58-0.25-0.85c0-0.03-0.02-0.05-0.05-0.05c0-0.1,0-0.18,0-0.25
					c-0.37-1.6-0.32-3.4,0.15-5.4l6.05-27.7c0.33-2.93,0.45-5.45,0.35-7.55l-0.05-1.1v-0.45c0.7,3.8,0.9,6.87,0.6,9.2v0.1
					c-0.03,0.4-0.08,0.8-0.15,1.2c-0.6,2.6-1.17,5.05-1.7,7.35c-3,13.67-4.33,21.73-4,24.2c0.03,0.4,0.13,0.65,0.3,0.75
					c0.97,1.83,2.38,3.2,4.25,4.1c0.2,0.1,0.43,0.22,0.7,0.35c0.3,0.1,0.63,0.2,1,0.3c1.9,0.5,3.78,0.73,5.65,0.7
					c0.13,0,0.28,0,0.45,0c6.17-0.1,10.23-2.88,12.2-8.35c0.37-1.13,0.63-2.17,0.8-3.1c0.2-1.13,0.35-2.32,0.45-3.55
					c0-0.27,0.02-0.53,0.05-0.8v-0.05c0.6-7,2.28-12.03,5.05-15.1C132.2,609.02,134.43,607.87,137.1,607.5z"/>
				<path fill-rule="evenodd" clip-rule="evenodd" fill="#692128" d="M195.95,607.4c-0.37-0.27-0.8-0.45-1.3-0.55H169.9h-0.95
					c0.53-1.03,2-2.18,4.4-3.45h17.55C194.1,605.23,195.78,606.57,195.95,607.4z"/>
				<path fill-rule="evenodd" clip-rule="evenodd" fill="#0F1515" d="M169.9,606.85c-8.4,2.33-13.77,9.35-16.1,21.05
					c-0.9,10.3-4.32,14.17-10.25,11.6c-2.27-1.03-3.4-3.8-3.4-8.3v-24.35h28.8H169.9z"/>
				
					<linearGradient id="SVGID_24_" gradientUnits="userSpaceOnUse" x1="-644.6504" y1="137.3438" x2="-613.1254" y2="137.3438" gradientTransform="matrix(3.172086e-005 -1 1 -9.999999e-004 -61.9978 -62.0002)">
					<stop  offset="7.843138e-003" style="stop-color:#3A2C2E"/>
					<stop  offset="0.0667" style="stop-color:#8B696A"/>
					<stop  offset="0.1412" style="stop-color:#C49899"/>
					<stop  offset="0.2824" style="stop-color:#342123"/>
					<stop  offset="0.4078" style="stop-color:#A37979"/>
					<stop  offset="0.5176" style="stop-color:#E7C8CD"/>
					<stop  offset="0.6157" style="stop-color:#885E5E"/>
					<stop  offset="0.698" style="stop-color:#A87D7E"/>
					<stop  offset="0.7725" style="stop-color:#1F1415"/>
					<stop  offset="0.8706" style="stop-color:#BA8F90"/>
					<stop  offset="0.9451" style="stop-color:#ECCFD4"/>
				</linearGradient>
				<path fill-rule="evenodd" clip-rule="evenodd" fill="url(#SVGID_24_)" d="M79.45,582.5c-0.57,0.7-1.13,1.25-1.7,1.65l-0.05,0.05
					c-1.47,1-2.93,0.98-4.4-0.05c-0.57-0.4-1.13-0.95-1.7-1.65l-0.15-8.95l-0.25-11.2v-8.5c2.57-3.4,5.13-3.4,7.7,0l0.55,0.85V582.5
					z"/>
				
					<linearGradient id="SVGID_25_" gradientUnits="userSpaceOnUse" x1="-635.0068" y1="131.4834" x2="-625.2568" y2="131.4834" gradientTransform="matrix(1.025641e-004 -1 1 -1.000000e-003 -61.9936 -62.0002)">
					<stop  offset="0" style="stop-color:#666666"/>
					<stop  offset="0.149" style="stop-color:#595959"/>
					<stop  offset="0.3216" style="stop-color:#AEAEAE"/>
					<stop  offset="0.4588" style="stop-color:#808080"/>
					<stop  offset="0.7059" style="stop-color:#FFFFFF"/>
					<stop  offset="0.851" style="stop-color:#9D9B9B"/>
					<stop  offset="1" style="stop-color:#666464"/>
				</linearGradient>
				<polygon fill-rule="evenodd" clip-rule="evenodd" fill="url(#SVGID_25_)" points="71.2,562.35 71.45,573.55 67.4,573.55 
					67.4,562.35 				"/>
				
					<linearGradient id="SVGID_26_" gradientUnits="userSpaceOnUse" x1="-640.938" y1="125.1646" x2="-619.913" y2="125.1646" gradientTransform="matrix(4.756243e-005 -1 1 -1.000000e-003 -61.9972 -62.0002)">
					<stop  offset="7.843138e-003" style="stop-color:#3A2C2E"/>
					<stop  offset="0.0667" style="stop-color:#8B696A"/>
					<stop  offset="0.1412" style="stop-color:#C49899"/>
					<stop  offset="0.2824" style="stop-color:#342123"/>
					<stop  offset="0.4078" style="stop-color:#A37979"/>
					<stop  offset="0.5176" style="stop-color:#E7C8CD"/>
					<stop  offset="0.6157" style="stop-color:#885E5E"/>
					<stop  offset="0.698" style="stop-color:#A87D7E"/>
					<stop  offset="0.7725" style="stop-color:#1F1415"/>
					<stop  offset="0.8706" style="stop-color:#BA8F90"/>
					<stop  offset="0.9451" style="stop-color:#ECCFD4"/>
				</linearGradient>
				<path fill-rule="evenodd" clip-rule="evenodd" fill="url(#SVGID_26_)" d="M67.4,573.55v5.35c-2.87,0.77-5.57,0.77-8.1,0
					c-0.57-7.57-0.57-14.6,0-21.1c2.67-0.47,5.37-0.47,8.1,0v4.55V573.55z"/>
			</g>
			<g>
				<g>
					<path fill-rule="evenodd" clip-rule="evenodd" d="M261.26,615.05c0.57-0.15,0.85-0.33,0.85-0.54s-0.28-0.39-0.85-0.54
						c-0.62-0.16-1.34-0.23-2.16-0.23c-0.82,0-1.52,0.08-2.09,0.23c-0.62,0.15-0.93,0.33-0.93,0.54s0.31,0.39,0.93,0.54
						c0.57,0.15,1.26,0.23,2.09,0.23C259.92,615.28,260.64,615.21,261.26,615.05z"/>
					
						<linearGradient id="SVGID_27_" gradientUnits="userSpaceOnUse" x1="-113.9248" y1="19.0254" x2="-110.7749" y2="19.0254" gradientTransform="matrix(-1.5458 0 0 1.5458 85.562 584.0502)">
						<stop  offset="0" style="stop-color:#2C090D"/>
						<stop  offset="0.502" style="stop-color:#692128"/>
						<stop  offset="1" style="stop-color:#431015"/>
					</linearGradient>
					<path fill-rule="evenodd" clip-rule="evenodd" fill="url(#SVGID_27_)" d="M261.47,614.42c0.1-0.1,0.15-0.2,0.15-0.31v-2.01
						h-4.87v2.01c0,0.16,0.11,0.28,0.31,0.39c0.1,0.05,0.26,0.1,0.46,0.15c0.41,0.1,0.95,0.16,1.62,0.16c0.67,0,1.24-0.05,1.7-0.16
						C261.16,614.55,261.37,614.48,261.47,614.42z"/>
					
						<radialGradient id="SVGID_28_" cx="-112.2505" cy="18.3501" r="2.5506" gradientTransform="matrix(-1.5458 0 0 1.5458 85.562 584.0502)" gradientUnits="userSpaceOnUse">
						<stop  offset="0" style="stop-color:#FFFFFF"/>
						<stop  offset="1" style="stop-color:#8F8F8F"/>
					</radialGradient>
					<path fill-rule="evenodd" clip-rule="evenodd" fill="url(#SVGID_28_)" d="M261.24,612.96c0.57-0.16,0.85-0.33,0.85-0.54
						s-0.28-0.39-0.85-0.54c-0.62-0.15-1.34-0.23-2.16-0.23s-1.52,0.08-2.09,0.23c-0.62,0.16-0.93,0.34-0.93,0.54
						s0.31,0.39,0.93,0.54c0.57,0.15,1.26,0.23,2.09,0.23S260.62,613.11,261.24,612.96z"/>
				</g>
				<g>
					<path fill-rule="evenodd" clip-rule="evenodd" d="M207.56,615.05c0.57-0.15,0.85-0.33,0.85-0.54s-0.28-0.39-0.85-0.54
						c-0.62-0.16-1.34-0.23-2.16-0.23c-0.82,0-1.52,0.08-2.09,0.23c-0.62,0.15-0.93,0.33-0.93,0.54s0.31,0.39,0.93,0.54
						c0.57,0.15,1.26,0.23,2.09,0.23C206.22,615.28,206.94,615.21,207.56,615.05z"/>
					
						<linearGradient id="SVGID_29_" gradientUnits="userSpaceOnUse" x1="-113.9248" y1="19.0254" x2="-110.7754" y2="19.0254" gradientTransform="matrix(-1.5458 0 0 1.5458 31.8628 584.0502)">
						<stop  offset="0" style="stop-color:#2C090D"/>
						<stop  offset="0.502" style="stop-color:#692128"/>
						<stop  offset="1" style="stop-color:#431015"/>
					</linearGradient>
					<path fill-rule="evenodd" clip-rule="evenodd" fill="url(#SVGID_29_)" d="M207.77,614.42c0.1-0.1,0.15-0.2,0.15-0.31v-2.01
						h-4.87v2.01c0,0.16,0.11,0.28,0.31,0.39c0.1,0.05,0.26,0.1,0.46,0.15c0.41,0.1,0.95,0.16,1.62,0.16c0.67,0,1.24-0.05,1.7-0.16
						C207.46,614.55,207.67,614.48,207.77,614.42z"/>
					
						<radialGradient id="SVGID_30_" cx="-112.25" cy="18.3501" r="2.55" gradientTransform="matrix(-1.5458 0 0 1.5458 31.8628 584.0502)" gradientUnits="userSpaceOnUse">
						<stop  offset="0" style="stop-color:#FFFFFF"/>
						<stop  offset="1" style="stop-color:#8F8F8F"/>
					</radialGradient>
					<path fill-rule="evenodd" clip-rule="evenodd" fill="url(#SVGID_30_)" d="M207.54,612.96c0.57-0.16,0.85-0.33,0.85-0.54
						s-0.28-0.39-0.85-0.54c-0.62-0.15-1.34-0.23-2.16-0.23s-1.52,0.08-2.09,0.23c-0.62,0.16-0.93,0.34-0.93,0.54
						s0.31,0.39,0.93,0.54c0.57,0.15,1.26,0.23,2.09,0.23S206.92,613.11,207.54,612.96z"/>
				</g>
			</g>
			<g>
				
					<linearGradient id="SVGID_31_" gradientUnits="userSpaceOnUse" x1="-636.1895" y1="314.4385" x2="-621.3395" y2="314.4385" gradientTransform="matrix(6.734007e-005 -1 1 -1.000000e-003 -61.9956 -62.0002)">
					<stop  offset="0" style="stop-color:#702131"/>
					<stop  offset="0.5686" style="stop-color:#A22D33"/>
					<stop  offset="1" style="stop-color:#692429"/>
				</linearGradient>
				<rect x="240.6" y="559.35" fill-rule="evenodd" clip-rule="evenodd" fill="url(#SVGID_31_)" width="23.6" height="14.2"/>
			</g>
			<g>
				<g>
					<path fill-rule="evenodd" clip-rule="evenodd" fill="#300E12" d="M173.42,581.39c0.5-0.5,0.76-1.08,0.76-1.74
						c0-0.66-0.25-1.24-0.76-1.74c-0.5-0.45-1.08-0.68-1.74-0.68c-0.66,0-1.21,0.23-1.66,0.68c-0.5,0.5-0.76,1.08-0.76,1.74
						c0,0.66,0.25,1.24,0.76,1.74c0.45,0.5,1.01,0.76,1.66,0.76C172.34,582.14,172.92,581.89,173.42,581.39z"/>
					<path fill-rule="evenodd" clip-rule="evenodd" fill="#B43444" d="M173.29,581.25c0.46-0.46,0.69-0.99,0.69-1.59
						s-0.23-1.13-0.69-1.59c-0.46-0.42-0.99-0.62-1.59-0.62c-0.6,0-1.11,0.21-1.52,0.62c-0.46,0.46-0.69,0.99-0.69,1.59
						s0.23,1.13,0.69,1.59c0.42,0.46,0.92,0.69,1.52,0.69C172.29,581.94,172.82,581.71,173.29,581.25z"/>
					
						<radialGradient id="SVGID_32_" cx="-55.6499" cy="-3.2002" r="1.0875" gradientTransform="matrix(-1.5458 0 0 1.5458 85.562 584.0502)" gradientUnits="userSpaceOnUse">
						<stop  offset="0" style="stop-color:#D4D4D4"/>
						<stop  offset="0.3098" style="stop-color:#505050"/>
						<stop  offset="1" style="stop-color:#202020"/>
					</radialGradient>
					<path fill-rule="evenodd" clip-rule="evenodd" fill="url(#SVGID_32_)" d="M172.51,580.5c0.26-0.26,0.39-0.57,0.39-0.93
						c0-0.31-0.13-0.59-0.39-0.85s-0.57-0.39-0.93-0.39c-0.31,0-0.59,0.13-0.85,0.39c-0.26,0.26-0.39,0.54-0.39,0.85
						c0,0.36,0.13,0.67,0.39,0.93c0.26,0.26,0.54,0.39,0.85,0.39C171.94,580.88,172.25,580.75,172.51,580.5z"/>
				</g>
				<g>
					<path fill-rule="evenodd" clip-rule="evenodd" fill="#461017" d="M110.48,629.23c0.51,0.51,1.13,0.77,1.86,0.77
						c0.73,0,1.35-0.26,1.86-0.77c0.51-0.51,0.77-1.13,0.77-1.86c0-0.73-0.26-1.35-0.77-1.86c-0.51-0.51-1.13-0.77-1.86-0.77
						c-0.73,0-1.35,0.26-1.86,0.77c-0.51,0.51-0.77,1.13-0.77,1.86C109.71,628.1,109.96,628.72,110.48,629.23z"/>
					
						<radialGradient id="SVGID_33_" cx="-64.2002" cy="2.7998" r="2.15" gradientTransform="matrix(-1.1352 0 0 1.1352 39.3701 623.5004)" gradientUnits="userSpaceOnUse">
						<stop  offset="0" style="stop-color:#D4D4D4"/>
						<stop  offset="0.3098" style="stop-color:#505050"/>
						<stop  offset="1" style="stop-color:#202020"/>
					</radialGradient>
					<path fill-rule="evenodd" clip-rule="evenodd" fill="url(#SVGID_33_)" d="M113.55,628.67c0.38-0.38,0.57-0.81,0.57-1.31
						c0-0.49-0.19-0.93-0.57-1.31c-0.38-0.34-0.81-0.51-1.31-0.51c-0.49,0-0.91,0.17-1.25,0.51c-0.38,0.38-0.57,0.81-0.57,1.31
						c0,0.49,0.19,0.93,0.57,1.31c0.34,0.38,0.76,0.57,1.25,0.57C112.74,629.23,113.17,629.04,113.55,628.67z"/>
					
						<radialGradient id="SVGID_34_" cx="-101.7998" cy="14.9497" r="4.2003" gradientTransform="matrix(-0.5171 0 0 0.8447 61.4897 614.1504)" gradientUnits="userSpaceOnUse">
						<stop  offset="0" style="stop-color:#FFFFFF"/>
						<stop  offset="0.2118" style="stop-color:#FFFFFF;stop-opacity:0.498"/>
						<stop  offset="0.4549" style="stop-color:#FFFFFF;stop-opacity:0.2588"/>
						<stop  offset="0.7765" style="stop-color:#FFFFFF;stop-opacity:0.0667"/>
						<stop  offset="1" style="stop-color:#FFFFFF;stop-opacity:0"/>
					</radialGradient>
					<path fill-rule="evenodd" clip-rule="evenodd" fill="url(#SVGID_34_)" d="M112.66,629.19c0.41,0.68,0.91,1.01,1.5,1.01
						c0.57,0,1.06-0.34,1.47-1.01c0.41-0.68,0.62-1.48,0.62-2.41c0-0.93-0.21-1.73-0.62-2.41c-0.41-0.68-0.9-1.01-1.47-1.01
						c-0.59,0-1.09,0.34-1.5,1.01s-0.62,1.48-0.62,2.41C112.04,627.71,112.24,628.51,112.66,629.19z"/>
					<path fill-rule="evenodd" clip-rule="evenodd" fill="none" d="M112.66,629.19c-0.41-0.68-0.62-1.48-0.62-2.41
						c0-0.93,0.21-1.73,0.62-2.41s0.91-1.01,1.5-1.01c0.57,0,1.06,0.34,1.47,1.01c0.41,0.68,0.62,1.48,0.62,2.41
						c0,0.93-0.21,1.73-0.62,2.41c-0.41,0.68-0.9,1.01-1.47,1.01C113.57,630.2,113.07,629.86,112.66,629.19z"/>
				</g>
			</g>
			<g>
				<path fill-rule="evenodd" clip-rule="evenodd" fill="#FF99A5" d="M263,563.3h-21.3v-1.9H263V563.3z M125.75,558.4v1.85H80.3
					v-1.85H125.75z"/>
			</g>
			<g>
				
					<line fill-rule="evenodd" clip-rule="evenodd" fill="none" stroke="#FFFFFF" stroke-width="0.1" stroke-miterlimit="3" stroke-opacity="0.251" x1="79.55" y1="585.05" x2="240.45" y2="585.05"/>
				<line fill-rule="evenodd" clip-rule="evenodd" fill="none" x1="199.55" y1="617" x2="265.4" y2="617"/>
			</g>
			<g>
				
					<radialGradient id="SVGID_35_" cx="-101.7998" cy="14.9541" r="4.198" gradientTransform="matrix(-3.7174 0 0 0.1621 -130.0781 614.5996)" gradientUnits="userSpaceOnUse">
					<stop  offset="0" style="stop-color:#FFFFFF"/>
					<stop  offset="0.2118" style="stop-color:#FFFFFF;stop-opacity:0.498"/>
					<stop  offset="0.4549" style="stop-color:#FFFFFF;stop-opacity:0.2588"/>
					<stop  offset="0.7765" style="stop-color:#FFFFFF;stop-opacity:0.0667"/>
					<stop  offset="1" style="stop-color:#FFFFFF;stop-opacity:0"/>
				</radialGradient>
				<path fill-rule="evenodd" clip-rule="evenodd" fill="url(#SVGID_35_)" d="M237.76,617.49c2.97,0.13,6.57,0.19,10.78,0.19
					c4.09,0,7.62-0.06,10.59-0.19c2.97-0.13,4.46-0.28,4.46-0.46c0-0.18-1.49-0.33-4.46-0.46c-2.98-0.13-6.51-0.19-10.59-0.19
					c-4.21,0-7.81,0.06-10.78,0.19c-2.98,0.13-4.46,0.28-4.46,0.46C233.3,617.2,234.78,617.36,237.76,617.49z"/>
				<path fill-rule="evenodd" clip-rule="evenodd" fill="none" d="M237.76,617.49c-2.98-0.13-4.46-0.28-4.46-0.46
					c0-0.18,1.49-0.33,4.46-0.46c2.97-0.13,6.57-0.19,10.78-0.19c4.09,0,7.62,0.06,10.59,0.19c2.97,0.13,4.46,0.28,4.46,0.46
					c0,0.18-1.49,0.33-4.46,0.46c-2.98,0.13-6.51,0.19-10.59,0.19C244.33,617.68,240.73,617.62,237.76,617.49z"/>
			</g>
		</g>
	</g>
	<g>
		<g>
			<g>
				<path fill-rule="evenodd" clip-rule="evenodd" fill="#D7D7D7" fill-opacity="0.498" d="M616.4,271
					c-0.73,44.2-16.57,82.03-47.5,113.5c-31.6,32.2-69.73,48.33-114.4,48.4c-4.1,0-8.15-0.13-12.15-0.4
					c-39.33-2.7-73.3-18.65-101.9-47.85c-30.83-31.47-46.57-69.33-47.2-113.6h6.55c0.6,42.33,15.68,78.57,45.25,108.7
					c26.13,26.83,57.05,42,92.75,45.5c5.47,0.5,11.03,0.75,16.7,0.75c42.8,0,79.38-15.43,109.75-46.3
					c29.57-30.13,44.73-66.37,45.5-108.7H616.4z"/>
			</g>
			<g>
				<path fill-rule="evenodd" clip-rule="evenodd" fill="#CCCCCC" fill-opacity="0.6941" d="M606.2,326.45l-10.55-3.8L606.2,326.45z
					 M616.25,270.65c0.07,0.03,0.07,0.12,0,0.25c-0.17,9.6-1.02,18.87-2.55,27.8c-1.67,9.6-4.17,18.85-7.5,27.75
					c-3.2,8.83-7.18,17.32-11.95,25.45c-4.7,7.9-10.13,15.52-16.3,22.85c-2.9,3.43-5.95,6.75-9.15,9.95
					c-3.53,3.63-7.18,7.05-10.95,10.25c-7.13,6.2-14.58,11.63-22.35,16.3c-8.3,5-16.93,9.13-25.9,12.4
					c-8.8,3.17-17.93,5.57-27.4,7.2c-5.73,0.9-11.53,1.53-17.4,1.9c-3.43,0.17-6.9,0.25-10.4,0.25h-0.2c-4,0-7.9-0.12-11.7-0.35
					c-5.33-0.37-10.62-0.97-15.85-1.8c-9.3-1.53-18.28-3.88-26.95-7.05c-8.7-3.13-17.12-7.07-25.25-11.8
					c-7.87-4.7-15.45-10.17-22.75-16.4c-3.93-3.4-7.77-6.98-11.5-10.75c-3.13-3.23-6.13-6.52-9-9.85
					c-6.37-7.53-11.92-15.42-16.65-23.65c-4.7-8-8.62-16.33-11.75-25c-3.27-8.97-5.7-18.23-7.3-27.8c-1.5-8.87-2.33-18.07-2.5-27.6
					c0-0.07,0-0.15,0-0.25c0-0.13,0-0.23,0-0.3c0-0.27,0-0.53,0-0.8h323.3c-0.01,0.23-0.03,0.47-0.05,0.7
					C616.25,270.43,616.25,270.55,616.25,270.65z M613.7,298.7l-11.25-1.85L613.7,298.7z M509.6,423.65l-4.2-10.7L509.6,423.65z
					 M399.7,423.8l3.6-11.1L399.7,423.8z M374.45,412l5.6-10.3L374.45,412z M454.4,433v-11.5V433z M426.65,430.85l1.95-11.45
					L426.65,430.85z M482.2,430.85l-2.05-11.3L482.2,430.85z M594.25,351.9l-9.9-5.55L594.25,351.9z M577.95,374.75l-8.7-7.2
					L577.95,374.75z M557.85,394.95l-7.5-8.5L557.85,394.95z M535.5,411.25l-5.9-9.75L535.5,411.25z M313.85,322.15l-11.05,4.2
					L313.85,322.15z M307.2,296.45l-11.7,2.1L307.2,296.45z M331.2,375l9-7.65L331.2,375z M351.7,395.6l7.25-9.2L351.7,395.6z
					 M314.55,351.35l10.25-5.85L314.55,351.35z"/>
				
					<path fill-rule="evenodd" clip-rule="evenodd" fill="none" stroke="#666666" stroke-width="0.75" stroke-linecap="square" stroke-linejoin="round" stroke-miterlimit="3" d="
					M606.2,326.45l-10.55-3.8 M616.25,270.65c0.07,0.03,0.07,0.12,0,0.25c-0.17,9.6-1.02,18.87-2.55,27.8
					c-1.67,9.6-4.17,18.85-7.5,27.75c-3.2,8.83-7.18,17.32-11.95,25.45c-4.7,7.9-10.13,15.52-16.3,22.85
					c-2.9,3.43-5.95,6.75-9.15,9.95c-3.53,3.63-7.18,7.05-10.95,10.25c-7.13,6.2-14.58,11.63-22.35,16.3
					c-8.3,5-16.93,9.13-25.9,12.4c-8.8,3.17-17.93,5.57-27.4,7.2c-5.73,0.9-11.53,1.53-17.4,1.9c-3.43,0.17-6.9,0.25-10.4,0.25h-0.2
					c-4,0-7.9-0.12-11.7-0.35c-5.33-0.37-10.62-0.97-15.85-1.8c-9.3-1.53-18.28-3.88-26.95-7.05c-8.7-3.13-17.12-7.07-25.25-11.8
					c-7.87-4.7-15.45-10.17-22.75-16.4c-3.93-3.4-7.77-6.98-11.5-10.75c-3.13-3.23-6.13-6.52-9-9.85
					c-6.37-7.53-11.92-15.42-16.65-23.65c-4.7-8-8.62-16.33-11.75-25c-3.27-8.97-5.7-18.23-7.3-27.8c-1.5-8.87-2.33-18.07-2.5-27.6
					c0-0.07,0-0.15,0-0.25c0-0.13,0-0.23,0-0.3c0-0.27,0-0.53,0-0.8h323.3c-0.01,0.23-0.03,0.47-0.05,0.7
					C616.25,270.43,616.25,270.55,616.25,270.65z M613.7,298.7l-11.25-1.85 M509.6,423.65l-4.2-10.7 M399.7,423.8l3.6-11.1
					 M374.45,412l5.6-10.3 M454.4,433v-11.5 M426.65,430.85l1.95-11.45 M482.2,430.85l-2.05-11.3 M594.25,351.9l-9.9-5.55
					 M577.95,374.75l-8.7-7.2 M557.85,394.95l-7.5-8.5 M535.5,411.25l-5.9-9.75 M313.85,322.15l-11.05,4.2 M307.2,296.45l-11.7,2.1
					 M331.2,375l9-7.65 M351.7,395.6l7.25-9.2 M314.55,351.35l10.25-5.85"/>
			</g>
			<g>
				
					<path fill-rule="evenodd" clip-rule="evenodd" fill="none" stroke="#666666" stroke-width="0.75" stroke-linecap="square" stroke-linejoin="round" stroke-miterlimit="3" d="
					M605.1,329.05l-4.95-1.8 M615.95,276.35l-4.95-0.2 M615.95,278.95l-5.1-0.25 M616.15,273.25L611,273.2 M613,301.05l-5.4-0.9
					 M614.55,292.95l-5.2-0.6 M614.15,295.75l-5.2-0.75 M612.55,304.05L607.3,303 M614.75,290l-4.95-0.55 M615.1,287.15l-5.05-0.1
					 M615.65,281.6l-5-0.25 M608.95,317.85l-4.9-1.55 M607.3,323.5l-5.05-1.6 M608.05,320.85L603,319.3 M611.2,309.35l-5-1.1
					 M611.9,306.85l-5.15-1.15 M609.8,314.95l-4.95-1.25 M610.7,312.25l-9.4-2.55 M615.45,284.55l-8.8-0.35 M496.7,427.75l-2.6-8.05
					 M493.75,428.35l-1.95-5.75 M499.6,426.95l-2.1-5.8 M502,426.05l-2.1-5.6 M504.8,425.2l-2.3-5.55 M525.35,416.75l-2.85-5.2
					 M517.5,420.55l-2.55-5.55 M512.7,422.5l-2.45-5.55 M515,421.15l-2.3-5.15 M522.5,418.15l-3.55-6.95 M520.1,419.3l-2.55-5.45
					 M507.35,424.5l-2.3-5.7 M376.95,413.5l2.75-5.65 M371.45,410.15l3.4-5.5 M379.2,414.25l2.8-5.1 M397.15,422.65l1.95-5.7
					 M386.75,418.5l3.8-8.35 M389.3,419.65l2.6-5.7 M391.55,420.6l2.7-5.75 M384.4,417l2.55-5.4 M402,424.55l1.8-5.8 M394.25,421.7
					l2.35-5.7 M381.55,415.8l2.75-5.45 M369.25,408.35l3.1-4.9 M364.7,405.75l3.6-5.15 M366.7,407.15l3.45-5.2 M407.4,426.05
					l1.65-5.65 M404.55,425.35l1.75-5.8 M410.15,426.95l1.65-5.8 M415.6,427.75l1.2-5.3 M412.7,427.45l2.3-9.05 M418,428.8
					l1.25-5.75 M459.9,433l-0.05-6.3 M456.95,432.9l0.15-6.1 M451.3,432.9l0.2-6.2 M446.35,432.65l0.05-6.05 M448.95,432.45
					l0.05-5.75 M462.65,432.65l-0.05-6.05 M471.8,432.2l-0.8-6.15 M474.75,431.8l-0.9-6.1 M465.65,432.45l-0.3-5.95 M477.25,431.15
					l-1-5.75 M485.1,430.15l-1.35-5.85 M480.15,431.05L479,425.1 M468.7,432.05l-0.7-8.25 M490.9,429.2l-1.9-6 M487.75,429.8
					l-1.4-6.05 M423.85,430.05l1.1-5.85 M420.65,429.35l1.25-5.85 M440.55,432.3l0.35-9.7 M431.9,431.25l0.8-5.85 M428.95,430.95
					l1.1-6 M435.05,431.75l0.5-6.05 M437.85,431.8l0.4-5.75 M443.2,432.05l0.25-5.55 M602.95,334.35L598.2,332 M601.8,337.15
					l-4.7-2.8 M600.65,339.5l-8.45-4.05 M595.65,349.35l-4.85-2.6 M596.8,347l-4.8-2.5 M598.1,344.5l-4.75-2.45 M592.45,354.4
					l-4.6-2.75 M599.5,341.85l-4.95-2.15 M582.7,368.5l-4.35-3.4 M584.65,366.2l-4.55-3.25 M573.65,379.45l-4.35-3.55 M575.65,377.4
					l-4.5-3.55 M579.35,372.95l-4.4-3.6 M581.3,370.45l-4.4-3.4 M586.25,363.7l-6.9-4.8 M589.5,359.25l-4.6-3.05 M591.05,357.05
					l-4.7-3.1 M587.85,361.8l-4.65-3.2 M565.8,387.6l-4.05-4.05 M563.8,389.45l-3.95-4.15 M551.05,400.5l-3.7-4.4 M553.15,398.9
					l-3.8-4.45 M555.4,397.1l-3.9-4.35 M559.7,393.3l-3.75-4.3 M561.9,391.4l-4.05-4.2 M530.2,414.2l-2.9-5.2 M537.5,409.9
					l-3.5-4.75 M532.6,412.8l-3-5 M548.5,402.2l-3.25-4.55 M546.4,404.05l-4.75-6.4 M539.85,408.55l-3.45-4.85 M544.25,405.4
					l-3.55-4.55 M542.05,406.9l-3.5-4.65 M567.9,385.5l-5.8-5.6 M569.7,383.55l-4.05-3.9 M571.75,381.5l-4.1-3.9 M527.95,415.4
					l-3.1-5.05 M604.1,331.7l-4.85-2.15 M293.5,278.5l5.5-0.3 M293.15,272.7l5.6-0.15 M293.25,275.55l5.55-0.1 M293.75,287.15
					l5.9-0.65 M293.55,281.25l5.6-0.05 M294.05,289.75l5.85-0.9 M296.05,302.1l5.65-1.75 M296.7,304.95l5.55-1.7 M294.9,295.15
					l5.75-0.75 M294.45,292.2l5.75-0.7 M297.1,308.1l5.75-2.15 M309.25,326.95L304,329.1 M299.9,318.05l5.7-2.05 M300.8,321.05
					l5.7-2.2 M301.9,323.85l5.55-1.95 M293.55,284.8l10.1-0.65 M298.4,312.85l9.3-3 M299.15,315.35l5.6-2 M297.85,310.55l5.55-2.1
					 M325.9,367.85l4.75-3.2 M333.7,377.15l3.9-3.9 M327.9,370.2l4.35-3.5 M329.7,372.5l4.35-3.55 M335.5,379.1l4.1-3.8
					 M324.45,365.8l4.6-3.35 M311.45,332.15l-5.3,2.2 M312.3,334.2l-4.85,2.75 M308.6,339.7l7.55-4.5 M310.9,344.5l5.15-2.8
					 M313.5,349.05l4.9-2.85 M316.5,354.4l4.9-3.05 M312.15,346.8l5.05-2.95 M309.8,342.1l5.1-2.55 M318.2,356.9l4.9-2.95
					 M343.25,387.15l3.9-3.95 M339.5,383.25l3.55-3.65 M347,391.05l3.95-4.2 M349.6,393.3l3.6-4.4 M356.05,398.55l3.75-4.3
					 M353.75,396.5l3.5-4.3 M358.1,400.3l3.75-4.35 M345.05,388.95l4-4.05 M322.85,363.5l6.85-5.25 M319.7,358.9l4.8-2.9
					 M321.3,361.2l4.55-3.2 M340.95,385.3l6.15-6.15 M337.45,381.4l4-4.05 M310.25,329.3l-5.25,2.4 M360.5,402.25l3.6-4.65
					 M362.6,404.05l4.8-6.75"/>
			</g>
		</g>
		<g>
			<path fill-rule="evenodd" clip-rule="evenodd" fill="#333333" d="M593.6,288.4l5.65,1.1c0.87,0.17,1.5,0.6,1.9,1.3
				c0.4,0.7,0.53,1.45,0.4,2.25c-0.17,0.7-0.53,1.28-1.1,1.75c-0.57,0.43-1.28,0.62-2.15,0.55l-5.8-1.15
				c-0.83-0.17-1.43-0.6-1.8-1.3c-0.37-0.63-0.47-1.35-0.3-2.15c0.17-0.77,0.53-1.4,1.1-1.9
				C592.07,288.38,592.77,288.23,593.6,288.4z M592.55,290.4c-0.2,0.13-0.33,0.33-0.4,0.6c-0.03,0.27,0.02,0.5,0.15,0.7
				c0.13,0.23,0.33,0.38,0.6,0.45l5.8,1.15c0.33,0.07,0.62,0.02,0.85-0.15c0.23-0.17,0.38-0.38,0.45-0.65
				c0.03-0.23-0.02-0.43-0.15-0.6c-0.13-0.2-0.33-0.32-0.6-0.35c-0.1-0.03-0.17-0.05-0.2-0.05l-5.8-1.15
				C592.98,290.25,592.75,290.27,592.55,290.4z M593.6,296.2c0.4,0.3,0.62,0.67,0.65,1.1c0.2-0.47,0.58-0.8,1.15-1
				c0.6-0.2,1.22-0.23,1.85-0.1c0.93,0.17,1.68,0.6,2.25,1.3c0.57,0.67,0.75,1.53,0.55,2.6c-0.2,1.03-0.68,1.75-1.45,2.15
				c-0.73,0.4-1.55,0.52-2.45,0.35c-0.67-0.13-1.23-0.4-1.7-0.8c-0.5-0.4-0.77-0.88-0.8-1.45c-0.17,0.37-0.48,0.63-0.95,0.8
				c-0.53,0.13-1.07,0.15-1.6,0.05c-0.77-0.17-1.38-0.53-1.85-1.1c-0.43-0.57-0.55-1.33-0.35-2.3c0.17-0.93,0.58-1.58,1.25-1.95
				c0.67-0.37,1.37-0.48,2.1-0.35C592.78,295.6,593.23,295.83,593.6,296.2z M598.05,300.35c0.2-0.17,0.33-0.4,0.4-0.7
				c0.03-0.27,0-0.5-0.1-0.7c-0.13-0.23-0.33-0.37-0.6-0.4l-1.8-0.35c-0.33-0.1-0.6-0.07-0.8,0.1c-0.2,0.17-0.33,0.4-0.4,0.7
				c-0.03,0.27,0.02,0.52,0.15,0.75c0.1,0.23,0.33,0.37,0.7,0.4l1.7,0.35C597.6,300.57,597.85,300.52,598.05,300.35z M592.1,297.45
				c-0.37-0.07-0.72-0.05-1.05,0.05c-0.3,0.1-0.45,0.32-0.45,0.65c-0.07,0.27,0.03,0.5,0.3,0.7c0.27,0.23,0.58,0.38,0.95,0.45
				c0.37,0.07,0.68,0.07,0.95,0c0.27-0.1,0.42-0.28,0.45-0.55c0.07-0.33-0.02-0.6-0.25-0.8
				C592.77,297.68,592.47,297.52,592.1,297.45z M586.75,315.55c0.1,0.23,0.28,0.4,0.55,0.5l5.5,2.1c0.33,0.13,0.62,0.15,0.85,0.05
				c0.27-0.13,0.45-0.32,0.55-0.55c0.07-0.23,0.05-0.45-0.05-0.65c-0.07-0.23-0.23-0.4-0.5-0.5c-0.1-0.03-0.17-0.05-0.2-0.05
				l-5.5-2.1c-0.27-0.13-0.52-0.15-0.75-0.05c-0.2,0.1-0.35,0.28-0.45,0.55C586.68,315.08,586.68,315.32,586.75,315.55z
				 M588.65,312.55l5.4,2.05c0.8,0.3,1.32,0.83,1.55,1.6c0.3,0.73,0.3,1.47,0,2.2c-0.27,0.7-0.72,1.22-1.35,1.55
				c-0.6,0.33-1.33,0.38-2.2,0.15l-5.5-2.1c-0.8-0.3-1.32-0.8-1.55-1.5c-0.23-0.73-0.2-1.47,0.1-2.2c0.27-0.73,0.73-1.28,1.4-1.65
				C587.13,312.28,587.85,312.25,588.65,312.55z M587.95,323.95c-1.4-1.13-2.53-2.23-3.4-3.3l-1.55,4.1l-1.4-0.5l2.25-5.85l1.4,0.5
				c0.37,0.53,0.92,1.15,1.65,1.85c0.7,0.73,1.58,1.45,2.65,2.15c1.03,0.73,2.15,1.33,3.35,1.8l-0.8,2.05
				C590.7,326.02,589.32,325.08,587.95,323.95z M310.65,288.8c0.67-0.13,1.28-0.08,1.85,0.15c0.6,0.17,1.03,0.5,1.3,1
				c0-0.4,0.2-0.77,0.6-1.1c0.4-0.3,0.87-0.5,1.4-0.6c0.77-0.13,1.48-0.02,2.15,0.35c0.63,0.37,1.05,1.05,1.25,2.05
				c0.17,0.9,0,1.63-0.5,2.2c-0.47,0.6-1.08,0.97-1.85,1.1c-0.53,0.1-1.03,0.07-1.5-0.1c-0.47-0.13-0.8-0.42-1-0.85
				c-0.03,0.53-0.27,1-0.7,1.4c-0.47,0.4-1.03,0.65-1.7,0.75c-0.93,0.17-1.78,0.05-2.55-0.35c-0.8-0.43-1.3-1.18-1.5-2.25
				c-0.17-1.03,0.03-1.88,0.6-2.55C309.03,289.37,309.75,288.97,310.65,288.8z M309.7,291.6c-0.13,0.23-0.17,0.5-0.1,0.8
				c0.03,0.27,0.13,0.47,0.3,0.6c0.2,0.17,0.43,0.22,0.7,0.15l1.8-0.35c0.33-0.03,0.57-0.17,0.7-0.4c0.17-0.23,0.23-0.5,0.2-0.8
				c-0.07-0.27-0.22-0.48-0.45-0.65c-0.2-0.17-0.47-0.2-0.8-0.1l-1.7,0.3C310.05,291.22,309.83,291.37,309.7,291.6z M314.95,290.65
				c-0.2,0.17-0.28,0.38-0.25,0.65c0.07,0.33,0.25,0.57,0.55,0.7s0.65,0.17,1.05,0.1c0.37-0.07,0.67-0.22,0.9-0.45
				c0.23-0.2,0.33-0.43,0.3-0.7c-0.07-0.3-0.27-0.52-0.6-0.65c-0.33-0.1-0.68-0.12-1.05-0.05
				C315.48,290.32,315.18,290.45,314.95,290.65z M319.25,295.85c0.57,0.47,0.92,1.1,1.05,1.9c0.13,0.77,0.03,1.48-0.3,2.15
				c-0.37,0.63-0.97,1.03-1.8,1.2l-5.65,1.05c-0.87,0.17-1.62-0.02-2.25-0.55c-0.63-0.5-1.02-1.15-1.15-1.95
				c-0.13-0.7-0.02-1.35,0.35-1.95c0.37-0.63,0.97-1.08,1.8-1.35l5.8-1.05C317.93,295.13,318.65,295.32,319.25,295.85z M327.5,321.1
				c0.3,0.73,0.35,1.45,0.15,2.15c-0.23,0.73-0.73,1.27-1.5,1.6l-5.3,2.2c-0.8,0.33-1.57,0.32-2.3-0.05
				c-0.7-0.33-1.22-0.87-1.55-1.6c-0.27-0.67-0.28-1.35-0.05-2.05c0.2-0.67,0.68-1.22,1.45-1.65l5.45-2.25
				c0.77-0.33,1.48-0.33,2.15,0C326.7,319.82,327.2,320.37,327.5,321.1z M324.65,321.35l-5.45,2.25c-0.3,0.13-0.5,0.33-0.6,0.6
				c-0.1,0.27-0.1,0.52,0,0.75c0.1,0.23,0.25,0.38,0.45,0.45c0.23,0.1,0.47,0.1,0.7,0c0.1-0.03,0.17-0.07,0.2-0.1l5.45-2.25
				c0.27-0.1,0.43-0.27,0.5-0.5c0.1-0.23,0.1-0.48,0-0.75c-0.1-0.23-0.27-0.4-0.5-0.5C325.17,321.2,324.92,321.22,324.65,321.35z
				 M325.55,317.2l-1.4,0.6c-0.63-0.13-1.45-0.2-2.45-0.2c-1.03-0.03-2.17,0.07-3.4,0.3c-1.27,0.17-2.48,0.5-3.65,1l-0.85-2
				c1.5-0.47,3.15-0.77,4.95-0.9s3.37-0.1,4.7,0.1l-1.75-4.05l1.4-0.6L325.55,317.2z M317.5,297.35l-5.8,1.05
				c-0.33,0.07-0.58,0.22-0.75,0.45c-0.13,0.23-0.17,0.48-0.1,0.75c0.03,0.23,0.13,0.42,0.3,0.55c0.2,0.13,0.43,0.17,0.7,0.1
				c0.1,0,0.17-0.02,0.2-0.05l5.8-1.05c0.3-0.03,0.52-0.15,0.65-0.35c0.13-0.17,0.17-0.38,0.1-0.65c-0.03-0.23-0.15-0.45-0.35-0.65
				C318.05,297.33,317.8,297.28,317.5,297.35z M331.75,336.5c-0.4-0.03-0.92,0.13-1.55,0.5c-0.13,0.03-0.25,0.08-0.35,0.15
				c-0.1,0.07-0.18,0.12-0.25,0.15c0.67,0.2,1.15,0.57,1.45,1.1c0.37,0.63,0.33,1.37-0.1,2.2c-0.4,0.77-1.23,1.5-2.5,2.2
				c-0.87,0.47-1.7,0.57-2.5,0.3c-0.83-0.27-1.45-0.77-1.85-1.5c-0.4-0.73-0.5-1.5-0.3-2.3c0.2-0.8,0.75-1.45,1.65-1.95l4-2.2
				c1.03-0.57,1.97-0.72,2.8-0.45c0.8,0.27,1.42,0.77,1.85,1.5c0.33,0.67,0.45,1.33,0.35,2c-0.07,0.67-0.4,1.17-1,1.5
				c-0.1,0.03-0.17,0.07-0.2,0.1l-0.95-1.7c0.2-0.1,0.33-0.28,0.4-0.55c0.03-0.2,0-0.4-0.1-0.6
				C332.47,336.68,332.18,336.53,331.75,336.5z M327.95,338.35l-1.85,1c-0.3,0.17-0.5,0.4-0.6,0.7c-0.07,0.27-0.03,0.52,0.1,0.75
				c0.13,0.27,0.33,0.43,0.6,0.5c0.3,0.1,0.6,0.07,0.9-0.1l1.75-0.95c0.33-0.2,0.53-0.45,0.6-0.75c0.07-0.23,0.03-0.48-0.1-0.75
				c-0.13-0.23-0.33-0.4-0.6-0.5S328.22,338.18,327.95,338.35z M328.5,344.15l5.15-2.85c0.77-0.4,1.48-0.45,2.15-0.15
				c0.73,0.27,1.28,0.75,1.65,1.45c0.37,0.7,0.5,1.42,0.4,2.15c-0.17,0.73-0.63,1.3-1.4,1.7l-5.05,2.8c-0.73,0.4-1.48,0.47-2.25,0.2
				c-0.77-0.3-1.33-0.8-1.7-1.5c-0.37-0.63-0.48-1.3-0.35-2C327.3,345.25,327.77,344.65,328.5,344.15z M335.95,343.5
				c-0.13-0.23-0.32-0.38-0.55-0.45c-0.23-0.1-0.48-0.08-0.75,0.05l-5.15,2.85c-0.3,0.17-0.5,0.4-0.6,0.7
				c-0.07,0.27-0.03,0.52,0.1,0.75c0.1,0.2,0.27,0.32,0.5,0.35c0.2,0.1,0.42,0.08,0.65-0.05c0.1-0.03,0.17-0.07,0.2-0.1l5.15-2.85
				c0.3-0.13,0.48-0.3,0.55-0.5C336.12,343.98,336.08,343.73,335.95,343.5z M339,363.4c-0.5-0.67-0.7-1.43-0.6-2.3
				c0.13-0.9,0.65-1.68,1.55-2.35l1.1,1.45c-0.53,0.37-0.87,0.75-1,1.15c-0.17,0.33-0.17,0.62,0,0.85c0.2,0.27,0.57,0.37,1.1,0.3
				c0.53-0.07,1.08-0.32,1.65-0.75s0.9-0.85,1-1.25c0.17-0.37,0.15-0.68-0.05-0.95c-0.3-0.4-0.72-0.5-1.25-0.3l-1.15-1.45l4.75-3.3
				l3.25,4.2l-1.3,0.95l-2.25-2.95l-1.95,1.3c0.37,0.1,0.67,0.22,0.9,0.35c0.27,0.17,0.48,0.35,0.65,0.55
				c0.43,0.57,0.55,1.25,0.35,2.05c-0.17,0.8-0.6,1.52-1.3,2.15c-0.2,0.2-0.38,0.37-0.55,0.5c-0.97,0.73-1.9,1.05-2.8,0.95
				C340.23,364.45,339.53,364.07,339,363.4z M351.2,364.15c0.03-0.27-0.03-0.5-0.2-0.7s-0.37-0.33-0.6-0.4
				c-0.23-0.03-0.48,0.03-0.75,0.2l-4.65,3.6c-0.27,0.2-0.43,0.45-0.5,0.75c0,0.23,0.08,0.47,0.25,0.7c0.13,0.17,0.3,0.27,0.5,0.3
				c0.23,0.03,0.47-0.03,0.7-0.2c0.07-0.03,0.12-0.07,0.15-0.1l4.65-3.6C351.02,364.57,351.17,364.38,351.2,364.15z M352.35,362.3
				c0.5,0.63,0.72,1.32,0.65,2.05c0,0.77-0.35,1.4-1.05,1.9l-4.55,3.5c-0.67,0.53-1.4,0.7-2.2,0.5c-0.8-0.13-1.43-0.52-1.9-1.15
				c-0.47-0.57-0.67-1.2-0.6-1.9c0.03-0.73,0.37-1.4,1-2l4.65-3.6c0.7-0.5,1.42-0.67,2.15-0.5
				C351.27,361.27,351.88,361.67,352.35,362.3z M357,378.15l7.05-3.4l1.8,1.45l-4.45,5.4l0.7,0.6l-1,1.25l-0.7-0.6l-1.4,1.7
				l-1.6-1.3l1.4-1.7l-2.75-2.25L357,378.15z M359.8,380.3l2.7-3.3l-4.3,2L359.8,380.3z M361.65,386.2c-0.13-0.7,0.07-1.4,0.6-2.1
				l3.7-4.55c0.53-0.67,1.17-1,1.9-1c0.77,0,1.47,0.25,2.1,0.75c0.6,0.5,0.97,1.12,1.1,1.85c0.17,0.73-0.02,1.43-0.55,2.1
				l-3.65,4.45c-0.53,0.67-1.22,1-2.05,1c-0.8,0.03-1.52-0.22-2.15-0.75C362.12,387.52,361.78,386.93,361.65,386.2z M367.55,380.85
				l-3.7,4.55c-0.23,0.27-0.33,0.53-0.3,0.8c0,0.3,0.1,0.53,0.3,0.7c0.2,0.13,0.4,0.18,0.6,0.15c0.23,0,0.45-0.12,0.65-0.35
				c0.07-0.07,0.12-0.12,0.15-0.15l3.7-4.55c0.2-0.2,0.3-0.43,0.3-0.7c-0.03-0.23-0.17-0.43-0.4-0.6c-0.17-0.17-0.38-0.23-0.65-0.2
				C367.93,380.5,367.72,380.62,367.55,380.85z M383.25,389c0.4,0.23,0.73,0.48,1,0.75c0.27,0.3,0.43,0.6,0.5,0.9
				c0.1,0.3,0.13,0.65,0.1,1.05c-0.1,0.4-0.25,0.78-0.45,1.15c-0.23,0.4-0.55,0.72-0.95,0.95c-0.37,0.23-0.85,0.33-1.45,0.3
				c0.4,0.37,0.58,0.83,0.55,1.4c0,0.53-0.17,1.08-0.5,1.65c-0.27,0.47-0.58,0.88-0.95,1.25c-0.37,0.33-0.73,0.55-1.1,0.65
				c-0.33,0.07-0.73,0.08-1.2,0.05c-0.47-0.1-0.92-0.27-1.35-0.5c-0.73-0.4-1.2-1.02-1.4-1.85c-0.2-0.8,0.03-1.8,0.7-3l1.7,1
				c-0.13,0.17-0.25,0.33-0.35,0.5c-0.27,0.47-0.38,0.87-0.35,1.2c0.07,0.3,0.22,0.52,0.45,0.65c0.27,0.13,0.57,0.17,0.9,0.1
				c0.3-0.07,0.53-0.18,0.7-0.35c0.1-0.13,0.23-0.32,0.4-0.55c0.17-0.2,0.28-0.35,0.35-0.45c0.2-0.37,0.23-0.75,0.1-1.15
				c-0.13-0.37-0.55-0.75-1.25-1.15l0.75-1.3c0.7,0.4,1.2,0.52,1.5,0.35c0.37-0.17,0.68-0.48,0.95-0.95
				c0.17-0.3,0.22-0.58,0.15-0.85c-0.1-0.3-0.25-0.52-0.45-0.65c-0.23-0.13-0.48-0.13-0.75,0c-0.3,0.1-0.57,0.37-0.8,0.8
				c-0.07,0.1-0.12,0.18-0.15,0.25l-1.6-0.9c0.03-0.07,0.08-0.13,0.15-0.2c0.03-0.07,0.05-0.12,0.05-0.15
				c0.5-0.83,1.1-1.32,1.8-1.45C381.77,388.4,382.52,388.57,383.25,389z M387.5,394.6l-2.9,5.1c-0.17,0.3-0.22,0.58-0.15,0.85
				c0.1,0.27,0.27,0.47,0.5,0.6c0.17,0.13,0.37,0.17,0.6,0.1c0.2-0.07,0.38-0.22,0.55-0.45c0.03-0.1,0.07-0.17,0.1-0.2l2.9-5.1
				c0.17-0.23,0.22-0.47,0.15-0.7c-0.07-0.2-0.23-0.37-0.5-0.5c-0.2-0.13-0.42-0.18-0.65-0.15
				C387.83,394.18,387.63,394.33,387.5,394.6z M387.45,392.3c0.77-0.13,1.48,0,2.15,0.4c0.7,0.4,1.18,0.93,1.45,1.6
				c0.27,0.73,0.18,1.47-0.25,2.2l-2.85,5c-0.43,0.73-1.03,1.18-1.8,1.35c-0.8,0.17-1.55,0.05-2.25-0.35
				c-0.63-0.37-1.07-0.88-1.3-1.55c-0.23-0.7-0.17-1.45,0.2-2.25l2.9-5.1C386.13,392.87,386.72,392.43,387.45,392.3z M575.5,336.2
				c0.43-0.63,1-1.07,1.7-1.3c0.73-0.2,1.47-0.07,2.2,0.4l4.8,3.1c0.73,0.47,1.15,1.08,1.25,1.85c0.13,0.83-0.02,1.58-0.45,2.25
				c-0.4,0.6-0.95,1-1.65,1.2c-0.67,0.2-1.42,0.08-2.25-0.35l-4.9-3.15c-0.73-0.47-1.13-1.07-1.2-1.8
				C574.9,337.63,575.07,336.9,575.5,336.2z M575.1,341.35L574,343c-0.2-0.13-0.4-0.15-0.6-0.05c-0.23,0.03-0.42,0.13-0.55,0.3
				c-0.17,0.27-0.17,0.6,0,1c0.17,0.37,0.57,0.75,1.2,1.15c0.1,0.07,0.2,0.13,0.3,0.2c0.07,0.07,0.15,0.12,0.25,0.15
				c-0.17-0.67-0.08-1.27,0.25-1.8c0.4-0.63,1.05-0.97,1.95-1c0.87,0,1.93,0.4,3.2,1.2c0.8,0.53,1.28,1.22,1.45,2.05
				c0.13,0.83-0.03,1.6-0.5,2.3c-0.43,0.7-1.05,1.15-1.85,1.35c-0.8,0.2-1.62,0.03-2.45-0.5l-3.9-2.5c-0.97-0.63-1.53-1.35-1.7-2.15
				c-0.17-0.87-0.02-1.65,0.45-2.35c0.4-0.63,0.92-1.07,1.55-1.3c0.63-0.27,1.23-0.22,1.8,0.15
				C574.95,341.27,575.03,341.32,575.1,341.35z M583.25,340.1l-4.9-3.15c-0.27-0.2-0.52-0.28-0.75-0.25
				c-0.23,0.07-0.42,0.22-0.55,0.45c-0.13,0.2-0.18,0.43-0.15,0.7c0.03,0.27,0.18,0.48,0.45,0.65l4.9,3.15
				c0.3,0.2,0.58,0.25,0.85,0.15c0.27-0.07,0.48-0.22,0.65-0.45c0.1-0.17,0.13-0.37,0.1-0.6c-0.03-0.2-0.17-0.38-0.4-0.55
				C583.38,340.17,583.32,340.13,583.25,340.1z M576,345.25c-0.17,0.23-0.23,0.48-0.2,0.75c0.07,0.27,0.23,0.48,0.5,0.65l1.75,1.1
				c0.33,0.2,0.63,0.3,0.9,0.3c0.27-0.07,0.47-0.23,0.6-0.5c0.17-0.23,0.22-0.48,0.15-0.75c-0.03-0.3-0.22-0.55-0.55-0.75l-1.6-1.05
				c-0.33-0.2-0.65-0.27-0.95-0.2C576.33,344.87,576.13,345.02,576,345.25z M522.4,391.7c0.3,0.03,0.6,0.18,0.9,0.45
				c0.33,0.23,0.6,0.53,0.8,0.9c0.23,0.4,0.35,0.83,0.35,1.3c0.03,0.47-0.13,0.95-0.5,1.45c0.53-0.17,1.05-0.1,1.55,0.2
				c0.43,0.27,0.82,0.7,1.15,1.3c0.27,0.43,0.47,0.9,0.6,1.4c0.1,0.5,0.1,0.93,0,1.3c-0.07,0.3-0.25,0.65-0.55,1.05
				c-0.3,0.37-0.65,0.67-1.05,0.9c-0.73,0.43-1.5,0.55-2.3,0.35c-0.8-0.27-1.55-0.98-2.25-2.15l1.65-0.95c0.1,0.17,0.2,0.33,0.3,0.5
				c0.27,0.47,0.55,0.77,0.85,0.9c0.3,0.13,0.57,0.13,0.8,0c0.23-0.13,0.42-0.37,0.55-0.7c0.1-0.33,0.1-0.6,0-0.8
				c-0.07-0.2-0.15-0.42-0.25-0.65s-0.18-0.42-0.25-0.55c-0.2-0.37-0.5-0.58-0.9-0.65c-0.37-0.07-0.9,0.1-1.6,0.5l-0.8-1.3
				c0.67-0.4,1.03-0.78,1.1-1.15c0-0.37-0.13-0.78-0.4-1.25c-0.17-0.3-0.38-0.48-0.65-0.55c-0.3-0.07-0.57-0.03-0.8,0.1
				c-0.23,0.13-0.37,0.35-0.4,0.65s0.07,0.65,0.3,1.05c0.07,0.1,0.12,0.18,0.15,0.25l-1.55,0.9c-0.03-0.07-0.08-0.13-0.15-0.2
				c-0.03-0.07-0.05-0.12-0.05-0.15c-0.5-0.83-0.62-1.58-0.35-2.25c0.3-0.7,0.82-1.27,1.55-1.7c0.37-0.23,0.75-0.38,1.15-0.45
				C521.75,391.6,522.1,391.6,522.4,391.7z M545.25,374.15c0.6-0.5,1.27-0.75,2-0.75c0.73-0.03,1.38,0.27,1.95,0.9l3.7,4.4
				c0.57,0.67,0.78,1.4,0.65,2.2c-0.13,0.8-0.5,1.47-1.1,2c-0.57,0.47-1.2,0.68-1.9,0.65c-0.73,0.03-1.42-0.28-2.05-0.95l-3.8-4.5
				c-0.53-0.63-0.73-1.32-0.6-2.05C544.23,375.28,544.62,374.65,545.25,374.15z M541.45,377.55l4.55,5.35l0.7-0.6l1.05,1.25
				l-0.7,0.6l1.4,1.65l-1.6,1.35l-1.4-1.65l-2.7,2.3l-0.95-1.15l-2.15-7.6L541.45,377.55z M528.7,388.05
				c0.73,0.13,1.32,0.57,1.75,1.3l2.9,4.95c0.43,0.77,0.52,1.52,0.25,2.25c-0.27,0.77-0.73,1.35-1.4,1.75c-0.63,0.37-1.3,0.5-2,0.4
				c-0.7-0.13-1.3-0.58-1.8-1.35l-3-5.05c-0.43-0.73-0.52-1.45-0.25-2.15c0.27-0.73,0.75-1.3,1.45-1.7
				C527.27,388.05,527.97,387.92,528.7,388.05z M527.1,390.5c-0.07,0.23-0.03,0.48,0.1,0.75l3,5.05c0.17,0.33,0.38,0.53,0.65,0.6
				c0.27,0.07,0.52,0.03,0.75-0.1c0.2-0.13,0.32-0.3,0.35-0.5c0.07-0.27,0.03-0.52-0.1-0.75c-0.07-0.07-0.1-0.13-0.1-0.2l-3-5.05
				c-0.1-0.27-0.27-0.42-0.5-0.45c-0.23-0.07-0.47-0.03-0.7,0.1C527.32,390.08,527.17,390.27,527.1,390.5z M544.4,384.25l-2.75-3.25
				l1.15,4.6L544.4,384.25z M569.4,361.5l-4.3-4c-0.23-0.23-0.45-0.35-0.65-0.35c-0.27,0.03-0.48,0.15-0.65,0.35
				c-0.2,0.17-0.28,0.38-0.25,0.65c-0.03,0.27,0.07,0.5,0.3,0.7l4.3,4c0.23,0.23,0.5,0.33,0.8,0.3c0.27,0,0.5-0.1,0.7-0.3
				c0.13-0.17,0.2-0.37,0.2-0.6c0-0.2-0.1-0.4-0.3-0.6C569.48,361.58,569.43,361.53,569.4,361.5z M566.7,364.35l-4.3-4
				c-0.63-0.6-0.92-1.27-0.85-2c0.07-0.77,0.37-1.43,0.9-2c0.53-0.6,1.18-0.95,1.95-1.05c0.73-0.1,1.42,0.15,2.05,0.75l4.2,3.95
				c0.63,0.57,0.92,1.27,0.85,2.1c-0.03,0.8-0.32,1.5-0.85,2.1c-0.5,0.53-1.1,0.82-1.8,0.85
				C568.12,365.12,567.4,364.88,566.7,364.35z M565.05,364.45c0.87,0.83,1.33,1.7,1.4,2.6c0.07,0.9-0.18,1.67-0.75,2.3
				c-0.6,0.6-1.33,0.92-2.2,0.95c-0.9,0.03-1.77-0.33-2.6-1.1l1.25-1.35c0.5,0.43,0.93,0.7,1.3,0.8c0.37,0.1,0.63,0.05,0.8-0.15
				c0.23-0.27,0.3-0.67,0.2-1.2c-0.17-0.5-0.52-1-1.05-1.5c-0.5-0.47-0.95-0.73-1.35-0.8c-0.4-0.03-0.72,0.07-0.95,0.3
				c-0.33,0.37-0.38,0.78-0.15,1.25l-1.25,1.35l-4-4.1l3.6-3.9l1.15,1.1l-2.55,2.7l1.65,1.7c0-0.37,0.07-0.68,0.2-0.95
				s0.28-0.5,0.45-0.7c0.47-0.5,1.1-0.73,1.9-0.7c0.83,0.07,1.63,0.38,2.4,0.95C564.7,364.13,564.88,364.28,565.05,364.45z
				 M546.3,376.75l3.8,4.5c0.23,0.27,0.48,0.42,0.75,0.45s0.52-0.05,0.75-0.25c0.17-0.13,0.25-0.3,0.25-0.5
				c0.03-0.23-0.03-0.45-0.2-0.65c-0.07-0.1-0.12-0.17-0.15-0.2l-3.8-4.5c-0.17-0.23-0.37-0.37-0.6-0.4c-0.23,0-0.45,0.08-0.65,0.25
				c-0.2,0.17-0.32,0.38-0.35,0.65C546.03,376.33,546.1,376.55,546.3,376.75z M508.55,401.2l2,5.4c0.27,0.8,0.22,1.53-0.15,2.2
				c-0.43,0.7-1.02,1.2-1.75,1.5c-0.67,0.23-1.35,0.23-2.05,0c-0.63-0.27-1.15-0.8-1.55-1.6l-2-5.5c-0.3-0.8-0.27-1.53,0.1-2.2
				c0.4-0.63,0.98-1.08,1.75-1.35c0.73-0.27,1.45-0.28,2.15-0.05S508.25,400.37,508.55,401.2z M506.25,401.25
				c-0.23-0.07-0.47-0.07-0.7,0c-0.23,0.1-0.42,0.25-0.55,0.45c-0.1,0.23-0.1,0.5,0,0.8l2,5.5c0.13,0.33,0.33,0.55,0.6,0.65
				c0.23,0.13,0.48,0.15,0.75,0.05c0.2-0.07,0.35-0.22,0.45-0.45c0.1-0.2,0.1-0.43,0-0.7c-0.03-0.1-0.07-0.17-0.1-0.2l-2-5.5
				C506.63,401.55,506.48,401.35,506.25,401.25z M496.5,406.7c-0.13-0.2-0.23-0.42-0.3-0.65c-0.33-0.9-0.32-1.72,0.05-2.45
				c0.4-0.7,1-1.2,1.8-1.5c0.73-0.27,1.43-0.28,2.1-0.05c0.73,0.2,1.22,0.63,1.45,1.3c0.4,1.07,0.53,1.87,0.4,2.4
				c-0.13,0.57-0.45,1.4-0.95,2.5c-0.5,1.13-0.75,2.17-0.75,3.1l3.55-1.35l0.55,1.5l-5.65,2.1c-0.47-1.23-0.57-2.33-0.3-3.3
				c0.23-0.9,0.55-1.78,0.95-2.65c0.4-0.87,0.62-1.52,0.65-1.95c0-0.43-0.07-0.82-0.2-1.15c-0.13-0.37-0.33-0.65-0.6-0.85
				c-0.3-0.2-0.58-0.25-0.85-0.15c-0.27,0.1-0.43,0.37-0.5,0.8c-0.07,0.47,0.03,1.05,0.3,1.75L496.5,406.7z M486,416.05
				c-0.5,0.63-1.15,1.02-1.95,1.15c-0.7,0.13-1.35,0.02-1.95-0.35c-0.63-0.37-1.08-0.97-1.35-1.8l-1.05-5.8
				c-0.17-0.83,0.02-1.55,0.55-2.15c0.47-0.57,1.1-0.92,1.9-1.05c0.77-0.13,1.48-0.03,2.15,0.3c0.63,0.37,1.03,0.97,1.2,1.8
				l1.05,5.65C486.72,414.67,486.53,415.42,486,416.05z M481.9,408.1c-0.17,0.2-0.22,0.45-0.15,0.75l1.05,5.8
				c0.07,0.33,0.22,0.58,0.45,0.75c0.23,0.13,0.48,0.17,0.75,0.1c0.23-0.03,0.42-0.13,0.55-0.3c0.13-0.2,0.17-0.43,0.1-0.7
				c0-0.1-0.02-0.17-0.05-0.2l-1.05-5.8c-0.03-0.3-0.15-0.52-0.35-0.65c-0.17-0.13-0.38-0.17-0.65-0.1
				C482.32,407.78,482.1,407.9,481.9,408.1z M476.25,407.2l2,10.75l-1.9,0.35l-1.35-7.35l-2.5,0.45l-0.25-1.45
				c0.93-0.17,1.6-0.5,2-1s0.58-1,0.55-1.5L476.25,407.2z M452.15,409.3c0.6-0.47,1.3-0.7,2.1-0.7s1.48,0.23,2.05,0.7
				s0.85,1.13,0.85,2v5.8c0,0.83-0.3,1.52-0.9,2.05c-0.63,0.53-1.35,0.8-2.15,0.8c-0.7,0-1.33-0.23-1.9-0.7
				c-0.53-0.47-0.83-1.15-0.9-2.05v-5.9C451.3,410.47,451.58,409.8,452.15,409.3z M453.65,410.6c-0.2,0.17-0.3,0.4-0.3,0.7v5.9
				c0,0.33,0.1,0.6,0.3,0.8c0.2,0.2,0.43,0.3,0.7,0.3c0.23,0,0.43-0.08,0.6-0.25c0.17-0.13,0.25-0.35,0.25-0.65c0-0.1,0-0.17,0-0.2
				v-5.9c0.03-0.3-0.03-0.53-0.2-0.7c-0.2-0.17-0.43-0.25-0.7-0.25C454.07,410.35,453.85,410.43,453.65,410.6z M429.55,406.55
				l-2.05,10.75l-1.9-0.35l1.4-7.35l-2.5-0.5l0.3-1.45c0.93,0.17,1.68,0.1,2.25-0.2c0.53-0.3,0.88-0.7,1.05-1.2L429.55,406.55z
				 M433.7,417.15c0.23,0.03,0.43,0,0.6-0.1c0.2-0.13,0.32-0.33,0.35-0.6c0.03-0.1,0.05-0.17,0.05-0.2l1.1-5.8
				c0.1-0.3,0.08-0.53-0.05-0.7c-0.13-0.2-0.33-0.32-0.6-0.35c-0.27-0.07-0.5-0.03-0.7,0.1c-0.23,0.1-0.38,0.3-0.45,0.6l-1.1,5.8
				c-0.07,0.33-0.02,0.62,0.15,0.85C433.22,416.98,433.43,417.12,433.7,417.15z M430.85,415.55l1.1-5.8
				c0.17-0.83,0.58-1.43,1.25-1.8c0.67-0.37,1.4-0.47,2.2-0.3c0.77,0.13,1.4,0.48,1.9,1.05c0.47,0.6,0.62,1.32,0.45,2.15l-1.1,5.65
				c-0.13,0.87-0.55,1.48-1.25,1.85c-0.7,0.43-1.45,0.57-2.25,0.4c-0.7-0.13-1.28-0.48-1.75-1.05
				C430.97,417.13,430.78,416.42,430.85,415.55z M406.3,401.25c0.4,0.6,0.48,1.23,0.25,1.9c-0.4,1.07-0.82,1.77-1.25,2.1
				c-0.47,0.33-1.27,0.78-2.4,1.35c-1.1,0.53-1.93,1.15-2.5,1.85l3.55,1.25l-0.55,1.5l-5.65-2c0.43-1.27,1.05-2.17,1.85-2.7
				c0.77-0.6,1.58-1.1,2.45-1.5c0.87-0.43,1.45-0.8,1.75-1.1c0.3-0.27,0.5-0.57,0.6-0.9c0.13-0.4,0.15-0.77,0.05-1.1
				c-0.1-0.33-0.28-0.55-0.55-0.65s-0.57,0-0.9,0.3c-0.3,0.3-0.57,0.8-0.8,1.5l-1.75-0.6c0.03-0.27,0.1-0.52,0.2-0.75
				c0.3-0.9,0.83-1.5,1.6-1.8c0.73-0.3,1.5-0.3,2.3,0C405.28,400.17,405.87,400.62,406.3,401.25z M409.7,404.65l-2,5.55
				c-0.1,0.33-0.08,0.62,0.05,0.85c0.1,0.27,0.28,0.43,0.55,0.5c0.2,0.1,0.4,0.08,0.6-0.05c0.23-0.07,0.4-0.23,0.5-0.5
				c0.03-0.1,0.05-0.17,0.05-0.2l2-5.55c0.1-0.3,0.1-0.55,0-0.75c-0.1-0.2-0.28-0.35-0.55-0.45c-0.23-0.1-0.48-0.1-0.75,0
				C409.95,404.15,409.8,404.35,409.7,404.65z M413.3,405.9l-1.95,5.4c-0.3,0.83-0.83,1.38-1.6,1.65c-0.73,0.3-1.48,0.32-2.25,0.05
				c-0.67-0.27-1.2-0.7-1.6-1.3c-0.33-0.63-0.38-1.37-0.15-2.2l2-5.55c0.27-0.8,0.77-1.33,1.5-1.6c0.7-0.27,1.43-0.25,2.2,0.05
				c0.73,0.23,1.28,0.67,1.65,1.3C413.5,404.37,413.57,405.1,413.3,405.9z"/>
		</g>
	</g>
	<polygon fill-rule="evenodd" clip-rule="evenodd" fill="#85582F" points="617.1,268.1 291.85,268.1 293.3,266.1 616.1,266.1 
		617.1,267.8 	"/>
	<polygon fill-rule="evenodd" clip-rule="evenodd" fill="#643F1E" points="291.85,268.1 617.1,268.1 617.3,268.1 617.3,272.1 
		291.85,272.1 	"/>
</g>
</svg>
