<?xml version="1.0" encoding="utf-8"?>
<!-- Generator: Adobe Illustrator 16.0.0, SVG Export Plug-In . SVG Version: 6.00 Build 0)  -->
<!DOCTYPE svg PUBLIC "-//W3C//DTD SVG 1.1//EN" "http://www.w3.org/Graphics/SVG/1.1/DTD/svg11.dtd">
<svg version="1.1" id="Layer_1" xmlns="http://www.w3.org/2000/svg" xmlns:xlink="http://www.w3.org/1999/xlink" x="0px" y="0px"
	 width="10.38px" height="21px" viewBox="0 0 10.38 21" enable-background="new 0 0 10.38 21" xml:space="preserve">
<g>
	<g>
		
			<linearGradient id="SVGID_1_" gradientUnits="userSpaceOnUse" x1="-298.1743" y1="-234.1494" x2="-291.8745" y2="-234.1494" gradientTransform="matrix(1.5378 -1.037609e-003 1.037609e-003 1.5378 459.261 378.2922)">
			<stop  offset="0" style="stop-color:#626060"/>
			<stop  offset="0.1137" style="stop-color:#DBD7D7"/>
			<stop  offset="0.3412" style="stop-color:#747373"/>
			<stop  offset="0.5373" style="stop-color:#AEAEAE"/>
			<stop  offset="0.8314" style="stop-color:#626262"/>
			<stop  offset="1" style="stop-color:#373737"/>
		</linearGradient>
		<path fill-rule="evenodd" clip-rule="evenodd" fill="url(#SVGID_1_)" d="M10.18,19.68c-0.01,0.26-0.49,0.46-1.46,0.62
			c-0.92,0.15-2.05,0.23-3.38,0.23c-1.33,0-2.49-0.07-3.46-0.23c-0.44-0.07-0.77-0.16-1-0.27c-0.14-0.05-0.25-0.12-0.31-0.19
			c-0.05-0.04-0.08-0.09-0.08-0.15l0-3.15l9.69-0.01L10.18,19.68z"/>
		<path fill-rule="evenodd" clip-rule="evenodd" fill="#535353" d="M10.19,16.52c0,0.26-0.49,0.46-1.46,0.62
			c-0.92,0.15-2.05,0.23-3.38,0.23c-1.33,0-2.49-0.07-3.46-0.23c-0.92-0.15-1.38-0.36-1.38-0.61c0-0.26,0.46-0.46,1.38-0.62
			c0.97-0.15,2.13-0.23,3.46-0.23c1.33,0,2.46,0.08,3.38,0.23C9.7,16.06,10.19,16.26,10.19,16.52z"/>
	</g>
	<g>
		
			<linearGradient id="SVGID_2_" gradientUnits="userSpaceOnUse" x1="-296.4624" y1="-237.2051" x2="-293.8874" y2="-237.2051" gradientTransform="matrix(1.5378 -1.037609e-003 1.037609e-003 1.5378 459.261 378.2922)">
			<stop  offset="0" style="stop-color:#000000"/>
			<stop  offset="0.1137" style="stop-color:#666666"/>
			<stop  offset="0.2902" style="stop-color:#373737"/>
			<stop  offset="0.5373" style="stop-color:#AEAEAE"/>
			<stop  offset="0.6667" style="stop-color:#626262"/>
			<stop  offset="1" style="stop-color:#373737"/>
		</linearGradient>
		<path fill-rule="evenodd" clip-rule="evenodd" fill="url(#SVGID_2_)" d="M7.1,16.6c-1.49,0.41-2.77,0.39-3.84-0.07l0-5.77
			c1.23,0.51,2.49,0.51,3.77,0L7.1,16.6z"/>
	</g>
	<g>
		
			<linearGradient id="SVGID_3_" gradientUnits="userSpaceOnUse" x1="-298.0874" y1="-241.6494" x2="-292.0624" y2="-241.6494" gradientTransform="matrix(1.5378 -1.037609e-003 1.037609e-003 1.5378 459.261 378.2922)">
			<stop  offset="0" style="stop-color:#626060"/>
			<stop  offset="0.1137" style="stop-color:#DBD7D7"/>
			<stop  offset="0.3412" style="stop-color:#747373"/>
			<stop  offset="0.5373" style="stop-color:#AEAEAE"/>
			<stop  offset="0.8314" style="stop-color:#626262"/>
			<stop  offset="1" style="stop-color:#373737"/>
		</linearGradient>
		<path fill-rule="evenodd" clip-rule="evenodd" fill="url(#SVGID_3_)" d="M9.86,1.07l0.01,10.92C8.94,12.4,8,12.66,7.02,12.76
			c-1.28,0.21-2.54,0.21-3.77,0c-0.92-0.1-1.79-0.36-2.62-0.77L0.63,1.08C0.79,1.28,1.2,1.41,1.86,1.46
			c0.92,0.15,2.02,0.23,3.31,0.23c1.33,0,2.43-0.08,3.31-0.23C9.35,1.35,9.81,1.22,9.86,1.07z"/>
		<path fill-rule="evenodd" clip-rule="evenodd" fill="#535353" d="M0.63,1.08c0.1-0.21,0.56-0.38,1.38-0.54
			c0.77-0.1,1.82-0.16,3.15-0.16c1.33,0,2.44,0.05,3.31,0.15c0.46,0.05,0.82,0.13,1.08,0.23c0.21,0.05,0.31,0.13,0.31,0.23v0.08
			C9.81,1.22,9.35,1.35,8.47,1.46C7.6,1.61,6.5,1.69,5.17,1.69c-1.28,0-2.38-0.07-3.31-0.23C1.2,1.41,0.79,1.28,0.63,1.08z"/>
	</g>
</g>
</svg>
