<?xml version="1.0" encoding="utf-8"?>
<!-- Generator: Adobe Illustrator 16.0.0, SVG Export Plug-In . SVG Version: 6.00 Build 0)  -->
<!DOCTYPE svg PUBLIC "-//W3C//DTD SVG 1.1//EN" "http://www.w3.org/Graphics/SVG/1.1/DTD/svg11.dtd">
<svg version="1.1" id="Layer_1" xmlns="http://www.w3.org/2000/svg" xmlns:xlink="http://www.w3.org/1999/xlink" x="0px" y="0px"
	 width="111.33px" height="353.33px" viewBox="0 0 111.33 353.33" enable-background="new 0 0 111.33 353.33" xml:space="preserve">
<symbol  id="nail_copy" viewBox="-6.55 -14.71 9.75 24.21">
	<g id="Layer_3_1_">
		<g>
			<path fill-rule="evenodd" clip-rule="evenodd" fill="#7F7B7A" d="M3.15-9.75c0-0.17-0.48-0.43-1.45-0.8
				c-0.97-0.33-2.12-0.43-3.45-0.3s-2.47,0.3-3.4,0.5c-0.93,0.23-1.4,0.43-1.4,0.6s0.47,0.32,1.4,0.45c0.97,0.13,2.12,0.2,3.45,0.2
				c1.33,0,2.47-0.07,3.4-0.2C2.67-9.43,3.15-9.58,3.15-9.75z"/>
		</g>
	</g>
	<g id="Layer_2_2_">
		<g>
			<linearGradient id="SVGID_1_" gradientUnits="userSpaceOnUse" x1="-6.3501" y1="-12.1821" x2="2.9499" y2="-12.1821">
				<stop  offset="0" style="stop-color:#666666"/>
				<stop  offset="0.149" style="stop-color:#F3F3F3"/>
				<stop  offset="0.3725" style="stop-color:#A59F9E"/>
				<stop  offset="0.5529" style="stop-color:#E1D7D2"/>
				<stop  offset="1" style="stop-color:#242321"/>
			</linearGradient>
			<path fill-rule="evenodd" clip-rule="evenodd" fill="url(#SVGID_1_)" d="M3.15-9.75l0.05-3.9c-3.23-1.37-6.48-1.42-9.75-0.15
				v4.15C-3.48-10.85-0.25-10.88,3.15-9.75z"/>
		</g>
	</g>
	<g id="Layer_1_2_">
		<g>
			<linearGradient id="SVGID_2_" gradientUnits="userSpaceOnUse" x1="-6.3501" y1="5.4355" x2="2.9502" y2="5.4355">
				<stop  offset="0" style="stop-color:#666666"/>
				<stop  offset="0.149" style="stop-color:#F3F3F3"/>
				<stop  offset="0.3725" style="stop-color:#A59F9E"/>
				<stop  offset="0.5529" style="stop-color:#E1D7D2"/>
				<stop  offset="1" style="stop-color:#242321"/>
			</linearGradient>
			<path fill-rule="evenodd" clip-rule="evenodd" fill="url(#SVGID_2_)" d="M2.95,8.6V3.17C2.81,3.13,2.64,3.03,2.45,2.9
				c-0.23-0.17-0.9-0.33-2-0.5C-0.68,2.23-1.7,2.18-2.6,2.25c-0.93,0.07-2.18,0.37-3.75,0.9v5.5c0-0.03,0.02-0.07,0.05-0.1
				c0.03-0.07,0.13-0.13,0.3-0.2c0.2-0.1,0.53-0.2,1-0.3C-4.07,7.88-2.97,7.8-1.7,7.8c1.3,0,2.4,0.08,3.3,0.25
				c0.5,0.1,0.87,0.2,1.1,0.3C2.8,8.42,2.87,8.47,2.9,8.5C2.92,8.54,2.94,8.58,2.95,8.6z"/>
			<linearGradient id="SVGID_3_" gradientUnits="userSpaceOnUse" x1="-1239.4121" y1="8.6499" x2="301.0129" y2="8.6499">
				<stop  offset="0" style="stop-color:#000000"/>
				<stop  offset="0.2078" style="stop-color:#A59F9E"/>
				<stop  offset="0.5529" style="stop-color:#E1D7D2"/>
				<stop  offset="1" style="stop-color:#060605"/>
			</linearGradient>
			<path fill-rule="evenodd" clip-rule="evenodd" fill="url(#SVGID_3_)" d="M-6.35,8.65c0,0.07,0.05,0.13,0.15,0.2
				C-6.13,8.92-6.03,8.97-5.9,9C-5.7,9.1-5.4,9.18-5,9.25C-4.07,9.42-2.97,9.5-1.7,9.5c1.3,0,2.4-0.08,3.3-0.25
				C2.03,9.18,2.35,9.1,2.55,9c0.1-0.03,0.18-0.08,0.25-0.15c0.03-0.03,0.07-0.07,0.1-0.1c0.03-0.03,0.05-0.07,0.05-0.1V8.6
				C2.94,8.58,2.92,8.54,2.9,8.5C2.87,8.47,2.8,8.42,2.7,8.35c-0.23-0.1-0.6-0.2-1.1-0.3C0.7,7.88-0.4,7.8-1.7,7.8
				c-1.27,0-2.37,0.08-3.3,0.25c-0.47,0.1-0.8,0.2-1,0.3c-0.17,0.07-0.27,0.13-0.3,0.2C-6.33,8.58-6.35,8.62-6.35,8.65z"/>
			<linearGradient id="SVGID_4_" gradientUnits="userSpaceOnUse" x1="-6.3999" y1="2.4658" x2="2.9004" y2="2.4658">
				<stop  offset="0" style="stop-color:#666666"/>
				<stop  offset="0.2078" style="stop-color:#A59F9E"/>
				<stop  offset="0.5529" style="stop-color:#E1D7D2"/>
				<stop  offset="0.8392" style="stop-color:#696461"/>
				<stop  offset="1" style="stop-color:#333131"/>
			</linearGradient>
			<path fill-rule="evenodd" clip-rule="evenodd" fill="url(#SVGID_4_)" d="M1.75,2.15c-0.1,0-0.2-0.02-0.3-0.05
				C-0.42,1.7-2.27,1.65-4.1,1.95C-4.4,2.02-4.7,2.1-5,2.2l-1.35,0.6v0.35c1.57-0.53,2.82-0.83,3.75-0.9
				c0.9-0.07,1.92-0.02,3.05,0.15c1.1,0.17,1.77,0.33,2,0.5c0.19,0.13,0.35,0.23,0.5,0.27V2.7C2.55,2.43,2.15,2.25,1.75,2.15z"/>
			<linearGradient id="SVGID_5_" gradientUnits="userSpaceOnUse" x1="-5.0249" y1="-3.8999" x2="1.7251" y2="-3.8999">
				<stop  offset="0" style="stop-color:#666666"/>
				<stop  offset="0.149" style="stop-color:#F3F3F3"/>
				<stop  offset="0.3725" style="stop-color:#A59F9E"/>
				<stop  offset="0.5529" style="stop-color:#E1D7D2"/>
				<stop  offset="1" style="stop-color:#242321"/>
			</linearGradient>
			<path fill-rule="evenodd" clip-rule="evenodd" fill="url(#SVGID_5_)" d="M-5,2.2c0.3-0.1,0.6-0.18,0.9-0.25
				c1.83-0.3,3.68-0.25,5.55,0.15c0.1,0.03,0.2,0.05,0.3,0.05V-9.5c-2.07-0.67-4.32-0.67-6.75,0V2.2z"/>
		</g>
	</g>
</symbol>
<g>
	<g>
		<g>
			<polygon fill-rule="evenodd" clip-rule="evenodd" fill="#F5C42F" points="93.97,313.25 15.82,313.2 16.97,308.4 91.82,308.45 
				93.82,313.05 			"/>
			<linearGradient id="SVGID_6_" gradientUnits="userSpaceOnUse" x1="51.9883" y1="280.4849" x2="58.6153" y2="402.2611">
				<stop  offset="0.3569" style="stop-color:#CB9B21"/>
				<stop  offset="1" style="stop-color:#9F750D"/>
			</linearGradient>
			<polygon fill-rule="evenodd" clip-rule="evenodd" fill="url(#SVGID_6_)" points="15.82,313.2 93.97,313.25 93.97,352.6 
				15.72,352.55 15.72,313.2 			"/>
		</g>
		<g>
			<g>
				<g>
					
						<path fill-rule="evenodd" clip-rule="evenodd" fill="none" stroke="#352600" stroke-width="0.45" stroke-linejoin="round" stroke-miterlimit="3" d="
						M81.47,309.3c0-0.93,0.05-1.73,0.15-2.4c0.1-0.67,0.23-1,0.4-1c0.17,0,0.3,0.33,0.4,1c0.1,0.67,0.15,1.47,0.15,2.4
						c0,0.3,0,0.6,0,0.9"/>
				</g>
			</g>
			<g>
				<g>
					<rect x="81.29" y="29.4" fill-rule="evenodd" clip-rule="evenodd" fill="#FFFFFF" width="1.55" height="275.55"/>
				</g>
				<g>
					<path fill-rule="evenodd" clip-rule="evenodd" fill="#FFFFFF" d="M81.22,306.9h-0.05c0.27,0.27,0.55,0.4,0.85,0.4
						c0.3-0.07,0.55-0.2,0.75-0.4c0.27-0.27,0.4-0.55,0.4-0.85c-0.03-0.27-0.17-0.53-0.4-0.8c-0.2-0.2-0.45-0.3-0.75-0.3
						c-0.3-0.03-0.58,0.07-0.85,0.3h0.05c-0.2,0.27-0.3,0.53-0.3,0.8C80.92,306.35,81.02,306.63,81.22,306.9z M80.22,306.05
						c-0.03-0.47,0.13-0.88,0.5-1.25c0.33-0.37,0.77-0.55,1.3-0.55c0.5-0.03,0.93,0.15,1.3,0.55h-0.05c0.4,0.37,0.6,0.78,0.6,1.25
						c-0.07,0.5-0.27,0.93-0.6,1.3h0.05c-0.37,0.43-0.8,0.65-1.3,0.65c-0.53-0.07-0.97-0.28-1.3-0.65
						C80.35,306.98,80.18,306.55,80.22,306.05z"/>
				</g>
			</g>
			<g>
				<g>
					
						<path fill-rule="evenodd" clip-rule="evenodd" fill="none" stroke="#352600" stroke-width="0.45" stroke-linejoin="round" stroke-miterlimit="3" d="
						M82.02,305.9c0.17,0,0.3,0.33,0.4,1c0.1,0.67,0.15,1.47,0.15,2.4c0,0.3,0,0.6,0,0.9"/>
				</g>
			</g>
		</g>
		<g>
			<g>
				<g>
					
						<path fill-rule="evenodd" clip-rule="evenodd" fill="none" stroke="#352600" stroke-width="0.45" stroke-linejoin="round" stroke-miterlimit="3" d="
						M27.22,309.3c0-0.93-0.05-1.73-0.15-2.4c-0.1-0.67-0.2-1-0.3-1c-0.17,0-0.3,0.33-0.4,1c-0.1,0.67-0.15,1.47-0.15,2.4
						c0,0.3,0,0.6,0,0.9"/>
				</g>
			</g>
			<g>
				<g>
					
						<rect x="-110.98" y="166.42" transform="matrix(5.458156e-004 -1 1 5.458156e-004 -140.3984 193.8746)" fill-rule="evenodd" clip-rule="evenodd" fill="#FFFFFF" width="275.55" height="1.5"/>
				</g>
				<g>
					<path fill-rule="evenodd" clip-rule="evenodd" fill="#FFFFFF" d="M25.42,304.8c0.37-0.4,0.82-0.58,1.35-0.55
						c0.47,0,0.88,0.18,1.25,0.55c0.37,0.37,0.52,0.78,0.45,1.25c0.07,0.5-0.08,0.93-0.45,1.3c-0.37,0.37-0.78,0.58-1.25,0.65
						c-0.53,0-0.98-0.22-1.35-0.65h0.1c-0.37-0.37-0.58-0.8-0.65-1.3c0-0.47,0.22-0.88,0.65-1.25H25.42z M26.77,304.95
						c-0.33,0-0.6,0.1-0.8,0.3c-0.2,0.27-0.33,0.53-0.4,0.8c0,0.3,0.13,0.58,0.4,0.85c0.2,0.2,0.47,0.33,0.8,0.4
						c0.27,0,0.53-0.13,0.8-0.4h-0.1c0.2-0.27,0.3-0.55,0.3-0.85c0-0.27-0.1-0.53-0.3-0.8h0.1
						C27.3,305.02,27.03,304.92,26.77,304.95z"/>
				</g>
			</g>
			<g>
				<g>
					
						<path fill-rule="evenodd" clip-rule="evenodd" fill="none" stroke="#352600" stroke-width="0.45" stroke-linejoin="round" stroke-miterlimit="3" d="
						M26.77,305.9c-0.17,0-0.3,0.33-0.4,1c-0.1,0.67-0.15,1.47-0.15,2.4c0,0.3,0,0.6,0,0.9"/>
				</g>
			</g>
		</g>
		<g>
			<g>
				<g>
					
						<path fill-rule="evenodd" clip-rule="evenodd" fill="none" stroke="#352600" stroke-width="0.45" stroke-linejoin="round" stroke-miterlimit="3" d="
						M84.17,311.9c0-0.9,0.05-1.7,0.15-2.4c0.1-0.67,0.23-1,0.4-1c0.17,0,0.3,0.33,0.4,1c0.1,0.7,0.15,1.5,0.15,2.4
						c0,0.33,0,0.63,0,0.9"/>
				</g>
			</g>
			<g>
				<g>
					<rect x="84.04" y="31.95" fill-rule="evenodd" clip-rule="evenodd" fill="#FFFFFF" width="1.5" height="275.65"/>
				</g>
				<g>
					<path fill-rule="evenodd" clip-rule="evenodd" fill="#FFFFFF" d="M83.97,307.9c-0.23,0.27-0.35,0.52-0.35,0.75
						c0,0.33,0.12,0.62,0.35,0.85h-0.1c0.27,0.27,0.55,0.4,0.85,0.4c0.3-0.03,0.55-0.17,0.75-0.4c0.27-0.23,0.4-0.52,0.4-0.85
						c-0.03-0.23-0.17-0.48-0.4-0.75c-0.2-0.2-0.45-0.3-0.75-0.3c-0.3-0.07-0.58,0.03-0.85,0.3H83.97z M82.92,308.65
						c-0.03-0.43,0.13-0.83,0.5-1.2c0.37-0.37,0.8-0.55,1.3-0.55c0.5-0.07,0.93,0.12,1.3,0.55h-0.05c0.4,0.37,0.6,0.77,0.6,1.2
						c-0.03,0.53-0.23,0.98-0.6,1.35h0.05c-0.37,0.4-0.8,0.6-1.3,0.6c-0.5-0.03-0.93-0.23-1.3-0.6S82.88,309.18,82.92,308.65z"/>
				</g>
			</g>
			<g>
				<g>
					
						<path fill-rule="evenodd" clip-rule="evenodd" fill="none" stroke="#352600" stroke-width="0.45" stroke-linejoin="round" stroke-miterlimit="3" d="
						M84.72,308.5c0.17,0,0.3,0.33,0.4,1c0.1,0.7,0.15,1.5,0.15,2.4c0,0.33,0,0.63,0,0.9"/>
				</g>
			</g>
		</g>
		<g>
			<g>
				<g>
					
						<path fill-rule="evenodd" clip-rule="evenodd" fill="none" stroke="#352600" stroke-width="0.45" stroke-linejoin="round" stroke-miterlimit="3" d="
						M24.52,311.9c0-0.9-0.03-1.7-0.1-2.4c-0.1-0.67-0.23-1-0.4-1c-0.13,0-0.25,0.33-0.35,1c-0.1,0.7-0.15,1.5-0.15,2.4
						c0,0.33,0,0.63,0,0.9"/>
				</g>
			</g>
			<g>
				<g>
					
						<rect x="-113.76" y="169.05" transform="matrix(5.455772e-004 -1 1 5.455772e-004 -145.7216 193.7477)" fill-rule="evenodd" clip-rule="evenodd" fill="#FFFFFF" width="275.65" height="1.45"/>
				</g>
				<g>
					<path fill-rule="evenodd" clip-rule="evenodd" fill="#FFFFFF" d="M22.82,307.45h-0.1c0.37-0.43,0.8-0.62,1.3-0.55
						c0.47,0,0.88,0.18,1.25,0.55c0.37,0.37,0.52,0.77,0.45,1.2c0.07,0.53-0.08,0.98-0.45,1.35c-0.37,0.37-0.78,0.57-1.25,0.6
						c-0.5,0-0.93-0.2-1.3-0.6h0.1c-0.37-0.37-0.58-0.82-0.65-1.35C22.17,308.22,22.38,307.82,22.82,307.45z M22.87,308.65
						c0,0.33,0.13,0.62,0.4,0.85c0.2,0.23,0.45,0.37,0.75,0.4c0.33,0,0.6-0.13,0.8-0.4h-0.1c0.23-0.23,0.35-0.52,0.35-0.85
						c0-0.23-0.12-0.48-0.35-0.75h0.1c-0.2-0.27-0.47-0.37-0.8-0.3c-0.3,0-0.55,0.1-0.75,0.3
						C23.07,308.17,22.93,308.42,22.87,308.65z"/>
				</g>
			</g>
			<g>
				<g>
					
						<path fill-rule="evenodd" clip-rule="evenodd" fill="none" stroke="#352600" stroke-width="0.45" stroke-linejoin="round" stroke-miterlimit="3" d="
						M24.02,308.5c-0.13,0-0.25,0.33-0.35,1c-0.1,0.7-0.15,1.5-0.15,2.4c0,0.33,0,0.63,0,0.9"/>
				</g>
			</g>
		</g>
	</g>
	<g>
		<g>
			<g>
				
					<linearGradient id="SVGID_7_" gradientUnits="userSpaceOnUse" x1="8.0156" y1="28.0112" x2="100.2156" y2="28.0112" gradientTransform="matrix(1 -5.422993e-004 0 1 0 -0.2166)">
					<stop  offset="0" style="stop-color:#CE6479"/>
					<stop  offset="1" style="stop-color:#892B38"/>
				</linearGradient>
				<polygon fill-rule="evenodd" clip-rule="evenodd" fill="url(#SVGID_7_)" points="55.37,30.7 55.37,24.8 105.37,24.8 
					109.52,30.7 				"/>
				
					<linearGradient id="SVGID_8_" gradientUnits="userSpaceOnUse" x1="8.0156" y1="36.5972" x2="100.2156" y2="36.5972" gradientTransform="matrix(1 -5.422993e-004 0 1 0 -0.2166)">
					<stop  offset="0" style="stop-color:#B0354F"/>
					<stop  offset="1" style="stop-color:#581B27"/>
				</linearGradient>
				<polygon fill-rule="evenodd" clip-rule="evenodd" fill="url(#SVGID_8_)" points="55.37,30.7 109.52,30.7 109.52,38.4 55.37,42 
									"/>
			</g>
			<g>
				
					<linearGradient id="SVGID_9_" gradientUnits="userSpaceOnUse" x1="-902.4341" y1="-498.0083" x2="-810.2341" y2="-498.0083" gradientTransform="matrix(-1 5.422993e-004 0 -1 -798.668 -469.7849)">
					<stop  offset="0" style="stop-color:#CE6479"/>
					<stop  offset="1" style="stop-color:#892B38"/>
				</linearGradient>
				<polygon fill-rule="evenodd" clip-rule="evenodd" fill="url(#SVGID_9_)" points="56.42,30.7 2.32,30.75 6.47,24.85 56.42,24.8 
									"/>
				
					<linearGradient id="SVGID_10_" gradientUnits="userSpaceOnUse" x1="-902.4341" y1="-506.5981" x2="-810.2341" y2="-506.5981" gradientTransform="matrix(-1 5.422993e-004 0 -1 -798.668 -469.7849)">
					<stop  offset="0" style="stop-color:#B0354F"/>
					<stop  offset="1" style="stop-color:#581B27"/>
				</linearGradient>
				<polygon fill-rule="evenodd" clip-rule="evenodd" fill="url(#SVGID_10_)" points="2.32,30.75 56.42,30.7 56.42,42 2.32,38.45 
									"/>
			</g>
		</g>
		
			<use xlink:href="#nail_copy"  width="9.75" height="24.21" x="-6.55" y="-14.71" transform="matrix(0.9101 -5.951595e-004 -5.951595e-004 -0.9101 84.9658 14.2993)" overflow="visible"/>
		<g>
			<path fill-rule="evenodd" clip-rule="evenodd" fill="#7F7B7A" d="M22.82,24.15c-0.83-0.2-1.25-0.38-1.25-0.55
				c0-0.13,0.42-0.27,1.25-0.4c0.9-0.1,1.95-0.15,3.15-0.15s2.23,0.05,3.1,0.15c0.87,0.13,1.3,0.27,1.3,0.4
				c0,0.17-0.43,0.42-1.3,0.75c-0.87,0.3-1.92,0.38-3.15,0.25C24.72,24.5,23.68,24.35,22.82,24.15z"/>
		</g>
		<g>
			<linearGradient id="SVGID_11_" gradientUnits="userSpaceOnUse" x1="21.7285" y1="25.8442" x2="30.2035" y2="25.8442">
				<stop  offset="0" style="stop-color:#666666"/>
				<stop  offset="0.149" style="stop-color:#F3F3F3"/>
				<stop  offset="0.3725" style="stop-color:#A59F9E"/>
				<stop  offset="0.5529" style="stop-color:#E1D7D2"/>
				<stop  offset="1" style="stop-color:#242321"/>
			</linearGradient>
			<path fill-rule="evenodd" clip-rule="evenodd" fill="url(#SVGID_11_)" d="M21.57,27.3v-3.75c2.8,1.07,5.73,1.08,8.8,0.05
				l0.05,3.55C27.48,28.42,24.53,28.47,21.57,27.3z"/>
		</g>
		<g>
			<linearGradient id="SVGID_12_" gradientUnits="userSpaceOnUse" x1="21.7285" y1="9.814" x2="30.2035" y2="9.814">
				<stop  offset="0" style="stop-color:#666666"/>
				<stop  offset="0.149" style="stop-color:#F3F3F3"/>
				<stop  offset="0.3725" style="stop-color:#A59F9E"/>
				<stop  offset="0.5529" style="stop-color:#E1D7D2"/>
				<stop  offset="1" style="stop-color:#242321"/>
			</linearGradient>
			<path fill-rule="evenodd" clip-rule="evenodd" fill="url(#SVGID_12_)" d="M30.22,6.9v5c-0.13,0.03-0.28,0.1-0.45,0.2
				c-0.23,0.17-0.85,0.32-1.85,0.45c-1.03,0.17-1.95,0.22-2.75,0.15c-0.87-0.07-2.02-0.33-3.45-0.8v-5l0.05,0.05
				c0.03,0.07,0.13,0.13,0.3,0.2c0.17,0.1,0.47,0.18,0.9,0.25c0.83,0.17,1.83,0.25,3,0.25c1.2,0,2.2-0.08,3-0.25
				c0.47-0.07,0.8-0.15,1-0.25c0.1-0.07,0.17-0.12,0.2-0.15C30.2,6.97,30.21,6.93,30.22,6.9z"/>
			<linearGradient id="SVGID_13_" gradientUnits="userSpaceOnUse" x1="-1100.4126" y1="7.6143" x2="301.4623" y2="6.6933">
				<stop  offset="0" style="stop-color:#000000"/>
				<stop  offset="0.2078" style="stop-color:#A59F9E"/>
				<stop  offset="0.5529" style="stop-color:#E1D7D2"/>
				<stop  offset="1" style="stop-color:#060605"/>
			</linearGradient>
			<path fill-rule="evenodd" clip-rule="evenodd" fill="url(#SVGID_13_)" d="M21.72,6.9c0-0.07,0.05-0.13,0.15-0.2
				c0.07-0.07,0.17-0.12,0.3-0.15c0.17-0.1,0.43-0.17,0.8-0.2c0.83-0.17,1.83-0.25,3-0.25c1.2,0,2.2,0.08,3,0.25
				c0.4,0.03,0.68,0.1,0.85,0.2c0.1,0.03,0.18,0.08,0.25,0.15c0.03,0.03,0.07,0.07,0.1,0.1c0.03,0.03,0.05,0.07,0.05,0.1
				c0,0.03-0.02,0.07-0.05,0.1c-0.03,0.03-0.1,0.08-0.2,0.15c-0.2,0.1-0.53,0.18-1,0.25c-0.8,0.17-1.8,0.25-3,0.25
				c-1.17,0-2.17-0.08-3-0.25c-0.43-0.07-0.73-0.15-0.9-0.25c-0.17-0.07-0.27-0.13-0.3-0.2L21.72,6.9z"/>
			<linearGradient id="SVGID_14_" gradientUnits="userSpaceOnUse" x1="21.6787" y1="12.5337" x2="30.1537" y2="12.5337">
				<stop  offset="0" style="stop-color:#666666"/>
				<stop  offset="0.2078" style="stop-color:#A59F9E"/>
				<stop  offset="0.5529" style="stop-color:#E1D7D2"/>
				<stop  offset="0.8392" style="stop-color:#696461"/>
				<stop  offset="1" style="stop-color:#333131"/>
			</linearGradient>
			<path fill-rule="evenodd" clip-rule="evenodd" fill="url(#SVGID_14_)" d="M29.12,12.8c-0.1,0-0.2,0.02-0.3,0.05
				c-1.7,0.37-3.38,0.42-5.05,0.15c-0.27-0.07-0.53-0.15-0.8-0.25l-1.25-0.55v-0.3c1.43,0.47,2.58,0.73,3.45,0.8
				c0.8,0.07,1.72,0.02,2.75-0.15c1-0.13,1.62-0.28,1.85-0.45c0.17-0.1,0.32-0.17,0.45-0.2v0.4C29.85,12.53,29.48,12.7,29.12,12.8z"
				/>
			<linearGradient id="SVGID_15_" gradientUnits="userSpaceOnUse" x1="22.9414" y1="18.2993" x2="29.0918" y2="18.2993">
				<stop  offset="0" style="stop-color:#666666"/>
				<stop  offset="0.149" style="stop-color:#F3F3F3"/>
				<stop  offset="0.3725" style="stop-color:#A59F9E"/>
				<stop  offset="0.5529" style="stop-color:#E1D7D2"/>
				<stop  offset="1" style="stop-color:#242321"/>
			</linearGradient>
			<path fill-rule="evenodd" clip-rule="evenodd" fill="url(#SVGID_15_)" d="M22.97,12.75c0.27,0.1,0.53,0.18,0.8,0.25
				c1.67,0.27,3.35,0.22,5.05-0.15c0.1-0.03,0.2-0.05,0.3-0.05v10.6c-1.9,0.6-3.95,0.6-6.15,0V12.75z"/>
		</g>
		<g>
			<g>
				<path fill-rule="evenodd" clip-rule="evenodd" fill="#7F7B7A" d="M21.57,25.25c-1.07-0.27-1.6-0.48-1.6-0.65
					c0-0.2,0.53-0.38,1.6-0.55c1.1-0.13,2.42-0.2,3.95-0.2c1.53,0,2.83,0.07,3.9,0.2c1.1,0.17,1.65,0.35,1.65,0.55
					c0,0.17-0.55,0.47-1.65,0.9c-1.1,0.37-2.42,0.48-3.95,0.35C23.93,25.68,22.63,25.48,21.57,25.25z"/>
			</g>
			<g>
				<linearGradient id="SVGID_16_" gradientUnits="userSpaceOnUse" x1="19.6035" y1="27.3569" x2="31.1285" y2="27.3569">
					<stop  offset="0" style="stop-color:#000000"/>
					<stop  offset="0.2078" style="stop-color:#A59F9E"/>
					<stop  offset="0.5529" style="stop-color:#E1D7D2"/>
					<stop  offset="1" style="stop-color:#060605"/>
				</linearGradient>
				<path fill-rule="evenodd" clip-rule="evenodd" fill="url(#SVGID_16_)" d="M19.97,29.2v-4.75c3.5,1.4,7.2,1.45,11.1,0.15
					l0.05,4.45C27.42,30.62,23.7,30.67,19.97,29.2z"/>
			</g>
			<g>
				<linearGradient id="SVGID_17_" gradientUnits="userSpaceOnUse" x1="-1388.1152" y1="4.1758" x2="371.2598" y2="3.3034">
					<stop  offset="0" style="stop-color:#000000"/>
					<stop  offset="0.2078" style="stop-color:#A59F9E"/>
					<stop  offset="0.5529" style="stop-color:#E1D7D2"/>
					<stop  offset="1" style="stop-color:#060605"/>
				</linearGradient>
				<path fill-rule="evenodd" clip-rule="evenodd" fill="url(#SVGID_17_)" d="M30.77,3.65c-0.03,0.03-0.1,0.08-0.2,0.15
					c-0.27,0.1-0.68,0.22-1.25,0.35c-1.03,0.2-2.3,0.3-3.8,0.3c-1.43,0-2.68-0.1-3.75-0.3c-0.53-0.13-0.92-0.25-1.15-0.35
					c-0.2-0.07-0.32-0.15-0.35-0.25c-0.03-0.03-0.05-0.07-0.05-0.1c0-0.07,0.05-0.13,0.15-0.2c0.1-0.1,0.22-0.17,0.35-0.2
					c0.23-0.1,0.58-0.2,1.05-0.3c1.07-0.17,2.32-0.25,3.75-0.25c1.5,0,2.77,0.08,3.8,0.25c0.47,0.1,0.82,0.2,1.05,0.3
					c0.13,0.03,0.23,0.1,0.3,0.2c0.03,0.03,0.07,0.07,0.1,0.1c0.03,0.03,0.05,0.07,0.05,0.1C30.82,3.48,30.8,3.55,30.77,3.65z"/>
				<linearGradient id="SVGID_18_" gradientUnits="userSpaceOnUse" x1="20.1035" y1="7.2368" x2="30.8285" y2="7.2368">
					<stop  offset="0" style="stop-color:#666666"/>
					<stop  offset="0.2196" style="stop-color:#FFFFFF"/>
					<stop  offset="0.3608" style="stop-color:#C8C4C3"/>
					<stop  offset="0.5529" style="stop-color:#E1D7D2"/>
					<stop  offset="1" style="stop-color:#060605"/>
				</linearGradient>
				<path fill-rule="evenodd" clip-rule="evenodd" fill="url(#SVGID_18_)" d="M30.82,9.8c-0.1,0.03-0.28,0.15-0.55,0.35
					c-0.27,0.17-1.03,0.35-2.3,0.55c-1.3,0.2-2.45,0.27-3.45,0.2c-1.07-0.1-2.5-0.45-4.3-1.05v-6.3h0.05
					c0.03,0.1,0.15,0.18,0.35,0.25c0.23,0.1,0.62,0.22,1.15,0.35c1.07,0.2,2.32,0.3,3.75,0.3c1.5,0,2.77-0.1,3.8-0.3
					c0.57-0.13,0.98-0.25,1.25-0.35c0.1-0.07,0.17-0.12,0.2-0.15L30.82,9.8z"/>
				<path fill-rule="evenodd" clip-rule="evenodd" fill="#2A2827" d="M20.22,9.85c1.8,0.6,3.23,0.95,4.3,1.05
					c1,0.07,2.15,0,3.45-0.2c1.27-0.2,2.03-0.38,2.3-0.55c0.27-0.2,0.45-0.32,0.55-0.35v0.55c-0.43,0.3-0.88,0.52-1.35,0.65
					c-0.1,0-0.22,0.02-0.35,0.05c-2.13,0.47-4.25,0.52-6.35,0.15c-0.33-0.07-0.67-0.15-1-0.25l-1.55-0.7V9.85z"/>
				<linearGradient id="SVGID_19_" gradientUnits="userSpaceOnUse" x1="21.7158" y1="17.9116" x2="29.416" y2="17.9116">
					<stop  offset="0" style="stop-color:#666666"/>
					<stop  offset="0.2078" style="stop-color:#A59F9E"/>
					<stop  offset="0.3647" style="stop-color:#FFFFFF"/>
					<stop  offset="0.5529" style="stop-color:#E1D7D2"/>
					<stop  offset="1" style="stop-color:#060605"/>
				</linearGradient>
				<path fill-rule="evenodd" clip-rule="evenodd" fill="url(#SVGID_19_)" d="M21.77,10.95c0.33,0.1,0.67,0.18,1,0.25
					c2.1,0.37,4.22,0.32,6.35-0.15c0.13-0.03,0.25-0.05,0.35-0.05v13.3c-2.37,0.77-4.93,0.77-7.7,0V10.95z"/>
			</g>
		</g>
		<g>
			<g>
				<path fill-rule="evenodd" clip-rule="evenodd" fill="#7F7B7A" d="M79.72,25.25c-1.07-0.27-1.6-0.48-1.6-0.65
					c0-0.2,0.53-0.38,1.6-0.55c1.1-0.13,2.42-0.2,3.95-0.2s2.83,0.07,3.9,0.2c1.1,0.17,1.65,0.35,1.65,0.55
					c0,0.17-0.55,0.47-1.65,0.9c-1.1,0.37-2.42,0.48-3.95,0.35C82.08,25.68,80.78,25.48,79.72,25.25z"/>
			</g>
			<g>
				<linearGradient id="SVGID_20_" gradientUnits="userSpaceOnUse" x1="77.7539" y1="27.3569" x2="89.2789" y2="27.3569">
					<stop  offset="0" style="stop-color:#000000"/>
					<stop  offset="0.2078" style="stop-color:#A59F9E"/>
					<stop  offset="0.5529" style="stop-color:#E1D7D2"/>
					<stop  offset="1" style="stop-color:#060605"/>
				</linearGradient>
				<path fill-rule="evenodd" clip-rule="evenodd" fill="url(#SVGID_20_)" d="M78.12,29.2v-4.75c3.5,1.4,7.2,1.45,11.1,0.15
					l0.05,4.45C85.57,30.62,81.85,30.67,78.12,29.2z"/>
			</g>
			<g>
				<linearGradient id="SVGID_21_" gradientUnits="userSpaceOnUse" x1="78.2539" y1="7.2368" x2="88.9789" y2="7.2368">
					<stop  offset="0" style="stop-color:#666666"/>
					<stop  offset="0.2196" style="stop-color:#FFFFFF"/>
					<stop  offset="0.3608" style="stop-color:#C8C4C3"/>
					<stop  offset="0.5529" style="stop-color:#E1D7D2"/>
					<stop  offset="1" style="stop-color:#060605"/>
				</linearGradient>
				<path fill-rule="evenodd" clip-rule="evenodd" fill="url(#SVGID_21_)" d="M88.97,9.8c-0.1,0.03-0.28,0.15-0.55,0.35
					c-0.27,0.17-1.03,0.35-2.3,0.55c-1.3,0.2-2.45,0.27-3.45,0.2c-1.07-0.1-2.5-0.45-4.3-1.05v-6.3h0.05
					c0.03,0.1,0.15,0.18,0.35,0.25c0.23,0.1,0.62,0.22,1.15,0.35c1.07,0.2,2.32,0.3,3.75,0.3c1.5,0,2.77-0.1,3.8-0.3
					c0.57-0.13,0.98-0.25,1.25-0.35c0.1-0.07,0.17-0.12,0.2-0.15L88.97,9.8z"/>
				<linearGradient id="SVGID_22_" gradientUnits="userSpaceOnUse" x1="-1329.9653" y1="4.1758" x2="429.4097" y2="3.3034">
					<stop  offset="0" style="stop-color:#000000"/>
					<stop  offset="0.2078" style="stop-color:#A59F9E"/>
					<stop  offset="0.5529" style="stop-color:#E1D7D2"/>
					<stop  offset="1" style="stop-color:#060605"/>
				</linearGradient>
				<path fill-rule="evenodd" clip-rule="evenodd" fill="url(#SVGID_22_)" d="M88.92,3.65c-0.03,0.03-0.1,0.08-0.2,0.15
					c-0.27,0.1-0.68,0.22-1.25,0.35c-1.03,0.2-2.3,0.3-3.8,0.3c-1.43,0-2.68-0.1-3.75-0.3C79.38,4.02,79,3.9,78.77,3.8
					c-0.2-0.07-0.32-0.15-0.35-0.25c-0.03-0.03-0.05-0.07-0.05-0.1c0-0.07,0.05-0.13,0.15-0.2c0.1-0.1,0.22-0.17,0.35-0.2
					c0.23-0.1,0.58-0.2,1.05-0.3c1.07-0.17,2.32-0.25,3.75-0.25c1.5,0,2.77,0.08,3.8,0.25c0.47,0.1,0.82,0.2,1.05,0.3
					c0.13,0.03,0.23,0.1,0.3,0.2c0.03,0.03,0.07,0.07,0.1,0.1s0.05,0.07,0.05,0.1C88.97,3.48,88.95,3.55,88.92,3.65z"/>
				<path fill-rule="evenodd" clip-rule="evenodd" fill="#2A2827" d="M78.37,9.85c1.8,0.6,3.23,0.95,4.3,1.05
					c1,0.07,2.15,0,3.45-0.2c1.27-0.2,2.03-0.38,2.3-0.55c0.27-0.2,0.45-0.32,0.55-0.35v0.55c-0.43,0.3-0.88,0.52-1.35,0.65
					c-0.1,0-0.22,0.02-0.35,0.05c-2.13,0.47-4.25,0.52-6.35,0.15c-0.33-0.07-0.67-0.15-1-0.25l-1.55-0.7V9.85z"/>
				<linearGradient id="SVGID_23_" gradientUnits="userSpaceOnUse" x1="79.8662" y1="17.9116" x2="87.5664" y2="17.9116">
					<stop  offset="0" style="stop-color:#666666"/>
					<stop  offset="0.2078" style="stop-color:#A59F9E"/>
					<stop  offset="0.3647" style="stop-color:#FFFFFF"/>
					<stop  offset="0.5529" style="stop-color:#E1D7D2"/>
					<stop  offset="1" style="stop-color:#060605"/>
				</linearGradient>
				<path fill-rule="evenodd" clip-rule="evenodd" fill="url(#SVGID_23_)" d="M79.92,10.95c0.33,0.1,0.67,0.18,1,0.25
					c2.1,0.37,4.22,0.32,6.35-0.15C87.4,11.02,87.52,11,87.62,11v13.3c-2.37,0.77-4.93,0.77-7.7,0V10.95z"/>
			</g>
		</g>
	</g>
</g>
</svg>
