<?xml version="1.0" encoding="utf-8"?>
<!-- Generator: Adobe Illustrator 16.0.0, SVG Export Plug-In . SVG Version: 6.00 Build 0)  -->
<!DOCTYPE svg PUBLIC "-//W3C//DTD SVG 1.1//EN" "http://www.w3.org/Graphics/SVG/1.1/DTD/svg11.dtd">
<svg version="1.1" id="Layer_1" xmlns="http://www.w3.org/2000/svg" xmlns:xlink="http://www.w3.org/1999/xlink" x="0px" y="0px"
	 width="41.879px" height="307.25px" viewBox="0 -9.75 41.879 307.25" enable-background="new 0 -9.75 41.879 307.25"
	 xml:space="preserve">
<g>
	<path d="M1.92-7.1c0.17,0.17,0.25,0.35,0.25,0.55V273h38.05c0.229,0,0.42,0.07,0.55,0.2c0.17,0.17,0.25,0.351,0.25,0.55v18.8
		c0,0.2-0.08,0.38-0.25,0.55c-0.13,0.131-0.32,0.2-0.55,0.2c-0.2,0-0.37-0.069-0.5-0.2c-0.171-0.17-0.25-0.35-0.25-0.55v-18H1.38
		c-0.2,0-0.38-0.079-0.55-0.25c-0.13-0.17-0.2-0.351-0.2-0.55c0-0.029,0.02-0.08,0.05-0.15c-0.03-0.1-0.05-0.18-0.05-0.25V-6.55
		c0-0.2,0.07-0.38,0.2-0.55C1-7.27,1.18-7.35,1.38-7.35C1.58-7.35,1.76-7.27,1.92-7.1z"/>
</g>
</svg>
