<?xml version="1.0" encoding="utf-8"?>
<!-- Generator: Adobe Illustrator 16.0.0, SVG Export Plug-In . SVG Version: 6.00 Build 0)  -->
<!DOCTYPE svg PUBLIC "-//W3C//DTD SVG 1.1//EN" "http://www.w3.org/Graphics/SVG/1.1/DTD/svg11.dtd">
<svg version="1.1" xmlns="http://www.w3.org/2000/svg" xmlns:xlink="http://www.w3.org/1999/xlink" x="0px" y="0px"
	 width="699.33px" height="207.67px" viewBox="0 0 699.33 207.67" enable-background="new 0 0 699.33 207.67" xml:space="preserve">
<g id="Layer_5">
</g>
<g id="Layer_2">
	<g>
		<g>
			
				<radialGradient id="SVGID_1_" cx="333.5166" cy="117.1167" r="487.9" gradientTransform="matrix(1 0 0 0.4687 0 62.225)" gradientUnits="userSpaceOnUse">
				<stop  offset="0" style="stop-color:#FFFFFF"/>
				<stop  offset="0.4078" style="stop-color:#F4F5F5"/>
				<stop  offset="1" style="stop-color:#CAD0CF"/>
			</radialGradient>
			
				<rect x="-0.98" y="-0.58" fill-rule="evenodd" clip-rule="evenodd" fill="url(#SVGID_1_)" stroke="#FFFFFF" stroke-width="3" stroke-miterlimit="10" width="701.65" height="207.2"/>
		</g>
		<g>
			
				<path fill-rule="evenodd" clip-rule="evenodd" fill="none" stroke="#FFFFFF" stroke-width="0.75" stroke-linecap="round" stroke-linejoin="round" stroke-miterlimit="3" stroke-opacity="0.498" d="
				M640.92-3.33v209.6 M677.67-3.33v209.6 M662.97-3.33v209.6 M655.62-3.33v209.6 M648.27-3.33v209.6 M670.32-3.33v209.6
				 M685.02-3.33v209.6 M699.72-3.33v209.6 M692.37-3.33v209.6 M427.77-3.33v209.6 M457.17-3.33v209.6 M449.82-3.33v209.6
				 M442.47-3.33v209.6 M464.52-3.33v209.6 M501.27-3.33v209.6 M508.62-3.33v209.6 M530.67-3.33v209.6 M523.32-3.33v209.6
				 M515.97-3.33v209.6 M538.02-3.33v209.6 M552.72-3.33v209.6 M545.37-3.33v209.6 M574.77-3.33v209.6 M567.42-3.33v209.6
				 M560.07-3.33v209.6 M582.12-3.33v209.6 M596.82-3.33v209.6 M604.17-3.33v209.6 M633.57-3.33v209.6 M626.22-3.33v209.6
				 M618.87-3.33v209.6 M611.52-3.33v209.6 M324.87-3.33v209.6 M317.52-3.33v209.6 M332.22-3.33v209.6 M346.92-3.33v209.6
				 M339.57-3.33v209.6 M376.32-3.33v209.6 M368.97-3.33v209.6 M361.62-3.33v209.6 M354.27-3.33v209.6 M383.67-3.33v209.6
				 M391.02-3.33v209.6 M413.07-3.33v209.6 M405.72-3.33v209.6 M398.37-3.33v209.6 M420.42-3.33v209.6 M435.12-3.33v209.6
				 M589.47-3.33v209.6 M493.92-3.33v209.6 M486.57-3.33v209.6 M479.22-3.33v209.6 M471.87-3.33v209.6 M185.22-3.33v209.6
				 M177.87-3.33v209.6 M199.92-3.33v209.6 M214.62-3.33v209.6 M229.32-3.33v209.6 M221.97-3.33v209.6 M244.02-3.33v209.6
				 M251.37-3.33v209.6 M280.77-3.33v209.6 M273.42-3.33v209.6 M266.07-3.33v209.6 M258.72-3.33v209.6 M288.12-3.33v209.6
				 M310.17-3.33v209.6 M302.82-3.33v209.6 M295.47-3.33v209.6 M236.67-3.33v209.6 M119.07-3.33v209.6 M23.52-3.33v209.6
				 M16.17-3.33v209.6 M8.82-3.33v209.6 M1.47-3.33v209.6 M30.87-3.33v209.6 M38.22-3.33v209.6 M60.27-3.33v209.6 M52.92-3.33v209.6
				 M45.57-3.33v209.6 M67.62-3.33v209.6 M82.32-3.33v209.6 M74.97-3.33v209.6 M104.37-3.33v209.6 M97.02-3.33v209.6 M89.67-3.33
				v209.6 M111.72-3.33v209.6 M126.42-3.33v209.6 M133.77-3.33v209.6 M163.17-3.33v209.6 M155.82-3.33v209.6 M148.47-3.33v209.6
				 M141.12-3.33v209.6 M170.52-3.33v209.6 M207.27-3.33v209.6 M192.57-3.33v209.6"/>
		</g>
		<g>
			
				<path fill-rule="evenodd" clip-rule="evenodd" fill="none" stroke="#FFFFFF" stroke-width="0.75" stroke-linecap="round" stroke-linejoin="round" stroke-miterlimit="3" stroke-opacity="0.498" d="
				M705.42-2.43H-7.33 M705.42,4.92H-7.33 M705.42,12.27H-7.33 M705.42,41.67H-7.33 M705.42,49.02H-7.33 M705.42,85.77H-7.33
				 M705.42,93.12H-7.33 M705.42,107.82H-7.33 M705.42,100.47H-7.33 M705.42,71.07H-7.33 M705.42,78.42H-7.33 M705.42,63.72H-7.33
				 M705.42,56.37H-7.33 M705.42,34.32H-7.33 M705.42,26.97H-7.33 M705.42,19.62H-7.33 M705.42,137.22H-7.33 M705.42,144.57H-7.33
				 M705.42,151.92H-7.33 M705.42,173.97H-7.33 M705.42,181.32H-7.33 M705.42,196.02H-7.33 M705.42,188.67H-7.33 M705.42,203.37
				H-7.33 M705.42,166.62H-7.33 M705.42,159.27H-7.33 M705.42,129.87H-7.33 M705.42,122.52H-7.33 M705.42,115.17H-7.33"/>
		</g>
		<g>
			
				<line fill-rule="evenodd" clip-rule="evenodd" fill="none" stroke="#CCCCCC" stroke-width="3" stroke-linecap="round" stroke-linejoin="round" stroke-miterlimit="3" x1="-3.33" y1="206.47" x2="699.07" y2="206.47"/>
		</g>
	</g>
</g>
</svg>
