<?xml version="1.0" encoding="utf-8"?>
<!-- Generator: Adobe Illustrator 16.0.0, SVG Export Plug-In . SVG Version: 6.00 Build 0)  -->
<!DOCTYPE svg PUBLIC "-//W3C//DTD SVG 1.1//EN" "http://www.w3.org/Graphics/SVG/1.1/DTD/svg11.dtd">
<svg version="1.1" id="Layer_1" xmlns="http://www.w3.org/2000/svg" xmlns:xlink="http://www.w3.org/1999/xlink" x="0px" y="0px"
	 width="18.75px" height="18.5px" viewBox="0 0 18.75 18.5" enable-background="new 0 0 18.75 18.5" xml:space="preserve">
<g>
	<g>
		<radialGradient id="SVGID_1_" cx="9.0498" cy="6.7002" r="10.7625" gradientUnits="userSpaceOnUse">
			<stop  offset="0" style="stop-color:#FFFFFF"/>
			<stop  offset="0.6392" style="stop-color:#A4A4B1"/>
			<stop  offset="1" style="stop-color:#5E606B"/>
		</radialGradient>
		<path fill-rule="evenodd" clip-rule="evenodd" fill="url(#SVGID_1_)" d="M9.2,1.8c2.2,0,4.1,0.78,5.7,2.35
			c1.57,1.6,2.35,3.48,2.35,5.65c0,2.23-0.78,4.13-2.35,5.7c-1.6,1.57-3.5,2.35-5.7,2.35s-4.1-0.78-5.7-2.35
			c-1.57-1.57-2.35-3.47-2.35-5.7c0-2.17,0.78-4.05,2.35-5.65C5.1,2.58,7,1.8,9.2,1.8z"/>
	</g>
	<g>
		<path fill-rule="evenodd" clip-rule="evenodd" d="M7.7,6.85c-0.43,0.5-0.65,1.3-0.65,2.4c0,1.17,0.22,2,0.65,2.5
			c0.4,0.5,0.95,0.75,1.65,0.75c0.5,0,0.93-0.15,1.3-0.45c0.33-0.33,0.58-0.83,0.75-1.5l1.8,0.55c-0.27,1.03-0.72,1.78-1.35,2.25
			c-0.67,0.5-1.5,0.75-2.5,0.75c-1.23,0-2.25-0.42-3.05-1.25c-0.8-0.83-1.2-1.98-1.2-3.45c0-1.57,0.4-2.78,1.2-3.65
			C7.1,4.92,8.15,4.5,9.45,4.5c1.17,0,2.1,0.33,2.8,1C12.68,5.9,13,6.47,13.2,7.2l-1.85,0.45c-0.13-0.47-0.37-0.85-0.7-1.15
			C10.28,6.23,9.87,6.1,9.4,6.1C8.7,6.1,8.13,6.35,7.7,6.85z"/>
	</g>
</g>
</svg>
