<?xml version="1.0" encoding="utf-8"?>
<!-- Generator: Adobe Illustrator 16.0.0, SVG Export Plug-In . SVG Version: 6.00 Build 0)  -->
<!DOCTYPE svg PUBLIC "-//W3C//DTD SVG 1.1//EN" "http://www.w3.org/Graphics/SVG/1.1/DTD/svg11.dtd">
<svg version="1.1" xmlns="http://www.w3.org/2000/svg" xmlns:xlink="http://www.w3.org/1999/xlink" x="0px" y="0px" width="23.17px"
	 height="23.33px" viewBox="0 0 23.17 23.33" enable-background="new 0 0 23.17 23.33" xml:space="preserve">
<g id="Layer_5">
</g>
<g id="Layer_2">
	<g>
		<g>
			<path fill-rule="evenodd" clip-rule="evenodd" fill="#F5851F" d="M20.03,12c0-2.3-0.8-4.27-2.4-5.9c-1.63-1.6-3.6-2.4-5.9-2.4
				c-2.3,0-4.27,0.8-5.9,2.4c-1.6,1.63-2.4,3.6-2.4,5.9s0.8,4.25,2.4,5.85c1.63,1.63,3.6,2.45,5.9,2.45c2.3,0,4.27-0.82,5.9-2.45
				C19.23,16.25,20.03,14.3,20.03,12z M3.88,19.85c-2.17-2.2-3.25-4.82-3.25-7.85c0-3.07,1.08-5.68,3.25-7.85
				C6.05,1.98,8.67,0.9,11.73,0.9c3.03,0,5.65,1.08,7.85,3.25c2.17,2.17,3.25,4.78,3.25,7.85c0,3.03-1.08,5.65-3.25,7.85
				c-2.2,2.17-4.82,3.25-7.85,3.25C8.67,23.1,6.05,22.02,3.88,19.85z"/>
		</g>
		<g>
			<path fill-rule="evenodd" clip-rule="evenodd" fill="#F5851F" d="M10.53,2.35c0-0.37,0.13-0.69,0.4-0.95
				C11.2,1.13,11.51,1,11.88,1c0.37,0,0.69,0.13,0.95,0.4c0.26,0.26,0.4,0.58,0.4,0.95v6.42l4.55-4.52c0.27-0.27,0.58-0.4,0.95-0.4
				c0.37,0,0.68,0.13,0.95,0.4s0.4,0.58,0.4,0.95s-0.13,0.68-0.4,0.95l-4.52,4.5h6.17c0.37,0,0.69,0.13,0.95,0.4
				c0.26,0.26,0.4,0.58,0.4,0.95c0,0.37-0.13,0.69-0.4,0.95c-0.26,0.27-0.58,0.4-0.95,0.4h-6.35l4.5,4.5
				c0.26,0.26,0.4,0.58,0.4,0.95c0,0.37-0.13,0.69-0.4,0.95c-0.26,0.27-0.58,0.4-0.95,0.4c-0.37,0-0.69-0.13-0.95-0.4l-4.35-4.35
				v6.25c0,0.37-0.14,0.69-0.4,0.95c-0.26,0.27-0.58,0.4-0.95,0.4c-0.37,0-0.69-0.13-0.95-0.4c-0.26-0.26-0.4-0.58-0.4-0.95v-6.38
				l-4.5,4.48c-0.27,0.27-0.58,0.4-0.95,0.4s-0.68-0.13-0.95-0.4s-0.4-0.58-0.4-0.95c0-0.07,0.02-0.13,0.05-0.2
				c0.03-0.3,0.15-0.55,0.35-0.75l4.53-4.5H2.03c-0.37,0-0.69-0.13-0.95-0.4c-0.26-0.26-0.4-0.58-0.4-0.95
				c0-0.37,0.14-0.69,0.4-0.95c0.26-0.27,0.58-0.4,0.95-0.4h6.45L3.93,6.1c-0.26-0.26-0.4-0.58-0.4-0.95c0-0.37,0.13-0.69,0.4-0.95
				C4.2,3.94,4.51,3.8,4.88,3.8c0.37,0,0.69,0.14,0.95,0.4l4.7,4.7V2.35z"/>
		</g>
	</g>
</g>
</svg>
