<?xml version="1.0" encoding="utf-8"?>
<!-- Generator: Adobe Illustrator 16.0.0, SVG Export Plug-In . SVG Version: 6.00 Build 0)  -->
<!DOCTYPE svg PUBLIC "-//W3C//DTD SVG 1.1//EN" "http://www.w3.org/Graphics/SVG/1.1/DTD/svg11.dtd">
<svg version="1.1" xmlns="http://www.w3.org/2000/svg" xmlns:xlink="http://www.w3.org/1999/xlink" x="0px" y="0px" width="22.75px"
	 height="22.5px" viewBox="0 0 22.75 22.5" enable-background="new 0 0 22.75 22.5" xml:space="preserve">
<g id="Layer_5">
</g>
<g id="Layer_2">
	<g>
		<g>
			<path fill-rule="evenodd" clip-rule="evenodd" fill="#46618C" d="M17.27,17.15c1.63-1.63,2.45-3.58,2.45-5.85
				c0-2.3-0.82-4.27-2.45-5.9c-1.63-1.63-3.6-2.45-5.9-2.45c-2.27,0-4.22,0.82-5.85,2.45C3.88,7.03,3.07,9,3.07,11.3
				c0,2.27,0.82,4.22,2.45,5.85c1.63,1.63,3.58,2.45,5.85,2.45C13.67,19.6,15.63,18.78,17.27,17.15z M22.47,11.3
				c0,3.03-1.08,5.63-3.25,7.8c-2.17,2.17-4.78,3.25-7.85,3.25c-3.03,0-5.63-1.08-7.8-3.25c-2.17-2.17-3.25-4.77-3.25-7.8
				c0-3.07,1.08-5.68,3.25-7.85c2.17-2.17,4.77-3.25,7.8-3.25c3.07,0,5.68,1.08,7.85,3.25C21.38,5.62,22.47,8.23,22.47,11.3z"/>
		</g>
		<g>
			<path fill-rule="evenodd" clip-rule="evenodd" fill="#46618C" d="M18.32,3.3c0.37,0,0.68,0.13,0.95,0.4
				c0.27,0.27,0.4,0.58,0.4,0.95s-0.13,0.68-0.4,0.95l-4.2,4.2h5.95c0.33,0,0.63,0.13,0.9,0.4c0.27,0.27,0.4,0.58,0.4,0.95
				s-0.13,0.68-0.4,0.95s-0.57,0.4-0.9,0.4h-6.2l4.55,4.55c0.27,0.27,0.4,0.58,0.4,0.95s-0.13,0.68-0.4,0.95
				c-0.27,0.27-0.58,0.4-0.95,0.4s-0.68-0.13-0.95-0.4l-4.4-4.4v6.4c0,0.37-0.13,0.68-0.4,0.95s-0.58,0.4-0.95,0.4
				c-0.37,0-0.68-0.13-0.95-0.4s-0.4-0.58-0.4-0.95V14.5l-4.75,4.75c-0.27,0.27-0.58,0.4-0.95,0.4s-0.68-0.13-0.95-0.4
				s-0.4-0.58-0.4-0.95s0.13-0.68,0.4-0.95l4.85-4.85h-6.7c-0.37,0-0.68-0.13-0.95-0.4s-0.4-0.58-0.4-0.95s0.13-0.68,0.4-0.95
				C1.18,9.93,1.5,9.8,1.87,9.8h6.45l-4.5-4.5c-0.27-0.27-0.4-0.58-0.4-0.95s0.13-0.68,0.4-0.95S4.4,3,4.77,3
				c0.37,0,0.68,0.13,0.95,0.4l4.65,4.65v-6.4c0-0.37,0.13-0.68,0.4-0.95c0.27-0.27,0.58-0.4,0.95-0.4c0.37,0,0.68,0.13,0.95,0.4
				c0.27,0.27,0.4,0.58,0.4,0.95V8l4.3-4.3C17.63,3.43,17.95,3.3,18.32,3.3z"/>
		</g>
	</g>
</g>
</svg>
