<?xml version="1.0" encoding="utf-8"?>
<!-- Generator: Adobe Illustrator 16.0.0, SVG Export Plug-In . SVG Version: 6.00 Build 0)  -->
<!DOCTYPE svg PUBLIC "-//W3C//DTD SVG 1.1//EN" "http://www.w3.org/Graphics/SVG/1.1/DTD/svg11.dtd">
<svg version="1.1" xmlns="http://www.w3.org/2000/svg" xmlns:xlink="http://www.w3.org/1999/xlink" x="0px" y="0px" width="106px"
	 height="31.63px" viewBox="0 0 106 31.63" enable-background="new 0 0 106 31.63" xml:space="preserve">
<g id="Layer_5">
</g>
<g id="Layer_2">
	<g>
		<g>
			<linearGradient id="SVGID_1_" gradientUnits="userSpaceOnUse" x1="49.2749" y1="17.875" x2="49.2749" y2="30.675">
				<stop  offset="0" style="stop-color:#46618C"/>
				<stop  offset="1" style="stop-color:#303F58"/>
			</linearGradient>
			<path fill-rule="evenodd" clip-rule="evenodd" fill="url(#SVGID_1_)" d="M76.97,22.48c-2.4-2.4-5.32-3.6-8.75-3.6
				c-3.4,0-6.3,1.2-8.7,3.6c-2.43,2.43-3.65,5.35-3.65,8.75c0,0.03,0,0.07,0,0.1h-14c0-0.03,0-0.07,0-0.1c0-3.4-1.18-6.32-3.55-8.75
				c-2.43-2.4-5.35-3.6-8.75-3.6c-3.4,0-6.33,1.2-8.8,3.6c-2.37,2.43-3.55,5.35-3.55,8.75c0,0.03,0,0.07,0,0.1h-4.45L0.38,4.48h92.3
				h5.5l-0.35,0.65l-12,26.2h-5.2c0-0.03,0-0.07,0-0.1C80.63,27.83,79.41,24.91,76.97,22.48z"/>
		</g>
		<g>
			<path fill-rule="evenodd" clip-rule="evenodd" fill="#46618C" d="M95.72,0.27h9.25c0.6,0.1,0.87,0.35,0.8,0.75v0.9
				c-0.1,0.43-0.37,0.7-0.8,0.8h-3.4c-1.67,0-2.9,0.8-3.7,2.4h-6.1l1.9-3.7C94.21,0.63,94.89,0.24,95.72,0.27z"/>
		</g>
		<g>
			<path fill-rule="evenodd" clip-rule="evenodd" fill="#FFFFFF" d="M45.48,13.13h3.1c0.6,0,1.05,0.03,1.35,0.1
				c0.3,0.03,0.57,0.13,0.8,0.3c0.27,0.17,0.47,0.38,0.6,0.65c0.17,0.27,0.25,0.57,0.25,0.9c0,0.37-0.1,0.7-0.3,1
				c-0.2,0.3-0.47,0.53-0.8,0.7c0.47,0.13,0.83,0.37,1.1,0.7c0.27,0.33,0.4,0.72,0.4,1.15c0,0.37-0.08,0.72-0.25,1.05
				c-0.17,0.33-0.4,0.6-0.7,0.8c-0.27,0.2-0.62,0.32-1.05,0.35c-0.27,0.03-0.88,0.05-1.85,0.05h-2.65V13.13z M48.08,16.23
				c0.6,0,0.97-0.02,1.1-0.05c0.27-0.03,0.48-0.12,0.65-0.25c0.17-0.17,0.25-0.37,0.25-0.6c0-0.27-0.07-0.47-0.2-0.6
				c-0.13-0.17-0.33-0.27-0.6-0.3c-0.17,0-0.62,0-1.35,0h-0.9v1.8H48.08z M50.33,18.58c0-0.23-0.05-0.43-0.15-0.6
				c-0.1-0.17-0.27-0.28-0.5-0.35c-0.2-0.1-0.67-0.15-1.4-0.15h-1.25v2.1h1.45c0.57,0,0.93-0.02,1.1-0.05
				c0.23-0.03,0.42-0.13,0.55-0.3S50.33,18.84,50.33,18.58z"/>
		</g>
	</g>
</g>
</svg>
