<?xml version="1.0" encoding="utf-8"?>
<!-- Generator: Adobe Illustrator 16.0.0, SVG Export Plug-In . SVG Version: 6.00 Build 0)  -->
<!DOCTYPE svg PUBLIC "-//W3C//DTD SVG 1.1//EN" "http://www.w3.org/Graphics/SVG/1.1/DTD/svg11.dtd">
<svg version="1.1" id="Layer_1" xmlns="http://www.w3.org/2000/svg" xmlns:xlink="http://www.w3.org/1999/xlink" x="0px" y="0px"
	 width="65px" height="25px" viewBox="0 0 65 25" enable-background="new 0 0 65 25" xml:space="preserve">
<g>
	<g>
		<path fill-rule="evenodd" clip-rule="evenodd" fill="#FFFFCC" d="M62.8,19.2c0,2.5-1.3,3.8-3.8,3.8H14.4L2.1,12.6L14.3,2.4H59
			c2.5,0,3.8,1.3,3.8,3.8V19.2z"/>
		<path fill-rule="evenodd" clip-rule="evenodd" fill="#FFFF66" d="M63.8,6.1v13.1c0,3.2-1.6,4.8-4.8,4.8H14.1c-0.1,0-0.3,0-0.4-0.2
			c0,0-0.1-0.1-0.1-0.1L0.5,12.6L13.8,1.5c0.1-0.1,0.2-0.1,0.3-0.1H59C62.2,1.4,63.8,2.9,63.8,6.1z M62.8,19.2V6.1
			c0-2.5-1.3-3.8-3.8-3.8H14.3L2.1,12.6L14.4,23H59C61.5,23,62.8,21.7,62.8,19.2z"/>
	</g>
</g>
</svg>
