<?xml version="1.0" encoding="utf-8"?>
<!-- Generator: Adobe Illustrator 16.0.0, SVG Export Plug-In . SVG Version: 6.00 Build 0)  -->
<!DOCTYPE svg PUBLIC "-//W3C//DTD SVG 1.1//EN" "http://www.w3.org/Graphics/SVG/1.1/DTD/svg11.dtd">
<svg version="1.1" id="Layer_1" xmlns="http://www.w3.org/2000/svg" xmlns:xlink="http://www.w3.org/1999/xlink" x="0px" y="0px"
	 width="52.5px" height="191.25px" viewBox="0 0 52.5 191.25" enable-background="new 0 0 52.5 191.25" xml:space="preserve">
<g>
	<g>
		<linearGradient id="SVGID_1_" gradientUnits="userSpaceOnUse" x1="26.4004" y1="174.8496" x2="26.4004" y2="185.4496">
			<stop  offset="0" style="stop-color:#000000"/>
			<stop  offset="1" style="stop-color:#000000;stop-opacity:0"/>
		</linearGradient>
		<path fill-rule="evenodd" clip-rule="evenodd" fill="url(#SVGID_1_)" d="M2.15,176.85H47.4c1.5,4.6,2.75,8.3,3.75,11.1H1.65
			L2.15,176.85z"/>
	</g>
	<g>
		<rect x="2.05" y="2.7" fill-rule="evenodd" clip-rule="evenodd" fill="#EEC538" width="28.8" height="177"/>
	</g>
	<g>
		<polygon fill-rule="evenodd" clip-rule="evenodd" fill="#C0A547" points="16.3,167.05 32.95,167.05 42.65,176.75 47.25,176.75 
			47.45,176.75 47.45,178.95 16.3,178.95 		"/>
		<polygon fill-rule="evenodd" clip-rule="evenodd" fill="#AF963E" points="42.65,176.75 32.95,167.05 32.6,165.8 42.3,175.55 		"/>
		<path fill-rule="evenodd" clip-rule="evenodd" fill="#9C832B" d="M32.95,167.05H16.3v-1.4h16.15l0.15,0.15L32.95,167.05z
			 M47.25,176.75h-4.6l-0.35-1.2l0.05,0.05v-0.05l4,0.05L47.25,176.75z"/>
	</g>
	<g>
		<g>
			<linearGradient id="SVGID_2_" gradientUnits="userSpaceOnUse" x1="31.5449" y1="92.3838" x2="2.1443" y2="92.2213">
				<stop  offset="0" style="stop-color:#C2A643"/>
				<stop  offset="1" style="stop-color:#BDA453"/>
			</linearGradient>
			<rect x="2.05" y="3.8" fill-rule="evenodd" clip-rule="evenodd" fill="url(#SVGID_2_)" width="28.8" height="177"/>
		</g>
	</g>
	<g>
		<polygon fill-rule="evenodd" clip-rule="evenodd" fill="#AF963E" points="43.25,178.55 33.55,168.85 33.2,167.6 42.9,177.35 		"/>
		<path fill-rule="evenodd" clip-rule="evenodd" fill="#9C832B" d="M42.9,177.35l0.05,0.05v-0.05l4,0.05l0.9,1.15h-4.6L42.9,177.35z
			 M33.55,168.85h-11.1l0.35-1.4h10.25l0.15,0.15L33.55,168.85z"/>
		<linearGradient id="SVGID_3_" gradientUnits="userSpaceOnUse" x1="35.4736" y1="174.3232" x2="30.5759" y2="184.7993">
			<stop  offset="0" style="stop-color:#C0A547"/>
			<stop  offset="1" style="stop-color:#B1973A"/>
		</linearGradient>
		<polygon fill-rule="evenodd" clip-rule="evenodd" fill="url(#SVGID_3_)" points="22.45,168.85 33.55,168.85 43.25,178.55 
			47.85,178.55 48.05,178.55 48.05,180.75 22.45,180.75 		"/>
	</g>
	<g>
		
			<path fill-rule="evenodd" clip-rule="evenodd" fill="none" stroke="#000000" stroke-width="0.75" stroke-linecap="round" stroke-linejoin="round" stroke-miterlimit="3" stroke-opacity="0.3255" d="
			M2.55,14.2h4.9 M2.55,10.8h4.9 M2.55,9.65h4.9 M2.55,15.3h4.9 M2.55,11.9h4.9 M2.55,16.45h4.9 M2.55,8.5h4.9 M2.55,13.05h7.8
			 M2.55,7.35h10.3 M2.55,22.25h4.9 M2.55,20h4.9 M2.55,23.4h4.9 M7.45,17.6h-4.9 M2.55,21.1h4.9 M2.55,25.65h4.9 M2.55,26.8h4.9
			 M2.55,27.9h4.9 M7.45,29.05h-4.9 M2.55,34.8h4.9 M2.55,38.2h4.9 M2.55,37.05h4.9 M2.55,39.3h4.9 M2.55,33.65h4.9 M7.45,40.45
			h-4.9 M2.55,31.4h4.9 M2.55,32.5h4.9 M2.55,30.25h10.3 M2.55,35.9h7.8 M2.55,41.7h10.3 M2.55,24.5h7.8 M2.55,18.85h10.3
			 M7.45,51.95h-4.9 M2.55,48.55h4.9 M2.55,54.25h4.9 M2.55,49.65h4.9 M2.55,44h4.9 M2.55,42.85h4.9 M2.55,46.25h4.9 M2.55,45.15
			h4.9 M2.55,50.8h4.9 M2.55,55.35h4.9 M2.55,56.5h4.9 M2.55,59.9h4.9 M2.55,61.05h4.9 M7.45,63.3h-4.9 M2.55,57.65h4.9 M2.55,62.2
			h4.9 M2.55,65.7h4.9 M2.55,53.1h10.3 M2.55,47.4h7.8 M2.55,64.55h10.3 M2.55,58.75h7.8 M2.55,71.4h4.9 M2.55,69.1h4.9 M2.55,66.85
			h4.9 M2.55,68h4.9 M2.55,72.5h4.9 M2.55,77.1h4.9 M7.45,74.8h-4.9 M2.55,73.65h4.9 M2.55,78.25h4.9 M2.55,88.6h4.9 M2.55,90.85
			h4.9 M2.55,79.4h4.9 M2.55,85.05h4.9 M7.45,86.2h-4.9 M2.55,83.9h4.9 M2.55,80.5h4.9 M2.55,82.8h4.9 M2.55,89.7h4.9 M2.55,75.95
			h10.3 M2.55,87.45h10.3 M2.55,81.65h7.8 M2.55,70.25h7.8 M2.55,96.5h4.9 M2.55,103.4h4.9 M7.45,97.65h-4.9 M2.55,100h4.9
			 M2.55,102.25h4.9 M2.55,101.1h4.9 M2.55,92h4.9 M2.55,94.25h4.9 M2.55,95.4h4.9 M2.55,113.7h4.9 M2.55,112.55h4.9 M2.55,114.85
			h4.9 M2.55,105.65h4.9 M2.55,111.45h4.9 M2.55,106.8h4.9 M2.55,107.9h4.9 M7.45,109.05h-4.9 M2.55,116h7.8 M2.55,110.3h10.3
			 M2.55,104.5h7.8 M2.55,98.85h10.3 M2.55,93.1h7.8 M2.55,119.4h4.9 M2.55,117.1h4.9 M2.55,118.25h4.9 M2.55,128.5h4.9 M2.55,125.1
			h4.9 M2.55,123.95h4.9 M2.55,126.25h4.9 M7.45,120.55h-4.9 M2.55,122.85h4.9 M2.55,140h4.9 M2.55,137.7h4.9 M2.55,136.6h4.9
			 M2.55,134.3h4.9 M2.55,130.75h4.9 M7.45,131.9h-4.9 M2.55,129.65h4.9 M2.55,135.45h4.9 M2.55,133.15h10.3 M2.55,121.7h10.3
			 M2.55,138.85h7.8 M2.55,127.35h7.8 M2.55,146.85h4.9 M2.55,148h4.9 M2.55,145.7h4.9 M2.55,149.1h4.9 M2.55,141.1h4.9
			 M2.55,142.25h4.9 M7.45,143.4h-4.9 M2.55,151.4h4.9 M2.55,152.5h4.9 M2.55,158.3h4.9 M2.55,153.65h4.9 M2.55,160.6h4.9
			 M2.55,162.85h4.9 M2.55,164h4.9 M2.55,165.1h4.9 M7.45,154.8h-4.9 M2.55,157.2h4.9 M2.55,159.45h4.9 M2.55,156.05h10.3
			 M2.55,161.7h7.8 M2.55,144.55h10.3 M2.55,150.25h7.8 M2.55,168.4h4.9 M7.45,166.25h-4.9 M7.45,177.5h-4.9 M2.55,174.1h4.9
			 M2.55,175.2h4.9 M2.55,170.7h4.9 M2.55,176.35h4.9 M2.55,169.55h4.9 M2.55,171.8h4.9 M2.55,178.75h10.3 M2.55,172.95h7.8
			 M2.55,167.4h10.3"/>
	</g>
	<g>
		<radialGradient id="SVGID_4_" cx="27.2998" cy="173.6504" r="3.35" gradientUnits="userSpaceOnUse">
			<stop  offset="0" style="stop-color:#F3D97C"/>
			<stop  offset="0.3255" style="stop-color:#BCA44B"/>
			<stop  offset="0.5216" style="stop-color:#A38B35"/>
			<stop  offset="1" style="stop-color:#8C7626"/>
		</radialGradient>
		<path fill-rule="evenodd" clip-rule="evenodd" fill="url(#SVGID_4_)" d="M29.15,176.45c-0.47,0.47-1.05,0.7-1.75,0.7
			c-0.73,0-1.37-0.23-1.9-0.7c-0.43-0.5-0.65-1.12-0.65-1.85c0-0.7,0.22-1.28,0.65-1.75c0.53-0.53,1.17-0.8,1.9-0.8
			c0.7,0,1.28,0.27,1.75,0.8c0.53,0.47,0.8,1.05,0.8,1.75C29.95,175.33,29.68,175.95,29.15,176.45z"/>
	</g>
	<g>
		<polygon fill-rule="evenodd" clip-rule="evenodd" fill="#514517" points="28.4,176 27.8,176.3 26.4,173.35 27,173.05 		"/>
	</g>
	<g>
		<polygon fill-rule="evenodd" clip-rule="evenodd" fill="#514517" points="25.75,175 28.65,173.55 28.95,174.2 26.05,175.65 		"/>
	</g>
</g>
</svg>
