<?xml version="1.0" encoding="utf-8"?>
<!-- Generator: Adobe Illustrator 16.0.0, SVG Export Plug-In . SVG Version: 6.00 Build 0)  -->
<!DOCTYPE svg PUBLIC "-//W3C//DTD SVG 1.1//EN" "http://www.w3.org/Graphics/SVG/1.1/DTD/svg11.dtd">
<svg version="1.1" id="Layer_1" xmlns="http://www.w3.org/2000/svg" xmlns:xlink="http://www.w3.org/1999/xlink" x="0px" y="0px"
	 width="30.25px" height="59.13px" viewBox="0 0 30.25 59.13" enable-background="new 0 0 30.25 59.13" xml:space="preserve">
<g>
	<g>
		<g>
			<g>
				<radialGradient id="SVGID_1_" cx="15.875" cy="6.6504" r="4.8125" gradientUnits="userSpaceOnUse">
					<stop  offset="0" style="stop-color:#FFFFFF"/>
					<stop  offset="1" style="stop-color:#6D6967"/>
				</radialGradient>
				<path fill-rule="evenodd" clip-rule="evenodd" fill="url(#SVGID_1_)" d="M18.73,10.9c0.03-0.03,0.07-0.07,0.1-0.1
					c0.63-0.53,0.18-0.62-1.35-0.25c-1.03,0.2-1,0.03,0.1-0.5l-0.15,0.05c0.07-0.03,0.15-0.07,0.25-0.1c0.27-0.2,0.55-0.43,0.85-0.7
					c0.7-0.7,1.05-1.58,1.05-2.65c0-0.93-0.32-1.73-0.95-2.4c-0.07-0.07-0.12-0.13-0.15-0.2c-0.83-0.73-1.7-1.1-2.6-1.1
					c-1.03,0-1.92,0.37-2.65,1.1c-0.67,0.6-1.03,1.33-1.1,2.2c-0.07,0.17-0.15,0.3-0.25,0.4c-0.17,0.13-0.33,0.18-0.5,0.15
					c-0.2,0-0.37-0.08-0.5-0.25c-0.13-0.17-0.18-0.33-0.15-0.5c0.17-1.17,0.67-2.15,1.5-2.95h0.05c0.97-1,2.17-1.5,3.6-1.5
					c1.37,0,2.55,0.5,3.55,1.5c1,1.03,1.5,2.22,1.5,3.55c0,1.43-0.5,2.65-1.5,3.65C19.19,10.53,18.96,10.73,18.73,10.9z"/>
				<radialGradient id="SVGID_2_" cx="19.875" cy="16.0498" r="5.6625" gradientUnits="userSpaceOnUse">
					<stop  offset="0" style="stop-color:#FFFFFF"/>
					<stop  offset="1" style="stop-color:#6D6967"/>
				</radialGradient>
				<path fill-rule="evenodd" clip-rule="evenodd" fill="url(#SVGID_2_)" d="M17.58,10.05c-1.1,0.53-1.13,0.7-0.1,0.5
					c1.53-0.37,1.98-0.28,1.35,0.25c-0.03,0.03-0.07,0.07-0.1,0.1c-0.07,0.03-0.13,0.07-0.2,0.1l-0.25,0.15
					c-0.1,0.03-0.17,0.1-0.2,0.2c-0.1,0.03-0.3,0.18-0.6,0.45l-0.05,0.05c-0.17,0.13-0.32,0.27-0.45,0.4c-0.17,0.27-0.32,0.6-0.45,1
					c-0.1,0.33-0.15,0.88-0.15,1.65h-1.45c0,0.07,0,0.13,0,0.2c0,0.03,0,0.1,0,0.2c-0.1-1.1-0.03-2.12,0.2-3.05
					c0.03-0.1,0.07-0.22,0.1-0.35c0.07-0.03,0.1-0.07,0.1-0.1c0.33-0.53,0.7-0.93,1.1-1.2C16.76,10.43,17.14,10.25,17.58,10.05z"/>
				
					<radialGradient id="SVGID_3_" cx="19.625" cy="114.5498" r="5.6625" gradientTransform="matrix(1 0 0 82.0177 0 -9280.5576)" gradientUnits="userSpaceOnUse">
					<stop  offset="0" style="stop-color:#FFFFFF"/>
					<stop  offset="1" style="stop-color:#6D6967"/>
				</radialGradient>
				<path fill-rule="evenodd" clip-rule="evenodd" fill="url(#SVGID_3_)" d="M16.38,14.9c0,0.07,0,0.13,0,0.2c0,0.2,0,0.47,0,0.8
					c0,1.53,0,3.17,0,4.9c0,0.4,0,0.83,0,1.3c0,0.43,0,0.75,0,0.95h-1.45c0-0.2,0-0.52,0-0.95c0-0.47,0-0.9,0-1.3
					c0-1.73,0-3.37,0-4.9c0-0.23,0-0.43,0-0.6c0-0.1,0-0.17,0-0.2c0-0.07,0-0.13,0-0.2H16.38z"/>
				
					<radialGradient id="SVGID_4_" cx="19.625" cy="40.4004" r="5.6625" gradientTransform="matrix(1 0 0 15.5342 0 -587.1882)" gradientUnits="userSpaceOnUse">
					<stop  offset="0" style="stop-color:#FFFFFF"/>
					<stop  offset="1" style="stop-color:#6D6967"/>
				</radialGradient>
				<path fill-rule="evenodd" clip-rule="evenodd" fill="url(#SVGID_4_)" d="M16.38,23.05c0,1.87,0,3.77,0,5.7c0,1.4,0,2.85,0,4.35
					c0,6,0.02,12.68,0.05,20.05h-1.35c-0.03-1.83-0.05-3.5-0.05-5c0-6.27-0.03-10.33-0.1-12.2c0-1.03,0-1.98,0-2.85
					c0-1.5,0-2.95,0-4.35c0-1.93,0-3.83,0-5.7H16.38z"/>
			</g>
			<g>
				<path fill-rule="evenodd" clip-rule="evenodd" fill="none" d="M11.58,5.9c0.1-0.97,0.52-1.8,1.25-2.5
					c0.87-0.87,1.92-1.3,3.15-1.3c1.2,0,2.23,0.43,3.1,1.3c0.87,0.87,1.3,1.9,1.3,3.1c0,1.23-0.43,2.27-1.3,3.1
					c-0.13,0.13-0.25,0.27-0.35,0.4c-0.67,0.5-1.37,0.78-2.1,0.85"/>
			</g>
			<g>
				<line fill-rule="evenodd" clip-rule="evenodd" fill="none" x1="15.73" y1="19" x2="15.73" y2="53.15"/>
			</g>
		</g>
		<g>
			<g>
				<linearGradient id="SVGID_5_" gradientUnits="userSpaceOnUse" x1="16.542" y1="54.3945" x2="12.0131" y2="37.0149">
					<stop  offset="0" style="stop-color:#6E6A68"/>
					<stop  offset="0.298" style="stop-color:#B4B1B1"/>
					<stop  offset="1" style="stop-color:#6D6967"/>
				</linearGradient>
				<path fill-rule="evenodd" clip-rule="evenodd" fill="url(#SVGID_5_)" d="M2.17,49.15c0-0.23,1.28-0.47,3.85-0.7
					c2.5-0.17,5.47-0.25,8.9-0.25v0.45h1.55V48.2c3.03,0,5.67,0.08,7.9,0.25c2.53,0.23,3.8,0.47,3.8,0.7s-1.27,0.43-3.8,0.6
					c-2.53,0.2-5.6,0.3-9.2,0.3c-3.57,0-6.62-0.1-9.15-0.3C3.46,49.58,2.17,49.38,2.17,49.15z"/>
				<linearGradient id="SVGID_6_" gradientUnits="userSpaceOnUse" x1="2.1748" y1="53.25" x2="28.1748" y2="53.25">
					<stop  offset="0" style="stop-color:#322B28"/>
					<stop  offset="0.098" style="stop-color:#7C6654"/>
					<stop  offset="0.2118" style="stop-color:#6F7C8D"/>
					<stop  offset="0.298" style="stop-color:#6E7A89"/>
					<stop  offset="0.4588" style="stop-color:#E1DBD9"/>
					<stop  offset="0.6275" style="stop-color:#999A9C"/>
					<stop  offset="0.6784" style="stop-color:#939491"/>
					<stop  offset="0.8157" style="stop-color:#EEF3F9"/>
					<stop  offset="0.902" style="stop-color:#F2F6FE"/>
					<stop  offset="1" style="stop-color:#5E5C8C"/>
				</linearGradient>
				<path fill-rule="evenodd" clip-rule="evenodd" fill="url(#SVGID_6_)" d="M28.17,49.15v7.2c0,0.3-1.27,0.53-3.8,0.7
					c-2.3,0.2-5.37,0.3-9.2,0.3c-3.8,0-6.85-0.1-9.15-0.3c-2.57-0.17-3.85-0.4-3.85-0.7v-7.2c0,0.23,1.28,0.43,3.85,0.6
					c2.53,0.2,5.58,0.3,9.15,0.3c3.6,0,6.67-0.1,9.2-0.3C26.91,49.58,28.17,49.38,28.17,49.15z"/>
				<path fill-rule="evenodd" clip-rule="evenodd" fill="none" d="M28.17,49.15c0,0.23-1.27,0.43-3.8,0.6c-2.53,0.2-5.6,0.3-9.2,0.3
					c-3.57,0-6.62-0.1-9.15-0.3c-2.57-0.17-3.85-0.37-3.85-0.6"/>
			</g>
			<g>
				<radialGradient id="SVGID_7_" cx="15.125" cy="56.2002" r="13.7" gradientUnits="userSpaceOnUse">
					<stop  offset="0" style="stop-color:#050505"/>
					<stop  offset="1" style="stop-color:#000000;stop-opacity:0"/>
				</radialGradient>
				<path fill-rule="evenodd" clip-rule="evenodd" fill="url(#SVGID_7_)" d="M27.98,56.05v0.7h-0.1c-0.57,0.07-1.72,0.17-3.45,0.3
					c-2.27,0.2-5.35,0.3-9.25,0.3c-3.8,0-6.85-0.1-9.15-0.3c-1.9-0.13-3.12-0.28-3.65-0.45v-0.85l0.35,0.1
					c0.87,0.13,2.17,0.3,3.9,0.5c1.63,0.27,4.78,0.42,9.45,0.45C20.67,56.83,24.64,56.58,27.98,56.05z"/>
			</g>
			<g>
				<g>
					<path fill-rule="evenodd" clip-rule="evenodd" d="M15.88,48.8c0.37,0,0.7,0,1,0c0.27,0.03,0.4,0.07,0.4,0.1
						c0,0.03-0.13,0.1-0.4,0.2c-0.3,0-0.63,0-1,0c-0.43,0-0.77,0-1,0c-0.33-0.1-0.5-0.17-0.5-0.2c0-0.03,0.17-0.07,0.5-0.1
						C15.11,48.8,15.44,48.8,15.88,48.8z"/>
				</g>
			</g>
			<g>
				<path fill-rule="evenodd" clip-rule="evenodd" fill="none" d="M27.83,49.4c-0.57,0.17-1.72,0.28-3.45,0.35
					c-2.53,0.2-5.6,0.3-9.2,0.3c-3.57,0-6.62-0.1-9.15-0.3c-1.73-0.07-2.9-0.18-3.5-0.35"/>
			</g>
		</g>
	</g>
</g>
</svg>
